M48
METRIC,TZ
T1C0.300
T2C0.300
T3C0.500
T4C0.600
T5C0.800
T6C1.020
T7C1.200
T8C3.200
%
G90
G05
T1
X95500Y-80500
X95500Y-85500
X95500Y-90500
X95500Y-95500
X95500Y-100500
X95500Y-105500
X95500Y-110500
X97400Y-102209
X97400Y-103809
X100500Y-75500
X100500Y-85500
X100500Y-90500
X100500Y-100500
X100500Y-105500
X100500Y-115500
X101425Y-103000
X105425Y-96200
X105500Y-75500
X105500Y-80500
X105500Y-85500
X105500Y-100500
X105500Y-105500
X105500Y-110500
X106975Y-92000
X108525Y-91000
X108525Y-92600
X109175Y-97100
X109219Y-98700
X109500Y-113700
X110075Y-91000
X110075Y-92600
X110500Y-75500
X110500Y-80500
X110500Y-85500
X110500Y-100500
X110500Y-105500
X110833Y-97879
X110900Y-78100
X111100Y-96200
X111100Y-97000
X111500Y-112500
X112000Y-92063
X112350Y-101400
X112500Y-84700
X112700Y-100014
X112850Y-102700
X112850Y-103450
X113100Y-85600
X113100Y-89400
X113100Y-93100
X113100Y-97900
X113500Y-79500
X113500Y-80600
X113500Y-81700
X113500Y-82800
X113800Y-91100
X114611Y-89489
X114675Y-80600
X114675Y-81700
X114675Y-82800
X114700Y-85500
X115000Y-102700
X115000Y-103450
X115000Y-104200
X115075Y-100800
X115200Y-90200
X115500Y-105500
X115500Y-110500
X115525Y-78100
X116200Y-89400
X116204Y-101273
X116325Y-80600
X116325Y-81700
X116325Y-82800
X116375Y-100543
X116500Y-85500
X116500Y-87800
X116508Y-99797
X117400Y-79500
X117400Y-81725
X117400Y-82800
X117650Y-90626
X117700Y-83800
X117806Y-89406
X117900Y-85600
X117900Y-86900
X117900Y-94500
X117900Y-96500
X118200Y-90116
X118300Y-107700
X118700Y-98900
X118900Y-101325
X119000Y-92000
X119800Y-96300
X119800Y-97425
X119800Y-99300
X120100Y-78100
X120383Y-92225
X120450Y-94800
X120500Y-90200
X120500Y-85500
X120500Y-75500
X120500Y-80500
X120500Y-89450
X120500Y-115500
X120700Y-109700
X121200Y-93500
X121200Y-94800
X121500Y-111300
X121500Y-112050
X121800Y-91300
X121917Y-99856
X122000Y-102000
X122300Y-109700
X122550Y-91303
X122742Y-99856
X123000Y-101000
X123500Y-103000
X124000Y-103900
X124700Y-107700
X124925Y-99306
X124950Y-91300
X125500Y-75500
X125500Y-80500
X125500Y-85500
X125500Y-103000
X125500Y-115500
X125504Y-101025
X125700Y-89850
X125700Y-91300
X126200Y-104800
X126900Y-103000
X127500Y-91300
X127700Y-104800
X128175Y-97325
X128300Y-91300
X128500Y-100925
X128500Y-103100
X128700Y-104800
X129500Y-100100
X129500Y-101100
X129500Y-102100
X129500Y-103100
X129700Y-104800
X130050Y-95500
X130500Y-75500
X130500Y-85500
X130500Y-90500
X130500Y-100100
X130500Y-101100
X130500Y-102100
X130500Y-115500
X130710Y-97150
X130736Y-93850
X130800Y-105600
X131500Y-100100
X131500Y-101100
X131500Y-102100
X131500Y-103100
X131700Y-104800
X132500Y-100100
X132500Y-101100
X132500Y-102100
X132500Y-103100
X133500Y-100100
X133500Y-101100
X133500Y-102100
X133500Y-103100
X135500Y-80500
X135500Y-85500
X135500Y-105500
X135500Y-110500
T2
X123700Y-94425
X123700Y-96575
X125567Y-94425
X125567Y-96575
X127433Y-94425
X127433Y-96575
X129300Y-94425
X129300Y-96575
T3
X97600Y-80000
X97600Y-111000
X98303Y-78303
X98303Y-81697
X98303Y-109303
X98303Y-112697
X100000Y-77600
X100000Y-82400
X100000Y-108600
X100000Y-113400
X101697Y-78303
X101697Y-81697
X101697Y-109303
X101697Y-112697
X102400Y-80000
X102400Y-111000
X128600Y-80000
X128600Y-111000
X129303Y-78303
X129303Y-81697
X129303Y-109303
X129303Y-112697
X131000Y-77600
X131000Y-82400
X131000Y-108600
X131000Y-113400
X132697Y-78303
X132697Y-81697
X132697Y-109303
X132697Y-112697
X133400Y-80000
X133400Y-111000
T5
X104500Y-115150
X106500Y-115150
X108500Y-115150
X110500Y-115150
X112500Y-115150
X112500Y-75850
X114500Y-75850
X114500Y-115150
X116500Y-75850
X118500Y-75850
T6
X135300Y-91630
X135300Y-94170
X135300Y-96710
X135300Y-99250
T7
X97600Y-94200
X97600Y-96740
T8
X100000Y-80000
X100000Y-111000
X131000Y-80000
X131000Y-111000
T4
G00X117180Y-108795
M15
G01X117180Y-109895
M16
G05
G00X117180Y-113225
M15
G01X117180Y-113825
M16
G05
G00X125820Y-108795
M15
G01X125820Y-109895
M16
G05
G00X125820Y-113225
M15
G01X125820Y-113825
M16
G05
M30
