%TF.GenerationSoftware,KiCad,Pcbnew,8.0.4*%
%TF.CreationDate,2024-08-27T17:51:01+02:00*%
%TF.ProjectId,stepper_driver_PCB,73746570-7065-4725-9f64-72697665725f,rev?*%
%TF.SameCoordinates,Original*%
%TF.FileFunction,Soldermask,Bot*%
%TF.FilePolarity,Negative*%
%FSLAX46Y46*%
G04 Gerber Fmt 4.6, Leading zero omitted, Abs format (unit mm)*
G04 Created by KiCad (PCBNEW 8.0.4) date 2024-08-27 17:51:01*
%MOMM*%
%LPD*%
G01*
G04 APERTURE LIST*
G04 Aperture macros list*
%AMRoundRect*
0 Rectangle with rounded corners*
0 $1 Rounding radius*
0 $2 $3 $4 $5 $6 $7 $8 $9 X,Y pos of 4 corners*
0 Add a 4 corners polygon primitive as box body*
4,1,4,$2,$3,$4,$5,$6,$7,$8,$9,$2,$3,0*
0 Add four circle primitives for the rounded corners*
1,1,$1+$1,$2,$3*
1,1,$1+$1,$4,$5*
1,1,$1+$1,$6,$7*
1,1,$1+$1,$8,$9*
0 Add four rect primitives between the rounded corners*
20,1,$1+$1,$2,$3,$4,$5,0*
20,1,$1+$1,$4,$5,$6,$7,0*
20,1,$1+$1,$6,$7,$8,$9,0*
20,1,$1+$1,$8,$9,$2,$3,0*%
G04 Aperture macros list end*
%ADD10R,1.350000X1.350000*%
%ADD11O,1.350000X1.350000*%
%ADD12C,0.800000*%
%ADD13C,6.400000*%
%ADD14R,2.000000X2.000000*%
%ADD15C,2.000000*%
%ADD16C,0.650000*%
%ADD17O,1.000000X2.100000*%
%ADD18O,1.000000X1.600000*%
%ADD19C,1.100000*%
%ADD20R,2.030000X1.730000*%
%ADD21O,2.030000X1.730000*%
%ADD22RoundRect,0.150000X0.150000X-0.825000X0.150000X0.825000X-0.150000X0.825000X-0.150000X-0.825000X0*%
%ADD23RoundRect,0.225000X-0.250000X0.225000X-0.250000X-0.225000X0.250000X-0.225000X0.250000X0.225000X0*%
%ADD24RoundRect,0.150000X-0.150000X0.512500X-0.150000X-0.512500X0.150000X-0.512500X0.150000X0.512500X0*%
%ADD25RoundRect,0.225000X0.225000X0.250000X-0.225000X0.250000X-0.225000X-0.250000X0.225000X-0.250000X0*%
%ADD26RoundRect,0.100000X0.100000X-0.675000X0.100000X0.675000X-0.100000X0.675000X-0.100000X-0.675000X0*%
%ADD27R,6.200000X2.750000*%
%ADD28RoundRect,0.225000X-0.225000X-0.250000X0.225000X-0.250000X0.225000X0.250000X-0.225000X0.250000X0*%
%ADD29RoundRect,0.225000X0.250000X-0.225000X0.250000X0.225000X-0.250000X0.225000X-0.250000X-0.225000X0*%
%ADD30RoundRect,0.200000X-0.275000X0.200000X-0.275000X-0.200000X0.275000X-0.200000X0.275000X0.200000X0*%
%ADD31RoundRect,0.200000X-0.200000X-0.275000X0.200000X-0.275000X0.200000X0.275000X-0.200000X0.275000X0*%
%ADD32R,0.406400X0.762000*%
G04 APERTURE END LIST*
D10*
%TO.C,J2*%
X114500000Y-115150000D03*
D11*
X112499999Y-115150000D03*
X110500000Y-115150000D03*
X108500000Y-115150000D03*
X106500000Y-115150000D03*
X104500000Y-115150000D03*
%TD*%
D10*
%TO.C,J4*%
X118500000Y-75850000D03*
D11*
X116499999Y-75850000D03*
X114500000Y-75850000D03*
X112500000Y-75850000D03*
%TD*%
D12*
%TO.C,H2*%
X128600000Y-80000000D03*
X129302944Y-78302944D03*
X129302944Y-81697056D03*
X131000000Y-77600000D03*
D13*
X131000000Y-80000000D03*
D12*
X131000000Y-82400000D03*
X132697056Y-78302944D03*
X132697056Y-81697056D03*
X133400000Y-80000000D03*
%TD*%
D14*
%TO.C,J1*%
X97600000Y-94200000D03*
D15*
X97600000Y-96740000D03*
%TD*%
D16*
%TO.C,J5*%
X118610000Y-109845000D03*
X124390000Y-109845000D03*
D17*
X117180000Y-109345000D03*
D18*
X117180000Y-113525000D03*
D17*
X125820000Y-109345000D03*
D18*
X125820000Y-113525000D03*
%TD*%
D12*
%TO.C,H1*%
X97600000Y-80000000D03*
X98302944Y-78302944D03*
X98302944Y-81697056D03*
X100000000Y-77600000D03*
D13*
X100000000Y-80000000D03*
D12*
X100000000Y-82400000D03*
X101697056Y-78302944D03*
X101697056Y-81697056D03*
X102400000Y-80000000D03*
%TD*%
D19*
%TO.C,J3*%
X133140000Y-94170000D03*
D20*
X135300000Y-99250000D03*
D21*
X135300000Y-96710000D03*
X135300000Y-94170001D03*
X135300000Y-91630000D03*
%TD*%
D12*
%TO.C,H4*%
X128600000Y-111000000D03*
X129302944Y-109302944D03*
X129302944Y-112697056D03*
X131000000Y-108600000D03*
D13*
X131000000Y-111000000D03*
D12*
X131000000Y-113400000D03*
X132697056Y-109302944D03*
X132697056Y-112697056D03*
X133400000Y-111000000D03*
%TD*%
%TO.C,H3*%
X97600000Y-111000000D03*
X98302944Y-109302944D03*
X98302944Y-112697056D03*
X100000000Y-108600000D03*
D13*
X100000000Y-111000000D03*
D12*
X100000000Y-113400000D03*
X101697056Y-109302944D03*
X101697056Y-112697056D03*
X102400000Y-111000000D03*
%TD*%
D22*
%TO.C,U2*%
X117405000Y-97975000D03*
X116135000Y-97975000D03*
X114865000Y-97975000D03*
X113595000Y-97975000D03*
X113595000Y-93025000D03*
X114865000Y-93025000D03*
X116135000Y-93025000D03*
X117405000Y-93025000D03*
%TD*%
D23*
%TO.C,C15*%
X127000000Y-100125000D03*
X127000000Y-101675000D03*
%TD*%
D24*
%TO.C,U6*%
X120550001Y-110562500D03*
X121500000Y-110562500D03*
X122449999Y-110562500D03*
X122449999Y-112837500D03*
X121500000Y-112837500D03*
X120550001Y-112837500D03*
%TD*%
D25*
%TO.C,C4*%
X115075000Y-101500000D03*
X113525000Y-101500000D03*
%TD*%
D26*
%TO.C,U5*%
X130725000Y-98375000D03*
X130075000Y-98375000D03*
X129425000Y-98375000D03*
X128775000Y-98375000D03*
X128125001Y-98375000D03*
X127475000Y-98375000D03*
X126825000Y-98375000D03*
X126175000Y-98375000D03*
X125525000Y-98375000D03*
X124874999Y-98375000D03*
X124225000Y-98375000D03*
X123575000Y-98375000D03*
X122925000Y-98375000D03*
X122275000Y-98375000D03*
X122275000Y-92625000D03*
X122925000Y-92625000D03*
X123575000Y-92625000D03*
X124225000Y-92625000D03*
X124874999Y-92625000D03*
X125525000Y-92625000D03*
X126175000Y-92625000D03*
X126825000Y-92625000D03*
X127475000Y-92625000D03*
X128125001Y-92625000D03*
X128775000Y-92625000D03*
X129425000Y-92625000D03*
X130075000Y-92625000D03*
X130725000Y-92625000D03*
D27*
X126500000Y-95500000D03*
%TD*%
D28*
%TO.C,C3*%
X113550000Y-100000000D03*
X115100000Y-100000000D03*
%TD*%
D29*
%TO.C,C16*%
X125500000Y-101675000D03*
X125500000Y-100125000D03*
%TD*%
D30*
%TO.C,R10*%
X128500000Y-100075000D03*
X128500000Y-101725000D03*
%TD*%
D31*
%TO.C,R1*%
X122575000Y-90300000D03*
X124225000Y-90300000D03*
%TD*%
D32*
%TO.C,FL1*%
X121093600Y-108424999D03*
X121093600Y-106575001D03*
X121906400Y-106575001D03*
X121906400Y-108424999D03*
%TD*%
M02*
