%TF.GenerationSoftware,KiCad,Pcbnew,8.0.4*%
%TF.CreationDate,2024-08-28T16:39:45+02:00*%
%TF.ProjectId,stepper_driver_PCB,73746570-7065-4725-9f64-72697665725f,rev?*%
%TF.SameCoordinates,Original*%
%TF.FileFunction,Copper,L4,Bot*%
%TF.FilePolarity,Positive*%
%FSLAX46Y46*%
G04 Gerber Fmt 4.6, Leading zero omitted, Abs format (unit mm)*
G04 Created by KiCad (PCBNEW 8.0.4) date 2024-08-28 16:39:45*
%MOMM*%
%LPD*%
G01*
G04 APERTURE LIST*
G04 Aperture macros list*
%AMRoundRect*
0 Rectangle with rounded corners*
0 $1 Rounding radius*
0 $2 $3 $4 $5 $6 $7 $8 $9 X,Y pos of 4 corners*
0 Add a 4 corners polygon primitive as box body*
4,1,4,$2,$3,$4,$5,$6,$7,$8,$9,$2,$3,0*
0 Add four circle primitives for the rounded corners*
1,1,$1+$1,$2,$3*
1,1,$1+$1,$4,$5*
1,1,$1+$1,$6,$7*
1,1,$1+$1,$8,$9*
0 Add four rect primitives between the rounded corners*
20,1,$1+$1,$2,$3,$4,$5,0*
20,1,$1+$1,$4,$5,$6,$7,0*
20,1,$1+$1,$6,$7,$8,$9,0*
20,1,$1+$1,$8,$9,$2,$3,0*%
G04 Aperture macros list end*
%TA.AperFunction,ComponentPad*%
%ADD10R,1.350000X1.350000*%
%TD*%
%TA.AperFunction,ComponentPad*%
%ADD11O,1.350000X1.350000*%
%TD*%
%TA.AperFunction,ComponentPad*%
%ADD12C,0.800000*%
%TD*%
%TA.AperFunction,ComponentPad*%
%ADD13C,6.400000*%
%TD*%
%TA.AperFunction,ComponentPad*%
%ADD14R,2.000000X2.000000*%
%TD*%
%TA.AperFunction,ComponentPad*%
%ADD15C,2.000000*%
%TD*%
%TA.AperFunction,ComponentPad*%
%ADD16O,1.000000X2.100000*%
%TD*%
%TA.AperFunction,ComponentPad*%
%ADD17O,1.000000X1.600000*%
%TD*%
%TA.AperFunction,ComponentPad*%
%ADD18R,2.030000X1.730000*%
%TD*%
%TA.AperFunction,ComponentPad*%
%ADD19O,2.030000X1.730000*%
%TD*%
%TA.AperFunction,SMDPad,CuDef*%
%ADD20RoundRect,0.150000X0.150000X-0.825000X0.150000X0.825000X-0.150000X0.825000X-0.150000X-0.825000X0*%
%TD*%
%TA.AperFunction,SMDPad,CuDef*%
%ADD21RoundRect,0.225000X-0.250000X0.225000X-0.250000X-0.225000X0.250000X-0.225000X0.250000X0.225000X0*%
%TD*%
%TA.AperFunction,SMDPad,CuDef*%
%ADD22RoundRect,0.150000X-0.150000X0.512500X-0.150000X-0.512500X0.150000X-0.512500X0.150000X0.512500X0*%
%TD*%
%TA.AperFunction,SMDPad,CuDef*%
%ADD23RoundRect,0.225000X0.225000X0.250000X-0.225000X0.250000X-0.225000X-0.250000X0.225000X-0.250000X0*%
%TD*%
%TA.AperFunction,SMDPad,CuDef*%
%ADD24RoundRect,0.100000X0.100000X-0.675000X0.100000X0.675000X-0.100000X0.675000X-0.100000X-0.675000X0*%
%TD*%
%TA.AperFunction,HeatsinkPad*%
%ADD25C,0.600000*%
%TD*%
%TA.AperFunction,HeatsinkPad*%
%ADD26R,6.200000X2.750000*%
%TD*%
%TA.AperFunction,SMDPad,CuDef*%
%ADD27RoundRect,0.225000X-0.225000X-0.250000X0.225000X-0.250000X0.225000X0.250000X-0.225000X0.250000X0*%
%TD*%
%TA.AperFunction,SMDPad,CuDef*%
%ADD28RoundRect,0.225000X0.250000X-0.225000X0.250000X0.225000X-0.250000X0.225000X-0.250000X-0.225000X0*%
%TD*%
%TA.AperFunction,SMDPad,CuDef*%
%ADD29RoundRect,0.200000X-0.275000X0.200000X-0.275000X-0.200000X0.275000X-0.200000X0.275000X0.200000X0*%
%TD*%
%TA.AperFunction,SMDPad,CuDef*%
%ADD30RoundRect,0.200000X-0.200000X-0.275000X0.200000X-0.275000X0.200000X0.275000X-0.200000X0.275000X0*%
%TD*%
%TA.AperFunction,SMDPad,CuDef*%
%ADD31R,0.406400X0.762000*%
%TD*%
%TA.AperFunction,ViaPad*%
%ADD32C,0.600000*%
%TD*%
%TA.AperFunction,Conductor*%
%ADD33C,0.500000*%
%TD*%
%TA.AperFunction,Conductor*%
%ADD34C,0.300000*%
%TD*%
%TA.AperFunction,Conductor*%
%ADD35C,0.533612*%
%TD*%
%TA.AperFunction,Conductor*%
%ADD36C,0.200000*%
%TD*%
%ADD37C,0.300000*%
%ADD38C,0.350000*%
%ADD39O,0.600000X1.700000*%
%ADD40O,0.600000X1.200000*%
G04 APERTURE END LIST*
D10*
%TO.P,J4,1,Pin_1*%
%TO.N,+3V3*%
X118500000Y-75850000D03*
D11*
%TO.P,J4,2,Pin_2*%
%TO.N,/JTAG_SWDIO*%
X116499999Y-75850000D03*
%TO.P,J4,3,Pin_3*%
%TO.N,/JTAG_SWCLK*%
X114500000Y-75850000D03*
%TO.P,J4,4,Pin_4*%
%TO.N,GND*%
X112500000Y-75850000D03*
%TD*%
D12*
%TO.P,H2,1,1*%
%TO.N,GND*%
X128600000Y-80000000D03*
X129302944Y-78302944D03*
X129302944Y-81697056D03*
X131000000Y-77600000D03*
D13*
X131000000Y-80000000D03*
D12*
X131000000Y-82400000D03*
X132697056Y-78302944D03*
X132697056Y-81697056D03*
X133400000Y-80000000D03*
%TD*%
D14*
%TO.P,J1,1,Pin_1*%
%TO.N,+24V*%
X97600000Y-94200000D03*
D15*
%TO.P,J1,2,Pin_2*%
%TO.N,GND*%
X97600000Y-96740000D03*
%TD*%
D10*
%TO.P,J2,1,Pin_1*%
%TO.N,+3V3*%
X114500000Y-115150000D03*
D11*
%TO.P,J2,2,Pin_2*%
%TO.N,/CTRL_SPI_MOSI*%
X112499999Y-115150000D03*
%TO.P,J2,3,Pin_3*%
%TO.N,/CTRL_SPI_MISO*%
X110500000Y-115150000D03*
%TO.P,J2,4,Pin_4*%
%TO.N,/CTRL_SPI_CLK*%
X108500000Y-115150000D03*
%TO.P,J2,5,Pin_5*%
%TO.N,/CTRL_SPI_NCS*%
X106500000Y-115150000D03*
%TO.P,J2,6,Pin_6*%
%TO.N,GND*%
X104500000Y-115150000D03*
%TD*%
D16*
%TO.P,J5,S1,SHIELD*%
%TO.N,unconnected-(J5-SHIELD-PadS1)*%
X117180000Y-109345000D03*
D17*
%TO.N,unconnected-(J5-SHIELD-PadS1)_2*%
X117180000Y-113525000D03*
D16*
%TO.N,unconnected-(J5-SHIELD-PadS1)_3*%
X125820000Y-109345000D03*
D17*
%TO.N,unconnected-(J5-SHIELD-PadS1)_1*%
X125820000Y-113525000D03*
%TD*%
D12*
%TO.P,H1,1,1*%
%TO.N,GND*%
X97600000Y-80000000D03*
X98302944Y-78302944D03*
X98302944Y-81697056D03*
X100000000Y-77600000D03*
D13*
X100000000Y-80000000D03*
D12*
X100000000Y-82400000D03*
X101697056Y-78302944D03*
X101697056Y-81697056D03*
X102400000Y-80000000D03*
%TD*%
D18*
%TO.P,J3,1,Pin_1*%
%TO.N,/STEPPER_B2*%
X135300000Y-99250000D03*
D19*
%TO.P,J3,2,Pin_2*%
%TO.N,/STEPPER_B1*%
X135300000Y-96710000D03*
%TO.P,J3,3,Pin_3*%
%TO.N,/STEPPER_A1*%
X135300000Y-94170001D03*
%TO.P,J3,4,Pin_4*%
%TO.N,/STEPPER_A2*%
X135300000Y-91630000D03*
%TD*%
D12*
%TO.P,H4,1,1*%
%TO.N,GND*%
X128600000Y-111000000D03*
X129302944Y-109302944D03*
X129302944Y-112697056D03*
X131000000Y-108600000D03*
D13*
X131000000Y-111000000D03*
D12*
X131000000Y-113400000D03*
X132697056Y-109302944D03*
X132697056Y-112697056D03*
X133400000Y-111000000D03*
%TD*%
%TO.P,H3,1,1*%
%TO.N,GND*%
X97600000Y-111000000D03*
X98302944Y-109302944D03*
X98302944Y-112697056D03*
X100000000Y-108600000D03*
D13*
X100000000Y-111000000D03*
D12*
X100000000Y-113400000D03*
X101697056Y-109302944D03*
X101697056Y-112697056D03*
X102400000Y-111000000D03*
%TD*%
D20*
%TO.P,U2,1,VDD5*%
%TO.N,+3V3*%
X117405000Y-97975000D03*
%TO.P,U2,2,VDD3v3*%
X116135000Y-97975000D03*
%TO.P,U2,3,OUT*%
%TO.N,/AS5600_OUT*%
X114865000Y-97975000D03*
%TO.P,U2,4,GND*%
%TO.N,GND*%
X113595000Y-97975000D03*
%TO.P,U2,5,DIR*%
X113595000Y-93025000D03*
%TO.P,U2,6,SCL*%
%TO.N,/I2C_SCL*%
X114865000Y-93025000D03*
%TO.P,U2,7,SDA*%
%TO.N,/I2C_SDA*%
X116135000Y-93025000D03*
%TO.P,U2,8,PGO*%
%TO.N,unconnected-(U2-PGO-Pad8)*%
X117405000Y-93025000D03*
%TD*%
D21*
%TO.P,C15,1*%
%TO.N,Net-(U5-CPO)*%
X127000000Y-100125000D03*
%TO.P,C15,2*%
%TO.N,Net-(U5-CPI)*%
X127000000Y-101675000D03*
%TD*%
D22*
%TO.P,U6,1,I/O1*%
%TO.N,Net-(J5-D--PadA7)*%
X120550001Y-110562500D03*
%TO.P,U6,2,GND*%
%TO.N,GND*%
X121500000Y-110562500D03*
%TO.P,U6,3,I/O2*%
%TO.N,Net-(J5-D+-PadA6)*%
X122449999Y-110562500D03*
%TO.P,U6,4,I/O2*%
%TO.N,/USB/FL_P*%
X122449999Y-112837500D03*
%TO.P,U6,5,VBUS*%
%TO.N,+5V*%
X121500000Y-112837500D03*
%TO.P,U6,6,I/O1*%
%TO.N,/USB/FL_N*%
X120550001Y-112837500D03*
%TD*%
D23*
%TO.P,C4,1*%
%TO.N,+3V3*%
X115075000Y-101500000D03*
%TO.P,C4,2*%
%TO.N,GND*%
X113525000Y-101500000D03*
%TD*%
D24*
%TO.P,U5,1,OB1*%
%TO.N,/STEPPER_B1*%
X130725000Y-98375000D03*
%TO.P,U5,2,BRB*%
%TO.N,GND*%
X130075000Y-98375000D03*
%TO.P,U5,3,VS*%
%TO.N,+24V*%
X129425000Y-98375000D03*
%TO.P,U5,4,OB2*%
%TO.N,/STEPPER_B2*%
X128775000Y-98375000D03*
%TO.P,U5,5,~{EN}*%
%TO.N,/TMC_NEN*%
X128125001Y-98375000D03*
%TO.P,U5,6,GND*%
%TO.N,GND*%
X127475000Y-98375000D03*
%TO.P,U5,7,CPO*%
%TO.N,Net-(U5-CPO)*%
X126825000Y-98375000D03*
%TO.P,U5,8,CPI*%
%TO.N,Net-(U5-CPI)*%
X126175000Y-98375000D03*
%TO.P,U5,9,VCP*%
%TO.N,Net-(U5-VCP)*%
X125525000Y-98375000D03*
%TO.P,U5,10,SPREAD*%
%TO.N,/TMC_SPREAD*%
X124874999Y-98375000D03*
%TO.P,U5,11,5VOUT*%
%TO.N,+5V*%
X124225000Y-98375000D03*
%TO.P,U5,12,MS1_AD0*%
%TO.N,/TMC_MS1*%
X123575000Y-98375000D03*
%TO.P,U5,13,NC*%
%TO.N,unconnected-(U5-NC-Pad13)*%
X122925000Y-98375000D03*
%TO.P,U5,14,MS2_AD1*%
%TO.N,/TMC_MS2*%
X122275000Y-98375000D03*
%TO.P,U5,15,DIAG*%
%TO.N,/TMC_DIAG*%
X122275000Y-92625000D03*
%TO.P,U5,16,INDEX*%
%TO.N,/TMC_INDEX*%
X122925000Y-92625000D03*
%TO.P,U5,17,CLK*%
%TO.N,GND*%
X123575000Y-92625000D03*
%TO.P,U5,18,PDN_UART*%
%TO.N,/TMC_UART_RX*%
X124225000Y-92625000D03*
%TO.P,U5,19,VCC_IO*%
%TO.N,+3V3*%
X124874999Y-92625000D03*
%TO.P,U5,20,STEP*%
%TO.N,/TMC_STEP*%
X125525000Y-92625000D03*
%TO.P,U5,21,VREF*%
%TO.N,+3.3VA*%
X126175000Y-92625000D03*
%TO.P,U5,22,GND*%
%TO.N,GND*%
X126825000Y-92625000D03*
%TO.P,U5,23,DIR*%
%TO.N,/TMC_DIR*%
X127475000Y-92625000D03*
%TO.P,U5,24,STDBY*%
%TO.N,/TMC_STDBY*%
X128125001Y-92625000D03*
%TO.P,U5,25,OA2*%
%TO.N,/STEPPER_A2*%
X128775000Y-92625000D03*
%TO.P,U5,26,VS*%
%TO.N,+24V*%
X129425000Y-92625000D03*
%TO.P,U5,27,BRA*%
%TO.N,GND*%
X130075000Y-92625000D03*
%TO.P,U5,28,OA1*%
%TO.N,/STEPPER_A1*%
X130725000Y-92625000D03*
D25*
%TO.P,U5,29,GND*%
%TO.N,GND*%
X123700000Y-96575000D03*
X125566667Y-96575000D03*
X127433333Y-96575000D03*
X129300000Y-96575000D03*
D26*
X126500000Y-95500000D03*
D25*
X123700000Y-94425000D03*
X125566667Y-94425000D03*
X127433333Y-94425000D03*
X129300000Y-94425000D03*
%TD*%
D27*
%TO.P,C3,1*%
%TO.N,GND*%
X113550000Y-100000000D03*
%TO.P,C3,2*%
%TO.N,+3V3*%
X115100000Y-100000000D03*
%TD*%
D28*
%TO.P,C16,1*%
%TO.N,+24V*%
X125500000Y-101675000D03*
%TO.P,C16,2*%
%TO.N,Net-(U5-VCP)*%
X125500000Y-100125000D03*
%TD*%
D29*
%TO.P,R10,1*%
%TO.N,/TMC_NEN*%
X128500000Y-100075000D03*
%TO.P,R10,2*%
%TO.N,+3V3*%
X128500000Y-101725000D03*
%TD*%
D30*
%TO.P,R1,1*%
%TO.N,/TMC_UART_TX*%
X122575000Y-90300000D03*
%TO.P,R1,2*%
%TO.N,/TMC_UART_RX*%
X124225000Y-90300000D03*
%TD*%
D31*
%TO.P,FL1,1,1*%
%TO.N,/USB/FL_N*%
X121093600Y-108424999D03*
%TO.P,FL1,2,2*%
%TO.N,/USB_DN*%
X121093600Y-106575001D03*
%TO.P,FL1,3,3*%
%TO.N,/USB_DP*%
X121906400Y-106575001D03*
%TO.P,FL1,4,4*%
%TO.N,/USB/FL_P*%
X121906400Y-108424999D03*
%TD*%
D32*
%TO.N,GND*%
X95500000Y-105500000D03*
X127700000Y-104800000D03*
X110500000Y-80500000D03*
X113100000Y-93100000D03*
X135500000Y-105500000D03*
X120499999Y-85500000D03*
X128700000Y-104800000D03*
X125500000Y-75500000D03*
X126900000Y-103000000D03*
X100500000Y-85500000D03*
X105500000Y-80500000D03*
X113100000Y-89400000D03*
X113500000Y-80600000D03*
X130500000Y-75500000D03*
X100500000Y-75500000D03*
X118300000Y-107700000D03*
X115500000Y-110500000D03*
X95500000Y-80500000D03*
X135500000Y-80500000D03*
X126200000Y-104800000D03*
X95500000Y-110500000D03*
X95500000Y-85500000D03*
X110900000Y-78100000D03*
X113500000Y-81700000D03*
X130500000Y-115500000D03*
X97400002Y-102208949D03*
X105500000Y-110500000D03*
X117400000Y-79500000D03*
X100500000Y-90500000D03*
X112700000Y-100013786D03*
X113500000Y-82800000D03*
X123500000Y-103000000D03*
X125500000Y-85500000D03*
X120500000Y-75500000D03*
X105425000Y-96200000D03*
X120500000Y-115500000D03*
X113500000Y-79500000D03*
X116500000Y-87800000D03*
X121500000Y-111300000D03*
X114675000Y-81700000D03*
X108525000Y-92600000D03*
X123000000Y-101000000D03*
X95500000Y-90500000D03*
X129700000Y-104800000D03*
X124700000Y-107700000D03*
X106975000Y-92000000D03*
X120100000Y-78100000D03*
X117900000Y-96500000D03*
X130800000Y-105600000D03*
X105500000Y-85500000D03*
X125500000Y-80500000D03*
X120383246Y-92225000D03*
X130500000Y-90500000D03*
X100500000Y-115500000D03*
X114700000Y-85500000D03*
X131700000Y-104800000D03*
X110500000Y-75500000D03*
X113100000Y-97900000D03*
X115500000Y-105500000D03*
X108525000Y-91000000D03*
X110500000Y-100500000D03*
X114675000Y-80600000D03*
X105500000Y-100500000D03*
X110500000Y-85500000D03*
X100500000Y-105500000D03*
X116500000Y-85500000D03*
X117900000Y-94500000D03*
X100500000Y-100500000D03*
X125500000Y-115500000D03*
X110500000Y-105500000D03*
X135500000Y-85500000D03*
X130710387Y-97150001D03*
X109175000Y-97100000D03*
X130500000Y-85500000D03*
X118900000Y-101325000D03*
X122000000Y-102000000D03*
X130736262Y-93849999D03*
X114675000Y-82800000D03*
X95500000Y-100500000D03*
X117400000Y-82800000D03*
X117400000Y-81725000D03*
X105500000Y-75500000D03*
X125500000Y-103000000D03*
X109500000Y-113700000D03*
X95500000Y-95500000D03*
X105500000Y-105500000D03*
X111500000Y-112500000D03*
X120500000Y-80500000D03*
X135500000Y-110500000D03*
%TO.N,+5V*%
X121500000Y-112050003D03*
X124000000Y-103900000D03*
%TO.N,/USB_DN*%
X120449997Y-94800000D03*
%TO.N,+3.3VA*%
X111100000Y-97000000D03*
X125700000Y-89850000D03*
%TO.N,/USB_DP*%
X121200000Y-94800000D03*
%TO.N,Net-(J5-D+-PadA6)*%
X122300000Y-109700000D03*
%TO.N,Net-(J5-D--PadA7)*%
X120700000Y-109700000D03*
%TO.N,/NRST*%
X112500000Y-84700000D03*
X111100000Y-96200000D03*
%TO.N,/STATUS*%
X97400002Y-103808871D03*
X119799582Y-96300000D03*
%TO.N,/I2C_SDA*%
X116507512Y-99796921D03*
%TO.N,/I2C_SCL*%
X113800000Y-91100000D03*
%TO.N,/TMC_UART_RX*%
X121800000Y-91300000D03*
%TO.N,+24V*%
X130050002Y-95500000D03*
X125504412Y-101025000D03*
%TO.N,/AS5600_OUT*%
X110833006Y-97878563D03*
%TO.N,/TMC_UART_TX*%
X122549996Y-91303104D03*
%TO.N,+3V3*%
X116325000Y-81700000D03*
X110075000Y-92600000D03*
X101425000Y-103000000D03*
X118700000Y-98900000D03*
X131500000Y-102100000D03*
X129500000Y-102100000D03*
X115075000Y-100800000D03*
X115525000Y-78100000D03*
X124950003Y-91300000D03*
X132500000Y-101100000D03*
X129500000Y-101100000D03*
X118999999Y-92000000D03*
X128500000Y-103100000D03*
X131500000Y-100100000D03*
X132500000Y-103100000D03*
X112000000Y-92062500D03*
X133500000Y-101100000D03*
X116325000Y-80600000D03*
X128500000Y-100925000D03*
X133500000Y-100100000D03*
X133500000Y-102100000D03*
X131500000Y-101100000D03*
X129500000Y-103100000D03*
X116325000Y-82800000D03*
X130500000Y-101100000D03*
X132500000Y-100100000D03*
X117900000Y-85600000D03*
X132500000Y-102100000D03*
X131500000Y-103100000D03*
X129500000Y-100100000D03*
X110075000Y-91000000D03*
X130500000Y-102100000D03*
X109218750Y-98700000D03*
X130500000Y-100100000D03*
X133500000Y-103100000D03*
%TO.N,/BOOT0*%
X117700000Y-83800000D03*
X114611091Y-89488909D03*
%TO.N,/W25Q128_NRST*%
X117900000Y-86900000D03*
X115200000Y-90200000D03*
%TO.N,/JTAG_SWDIO*%
X121200000Y-93500000D03*
%TO.N,/JTAG_SWCLK*%
X118200000Y-90115687D03*
%TO.N,/TMC_NEN*%
X128175000Y-97325002D03*
X112350000Y-101400000D03*
X115000000Y-104200006D03*
%TO.N,/TMC_STDBY*%
X128300000Y-91300000D03*
%TO.N,/TMC_SPREAD*%
X119799582Y-97424999D03*
X119799582Y-99300000D03*
X124925000Y-99305653D03*
%TO.N,/TMC_MS1*%
X112850000Y-103450003D03*
X122741776Y-99855653D03*
X115000000Y-103450003D03*
%TO.N,/TMC_INDEX*%
X120499997Y-90200000D03*
X116375000Y-100543042D03*
%TO.N,/TMC_DIR*%
X127500000Y-91300000D03*
%TO.N,/TMC_STEP*%
X125700006Y-91300000D03*
%TO.N,/TMC_DIAG*%
X116203526Y-101273179D03*
X120500000Y-89449998D03*
%TO.N,/TMC_MS2*%
X121916806Y-99855653D03*
X112850000Y-102700000D03*
X115000000Y-102700000D03*
%TO.N,/FLASH_SPI_MOSI*%
X117806410Y-89406410D03*
X116200000Y-89400000D03*
%TO.N,/FLASH_SPI_NCS*%
X113100000Y-85600000D03*
X117650000Y-90625588D03*
%TD*%
D33*
%TO.N,GND*%
X113595000Y-99955000D02*
X113550000Y-100000000D01*
D34*
X130075000Y-92625000D02*
X130075000Y-93399999D01*
D33*
X127475000Y-98375000D02*
X127475000Y-96475000D01*
X123575000Y-92625000D02*
X123575000Y-94300000D01*
X113525000Y-100025000D02*
X113550000Y-100000000D01*
D34*
X130075000Y-98375000D02*
X130075000Y-97667940D01*
X130592939Y-97150001D02*
X130710387Y-97150001D01*
D33*
X113550000Y-100000000D02*
X112713786Y-100000000D01*
D34*
X130525000Y-93849999D02*
X130736262Y-93849999D01*
X130075000Y-97667940D02*
X130592939Y-97150001D01*
X121500000Y-110562500D02*
X121500000Y-111300000D01*
D33*
X126825000Y-92625000D02*
X126825000Y-95175000D01*
X126825000Y-95175000D02*
X126500000Y-95500000D01*
X113175000Y-93025000D02*
X113100000Y-93100000D01*
X112713786Y-100000000D02*
X112700000Y-100013786D01*
X123575000Y-94300000D02*
X123700000Y-94425000D01*
X127475000Y-96475000D02*
X126500000Y-95500000D01*
X113595000Y-97975000D02*
X113595000Y-99955000D01*
X113525000Y-101500000D02*
X113525000Y-100025000D01*
X113595000Y-97975000D02*
X113175000Y-97975000D01*
X113175000Y-97975000D02*
X113100000Y-97900000D01*
D34*
X130075000Y-93399999D02*
X130525000Y-93849999D01*
D33*
X113595000Y-93025000D02*
X113175000Y-93025000D01*
%TO.N,+5V*%
X124225000Y-103675000D02*
X124000000Y-103900000D01*
D34*
X121500000Y-112050003D02*
X121500000Y-112837500D01*
D33*
X124225000Y-98375000D02*
X124225000Y-103675000D01*
D35*
%TO.N,/USB_DN*%
X120516388Y-105416388D02*
X121093600Y-105993600D01*
X120449997Y-94800000D02*
X120449997Y-95063714D01*
X120449997Y-95063714D02*
X120516388Y-95130105D01*
X121093600Y-105993600D02*
X121093600Y-106575001D01*
X120516388Y-95130105D02*
X120516388Y-105416388D01*
%TO.N,/USB/FL_N*%
X119833195Y-109366805D02*
X120775001Y-108424999D01*
X120550001Y-112837500D02*
X119833195Y-112120694D01*
X119833195Y-112120694D02*
X119833195Y-109366805D01*
X120775001Y-108424999D02*
X121093600Y-108424999D01*
D36*
%TO.N,+3.3VA*%
X126250006Y-92549994D02*
X126250006Y-90400006D01*
X126175000Y-92625000D02*
X126250006Y-92549994D01*
X126250006Y-90400006D02*
X125700000Y-89850000D01*
D35*
%TO.N,/USB_DP*%
X121200000Y-105133226D02*
X121906400Y-105839626D01*
X121200000Y-94800000D02*
X121200000Y-105133226D01*
X121906400Y-105839626D02*
X121906400Y-106575001D01*
%TO.N,/USB/FL_P*%
X122224999Y-108424999D02*
X121906400Y-108424999D01*
X123166805Y-109366805D02*
X122224999Y-108424999D01*
X123166805Y-112120694D02*
X123166805Y-109366805D01*
X122449999Y-112837500D02*
X123166805Y-112120694D01*
D34*
%TO.N,Net-(J5-D+-PadA6)*%
X122300000Y-110412501D02*
X122449999Y-110562500D01*
X122300000Y-109700000D02*
X122300000Y-110412501D01*
%TO.N,Net-(J5-D--PadA7)*%
X120700000Y-109700000D02*
X120700000Y-110412501D01*
X120700000Y-110412501D02*
X120550001Y-110562500D01*
D36*
%TO.N,/NRST*%
X112500000Y-85777818D02*
X113661091Y-86938909D01*
X112500000Y-84700000D02*
X112500000Y-85777818D01*
X113661091Y-86938909D02*
X113661091Y-89933884D01*
X112550000Y-94750000D02*
X111100000Y-96200000D01*
X112550000Y-91044975D02*
X112550000Y-94750000D01*
X113661091Y-89933884D02*
X112550000Y-91044975D01*
%TO.N,/STATUS*%
X119249582Y-99128236D02*
X118322182Y-100055636D01*
X118322182Y-100055636D02*
X118322182Y-101655642D01*
X119799582Y-96522600D02*
X119250000Y-97072182D01*
X119250000Y-97072182D02*
X119250000Y-97196763D01*
X98391131Y-104800000D02*
X97400002Y-103808871D01*
X118322182Y-101655642D02*
X115177824Y-104800000D01*
X119799582Y-96300000D02*
X119799582Y-96522600D01*
X119249582Y-97197181D02*
X119249582Y-99128236D01*
X115177824Y-104800000D02*
X98391131Y-104800000D01*
X119250000Y-97196763D02*
X119249582Y-97197181D01*
%TO.N,/I2C_SDA*%
X116507512Y-99796921D02*
X116700000Y-99604433D01*
X116700000Y-93590000D02*
X116135000Y-93025000D01*
X116700000Y-99604433D02*
X116700000Y-93590000D01*
%TO.N,/I2C_SCL*%
X114865000Y-92165000D02*
X113800000Y-91100000D01*
X114865000Y-93025000D02*
X114865000Y-92165000D01*
%TO.N,/TMC_UART_RX*%
X121800000Y-89958062D02*
X122183062Y-89575000D01*
X121800000Y-91300000D02*
X121800000Y-89958062D01*
X124225000Y-90300000D02*
X124225000Y-92625000D01*
X122183062Y-89575000D02*
X123500000Y-89575000D01*
X123500000Y-89575000D02*
X124225000Y-90300000D01*
D34*
%TO.N,+24V*%
X130100000Y-97006544D02*
X129425000Y-97681544D01*
X129425000Y-93399999D02*
X130100000Y-94074999D01*
D33*
X125500000Y-101029412D02*
X125500000Y-101675000D01*
D34*
X130050002Y-94025001D02*
X130050002Y-95500000D01*
X129425000Y-92625000D02*
X129425000Y-93399999D01*
X129425000Y-93399999D02*
X130050002Y-94025001D01*
X130100000Y-94074999D02*
X130100000Y-97006544D01*
X129425000Y-97681544D02*
X129425000Y-98375000D01*
D33*
X125504412Y-101025000D02*
X125500000Y-101029412D01*
D36*
%TO.N,/AS5600_OUT*%
X114865000Y-97000001D02*
X114614999Y-96750000D01*
X112127818Y-96750000D02*
X110999255Y-97878563D01*
X110999255Y-97878563D02*
X110833006Y-97878563D01*
X114614999Y-96750000D02*
X112127818Y-96750000D01*
X114865000Y-97975000D02*
X114865000Y-97000001D01*
%TO.N,/TMC_UART_TX*%
X122575000Y-90300000D02*
X122575000Y-91278100D01*
X122575000Y-91278100D02*
X122549996Y-91303104D01*
D34*
%TO.N,/STEPPER_B1*%
X135290000Y-96710000D02*
X133625000Y-98375000D01*
X133625000Y-98375000D02*
X130725000Y-98375000D01*
X135300000Y-96710000D02*
X135290000Y-96710000D01*
%TO.N,/STEPPER_B2*%
X128775000Y-98375000D02*
X128775000Y-99068456D01*
X128775000Y-99068456D02*
X129156544Y-99450000D01*
X129156544Y-99450000D02*
X135100000Y-99450000D01*
X135100000Y-99450000D02*
X135300000Y-99250000D01*
%TO.N,/STEPPER_A1*%
X133754999Y-92625000D02*
X135300000Y-94170001D01*
X130725000Y-92625000D02*
X133754999Y-92625000D01*
%TO.N,/STEPPER_A2*%
X128775000Y-91850001D02*
X129125001Y-91500000D01*
X128775000Y-92625000D02*
X128775000Y-91850001D01*
X135170000Y-91500000D02*
X135300000Y-91630000D01*
X129125001Y-91500000D02*
X135170000Y-91500000D01*
D33*
%TO.N,+3V3*%
X115548179Y-101973179D02*
X116549003Y-101973179D01*
D34*
X128500000Y-101725000D02*
X128500000Y-100925000D01*
D33*
X117405000Y-99395000D02*
X117405000Y-101117182D01*
X115075000Y-101500000D02*
X115075000Y-100025000D01*
X117405000Y-98405000D02*
X117405000Y-97975000D01*
X117405000Y-101117182D02*
X117405000Y-97975000D01*
D34*
X124874999Y-92625000D02*
X124874999Y-91375004D01*
X124874999Y-91375004D02*
X124950003Y-91300000D01*
D33*
X117900000Y-98900000D02*
X117405000Y-99395000D01*
X115075000Y-101500000D02*
X115548179Y-101973179D01*
X116549003Y-101973179D02*
X117405000Y-101117182D01*
X116135000Y-98965000D02*
X116135000Y-97975000D01*
X118700000Y-98900000D02*
X117900000Y-98900000D01*
X117900000Y-98900000D02*
X117405000Y-98405000D01*
X115075000Y-100025000D02*
X115100000Y-100000000D01*
X115100000Y-100000000D02*
X116135000Y-98965000D01*
D36*
%TO.N,/BOOT0*%
X114600000Y-89477818D02*
X114600000Y-86600000D01*
X114600000Y-86600000D02*
X117400000Y-83800000D01*
X114611091Y-89488909D02*
X114600000Y-89477818D01*
X117400000Y-83800000D02*
X117700000Y-83800000D01*
%TO.N,/W25Q128_NRST*%
X116100000Y-86900000D02*
X117900000Y-86900000D01*
X115200000Y-87800000D02*
X116100000Y-86900000D01*
X115200000Y-90200000D02*
X115200000Y-87800000D01*
%TO.N,Net-(U5-CPI)*%
X126175000Y-98375000D02*
X126225000Y-98425000D01*
X126225000Y-98425000D02*
X126225000Y-100900000D01*
X126225000Y-100900000D02*
X127000000Y-101675000D01*
%TO.N,Net-(U5-CPO)*%
X126825000Y-98375000D02*
X126825000Y-99950000D01*
X126825000Y-99950000D02*
X127000000Y-100125000D01*
D34*
%TO.N,Net-(U5-VCP)*%
X125525000Y-100100000D02*
X125500000Y-100125000D01*
X125525000Y-98375000D02*
X125525000Y-100100000D01*
D36*
%TO.N,/JTAG_SWDIO*%
X118850000Y-81852207D02*
X116499999Y-79502206D01*
X121200000Y-93500000D02*
X120600000Y-93500000D01*
X118850000Y-90072182D02*
X118850000Y-81852207D01*
X116499999Y-79502206D02*
X116499999Y-75850000D01*
X120600000Y-93500000D02*
X119549999Y-92449999D01*
X119549999Y-92449999D02*
X119549999Y-90772181D01*
X119549999Y-90772181D02*
X118850000Y-90072182D01*
%TO.N,/JTAG_SWCLK*%
X118500000Y-89815687D02*
X118500000Y-81997182D01*
X118500000Y-81997182D02*
X114500000Y-77997182D01*
X118200000Y-90115687D02*
X118500000Y-89815687D01*
X114500000Y-77997182D02*
X114500000Y-75850000D01*
%TO.N,/TMC_NEN*%
X112300000Y-101450000D02*
X112300000Y-103677821D01*
X112350000Y-101400000D02*
X112300000Y-101450000D01*
D34*
X128125001Y-99700001D02*
X128500000Y-100075000D01*
D36*
X112300000Y-103677821D02*
X112822185Y-104200006D01*
X128125001Y-97375001D02*
X128175000Y-97325002D01*
X112822185Y-104200006D02*
X115000000Y-104200006D01*
D34*
X128125001Y-98375000D02*
X128125001Y-99700001D01*
D36*
X128125001Y-98375000D02*
X128125001Y-97375001D01*
%TO.N,/TMC_STDBY*%
X128125001Y-92625000D02*
X128125001Y-91474999D01*
X128125001Y-91474999D02*
X128300000Y-91300000D01*
%TO.N,/TMC_SPREAD*%
X124874999Y-98375000D02*
X124874999Y-99255652D01*
X124874999Y-99255652D02*
X124925000Y-99305653D01*
X119799582Y-97424999D02*
X119799582Y-99300000D01*
%TO.N,/TMC_MS1*%
X122741776Y-99855653D02*
X123575000Y-99022429D01*
X123575000Y-99022429D02*
X123575000Y-98375000D01*
X115000000Y-103450003D02*
X112850000Y-103450003D01*
%TO.N,/TMC_INDEX*%
X121750000Y-92750000D02*
X120499997Y-91499997D01*
X122674999Y-93650000D02*
X122000000Y-93650000D01*
X122925000Y-92625000D02*
X122925000Y-93399999D01*
X122925000Y-93399999D02*
X122674999Y-93650000D01*
X122000000Y-93650000D02*
X121750000Y-93400000D01*
X121750000Y-93400000D02*
X121750000Y-92750000D01*
X120499997Y-91499997D02*
X120499997Y-90200000D01*
%TO.N,/TMC_DIR*%
X127475000Y-91325000D02*
X127500000Y-91300000D01*
X127475000Y-92625000D02*
X127475000Y-91325000D01*
D34*
%TO.N,/TMC_STEP*%
X125525000Y-92625000D02*
X125525000Y-91475006D01*
X125525000Y-91475006D02*
X125700006Y-91300000D01*
D36*
%TO.N,/TMC_DIAG*%
X122275000Y-92625000D02*
X121250000Y-91600000D01*
X121250000Y-91600000D02*
X121250000Y-90101470D01*
X121250000Y-90101470D02*
X120598528Y-89449998D01*
X120598528Y-89449998D02*
X120500000Y-89449998D01*
%TO.N,/TMC_MS2*%
X122275000Y-98375000D02*
X122275000Y-99497459D01*
X115000000Y-102700000D02*
X112850000Y-102700000D01*
X122275000Y-99497459D02*
X121916806Y-99855653D01*
%TO.N,/FLASH_SPI_MOSI*%
X116200000Y-89400000D02*
X117800000Y-89400000D01*
X117800000Y-89400000D02*
X117806410Y-89406410D01*
%TO.N,/FLASH_SPI_NCS*%
X114011091Y-86511091D02*
X113100000Y-85600000D01*
X114550000Y-90750000D02*
X114011091Y-90211091D01*
X117525588Y-90750000D02*
X114550000Y-90750000D01*
X117650000Y-90625588D02*
X117525588Y-90750000D01*
X114011091Y-90211091D02*
X114011091Y-86511091D01*
%TD*%
%TA.AperFunction,Conductor*%
%TO.N,GND*%
G36*
X121555003Y-108948114D02*
G01*
X121558646Y-108950548D01*
X121558648Y-108950551D01*
X121624969Y-108994866D01*
X121669431Y-109003710D01*
X121683441Y-109006497D01*
X121683446Y-109006497D01*
X121683452Y-109006499D01*
X121683453Y-109006499D01*
X122104622Y-109006499D01*
X122162813Y-109025406D01*
X122174618Y-109035488D01*
X122195544Y-109056414D01*
X122223320Y-109110929D01*
X122213749Y-109171361D01*
X122170484Y-109214626D01*
X122153432Y-109221406D01*
X122089946Y-109240047D01*
X122089942Y-109240049D01*
X121968873Y-109317855D01*
X121874622Y-109426628D01*
X121814834Y-109557543D01*
X121794353Y-109699997D01*
X121794353Y-109700002D01*
X121814834Y-109842456D01*
X121870338Y-109963991D01*
X121874623Y-109973373D01*
X121925319Y-110031879D01*
X121949136Y-110088237D01*
X121949499Y-110096709D01*
X121949499Y-111108260D01*
X121956117Y-111153682D01*
X121959426Y-111176395D01*
X121991330Y-111241654D01*
X122010801Y-111281483D01*
X122093516Y-111364198D01*
X122147284Y-111390483D01*
X122198603Y-111415572D01*
X122198604Y-111415572D01*
X122198606Y-111415573D01*
X122266739Y-111425500D01*
X122266742Y-111425500D01*
X122600499Y-111425500D01*
X122658690Y-111444407D01*
X122694654Y-111493907D01*
X122699499Y-111524500D01*
X122699499Y-111875500D01*
X122680592Y-111933691D01*
X122631092Y-111969655D01*
X122600499Y-111974500D01*
X122266739Y-111974500D01*
X122232672Y-111979463D01*
X122198603Y-111984427D01*
X122131636Y-112017166D01*
X122071054Y-112025737D01*
X122017004Y-111997061D01*
X121990163Y-111942314D01*
X121985165Y-111907546D01*
X121984501Y-111906093D01*
X121925377Y-111776631D01*
X121925377Y-111776630D01*
X121831128Y-111667860D01*
X121831127Y-111667859D01*
X121831126Y-111667858D01*
X121710057Y-111590052D01*
X121710054Y-111590050D01*
X121710053Y-111590050D01*
X121710050Y-111590049D01*
X121571964Y-111549503D01*
X121571961Y-111549503D01*
X121428039Y-111549503D01*
X121428035Y-111549503D01*
X121289949Y-111590049D01*
X121289942Y-111590052D01*
X121168873Y-111667858D01*
X121074622Y-111776631D01*
X121014834Y-111907546D01*
X121009835Y-111942315D01*
X120982838Y-111997222D01*
X120928724Y-112025775D01*
X120868363Y-112017166D01*
X120827567Y-111997222D01*
X120801395Y-111984427D01*
X120784360Y-111981945D01*
X120733261Y-111974500D01*
X120399501Y-111974500D01*
X120341310Y-111955593D01*
X120305346Y-111906093D01*
X120300501Y-111875500D01*
X120300501Y-111524500D01*
X120319408Y-111466309D01*
X120368908Y-111430345D01*
X120399501Y-111425500D01*
X120733258Y-111425500D01*
X120733261Y-111425500D01*
X120801394Y-111415573D01*
X120906484Y-111364198D01*
X120989199Y-111281483D01*
X121040574Y-111176393D01*
X121050501Y-111108260D01*
X121050501Y-110096709D01*
X121069408Y-110038518D01*
X121074667Y-110031894D01*
X121125377Y-109973373D01*
X121185165Y-109842457D01*
X121205647Y-109700000D01*
X121185165Y-109557543D01*
X121125377Y-109426627D01*
X121031128Y-109317857D01*
X121031127Y-109317856D01*
X121031126Y-109317855D01*
X120910057Y-109240049D01*
X120910054Y-109240048D01*
X120910053Y-109240047D01*
X120846567Y-109221406D01*
X120796061Y-109186870D01*
X120775499Y-109129243D01*
X120792737Y-109070536D01*
X120804450Y-109056418D01*
X120825375Y-109035493D01*
X120879892Y-109007717D01*
X120895377Y-109006499D01*
X121316547Y-109006499D01*
X121316548Y-109006499D01*
X121375031Y-108994866D01*
X121441352Y-108950551D01*
X121441353Y-108950548D01*
X121444997Y-108948114D01*
X121503885Y-108931505D01*
X121555003Y-108948114D01*
G37*
%TD.AperFunction*%
%TA.AperFunction,Conductor*%
G36*
X114184850Y-74869407D02*
G01*
X114220814Y-74918907D01*
X114220814Y-74980093D01*
X114184850Y-75029593D01*
X114166927Y-75039940D01*
X114151260Y-75046915D01*
X114059845Y-75087615D01*
X114059842Y-75087617D01*
X113910948Y-75195794D01*
X113787803Y-75332562D01*
X113787803Y-75332563D01*
X113695790Y-75491931D01*
X113695784Y-75491945D01*
X113638916Y-75666965D01*
X113619678Y-75850000D01*
X113638916Y-76033034D01*
X113695784Y-76208054D01*
X113695790Y-76208068D01*
X113768893Y-76334684D01*
X113787805Y-76367440D01*
X113910950Y-76504207D01*
X114059839Y-76612381D01*
X114059844Y-76612383D01*
X114059849Y-76612386D01*
X114140766Y-76648412D01*
X114186236Y-76689352D01*
X114199500Y-76738853D01*
X114199500Y-78036746D01*
X114219978Y-78113170D01*
X114219980Y-78113174D01*
X114259538Y-78181690D01*
X114259540Y-78181693D01*
X115180553Y-79102706D01*
X116090748Y-80012901D01*
X116118525Y-80067418D01*
X116108954Y-80127850D01*
X116074268Y-80166189D01*
X115993872Y-80217857D01*
X115899622Y-80326628D01*
X115839834Y-80457543D01*
X115819353Y-80599997D01*
X115819353Y-80600002D01*
X115839834Y-80742456D01*
X115875304Y-80820123D01*
X115899623Y-80873373D01*
X115993872Y-80982143D01*
X115993873Y-80982144D01*
X116120903Y-81063781D01*
X116120238Y-81064815D01*
X116160012Y-81101322D01*
X116172160Y-81161290D01*
X116146740Y-81216945D01*
X116120682Y-81235876D01*
X116120903Y-81236219D01*
X115993873Y-81317855D01*
X115899622Y-81426628D01*
X115839834Y-81557543D01*
X115819353Y-81699997D01*
X115819353Y-81700002D01*
X115839834Y-81842456D01*
X115899622Y-81973371D01*
X115899623Y-81973373D01*
X115993872Y-82082143D01*
X115993873Y-82082144D01*
X116120903Y-82163781D01*
X116120238Y-82164815D01*
X116160012Y-82201322D01*
X116172160Y-82261290D01*
X116146740Y-82316945D01*
X116120682Y-82335876D01*
X116120903Y-82336219D01*
X115993873Y-82417855D01*
X115899622Y-82526628D01*
X115839834Y-82657543D01*
X115819353Y-82799997D01*
X115819353Y-82800002D01*
X115839834Y-82942456D01*
X115899622Y-83073371D01*
X115899623Y-83073373D01*
X115993872Y-83182143D01*
X115993873Y-83182144D01*
X116114942Y-83259950D01*
X116114947Y-83259953D01*
X116221403Y-83291211D01*
X116253035Y-83300499D01*
X116253036Y-83300499D01*
X116253039Y-83300500D01*
X116253041Y-83300500D01*
X116396959Y-83300500D01*
X116396961Y-83300500D01*
X116535053Y-83259953D01*
X116656128Y-83182143D01*
X116750377Y-83073373D01*
X116810165Y-82942457D01*
X116830647Y-82800000D01*
X116810165Y-82657543D01*
X116750377Y-82526627D01*
X116656128Y-82417857D01*
X116656127Y-82417856D01*
X116656126Y-82417855D01*
X116529097Y-82336219D01*
X116529761Y-82335184D01*
X116489990Y-82298683D01*
X116477838Y-82238716D01*
X116503255Y-82183060D01*
X116529317Y-82164124D01*
X116529097Y-82163781D01*
X116656126Y-82082144D01*
X116656125Y-82082144D01*
X116656128Y-82082143D01*
X116750377Y-81973373D01*
X116810165Y-81842457D01*
X116830647Y-81700000D01*
X116826002Y-81667696D01*
X116810165Y-81557543D01*
X116750377Y-81426628D01*
X116750377Y-81426627D01*
X116656128Y-81317857D01*
X116656127Y-81317856D01*
X116656126Y-81317855D01*
X116529097Y-81236219D01*
X116529761Y-81235184D01*
X116489990Y-81198683D01*
X116477838Y-81138716D01*
X116503255Y-81083060D01*
X116529317Y-81064124D01*
X116529097Y-81063781D01*
X116656126Y-80982144D01*
X116656125Y-80982144D01*
X116656128Y-80982143D01*
X116750377Y-80873373D01*
X116754109Y-80865200D01*
X116795477Y-80820123D01*
X116855443Y-80807969D01*
X116911101Y-80833383D01*
X116914167Y-80836320D01*
X118170504Y-82092657D01*
X118198281Y-82147174D01*
X118199500Y-82162661D01*
X118199500Y-83346972D01*
X118180593Y-83405163D01*
X118131093Y-83441127D01*
X118069907Y-83441127D01*
X118035671Y-83421793D01*
X118031127Y-83417856D01*
X117910057Y-83340049D01*
X117910054Y-83340047D01*
X117910053Y-83340047D01*
X117910050Y-83340046D01*
X117771964Y-83299500D01*
X117771961Y-83299500D01*
X117628039Y-83299500D01*
X117628035Y-83299500D01*
X117489949Y-83340046D01*
X117489942Y-83340049D01*
X117368876Y-83417854D01*
X117368874Y-83417855D01*
X117368872Y-83417856D01*
X117368872Y-83417857D01*
X117335366Y-83456524D01*
X117287654Y-83511587D01*
X117262337Y-83532490D01*
X117215493Y-83559536D01*
X114415489Y-86359540D01*
X114415434Y-86359594D01*
X114414796Y-86360231D01*
X114360257Y-86387966D01*
X114299833Y-86378347D01*
X114259112Y-86339675D01*
X114251551Y-86326580D01*
X114195602Y-86270630D01*
X114195602Y-86270631D01*
X113630546Y-85705575D01*
X113602769Y-85651058D01*
X113602558Y-85621482D01*
X113605647Y-85600000D01*
X113585165Y-85457543D01*
X113525377Y-85326627D01*
X113431128Y-85217857D01*
X113431127Y-85217856D01*
X113431126Y-85217855D01*
X113310057Y-85140049D01*
X113310054Y-85140047D01*
X113310053Y-85140047D01*
X113310050Y-85140046D01*
X113171964Y-85099500D01*
X113171961Y-85099500D01*
X113028039Y-85099500D01*
X113021824Y-85099500D01*
X112963633Y-85080593D01*
X112927669Y-85031093D01*
X112927669Y-84969907D01*
X112931771Y-84959373D01*
X112985165Y-84842456D01*
X113005647Y-84700002D01*
X113005647Y-84699997D01*
X112985165Y-84557543D01*
X112925377Y-84426628D01*
X112925377Y-84426627D01*
X112831128Y-84317857D01*
X112831127Y-84317856D01*
X112831126Y-84317855D01*
X112710057Y-84240049D01*
X112710054Y-84240047D01*
X112710053Y-84240047D01*
X112708909Y-84239711D01*
X112571964Y-84199500D01*
X112571961Y-84199500D01*
X112428039Y-84199500D01*
X112428035Y-84199500D01*
X112289949Y-84240046D01*
X112289942Y-84240049D01*
X112168873Y-84317855D01*
X112074622Y-84426628D01*
X112014834Y-84557543D01*
X111994353Y-84699997D01*
X111994353Y-84700002D01*
X112014834Y-84842456D01*
X112074623Y-84973373D01*
X112173509Y-85087494D01*
X112171471Y-85089259D01*
X112196925Y-85131458D01*
X112199500Y-85153893D01*
X112199500Y-85817382D01*
X112219977Y-85893803D01*
X112219979Y-85893808D01*
X112245203Y-85937498D01*
X112259538Y-85962326D01*
X112259540Y-85962329D01*
X113331596Y-87034385D01*
X113359372Y-87088900D01*
X113360591Y-87104387D01*
X113360591Y-89768405D01*
X113341684Y-89826596D01*
X113331595Y-89838409D01*
X112365489Y-90804515D01*
X112365488Y-90804514D01*
X112309539Y-90860464D01*
X112269980Y-90928982D01*
X112269978Y-90928986D01*
X112249500Y-91005410D01*
X112249500Y-91481881D01*
X112230593Y-91540072D01*
X112181093Y-91576036D01*
X112122609Y-91576871D01*
X112071964Y-91562000D01*
X112071961Y-91562000D01*
X111928039Y-91562000D01*
X111928035Y-91562000D01*
X111789949Y-91602546D01*
X111789942Y-91602549D01*
X111668873Y-91680355D01*
X111574622Y-91789128D01*
X111514834Y-91920043D01*
X111494353Y-92062497D01*
X111494353Y-92062502D01*
X111514834Y-92204956D01*
X111570400Y-92326627D01*
X111574623Y-92335873D01*
X111668872Y-92444643D01*
X111668873Y-92444644D01*
X111755787Y-92500500D01*
X111789947Y-92522453D01*
X111873459Y-92546974D01*
X111928035Y-92562999D01*
X111928036Y-92562999D01*
X111928039Y-92563000D01*
X111928041Y-92563000D01*
X112071959Y-92563000D01*
X112071961Y-92563000D01*
X112122610Y-92548128D01*
X112183768Y-92549875D01*
X112232221Y-92587237D01*
X112249500Y-92643118D01*
X112249500Y-94584520D01*
X112230593Y-94642711D01*
X112220504Y-94654524D01*
X111204524Y-95670504D01*
X111150007Y-95698281D01*
X111134520Y-95699500D01*
X111028035Y-95699500D01*
X110889949Y-95740046D01*
X110889942Y-95740049D01*
X110768873Y-95817855D01*
X110674622Y-95926628D01*
X110614834Y-96057543D01*
X110594353Y-96199997D01*
X110594353Y-96200002D01*
X110614834Y-96342456D01*
X110674623Y-96473373D01*
X110728169Y-96535170D01*
X110751986Y-96591529D01*
X110738127Y-96651124D01*
X110728169Y-96664830D01*
X110674623Y-96726626D01*
X110614834Y-96857543D01*
X110594353Y-96999997D01*
X110594353Y-97000002D01*
X110614834Y-97142456D01*
X110677564Y-97279813D01*
X110675826Y-97280606D01*
X110688996Y-97330713D01*
X110666797Y-97387729D01*
X110628297Y-97413268D01*
X110629394Y-97415669D01*
X110622948Y-97418612D01*
X110501879Y-97496418D01*
X110407628Y-97605191D01*
X110347840Y-97736106D01*
X110327359Y-97878560D01*
X110327359Y-97878565D01*
X110347840Y-98021019D01*
X110407628Y-98151933D01*
X110407629Y-98151936D01*
X110501878Y-98260706D01*
X110501879Y-98260707D01*
X110590807Y-98317857D01*
X110622953Y-98338516D01*
X110729409Y-98369774D01*
X110761041Y-98379062D01*
X110761042Y-98379062D01*
X110761045Y-98379063D01*
X110761047Y-98379063D01*
X110904965Y-98379063D01*
X110904967Y-98379063D01*
X111043059Y-98338516D01*
X111164134Y-98260706D01*
X111258383Y-98151936D01*
X111318171Y-98021020D01*
X111319593Y-98011124D01*
X111346586Y-97956216D01*
X111347583Y-97955205D01*
X112223294Y-97079496D01*
X112277810Y-97051719D01*
X112293297Y-97050500D01*
X114265500Y-97050500D01*
X114323691Y-97069407D01*
X114359655Y-97118907D01*
X114364500Y-97149500D01*
X114364500Y-98833260D01*
X114368016Y-98857393D01*
X114374427Y-98901395D01*
X114422877Y-99000500D01*
X114425802Y-99006483D01*
X114508517Y-99089198D01*
X114562285Y-99115483D01*
X114613604Y-99140572D01*
X114613605Y-99140572D01*
X114613607Y-99140573D01*
X114681740Y-99150500D01*
X114681743Y-99150500D01*
X114701975Y-99150500D01*
X114760166Y-99169407D01*
X114796130Y-99218907D01*
X114796130Y-99280093D01*
X114760166Y-99329593D01*
X114746921Y-99337709D01*
X114621781Y-99401471D01*
X114526470Y-99496782D01*
X114465283Y-99616867D01*
X114465281Y-99616874D01*
X114449500Y-99716510D01*
X114449500Y-100283489D01*
X114457390Y-100333307D01*
X114459867Y-100348946D01*
X114465281Y-100383125D01*
X114465283Y-100383132D01*
X114526470Y-100503217D01*
X114526473Y-100503221D01*
X114569747Y-100546496D01*
X114597524Y-100601013D01*
X114590779Y-100650441D01*
X114591829Y-100650750D01*
X114589834Y-100657543D01*
X114569353Y-100799997D01*
X114569353Y-100800002D01*
X114578503Y-100863643D01*
X114568070Y-100923932D01*
X114550516Y-100947734D01*
X114501474Y-100996777D01*
X114501470Y-100996782D01*
X114440283Y-101116867D01*
X114440281Y-101116874D01*
X114424500Y-101216510D01*
X114424500Y-101783489D01*
X114440281Y-101883125D01*
X114440283Y-101883132D01*
X114496892Y-101994232D01*
X114501472Y-102003220D01*
X114596780Y-102098528D01*
X114596782Y-102098529D01*
X114673723Y-102137733D01*
X114716988Y-102180997D01*
X114726559Y-102241429D01*
X114698781Y-102295946D01*
X114682303Y-102309225D01*
X114668875Y-102317854D01*
X114668872Y-102317857D01*
X114647950Y-102342003D01*
X114627736Y-102365331D01*
X114575340Y-102396927D01*
X114552917Y-102399500D01*
X113297083Y-102399500D01*
X113238892Y-102380593D01*
X113222264Y-102365331D01*
X113181128Y-102317857D01*
X113134316Y-102287773D01*
X113060057Y-102240049D01*
X113060054Y-102240047D01*
X113060053Y-102240047D01*
X113060050Y-102240046D01*
X112921964Y-102199500D01*
X112921961Y-102199500D01*
X112778039Y-102199500D01*
X112778035Y-102199500D01*
X112727391Y-102214371D01*
X112666230Y-102212623D01*
X112617778Y-102175260D01*
X112600500Y-102119381D01*
X112600500Y-101888017D01*
X112619407Y-101829826D01*
X112645973Y-101804735D01*
X112681128Y-101782143D01*
X112775377Y-101673373D01*
X112835165Y-101542457D01*
X112843837Y-101482142D01*
X112855647Y-101400002D01*
X112855647Y-101399997D01*
X112835165Y-101257543D01*
X112820412Y-101225239D01*
X112775377Y-101126627D01*
X112681128Y-101017857D01*
X112681127Y-101017856D01*
X112681126Y-101017855D01*
X112560057Y-100940049D01*
X112560054Y-100940047D01*
X112560053Y-100940047D01*
X112560050Y-100940046D01*
X112421964Y-100899500D01*
X112421961Y-100899500D01*
X112278039Y-100899500D01*
X112278035Y-100899500D01*
X112139949Y-100940046D01*
X112139942Y-100940049D01*
X112018873Y-101017855D01*
X111924622Y-101126628D01*
X111864834Y-101257543D01*
X111844353Y-101399997D01*
X111844353Y-101400002D01*
X111864834Y-101542456D01*
X111891114Y-101600000D01*
X111924623Y-101673373D01*
X111975320Y-101731880D01*
X111999137Y-101788238D01*
X111999500Y-101796710D01*
X111999500Y-103717385D01*
X112019978Y-103793808D01*
X112051775Y-103848883D01*
X112059540Y-103862332D01*
X112527704Y-104330497D01*
X112555481Y-104385013D01*
X112545910Y-104445445D01*
X112502645Y-104488710D01*
X112457700Y-104499500D01*
X98556610Y-104499500D01*
X98498419Y-104480593D01*
X98486606Y-104470504D01*
X97930548Y-103914446D01*
X97902771Y-103859929D01*
X97902560Y-103830353D01*
X97905649Y-103808871D01*
X97903483Y-103793808D01*
X97885167Y-103666414D01*
X97851393Y-103592460D01*
X97825379Y-103535498D01*
X97731130Y-103426728D01*
X97731129Y-103426727D01*
X97731128Y-103426726D01*
X97610059Y-103348920D01*
X97610056Y-103348918D01*
X97610055Y-103348918D01*
X97610052Y-103348917D01*
X97471966Y-103308371D01*
X97471963Y-103308371D01*
X97328041Y-103308371D01*
X97328037Y-103308371D01*
X97189951Y-103348917D01*
X97189944Y-103348920D01*
X97068875Y-103426726D01*
X96974624Y-103535499D01*
X96914836Y-103666414D01*
X96894355Y-103808868D01*
X96894355Y-103808871D01*
X96914836Y-103951327D01*
X96958655Y-104047276D01*
X96974625Y-104082244D01*
X97053587Y-104173372D01*
X97068875Y-104191015D01*
X97189944Y-104268821D01*
X97189949Y-104268824D01*
X97296405Y-104300082D01*
X97328037Y-104309370D01*
X97328038Y-104309370D01*
X97328041Y-104309371D01*
X97328043Y-104309371D01*
X97434523Y-104309371D01*
X97492714Y-104328278D01*
X97504527Y-104338367D01*
X98150671Y-104984511D01*
X98150670Y-104984511D01*
X98206620Y-105040460D01*
X98275138Y-105080019D01*
X98275142Y-105080021D01*
X98351566Y-105100499D01*
X98351568Y-105100500D01*
X98351569Y-105100500D01*
X115217387Y-105100500D01*
X115217387Y-105100499D01*
X115293813Y-105080021D01*
X115362335Y-105040460D01*
X115418284Y-104984511D01*
X118562642Y-101840153D01*
X118570582Y-101826400D01*
X118602202Y-101771634D01*
X118602202Y-101771632D01*
X118602204Y-101771630D01*
X118622682Y-101695204D01*
X118622682Y-101616080D01*
X118622682Y-100221114D01*
X118641589Y-100162923D01*
X118651672Y-100151116D01*
X119231800Y-99570987D01*
X119286315Y-99543212D01*
X119346747Y-99552783D01*
X119376621Y-99576162D01*
X119468452Y-99682142D01*
X119468454Y-99682143D01*
X119589529Y-99759953D01*
X119676971Y-99785628D01*
X119727617Y-99800499D01*
X119727618Y-99800499D01*
X119727621Y-99800500D01*
X119727623Y-99800500D01*
X119871541Y-99800500D01*
X119871543Y-99800500D01*
X119922192Y-99785628D01*
X119983350Y-99787375D01*
X120031803Y-99824737D01*
X120049082Y-99880618D01*
X120049082Y-105354865D01*
X120049082Y-105477911D01*
X120069120Y-105552693D01*
X120080929Y-105596766D01*
X120142446Y-105703316D01*
X120142448Y-105703318D01*
X120142450Y-105703321D01*
X120597299Y-106158170D01*
X120625075Y-106212685D01*
X120626294Y-106228172D01*
X120626294Y-106636523D01*
X120658140Y-106755374D01*
X120658141Y-106755376D01*
X120676636Y-106787409D01*
X120689900Y-106836910D01*
X120689900Y-106975747D01*
X120689901Y-106975759D01*
X120701532Y-107034228D01*
X120701534Y-107034234D01*
X120745845Y-107100549D01*
X120745848Y-107100553D01*
X120812169Y-107144868D01*
X120856631Y-107153712D01*
X120870641Y-107156499D01*
X120870646Y-107156499D01*
X120870652Y-107156501D01*
X120870653Y-107156501D01*
X121316547Y-107156501D01*
X121316548Y-107156501D01*
X121375031Y-107144868D01*
X121441352Y-107100553D01*
X121441353Y-107100550D01*
X121444997Y-107098116D01*
X121503885Y-107081507D01*
X121555003Y-107098116D01*
X121558646Y-107100550D01*
X121558648Y-107100553D01*
X121624969Y-107144868D01*
X121669431Y-107153712D01*
X121683441Y-107156499D01*
X121683446Y-107156499D01*
X121683452Y-107156501D01*
X121683453Y-107156501D01*
X122129347Y-107156501D01*
X122129348Y-107156501D01*
X122187831Y-107144868D01*
X122254152Y-107100553D01*
X122298467Y-107034232D01*
X122310100Y-106975749D01*
X122310100Y-106836910D01*
X122323364Y-106787409D01*
X122341860Y-106755374D01*
X122373706Y-106636523D01*
X122373706Y-105778104D01*
X122341860Y-105659253D01*
X122289571Y-105568686D01*
X122280338Y-105552693D01*
X121696302Y-104968657D01*
X121668525Y-104914140D01*
X121667306Y-104898653D01*
X121667306Y-100436271D01*
X121686213Y-100378080D01*
X121735713Y-100342116D01*
X121794195Y-100341281D01*
X121844845Y-100356153D01*
X121844847Y-100356153D01*
X121988765Y-100356153D01*
X121988767Y-100356153D01*
X122126859Y-100315606D01*
X122247934Y-100237796D01*
X122254471Y-100230252D01*
X122306866Y-100198655D01*
X122367827Y-100203890D01*
X122404111Y-100230252D01*
X122410647Y-100237795D01*
X122410648Y-100237796D01*
X122517581Y-100306518D01*
X122531723Y-100315606D01*
X122619165Y-100341281D01*
X122669811Y-100356152D01*
X122669812Y-100356152D01*
X122669815Y-100356153D01*
X122669817Y-100356153D01*
X122813735Y-100356153D01*
X122813737Y-100356153D01*
X122951829Y-100315606D01*
X123072904Y-100237796D01*
X123167153Y-100129026D01*
X123226941Y-99998110D01*
X123236362Y-99932583D01*
X123247423Y-99855655D01*
X123247423Y-99855653D01*
X123244334Y-99834171D01*
X123254766Y-99773881D01*
X123272323Y-99750076D01*
X123605497Y-99416903D01*
X123660013Y-99389126D01*
X123720445Y-99398697D01*
X123763710Y-99441962D01*
X123774500Y-99486907D01*
X123774500Y-103395916D01*
X123755593Y-103454107D01*
X123729023Y-103479200D01*
X123668873Y-103517855D01*
X123574622Y-103626628D01*
X123514834Y-103757543D01*
X123494353Y-103899997D01*
X123494353Y-103900002D01*
X123514834Y-104042456D01*
X123521727Y-104057549D01*
X123574623Y-104173373D01*
X123589910Y-104191015D01*
X123668873Y-104282144D01*
X123744112Y-104330497D01*
X123789947Y-104359953D01*
X123875295Y-104385013D01*
X123928035Y-104400499D01*
X123928036Y-104400499D01*
X123928039Y-104400500D01*
X123928041Y-104400500D01*
X124071959Y-104400500D01*
X124071961Y-104400500D01*
X124210053Y-104359953D01*
X124331128Y-104282143D01*
X124425377Y-104173373D01*
X124469775Y-104076152D01*
X124489826Y-104047276D01*
X124585489Y-103951614D01*
X124644798Y-103848889D01*
X124649285Y-103832146D01*
X124655521Y-103808871D01*
X124675500Y-103734309D01*
X124675500Y-102122089D01*
X124694407Y-102063898D01*
X124743907Y-102027934D01*
X124805093Y-102027934D01*
X124854593Y-102063898D01*
X124862705Y-102077137D01*
X124901472Y-102153220D01*
X124996780Y-102248528D01*
X124996782Y-102248529D01*
X125116867Y-102309716D01*
X125116869Y-102309716D01*
X125116874Y-102309719D01*
X125192541Y-102321703D01*
X125216510Y-102325500D01*
X125216512Y-102325500D01*
X125783490Y-102325500D01*
X125804885Y-102322111D01*
X125883126Y-102309719D01*
X126003220Y-102248528D01*
X126098528Y-102153220D01*
X126125645Y-102100000D01*
X126161791Y-102029061D01*
X126205055Y-101985796D01*
X126265487Y-101976225D01*
X126320004Y-102004003D01*
X126338209Y-102029061D01*
X126394367Y-102139276D01*
X126401472Y-102153220D01*
X126496780Y-102248528D01*
X126496782Y-102248529D01*
X126616867Y-102309716D01*
X126616869Y-102309716D01*
X126616874Y-102309719D01*
X126692541Y-102321703D01*
X126716510Y-102325500D01*
X126716512Y-102325500D01*
X127283490Y-102325500D01*
X127304885Y-102322111D01*
X127383126Y-102309719D01*
X127503220Y-102248528D01*
X127598528Y-102153220D01*
X127657492Y-102037495D01*
X127700756Y-101994232D01*
X127761188Y-101984661D01*
X127815705Y-102012438D01*
X127834931Y-102043811D01*
X127835816Y-102043361D01*
X127884688Y-102139276D01*
X127896950Y-102163342D01*
X127986658Y-102253050D01*
X128099696Y-102310646D01*
X128193481Y-102325500D01*
X128806518Y-102325499D01*
X128806520Y-102325499D01*
X128806521Y-102325498D01*
X128854791Y-102317854D01*
X128900299Y-102310647D01*
X128900301Y-102310646D01*
X128900304Y-102310646D01*
X128926405Y-102297346D01*
X128986835Y-102287773D01*
X129041352Y-102315549D01*
X129061403Y-102344427D01*
X129074623Y-102373373D01*
X129168872Y-102482143D01*
X129222669Y-102516716D01*
X129261400Y-102564082D01*
X129264893Y-102625168D01*
X129231813Y-102676640D01*
X129222669Y-102683284D01*
X129168869Y-102717858D01*
X129074819Y-102826400D01*
X129022424Y-102857996D01*
X128961463Y-102852760D01*
X128925181Y-102826400D01*
X128831129Y-102717858D01*
X128831127Y-102717856D01*
X128710057Y-102640049D01*
X128710054Y-102640047D01*
X128710053Y-102640047D01*
X128710050Y-102640046D01*
X128571964Y-102599500D01*
X128571961Y-102599500D01*
X128428039Y-102599500D01*
X128428035Y-102599500D01*
X128289949Y-102640046D01*
X128289942Y-102640049D01*
X128168873Y-102717855D01*
X128074622Y-102826628D01*
X128014834Y-102957543D01*
X127994353Y-103099997D01*
X127994353Y-103100002D01*
X128014834Y-103242456D01*
X128074622Y-103373371D01*
X128074623Y-103373373D01*
X128166322Y-103479200D01*
X128168873Y-103482144D01*
X128289942Y-103559950D01*
X128289947Y-103559953D01*
X128396403Y-103591211D01*
X128428035Y-103600499D01*
X128428036Y-103600499D01*
X128428039Y-103600500D01*
X128428041Y-103600500D01*
X128571959Y-103600500D01*
X128571961Y-103600500D01*
X128710053Y-103559953D01*
X128831128Y-103482143D01*
X128925182Y-103373597D01*
X128977576Y-103342003D01*
X129038537Y-103347238D01*
X129074816Y-103373596D01*
X129166322Y-103479200D01*
X129168873Y-103482144D01*
X129289942Y-103559950D01*
X129289947Y-103559953D01*
X129396403Y-103591211D01*
X129428035Y-103600499D01*
X129428036Y-103600499D01*
X129428039Y-103600500D01*
X129428041Y-103600500D01*
X129571959Y-103600500D01*
X129571961Y-103600500D01*
X129710053Y-103559953D01*
X129831128Y-103482143D01*
X129925377Y-103373373D01*
X129985165Y-103242457D01*
X130005647Y-103100000D01*
X129992731Y-103010169D01*
X129985165Y-102957543D01*
X129939496Y-102857543D01*
X129925377Y-102826627D01*
X129831128Y-102717857D01*
X129831127Y-102717856D01*
X129831126Y-102717855D01*
X129777331Y-102683284D01*
X129738600Y-102635919D01*
X129735106Y-102574833D01*
X129768185Y-102523360D01*
X129777331Y-102516716D01*
X129831126Y-102482144D01*
X129831125Y-102482144D01*
X129831128Y-102482143D01*
X129925182Y-102373597D01*
X129977576Y-102342003D01*
X130038537Y-102347238D01*
X130074816Y-102373596D01*
X130140718Y-102449651D01*
X130168873Y-102482144D01*
X130286197Y-102557543D01*
X130289947Y-102559953D01*
X130396403Y-102591211D01*
X130428035Y-102600499D01*
X130428036Y-102600499D01*
X130428039Y-102600500D01*
X130428041Y-102600500D01*
X130571959Y-102600500D01*
X130571961Y-102600500D01*
X130710053Y-102559953D01*
X130831128Y-102482143D01*
X130925182Y-102373597D01*
X130977576Y-102342003D01*
X131038537Y-102347238D01*
X131074816Y-102373596D01*
X131168872Y-102482143D01*
X131222669Y-102516716D01*
X131261400Y-102564082D01*
X131264893Y-102625168D01*
X131231813Y-102676640D01*
X131222669Y-102683284D01*
X131168872Y-102717857D01*
X131074622Y-102826628D01*
X131014834Y-102957543D01*
X130994353Y-103099997D01*
X130994353Y-103100002D01*
X131014834Y-103242456D01*
X131074622Y-103373371D01*
X131074623Y-103373373D01*
X131166322Y-103479200D01*
X131168873Y-103482144D01*
X131289942Y-103559950D01*
X131289947Y-103559953D01*
X131396403Y-103591211D01*
X131428035Y-103600499D01*
X131428036Y-103600499D01*
X131428039Y-103600500D01*
X131428041Y-103600500D01*
X131571959Y-103600500D01*
X131571961Y-103600500D01*
X131710053Y-103559953D01*
X131831128Y-103482143D01*
X131925182Y-103373597D01*
X131977576Y-103342003D01*
X132038537Y-103347238D01*
X132074816Y-103373596D01*
X132166322Y-103479200D01*
X132168873Y-103482144D01*
X132289942Y-103559950D01*
X132289947Y-103559953D01*
X132396403Y-103591211D01*
X132428035Y-103600499D01*
X132428036Y-103600499D01*
X132428039Y-103600500D01*
X132428041Y-103600500D01*
X132571959Y-103600500D01*
X132571961Y-103600500D01*
X132710053Y-103559953D01*
X132831128Y-103482143D01*
X132925182Y-103373597D01*
X132977576Y-103342003D01*
X133038537Y-103347238D01*
X133074816Y-103373596D01*
X133166322Y-103479200D01*
X133168873Y-103482144D01*
X133289942Y-103559950D01*
X133289947Y-103559953D01*
X133396403Y-103591211D01*
X133428035Y-103600499D01*
X133428036Y-103600499D01*
X133428039Y-103600500D01*
X133428041Y-103600500D01*
X133571959Y-103600500D01*
X133571961Y-103600500D01*
X133710053Y-103559953D01*
X133831128Y-103482143D01*
X133925377Y-103373373D01*
X133985165Y-103242457D01*
X134005647Y-103100000D01*
X133992731Y-103010169D01*
X133985165Y-102957543D01*
X133939496Y-102857543D01*
X133925377Y-102826627D01*
X133831128Y-102717857D01*
X133831127Y-102717856D01*
X133831126Y-102717855D01*
X133777331Y-102683284D01*
X133738600Y-102635919D01*
X133735106Y-102574833D01*
X133768185Y-102523360D01*
X133777331Y-102516716D01*
X133831126Y-102482144D01*
X133831125Y-102482144D01*
X133831128Y-102482143D01*
X133925377Y-102373373D01*
X133985165Y-102242457D01*
X134002471Y-102122089D01*
X134005647Y-102100002D01*
X134005647Y-102099997D01*
X133985165Y-101957543D01*
X133951182Y-101883132D01*
X133925377Y-101826627D01*
X133831128Y-101717857D01*
X133831127Y-101717856D01*
X133831126Y-101717855D01*
X133777331Y-101683284D01*
X133738600Y-101635919D01*
X133735106Y-101574833D01*
X133768185Y-101523360D01*
X133777331Y-101516716D01*
X133831128Y-101482143D01*
X133925377Y-101373373D01*
X133985165Y-101242457D01*
X133996897Y-101160858D01*
X134005647Y-101100002D01*
X134005647Y-101099997D01*
X133985165Y-100957543D01*
X133970303Y-100925000D01*
X133925377Y-100826627D01*
X133831128Y-100717857D01*
X133831127Y-100717856D01*
X133831126Y-100717855D01*
X133777331Y-100683284D01*
X133738600Y-100635919D01*
X133735106Y-100574833D01*
X133768185Y-100523360D01*
X133777331Y-100516716D01*
X133798336Y-100503217D01*
X133831128Y-100482143D01*
X133925377Y-100373373D01*
X133969827Y-100276043D01*
X134011199Y-100230965D01*
X134071165Y-100218814D01*
X134126822Y-100244232D01*
X134136983Y-100256086D01*
X134140445Y-100259548D01*
X134140448Y-100259552D01*
X134206769Y-100303867D01*
X134251231Y-100312711D01*
X134265241Y-100315498D01*
X134265246Y-100315498D01*
X134265252Y-100315500D01*
X136050500Y-100315500D01*
X136108691Y-100334407D01*
X136144655Y-100383907D01*
X136149500Y-100414500D01*
X136149500Y-110997964D01*
X136149415Y-111002055D01*
X136132081Y-111421143D01*
X136131406Y-111429297D01*
X136079774Y-111843518D01*
X136078427Y-111851589D01*
X135992766Y-112260124D01*
X135990757Y-112268056D01*
X135871656Y-112668106D01*
X135869000Y-112675845D01*
X135717264Y-113064714D01*
X135713977Y-113072208D01*
X135530645Y-113447219D01*
X135526750Y-113454415D01*
X135313086Y-113812989D01*
X135308611Y-113819839D01*
X135066056Y-114159557D01*
X135061030Y-114166014D01*
X134791260Y-114484531D01*
X134785719Y-114490551D01*
X134490551Y-114785719D01*
X134484531Y-114791260D01*
X134166014Y-115061030D01*
X134159557Y-115066056D01*
X133819839Y-115308611D01*
X133812989Y-115313086D01*
X133454415Y-115526750D01*
X133447219Y-115530645D01*
X133072208Y-115713977D01*
X133064714Y-115717264D01*
X132675845Y-115869000D01*
X132668106Y-115871656D01*
X132268056Y-115990757D01*
X132260124Y-115992766D01*
X131851589Y-116078427D01*
X131843518Y-116079774D01*
X131429297Y-116131406D01*
X131421143Y-116132081D01*
X131002055Y-116149415D01*
X130997964Y-116149500D01*
X115376600Y-116149500D01*
X115318409Y-116130593D01*
X115282445Y-116081093D01*
X115282445Y-116019907D01*
X115313447Y-115977236D01*
X115312657Y-115976446D01*
X115317646Y-115971456D01*
X115318409Y-115970407D01*
X115319355Y-115969747D01*
X115319545Y-115969556D01*
X115319552Y-115969552D01*
X115363867Y-115903231D01*
X115375500Y-115844748D01*
X115375500Y-114455252D01*
X115363867Y-114396769D01*
X115319552Y-114330448D01*
X115293088Y-114312765D01*
X115253233Y-114286134D01*
X115253231Y-114286133D01*
X115253228Y-114286132D01*
X115253227Y-114286132D01*
X115194758Y-114274501D01*
X115194748Y-114274500D01*
X113805252Y-114274500D01*
X113805251Y-114274500D01*
X113805241Y-114274501D01*
X113746772Y-114286132D01*
X113746766Y-114286134D01*
X113680451Y-114330445D01*
X113680445Y-114330451D01*
X113636134Y-114396766D01*
X113636132Y-114396772D01*
X113624501Y-114455241D01*
X113624500Y-114455253D01*
X113624500Y-115844746D01*
X113624501Y-115844758D01*
X113636132Y-115903227D01*
X113636134Y-115903233D01*
X113642249Y-115912384D01*
X113680448Y-115969552D01*
X113680451Y-115969554D01*
X113687343Y-115976446D01*
X113685985Y-115977803D01*
X113716282Y-116016236D01*
X113718683Y-116077374D01*
X113684689Y-116128248D01*
X113627285Y-116149424D01*
X113623400Y-116149500D01*
X112873340Y-116149500D01*
X112815149Y-116130593D01*
X112779185Y-116081093D01*
X112779185Y-116019907D01*
X112815149Y-115970407D01*
X112833071Y-115960059D01*
X112940160Y-115912381D01*
X113089049Y-115804207D01*
X113212194Y-115667440D01*
X113304213Y-115508059D01*
X113361084Y-115333029D01*
X113380321Y-115150000D01*
X113361084Y-114966971D01*
X113304213Y-114791941D01*
X113304210Y-114791936D01*
X113304208Y-114791931D01*
X113256934Y-114710052D01*
X113212194Y-114632560D01*
X113089049Y-114495793D01*
X112940160Y-114387619D01*
X112940156Y-114387617D01*
X112940153Y-114387615D01*
X112772035Y-114312765D01*
X112772033Y-114312764D01*
X112772030Y-114312763D01*
X112772029Y-114312763D01*
X112725134Y-114302795D01*
X112592018Y-114274500D01*
X112407980Y-114274500D01*
X112310796Y-114295157D01*
X112227968Y-114312763D01*
X112227962Y-114312765D01*
X112059844Y-114387615D01*
X112059841Y-114387617D01*
X111910947Y-114495794D01*
X111787802Y-114632562D01*
X111787802Y-114632563D01*
X111695789Y-114791931D01*
X111695783Y-114791945D01*
X111638915Y-114966965D01*
X111619677Y-115150000D01*
X111638915Y-115333034D01*
X111695783Y-115508054D01*
X111695789Y-115508068D01*
X111768892Y-115634684D01*
X111787804Y-115667440D01*
X111910949Y-115804207D01*
X112059838Y-115912381D01*
X112059842Y-115912383D01*
X112059844Y-115912384D01*
X112123099Y-115940547D01*
X112166925Y-115960059D01*
X112212394Y-116001000D01*
X112225116Y-116060848D01*
X112200230Y-116116744D01*
X112147242Y-116147337D01*
X112126658Y-116149500D01*
X110873341Y-116149500D01*
X110815150Y-116130593D01*
X110779186Y-116081093D01*
X110779186Y-116019907D01*
X110815150Y-115970407D01*
X110833072Y-115960059D01*
X110940161Y-115912381D01*
X111089050Y-115804207D01*
X111212195Y-115667440D01*
X111304214Y-115508059D01*
X111361085Y-115333029D01*
X111380322Y-115150000D01*
X111361085Y-114966971D01*
X111304214Y-114791941D01*
X111304211Y-114791936D01*
X111304209Y-114791931D01*
X111256935Y-114710052D01*
X111212195Y-114632560D01*
X111089050Y-114495793D01*
X110940161Y-114387619D01*
X110940157Y-114387617D01*
X110940154Y-114387615D01*
X110772036Y-114312765D01*
X110772034Y-114312764D01*
X110772031Y-114312763D01*
X110772030Y-114312763D01*
X110725135Y-114302795D01*
X110592019Y-114274500D01*
X110407981Y-114274500D01*
X110310797Y-114295157D01*
X110227969Y-114312763D01*
X110227963Y-114312765D01*
X110059845Y-114387615D01*
X110059842Y-114387617D01*
X109910948Y-114495794D01*
X109787803Y-114632562D01*
X109787803Y-114632563D01*
X109695790Y-114791931D01*
X109695784Y-114791945D01*
X109638916Y-114966965D01*
X109619678Y-115150000D01*
X109638916Y-115333034D01*
X109695784Y-115508054D01*
X109695790Y-115508068D01*
X109768893Y-115634684D01*
X109787805Y-115667440D01*
X109910950Y-115804207D01*
X110059839Y-115912381D01*
X110059843Y-115912383D01*
X110059845Y-115912384D01*
X110123100Y-115940547D01*
X110166926Y-115960059D01*
X110212395Y-116001000D01*
X110225117Y-116060848D01*
X110200231Y-116116744D01*
X110147243Y-116147337D01*
X110126659Y-116149500D01*
X108873341Y-116149500D01*
X108815150Y-116130593D01*
X108779186Y-116081093D01*
X108779186Y-116019907D01*
X108815150Y-115970407D01*
X108833072Y-115960059D01*
X108940161Y-115912381D01*
X109089050Y-115804207D01*
X109212195Y-115667440D01*
X109304214Y-115508059D01*
X109361085Y-115333029D01*
X109380322Y-115150000D01*
X109361085Y-114966971D01*
X109304214Y-114791941D01*
X109304211Y-114791936D01*
X109304209Y-114791931D01*
X109256935Y-114710052D01*
X109212195Y-114632560D01*
X109089050Y-114495793D01*
X108940161Y-114387619D01*
X108940157Y-114387617D01*
X108940154Y-114387615D01*
X108772036Y-114312765D01*
X108772034Y-114312764D01*
X108772031Y-114312763D01*
X108772030Y-114312763D01*
X108725135Y-114302795D01*
X108592019Y-114274500D01*
X108407981Y-114274500D01*
X108310797Y-114295157D01*
X108227969Y-114312763D01*
X108227963Y-114312765D01*
X108059845Y-114387615D01*
X108059842Y-114387617D01*
X107910948Y-114495794D01*
X107787803Y-114632562D01*
X107787803Y-114632563D01*
X107695790Y-114791931D01*
X107695784Y-114791945D01*
X107638916Y-114966965D01*
X107619678Y-115150000D01*
X107638916Y-115333034D01*
X107695784Y-115508054D01*
X107695790Y-115508068D01*
X107768893Y-115634684D01*
X107787805Y-115667440D01*
X107910950Y-115804207D01*
X108059839Y-115912381D01*
X108059843Y-115912383D01*
X108059845Y-115912384D01*
X108123100Y-115940547D01*
X108166926Y-115960059D01*
X108212395Y-116001000D01*
X108225117Y-116060848D01*
X108200231Y-116116744D01*
X108147243Y-116147337D01*
X108126659Y-116149500D01*
X106873341Y-116149500D01*
X106815150Y-116130593D01*
X106779186Y-116081093D01*
X106779186Y-116019907D01*
X106815150Y-115970407D01*
X106833072Y-115960059D01*
X106940161Y-115912381D01*
X107089050Y-115804207D01*
X107212195Y-115667440D01*
X107304214Y-115508059D01*
X107361085Y-115333029D01*
X107380322Y-115150000D01*
X107361085Y-114966971D01*
X107304214Y-114791941D01*
X107304211Y-114791936D01*
X107304209Y-114791931D01*
X107256935Y-114710052D01*
X107212195Y-114632560D01*
X107089050Y-114495793D01*
X106940161Y-114387619D01*
X106940157Y-114387617D01*
X106940154Y-114387615D01*
X106772036Y-114312765D01*
X106772034Y-114312764D01*
X106772031Y-114312763D01*
X106772030Y-114312763D01*
X106725135Y-114302795D01*
X106592019Y-114274500D01*
X106407981Y-114274500D01*
X106310797Y-114295157D01*
X106227969Y-114312763D01*
X106227963Y-114312765D01*
X106059845Y-114387615D01*
X106059842Y-114387617D01*
X105910948Y-114495794D01*
X105787803Y-114632562D01*
X105787803Y-114632563D01*
X105695790Y-114791931D01*
X105695784Y-114791945D01*
X105638916Y-114966965D01*
X105619678Y-115150000D01*
X105638916Y-115333034D01*
X105695784Y-115508054D01*
X105695790Y-115508068D01*
X105768893Y-115634684D01*
X105787805Y-115667440D01*
X105910950Y-115804207D01*
X106059839Y-115912381D01*
X106059843Y-115912383D01*
X106059845Y-115912384D01*
X106123100Y-115940547D01*
X106166926Y-115960059D01*
X106212395Y-116001000D01*
X106225117Y-116060848D01*
X106200231Y-116116744D01*
X106147243Y-116147337D01*
X106126659Y-116149500D01*
X100002036Y-116149500D01*
X99997945Y-116149415D01*
X99578856Y-116132081D01*
X99570702Y-116131406D01*
X99156481Y-116079774D01*
X99148410Y-116078427D01*
X98739875Y-115992766D01*
X98731943Y-115990757D01*
X98331893Y-115871656D01*
X98324154Y-115869000D01*
X97935285Y-115717264D01*
X97927791Y-115713977D01*
X97832590Y-115667436D01*
X97552773Y-115530641D01*
X97545592Y-115526754D01*
X97370427Y-115422379D01*
X97187010Y-115313086D01*
X97180160Y-115308611D01*
X96840442Y-115066056D01*
X96833985Y-115061030D01*
X96515468Y-114791260D01*
X96509448Y-114785719D01*
X96214280Y-114490551D01*
X96208739Y-114484531D01*
X95938969Y-114166014D01*
X95933943Y-114159557D01*
X95691388Y-113819839D01*
X95686913Y-113812989D01*
X95583356Y-113639198D01*
X95473240Y-113454399D01*
X95469362Y-113447235D01*
X95326987Y-113156004D01*
X116479500Y-113156004D01*
X116479500Y-113893995D01*
X116506420Y-114029327D01*
X116506420Y-114029329D01*
X116559222Y-114156806D01*
X116559228Y-114156817D01*
X116635885Y-114271541D01*
X116733458Y-114369114D01*
X116848182Y-114445771D01*
X116848193Y-114445777D01*
X116871071Y-114455253D01*
X116975672Y-114498580D01*
X117111007Y-114525500D01*
X117111008Y-114525500D01*
X117248992Y-114525500D01*
X117248993Y-114525500D01*
X117384328Y-114498580D01*
X117511811Y-114445775D01*
X117626542Y-114369114D01*
X117724114Y-114271542D01*
X117800775Y-114156811D01*
X117853580Y-114029328D01*
X117880500Y-113893993D01*
X117880500Y-113156007D01*
X117853580Y-113020672D01*
X117800775Y-112893189D01*
X117800774Y-112893187D01*
X117800771Y-112893182D01*
X117724114Y-112778458D01*
X117626541Y-112680885D01*
X117511817Y-112604228D01*
X117511806Y-112604222D01*
X117384328Y-112551420D01*
X117248995Y-112524500D01*
X117248993Y-112524500D01*
X117111007Y-112524500D01*
X117111004Y-112524500D01*
X116975672Y-112551420D01*
X116975670Y-112551420D01*
X116848193Y-112604222D01*
X116848182Y-112604228D01*
X116733458Y-112680885D01*
X116635885Y-112778458D01*
X116559228Y-112893182D01*
X116559222Y-112893193D01*
X116506420Y-113020670D01*
X116506420Y-113020672D01*
X116479500Y-113156004D01*
X95326987Y-113156004D01*
X95286016Y-113072196D01*
X95282740Y-113064726D01*
X95132966Y-112680886D01*
X95130999Y-112675845D01*
X95128343Y-112668106D01*
X95085589Y-112524500D01*
X95009239Y-112268046D01*
X95007233Y-112260124D01*
X94921569Y-111851574D01*
X94920227Y-111843533D01*
X94868592Y-111429286D01*
X94867918Y-111421143D01*
X94857795Y-111176393D01*
X94850585Y-111002055D01*
X94850500Y-110997964D01*
X94850500Y-108726004D01*
X116479500Y-108726004D01*
X116479500Y-109963995D01*
X116506420Y-110099327D01*
X116506420Y-110099329D01*
X116559222Y-110226806D01*
X116559228Y-110226817D01*
X116635885Y-110341541D01*
X116733458Y-110439114D01*
X116848182Y-110515771D01*
X116848193Y-110515777D01*
X116895283Y-110535282D01*
X116975672Y-110568580D01*
X117111007Y-110595500D01*
X117111008Y-110595500D01*
X117248992Y-110595500D01*
X117248993Y-110595500D01*
X117384328Y-110568580D01*
X117511811Y-110515775D01*
X117626542Y-110439114D01*
X117724114Y-110341542D01*
X117800775Y-110226811D01*
X117853580Y-110099328D01*
X117880500Y-109963993D01*
X117880500Y-109775817D01*
X118084500Y-109775817D01*
X118084500Y-109914183D01*
X118120312Y-110047836D01*
X118189495Y-110167665D01*
X118287335Y-110265505D01*
X118407164Y-110334688D01*
X118540817Y-110370500D01*
X118540819Y-110370500D01*
X118679181Y-110370500D01*
X118679183Y-110370500D01*
X118812836Y-110334688D01*
X118932665Y-110265505D01*
X119030505Y-110167665D01*
X119099688Y-110047836D01*
X119135500Y-109914183D01*
X119135500Y-109775817D01*
X119099688Y-109642164D01*
X119030505Y-109522335D01*
X118932665Y-109424495D01*
X118812836Y-109355312D01*
X118679183Y-109319500D01*
X118540817Y-109319500D01*
X118407164Y-109355312D01*
X118287335Y-109424495D01*
X118189495Y-109522335D01*
X118120312Y-109642164D01*
X118084500Y-109775817D01*
X117880500Y-109775817D01*
X117880500Y-109305283D01*
X119365889Y-109305283D01*
X119365889Y-112059171D01*
X119365889Y-112182217D01*
X119393973Y-112287029D01*
X119397736Y-112301072D01*
X119459253Y-112407622D01*
X119459255Y-112407624D01*
X119459257Y-112407627D01*
X119830089Y-112778458D01*
X120020505Y-112968874D01*
X120048282Y-113023391D01*
X120049501Y-113038877D01*
X120049501Y-113383260D01*
X120056119Y-113428682D01*
X120059428Y-113451395D01*
X120075001Y-113483249D01*
X120110803Y-113556483D01*
X120193518Y-113639198D01*
X120247286Y-113665483D01*
X120298605Y-113690572D01*
X120298606Y-113690572D01*
X120298608Y-113690573D01*
X120366741Y-113700500D01*
X120366744Y-113700500D01*
X120733258Y-113700500D01*
X120733261Y-113700500D01*
X120801394Y-113690573D01*
X120906484Y-113639198D01*
X120954998Y-113590683D01*
X121009512Y-113562907D01*
X121069944Y-113572478D01*
X121095000Y-113590681D01*
X121143517Y-113639198D01*
X121197285Y-113665483D01*
X121248604Y-113690572D01*
X121248605Y-113690572D01*
X121248607Y-113690573D01*
X121316740Y-113700500D01*
X121316743Y-113700500D01*
X121683257Y-113700500D01*
X121683260Y-113700500D01*
X121751393Y-113690573D01*
X121856483Y-113639198D01*
X121904997Y-113590683D01*
X121959511Y-113562907D01*
X122019943Y-113572478D01*
X122044999Y-113590681D01*
X122093516Y-113639198D01*
X122147284Y-113665483D01*
X122198603Y-113690572D01*
X122198604Y-113690572D01*
X122198606Y-113690573D01*
X122266739Y-113700500D01*
X122266742Y-113700500D01*
X122633256Y-113700500D01*
X122633259Y-113700500D01*
X122701392Y-113690573D01*
X122806482Y-113639198D01*
X122889197Y-113556483D01*
X122940572Y-113451393D01*
X122950499Y-113383260D01*
X122950499Y-113156004D01*
X125119500Y-113156004D01*
X125119500Y-113893995D01*
X125146420Y-114029327D01*
X125146420Y-114029329D01*
X125199222Y-114156806D01*
X125199228Y-114156817D01*
X125275885Y-114271541D01*
X125373458Y-114369114D01*
X125488182Y-114445771D01*
X125488193Y-114445777D01*
X125511071Y-114455253D01*
X125615672Y-114498580D01*
X125751007Y-114525500D01*
X125751008Y-114525500D01*
X125888992Y-114525500D01*
X125888993Y-114525500D01*
X126024328Y-114498580D01*
X126151811Y-114445775D01*
X126266542Y-114369114D01*
X126364114Y-114271542D01*
X126440775Y-114156811D01*
X126493580Y-114029328D01*
X126520500Y-113893993D01*
X126520500Y-113156007D01*
X126493580Y-113020672D01*
X126440775Y-112893189D01*
X126440774Y-112893187D01*
X126440771Y-112893182D01*
X126364114Y-112778458D01*
X126266541Y-112680885D01*
X126151817Y-112604228D01*
X126151806Y-112604222D01*
X126024328Y-112551420D01*
X125888995Y-112524500D01*
X125888993Y-112524500D01*
X125751007Y-112524500D01*
X125751004Y-112524500D01*
X125615672Y-112551420D01*
X125615670Y-112551420D01*
X125488193Y-112604222D01*
X125488182Y-112604228D01*
X125373458Y-112680885D01*
X125275885Y-112778458D01*
X125199228Y-112893182D01*
X125199222Y-112893193D01*
X125146420Y-113020670D01*
X125146420Y-113020672D01*
X125119500Y-113156004D01*
X122950499Y-113156004D01*
X122950499Y-113038877D01*
X122969406Y-112980686D01*
X122979489Y-112968879D01*
X123540743Y-112407626D01*
X123602265Y-112301068D01*
X123634111Y-112182216D01*
X123634111Y-112059171D01*
X123634111Y-109775817D01*
X123864500Y-109775817D01*
X123864500Y-109914183D01*
X123900312Y-110047836D01*
X123969495Y-110167665D01*
X124067335Y-110265505D01*
X124187164Y-110334688D01*
X124320817Y-110370500D01*
X124320819Y-110370500D01*
X124459181Y-110370500D01*
X124459183Y-110370500D01*
X124592836Y-110334688D01*
X124712665Y-110265505D01*
X124810505Y-110167665D01*
X124879688Y-110047836D01*
X124915500Y-109914183D01*
X124915500Y-109775817D01*
X124879688Y-109642164D01*
X124810505Y-109522335D01*
X124712665Y-109424495D01*
X124592836Y-109355312D01*
X124459183Y-109319500D01*
X124320817Y-109319500D01*
X124187164Y-109355312D01*
X124067335Y-109424495D01*
X123969495Y-109522335D01*
X123900312Y-109642164D01*
X123864500Y-109775817D01*
X123634111Y-109775817D01*
X123634111Y-109305283D01*
X123602265Y-109186432D01*
X123602265Y-109186431D01*
X123602265Y-109186430D01*
X123540746Y-109079877D01*
X123540745Y-109079876D01*
X123540744Y-109079875D01*
X123540743Y-109079873D01*
X123186874Y-108726004D01*
X125119500Y-108726004D01*
X125119500Y-109963995D01*
X125146420Y-110099327D01*
X125146420Y-110099329D01*
X125199222Y-110226806D01*
X125199228Y-110226817D01*
X125275885Y-110341541D01*
X125373458Y-110439114D01*
X125488182Y-110515771D01*
X125488193Y-110515777D01*
X125535283Y-110535282D01*
X125615672Y-110568580D01*
X125751007Y-110595500D01*
X125751008Y-110595500D01*
X125888992Y-110595500D01*
X125888993Y-110595500D01*
X126024328Y-110568580D01*
X126151811Y-110515775D01*
X126266542Y-110439114D01*
X126364114Y-110341542D01*
X126440775Y-110226811D01*
X126493580Y-110099328D01*
X126520500Y-109963993D01*
X126520500Y-108726007D01*
X126493580Y-108590672D01*
X126440775Y-108463189D01*
X126440774Y-108463187D01*
X126440771Y-108463182D01*
X126364114Y-108348458D01*
X126266541Y-108250885D01*
X126151817Y-108174228D01*
X126151806Y-108174222D01*
X126024328Y-108121420D01*
X125888995Y-108094500D01*
X125888993Y-108094500D01*
X125751007Y-108094500D01*
X125751004Y-108094500D01*
X125615672Y-108121420D01*
X125615670Y-108121420D01*
X125488193Y-108174222D01*
X125488182Y-108174228D01*
X125373458Y-108250885D01*
X125275885Y-108348458D01*
X125199228Y-108463182D01*
X125199222Y-108463193D01*
X125146420Y-108590670D01*
X125146420Y-108590672D01*
X125119500Y-108726004D01*
X123186874Y-108726004D01*
X122511932Y-108051061D01*
X122511929Y-108051059D01*
X122511928Y-108051058D01*
X122511927Y-108051057D01*
X122405378Y-107989541D01*
X122405375Y-107989540D01*
X122405373Y-107989539D01*
X122330486Y-107969472D01*
X122279174Y-107936149D01*
X122273799Y-107928851D01*
X122254152Y-107899447D01*
X122254148Y-107899444D01*
X122187833Y-107855133D01*
X122187831Y-107855132D01*
X122187828Y-107855131D01*
X122187827Y-107855131D01*
X122129358Y-107843500D01*
X122129348Y-107843499D01*
X121683452Y-107843499D01*
X121683451Y-107843499D01*
X121683441Y-107843500D01*
X121624972Y-107855131D01*
X121624966Y-107855133D01*
X121555002Y-107901883D01*
X121496114Y-107918492D01*
X121444998Y-107901883D01*
X121375033Y-107855133D01*
X121375031Y-107855132D01*
X121375028Y-107855131D01*
X121375027Y-107855131D01*
X121316558Y-107843500D01*
X121316548Y-107843499D01*
X120870652Y-107843499D01*
X120870651Y-107843499D01*
X120870641Y-107843500D01*
X120812172Y-107855131D01*
X120812166Y-107855133D01*
X120745846Y-107899447D01*
X120745845Y-107899448D01*
X120726198Y-107928851D01*
X120678147Y-107966728D01*
X120669510Y-107969472D01*
X120594626Y-107989539D01*
X120594623Y-107989540D01*
X120488073Y-108051057D01*
X120488072Y-108051058D01*
X119459256Y-109079873D01*
X119397734Y-109186431D01*
X119397735Y-109186432D01*
X119365889Y-109305283D01*
X117880500Y-109305283D01*
X117880500Y-108726007D01*
X117853580Y-108590672D01*
X117800775Y-108463189D01*
X117800774Y-108463187D01*
X117800771Y-108463182D01*
X117724114Y-108348458D01*
X117626541Y-108250885D01*
X117511817Y-108174228D01*
X117511806Y-108174222D01*
X117384328Y-108121420D01*
X117248995Y-108094500D01*
X117248993Y-108094500D01*
X117111007Y-108094500D01*
X117111004Y-108094500D01*
X116975672Y-108121420D01*
X116975670Y-108121420D01*
X116848193Y-108174222D01*
X116848182Y-108174228D01*
X116733458Y-108250885D01*
X116635885Y-108348458D01*
X116559228Y-108463182D01*
X116559222Y-108463193D01*
X116506420Y-108590670D01*
X116506420Y-108590672D01*
X116479500Y-108726004D01*
X94850500Y-108726004D01*
X94850500Y-102999997D01*
X100919353Y-102999997D01*
X100919353Y-103000002D01*
X100939834Y-103142456D01*
X100985504Y-103242457D01*
X100999623Y-103273373D01*
X101086271Y-103373371D01*
X101093873Y-103382144D01*
X101205850Y-103454107D01*
X101214947Y-103459953D01*
X101321403Y-103491211D01*
X101353035Y-103500499D01*
X101353036Y-103500499D01*
X101353039Y-103500500D01*
X101353041Y-103500500D01*
X101496959Y-103500500D01*
X101496961Y-103500500D01*
X101635053Y-103459953D01*
X101756128Y-103382143D01*
X101850377Y-103273373D01*
X101910165Y-103142457D01*
X101919864Y-103075001D01*
X101930647Y-103000002D01*
X101930647Y-102999997D01*
X101910165Y-102857543D01*
X101850377Y-102726628D01*
X101850377Y-102726627D01*
X101756128Y-102617857D01*
X101756127Y-102617856D01*
X101756126Y-102617855D01*
X101635057Y-102540049D01*
X101635054Y-102540047D01*
X101635053Y-102540047D01*
X101635050Y-102540046D01*
X101496964Y-102499500D01*
X101496961Y-102499500D01*
X101353039Y-102499500D01*
X101353035Y-102499500D01*
X101214949Y-102540046D01*
X101214942Y-102540049D01*
X101093873Y-102617855D01*
X100999622Y-102726628D01*
X100939834Y-102857543D01*
X100919353Y-102999997D01*
X94850500Y-102999997D01*
X94850500Y-98699997D01*
X108713103Y-98699997D01*
X108713103Y-98700002D01*
X108733584Y-98842456D01*
X108786915Y-98959232D01*
X108793373Y-98973373D01*
X108867301Y-99058691D01*
X108887623Y-99082144D01*
X109008692Y-99159950D01*
X109008697Y-99159953D01*
X109115153Y-99191211D01*
X109146785Y-99200499D01*
X109146786Y-99200499D01*
X109146789Y-99200500D01*
X109146791Y-99200500D01*
X109290709Y-99200500D01*
X109290711Y-99200500D01*
X109428803Y-99159953D01*
X109549878Y-99082143D01*
X109644127Y-98973373D01*
X109703915Y-98842457D01*
X109710742Y-98794971D01*
X109724397Y-98700002D01*
X109724397Y-98699997D01*
X109703915Y-98557543D01*
X109661710Y-98465129D01*
X109644127Y-98426627D01*
X109549878Y-98317857D01*
X109549877Y-98317856D01*
X109549876Y-98317855D01*
X109428807Y-98240049D01*
X109428804Y-98240047D01*
X109428803Y-98240047D01*
X109428800Y-98240046D01*
X109290714Y-98199500D01*
X109290711Y-98199500D01*
X109146789Y-98199500D01*
X109146785Y-98199500D01*
X109008699Y-98240046D01*
X109008692Y-98240049D01*
X108887623Y-98317855D01*
X108793372Y-98426628D01*
X108733584Y-98557543D01*
X108713103Y-98699997D01*
X94850500Y-98699997D01*
X94850500Y-93180253D01*
X96399500Y-93180253D01*
X96399500Y-95219746D01*
X96399501Y-95219758D01*
X96411132Y-95278227D01*
X96411134Y-95278233D01*
X96446023Y-95330447D01*
X96455448Y-95344552D01*
X96521769Y-95388867D01*
X96566231Y-95397711D01*
X96580241Y-95400498D01*
X96580246Y-95400498D01*
X96580252Y-95400500D01*
X96580253Y-95400500D01*
X98619747Y-95400500D01*
X98619748Y-95400500D01*
X98678231Y-95388867D01*
X98744552Y-95344552D01*
X98788867Y-95278231D01*
X98800500Y-95219748D01*
X98800500Y-93180252D01*
X98788867Y-93121769D01*
X98744552Y-93055448D01*
X98744548Y-93055445D01*
X98678233Y-93011134D01*
X98678231Y-93011133D01*
X98678228Y-93011132D01*
X98678227Y-93011132D01*
X98619758Y-92999501D01*
X98619748Y-92999500D01*
X96580252Y-92999500D01*
X96580251Y-92999500D01*
X96580241Y-92999501D01*
X96521772Y-93011132D01*
X96521766Y-93011134D01*
X96455451Y-93055445D01*
X96455445Y-93055451D01*
X96411134Y-93121766D01*
X96411132Y-93121772D01*
X96399501Y-93180241D01*
X96399500Y-93180253D01*
X94850500Y-93180253D01*
X94850500Y-92599997D01*
X109569353Y-92599997D01*
X109569353Y-92600002D01*
X109589834Y-92742456D01*
X109636882Y-92845474D01*
X109649623Y-92873373D01*
X109686107Y-92915478D01*
X109743873Y-92982144D01*
X109864942Y-93059950D01*
X109864947Y-93059953D01*
X109971403Y-93091211D01*
X110003035Y-93100499D01*
X110003036Y-93100499D01*
X110003039Y-93100500D01*
X110003041Y-93100500D01*
X110146959Y-93100500D01*
X110146961Y-93100500D01*
X110285053Y-93059953D01*
X110406128Y-92982143D01*
X110500377Y-92873373D01*
X110560165Y-92742457D01*
X110576436Y-92629290D01*
X110580647Y-92600002D01*
X110580647Y-92599997D01*
X110560165Y-92457543D01*
X110525731Y-92382144D01*
X110500377Y-92326627D01*
X110406128Y-92217857D01*
X110406127Y-92217856D01*
X110406126Y-92217855D01*
X110285057Y-92140049D01*
X110285054Y-92140047D01*
X110285053Y-92140047D01*
X110285050Y-92140046D01*
X110146964Y-92099500D01*
X110146961Y-92099500D01*
X110003039Y-92099500D01*
X110003035Y-92099500D01*
X109864949Y-92140046D01*
X109864942Y-92140049D01*
X109743873Y-92217855D01*
X109649622Y-92326628D01*
X109589834Y-92457543D01*
X109569353Y-92599997D01*
X94850500Y-92599997D01*
X94850500Y-90999997D01*
X109569353Y-90999997D01*
X109569353Y-91000002D01*
X109589834Y-91142456D01*
X109635504Y-91242457D01*
X109649623Y-91273373D01*
X109743872Y-91382143D01*
X109743873Y-91382144D01*
X109864942Y-91459950D01*
X109864947Y-91459953D01*
X109971403Y-91491211D01*
X110003035Y-91500499D01*
X110003036Y-91500499D01*
X110003039Y-91500500D01*
X110003041Y-91500500D01*
X110146959Y-91500500D01*
X110146961Y-91500500D01*
X110285053Y-91459953D01*
X110406128Y-91382143D01*
X110500377Y-91273373D01*
X110560165Y-91142457D01*
X110573386Y-91050500D01*
X110580647Y-91000002D01*
X110580647Y-90999997D01*
X110560165Y-90857543D01*
X110539978Y-90813340D01*
X110500377Y-90726627D01*
X110406128Y-90617857D01*
X110406127Y-90617856D01*
X110406126Y-90617855D01*
X110285057Y-90540049D01*
X110285054Y-90540047D01*
X110285053Y-90540047D01*
X110285050Y-90540046D01*
X110146964Y-90499500D01*
X110146961Y-90499500D01*
X110003039Y-90499500D01*
X110003035Y-90499500D01*
X109864949Y-90540046D01*
X109864942Y-90540049D01*
X109743873Y-90617855D01*
X109649622Y-90726628D01*
X109589834Y-90857543D01*
X109569353Y-90999997D01*
X94850500Y-90999997D01*
X94850500Y-80002035D01*
X94850585Y-79997944D01*
X94853225Y-79934108D01*
X94867919Y-79578843D01*
X94868591Y-79570715D01*
X94920228Y-79156462D01*
X94921568Y-79148428D01*
X95007236Y-78739859D01*
X95009237Y-78731959D01*
X95128343Y-78331890D01*
X95130999Y-78324154D01*
X95282744Y-77935264D01*
X95286012Y-77927812D01*
X95469367Y-77552754D01*
X95473234Y-77545610D01*
X95686919Y-77187000D01*
X95691381Y-77180169D01*
X95933948Y-76840435D01*
X95938969Y-76833985D01*
X96019542Y-76738853D01*
X96208749Y-76515456D01*
X96214268Y-76509460D01*
X96509460Y-76214268D01*
X96515456Y-76208749D01*
X96833991Y-75938964D01*
X96840435Y-75933948D01*
X97180169Y-75691381D01*
X97187000Y-75686919D01*
X97545610Y-75473234D01*
X97552754Y-75469367D01*
X97927812Y-75286012D01*
X97935264Y-75282744D01*
X98324156Y-75130998D01*
X98331893Y-75128343D01*
X98731959Y-75009237D01*
X98739859Y-75007236D01*
X99148428Y-74921568D01*
X99156462Y-74920228D01*
X99570715Y-74868591D01*
X99578843Y-74867919D01*
X99997945Y-74850585D01*
X100002036Y-74850500D01*
X100065892Y-74850500D01*
X114126659Y-74850500D01*
X114184850Y-74869407D01*
G37*
%TD.AperFunction*%
%TA.AperFunction,Conductor*%
G36*
X117681591Y-74869407D02*
G01*
X117717555Y-74918907D01*
X117717555Y-74980093D01*
X117686552Y-75022763D01*
X117687343Y-75023554D01*
X117682353Y-75028543D01*
X117681591Y-75029593D01*
X117680644Y-75030252D01*
X117680445Y-75030451D01*
X117636134Y-75096766D01*
X117636132Y-75096772D01*
X117624501Y-75155241D01*
X117624500Y-75155253D01*
X117624500Y-76544746D01*
X117624501Y-76544758D01*
X117636132Y-76603227D01*
X117636134Y-76603233D01*
X117642250Y-76612386D01*
X117680448Y-76669552D01*
X117746769Y-76713867D01*
X117791231Y-76722711D01*
X117805241Y-76725498D01*
X117805246Y-76725498D01*
X117805252Y-76725500D01*
X117805253Y-76725500D01*
X119194747Y-76725500D01*
X119194748Y-76725500D01*
X119253231Y-76713867D01*
X119319552Y-76669552D01*
X119363867Y-76603231D01*
X119375500Y-76544748D01*
X119375500Y-75155252D01*
X119363867Y-75096769D01*
X119319552Y-75030448D01*
X119319548Y-75030445D01*
X119312657Y-75023554D01*
X119314014Y-75022196D01*
X119283718Y-74983764D01*
X119281317Y-74922626D01*
X119315311Y-74871752D01*
X119372715Y-74850576D01*
X119376600Y-74850500D01*
X130934108Y-74850500D01*
X130997964Y-74850500D01*
X131002055Y-74850585D01*
X131421154Y-74867918D01*
X131429286Y-74868592D01*
X131843533Y-74920227D01*
X131851574Y-74921569D01*
X132260134Y-75007235D01*
X132268046Y-75009239D01*
X132531304Y-75087615D01*
X132668106Y-75128343D01*
X132675845Y-75130999D01*
X132766012Y-75166182D01*
X133064726Y-75282740D01*
X133072196Y-75286016D01*
X133447235Y-75469362D01*
X133454399Y-75473240D01*
X133779512Y-75666965D01*
X133812989Y-75686913D01*
X133819839Y-75691388D01*
X134159557Y-75933943D01*
X134166014Y-75938969D01*
X134484531Y-76208739D01*
X134490551Y-76214280D01*
X134785719Y-76509448D01*
X134791260Y-76515468D01*
X135061030Y-76833985D01*
X135066056Y-76840442D01*
X135308611Y-77180160D01*
X135313086Y-77187010D01*
X135526750Y-77545584D01*
X135530641Y-77552773D01*
X135685512Y-77869565D01*
X135713977Y-77927791D01*
X135717264Y-77935285D01*
X135869000Y-78324154D01*
X135871656Y-78331893D01*
X135990757Y-78731943D01*
X135992766Y-78739875D01*
X136078427Y-79148410D01*
X136079774Y-79156481D01*
X136131406Y-79570702D01*
X136132081Y-79578856D01*
X136149415Y-79997944D01*
X136149500Y-80002035D01*
X136149500Y-90630709D01*
X136130593Y-90688900D01*
X136081093Y-90724864D01*
X136019907Y-90724864D01*
X135995500Y-90713025D01*
X135954705Y-90685767D01*
X135760798Y-90605448D01*
X135760792Y-90605446D01*
X135554945Y-90564500D01*
X135554943Y-90564500D01*
X135045057Y-90564500D01*
X135045054Y-90564500D01*
X134839207Y-90605446D01*
X134839201Y-90605448D01*
X134645297Y-90685766D01*
X134470787Y-90802369D01*
X134322369Y-90950787D01*
X134218994Y-91105501D01*
X134170944Y-91143381D01*
X134136678Y-91149500D01*
X129078857Y-91149500D01*
X129037256Y-91160647D01*
X128989711Y-91173386D01*
X128927814Y-91209123D01*
X128867966Y-91221844D01*
X128812071Y-91196957D01*
X128790614Y-91162838D01*
X128788107Y-91163984D01*
X128738332Y-91054994D01*
X128725377Y-91026627D01*
X128631128Y-90917857D01*
X128631127Y-90917856D01*
X128631126Y-90917855D01*
X128510057Y-90840049D01*
X128510054Y-90840047D01*
X128510053Y-90840047D01*
X128510050Y-90840046D01*
X128371964Y-90799500D01*
X128371961Y-90799500D01*
X128228039Y-90799500D01*
X128228035Y-90799500D01*
X128089949Y-90840046D01*
X128089942Y-90840049D01*
X127968872Y-90917856D01*
X127964830Y-90921359D01*
X127908471Y-90945176D01*
X127848876Y-90931317D01*
X127835170Y-90921359D01*
X127831127Y-90917856D01*
X127710057Y-90840049D01*
X127710054Y-90840047D01*
X127710053Y-90840047D01*
X127710050Y-90840046D01*
X127571964Y-90799500D01*
X127571961Y-90799500D01*
X127428039Y-90799500D01*
X127428035Y-90799500D01*
X127289949Y-90840046D01*
X127289942Y-90840049D01*
X127168873Y-90917855D01*
X127074622Y-91026628D01*
X127014834Y-91157543D01*
X126994353Y-91299997D01*
X126994353Y-91300002D01*
X127014834Y-91442456D01*
X127046425Y-91511629D01*
X127074623Y-91573373D01*
X127098128Y-91600500D01*
X127131266Y-91638743D01*
X127155084Y-91695102D01*
X127141226Y-91754697D01*
X127126454Y-91773574D01*
X127122795Y-91777232D01*
X127122795Y-91777233D01*
X127122794Y-91777234D01*
X127122794Y-91777235D01*
X127108716Y-91809119D01*
X127077414Y-91880011D01*
X127074500Y-91905130D01*
X127074500Y-93344860D01*
X127074501Y-93344863D01*
X127077414Y-93369990D01*
X127099275Y-93419500D01*
X127122794Y-93472765D01*
X127202235Y-93552206D01*
X127305009Y-93597585D01*
X127330135Y-93600500D01*
X127619864Y-93600499D01*
X127644991Y-93597585D01*
X127747765Y-93552206D01*
X127747766Y-93552204D01*
X127756157Y-93548500D01*
X127757206Y-93550877D01*
X127802722Y-93537460D01*
X127842948Y-93550528D01*
X127843844Y-93548500D01*
X127852234Y-93552204D01*
X127852236Y-93552206D01*
X127955010Y-93597585D01*
X127980136Y-93600500D01*
X128269865Y-93600499D01*
X128294992Y-93597585D01*
X128397766Y-93552206D01*
X128397767Y-93552204D01*
X128406158Y-93548500D01*
X128407207Y-93550877D01*
X128452727Y-93537462D01*
X128492947Y-93550527D01*
X128493843Y-93548500D01*
X128502233Y-93552204D01*
X128502235Y-93552206D01*
X128605009Y-93597585D01*
X128630135Y-93600500D01*
X128919864Y-93600499D01*
X128944991Y-93597585D01*
X129014595Y-93566851D01*
X129075462Y-93560643D01*
X129128356Y-93591398D01*
X129140318Y-93607916D01*
X129140966Y-93609039D01*
X129144530Y-93615211D01*
X129670507Y-94141188D01*
X129698283Y-94195703D01*
X129699502Y-94211190D01*
X129699502Y-95103287D01*
X129680595Y-95161478D01*
X129675322Y-95168117D01*
X129624625Y-95226626D01*
X129564836Y-95357543D01*
X129544355Y-95499997D01*
X129544355Y-95500002D01*
X129564836Y-95642456D01*
X129590331Y-95698281D01*
X129624625Y-95773373D01*
X129682398Y-95840047D01*
X129723511Y-95887494D01*
X129721471Y-95889261D01*
X129746924Y-95931453D01*
X129749500Y-95953892D01*
X129749500Y-96820353D01*
X129730593Y-96878544D01*
X129720504Y-96890357D01*
X129184716Y-97426144D01*
X129154706Y-97446702D01*
X129143846Y-97451498D01*
X129142797Y-97449123D01*
X129097249Y-97462537D01*
X129057051Y-97449474D01*
X129056157Y-97451500D01*
X129047766Y-97447795D01*
X129047765Y-97447794D01*
X128944991Y-97402415D01*
X128944990Y-97402414D01*
X128944988Y-97402414D01*
X128919869Y-97399500D01*
X128919865Y-97399500D01*
X128777142Y-97399500D01*
X128718951Y-97380593D01*
X128682987Y-97331093D01*
X128679150Y-97314589D01*
X128660165Y-97182545D01*
X128600377Y-97051629D01*
X128506128Y-96942859D01*
X128506127Y-96942858D01*
X128506126Y-96942857D01*
X128385057Y-96865051D01*
X128385054Y-96865049D01*
X128385053Y-96865049D01*
X128385050Y-96865048D01*
X128246964Y-96824502D01*
X128246961Y-96824502D01*
X128103039Y-96824502D01*
X128103035Y-96824502D01*
X127964949Y-96865048D01*
X127964942Y-96865051D01*
X127843873Y-96942857D01*
X127749622Y-97051630D01*
X127689834Y-97182545D01*
X127669353Y-97324999D01*
X127669353Y-97325004D01*
X127689833Y-97467454D01*
X127689834Y-97467456D01*
X127726964Y-97548760D01*
X127733938Y-97609547D01*
X127727479Y-97629865D01*
X127727417Y-97630003D01*
X127727415Y-97630011D01*
X127724501Y-97655130D01*
X127724501Y-99094860D01*
X127724502Y-99094863D01*
X127727415Y-99119990D01*
X127736503Y-99140572D01*
X127766066Y-99207526D01*
X127774501Y-99247512D01*
X127774501Y-99584295D01*
X127755594Y-99642486D01*
X127706094Y-99678450D01*
X127644908Y-99678450D01*
X127606081Y-99650245D01*
X127604037Y-99652290D01*
X127598529Y-99646782D01*
X127598528Y-99646780D01*
X127503220Y-99551472D01*
X127503217Y-99551470D01*
X127383132Y-99490283D01*
X127383127Y-99490281D01*
X127383126Y-99490281D01*
X127349913Y-99485020D01*
X127283490Y-99474500D01*
X127283488Y-99474500D01*
X127224500Y-99474500D01*
X127166309Y-99455593D01*
X127130345Y-99406093D01*
X127125500Y-99375500D01*
X127125500Y-99315478D01*
X127144407Y-99257287D01*
X127154490Y-99245480D01*
X127177206Y-99222765D01*
X127222585Y-99119991D01*
X127225500Y-99094865D01*
X127225499Y-97655136D01*
X127222585Y-97630009D01*
X127177206Y-97527235D01*
X127097765Y-97447794D01*
X126994991Y-97402415D01*
X126994990Y-97402414D01*
X126994988Y-97402414D01*
X126969868Y-97399500D01*
X126680140Y-97399500D01*
X126680135Y-97399501D01*
X126655009Y-97402414D01*
X126584766Y-97433430D01*
X126552235Y-97447794D01*
X126552234Y-97447794D01*
X126543843Y-97451500D01*
X126542794Y-97449126D01*
X126497243Y-97462537D01*
X126457050Y-97449477D01*
X126456157Y-97451500D01*
X126447766Y-97447795D01*
X126447765Y-97447794D01*
X126344991Y-97402415D01*
X126344990Y-97402414D01*
X126344988Y-97402414D01*
X126319868Y-97399500D01*
X126030140Y-97399500D01*
X126030135Y-97399501D01*
X126005009Y-97402414D01*
X125934766Y-97433430D01*
X125902235Y-97447794D01*
X125902234Y-97447794D01*
X125893843Y-97451500D01*
X125892794Y-97449126D01*
X125847243Y-97462537D01*
X125807050Y-97449477D01*
X125806157Y-97451500D01*
X125797766Y-97447795D01*
X125797765Y-97447794D01*
X125694991Y-97402415D01*
X125694990Y-97402414D01*
X125694988Y-97402414D01*
X125669868Y-97399500D01*
X125380140Y-97399500D01*
X125380135Y-97399501D01*
X125355009Y-97402414D01*
X125284766Y-97433430D01*
X125252235Y-97447794D01*
X125252234Y-97447794D01*
X125243843Y-97451500D01*
X125242794Y-97449126D01*
X125197248Y-97462538D01*
X125157050Y-97449474D01*
X125156156Y-97451500D01*
X125147765Y-97447795D01*
X125147764Y-97447794D01*
X125044990Y-97402415D01*
X125044989Y-97402414D01*
X125044987Y-97402414D01*
X125019867Y-97399500D01*
X124730139Y-97399500D01*
X124730134Y-97399501D01*
X124705008Y-97402414D01*
X124634765Y-97433430D01*
X124602234Y-97447794D01*
X124602233Y-97447794D01*
X124593842Y-97451500D01*
X124592793Y-97449126D01*
X124547242Y-97462537D01*
X124507051Y-97449475D01*
X124506157Y-97451500D01*
X124497766Y-97447795D01*
X124497765Y-97447794D01*
X124394991Y-97402415D01*
X124394990Y-97402414D01*
X124394988Y-97402414D01*
X124369868Y-97399500D01*
X124080140Y-97399500D01*
X124080135Y-97399501D01*
X124055009Y-97402414D01*
X123984766Y-97433430D01*
X123952235Y-97447794D01*
X123952234Y-97447794D01*
X123943843Y-97451500D01*
X123942794Y-97449126D01*
X123897243Y-97462537D01*
X123857050Y-97449477D01*
X123856157Y-97451500D01*
X123847766Y-97447795D01*
X123847765Y-97447794D01*
X123744991Y-97402415D01*
X123744990Y-97402414D01*
X123744988Y-97402414D01*
X123719868Y-97399500D01*
X123430140Y-97399500D01*
X123430135Y-97399501D01*
X123405009Y-97402414D01*
X123334766Y-97433430D01*
X123302235Y-97447794D01*
X123302234Y-97447794D01*
X123293843Y-97451500D01*
X123292794Y-97449126D01*
X123247243Y-97462537D01*
X123207050Y-97449477D01*
X123206157Y-97451500D01*
X123197766Y-97447795D01*
X123197765Y-97447794D01*
X123094991Y-97402415D01*
X123094990Y-97402414D01*
X123094988Y-97402414D01*
X123069868Y-97399500D01*
X122780140Y-97399500D01*
X122780135Y-97399501D01*
X122755009Y-97402414D01*
X122684766Y-97433430D01*
X122652235Y-97447794D01*
X122652234Y-97447794D01*
X122643843Y-97451500D01*
X122642794Y-97449126D01*
X122597243Y-97462537D01*
X122557050Y-97449477D01*
X122556157Y-97451500D01*
X122547766Y-97447795D01*
X122547765Y-97447794D01*
X122444991Y-97402415D01*
X122444990Y-97402414D01*
X122444988Y-97402414D01*
X122419868Y-97399500D01*
X122130140Y-97399500D01*
X122130135Y-97399501D01*
X122105009Y-97402414D01*
X122002235Y-97447794D01*
X121922794Y-97527235D01*
X121877414Y-97630011D01*
X121874500Y-97655130D01*
X121874500Y-99094860D01*
X121874501Y-99094863D01*
X121877414Y-99119990D01*
X121920384Y-99217307D01*
X121926592Y-99278177D01*
X121895836Y-99331070D01*
X121851257Y-99351860D01*
X121851639Y-99353158D01*
X121794197Y-99370024D01*
X121733036Y-99368276D01*
X121684584Y-99330913D01*
X121667306Y-99275034D01*
X121667306Y-95003098D01*
X121676252Y-94961972D01*
X121685165Y-94942457D01*
X121685165Y-94942455D01*
X121685166Y-94942454D01*
X121705647Y-94800002D01*
X121705647Y-94799997D01*
X121685165Y-94657543D01*
X121678391Y-94642711D01*
X121625377Y-94526627D01*
X121531128Y-94417857D01*
X121531127Y-94417856D01*
X121531126Y-94417855D01*
X121410057Y-94340049D01*
X121410054Y-94340047D01*
X121410053Y-94340047D01*
X121410050Y-94340046D01*
X121271964Y-94299500D01*
X121271961Y-94299500D01*
X121128039Y-94299500D01*
X121128035Y-94299500D01*
X120989949Y-94340046D01*
X120989942Y-94340049D01*
X120878521Y-94411655D01*
X120819346Y-94427210D01*
X120771475Y-94411655D01*
X120660054Y-94340049D01*
X120660051Y-94340047D01*
X120660050Y-94340047D01*
X120660047Y-94340046D01*
X120521961Y-94299500D01*
X120521958Y-94299500D01*
X120378036Y-94299500D01*
X120378032Y-94299500D01*
X120239946Y-94340046D01*
X120239939Y-94340049D01*
X120118870Y-94417855D01*
X120024619Y-94526628D01*
X119964831Y-94657543D01*
X119944350Y-94799997D01*
X119944350Y-94800002D01*
X119964830Y-94942454D01*
X119969632Y-94952967D01*
X119973744Y-94961972D01*
X119982691Y-95003098D01*
X119982691Y-95125237D01*
X120012236Y-95235500D01*
X120014538Y-95244091D01*
X120028882Y-95268934D01*
X120034247Y-95278227D01*
X120035817Y-95280945D01*
X120049082Y-95330447D01*
X120049082Y-95719381D01*
X120030175Y-95777572D01*
X119980675Y-95813536D01*
X119922191Y-95814371D01*
X119871546Y-95799500D01*
X119871543Y-95799500D01*
X119727621Y-95799500D01*
X119727617Y-95799500D01*
X119589531Y-95840046D01*
X119589524Y-95840049D01*
X119468455Y-95917855D01*
X119374204Y-96026628D01*
X119314416Y-96157543D01*
X119293935Y-96299997D01*
X119293935Y-96300002D01*
X119314416Y-96442455D01*
X119329859Y-96476270D01*
X119336834Y-96537056D01*
X119309810Y-96587399D01*
X119065489Y-96831722D01*
X119065488Y-96831721D01*
X119009539Y-96887671D01*
X118969980Y-96956189D01*
X118969978Y-96956193D01*
X118949500Y-97032617D01*
X118949500Y-97147955D01*
X118949082Y-97154332D01*
X118949082Y-98319258D01*
X118930175Y-98377449D01*
X118880675Y-98413413D01*
X118822192Y-98414248D01*
X118771966Y-98399501D01*
X118771962Y-98399500D01*
X118771961Y-98399500D01*
X118628039Y-98399500D01*
X118628035Y-98399500D01*
X118489943Y-98440048D01*
X118488838Y-98440553D01*
X118486468Y-98441068D01*
X118483153Y-98442042D01*
X118483083Y-98441804D01*
X118447712Y-98449500D01*
X118127612Y-98449500D01*
X118069421Y-98430593D01*
X118057608Y-98420504D01*
X117934496Y-98297392D01*
X117906719Y-98242875D01*
X117905500Y-98227388D01*
X117905500Y-97116743D01*
X117905500Y-97116740D01*
X117895573Y-97048607D01*
X117887757Y-97032620D01*
X117844198Y-96943518D01*
X117844198Y-96943517D01*
X117761483Y-96860802D01*
X117754817Y-96857543D01*
X117656395Y-96809427D01*
X117629139Y-96805456D01*
X117588260Y-96799500D01*
X117221740Y-96799500D01*
X117153607Y-96809427D01*
X117153606Y-96809427D01*
X117153602Y-96809428D01*
X117142977Y-96814622D01*
X117082395Y-96823191D01*
X117028346Y-96794514D01*
X117001476Y-96739544D01*
X117000500Y-96725680D01*
X117000500Y-94274319D01*
X117019407Y-94216128D01*
X117068907Y-94180164D01*
X117130093Y-94180164D01*
X117142981Y-94185379D01*
X117152965Y-94190259D01*
X117153607Y-94190573D01*
X117221740Y-94200500D01*
X117221743Y-94200500D01*
X117588257Y-94200500D01*
X117588260Y-94200500D01*
X117656393Y-94190573D01*
X117761483Y-94139198D01*
X117844198Y-94056483D01*
X117895573Y-93951393D01*
X117905500Y-93883260D01*
X117905500Y-92166740D01*
X117895573Y-92098607D01*
X117878739Y-92064173D01*
X117847367Y-92000000D01*
X117844198Y-91993517D01*
X117761483Y-91910802D01*
X117749881Y-91905130D01*
X117656395Y-91859427D01*
X117628377Y-91855345D01*
X117588260Y-91849500D01*
X117221740Y-91849500D01*
X117187673Y-91854463D01*
X117153604Y-91859427D01*
X117048518Y-91910801D01*
X116965801Y-91993518D01*
X116914427Y-92098604D01*
X116911501Y-92118690D01*
X116904502Y-92166730D01*
X116904500Y-92166743D01*
X116904500Y-93130521D01*
X116885593Y-93188712D01*
X116836093Y-93224676D01*
X116774907Y-93224676D01*
X116735496Y-93200525D01*
X116664496Y-93129525D01*
X116636719Y-93075008D01*
X116635500Y-93059521D01*
X116635500Y-92166743D01*
X116635500Y-92166740D01*
X116625573Y-92098607D01*
X116608739Y-92064173D01*
X116577367Y-92000000D01*
X116574198Y-91993517D01*
X116491483Y-91910802D01*
X116479881Y-91905130D01*
X116386395Y-91859427D01*
X116358377Y-91855345D01*
X116318260Y-91849500D01*
X115951740Y-91849500D01*
X115917673Y-91854463D01*
X115883604Y-91859427D01*
X115778518Y-91910801D01*
X115695801Y-91993518D01*
X115644427Y-92098604D01*
X115641501Y-92118690D01*
X115634500Y-92166740D01*
X115634500Y-93883260D01*
X115641118Y-93928682D01*
X115644427Y-93951395D01*
X115682296Y-94028856D01*
X115695802Y-94056483D01*
X115778517Y-94139198D01*
X115782584Y-94141186D01*
X115883604Y-94190572D01*
X115883605Y-94190572D01*
X115883607Y-94190573D01*
X115951740Y-94200500D01*
X115951743Y-94200500D01*
X116300500Y-94200500D01*
X116358691Y-94219407D01*
X116394655Y-94268907D01*
X116399500Y-94299500D01*
X116399500Y-96700500D01*
X116380593Y-96758691D01*
X116331093Y-96794655D01*
X116300500Y-96799500D01*
X115951740Y-96799500D01*
X115917673Y-96804463D01*
X115883604Y-96809427D01*
X115778518Y-96860801D01*
X115695801Y-96943518D01*
X115644427Y-97048604D01*
X115634500Y-97116743D01*
X115634500Y-98787389D01*
X115615593Y-98845580D01*
X115605503Y-98857393D01*
X115531440Y-98931455D01*
X115476923Y-98959232D01*
X115416491Y-98949660D01*
X115373227Y-98906395D01*
X115363472Y-98847175D01*
X115365500Y-98833260D01*
X115365500Y-97116740D01*
X115355573Y-97048607D01*
X115347757Y-97032620D01*
X115304198Y-96943518D01*
X115304198Y-96943517D01*
X115221483Y-96860802D01*
X115214817Y-96857543D01*
X115116387Y-96809424D01*
X115115220Y-96809064D01*
X115113380Y-96807954D01*
X115109486Y-96806051D01*
X115109653Y-96805707D01*
X115074454Y-96784484D01*
X115049511Y-96759541D01*
X115049511Y-96759540D01*
X114799509Y-96509539D01*
X114782120Y-96499499D01*
X114782120Y-96499500D01*
X114730988Y-96469979D01*
X114730987Y-96469978D01*
X114730986Y-96469978D01*
X114654563Y-96449500D01*
X114654561Y-96449500D01*
X112088256Y-96449500D01*
X112088253Y-96449500D01*
X112011830Y-96469978D01*
X111960697Y-96499500D01*
X111960696Y-96499499D01*
X111943307Y-96509539D01*
X111689166Y-96763679D01*
X111634650Y-96791456D01*
X111574218Y-96781884D01*
X111530953Y-96738620D01*
X111529127Y-96734839D01*
X111525377Y-96726627D01*
X111471828Y-96664828D01*
X111448012Y-96608473D01*
X111461870Y-96548877D01*
X111471820Y-96535180D01*
X111525377Y-96473373D01*
X111585165Y-96342457D01*
X111591992Y-96294971D01*
X111605647Y-96200002D01*
X111605647Y-96200000D01*
X111602558Y-96178518D01*
X111612990Y-96118228D01*
X111630543Y-96094426D01*
X112790460Y-94934511D01*
X112798550Y-94920499D01*
X112830020Y-94865992D01*
X112830020Y-94865990D01*
X112830022Y-94865988D01*
X112850500Y-94789562D01*
X112850500Y-94710438D01*
X112850500Y-91210453D01*
X112869407Y-91152262D01*
X112879496Y-91140450D01*
X113012215Y-91007731D01*
X113146896Y-90873049D01*
X113201412Y-90845272D01*
X113261844Y-90854843D01*
X113305109Y-90898108D01*
X113314891Y-90957141D01*
X113294353Y-91099995D01*
X113294353Y-91100002D01*
X113314834Y-91242456D01*
X113353740Y-91327646D01*
X113374623Y-91373373D01*
X113464911Y-91477572D01*
X113468873Y-91482144D01*
X113559011Y-91540072D01*
X113589947Y-91559953D01*
X113696403Y-91591211D01*
X113728035Y-91600499D01*
X113728036Y-91600499D01*
X113728039Y-91600500D01*
X113728041Y-91600500D01*
X113834521Y-91600500D01*
X113892712Y-91619407D01*
X113904525Y-91629496D01*
X114339202Y-92064173D01*
X114366979Y-92118690D01*
X114367164Y-92148445D01*
X114364500Y-92166730D01*
X114364500Y-92166740D01*
X114364500Y-93883260D01*
X114371118Y-93928682D01*
X114374427Y-93951395D01*
X114412296Y-94028856D01*
X114425802Y-94056483D01*
X114508517Y-94139198D01*
X114512584Y-94141186D01*
X114613604Y-94190572D01*
X114613605Y-94190572D01*
X114613607Y-94190573D01*
X114681740Y-94200500D01*
X114681743Y-94200500D01*
X115048257Y-94200500D01*
X115048260Y-94200500D01*
X115116393Y-94190573D01*
X115221483Y-94139198D01*
X115304198Y-94056483D01*
X115355573Y-93951393D01*
X115365500Y-93883260D01*
X115365500Y-92166740D01*
X115355573Y-92098607D01*
X115338739Y-92064173D01*
X115307367Y-92000000D01*
X115304198Y-91993517D01*
X115221483Y-91910802D01*
X115209881Y-91905130D01*
X115116395Y-91859427D01*
X115088377Y-91855345D01*
X115048260Y-91849500D01*
X115048257Y-91849500D01*
X115015479Y-91849500D01*
X114957288Y-91830593D01*
X114945475Y-91820504D01*
X114330546Y-91205575D01*
X114302769Y-91151058D01*
X114302558Y-91121482D01*
X114304223Y-91109900D01*
X114331221Y-91054994D01*
X114385336Y-91026442D01*
X114427839Y-91028367D01*
X114434010Y-91030020D01*
X114434011Y-91030021D01*
X114510435Y-91050499D01*
X114510437Y-91050500D01*
X114510438Y-91050500D01*
X117356353Y-91050500D01*
X117409876Y-91066216D01*
X117439942Y-91085538D01*
X117439947Y-91085541D01*
X117522911Y-91109901D01*
X117578035Y-91126087D01*
X117578036Y-91126087D01*
X117578039Y-91126088D01*
X117578041Y-91126088D01*
X117721959Y-91126088D01*
X117721961Y-91126088D01*
X117860053Y-91085541D01*
X117981128Y-91007731D01*
X118075377Y-90898961D01*
X118135165Y-90768045D01*
X118137077Y-90754745D01*
X118144791Y-90701098D01*
X118171787Y-90646190D01*
X118225901Y-90617637D01*
X118242783Y-90616187D01*
X118271959Y-90616187D01*
X118271961Y-90616187D01*
X118410053Y-90575640D01*
X118531128Y-90497830D01*
X118609841Y-90406989D01*
X118662236Y-90375394D01*
X118723197Y-90380630D01*
X118754664Y-90401817D01*
X119220503Y-90867656D01*
X119248280Y-90922173D01*
X119249499Y-90937660D01*
X119249499Y-91419381D01*
X119230592Y-91477572D01*
X119181092Y-91513536D01*
X119122608Y-91514371D01*
X119071963Y-91499500D01*
X119071960Y-91499500D01*
X118928038Y-91499500D01*
X118928034Y-91499500D01*
X118789948Y-91540046D01*
X118789941Y-91540049D01*
X118668872Y-91617855D01*
X118574621Y-91726628D01*
X118514833Y-91857543D01*
X118494352Y-91999997D01*
X118494352Y-92000002D01*
X118514833Y-92142456D01*
X118543377Y-92204957D01*
X118574622Y-92273373D01*
X118644939Y-92354524D01*
X118668872Y-92382144D01*
X118786196Y-92457543D01*
X118789946Y-92459953D01*
X118863956Y-92481684D01*
X118928034Y-92500499D01*
X118928035Y-92500499D01*
X118928038Y-92500500D01*
X118928040Y-92500500D01*
X119071958Y-92500500D01*
X119071960Y-92500500D01*
X119141991Y-92479937D01*
X119203149Y-92481684D01*
X119251602Y-92519047D01*
X119265506Y-92549301D01*
X119266108Y-92551544D01*
X119269978Y-92565989D01*
X119274738Y-92574233D01*
X119283585Y-92589556D01*
X119309539Y-92634510D01*
X120415489Y-93740460D01*
X120415491Y-93740461D01*
X120415493Y-93740463D01*
X120484008Y-93780020D01*
X120484006Y-93780020D01*
X120484010Y-93780021D01*
X120484012Y-93780022D01*
X120560438Y-93800500D01*
X120639562Y-93800500D01*
X120752917Y-93800500D01*
X120811108Y-93819407D01*
X120827733Y-93834667D01*
X120868872Y-93882143D01*
X120989947Y-93959953D01*
X121096403Y-93991211D01*
X121128035Y-94000499D01*
X121128036Y-94000499D01*
X121128039Y-94000500D01*
X121128041Y-94000500D01*
X121271959Y-94000500D01*
X121271961Y-94000500D01*
X121410053Y-93959953D01*
X121531128Y-93882143D01*
X121589644Y-93814611D01*
X121642039Y-93783015D01*
X121703000Y-93788250D01*
X121734467Y-93809438D01*
X121759540Y-93834511D01*
X121759539Y-93834511D01*
X121815489Y-93890460D01*
X121884007Y-93930019D01*
X121884011Y-93930021D01*
X121960435Y-93950499D01*
X121960437Y-93950500D01*
X121960438Y-93950500D01*
X122714562Y-93950500D01*
X122714562Y-93950499D01*
X122790988Y-93930021D01*
X122859510Y-93890460D01*
X122890768Y-93859202D01*
X122915460Y-93834511D01*
X123089895Y-93660075D01*
X123165460Y-93584510D01*
X123165463Y-93584503D01*
X123169410Y-93579362D01*
X123170425Y-93580141D01*
X123193728Y-93554971D01*
X123197760Y-93552207D01*
X123197765Y-93552206D01*
X123277206Y-93472765D01*
X123322585Y-93369991D01*
X123325500Y-93344865D01*
X123325499Y-91905136D01*
X123322585Y-91880009D01*
X123277206Y-91777235D01*
X123197765Y-91697794D01*
X123094991Y-91652415D01*
X123094990Y-91652414D01*
X123094989Y-91652414D01*
X123083627Y-91651096D01*
X123028004Y-91625605D01*
X122997987Y-91572289D01*
X123004988Y-91511629D01*
X123035161Y-91445561D01*
X123045540Y-91373371D01*
X123055643Y-91303106D01*
X123055643Y-91303101D01*
X123035161Y-91160647D01*
X122975009Y-91028934D01*
X122968034Y-90968147D01*
X122998120Y-90914870D01*
X123007559Y-90908352D01*
X123007036Y-90907632D01*
X123013337Y-90903053D01*
X123013337Y-90903052D01*
X123013342Y-90903050D01*
X123103050Y-90813342D01*
X123160646Y-90700304D01*
X123175500Y-90606519D01*
X123175499Y-89993482D01*
X123174945Y-89989983D01*
X123184519Y-89929552D01*
X123227785Y-89886289D01*
X123272727Y-89875500D01*
X123334521Y-89875500D01*
X123392712Y-89894407D01*
X123404525Y-89904496D01*
X123595504Y-90095475D01*
X123623281Y-90149992D01*
X123624500Y-90165479D01*
X123624500Y-90606520D01*
X123624501Y-90606523D01*
X123639352Y-90700299D01*
X123639354Y-90700304D01*
X123696950Y-90813342D01*
X123786658Y-90903050D01*
X123870446Y-90945742D01*
X123913710Y-90989006D01*
X123924500Y-91033951D01*
X123924500Y-91684521D01*
X123905593Y-91742712D01*
X123895505Y-91754523D01*
X123872795Y-91777233D01*
X123872794Y-91777234D01*
X123872794Y-91777235D01*
X123858716Y-91809119D01*
X123827414Y-91880011D01*
X123824500Y-91905130D01*
X123824500Y-93344860D01*
X123824501Y-93344863D01*
X123827414Y-93369990D01*
X123849275Y-93419500D01*
X123872794Y-93472765D01*
X123952235Y-93552206D01*
X124055009Y-93597585D01*
X124080135Y-93600500D01*
X124369864Y-93600499D01*
X124394991Y-93597585D01*
X124497765Y-93552206D01*
X124497766Y-93552204D01*
X124506157Y-93548500D01*
X124507206Y-93550877D01*
X124552726Y-93537462D01*
X124592946Y-93550527D01*
X124593842Y-93548500D01*
X124602232Y-93552204D01*
X124602234Y-93552206D01*
X124705008Y-93597585D01*
X124730134Y-93600500D01*
X125019863Y-93600499D01*
X125044990Y-93597585D01*
X125147764Y-93552206D01*
X125147765Y-93552204D01*
X125156156Y-93548500D01*
X125157205Y-93550877D01*
X125202721Y-93537460D01*
X125242947Y-93550528D01*
X125243843Y-93548500D01*
X125252233Y-93552204D01*
X125252235Y-93552206D01*
X125355009Y-93597585D01*
X125380135Y-93600500D01*
X125669864Y-93600499D01*
X125694991Y-93597585D01*
X125797765Y-93552206D01*
X125797766Y-93552204D01*
X125806157Y-93548500D01*
X125807205Y-93550875D01*
X125852739Y-93537462D01*
X125892948Y-93550526D01*
X125893843Y-93548500D01*
X125902233Y-93552204D01*
X125902235Y-93552206D01*
X126005009Y-93597585D01*
X126030135Y-93600500D01*
X126319864Y-93600499D01*
X126344991Y-93597585D01*
X126447765Y-93552206D01*
X126527206Y-93472765D01*
X126572585Y-93369991D01*
X126575500Y-93344865D01*
X126575499Y-91905136D01*
X126572585Y-91880009D01*
X126567904Y-91869407D01*
X126558941Y-91849106D01*
X126550506Y-91809119D01*
X126550506Y-90360443D01*
X126550505Y-90360441D01*
X126548301Y-90352217D01*
X126530027Y-90284017D01*
X126490466Y-90215495D01*
X126474968Y-90199997D01*
X126434517Y-90159545D01*
X126434517Y-90159546D01*
X126230546Y-89955575D01*
X126202769Y-89901058D01*
X126202558Y-89871482D01*
X126205647Y-89850000D01*
X126204507Y-89842073D01*
X126185165Y-89707543D01*
X126154024Y-89639354D01*
X126125377Y-89576627D01*
X126031128Y-89467857D01*
X126031127Y-89467856D01*
X126031126Y-89467855D01*
X125910057Y-89390049D01*
X125910054Y-89390047D01*
X125910053Y-89390047D01*
X125910050Y-89390046D01*
X125771964Y-89349500D01*
X125771961Y-89349500D01*
X125628039Y-89349500D01*
X125628035Y-89349500D01*
X125489949Y-89390046D01*
X125489942Y-89390049D01*
X125368873Y-89467855D01*
X125274622Y-89576628D01*
X125214834Y-89707543D01*
X125194353Y-89849997D01*
X125194353Y-89850002D01*
X125214834Y-89992456D01*
X125244559Y-90057543D01*
X125274623Y-90123373D01*
X125311243Y-90165635D01*
X125368873Y-90232144D01*
X125469712Y-90296949D01*
X125489947Y-90309953D01*
X125580056Y-90336411D01*
X125628035Y-90350499D01*
X125628036Y-90350499D01*
X125628039Y-90350500D01*
X125628041Y-90350500D01*
X125734521Y-90350500D01*
X125792712Y-90369407D01*
X125804525Y-90379496D01*
X125920510Y-90495481D01*
X125948287Y-90549998D01*
X125949506Y-90565485D01*
X125949506Y-90719381D01*
X125930599Y-90777572D01*
X125881099Y-90813536D01*
X125822615Y-90814371D01*
X125771970Y-90799500D01*
X125771967Y-90799500D01*
X125628045Y-90799500D01*
X125628041Y-90799500D01*
X125489955Y-90840046D01*
X125489948Y-90840049D01*
X125378527Y-90911655D01*
X125319352Y-90927210D01*
X125271481Y-90911655D01*
X125160060Y-90840049D01*
X125160057Y-90840047D01*
X125160056Y-90840047D01*
X125160053Y-90840046D01*
X125021967Y-90799500D01*
X125021964Y-90799500D01*
X124910849Y-90799500D01*
X124852658Y-90780593D01*
X124816694Y-90731093D01*
X124813068Y-90685013D01*
X124819217Y-90646190D01*
X124825500Y-90606519D01*
X124825499Y-89993482D01*
X124819496Y-89955575D01*
X124810647Y-89899700D01*
X124810646Y-89899698D01*
X124810646Y-89899696D01*
X124753050Y-89786658D01*
X124663342Y-89696950D01*
X124550304Y-89639354D01*
X124550305Y-89639354D01*
X124456522Y-89624500D01*
X124015479Y-89624500D01*
X123957288Y-89605593D01*
X123945476Y-89595504D01*
X123684514Y-89334543D01*
X123684511Y-89334540D01*
X123683600Y-89334014D01*
X123683592Y-89334005D01*
X123683591Y-89334009D01*
X123615989Y-89294979D01*
X123615988Y-89294978D01*
X123615987Y-89294978D01*
X123539564Y-89274500D01*
X123539562Y-89274500D01*
X122143500Y-89274500D01*
X122143497Y-89274500D01*
X122067074Y-89294978D01*
X121999471Y-89334009D01*
X121999464Y-89334012D01*
X121998560Y-89334533D01*
X121998547Y-89334543D01*
X121559540Y-89773550D01*
X121546273Y-89796530D01*
X121500803Y-89837471D01*
X121439952Y-89843865D01*
X121390533Y-89817032D01*
X121025947Y-89452445D01*
X120998170Y-89397929D01*
X120997984Y-89396705D01*
X120985165Y-89307541D01*
X120925377Y-89176625D01*
X120831128Y-89067855D01*
X120831127Y-89067854D01*
X120831126Y-89067853D01*
X120710057Y-88990047D01*
X120710054Y-88990045D01*
X120710053Y-88990045D01*
X120710050Y-88990044D01*
X120571964Y-88949498D01*
X120571961Y-88949498D01*
X120428039Y-88949498D01*
X120428035Y-88949498D01*
X120289949Y-88990044D01*
X120289942Y-88990047D01*
X120168873Y-89067853D01*
X120074622Y-89176626D01*
X120014834Y-89307541D01*
X119994353Y-89449995D01*
X119994353Y-89450000D01*
X120014834Y-89592454D01*
X120074623Y-89723371D01*
X120106506Y-89760167D01*
X120130323Y-89816526D01*
X120116464Y-89876121D01*
X120106507Y-89889826D01*
X120074620Y-89926626D01*
X120074618Y-89926630D01*
X120014831Y-90057543D01*
X119994350Y-90199997D01*
X119994350Y-90200002D01*
X120014831Y-90342456D01*
X120063717Y-90449500D01*
X120074620Y-90473373D01*
X120153581Y-90564500D01*
X120173506Y-90587494D01*
X120171468Y-90589259D01*
X120196922Y-90631458D01*
X120199497Y-90653893D01*
X120199497Y-91539561D01*
X120219975Y-91615985D01*
X120226853Y-91627897D01*
X120246830Y-91662499D01*
X120246831Y-91662501D01*
X120246832Y-91662501D01*
X120258171Y-91682143D01*
X120259537Y-91684508D01*
X121420505Y-92845476D01*
X121448281Y-92899991D01*
X121449500Y-92915478D01*
X121449500Y-92919381D01*
X121430593Y-92977572D01*
X121381093Y-93013536D01*
X121322609Y-93014371D01*
X121271964Y-92999500D01*
X121271961Y-92999500D01*
X121128039Y-92999500D01*
X121128035Y-92999500D01*
X120989949Y-93040046D01*
X120989942Y-93040049D01*
X120868876Y-93117854D01*
X120868870Y-93117859D01*
X120833566Y-93158601D01*
X120781170Y-93190197D01*
X120720209Y-93184960D01*
X120688744Y-93163773D01*
X119879495Y-92354524D01*
X119851718Y-92300007D01*
X119850499Y-92284520D01*
X119850499Y-90732618D01*
X119850498Y-90732616D01*
X119837944Y-90685766D01*
X119830020Y-90656192D01*
X119824245Y-90646190D01*
X119790459Y-90587670D01*
X119734510Y-90531720D01*
X119734510Y-90531721D01*
X119179496Y-89976707D01*
X119151719Y-89922190D01*
X119150500Y-89906703D01*
X119150500Y-81812644D01*
X119150499Y-81812642D01*
X119130021Y-81736218D01*
X119130019Y-81736214D01*
X119090460Y-81667696D01*
X119034511Y-81611746D01*
X119034511Y-81611747D01*
X116829495Y-79406731D01*
X116801718Y-79352214D01*
X116800499Y-79336727D01*
X116800499Y-76738853D01*
X116819406Y-76680662D01*
X116859233Y-76648412D01*
X116940149Y-76612386D01*
X116940149Y-76612385D01*
X116940160Y-76612381D01*
X117089049Y-76504207D01*
X117212194Y-76367440D01*
X117302290Y-76211390D01*
X117304208Y-76208068D01*
X117304208Y-76208066D01*
X117304213Y-76208059D01*
X117361084Y-76033029D01*
X117380321Y-75850000D01*
X117361084Y-75666971D01*
X117304213Y-75491941D01*
X117304210Y-75491936D01*
X117304208Y-75491931D01*
X117256934Y-75410052D01*
X117212194Y-75332560D01*
X117089049Y-75195793D01*
X116940160Y-75087619D01*
X116940156Y-75087617D01*
X116940153Y-75087615D01*
X116855015Y-75049710D01*
X116833072Y-75039940D01*
X116787604Y-74999000D01*
X116774882Y-74939152D01*
X116799768Y-74883256D01*
X116852756Y-74852663D01*
X116873340Y-74850500D01*
X117623400Y-74850500D01*
X117681591Y-74869407D01*
G37*
%TD.AperFunction*%
%TA.AperFunction,Conductor*%
G36*
X130283691Y-91869407D02*
G01*
X130319655Y-91918907D01*
X130324500Y-91949500D01*
X130324500Y-93344860D01*
X130324501Y-93344863D01*
X130327414Y-93369990D01*
X130349275Y-93419500D01*
X130372794Y-93472765D01*
X130452235Y-93552206D01*
X130555009Y-93597585D01*
X130580135Y-93600500D01*
X130869864Y-93600499D01*
X130894991Y-93597585D01*
X130997765Y-93552206D01*
X131077206Y-93472765D01*
X131122585Y-93369991D01*
X131125500Y-93344865D01*
X131125500Y-93074500D01*
X131144407Y-93016309D01*
X131193907Y-92980345D01*
X131224500Y-92975500D01*
X133568809Y-92975500D01*
X133627000Y-92994407D01*
X133638813Y-93004496D01*
X134186538Y-93552221D01*
X134214315Y-93606738D01*
X134205867Y-93660075D01*
X134207628Y-93660805D01*
X134125448Y-93859202D01*
X134125446Y-93859208D01*
X134084500Y-94065055D01*
X134084500Y-94066220D01*
X134084336Y-94066724D01*
X134084024Y-94069894D01*
X134083328Y-94069825D01*
X134065593Y-94124411D01*
X134016093Y-94160375D01*
X133954907Y-94160375D01*
X133905407Y-94124411D01*
X133888402Y-94085535D01*
X133882623Y-94056481D01*
X133861658Y-93951087D01*
X133805084Y-93814505D01*
X133722951Y-93691584D01*
X133618416Y-93587049D01*
X133495495Y-93504916D01*
X133483557Y-93499971D01*
X133358914Y-93448342D01*
X133213918Y-93419500D01*
X133066082Y-93419500D01*
X133066081Y-93419500D01*
X132921085Y-93448342D01*
X132784506Y-93504915D01*
X132661585Y-93587048D01*
X132557048Y-93691585D01*
X132474915Y-93814506D01*
X132418342Y-93951085D01*
X132389500Y-94096081D01*
X132389500Y-94243918D01*
X132408621Y-94340046D01*
X132418342Y-94388913D01*
X132474916Y-94525495D01*
X132557049Y-94648416D01*
X132661584Y-94752951D01*
X132784505Y-94835084D01*
X132921087Y-94891658D01*
X133066082Y-94920500D01*
X133066083Y-94920500D01*
X133213917Y-94920500D01*
X133213918Y-94920500D01*
X133358913Y-94891658D01*
X133495495Y-94835084D01*
X133618416Y-94752951D01*
X133722951Y-94648416D01*
X133805084Y-94525495D01*
X133861658Y-94388913D01*
X133888402Y-94254464D01*
X133918299Y-94201081D01*
X133973864Y-94175465D01*
X134033874Y-94187402D01*
X134075406Y-94232332D01*
X134083701Y-94270139D01*
X134084024Y-94270108D01*
X134084292Y-94272831D01*
X134084500Y-94273779D01*
X134084500Y-94274946D01*
X134125446Y-94480793D01*
X134125448Y-94480799D01*
X134205766Y-94674703D01*
X134322369Y-94849213D01*
X134322372Y-94849217D01*
X134470784Y-94997629D01*
X134645297Y-95114234D01*
X134839205Y-95194554D01*
X135045057Y-95235501D01*
X135045058Y-95235501D01*
X135554942Y-95235501D01*
X135554943Y-95235501D01*
X135760795Y-95194554D01*
X135954703Y-95114234D01*
X135995499Y-95086974D01*
X136054387Y-95070367D01*
X136111790Y-95091545D01*
X136145783Y-95142419D01*
X136149500Y-95169291D01*
X136149500Y-95710709D01*
X136130593Y-95768900D01*
X136081093Y-95804864D01*
X136019907Y-95804864D01*
X135995500Y-95793025D01*
X135954705Y-95765767D01*
X135760798Y-95685448D01*
X135760792Y-95685446D01*
X135554945Y-95644500D01*
X135554943Y-95644500D01*
X135045057Y-95644500D01*
X135045054Y-95644500D01*
X134839207Y-95685446D01*
X134839201Y-95685448D01*
X134645297Y-95765766D01*
X134470787Y-95882369D01*
X134322369Y-96030787D01*
X134205766Y-96205297D01*
X134125448Y-96399201D01*
X134125446Y-96399207D01*
X134084500Y-96605054D01*
X134084500Y-96814945D01*
X134125446Y-97020792D01*
X134125448Y-97020798D01*
X134205010Y-97212876D01*
X134209811Y-97273873D01*
X134183550Y-97320765D01*
X133508814Y-97995503D01*
X133454297Y-98023281D01*
X133438810Y-98024500D01*
X131224499Y-98024500D01*
X131166308Y-98005593D01*
X131130344Y-97956093D01*
X131125499Y-97925500D01*
X131125499Y-97655139D01*
X131125499Y-97655136D01*
X131122585Y-97630009D01*
X131077206Y-97527235D01*
X130997765Y-97447794D01*
X130894991Y-97402415D01*
X130894990Y-97402414D01*
X130894988Y-97402414D01*
X130869868Y-97399500D01*
X130580140Y-97399500D01*
X130580135Y-97399501D01*
X130555009Y-97402414D01*
X130452235Y-97447794D01*
X130372794Y-97527235D01*
X130327414Y-97630011D01*
X130324500Y-97655130D01*
X130324500Y-97655132D01*
X130324500Y-97655135D01*
X130324500Y-98338516D01*
X130324501Y-99000500D01*
X130305594Y-99058691D01*
X130256094Y-99094655D01*
X130225501Y-99099500D01*
X129924500Y-99099500D01*
X129866309Y-99080593D01*
X129830345Y-99031093D01*
X129825500Y-99000500D01*
X129825499Y-97817733D01*
X129844406Y-97759542D01*
X129854488Y-97747736D01*
X130380470Y-97221756D01*
X130426614Y-97141832D01*
X130426964Y-97140521D01*
X130426983Y-97140493D01*
X130426973Y-97140491D01*
X130450500Y-97052687D01*
X130450500Y-95839009D01*
X130469407Y-95780818D01*
X130474678Y-95774181D01*
X130475379Y-95773373D01*
X130535167Y-95642457D01*
X130555649Y-95500000D01*
X130535167Y-95357543D01*
X130475379Y-95226627D01*
X130475378Y-95226625D01*
X130474676Y-95225815D01*
X130474327Y-95224991D01*
X130471551Y-95220670D01*
X130472299Y-95220189D01*
X130450863Y-95169454D01*
X130450500Y-95160989D01*
X130450500Y-94028856D01*
X130442902Y-94000499D01*
X130426614Y-93939711D01*
X130421019Y-93930021D01*
X130380470Y-93859787D01*
X129854495Y-93333812D01*
X129826718Y-93279295D01*
X129825499Y-93263808D01*
X129825499Y-91949500D01*
X129844406Y-91891309D01*
X129893906Y-91855345D01*
X129924499Y-91850500D01*
X130225500Y-91850500D01*
X130283691Y-91869407D01*
G37*
%TD.AperFunction*%
%TA.AperFunction,Conductor*%
G36*
X117511108Y-87219407D02*
G01*
X117527733Y-87234667D01*
X117568872Y-87282143D01*
X117689947Y-87359953D01*
X117796403Y-87391211D01*
X117828035Y-87400499D01*
X117828036Y-87400499D01*
X117828039Y-87400500D01*
X117828041Y-87400500D01*
X117971959Y-87400500D01*
X117971961Y-87400500D01*
X118072610Y-87370947D01*
X118133769Y-87372694D01*
X118182222Y-87410057D01*
X118199500Y-87465937D01*
X118199500Y-88882782D01*
X118180593Y-88940973D01*
X118131093Y-88976937D01*
X118069907Y-88976937D01*
X118046978Y-88966067D01*
X118016466Y-88946458D01*
X118016460Y-88946456D01*
X117878374Y-88905910D01*
X117878371Y-88905910D01*
X117734449Y-88905910D01*
X117734445Y-88905910D01*
X117596359Y-88946456D01*
X117596352Y-88946459D01*
X117475282Y-89024266D01*
X117475280Y-89024268D01*
X117439699Y-89065331D01*
X117387303Y-89096927D01*
X117364880Y-89099500D01*
X116647083Y-89099500D01*
X116588892Y-89080593D01*
X116572264Y-89065331D01*
X116531128Y-89017857D01*
X116450541Y-88966067D01*
X116410057Y-88940049D01*
X116410054Y-88940047D01*
X116410053Y-88940047D01*
X116410050Y-88940046D01*
X116271964Y-88899500D01*
X116271961Y-88899500D01*
X116128039Y-88899500D01*
X116128035Y-88899500D01*
X115989949Y-88940046D01*
X115989942Y-88940049D01*
X115868873Y-89017855D01*
X115774622Y-89126628D01*
X115714834Y-89257543D01*
X115697492Y-89378164D01*
X115687782Y-89397911D01*
X115697492Y-89421835D01*
X115714834Y-89542456D01*
X115759087Y-89639354D01*
X115774623Y-89673373D01*
X115827736Y-89734669D01*
X115868873Y-89782144D01*
X115974463Y-89850002D01*
X115989947Y-89859953D01*
X116091686Y-89889826D01*
X116128035Y-89900499D01*
X116128036Y-89900499D01*
X116128039Y-89900500D01*
X116128041Y-89900500D01*
X116271959Y-89900500D01*
X116271961Y-89900500D01*
X116410053Y-89859953D01*
X116531128Y-89782143D01*
X116572264Y-89734668D01*
X116624660Y-89703073D01*
X116647083Y-89700500D01*
X117353773Y-89700500D01*
X117411964Y-89719407D01*
X117428589Y-89734666D01*
X117475282Y-89788553D01*
X117520880Y-89817857D01*
X117570892Y-89849998D01*
X117596357Y-89866363D01*
X117642468Y-89879902D01*
X117692975Y-89914437D01*
X117713537Y-89972064D01*
X117712570Y-89988980D01*
X117705210Y-90040176D01*
X117678214Y-90095084D01*
X117624100Y-90123638D01*
X117607217Y-90125088D01*
X117578035Y-90125088D01*
X117439949Y-90165634D01*
X117439942Y-90165637D01*
X117318873Y-90243443D01*
X117224621Y-90352217D01*
X117206624Y-90391626D01*
X117165252Y-90436704D01*
X117116571Y-90449500D01*
X115784027Y-90449500D01*
X115725836Y-90430593D01*
X115689872Y-90381093D01*
X115686035Y-90336411D01*
X115705647Y-90200002D01*
X115705647Y-90199997D01*
X115685165Y-90057543D01*
X115655909Y-89993482D01*
X115625377Y-89926627D01*
X115531128Y-89817857D01*
X115531127Y-89817856D01*
X115526491Y-89812506D01*
X115528524Y-89810743D01*
X115503067Y-89768505D01*
X115500500Y-89746105D01*
X115500500Y-89435924D01*
X115510597Y-89404847D01*
X115500500Y-89364075D01*
X115500500Y-87965479D01*
X115519407Y-87907288D01*
X115529496Y-87895475D01*
X116195475Y-87229496D01*
X116249992Y-87201719D01*
X116265479Y-87200500D01*
X117452917Y-87200500D01*
X117511108Y-87219407D01*
G37*
%TD.AperFunction*%
%TA.AperFunction,Conductor*%
G36*
X118151621Y-84168247D02*
G01*
X118191690Y-84214486D01*
X118199500Y-84253027D01*
X118199500Y-85034062D01*
X118180593Y-85092253D01*
X118131093Y-85128217D01*
X118072609Y-85129052D01*
X117971964Y-85099500D01*
X117971961Y-85099500D01*
X117828039Y-85099500D01*
X117828035Y-85099500D01*
X117689949Y-85140046D01*
X117689942Y-85140049D01*
X117568873Y-85217855D01*
X117474622Y-85326628D01*
X117414834Y-85457543D01*
X117394353Y-85599997D01*
X117394353Y-85600002D01*
X117414834Y-85742456D01*
X117449052Y-85817382D01*
X117474623Y-85873373D01*
X117530189Y-85937500D01*
X117568873Y-85982144D01*
X117689942Y-86059950D01*
X117689947Y-86059953D01*
X117796403Y-86091211D01*
X117828035Y-86100499D01*
X117828036Y-86100499D01*
X117828039Y-86100500D01*
X117828041Y-86100500D01*
X117971959Y-86100500D01*
X117971961Y-86100500D01*
X118072610Y-86070947D01*
X118133769Y-86072694D01*
X118182222Y-86110057D01*
X118199500Y-86165937D01*
X118199500Y-86334062D01*
X118180593Y-86392253D01*
X118131093Y-86428217D01*
X118072609Y-86429052D01*
X117971964Y-86399500D01*
X117971961Y-86399500D01*
X117828039Y-86399500D01*
X117828035Y-86399500D01*
X117689949Y-86440046D01*
X117689942Y-86440049D01*
X117568876Y-86517854D01*
X117568871Y-86517858D01*
X117527736Y-86565331D01*
X117475340Y-86596927D01*
X117452917Y-86599500D01*
X116060435Y-86599500D01*
X115984014Y-86619977D01*
X115984010Y-86619979D01*
X115916612Y-86658891D01*
X115915492Y-86659537D01*
X115069504Y-87505525D01*
X115014987Y-87533302D01*
X114954555Y-87523731D01*
X114911290Y-87480466D01*
X114900500Y-87435521D01*
X114900500Y-86765478D01*
X114919407Y-86707287D01*
X114929490Y-86695480D01*
X117357483Y-84267486D01*
X117411998Y-84239711D01*
X117472430Y-84249282D01*
X117480994Y-84254199D01*
X117489947Y-84259953D01*
X117596403Y-84291211D01*
X117628035Y-84300499D01*
X117628036Y-84300499D01*
X117628039Y-84300500D01*
X117628041Y-84300500D01*
X117771959Y-84300500D01*
X117771961Y-84300500D01*
X117910053Y-84259953D01*
X118031128Y-84182143D01*
X118031133Y-84182137D01*
X118035666Y-84178210D01*
X118092025Y-84154390D01*
X118151621Y-84168247D01*
G37*
%TD.AperFunction*%
%TD*%
D37*
X95500000Y-105500000D03*
X127700000Y-104800000D03*
X110500000Y-80500000D03*
X113100000Y-93100000D03*
X135500000Y-105500000D03*
X120499999Y-85500000D03*
X128700000Y-104800000D03*
X125500000Y-75500000D03*
X126900000Y-103000000D03*
X100500000Y-85500000D03*
X105500000Y-80500000D03*
X113100000Y-89400000D03*
X113500000Y-80600000D03*
X130500000Y-75500000D03*
X100500000Y-75500000D03*
X118300000Y-107700000D03*
X115500000Y-110500000D03*
X95500000Y-80500000D03*
X135500000Y-80500000D03*
X126200000Y-104800000D03*
X95500000Y-110500000D03*
X95500000Y-85500000D03*
X110900000Y-78100000D03*
X113500000Y-81700000D03*
X130500000Y-115500000D03*
X97400002Y-102208949D03*
X105500000Y-110500000D03*
X117400000Y-79500000D03*
X100500000Y-90500000D03*
X112700000Y-100013786D03*
X113500000Y-82800000D03*
X123500000Y-103000000D03*
X125500000Y-85500000D03*
X120500000Y-75500000D03*
X105425000Y-96200000D03*
X120500000Y-115500000D03*
X113500000Y-79500000D03*
X116500000Y-87800000D03*
X121500000Y-111300000D03*
X114675000Y-81700000D03*
X108525000Y-92600000D03*
X123000000Y-101000000D03*
X95500000Y-90500000D03*
X129700000Y-104800000D03*
X124700000Y-107700000D03*
X106975000Y-92000000D03*
X120100000Y-78100000D03*
X117900000Y-96500000D03*
X130800000Y-105600000D03*
X105500000Y-85500000D03*
X125500000Y-80500000D03*
X120383246Y-92225000D03*
X130500000Y-90500000D03*
X100500000Y-115500000D03*
X114700000Y-85500000D03*
X131700000Y-104800000D03*
X110500000Y-75500000D03*
X113100000Y-97900000D03*
X115500000Y-105500000D03*
X108525000Y-91000000D03*
X110500000Y-100500000D03*
X114675000Y-80600000D03*
X105500000Y-100500000D03*
X110500000Y-85500000D03*
X100500000Y-105500000D03*
X116500000Y-85500000D03*
X117900000Y-94500000D03*
X100500000Y-100500000D03*
X125500000Y-115500000D03*
X110500000Y-105500000D03*
X135500000Y-85500000D03*
X130710387Y-97150001D03*
X109175000Y-97100000D03*
X130500000Y-85500000D03*
X118900000Y-101325000D03*
X122000000Y-102000000D03*
X130736262Y-93849999D03*
X114675000Y-82800000D03*
X95500000Y-100500000D03*
X117400000Y-82800000D03*
X117400000Y-81725000D03*
X105500000Y-75500000D03*
X125500000Y-103000000D03*
X109500000Y-113700000D03*
X95500000Y-95500000D03*
X105500000Y-105500000D03*
X111500000Y-112500000D03*
X120500000Y-80500000D03*
X135500000Y-110500000D03*
X121500000Y-112050003D03*
X124000000Y-103900000D03*
X120449997Y-94800000D03*
X111100000Y-97000000D03*
X125700000Y-89850000D03*
X121200000Y-94800000D03*
X122300000Y-109700000D03*
X120700000Y-109700000D03*
X112500000Y-84700000D03*
X111100000Y-96200000D03*
X97400002Y-103808871D03*
X119799582Y-96300000D03*
X116507512Y-99796921D03*
X113800000Y-91100000D03*
X121800000Y-91300000D03*
X130050002Y-95500000D03*
X125504412Y-101025000D03*
X110833006Y-97878563D03*
X122549996Y-91303104D03*
X116325000Y-81700000D03*
X110075000Y-92600000D03*
X101425000Y-103000000D03*
X118700000Y-98900000D03*
X131500000Y-102100000D03*
X129500000Y-102100000D03*
X115075000Y-100800000D03*
X115525000Y-78100000D03*
X124950003Y-91300000D03*
X132500000Y-101100000D03*
X129500000Y-101100000D03*
X118999999Y-92000000D03*
X128500000Y-103100000D03*
X131500000Y-100100000D03*
X132500000Y-103100000D03*
X112000000Y-92062500D03*
X133500000Y-101100000D03*
X116325000Y-80600000D03*
X128500000Y-100925000D03*
X133500000Y-100100000D03*
X133500000Y-102100000D03*
X131500000Y-101100000D03*
X129500000Y-103100000D03*
X116325000Y-82800000D03*
X130500000Y-101100000D03*
X132500000Y-100100000D03*
X117900000Y-85600000D03*
X132500000Y-102100000D03*
X131500000Y-103100000D03*
X129500000Y-100100000D03*
X110075000Y-91000000D03*
X130500000Y-102100000D03*
X109218750Y-98700000D03*
X130500000Y-100100000D03*
X133500000Y-103100000D03*
X117700000Y-83800000D03*
X114611091Y-89488909D03*
X117900000Y-86900000D03*
X115200000Y-90200000D03*
X121200000Y-93500000D03*
X118200000Y-90115687D03*
X128175000Y-97325002D03*
X112350000Y-101400000D03*
X115000000Y-104200006D03*
X128300000Y-91300000D03*
X119799582Y-97424999D03*
X119799582Y-99300000D03*
X124925000Y-99305653D03*
X112850000Y-103450003D03*
X122741776Y-99855653D03*
X115000000Y-103450003D03*
X120499997Y-90200000D03*
X116375000Y-100543042D03*
X127500000Y-91300000D03*
X125700006Y-91300000D03*
X116203526Y-101273179D03*
X120500000Y-89449998D03*
X121916806Y-99855653D03*
X112850000Y-102700000D03*
X115000000Y-102700000D03*
X117806410Y-89406410D03*
X116200000Y-89400000D03*
X113100000Y-85600000D03*
X117650000Y-90625588D03*
D38*
X118500000Y-75850000D03*
X116499999Y-75850000D03*
X114500000Y-75850000D03*
X112500000Y-75850000D03*
X128600000Y-80000000D03*
X129302944Y-78302944D03*
X129302944Y-81697056D03*
X131000000Y-77600000D03*
X131000000Y-80000000D03*
X131000000Y-82400000D03*
X132697056Y-78302944D03*
X132697056Y-81697056D03*
X133400000Y-80000000D03*
X97600000Y-94200000D03*
X97600000Y-96740000D03*
X114500000Y-115150000D03*
X112499999Y-115150000D03*
X110500000Y-115150000D03*
X108500000Y-115150000D03*
X106500000Y-115150000D03*
X104500000Y-115150000D03*
X118610000Y-109845000D03*
X124390000Y-109845000D03*
D39*
X117180000Y-109345000D03*
D40*
X117180000Y-113525000D03*
D39*
X125820000Y-109345000D03*
D40*
X125820000Y-113525000D03*
D38*
X97600000Y-80000000D03*
X98302944Y-78302944D03*
X98302944Y-81697056D03*
X100000000Y-77600000D03*
X100000000Y-80000000D03*
X100000000Y-82400000D03*
X101697056Y-78302944D03*
X101697056Y-81697056D03*
X102400000Y-80000000D03*
X133140000Y-94170000D03*
X135300000Y-99250000D03*
X135300000Y-96710000D03*
X135300000Y-94170001D03*
X135300000Y-91630000D03*
X128600000Y-111000000D03*
X129302944Y-109302944D03*
X129302944Y-112697056D03*
X131000000Y-108600000D03*
X131000000Y-111000000D03*
X131000000Y-113400000D03*
X132697056Y-109302944D03*
X132697056Y-112697056D03*
X133400000Y-111000000D03*
X97600000Y-111000000D03*
X98302944Y-109302944D03*
X98302944Y-112697056D03*
X100000000Y-108600000D03*
X100000000Y-111000000D03*
X100000000Y-113400000D03*
X101697056Y-109302944D03*
X101697056Y-112697056D03*
X102400000Y-111000000D03*
D37*
X123700000Y-96575000D03*
X125566667Y-96575000D03*
X127433333Y-96575000D03*
X129300000Y-96575000D03*
X123700000Y-94425000D03*
X125566667Y-94425000D03*
X127433333Y-94425000D03*
X129300000Y-94425000D03*
M02*
