%TF.GenerationSoftware,KiCad,Pcbnew,8.0.4*%
%TF.CreationDate,2024-08-28T16:39:45+02:00*%
%TF.ProjectId,stepper_driver_PCB,73746570-7065-4725-9f64-72697665725f,rev?*%
%TF.SameCoordinates,Original*%
%TF.FileFunction,Copper,L2,Inr*%
%TF.FilePolarity,Positive*%
%FSLAX46Y46*%
G04 Gerber Fmt 4.6, Leading zero omitted, Abs format (unit mm)*
G04 Created by KiCad (PCBNEW 8.0.4) date 2024-08-28 16:39:45*
%MOMM*%
%LPD*%
G01*
G04 APERTURE LIST*
%TA.AperFunction,ComponentPad*%
%ADD10R,1.350000X1.350000*%
%TD*%
%TA.AperFunction,ComponentPad*%
%ADD11O,1.350000X1.350000*%
%TD*%
%TA.AperFunction,ComponentPad*%
%ADD12C,0.800000*%
%TD*%
%TA.AperFunction,ComponentPad*%
%ADD13C,6.400000*%
%TD*%
%TA.AperFunction,ComponentPad*%
%ADD14R,2.000000X2.000000*%
%TD*%
%TA.AperFunction,ComponentPad*%
%ADD15C,2.000000*%
%TD*%
%TA.AperFunction,ComponentPad*%
%ADD16O,1.000000X2.100000*%
%TD*%
%TA.AperFunction,ComponentPad*%
%ADD17O,1.000000X1.600000*%
%TD*%
%TA.AperFunction,ComponentPad*%
%ADD18R,2.030000X1.730000*%
%TD*%
%TA.AperFunction,ComponentPad*%
%ADD19O,2.030000X1.730000*%
%TD*%
%TA.AperFunction,HeatsinkPad*%
%ADD20C,0.600000*%
%TD*%
%TA.AperFunction,ViaPad*%
%ADD21C,0.600000*%
%TD*%
%TA.AperFunction,Conductor*%
%ADD22C,0.500000*%
%TD*%
%ADD23C,0.300000*%
%ADD24C,0.350000*%
%ADD25O,0.600000X1.700000*%
%ADD26O,0.600000X1.200000*%
G04 APERTURE END LIST*
D10*
%TO.N,+3V3*%
%TO.C,J4*%
X118500000Y-75850000D03*
D11*
%TO.N,/JTAG_SWDIO*%
X116499999Y-75850000D03*
%TO.N,/JTAG_SWCLK*%
X114500000Y-75850000D03*
%TO.N,GND*%
X112500000Y-75850000D03*
%TD*%
D12*
%TO.N,GND*%
%TO.C,H2*%
X128600000Y-80000000D03*
X129302944Y-78302944D03*
X129302944Y-81697056D03*
X131000000Y-77600000D03*
D13*
X131000000Y-80000000D03*
D12*
X131000000Y-82400000D03*
X132697056Y-78302944D03*
X132697056Y-81697056D03*
X133400000Y-80000000D03*
%TD*%
D14*
%TO.N,+24V*%
%TO.C,J1*%
X97600000Y-94200000D03*
D15*
%TO.N,GND*%
X97600000Y-96740000D03*
%TD*%
D10*
%TO.N,+3V3*%
%TO.C,J2*%
X114500000Y-115150000D03*
D11*
%TO.N,/CTRL_SPI_MOSI*%
X112499999Y-115150000D03*
%TO.N,/CTRL_SPI_MISO*%
X110500000Y-115150000D03*
%TO.N,/CTRL_SPI_CLK*%
X108500000Y-115150000D03*
%TO.N,/CTRL_SPI_NCS*%
X106500000Y-115150000D03*
%TO.N,GND*%
X104500000Y-115150000D03*
%TD*%
D16*
%TO.N,unconnected-(J5-SHIELD-PadS1)*%
%TO.C,J5*%
X117180000Y-109345000D03*
D17*
%TO.N,unconnected-(J5-SHIELD-PadS1)_2*%
X117180000Y-113525000D03*
D16*
%TO.N,unconnected-(J5-SHIELD-PadS1)_3*%
X125820000Y-109345000D03*
D17*
%TO.N,unconnected-(J5-SHIELD-PadS1)_1*%
X125820000Y-113525000D03*
%TD*%
D12*
%TO.N,GND*%
%TO.C,H1*%
X97600000Y-80000000D03*
X98302944Y-78302944D03*
X98302944Y-81697056D03*
X100000000Y-77600000D03*
D13*
X100000000Y-80000000D03*
D12*
X100000000Y-82400000D03*
X101697056Y-78302944D03*
X101697056Y-81697056D03*
X102400000Y-80000000D03*
%TD*%
D18*
%TO.N,/STEPPER_B2*%
%TO.C,J3*%
X135300000Y-99250000D03*
D19*
%TO.N,/STEPPER_B1*%
X135300000Y-96710000D03*
%TO.N,/STEPPER_A1*%
X135300000Y-94170001D03*
%TO.N,/STEPPER_A2*%
X135300000Y-91630000D03*
%TD*%
D12*
%TO.N,GND*%
%TO.C,H4*%
X128600000Y-111000000D03*
X129302944Y-109302944D03*
X129302944Y-112697056D03*
X131000000Y-108600000D03*
D13*
X131000000Y-111000000D03*
D12*
X131000000Y-113400000D03*
X132697056Y-109302944D03*
X132697056Y-112697056D03*
X133400000Y-111000000D03*
%TD*%
%TO.N,GND*%
%TO.C,H3*%
X97600000Y-111000000D03*
X98302944Y-109302944D03*
X98302944Y-112697056D03*
X100000000Y-108600000D03*
D13*
X100000000Y-111000000D03*
D12*
X100000000Y-113400000D03*
X101697056Y-109302944D03*
X101697056Y-112697056D03*
X102400000Y-111000000D03*
%TD*%
D20*
%TO.N,GND*%
%TO.C,U5*%
X123700000Y-96575000D03*
X125566667Y-96575000D03*
X127433333Y-96575000D03*
X129300000Y-96575000D03*
X123700000Y-94425000D03*
X125566667Y-94425000D03*
X127433333Y-94425000D03*
X129300000Y-94425000D03*
%TD*%
D21*
%TO.N,GND*%
X95500000Y-105500000D03*
X127700000Y-104800000D03*
X110500000Y-80500000D03*
X113100000Y-93100000D03*
X135500000Y-105500000D03*
X120499999Y-85500000D03*
X128700000Y-104800000D03*
X125500000Y-75500000D03*
X126900000Y-103000000D03*
X100500000Y-85500000D03*
X105500000Y-80500000D03*
X113100000Y-89400000D03*
X113500000Y-80600000D03*
X130500000Y-75500000D03*
X100500000Y-75500000D03*
X118300000Y-107700000D03*
X115500000Y-110500000D03*
X95500000Y-80500000D03*
X135500000Y-80500000D03*
X126200000Y-104800000D03*
X95500000Y-110500000D03*
X95500000Y-85500000D03*
X110900000Y-78100000D03*
X113500000Y-81700000D03*
X130500000Y-115500000D03*
X97400002Y-102208949D03*
X105500000Y-110500000D03*
X117400000Y-79500000D03*
X100500000Y-90500000D03*
X112700000Y-100013786D03*
X113500000Y-82800000D03*
X123500000Y-103000000D03*
X125500000Y-85500000D03*
X120500000Y-75500000D03*
X105425000Y-96200000D03*
X120500000Y-115500000D03*
X113500000Y-79500000D03*
X116500000Y-87800000D03*
X121500000Y-111300000D03*
X114675000Y-81700000D03*
X108525000Y-92600000D03*
X123000000Y-101000000D03*
X95500000Y-90500000D03*
X129700000Y-104800000D03*
X124700000Y-107700000D03*
X106975000Y-92000000D03*
X120100000Y-78100000D03*
X117900000Y-96500000D03*
X130800000Y-105600000D03*
X105500000Y-85500000D03*
X125500000Y-80500000D03*
X120383246Y-92225000D03*
X130500000Y-90500000D03*
X100500000Y-115500000D03*
X114700000Y-85500000D03*
X131700000Y-104800000D03*
X110500000Y-75500000D03*
X113100000Y-97900000D03*
X115500000Y-105500000D03*
X108525000Y-91000000D03*
X110500000Y-100500000D03*
X114675000Y-80600000D03*
X105500000Y-100500000D03*
X110500000Y-85500000D03*
X100500000Y-105500000D03*
X116500000Y-85500000D03*
X117900000Y-94500000D03*
X100500000Y-100500000D03*
X125500000Y-115500000D03*
X110500000Y-105500000D03*
X135500000Y-85500000D03*
X130710387Y-97150001D03*
X109175000Y-97100000D03*
X130500000Y-85500000D03*
X118900000Y-101325000D03*
X122000000Y-102000000D03*
X130736262Y-93849999D03*
X114675000Y-82800000D03*
X95500000Y-100500000D03*
X117400000Y-82800000D03*
X117400000Y-81725000D03*
X105500000Y-75500000D03*
X125500000Y-103000000D03*
X109500000Y-113700000D03*
X95500000Y-95500000D03*
X105500000Y-105500000D03*
X111500000Y-112500000D03*
X120500000Y-80500000D03*
X135500000Y-110500000D03*
%TO.N,+5V*%
X121500000Y-112050003D03*
X124000000Y-103900000D03*
%TO.N,/USB_DN*%
X120449997Y-94800000D03*
%TO.N,+3.3VA*%
X111100000Y-97000000D03*
X125700000Y-89850000D03*
%TO.N,/USB_DP*%
X121200000Y-94800000D03*
%TO.N,Net-(J5-D+-PadA6)*%
X122300000Y-109700000D03*
%TO.N,Net-(J5-D--PadA7)*%
X120700000Y-109700000D03*
%TO.N,/NRST*%
X112500000Y-84700000D03*
X111100000Y-96200000D03*
%TO.N,/STATUS*%
X97400002Y-103808871D03*
X119799582Y-96300000D03*
%TO.N,/I2C_SDA*%
X116507512Y-99796921D03*
%TO.N,/I2C_SCL*%
X113800000Y-91100000D03*
%TO.N,/TMC_UART_RX*%
X121800000Y-91300000D03*
%TO.N,+24V*%
X130050002Y-95500000D03*
X125504412Y-101025000D03*
%TO.N,/AS5600_OUT*%
X110833006Y-97878563D03*
%TO.N,/TMC_UART_TX*%
X122549996Y-91303104D03*
%TO.N,+3V3*%
X116325000Y-81700000D03*
X110075000Y-92600000D03*
X101425000Y-103000000D03*
X118700000Y-98900000D03*
X131500000Y-102100000D03*
X129500000Y-102100000D03*
X115075000Y-100800000D03*
X115525000Y-78100000D03*
X124950003Y-91300000D03*
X132500000Y-101100000D03*
X129500000Y-101100000D03*
X118999999Y-92000000D03*
X128500000Y-103100000D03*
X131500000Y-100100000D03*
X132500000Y-103100000D03*
X112000000Y-92062500D03*
X133500000Y-101100000D03*
X116325000Y-80600000D03*
X128500000Y-100925000D03*
X133500000Y-100100000D03*
X133500000Y-102100000D03*
X131500000Y-101100000D03*
X129500000Y-103100000D03*
X116325000Y-82800000D03*
X130500000Y-101100000D03*
X132500000Y-100100000D03*
X117900000Y-85600000D03*
X132500000Y-102100000D03*
X131500000Y-103100000D03*
X129500000Y-100100000D03*
X110075000Y-91000000D03*
X130500000Y-102100000D03*
X109218750Y-98700000D03*
X130500000Y-100100000D03*
X133500000Y-103100000D03*
%TO.N,/BOOT0*%
X117700000Y-83800000D03*
X114611091Y-89488909D03*
%TO.N,/W25Q128_NRST*%
X117900000Y-86900000D03*
X115200000Y-90200000D03*
%TO.N,/JTAG_SWDIO*%
X121200000Y-93500000D03*
%TO.N,/JTAG_SWCLK*%
X118200000Y-90115687D03*
%TO.N,/TMC_NEN*%
X128175000Y-97325002D03*
X112350000Y-101400000D03*
X115000000Y-104200006D03*
%TO.N,/TMC_STDBY*%
X128300000Y-91300000D03*
%TO.N,/TMC_SPREAD*%
X119799582Y-97424999D03*
X119799582Y-99300000D03*
X124925000Y-99305653D03*
%TO.N,/TMC_MS1*%
X112850000Y-103450003D03*
X122741776Y-99855653D03*
X115000000Y-103450003D03*
%TO.N,/TMC_INDEX*%
X120499997Y-90200000D03*
X116375000Y-100543042D03*
%TO.N,/TMC_DIR*%
X127500000Y-91300000D03*
%TO.N,/TMC_STEP*%
X125700006Y-91300000D03*
%TO.N,/TMC_DIAG*%
X116203526Y-101273179D03*
X120500000Y-89449998D03*
%TO.N,/TMC_MS2*%
X121916806Y-99855653D03*
X112850000Y-102700000D03*
X115000000Y-102700000D03*
%TO.N,/FLASH_SPI_MOSI*%
X117806410Y-89406410D03*
X116200000Y-89400000D03*
%TO.N,/FLASH_SPI_NCS*%
X113100000Y-85600000D03*
X117650000Y-90625588D03*
%TD*%
D22*
%TO.N,+24V*%
X97600000Y-94200000D02*
X98900000Y-95500000D01*
X125800000Y-95500000D02*
X126700000Y-95500000D01*
X126266667Y-95966667D02*
X126266667Y-95933333D01*
X126266667Y-95933333D02*
X126700000Y-95500000D01*
X99500000Y-95500000D02*
X125800000Y-95500000D01*
X126266667Y-95966667D02*
X125800000Y-95500000D01*
X125504412Y-101025000D02*
X126266667Y-100262745D01*
X126266667Y-100262745D02*
X126266667Y-95966667D01*
X98900000Y-95500000D02*
X99500000Y-95500000D01*
X126700000Y-95500000D02*
X130050002Y-95500000D01*
%TD*%
%TA.AperFunction,Conductor*%
%TO.N,GND*%
G36*
X114184850Y-74869407D02*
G01*
X114220814Y-74918907D01*
X114220814Y-74980093D01*
X114184850Y-75029593D01*
X114166927Y-75039940D01*
X114151260Y-75046915D01*
X114059845Y-75087615D01*
X114059842Y-75087617D01*
X113910948Y-75195794D01*
X113787803Y-75332562D01*
X113787803Y-75332563D01*
X113695790Y-75491931D01*
X113695784Y-75491945D01*
X113638916Y-75666965D01*
X113619678Y-75850000D01*
X113638916Y-76033034D01*
X113695784Y-76208054D01*
X113695790Y-76208068D01*
X113768893Y-76334684D01*
X113787805Y-76367440D01*
X113910950Y-76504207D01*
X114059839Y-76612381D01*
X114059843Y-76612383D01*
X114059845Y-76612384D01*
X114115485Y-76637156D01*
X114227966Y-76687236D01*
X114407981Y-76725500D01*
X114407983Y-76725500D01*
X114592017Y-76725500D01*
X114592019Y-76725500D01*
X114772034Y-76687236D01*
X114940161Y-76612381D01*
X115089050Y-76504207D01*
X115212195Y-76367440D01*
X115302291Y-76211390D01*
X115304209Y-76208068D01*
X115304209Y-76208066D01*
X115304214Y-76208059D01*
X115361085Y-76033029D01*
X115380322Y-75850000D01*
X115361085Y-75666971D01*
X115304214Y-75491941D01*
X115304211Y-75491936D01*
X115304209Y-75491931D01*
X115256935Y-75410052D01*
X115212195Y-75332560D01*
X115089050Y-75195793D01*
X114940161Y-75087619D01*
X114940157Y-75087617D01*
X114940154Y-75087615D01*
X114855016Y-75049710D01*
X114833073Y-75039940D01*
X114787605Y-74999000D01*
X114774883Y-74939152D01*
X114799769Y-74883256D01*
X114852757Y-74852663D01*
X114873341Y-74850500D01*
X116126658Y-74850500D01*
X116184849Y-74869407D01*
X116220813Y-74918907D01*
X116220813Y-74980093D01*
X116184849Y-75029593D01*
X116166926Y-75039940D01*
X116151259Y-75046915D01*
X116059844Y-75087615D01*
X116059841Y-75087617D01*
X115910947Y-75195794D01*
X115787802Y-75332562D01*
X115787802Y-75332563D01*
X115695789Y-75491931D01*
X115695783Y-75491945D01*
X115638915Y-75666965D01*
X115619677Y-75850000D01*
X115638915Y-76033034D01*
X115695783Y-76208054D01*
X115695789Y-76208068D01*
X115768892Y-76334684D01*
X115787804Y-76367440D01*
X115910949Y-76504207D01*
X116059838Y-76612381D01*
X116059842Y-76612383D01*
X116059844Y-76612384D01*
X116115484Y-76637156D01*
X116227965Y-76687236D01*
X116407980Y-76725500D01*
X116407982Y-76725500D01*
X116592016Y-76725500D01*
X116592018Y-76725500D01*
X116772033Y-76687236D01*
X116940160Y-76612381D01*
X117089049Y-76504207D01*
X117212194Y-76367440D01*
X117302290Y-76211390D01*
X117304208Y-76208068D01*
X117304208Y-76208066D01*
X117304213Y-76208059D01*
X117361084Y-76033029D01*
X117380321Y-75850000D01*
X117361084Y-75666971D01*
X117304213Y-75491941D01*
X117304210Y-75491936D01*
X117304208Y-75491931D01*
X117256934Y-75410052D01*
X117212194Y-75332560D01*
X117089049Y-75195793D01*
X116940160Y-75087619D01*
X116940156Y-75087617D01*
X116940153Y-75087615D01*
X116855015Y-75049710D01*
X116833072Y-75039940D01*
X116787604Y-74999000D01*
X116774882Y-74939152D01*
X116799768Y-74883256D01*
X116852756Y-74852663D01*
X116873340Y-74850500D01*
X117623400Y-74850500D01*
X117681591Y-74869407D01*
X117717555Y-74918907D01*
X117717555Y-74980093D01*
X117686552Y-75022763D01*
X117687343Y-75023554D01*
X117682353Y-75028543D01*
X117681591Y-75029593D01*
X117680644Y-75030252D01*
X117680445Y-75030451D01*
X117636134Y-75096766D01*
X117636132Y-75096772D01*
X117624501Y-75155241D01*
X117624500Y-75155253D01*
X117624500Y-76544746D01*
X117624501Y-76544758D01*
X117636132Y-76603227D01*
X117636134Y-76603233D01*
X117642249Y-76612384D01*
X117680448Y-76669552D01*
X117746769Y-76713867D01*
X117791231Y-76722711D01*
X117805241Y-76725498D01*
X117805246Y-76725498D01*
X117805252Y-76725500D01*
X117805253Y-76725500D01*
X119194747Y-76725500D01*
X119194748Y-76725500D01*
X119253231Y-76713867D01*
X119319552Y-76669552D01*
X119363867Y-76603231D01*
X119375500Y-76544748D01*
X119375500Y-75155252D01*
X119363867Y-75096769D01*
X119319552Y-75030448D01*
X119319548Y-75030445D01*
X119312657Y-75023554D01*
X119314014Y-75022196D01*
X119283718Y-74983764D01*
X119281317Y-74922626D01*
X119315311Y-74871752D01*
X119372715Y-74850576D01*
X119376600Y-74850500D01*
X130934108Y-74850500D01*
X130997964Y-74850500D01*
X131002055Y-74850585D01*
X131421154Y-74867918D01*
X131429286Y-74868592D01*
X131843533Y-74920227D01*
X131851574Y-74921569D01*
X132260134Y-75007235D01*
X132268046Y-75009239D01*
X132531304Y-75087615D01*
X132668106Y-75128343D01*
X132675845Y-75130999D01*
X132766012Y-75166182D01*
X133064726Y-75282740D01*
X133072196Y-75286016D01*
X133447235Y-75469362D01*
X133454399Y-75473240D01*
X133779512Y-75666965D01*
X133812989Y-75686913D01*
X133819839Y-75691388D01*
X134159557Y-75933943D01*
X134166014Y-75938969D01*
X134484531Y-76208739D01*
X134490551Y-76214280D01*
X134785719Y-76509448D01*
X134791260Y-76515468D01*
X135061030Y-76833985D01*
X135066056Y-76840442D01*
X135308611Y-77180160D01*
X135313086Y-77187010D01*
X135526750Y-77545584D01*
X135530645Y-77552780D01*
X135713977Y-77927791D01*
X135717264Y-77935285D01*
X135869000Y-78324154D01*
X135871656Y-78331893D01*
X135990757Y-78731943D01*
X135992766Y-78739875D01*
X136078427Y-79148410D01*
X136079774Y-79156481D01*
X136131406Y-79570702D01*
X136132081Y-79578856D01*
X136149415Y-79997944D01*
X136149500Y-80002035D01*
X136149500Y-90630709D01*
X136130593Y-90688900D01*
X136081093Y-90724864D01*
X136019907Y-90724864D01*
X135995500Y-90713025D01*
X135954705Y-90685767D01*
X135760798Y-90605448D01*
X135760792Y-90605446D01*
X135554945Y-90564500D01*
X135554943Y-90564500D01*
X135045057Y-90564500D01*
X135045054Y-90564500D01*
X134839207Y-90605446D01*
X134839201Y-90605448D01*
X134645297Y-90685766D01*
X134470787Y-90802369D01*
X134322369Y-90950787D01*
X134205766Y-91125297D01*
X134125448Y-91319201D01*
X134125446Y-91319207D01*
X134084500Y-91525054D01*
X134084500Y-91734945D01*
X134125446Y-91940792D01*
X134125448Y-91940798D01*
X134205766Y-92134702D01*
X134322369Y-92309212D01*
X134322372Y-92309216D01*
X134470784Y-92457628D01*
X134645297Y-92574233D01*
X134839205Y-92654553D01*
X135045057Y-92695500D01*
X135045058Y-92695500D01*
X135554942Y-92695500D01*
X135554943Y-92695500D01*
X135760795Y-92654553D01*
X135954703Y-92574233D01*
X135995499Y-92546973D01*
X136054387Y-92530366D01*
X136111790Y-92551544D01*
X136145783Y-92602418D01*
X136149500Y-92629290D01*
X136149500Y-93170710D01*
X136130593Y-93228901D01*
X136081093Y-93264865D01*
X136019907Y-93264865D01*
X135995500Y-93253026D01*
X135954705Y-93225768D01*
X135760798Y-93145449D01*
X135760792Y-93145447D01*
X135554945Y-93104501D01*
X135554943Y-93104501D01*
X135045057Y-93104501D01*
X135045054Y-93104501D01*
X134839207Y-93145447D01*
X134839201Y-93145449D01*
X134645297Y-93225767D01*
X134470787Y-93342370D01*
X134322369Y-93490788D01*
X134205766Y-93665298D01*
X134125448Y-93859202D01*
X134125446Y-93859208D01*
X134084500Y-94065055D01*
X134084500Y-94066220D01*
X134084336Y-94066724D01*
X134084024Y-94069894D01*
X134083328Y-94069825D01*
X134065593Y-94124411D01*
X134016093Y-94160375D01*
X133954907Y-94160375D01*
X133905407Y-94124411D01*
X133888402Y-94085535D01*
X133871487Y-94000499D01*
X133861658Y-93951087D01*
X133805084Y-93814505D01*
X133722951Y-93691584D01*
X133618416Y-93587049D01*
X133495495Y-93504916D01*
X133483627Y-93500000D01*
X133358914Y-93448342D01*
X133213918Y-93419500D01*
X133066082Y-93419500D01*
X133066081Y-93419500D01*
X132921085Y-93448342D01*
X132784506Y-93504915D01*
X132661585Y-93587048D01*
X132557048Y-93691585D01*
X132474915Y-93814506D01*
X132418342Y-93951085D01*
X132389500Y-94096081D01*
X132389500Y-94243918D01*
X132408621Y-94340046D01*
X132418342Y-94388913D01*
X132474916Y-94525495D01*
X132557049Y-94648416D01*
X132661584Y-94752951D01*
X132784505Y-94835084D01*
X132921087Y-94891658D01*
X133066082Y-94920500D01*
X133066083Y-94920500D01*
X133213917Y-94920500D01*
X133213918Y-94920500D01*
X133358913Y-94891658D01*
X133495495Y-94835084D01*
X133618416Y-94752951D01*
X133722951Y-94648416D01*
X133805084Y-94525495D01*
X133861658Y-94388913D01*
X133888402Y-94254464D01*
X133918299Y-94201081D01*
X133973864Y-94175465D01*
X134033874Y-94187402D01*
X134075406Y-94232332D01*
X134083701Y-94270139D01*
X134084024Y-94270108D01*
X134084292Y-94272831D01*
X134084500Y-94273779D01*
X134084500Y-94274946D01*
X134125446Y-94480793D01*
X134125448Y-94480799D01*
X134205766Y-94674703D01*
X134322369Y-94849213D01*
X134322372Y-94849217D01*
X134470784Y-94997629D01*
X134645297Y-95114234D01*
X134839205Y-95194554D01*
X135045057Y-95235501D01*
X135045058Y-95235501D01*
X135554942Y-95235501D01*
X135554943Y-95235501D01*
X135760795Y-95194554D01*
X135954703Y-95114234D01*
X135995499Y-95086974D01*
X136054387Y-95070367D01*
X136111790Y-95091545D01*
X136145783Y-95142419D01*
X136149500Y-95169291D01*
X136149500Y-95710709D01*
X136130593Y-95768900D01*
X136081093Y-95804864D01*
X136019907Y-95804864D01*
X135995500Y-95793025D01*
X135954705Y-95765767D01*
X135760798Y-95685448D01*
X135760792Y-95685446D01*
X135554945Y-95644500D01*
X135554943Y-95644500D01*
X135045057Y-95644500D01*
X135045054Y-95644500D01*
X134839207Y-95685446D01*
X134839201Y-95685448D01*
X134645297Y-95765766D01*
X134470787Y-95882369D01*
X134322369Y-96030787D01*
X134205766Y-96205297D01*
X134125448Y-96399201D01*
X134125446Y-96399207D01*
X134084500Y-96605054D01*
X134084500Y-96814945D01*
X134125446Y-97020792D01*
X134125448Y-97020798D01*
X134205766Y-97214702D01*
X134321378Y-97387729D01*
X134322372Y-97389216D01*
X134470784Y-97537628D01*
X134645297Y-97654233D01*
X134839205Y-97734553D01*
X135045057Y-97775500D01*
X135045058Y-97775500D01*
X135554942Y-97775500D01*
X135554943Y-97775500D01*
X135760795Y-97734553D01*
X135954703Y-97654233D01*
X135995499Y-97626973D01*
X136054387Y-97610366D01*
X136111790Y-97631544D01*
X136145783Y-97682418D01*
X136149500Y-97709290D01*
X136149500Y-98085500D01*
X136130593Y-98143691D01*
X136081093Y-98179655D01*
X136050500Y-98184500D01*
X134265252Y-98184500D01*
X134265251Y-98184500D01*
X134265241Y-98184501D01*
X134206772Y-98196132D01*
X134206766Y-98196134D01*
X134140451Y-98240445D01*
X134140445Y-98240451D01*
X134096134Y-98306766D01*
X134096132Y-98306772D01*
X134084501Y-98365241D01*
X134084500Y-98365253D01*
X134084500Y-99744835D01*
X134065593Y-99803026D01*
X134016093Y-99838990D01*
X133954907Y-99838990D01*
X133910681Y-99809666D01*
X133831129Y-99717858D01*
X133831127Y-99717856D01*
X133710057Y-99640049D01*
X133710054Y-99640047D01*
X133710053Y-99640047D01*
X133710050Y-99640046D01*
X133571964Y-99599500D01*
X133571961Y-99599500D01*
X133428039Y-99599500D01*
X133428035Y-99599500D01*
X133289949Y-99640046D01*
X133289942Y-99640049D01*
X133168872Y-99717856D01*
X133168870Y-99717858D01*
X133074819Y-99826400D01*
X133022424Y-99857996D01*
X132961463Y-99852760D01*
X132925181Y-99826400D01*
X132831129Y-99717858D01*
X132831127Y-99717856D01*
X132710057Y-99640049D01*
X132710054Y-99640047D01*
X132710053Y-99640047D01*
X132710050Y-99640046D01*
X132571964Y-99599500D01*
X132571961Y-99599500D01*
X132428039Y-99599500D01*
X132428035Y-99599500D01*
X132289949Y-99640046D01*
X132289942Y-99640049D01*
X132168872Y-99717856D01*
X132168870Y-99717858D01*
X132074819Y-99826400D01*
X132022424Y-99857996D01*
X131961463Y-99852760D01*
X131925181Y-99826400D01*
X131831129Y-99717858D01*
X131831127Y-99717856D01*
X131710057Y-99640049D01*
X131710054Y-99640047D01*
X131710053Y-99640047D01*
X131710050Y-99640046D01*
X131571964Y-99599500D01*
X131571961Y-99599500D01*
X131428039Y-99599500D01*
X131428035Y-99599500D01*
X131289949Y-99640046D01*
X131289942Y-99640049D01*
X131168872Y-99717856D01*
X131168870Y-99717858D01*
X131074819Y-99826400D01*
X131022424Y-99857996D01*
X130961463Y-99852760D01*
X130925181Y-99826400D01*
X130831129Y-99717858D01*
X130831127Y-99717856D01*
X130710057Y-99640049D01*
X130710054Y-99640047D01*
X130710053Y-99640047D01*
X130710050Y-99640046D01*
X130571964Y-99599500D01*
X130571961Y-99599500D01*
X130428039Y-99599500D01*
X130428035Y-99599500D01*
X130289949Y-99640046D01*
X130289942Y-99640049D01*
X130168872Y-99717856D01*
X130168870Y-99717858D01*
X130074819Y-99826400D01*
X130022424Y-99857996D01*
X129961463Y-99852760D01*
X129925181Y-99826400D01*
X129831129Y-99717858D01*
X129831127Y-99717856D01*
X129710057Y-99640049D01*
X129710054Y-99640047D01*
X129710053Y-99640047D01*
X129710050Y-99640046D01*
X129571964Y-99599500D01*
X129571961Y-99599500D01*
X129428039Y-99599500D01*
X129428035Y-99599500D01*
X129289949Y-99640046D01*
X129289942Y-99640049D01*
X129168873Y-99717855D01*
X129074622Y-99826628D01*
X129014834Y-99957543D01*
X128994353Y-100099997D01*
X128994353Y-100100002D01*
X129014834Y-100242456D01*
X129062687Y-100347238D01*
X129074623Y-100373373D01*
X129168872Y-100482143D01*
X129222669Y-100516716D01*
X129261400Y-100564082D01*
X129264893Y-100625168D01*
X129231813Y-100676640D01*
X129222669Y-100683284D01*
X129168869Y-100717858D01*
X129130103Y-100762598D01*
X129077707Y-100794194D01*
X129016746Y-100788958D01*
X128970505Y-100748890D01*
X128965231Y-100738893D01*
X128925378Y-100651629D01*
X128925377Y-100651628D01*
X128925377Y-100651627D01*
X128831128Y-100542857D01*
X128831127Y-100542856D01*
X128831126Y-100542855D01*
X128710057Y-100465049D01*
X128710054Y-100465047D01*
X128710053Y-100465047D01*
X128710050Y-100465046D01*
X128571964Y-100424500D01*
X128571961Y-100424500D01*
X128428039Y-100424500D01*
X128428035Y-100424500D01*
X128289949Y-100465046D01*
X128289942Y-100465049D01*
X128168873Y-100542855D01*
X128074622Y-100651628D01*
X128014834Y-100782543D01*
X127994353Y-100924997D01*
X127994353Y-100925002D01*
X128014834Y-101067456D01*
X128060504Y-101167457D01*
X128074623Y-101198373D01*
X128150643Y-101286105D01*
X128168873Y-101307144D01*
X128289942Y-101384950D01*
X128289947Y-101384953D01*
X128394442Y-101415635D01*
X128428035Y-101425499D01*
X128428036Y-101425499D01*
X128428039Y-101425500D01*
X128428041Y-101425500D01*
X128571959Y-101425500D01*
X128571961Y-101425500D01*
X128710053Y-101384953D01*
X128831128Y-101307143D01*
X128869898Y-101262399D01*
X128922290Y-101230805D01*
X128983251Y-101236040D01*
X129029492Y-101276107D01*
X129034768Y-101286105D01*
X129062687Y-101347238D01*
X129074623Y-101373373D01*
X129168872Y-101482143D01*
X129222669Y-101516716D01*
X129261400Y-101564082D01*
X129264893Y-101625168D01*
X129231813Y-101676640D01*
X129222669Y-101683284D01*
X129168872Y-101717857D01*
X129074622Y-101826628D01*
X129014834Y-101957543D01*
X128994353Y-102099997D01*
X128994353Y-102100002D01*
X129014834Y-102242456D01*
X129062687Y-102347238D01*
X129074623Y-102373373D01*
X129168872Y-102482143D01*
X129222669Y-102516716D01*
X129261400Y-102564082D01*
X129264893Y-102625168D01*
X129231813Y-102676640D01*
X129222669Y-102683284D01*
X129168869Y-102717858D01*
X129074819Y-102826400D01*
X129022424Y-102857996D01*
X128961463Y-102852760D01*
X128925181Y-102826400D01*
X128831129Y-102717858D01*
X128831127Y-102717856D01*
X128710057Y-102640049D01*
X128710054Y-102640047D01*
X128710053Y-102640047D01*
X128710050Y-102640046D01*
X128571964Y-102599500D01*
X128571961Y-102599500D01*
X128428039Y-102599500D01*
X128428035Y-102599500D01*
X128289949Y-102640046D01*
X128289942Y-102640049D01*
X128168873Y-102717855D01*
X128074622Y-102826628D01*
X128014834Y-102957543D01*
X127994353Y-103099997D01*
X127994353Y-103100002D01*
X128014834Y-103242456D01*
X128074622Y-103373371D01*
X128074623Y-103373373D01*
X128168872Y-103482143D01*
X128168873Y-103482144D01*
X128289942Y-103559950D01*
X128289947Y-103559953D01*
X128396403Y-103591211D01*
X128428035Y-103600499D01*
X128428036Y-103600499D01*
X128428039Y-103600500D01*
X128428041Y-103600500D01*
X128571959Y-103600500D01*
X128571961Y-103600500D01*
X128710053Y-103559953D01*
X128831128Y-103482143D01*
X128925182Y-103373597D01*
X128977576Y-103342003D01*
X129038537Y-103347238D01*
X129074816Y-103373596D01*
X129168872Y-103482143D01*
X129168873Y-103482144D01*
X129289942Y-103559950D01*
X129289947Y-103559953D01*
X129396403Y-103591211D01*
X129428035Y-103600499D01*
X129428036Y-103600499D01*
X129428039Y-103600500D01*
X129428041Y-103600500D01*
X129571959Y-103600500D01*
X129571961Y-103600500D01*
X129710053Y-103559953D01*
X129831128Y-103482143D01*
X129925377Y-103373373D01*
X129985165Y-103242457D01*
X129999920Y-103139832D01*
X130005647Y-103100002D01*
X130005647Y-103099997D01*
X129985165Y-102957543D01*
X129939496Y-102857543D01*
X129925377Y-102826627D01*
X129831128Y-102717857D01*
X129831127Y-102717856D01*
X129831126Y-102717855D01*
X129777331Y-102683284D01*
X129738600Y-102635919D01*
X129735106Y-102574833D01*
X129768185Y-102523360D01*
X129777331Y-102516716D01*
X129831126Y-102482144D01*
X129831125Y-102482144D01*
X129831128Y-102482143D01*
X129925182Y-102373597D01*
X129977576Y-102342003D01*
X130038537Y-102347238D01*
X130074816Y-102373596D01*
X130168871Y-102482142D01*
X130168873Y-102482144D01*
X130286197Y-102557543D01*
X130289947Y-102559953D01*
X130396403Y-102591211D01*
X130428035Y-102600499D01*
X130428036Y-102600499D01*
X130428039Y-102600500D01*
X130428041Y-102600500D01*
X130571959Y-102600500D01*
X130571961Y-102600500D01*
X130710053Y-102559953D01*
X130831128Y-102482143D01*
X130925182Y-102373597D01*
X130977576Y-102342003D01*
X131038537Y-102347238D01*
X131074816Y-102373596D01*
X131168872Y-102482143D01*
X131222669Y-102516716D01*
X131261400Y-102564082D01*
X131264893Y-102625168D01*
X131231813Y-102676640D01*
X131222669Y-102683284D01*
X131168872Y-102717857D01*
X131074622Y-102826628D01*
X131014834Y-102957543D01*
X130994353Y-103099997D01*
X130994353Y-103100002D01*
X131014834Y-103242456D01*
X131074622Y-103373371D01*
X131074623Y-103373373D01*
X131168872Y-103482143D01*
X131168873Y-103482144D01*
X131289942Y-103559950D01*
X131289947Y-103559953D01*
X131396403Y-103591211D01*
X131428035Y-103600499D01*
X131428036Y-103600499D01*
X131428039Y-103600500D01*
X131428041Y-103600500D01*
X131571959Y-103600500D01*
X131571961Y-103600500D01*
X131710053Y-103559953D01*
X131831128Y-103482143D01*
X131925182Y-103373597D01*
X131977576Y-103342003D01*
X132038537Y-103347238D01*
X132074816Y-103373596D01*
X132168872Y-103482143D01*
X132168873Y-103482144D01*
X132289942Y-103559950D01*
X132289947Y-103559953D01*
X132396403Y-103591211D01*
X132428035Y-103600499D01*
X132428036Y-103600499D01*
X132428039Y-103600500D01*
X132428041Y-103600500D01*
X132571959Y-103600500D01*
X132571961Y-103600500D01*
X132710053Y-103559953D01*
X132831128Y-103482143D01*
X132925182Y-103373597D01*
X132977576Y-103342003D01*
X133038537Y-103347238D01*
X133074816Y-103373596D01*
X133168872Y-103482143D01*
X133168873Y-103482144D01*
X133289942Y-103559950D01*
X133289947Y-103559953D01*
X133396403Y-103591211D01*
X133428035Y-103600499D01*
X133428036Y-103600499D01*
X133428039Y-103600500D01*
X133428041Y-103600500D01*
X133571959Y-103600500D01*
X133571961Y-103600500D01*
X133710053Y-103559953D01*
X133831128Y-103482143D01*
X133925377Y-103373373D01*
X133985165Y-103242457D01*
X133999920Y-103139832D01*
X134005647Y-103100002D01*
X134005647Y-103099997D01*
X133985165Y-102957543D01*
X133939496Y-102857543D01*
X133925377Y-102826627D01*
X133831128Y-102717857D01*
X133831127Y-102717856D01*
X133831126Y-102717855D01*
X133777331Y-102683284D01*
X133738600Y-102635919D01*
X133735106Y-102574833D01*
X133768185Y-102523360D01*
X133777331Y-102516716D01*
X133831126Y-102482144D01*
X133831125Y-102482144D01*
X133831128Y-102482143D01*
X133925377Y-102373373D01*
X133985165Y-102242457D01*
X134005647Y-102100000D01*
X133985165Y-101957543D01*
X133925377Y-101826627D01*
X133831128Y-101717857D01*
X133831127Y-101717856D01*
X133831126Y-101717855D01*
X133777331Y-101683284D01*
X133738600Y-101635919D01*
X133735106Y-101574833D01*
X133768185Y-101523360D01*
X133777331Y-101516716D01*
X133831128Y-101482143D01*
X133925377Y-101373373D01*
X133985165Y-101242457D01*
X134005647Y-101100000D01*
X134001818Y-101073371D01*
X133985165Y-100957543D01*
X133970387Y-100925184D01*
X133925377Y-100826627D01*
X133831128Y-100717857D01*
X133831127Y-100717856D01*
X133831126Y-100717855D01*
X133777331Y-100683284D01*
X133738600Y-100635919D01*
X133735106Y-100574833D01*
X133768185Y-100523360D01*
X133777331Y-100516716D01*
X133831126Y-100482144D01*
X133831125Y-100482144D01*
X133831128Y-100482143D01*
X133925377Y-100373373D01*
X133969827Y-100276043D01*
X134011199Y-100230965D01*
X134071165Y-100218814D01*
X134126822Y-100244232D01*
X134136983Y-100256086D01*
X134140445Y-100259548D01*
X134140448Y-100259552D01*
X134206769Y-100303867D01*
X134251231Y-100312711D01*
X134265241Y-100315498D01*
X134265246Y-100315498D01*
X134265252Y-100315500D01*
X136050500Y-100315500D01*
X136108691Y-100334407D01*
X136144655Y-100383907D01*
X136149500Y-100414500D01*
X136149500Y-110997964D01*
X136149415Y-111002055D01*
X136132081Y-111421143D01*
X136131406Y-111429297D01*
X136079774Y-111843518D01*
X136078427Y-111851589D01*
X135992766Y-112260124D01*
X135990757Y-112268056D01*
X135871656Y-112668106D01*
X135869000Y-112675845D01*
X135717264Y-113064714D01*
X135713977Y-113072208D01*
X135530645Y-113447219D01*
X135526750Y-113454415D01*
X135313086Y-113812989D01*
X135308611Y-113819839D01*
X135066056Y-114159557D01*
X135061030Y-114166014D01*
X134791260Y-114484531D01*
X134785719Y-114490551D01*
X134490551Y-114785719D01*
X134484531Y-114791260D01*
X134166014Y-115061030D01*
X134159557Y-115066056D01*
X133819839Y-115308611D01*
X133812989Y-115313086D01*
X133454415Y-115526750D01*
X133447219Y-115530645D01*
X133072208Y-115713977D01*
X133064714Y-115717264D01*
X132675845Y-115869000D01*
X132668106Y-115871656D01*
X132268056Y-115990757D01*
X132260124Y-115992766D01*
X131851589Y-116078427D01*
X131843518Y-116079774D01*
X131429297Y-116131406D01*
X131421143Y-116132081D01*
X131002055Y-116149415D01*
X130997964Y-116149500D01*
X115376600Y-116149500D01*
X115318409Y-116130593D01*
X115282445Y-116081093D01*
X115282445Y-116019907D01*
X115313447Y-115977236D01*
X115312657Y-115976446D01*
X115317646Y-115971456D01*
X115318409Y-115970407D01*
X115319355Y-115969747D01*
X115319545Y-115969556D01*
X115319552Y-115969552D01*
X115363867Y-115903231D01*
X115375500Y-115844748D01*
X115375500Y-114455252D01*
X115363867Y-114396769D01*
X115319552Y-114330448D01*
X115293088Y-114312765D01*
X115253233Y-114286134D01*
X115253231Y-114286133D01*
X115253228Y-114286132D01*
X115253227Y-114286132D01*
X115194758Y-114274501D01*
X115194748Y-114274500D01*
X113805252Y-114274500D01*
X113805251Y-114274500D01*
X113805241Y-114274501D01*
X113746772Y-114286132D01*
X113746766Y-114286134D01*
X113680451Y-114330445D01*
X113680445Y-114330451D01*
X113636134Y-114396766D01*
X113636132Y-114396772D01*
X113624501Y-114455241D01*
X113624500Y-114455253D01*
X113624500Y-115844746D01*
X113624501Y-115844758D01*
X113636132Y-115903227D01*
X113636134Y-115903233D01*
X113642249Y-115912384D01*
X113680448Y-115969552D01*
X113680451Y-115969554D01*
X113687343Y-115976446D01*
X113685985Y-115977803D01*
X113716282Y-116016236D01*
X113718683Y-116077374D01*
X113684689Y-116128248D01*
X113627285Y-116149424D01*
X113623400Y-116149500D01*
X112873340Y-116149500D01*
X112815149Y-116130593D01*
X112779185Y-116081093D01*
X112779185Y-116019907D01*
X112815149Y-115970407D01*
X112833071Y-115960059D01*
X112940160Y-115912381D01*
X113089049Y-115804207D01*
X113212194Y-115667440D01*
X113304213Y-115508059D01*
X113361084Y-115333029D01*
X113380321Y-115150000D01*
X113361084Y-114966971D01*
X113304213Y-114791941D01*
X113304210Y-114791936D01*
X113304208Y-114791931D01*
X113256934Y-114710052D01*
X113212194Y-114632560D01*
X113089049Y-114495793D01*
X112940160Y-114387619D01*
X112940156Y-114387617D01*
X112940153Y-114387615D01*
X112772035Y-114312765D01*
X112772033Y-114312764D01*
X112772030Y-114312763D01*
X112772029Y-114312763D01*
X112725134Y-114302795D01*
X112592018Y-114274500D01*
X112407980Y-114274500D01*
X112310796Y-114295157D01*
X112227968Y-114312763D01*
X112227962Y-114312765D01*
X112059844Y-114387615D01*
X112059841Y-114387617D01*
X111910947Y-114495794D01*
X111787802Y-114632562D01*
X111787802Y-114632563D01*
X111695789Y-114791931D01*
X111695783Y-114791945D01*
X111638915Y-114966965D01*
X111619677Y-115150000D01*
X111638915Y-115333034D01*
X111695783Y-115508054D01*
X111695789Y-115508068D01*
X111768892Y-115634684D01*
X111787804Y-115667440D01*
X111910949Y-115804207D01*
X112059838Y-115912381D01*
X112059842Y-115912383D01*
X112059844Y-115912384D01*
X112123099Y-115940547D01*
X112166925Y-115960059D01*
X112212394Y-116001000D01*
X112225116Y-116060848D01*
X112200230Y-116116744D01*
X112147242Y-116147337D01*
X112126658Y-116149500D01*
X110873341Y-116149500D01*
X110815150Y-116130593D01*
X110779186Y-116081093D01*
X110779186Y-116019907D01*
X110815150Y-115970407D01*
X110833072Y-115960059D01*
X110940161Y-115912381D01*
X111089050Y-115804207D01*
X111212195Y-115667440D01*
X111304214Y-115508059D01*
X111361085Y-115333029D01*
X111380322Y-115150000D01*
X111361085Y-114966971D01*
X111304214Y-114791941D01*
X111304211Y-114791936D01*
X111304209Y-114791931D01*
X111256935Y-114710052D01*
X111212195Y-114632560D01*
X111089050Y-114495793D01*
X110940161Y-114387619D01*
X110940157Y-114387617D01*
X110940154Y-114387615D01*
X110772036Y-114312765D01*
X110772034Y-114312764D01*
X110772031Y-114312763D01*
X110772030Y-114312763D01*
X110725135Y-114302795D01*
X110592019Y-114274500D01*
X110407981Y-114274500D01*
X110310797Y-114295157D01*
X110227969Y-114312763D01*
X110227963Y-114312765D01*
X110059845Y-114387615D01*
X110059842Y-114387617D01*
X109910948Y-114495794D01*
X109787803Y-114632562D01*
X109787803Y-114632563D01*
X109695790Y-114791931D01*
X109695784Y-114791945D01*
X109638916Y-114966965D01*
X109619678Y-115150000D01*
X109638916Y-115333034D01*
X109695784Y-115508054D01*
X109695790Y-115508068D01*
X109768893Y-115634684D01*
X109787805Y-115667440D01*
X109910950Y-115804207D01*
X110059839Y-115912381D01*
X110059843Y-115912383D01*
X110059845Y-115912384D01*
X110123100Y-115940547D01*
X110166926Y-115960059D01*
X110212395Y-116001000D01*
X110225117Y-116060848D01*
X110200231Y-116116744D01*
X110147243Y-116147337D01*
X110126659Y-116149500D01*
X108873341Y-116149500D01*
X108815150Y-116130593D01*
X108779186Y-116081093D01*
X108779186Y-116019907D01*
X108815150Y-115970407D01*
X108833072Y-115960059D01*
X108940161Y-115912381D01*
X109089050Y-115804207D01*
X109212195Y-115667440D01*
X109304214Y-115508059D01*
X109361085Y-115333029D01*
X109380322Y-115150000D01*
X109361085Y-114966971D01*
X109304214Y-114791941D01*
X109304211Y-114791936D01*
X109304209Y-114791931D01*
X109256935Y-114710052D01*
X109212195Y-114632560D01*
X109089050Y-114495793D01*
X108940161Y-114387619D01*
X108940157Y-114387617D01*
X108940154Y-114387615D01*
X108772036Y-114312765D01*
X108772034Y-114312764D01*
X108772031Y-114312763D01*
X108772030Y-114312763D01*
X108725135Y-114302795D01*
X108592019Y-114274500D01*
X108407981Y-114274500D01*
X108310797Y-114295157D01*
X108227969Y-114312763D01*
X108227963Y-114312765D01*
X108059845Y-114387615D01*
X108059842Y-114387617D01*
X107910948Y-114495794D01*
X107787803Y-114632562D01*
X107787803Y-114632563D01*
X107695790Y-114791931D01*
X107695784Y-114791945D01*
X107638916Y-114966965D01*
X107619678Y-115150000D01*
X107638916Y-115333034D01*
X107695784Y-115508054D01*
X107695790Y-115508068D01*
X107768893Y-115634684D01*
X107787805Y-115667440D01*
X107910950Y-115804207D01*
X108059839Y-115912381D01*
X108059843Y-115912383D01*
X108059845Y-115912384D01*
X108123100Y-115940547D01*
X108166926Y-115960059D01*
X108212395Y-116001000D01*
X108225117Y-116060848D01*
X108200231Y-116116744D01*
X108147243Y-116147337D01*
X108126659Y-116149500D01*
X106873341Y-116149500D01*
X106815150Y-116130593D01*
X106779186Y-116081093D01*
X106779186Y-116019907D01*
X106815150Y-115970407D01*
X106833072Y-115960059D01*
X106940161Y-115912381D01*
X107089050Y-115804207D01*
X107212195Y-115667440D01*
X107304214Y-115508059D01*
X107361085Y-115333029D01*
X107380322Y-115150000D01*
X107361085Y-114966971D01*
X107304214Y-114791941D01*
X107304211Y-114791936D01*
X107304209Y-114791931D01*
X107256935Y-114710052D01*
X107212195Y-114632560D01*
X107089050Y-114495793D01*
X106940161Y-114387619D01*
X106940157Y-114387617D01*
X106940154Y-114387615D01*
X106772036Y-114312765D01*
X106772034Y-114312764D01*
X106772031Y-114312763D01*
X106772030Y-114312763D01*
X106725135Y-114302795D01*
X106592019Y-114274500D01*
X106407981Y-114274500D01*
X106310797Y-114295157D01*
X106227969Y-114312763D01*
X106227963Y-114312765D01*
X106059845Y-114387615D01*
X106059842Y-114387617D01*
X105910948Y-114495794D01*
X105787803Y-114632562D01*
X105787803Y-114632563D01*
X105695790Y-114791931D01*
X105695784Y-114791945D01*
X105638916Y-114966965D01*
X105619678Y-115150000D01*
X105638916Y-115333034D01*
X105695784Y-115508054D01*
X105695790Y-115508068D01*
X105768893Y-115634684D01*
X105787805Y-115667440D01*
X105910950Y-115804207D01*
X106059839Y-115912381D01*
X106059843Y-115912383D01*
X106059845Y-115912384D01*
X106123100Y-115940547D01*
X106166926Y-115960059D01*
X106212395Y-116001000D01*
X106225117Y-116060848D01*
X106200231Y-116116744D01*
X106147243Y-116147337D01*
X106126659Y-116149500D01*
X100002036Y-116149500D01*
X99997945Y-116149415D01*
X99578856Y-116132081D01*
X99570702Y-116131406D01*
X99156481Y-116079774D01*
X99148410Y-116078427D01*
X98739875Y-115992766D01*
X98731943Y-115990757D01*
X98331893Y-115871656D01*
X98324154Y-115869000D01*
X97935285Y-115717264D01*
X97927791Y-115713977D01*
X97832590Y-115667436D01*
X97552773Y-115530641D01*
X97545592Y-115526754D01*
X97370427Y-115422379D01*
X97187010Y-115313086D01*
X97180160Y-115308611D01*
X96840442Y-115066056D01*
X96833985Y-115061030D01*
X96515468Y-114791260D01*
X96509448Y-114785719D01*
X96214280Y-114490551D01*
X96208739Y-114484531D01*
X95938969Y-114166014D01*
X95933943Y-114159557D01*
X95691388Y-113819839D01*
X95686913Y-113812989D01*
X95546266Y-113576953D01*
X95473240Y-113454399D01*
X95469362Y-113447235D01*
X95326987Y-113156004D01*
X116479500Y-113156004D01*
X116479500Y-113893995D01*
X116506420Y-114029327D01*
X116506420Y-114029329D01*
X116559222Y-114156806D01*
X116559228Y-114156817D01*
X116635885Y-114271541D01*
X116733458Y-114369114D01*
X116848182Y-114445771D01*
X116848193Y-114445777D01*
X116871071Y-114455253D01*
X116975672Y-114498580D01*
X117111007Y-114525500D01*
X117111008Y-114525500D01*
X117248992Y-114525500D01*
X117248993Y-114525500D01*
X117384328Y-114498580D01*
X117511811Y-114445775D01*
X117626542Y-114369114D01*
X117724114Y-114271542D01*
X117800775Y-114156811D01*
X117853580Y-114029328D01*
X117880500Y-113893993D01*
X117880500Y-113156007D01*
X117880499Y-113156004D01*
X125119500Y-113156004D01*
X125119500Y-113893995D01*
X125146420Y-114029327D01*
X125146420Y-114029329D01*
X125199222Y-114156806D01*
X125199228Y-114156817D01*
X125275885Y-114271541D01*
X125373458Y-114369114D01*
X125488182Y-114445771D01*
X125488193Y-114445777D01*
X125511071Y-114455253D01*
X125615672Y-114498580D01*
X125751007Y-114525500D01*
X125751008Y-114525500D01*
X125888992Y-114525500D01*
X125888993Y-114525500D01*
X126024328Y-114498580D01*
X126151811Y-114445775D01*
X126266542Y-114369114D01*
X126364114Y-114271542D01*
X126440775Y-114156811D01*
X126493580Y-114029328D01*
X126520500Y-113893993D01*
X126520500Y-113156007D01*
X126493580Y-113020672D01*
X126440775Y-112893189D01*
X126440774Y-112893187D01*
X126440771Y-112893182D01*
X126364114Y-112778458D01*
X126266541Y-112680885D01*
X126151817Y-112604228D01*
X126151806Y-112604222D01*
X126024328Y-112551420D01*
X125888995Y-112524500D01*
X125888993Y-112524500D01*
X125751007Y-112524500D01*
X125751004Y-112524500D01*
X125615672Y-112551420D01*
X125615670Y-112551420D01*
X125488193Y-112604222D01*
X125488182Y-112604228D01*
X125373458Y-112680885D01*
X125275885Y-112778458D01*
X125199228Y-112893182D01*
X125199222Y-112893193D01*
X125146420Y-113020670D01*
X125146420Y-113020672D01*
X125119500Y-113156004D01*
X117880499Y-113156004D01*
X117853580Y-113020672D01*
X117800775Y-112893189D01*
X117800774Y-112893187D01*
X117800771Y-112893182D01*
X117724114Y-112778458D01*
X117626541Y-112680885D01*
X117511817Y-112604228D01*
X117511806Y-112604222D01*
X117384328Y-112551420D01*
X117248995Y-112524500D01*
X117248993Y-112524500D01*
X117111007Y-112524500D01*
X117111004Y-112524500D01*
X116975672Y-112551420D01*
X116975670Y-112551420D01*
X116848193Y-112604222D01*
X116848182Y-112604228D01*
X116733458Y-112680885D01*
X116635885Y-112778458D01*
X116559228Y-112893182D01*
X116559222Y-112893193D01*
X116506420Y-113020670D01*
X116506420Y-113020672D01*
X116479500Y-113156004D01*
X95326987Y-113156004D01*
X95286016Y-113072196D01*
X95282740Y-113064726D01*
X95132966Y-112680886D01*
X95130999Y-112675845D01*
X95128343Y-112668106D01*
X95081258Y-112509953D01*
X95009239Y-112268046D01*
X95007233Y-112260124D01*
X94963175Y-112050000D01*
X120994353Y-112050000D01*
X120994353Y-112050005D01*
X121014834Y-112192459D01*
X121018657Y-112200829D01*
X121074623Y-112323376D01*
X121168872Y-112432146D01*
X121168873Y-112432147D01*
X121289942Y-112509953D01*
X121289947Y-112509956D01*
X121396403Y-112541214D01*
X121428035Y-112550502D01*
X121428036Y-112550502D01*
X121428039Y-112550503D01*
X121428041Y-112550503D01*
X121571959Y-112550503D01*
X121571961Y-112550503D01*
X121710053Y-112509956D01*
X121831128Y-112432146D01*
X121925377Y-112323376D01*
X121985165Y-112192460D01*
X122005647Y-112050003D01*
X121985165Y-111907546D01*
X121925377Y-111776630D01*
X121831128Y-111667860D01*
X121831127Y-111667859D01*
X121831126Y-111667858D01*
X121710057Y-111590052D01*
X121710054Y-111590050D01*
X121710053Y-111590050D01*
X121710050Y-111590049D01*
X121571964Y-111549503D01*
X121571961Y-111549503D01*
X121428039Y-111549503D01*
X121428035Y-111549503D01*
X121289949Y-111590049D01*
X121289942Y-111590052D01*
X121168873Y-111667858D01*
X121074622Y-111776631D01*
X121014834Y-111907546D01*
X120994353Y-112050000D01*
X94963175Y-112050000D01*
X94921569Y-111851574D01*
X94920227Y-111843533D01*
X94868592Y-111429286D01*
X94867918Y-111421143D01*
X94850585Y-111002055D01*
X94850500Y-110997964D01*
X94850500Y-108726004D01*
X116479500Y-108726004D01*
X116479500Y-109963995D01*
X116506420Y-110099327D01*
X116506420Y-110099329D01*
X116559222Y-110226806D01*
X116559228Y-110226817D01*
X116635885Y-110341541D01*
X116733458Y-110439114D01*
X116848182Y-110515771D01*
X116848193Y-110515777D01*
X116895283Y-110535282D01*
X116975672Y-110568580D01*
X117111007Y-110595500D01*
X117111008Y-110595500D01*
X117248992Y-110595500D01*
X117248993Y-110595500D01*
X117384328Y-110568580D01*
X117511811Y-110515775D01*
X117626542Y-110439114D01*
X117724114Y-110341542D01*
X117800775Y-110226811D01*
X117853580Y-110099328D01*
X117880500Y-109963993D01*
X117880500Y-109775817D01*
X118084500Y-109775817D01*
X118084500Y-109914183D01*
X118120312Y-110047836D01*
X118189495Y-110167665D01*
X118287335Y-110265505D01*
X118407164Y-110334688D01*
X118540817Y-110370500D01*
X118540819Y-110370500D01*
X118679181Y-110370500D01*
X118679183Y-110370500D01*
X118812836Y-110334688D01*
X118932665Y-110265505D01*
X119030505Y-110167665D01*
X119099688Y-110047836D01*
X119135500Y-109914183D01*
X119135500Y-109775817D01*
X119115184Y-109699997D01*
X120194353Y-109699997D01*
X120194353Y-109700002D01*
X120214834Y-109842456D01*
X120270338Y-109963991D01*
X120274623Y-109973373D01*
X120339145Y-110047836D01*
X120368873Y-110082144D01*
X120489942Y-110159950D01*
X120489947Y-110159953D01*
X120596403Y-110191211D01*
X120628035Y-110200499D01*
X120628036Y-110200499D01*
X120628039Y-110200500D01*
X120628041Y-110200500D01*
X120771959Y-110200500D01*
X120771961Y-110200500D01*
X120910053Y-110159953D01*
X121031128Y-110082143D01*
X121125377Y-109973373D01*
X121185165Y-109842457D01*
X121205647Y-109700000D01*
X121205647Y-109699997D01*
X121794353Y-109699997D01*
X121794353Y-109700002D01*
X121814834Y-109842456D01*
X121870338Y-109963991D01*
X121874623Y-109973373D01*
X121939145Y-110047836D01*
X121968873Y-110082144D01*
X122089942Y-110159950D01*
X122089947Y-110159953D01*
X122196403Y-110191211D01*
X122228035Y-110200499D01*
X122228036Y-110200499D01*
X122228039Y-110200500D01*
X122228041Y-110200500D01*
X122371959Y-110200500D01*
X122371961Y-110200500D01*
X122510053Y-110159953D01*
X122631128Y-110082143D01*
X122725377Y-109973373D01*
X122785165Y-109842457D01*
X122794746Y-109775817D01*
X123864500Y-109775817D01*
X123864500Y-109914183D01*
X123900312Y-110047836D01*
X123969495Y-110167665D01*
X124067335Y-110265505D01*
X124187164Y-110334688D01*
X124320817Y-110370500D01*
X124320819Y-110370500D01*
X124459181Y-110370500D01*
X124459183Y-110370500D01*
X124592836Y-110334688D01*
X124712665Y-110265505D01*
X124810505Y-110167665D01*
X124879688Y-110047836D01*
X124915500Y-109914183D01*
X124915500Y-109775817D01*
X124879688Y-109642164D01*
X124810505Y-109522335D01*
X124712665Y-109424495D01*
X124592836Y-109355312D01*
X124459183Y-109319500D01*
X124320817Y-109319500D01*
X124187164Y-109355312D01*
X124067335Y-109424495D01*
X123969495Y-109522335D01*
X123900312Y-109642164D01*
X123864500Y-109775817D01*
X122794746Y-109775817D01*
X122805647Y-109700000D01*
X122785165Y-109557543D01*
X122725377Y-109426627D01*
X122631128Y-109317857D01*
X122631127Y-109317856D01*
X122631126Y-109317855D01*
X122510057Y-109240049D01*
X122510054Y-109240047D01*
X122510053Y-109240047D01*
X122510050Y-109240046D01*
X122371964Y-109199500D01*
X122371961Y-109199500D01*
X122228039Y-109199500D01*
X122228035Y-109199500D01*
X122089949Y-109240046D01*
X122089942Y-109240049D01*
X121968873Y-109317855D01*
X121874622Y-109426628D01*
X121814834Y-109557543D01*
X121794353Y-109699997D01*
X121205647Y-109699997D01*
X121185165Y-109557543D01*
X121125377Y-109426627D01*
X121031128Y-109317857D01*
X121031127Y-109317856D01*
X121031126Y-109317855D01*
X120910057Y-109240049D01*
X120910054Y-109240047D01*
X120910053Y-109240047D01*
X120910050Y-109240046D01*
X120771964Y-109199500D01*
X120771961Y-109199500D01*
X120628039Y-109199500D01*
X120628035Y-109199500D01*
X120489949Y-109240046D01*
X120489942Y-109240049D01*
X120368873Y-109317855D01*
X120274622Y-109426628D01*
X120214834Y-109557543D01*
X120194353Y-109699997D01*
X119115184Y-109699997D01*
X119099688Y-109642164D01*
X119030505Y-109522335D01*
X118932665Y-109424495D01*
X118812836Y-109355312D01*
X118679183Y-109319500D01*
X118540817Y-109319500D01*
X118407164Y-109355312D01*
X118287335Y-109424495D01*
X118189495Y-109522335D01*
X118120312Y-109642164D01*
X118084500Y-109775817D01*
X117880500Y-109775817D01*
X117880500Y-108726007D01*
X117880499Y-108726004D01*
X125119500Y-108726004D01*
X125119500Y-109963995D01*
X125146420Y-110099327D01*
X125146420Y-110099329D01*
X125199222Y-110226806D01*
X125199228Y-110226817D01*
X125275885Y-110341541D01*
X125373458Y-110439114D01*
X125488182Y-110515771D01*
X125488193Y-110515777D01*
X125535283Y-110535282D01*
X125615672Y-110568580D01*
X125751007Y-110595500D01*
X125751008Y-110595500D01*
X125888992Y-110595500D01*
X125888993Y-110595500D01*
X126024328Y-110568580D01*
X126151811Y-110515775D01*
X126266542Y-110439114D01*
X126364114Y-110341542D01*
X126440775Y-110226811D01*
X126493580Y-110099328D01*
X126520500Y-109963993D01*
X126520500Y-108726007D01*
X126493580Y-108590672D01*
X126440775Y-108463189D01*
X126440774Y-108463187D01*
X126440771Y-108463182D01*
X126364114Y-108348458D01*
X126266541Y-108250885D01*
X126151817Y-108174228D01*
X126151806Y-108174222D01*
X126024328Y-108121420D01*
X125888995Y-108094500D01*
X125888993Y-108094500D01*
X125751007Y-108094500D01*
X125751004Y-108094500D01*
X125615672Y-108121420D01*
X125615670Y-108121420D01*
X125488193Y-108174222D01*
X125488182Y-108174228D01*
X125373458Y-108250885D01*
X125275885Y-108348458D01*
X125199228Y-108463182D01*
X125199222Y-108463193D01*
X125146420Y-108590670D01*
X125146420Y-108590672D01*
X125119500Y-108726004D01*
X117880499Y-108726004D01*
X117853580Y-108590672D01*
X117800775Y-108463189D01*
X117800774Y-108463187D01*
X117800771Y-108463182D01*
X117724114Y-108348458D01*
X117626541Y-108250885D01*
X117511817Y-108174228D01*
X117511806Y-108174222D01*
X117384328Y-108121420D01*
X117248995Y-108094500D01*
X117248993Y-108094500D01*
X117111007Y-108094500D01*
X117111004Y-108094500D01*
X116975672Y-108121420D01*
X116975670Y-108121420D01*
X116848193Y-108174222D01*
X116848182Y-108174228D01*
X116733458Y-108250885D01*
X116635885Y-108348458D01*
X116559228Y-108463182D01*
X116559222Y-108463193D01*
X116506420Y-108590670D01*
X116506420Y-108590672D01*
X116479500Y-108726004D01*
X94850500Y-108726004D01*
X94850500Y-103808868D01*
X96894355Y-103808868D01*
X96894355Y-103808873D01*
X96914836Y-103951327D01*
X96963347Y-104057549D01*
X96974625Y-104082244D01*
X97053588Y-104173373D01*
X97068875Y-104191015D01*
X97189944Y-104268821D01*
X97189949Y-104268824D01*
X97296405Y-104300082D01*
X97328037Y-104309370D01*
X97328038Y-104309370D01*
X97328041Y-104309371D01*
X97328043Y-104309371D01*
X97471961Y-104309371D01*
X97471963Y-104309371D01*
X97610055Y-104268824D01*
X97731130Y-104191014D01*
X97825379Y-104082244D01*
X97885167Y-103951328D01*
X97895979Y-103876128D01*
X97905649Y-103808873D01*
X97905649Y-103808868D01*
X97885167Y-103666414D01*
X97851393Y-103592460D01*
X97825379Y-103535498D01*
X97731130Y-103426728D01*
X97731129Y-103426727D01*
X97731128Y-103426726D01*
X97610059Y-103348920D01*
X97610056Y-103348918D01*
X97610055Y-103348918D01*
X97610052Y-103348917D01*
X97471966Y-103308371D01*
X97471963Y-103308371D01*
X97328041Y-103308371D01*
X97328037Y-103308371D01*
X97189951Y-103348917D01*
X97189944Y-103348920D01*
X97068875Y-103426726D01*
X96974624Y-103535499D01*
X96914836Y-103666414D01*
X96894355Y-103808868D01*
X94850500Y-103808868D01*
X94850500Y-102999997D01*
X100919353Y-102999997D01*
X100919353Y-103000002D01*
X100939834Y-103142456D01*
X100985504Y-103242457D01*
X100999623Y-103273373D01*
X101086271Y-103373371D01*
X101093873Y-103382144D01*
X101214942Y-103459950D01*
X101214947Y-103459953D01*
X101321403Y-103491211D01*
X101353035Y-103500499D01*
X101353036Y-103500499D01*
X101353039Y-103500500D01*
X101353041Y-103500500D01*
X101496959Y-103500500D01*
X101496961Y-103500500D01*
X101635053Y-103459953D01*
X101756128Y-103382143D01*
X101850377Y-103273373D01*
X101910165Y-103142457D01*
X101921082Y-103066530D01*
X101930647Y-103000002D01*
X101930647Y-102999997D01*
X101910165Y-102857543D01*
X101850377Y-102726628D01*
X101850377Y-102726627D01*
X101827302Y-102699997D01*
X112344353Y-102699997D01*
X112344353Y-102700002D01*
X112364834Y-102842456D01*
X112424622Y-102973371D01*
X112424623Y-102973373D01*
X112456508Y-103010171D01*
X112480325Y-103066530D01*
X112466466Y-103126125D01*
X112456509Y-103139830D01*
X112424623Y-103176629D01*
X112424621Y-103176633D01*
X112364834Y-103307546D01*
X112344353Y-103450000D01*
X112344353Y-103450005D01*
X112364834Y-103592459D01*
X112380439Y-103626628D01*
X112424623Y-103723376D01*
X112518872Y-103832146D01*
X112518873Y-103832147D01*
X112587309Y-103876128D01*
X112639947Y-103909956D01*
X112696755Y-103926636D01*
X112778035Y-103950502D01*
X112778036Y-103950502D01*
X112778039Y-103950503D01*
X112778041Y-103950503D01*
X112921959Y-103950503D01*
X112921961Y-103950503D01*
X113060053Y-103909956D01*
X113181128Y-103832146D01*
X113275377Y-103723376D01*
X113335165Y-103592460D01*
X113345891Y-103517857D01*
X113355647Y-103450005D01*
X113355647Y-103450000D01*
X113335165Y-103307546D01*
X113275377Y-103176630D01*
X113264972Y-103164622D01*
X113243492Y-103139832D01*
X113219674Y-103083473D01*
X113233533Y-103023877D01*
X113243486Y-103010177D01*
X113275377Y-102973373D01*
X113335165Y-102842457D01*
X113351819Y-102726627D01*
X113355647Y-102700002D01*
X113355647Y-102699997D01*
X114494353Y-102699997D01*
X114494353Y-102700002D01*
X114514834Y-102842456D01*
X114574622Y-102973371D01*
X114574623Y-102973373D01*
X114606508Y-103010171D01*
X114630325Y-103066530D01*
X114616466Y-103126125D01*
X114606509Y-103139830D01*
X114574623Y-103176629D01*
X114574621Y-103176633D01*
X114514834Y-103307546D01*
X114494353Y-103450000D01*
X114494353Y-103450005D01*
X114514834Y-103592459D01*
X114530439Y-103626628D01*
X114574623Y-103723376D01*
X114606508Y-103760174D01*
X114630325Y-103816533D01*
X114616466Y-103876128D01*
X114606509Y-103889833D01*
X114574623Y-103926632D01*
X114574621Y-103926636D01*
X114514834Y-104057549D01*
X114494353Y-104200003D01*
X114494353Y-104200008D01*
X114514834Y-104342462D01*
X114541339Y-104400499D01*
X114574623Y-104473379D01*
X114668872Y-104582149D01*
X114668873Y-104582150D01*
X114789942Y-104659956D01*
X114789947Y-104659959D01*
X114896403Y-104691217D01*
X114928035Y-104700505D01*
X114928036Y-104700505D01*
X114928039Y-104700506D01*
X114928041Y-104700506D01*
X115071959Y-104700506D01*
X115071961Y-104700506D01*
X115210053Y-104659959D01*
X115331128Y-104582149D01*
X115425377Y-104473379D01*
X115485165Y-104342463D01*
X115491992Y-104294977D01*
X115505647Y-104200008D01*
X115505647Y-104200003D01*
X115485165Y-104057549D01*
X115436278Y-103950503D01*
X115425377Y-103926633D01*
X115414972Y-103914625D01*
X115402297Y-103899997D01*
X123494353Y-103899997D01*
X123494353Y-103900002D01*
X123514834Y-104042456D01*
X123521727Y-104057549D01*
X123574623Y-104173373D01*
X123657329Y-104268821D01*
X123668873Y-104282144D01*
X123762730Y-104342462D01*
X123789947Y-104359953D01*
X123896403Y-104391211D01*
X123928035Y-104400499D01*
X123928036Y-104400499D01*
X123928039Y-104400500D01*
X123928041Y-104400500D01*
X124071959Y-104400500D01*
X124071961Y-104400500D01*
X124210053Y-104359953D01*
X124331128Y-104282143D01*
X124425377Y-104173373D01*
X124485165Y-104042457D01*
X124498267Y-103951328D01*
X124505647Y-103900002D01*
X124505647Y-103899997D01*
X124485165Y-103757543D01*
X124425377Y-103626628D01*
X124425377Y-103626627D01*
X124331128Y-103517857D01*
X124331127Y-103517856D01*
X124331126Y-103517855D01*
X124210057Y-103440049D01*
X124210054Y-103440047D01*
X124210053Y-103440047D01*
X124210050Y-103440046D01*
X124071964Y-103399500D01*
X124071961Y-103399500D01*
X123928039Y-103399500D01*
X123928035Y-103399500D01*
X123789949Y-103440046D01*
X123789942Y-103440049D01*
X123668873Y-103517855D01*
X123574622Y-103626628D01*
X123514834Y-103757543D01*
X123494353Y-103899997D01*
X115402297Y-103899997D01*
X115393492Y-103889835D01*
X115369674Y-103833476D01*
X115383533Y-103773880D01*
X115393486Y-103760180D01*
X115425377Y-103723376D01*
X115485165Y-103592460D01*
X115495891Y-103517857D01*
X115505647Y-103450005D01*
X115505647Y-103450000D01*
X115485165Y-103307546D01*
X115425377Y-103176630D01*
X115414972Y-103164622D01*
X115393492Y-103139832D01*
X115369674Y-103083473D01*
X115383533Y-103023877D01*
X115393486Y-103010177D01*
X115425377Y-102973373D01*
X115485165Y-102842457D01*
X115501819Y-102726627D01*
X115505647Y-102700002D01*
X115505647Y-102699997D01*
X115485165Y-102557543D01*
X115450731Y-102482144D01*
X115425377Y-102426627D01*
X115331128Y-102317857D01*
X115331127Y-102317856D01*
X115331126Y-102317855D01*
X115210057Y-102240049D01*
X115210054Y-102240047D01*
X115210053Y-102240047D01*
X115210050Y-102240046D01*
X115071964Y-102199500D01*
X115071961Y-102199500D01*
X114928039Y-102199500D01*
X114928035Y-102199500D01*
X114789949Y-102240046D01*
X114789942Y-102240049D01*
X114668873Y-102317855D01*
X114574622Y-102426628D01*
X114514834Y-102557543D01*
X114494353Y-102699997D01*
X113355647Y-102699997D01*
X113335165Y-102557543D01*
X113300731Y-102482144D01*
X113275377Y-102426627D01*
X113181128Y-102317857D01*
X113181127Y-102317856D01*
X113181126Y-102317855D01*
X113060057Y-102240049D01*
X113060054Y-102240047D01*
X113060053Y-102240047D01*
X113060050Y-102240046D01*
X112921964Y-102199500D01*
X112921961Y-102199500D01*
X112778039Y-102199500D01*
X112778035Y-102199500D01*
X112639949Y-102240046D01*
X112639942Y-102240049D01*
X112518873Y-102317855D01*
X112424622Y-102426628D01*
X112364834Y-102557543D01*
X112344353Y-102699997D01*
X101827302Y-102699997D01*
X101756128Y-102617857D01*
X101756127Y-102617856D01*
X101756126Y-102617855D01*
X101635057Y-102540049D01*
X101635054Y-102540047D01*
X101635053Y-102540047D01*
X101635050Y-102540046D01*
X101496964Y-102499500D01*
X101496961Y-102499500D01*
X101353039Y-102499500D01*
X101353035Y-102499500D01*
X101214949Y-102540046D01*
X101214942Y-102540049D01*
X101093873Y-102617855D01*
X100999622Y-102726628D01*
X100939834Y-102857543D01*
X100919353Y-102999997D01*
X94850500Y-102999997D01*
X94850500Y-101399997D01*
X111844353Y-101399997D01*
X111844353Y-101400002D01*
X111864834Y-101542456D01*
X111891114Y-101600000D01*
X111924623Y-101673373D01*
X111976404Y-101733132D01*
X112018873Y-101782144D01*
X112088092Y-101826628D01*
X112139947Y-101859953D01*
X112246403Y-101891211D01*
X112278035Y-101900499D01*
X112278036Y-101900499D01*
X112278039Y-101900500D01*
X112278041Y-101900500D01*
X112421959Y-101900500D01*
X112421961Y-101900500D01*
X112560053Y-101859953D01*
X112681128Y-101782143D01*
X112775377Y-101673373D01*
X112835165Y-101542457D01*
X112855647Y-101400000D01*
X112853483Y-101384950D01*
X112835165Y-101257543D01*
X112809413Y-101201155D01*
X112775377Y-101126627D01*
X112681128Y-101017857D01*
X112681127Y-101017856D01*
X112681126Y-101017855D01*
X112560057Y-100940049D01*
X112560054Y-100940047D01*
X112560053Y-100940047D01*
X112560050Y-100940046D01*
X112421964Y-100899500D01*
X112421961Y-100899500D01*
X112278039Y-100899500D01*
X112278035Y-100899500D01*
X112139949Y-100940046D01*
X112139942Y-100940049D01*
X112018873Y-101017855D01*
X111924622Y-101126628D01*
X111864834Y-101257543D01*
X111844353Y-101399997D01*
X94850500Y-101399997D01*
X94850500Y-100799997D01*
X114569353Y-100799997D01*
X114569353Y-100800002D01*
X114589834Y-100942456D01*
X114627532Y-101025002D01*
X114649623Y-101073373D01*
X114699316Y-101130722D01*
X114743873Y-101182144D01*
X114861197Y-101257543D01*
X114864947Y-101259953D01*
X114954014Y-101286105D01*
X115003035Y-101300499D01*
X115003036Y-101300499D01*
X115003039Y-101300500D01*
X115003041Y-101300500D01*
X115146959Y-101300500D01*
X115146961Y-101300500D01*
X115240019Y-101273176D01*
X115697879Y-101273176D01*
X115697879Y-101273181D01*
X115718360Y-101415635D01*
X115750016Y-101484950D01*
X115778149Y-101546552D01*
X115859162Y-101640047D01*
X115872399Y-101655323D01*
X115969706Y-101717858D01*
X115993473Y-101733132D01*
X116099929Y-101764390D01*
X116131561Y-101773678D01*
X116131562Y-101773678D01*
X116131565Y-101773679D01*
X116131567Y-101773679D01*
X116275485Y-101773679D01*
X116275487Y-101773679D01*
X116413579Y-101733132D01*
X116534654Y-101655322D01*
X116628903Y-101546552D01*
X116688691Y-101415636D01*
X116709173Y-101273179D01*
X116707271Y-101259953D01*
X116688691Y-101130722D01*
X116655716Y-101058517D01*
X116648741Y-100997730D01*
X116678827Y-100944453D01*
X116692240Y-100934109D01*
X116706128Y-100925185D01*
X116800377Y-100816415D01*
X116860165Y-100685499D01*
X116877483Y-100565047D01*
X116880647Y-100543044D01*
X116880647Y-100543039D01*
X116860165Y-100400585D01*
X116815994Y-100303865D01*
X116812365Y-100295920D01*
X116805391Y-100235134D01*
X116834022Y-100184432D01*
X116834003Y-100184415D01*
X116834087Y-100184317D01*
X116835477Y-100181857D01*
X116837589Y-100179973D01*
X116838628Y-100179071D01*
X116838640Y-100179064D01*
X116932889Y-100070294D01*
X116992677Y-99939378D01*
X117004378Y-99857996D01*
X117004715Y-99855650D01*
X121411159Y-99855650D01*
X121411159Y-99855655D01*
X121431640Y-99998109D01*
X121483971Y-100112696D01*
X121491429Y-100129026D01*
X121585677Y-100237795D01*
X121585679Y-100237797D01*
X121706585Y-100315498D01*
X121706753Y-100315606D01*
X121796654Y-100342003D01*
X121844841Y-100356152D01*
X121844842Y-100356152D01*
X121844845Y-100356153D01*
X121844847Y-100356153D01*
X121988765Y-100356153D01*
X121988767Y-100356153D01*
X122126859Y-100315606D01*
X122247934Y-100237796D01*
X122254471Y-100230252D01*
X122306866Y-100198655D01*
X122367827Y-100203890D01*
X122404111Y-100230252D01*
X122410647Y-100237795D01*
X122410648Y-100237796D01*
X122513456Y-100303867D01*
X122531723Y-100315606D01*
X122621624Y-100342003D01*
X122669811Y-100356152D01*
X122669812Y-100356152D01*
X122669815Y-100356153D01*
X122669817Y-100356153D01*
X122813735Y-100356153D01*
X122813737Y-100356153D01*
X122951829Y-100315606D01*
X123072904Y-100237796D01*
X123167153Y-100129026D01*
X123226941Y-99998110D01*
X123247423Y-99855653D01*
X123245027Y-99838990D01*
X123226941Y-99713196D01*
X123167153Y-99582280D01*
X123072904Y-99473510D01*
X123072903Y-99473509D01*
X123072902Y-99473508D01*
X122951833Y-99395702D01*
X122951830Y-99395700D01*
X122951829Y-99395700D01*
X122951826Y-99395699D01*
X122813740Y-99355153D01*
X122813737Y-99355153D01*
X122669815Y-99355153D01*
X122669811Y-99355153D01*
X122531725Y-99395699D01*
X122531718Y-99395702D01*
X122410652Y-99473507D01*
X122410649Y-99473509D01*
X122410648Y-99473509D01*
X122410648Y-99473510D01*
X122404107Y-99481057D01*
X122351712Y-99512652D01*
X122290751Y-99507414D01*
X122254474Y-99481058D01*
X122247934Y-99473510D01*
X122208409Y-99448109D01*
X122126863Y-99395702D01*
X122126860Y-99395700D01*
X122126859Y-99395700D01*
X122126856Y-99395699D01*
X121988770Y-99355153D01*
X121988767Y-99355153D01*
X121844845Y-99355153D01*
X121844841Y-99355153D01*
X121706755Y-99395699D01*
X121706748Y-99395702D01*
X121585679Y-99473508D01*
X121491428Y-99582281D01*
X121431640Y-99713196D01*
X121411159Y-99855650D01*
X117004715Y-99855650D01*
X117013159Y-99796923D01*
X117013159Y-99796918D01*
X116992677Y-99654464D01*
X116986092Y-99640046D01*
X116932889Y-99523548D01*
X116838640Y-99414778D01*
X116838639Y-99414777D01*
X116838638Y-99414776D01*
X116717569Y-99336970D01*
X116717566Y-99336968D01*
X116717565Y-99336968D01*
X116717562Y-99336967D01*
X116579476Y-99296421D01*
X116579473Y-99296421D01*
X116435551Y-99296421D01*
X116435547Y-99296421D01*
X116297461Y-99336967D01*
X116297454Y-99336970D01*
X116176385Y-99414776D01*
X116082134Y-99523549D01*
X116022346Y-99654464D01*
X116001865Y-99796918D01*
X116001865Y-99796923D01*
X116022346Y-99939377D01*
X116022346Y-99939379D01*
X116070145Y-100044042D01*
X116077120Y-100104828D01*
X116048488Y-100155529D01*
X116048509Y-100155548D01*
X116048419Y-100155650D01*
X116047034Y-100158105D01*
X116044928Y-100159983D01*
X116043876Y-100160894D01*
X115949622Y-100269670D01*
X115889834Y-100400585D01*
X115869353Y-100543039D01*
X115869353Y-100543044D01*
X115889833Y-100685496D01*
X115922810Y-100757704D01*
X115929784Y-100818490D01*
X115899697Y-100871767D01*
X115886282Y-100882112D01*
X115872400Y-100891033D01*
X115778148Y-100999807D01*
X115718360Y-101130722D01*
X115697879Y-101273176D01*
X115240019Y-101273176D01*
X115285053Y-101259953D01*
X115406128Y-101182143D01*
X115500377Y-101073373D01*
X115560165Y-100942457D01*
X115576819Y-100826627D01*
X115580647Y-100800002D01*
X115580647Y-100799997D01*
X115560165Y-100657543D01*
X115552175Y-100640047D01*
X115500377Y-100526627D01*
X115406128Y-100417857D01*
X115406127Y-100417856D01*
X115406126Y-100417855D01*
X115285057Y-100340049D01*
X115285054Y-100340047D01*
X115285053Y-100340047D01*
X115265845Y-100334407D01*
X115146964Y-100299500D01*
X115146961Y-100299500D01*
X115003039Y-100299500D01*
X115003035Y-100299500D01*
X114864949Y-100340046D01*
X114864942Y-100340049D01*
X114743873Y-100417855D01*
X114649622Y-100526628D01*
X114589834Y-100657543D01*
X114569353Y-100799997D01*
X94850500Y-100799997D01*
X94850500Y-98699997D01*
X108713103Y-98699997D01*
X108713103Y-98700002D01*
X108733584Y-98842456D01*
X108785863Y-98956928D01*
X108793373Y-98973373D01*
X108870018Y-99061827D01*
X108887623Y-99082144D01*
X109004947Y-99157543D01*
X109008697Y-99159953D01*
X109088807Y-99183475D01*
X109146785Y-99200499D01*
X109146786Y-99200499D01*
X109146789Y-99200500D01*
X109146791Y-99200500D01*
X109290709Y-99200500D01*
X109290711Y-99200500D01*
X109428803Y-99159953D01*
X109549878Y-99082143D01*
X109644127Y-98973373D01*
X109677637Y-98899997D01*
X118194353Y-98899997D01*
X118194353Y-98900002D01*
X118214834Y-99042456D01*
X118268493Y-99159950D01*
X118274623Y-99173373D01*
X118339882Y-99248686D01*
X118368873Y-99282144D01*
X118482478Y-99355153D01*
X118489947Y-99359953D01*
X118596403Y-99391211D01*
X118628035Y-99400499D01*
X118628036Y-99400499D01*
X118628039Y-99400500D01*
X118628041Y-99400500D01*
X118771959Y-99400500D01*
X118771961Y-99400500D01*
X118910053Y-99359953D01*
X119031128Y-99282143D01*
X119125377Y-99173373D01*
X119125377Y-99173370D01*
X119128499Y-99169769D01*
X119180895Y-99138172D01*
X119241856Y-99143407D01*
X119288097Y-99183475D01*
X119301956Y-99243070D01*
X119301312Y-99248686D01*
X119296502Y-99282143D01*
X119293936Y-99299997D01*
X119293935Y-99300001D01*
X119293935Y-99300002D01*
X119314416Y-99442456D01*
X119332045Y-99481057D01*
X119374205Y-99573373D01*
X119431977Y-99640046D01*
X119468455Y-99682144D01*
X119566005Y-99744835D01*
X119589529Y-99759953D01*
X119695985Y-99791211D01*
X119727617Y-99800499D01*
X119727618Y-99800499D01*
X119727621Y-99800500D01*
X119727623Y-99800500D01*
X119871541Y-99800500D01*
X119871543Y-99800500D01*
X120009635Y-99759953D01*
X120130710Y-99682143D01*
X120224959Y-99573373D01*
X120284747Y-99442457D01*
X120304416Y-99305655D01*
X120304417Y-99305650D01*
X124419353Y-99305650D01*
X124419353Y-99305655D01*
X124439834Y-99448109D01*
X124474287Y-99523549D01*
X124499623Y-99579026D01*
X124564990Y-99654464D01*
X124593873Y-99687797D01*
X124714942Y-99765603D01*
X124714947Y-99765606D01*
X124821403Y-99796864D01*
X124853035Y-99806152D01*
X124853036Y-99806152D01*
X124853039Y-99806153D01*
X124853041Y-99806153D01*
X124996959Y-99806153D01*
X124996961Y-99806153D01*
X125135053Y-99765606D01*
X125256128Y-99687796D01*
X125350377Y-99579026D01*
X125410165Y-99448110D01*
X125423530Y-99355153D01*
X125430647Y-99305655D01*
X125430647Y-99305650D01*
X125410165Y-99163196D01*
X125407583Y-99157543D01*
X125350377Y-99032280D01*
X125256128Y-98923510D01*
X125256127Y-98923509D01*
X125256126Y-98923508D01*
X125135057Y-98845702D01*
X125135054Y-98845700D01*
X125135053Y-98845700D01*
X125135050Y-98845699D01*
X124996964Y-98805153D01*
X124996961Y-98805153D01*
X124853039Y-98805153D01*
X124853035Y-98805153D01*
X124714949Y-98845699D01*
X124714942Y-98845702D01*
X124593873Y-98923508D01*
X124499622Y-99032281D01*
X124439834Y-99163196D01*
X124419353Y-99305650D01*
X120304417Y-99305650D01*
X120305229Y-99300002D01*
X120305229Y-99299997D01*
X120284747Y-99157543D01*
X120250313Y-99082144D01*
X120224959Y-99026627D01*
X120130710Y-98917857D01*
X120130709Y-98917856D01*
X120130708Y-98917855D01*
X120009639Y-98840049D01*
X120009636Y-98840047D01*
X120009635Y-98840047D01*
X120009632Y-98840046D01*
X119871546Y-98799500D01*
X119871543Y-98799500D01*
X119727621Y-98799500D01*
X119727617Y-98799500D01*
X119589531Y-98840046D01*
X119589524Y-98840049D01*
X119468454Y-98917856D01*
X119468452Y-98917858D01*
X119371081Y-99030231D01*
X119318685Y-99061827D01*
X119257724Y-99056591D01*
X119211484Y-99016523D01*
X119197625Y-98956928D01*
X119198270Y-98951311D01*
X119205647Y-98900002D01*
X119205647Y-98899997D01*
X119185165Y-98757543D01*
X119125377Y-98626627D01*
X119031128Y-98517857D01*
X119031127Y-98517856D01*
X119031126Y-98517855D01*
X118910057Y-98440049D01*
X118910054Y-98440047D01*
X118910053Y-98440047D01*
X118910050Y-98440046D01*
X118771964Y-98399500D01*
X118771961Y-98399500D01*
X118628039Y-98399500D01*
X118628035Y-98399500D01*
X118489949Y-98440046D01*
X118489942Y-98440049D01*
X118368873Y-98517855D01*
X118274622Y-98626628D01*
X118214834Y-98757543D01*
X118194353Y-98899997D01*
X109677637Y-98899997D01*
X109703915Y-98842457D01*
X109724397Y-98700000D01*
X109703915Y-98557543D01*
X109644127Y-98426627D01*
X109549878Y-98317857D01*
X109549877Y-98317856D01*
X109549876Y-98317855D01*
X109428807Y-98240049D01*
X109428804Y-98240047D01*
X109428803Y-98240047D01*
X109428800Y-98240046D01*
X109290714Y-98199500D01*
X109290711Y-98199500D01*
X109146789Y-98199500D01*
X109146785Y-98199500D01*
X109008699Y-98240046D01*
X109008692Y-98240049D01*
X108887623Y-98317855D01*
X108793372Y-98426628D01*
X108733584Y-98557543D01*
X108713103Y-98699997D01*
X94850500Y-98699997D01*
X94850500Y-93180253D01*
X96399500Y-93180253D01*
X96399500Y-95219746D01*
X96399501Y-95219758D01*
X96402633Y-95235501D01*
X96411133Y-95278231D01*
X96455448Y-95344552D01*
X96521769Y-95388867D01*
X96566231Y-95397711D01*
X96580241Y-95400498D01*
X96580246Y-95400498D01*
X96580252Y-95400500D01*
X98122388Y-95400500D01*
X98180579Y-95419407D01*
X98192391Y-95429496D01*
X98448342Y-95685446D01*
X98623386Y-95860490D01*
X98714173Y-95912905D01*
X98726114Y-95919799D01*
X98840691Y-95950500D01*
X99440691Y-95950500D01*
X110515973Y-95950500D01*
X110574164Y-95969407D01*
X110610128Y-96018907D01*
X110613965Y-96063589D01*
X110594353Y-96199997D01*
X110594353Y-96200002D01*
X110614834Y-96342456D01*
X110674623Y-96473373D01*
X110728169Y-96535170D01*
X110751986Y-96591529D01*
X110738127Y-96651124D01*
X110728169Y-96664830D01*
X110674623Y-96726626D01*
X110614834Y-96857543D01*
X110594353Y-96999997D01*
X110594353Y-97000002D01*
X110614834Y-97142456D01*
X110677564Y-97279813D01*
X110675826Y-97280606D01*
X110688996Y-97330713D01*
X110666797Y-97387729D01*
X110628297Y-97413268D01*
X110629394Y-97415669D01*
X110622948Y-97418612D01*
X110501879Y-97496418D01*
X110407628Y-97605191D01*
X110347840Y-97736106D01*
X110327359Y-97878560D01*
X110327359Y-97878565D01*
X110347840Y-98021019D01*
X110407628Y-98151934D01*
X110407629Y-98151936D01*
X110484327Y-98240451D01*
X110501879Y-98260707D01*
X110590807Y-98317857D01*
X110622953Y-98338516D01*
X110713971Y-98365241D01*
X110761041Y-98379062D01*
X110761042Y-98379062D01*
X110761045Y-98379063D01*
X110761047Y-98379063D01*
X110904965Y-98379063D01*
X110904967Y-98379063D01*
X111043059Y-98338516D01*
X111164134Y-98260706D01*
X111258383Y-98151936D01*
X111318171Y-98021020D01*
X111331905Y-97925498D01*
X111338653Y-97878565D01*
X111338653Y-97878560D01*
X111318171Y-97736106D01*
X111255442Y-97598750D01*
X111257179Y-97597956D01*
X111244008Y-97547855D01*
X111266204Y-97490838D01*
X111304714Y-97465307D01*
X111303612Y-97462894D01*
X111310045Y-97459955D01*
X111310053Y-97459953D01*
X111431128Y-97382143D01*
X111525377Y-97273373D01*
X111585165Y-97142457D01*
X111605647Y-97000000D01*
X111600621Y-96965046D01*
X111585165Y-96857543D01*
X111525377Y-96726627D01*
X111471828Y-96664828D01*
X111448012Y-96608473D01*
X111461870Y-96548877D01*
X111471820Y-96535180D01*
X111525377Y-96473373D01*
X111585165Y-96342457D01*
X111591992Y-96294971D01*
X111605647Y-96200002D01*
X111605647Y-96199997D01*
X111586035Y-96063589D01*
X111596468Y-96003300D01*
X111640346Y-95960657D01*
X111684027Y-95950500D01*
X119254924Y-95950500D01*
X119313115Y-95969407D01*
X119349079Y-96018907D01*
X119349079Y-96080093D01*
X119344977Y-96090627D01*
X119314416Y-96157543D01*
X119293935Y-96299997D01*
X119293935Y-96300002D01*
X119314416Y-96442456D01*
X119328535Y-96473371D01*
X119374205Y-96573373D01*
X119453454Y-96664832D01*
X119468455Y-96682144D01*
X119537674Y-96726628D01*
X119589529Y-96759953D01*
X119615265Y-96767509D01*
X119665771Y-96802044D01*
X119686333Y-96859671D01*
X119669095Y-96918378D01*
X119620643Y-96955741D01*
X119615266Y-96957488D01*
X119589534Y-96965043D01*
X119589524Y-96965048D01*
X119468455Y-97042854D01*
X119374204Y-97151627D01*
X119314416Y-97282542D01*
X119293935Y-97424996D01*
X119293935Y-97425001D01*
X119314416Y-97567455D01*
X119341598Y-97626974D01*
X119374205Y-97698372D01*
X119449229Y-97784955D01*
X119468455Y-97807143D01*
X119589524Y-97884949D01*
X119589529Y-97884952D01*
X119695985Y-97916210D01*
X119727617Y-97925498D01*
X119727618Y-97925498D01*
X119727621Y-97925499D01*
X119727623Y-97925499D01*
X119871541Y-97925499D01*
X119871543Y-97925499D01*
X120009635Y-97884952D01*
X120130710Y-97807142D01*
X120224959Y-97698372D01*
X120284747Y-97567456D01*
X120299124Y-97467459D01*
X120305229Y-97425001D01*
X120305229Y-97424996D01*
X120284747Y-97282542D01*
X120280559Y-97273371D01*
X120224959Y-97151626D01*
X120130710Y-97042856D01*
X120130709Y-97042855D01*
X120130708Y-97042854D01*
X120009639Y-96965048D01*
X120009637Y-96965047D01*
X120009635Y-96965046D01*
X119983898Y-96957489D01*
X119933391Y-96922952D01*
X119912830Y-96865325D01*
X119930069Y-96806618D01*
X119978522Y-96769256D01*
X119983887Y-96767513D01*
X120009635Y-96759953D01*
X120130710Y-96682143D01*
X120224959Y-96573373D01*
X120284747Y-96442457D01*
X120305229Y-96300000D01*
X120284747Y-96157543D01*
X120254186Y-96090626D01*
X120247212Y-96029841D01*
X120277298Y-95976563D01*
X120332954Y-95951145D01*
X120344240Y-95950500D01*
X125572389Y-95950500D01*
X125630580Y-95969407D01*
X125642393Y-95979496D01*
X125787171Y-96124274D01*
X125814948Y-96178791D01*
X125816167Y-96194278D01*
X125816167Y-100035134D01*
X125797260Y-100093325D01*
X125787170Y-100105138D01*
X125358805Y-100533502D01*
X125316696Y-100558487D01*
X125294360Y-100565046D01*
X125294359Y-100565046D01*
X125173285Y-100642855D01*
X125079034Y-100751628D01*
X125019246Y-100882543D01*
X124998765Y-101024997D01*
X124998765Y-101025002D01*
X125019246Y-101167456D01*
X125061489Y-101259953D01*
X125079035Y-101298373D01*
X125173284Y-101407143D01*
X125173285Y-101407144D01*
X125289988Y-101482144D01*
X125294359Y-101484953D01*
X125400815Y-101516211D01*
X125432447Y-101525499D01*
X125432448Y-101525499D01*
X125432451Y-101525500D01*
X125432453Y-101525500D01*
X125576371Y-101525500D01*
X125576373Y-101525500D01*
X125714465Y-101484953D01*
X125835540Y-101407143D01*
X125929789Y-101298373D01*
X125974188Y-101201151D01*
X125994233Y-101172280D01*
X126627156Y-100539359D01*
X126660189Y-100482144D01*
X126686434Y-100436687D01*
X126686443Y-100436669D01*
X126686465Y-100436632D01*
X126686466Y-100436631D01*
X126717167Y-100322054D01*
X126717167Y-97324999D01*
X127669353Y-97324999D01*
X127669353Y-97325004D01*
X127689834Y-97467458D01*
X127749432Y-97597956D01*
X127749623Y-97598375D01*
X127836270Y-97698372D01*
X127843873Y-97707146D01*
X127964942Y-97784952D01*
X127964947Y-97784955D01*
X128071403Y-97816213D01*
X128103035Y-97825501D01*
X128103036Y-97825501D01*
X128103039Y-97825502D01*
X128103041Y-97825502D01*
X128246959Y-97825502D01*
X128246961Y-97825502D01*
X128385053Y-97784955D01*
X128506128Y-97707145D01*
X128600377Y-97598375D01*
X128660165Y-97467459D01*
X128672431Y-97382144D01*
X128680647Y-97325004D01*
X128680647Y-97324999D01*
X128660165Y-97182545D01*
X128600377Y-97051630D01*
X128600377Y-97051629D01*
X128506128Y-96942859D01*
X128506127Y-96942858D01*
X128506126Y-96942857D01*
X128385057Y-96865051D01*
X128385054Y-96865049D01*
X128385053Y-96865049D01*
X128385050Y-96865048D01*
X128246964Y-96824502D01*
X128246961Y-96824502D01*
X128103039Y-96824502D01*
X128103035Y-96824502D01*
X127964949Y-96865048D01*
X127964942Y-96865051D01*
X127843873Y-96942857D01*
X127749622Y-97051630D01*
X127689834Y-97182545D01*
X127669353Y-97324999D01*
X126717167Y-97324999D01*
X126717167Y-96160944D01*
X126736074Y-96102753D01*
X126746163Y-96090940D01*
X126857607Y-95979496D01*
X126912124Y-95951719D01*
X126927611Y-95950500D01*
X129797714Y-95950500D01*
X129833085Y-95958195D01*
X129833155Y-95957958D01*
X129836470Y-95958931D01*
X129838840Y-95959447D01*
X129839945Y-95959951D01*
X129839946Y-95959951D01*
X129839949Y-95959953D01*
X129953941Y-95993423D01*
X129978037Y-96000499D01*
X129978038Y-96000499D01*
X129978041Y-96000500D01*
X129978043Y-96000500D01*
X130121961Y-96000500D01*
X130121963Y-96000500D01*
X130260055Y-95959953D01*
X130381130Y-95882143D01*
X130475379Y-95773373D01*
X130535167Y-95642457D01*
X130555649Y-95500000D01*
X130535167Y-95357543D01*
X130475379Y-95226627D01*
X130381130Y-95117857D01*
X130381129Y-95117856D01*
X130381128Y-95117855D01*
X130260059Y-95040049D01*
X130260056Y-95040047D01*
X130260055Y-95040047D01*
X130260052Y-95040046D01*
X130121966Y-94999500D01*
X130121963Y-94999500D01*
X129978041Y-94999500D01*
X129978037Y-94999500D01*
X129839945Y-95040048D01*
X129838840Y-95040553D01*
X129836470Y-95041068D01*
X129833155Y-95042042D01*
X129833085Y-95041804D01*
X129797714Y-95049500D01*
X121784027Y-95049500D01*
X121725836Y-95030593D01*
X121689872Y-94981093D01*
X121686035Y-94936411D01*
X121705647Y-94800002D01*
X121705647Y-94799997D01*
X121685165Y-94657543D01*
X121625377Y-94526628D01*
X121625377Y-94526627D01*
X121531128Y-94417857D01*
X121531127Y-94417856D01*
X121531126Y-94417855D01*
X121410057Y-94340049D01*
X121410054Y-94340047D01*
X121410053Y-94340047D01*
X121410050Y-94340046D01*
X121271964Y-94299500D01*
X121271961Y-94299500D01*
X121128039Y-94299500D01*
X121128035Y-94299500D01*
X120989949Y-94340046D01*
X120989942Y-94340049D01*
X120878521Y-94411655D01*
X120819346Y-94427210D01*
X120771475Y-94411655D01*
X120660054Y-94340049D01*
X120660051Y-94340047D01*
X120660050Y-94340047D01*
X120660047Y-94340046D01*
X120521961Y-94299500D01*
X120521958Y-94299500D01*
X120378036Y-94299500D01*
X120378032Y-94299500D01*
X120239946Y-94340046D01*
X120239939Y-94340049D01*
X120118870Y-94417855D01*
X120024619Y-94526628D01*
X119964831Y-94657543D01*
X119944350Y-94799997D01*
X119944350Y-94800002D01*
X119963962Y-94936411D01*
X119953529Y-94996700D01*
X119909651Y-95039343D01*
X119865970Y-95049500D01*
X99127612Y-95049500D01*
X99069421Y-95030593D01*
X99057608Y-95020504D01*
X98829496Y-94792392D01*
X98801719Y-94737875D01*
X98800500Y-94722388D01*
X98800500Y-93499997D01*
X120694353Y-93499997D01*
X120694353Y-93500002D01*
X120714834Y-93642456D01*
X120737271Y-93691585D01*
X120774623Y-93773373D01*
X120810264Y-93814505D01*
X120868873Y-93882144D01*
X120976148Y-93951085D01*
X120989947Y-93959953D01*
X121096403Y-93991211D01*
X121128035Y-94000499D01*
X121128036Y-94000499D01*
X121128039Y-94000500D01*
X121128041Y-94000500D01*
X121271959Y-94000500D01*
X121271961Y-94000500D01*
X121410053Y-93959953D01*
X121531128Y-93882143D01*
X121625377Y-93773373D01*
X121685165Y-93642457D01*
X121704940Y-93504916D01*
X121705647Y-93500002D01*
X121705647Y-93499997D01*
X121685165Y-93357543D01*
X121637433Y-93253026D01*
X121625377Y-93226627D01*
X121531128Y-93117857D01*
X121531127Y-93117856D01*
X121531126Y-93117855D01*
X121410057Y-93040049D01*
X121410054Y-93040047D01*
X121410053Y-93040047D01*
X121410050Y-93040046D01*
X121271964Y-92999500D01*
X121271961Y-92999500D01*
X121128039Y-92999500D01*
X121128035Y-92999500D01*
X120989949Y-93040046D01*
X120989942Y-93040049D01*
X120868873Y-93117855D01*
X120774622Y-93226628D01*
X120714834Y-93357543D01*
X120694353Y-93499997D01*
X98800500Y-93499997D01*
X98800500Y-93180253D01*
X98800498Y-93180241D01*
X98793577Y-93145447D01*
X98788867Y-93121769D01*
X98744552Y-93055448D01*
X98744548Y-93055445D01*
X98678233Y-93011134D01*
X98678231Y-93011133D01*
X98678228Y-93011132D01*
X98678227Y-93011132D01*
X98619758Y-92999501D01*
X98619748Y-92999500D01*
X96580252Y-92999500D01*
X96580251Y-92999500D01*
X96580241Y-92999501D01*
X96521772Y-93011132D01*
X96521766Y-93011134D01*
X96455451Y-93055445D01*
X96455445Y-93055451D01*
X96411134Y-93121766D01*
X96411132Y-93121772D01*
X96399501Y-93180241D01*
X96399500Y-93180253D01*
X94850500Y-93180253D01*
X94850500Y-92599997D01*
X109569353Y-92599997D01*
X109569353Y-92600002D01*
X109589834Y-92742456D01*
X109649622Y-92873371D01*
X109649623Y-92873373D01*
X109743872Y-92982143D01*
X109743873Y-92982144D01*
X109864942Y-93059950D01*
X109864947Y-93059953D01*
X109971403Y-93091211D01*
X110003035Y-93100499D01*
X110003036Y-93100499D01*
X110003039Y-93100500D01*
X110003041Y-93100500D01*
X110146959Y-93100500D01*
X110146961Y-93100500D01*
X110285053Y-93059953D01*
X110406128Y-92982143D01*
X110500377Y-92873373D01*
X110560165Y-92742457D01*
X110576436Y-92629290D01*
X110580647Y-92600002D01*
X110580647Y-92599997D01*
X110560165Y-92457543D01*
X110525731Y-92382144D01*
X110500377Y-92326627D01*
X110406128Y-92217857D01*
X110406127Y-92217856D01*
X110406126Y-92217855D01*
X110285057Y-92140049D01*
X110285054Y-92140047D01*
X110285053Y-92140047D01*
X110285050Y-92140046D01*
X110146964Y-92099500D01*
X110146961Y-92099500D01*
X110003039Y-92099500D01*
X110003035Y-92099500D01*
X109864949Y-92140046D01*
X109864942Y-92140049D01*
X109743873Y-92217855D01*
X109649622Y-92326628D01*
X109589834Y-92457543D01*
X109569353Y-92599997D01*
X94850500Y-92599997D01*
X94850500Y-92062497D01*
X111494353Y-92062497D01*
X111494353Y-92062502D01*
X111514834Y-92204956D01*
X111520725Y-92217855D01*
X111574623Y-92335873D01*
X111668872Y-92444643D01*
X111668873Y-92444644D01*
X111755787Y-92500500D01*
X111789947Y-92522453D01*
X111873459Y-92546974D01*
X111928035Y-92562999D01*
X111928036Y-92562999D01*
X111928039Y-92563000D01*
X111928041Y-92563000D01*
X112071959Y-92563000D01*
X112071961Y-92563000D01*
X112210053Y-92522453D01*
X112331128Y-92444643D01*
X112425377Y-92335873D01*
X112485165Y-92204957D01*
X112505647Y-92062500D01*
X112496661Y-91999997D01*
X118494352Y-91999997D01*
X118494352Y-92000002D01*
X118514833Y-92142456D01*
X118543377Y-92204957D01*
X118574622Y-92273373D01*
X118668871Y-92382143D01*
X118668872Y-92382144D01*
X118786196Y-92457543D01*
X118789946Y-92459953D01*
X118896402Y-92491211D01*
X118928034Y-92500499D01*
X118928035Y-92500499D01*
X118928038Y-92500500D01*
X118928040Y-92500500D01*
X119071958Y-92500500D01*
X119071960Y-92500500D01*
X119210052Y-92459953D01*
X119331127Y-92382143D01*
X119425376Y-92273373D01*
X119485164Y-92142457D01*
X119505646Y-92000000D01*
X119497133Y-91940792D01*
X119485164Y-91857543D01*
X119425376Y-91726627D01*
X119331127Y-91617857D01*
X119331126Y-91617856D01*
X119331125Y-91617855D01*
X119210056Y-91540049D01*
X119210053Y-91540047D01*
X119210052Y-91540047D01*
X119210049Y-91540046D01*
X119071963Y-91499500D01*
X119071960Y-91499500D01*
X118928038Y-91499500D01*
X118928034Y-91499500D01*
X118789948Y-91540046D01*
X118789941Y-91540049D01*
X118668872Y-91617855D01*
X118574621Y-91726628D01*
X118514833Y-91857543D01*
X118494352Y-91999997D01*
X112496661Y-91999997D01*
X112485165Y-91920043D01*
X112425377Y-91789127D01*
X112331128Y-91680357D01*
X112331127Y-91680356D01*
X112331126Y-91680355D01*
X112210057Y-91602549D01*
X112210054Y-91602547D01*
X112210053Y-91602547D01*
X112210050Y-91602546D01*
X112071964Y-91562000D01*
X112071961Y-91562000D01*
X111928039Y-91562000D01*
X111928035Y-91562000D01*
X111789949Y-91602546D01*
X111789942Y-91602549D01*
X111668873Y-91680355D01*
X111574622Y-91789128D01*
X111514834Y-91920043D01*
X111494353Y-92062497D01*
X94850500Y-92062497D01*
X94850500Y-90999997D01*
X109569353Y-90999997D01*
X109569353Y-91000002D01*
X109589834Y-91142456D01*
X109635504Y-91242457D01*
X109649623Y-91273373D01*
X109736271Y-91373371D01*
X109743873Y-91382144D01*
X109864942Y-91459950D01*
X109864947Y-91459953D01*
X109971403Y-91491211D01*
X110003035Y-91500499D01*
X110003036Y-91500499D01*
X110003039Y-91500500D01*
X110003041Y-91500500D01*
X110146959Y-91500500D01*
X110146961Y-91500500D01*
X110285053Y-91459953D01*
X110406128Y-91382143D01*
X110500377Y-91273373D01*
X110560165Y-91142457D01*
X110566270Y-91099997D01*
X113294353Y-91099997D01*
X113294353Y-91100002D01*
X113314834Y-91242456D01*
X113349883Y-91319201D01*
X113374623Y-91373373D01*
X113468872Y-91482143D01*
X113468873Y-91482144D01*
X113589942Y-91559950D01*
X113589947Y-91559953D01*
X113696403Y-91591211D01*
X113728035Y-91600499D01*
X113728036Y-91600499D01*
X113728039Y-91600500D01*
X113728041Y-91600500D01*
X113871959Y-91600500D01*
X113871961Y-91600500D01*
X114010053Y-91559953D01*
X114131128Y-91482143D01*
X114225377Y-91373373D01*
X114258887Y-91299997D01*
X121294353Y-91299997D01*
X121294353Y-91300002D01*
X121314834Y-91442456D01*
X121359403Y-91540046D01*
X121374623Y-91573373D01*
X121468872Y-91682143D01*
X121468873Y-91682144D01*
X121589942Y-91759950D01*
X121589947Y-91759953D01*
X121689306Y-91789127D01*
X121728035Y-91800499D01*
X121728036Y-91800499D01*
X121728039Y-91800500D01*
X121728041Y-91800500D01*
X121871959Y-91800500D01*
X121871961Y-91800500D01*
X122010053Y-91759953D01*
X122119062Y-91689897D01*
X122178234Y-91674343D01*
X122226103Y-91689896D01*
X122339943Y-91763057D01*
X122428734Y-91789128D01*
X122478031Y-91803603D01*
X122478032Y-91803603D01*
X122478035Y-91803604D01*
X122478037Y-91803604D01*
X122621955Y-91803604D01*
X122621957Y-91803604D01*
X122760049Y-91763057D01*
X122881124Y-91685247D01*
X122975373Y-91576477D01*
X123035161Y-91445561D01*
X123055643Y-91303104D01*
X123055196Y-91299997D01*
X124444356Y-91299997D01*
X124444356Y-91300002D01*
X124464837Y-91442456D01*
X124509406Y-91540046D01*
X124524626Y-91573373D01*
X124618875Y-91682143D01*
X124618876Y-91682144D01*
X124739945Y-91759950D01*
X124739950Y-91759953D01*
X124839309Y-91789127D01*
X124878038Y-91800499D01*
X124878039Y-91800499D01*
X124878042Y-91800500D01*
X124878044Y-91800500D01*
X125021962Y-91800500D01*
X125021964Y-91800500D01*
X125160056Y-91759953D01*
X125271483Y-91688343D01*
X125330655Y-91672789D01*
X125378525Y-91688343D01*
X125489953Y-91759953D01*
X125589312Y-91789127D01*
X125628041Y-91800499D01*
X125628042Y-91800499D01*
X125628045Y-91800500D01*
X125628047Y-91800500D01*
X125771965Y-91800500D01*
X125771967Y-91800500D01*
X125910059Y-91759953D01*
X126031134Y-91682143D01*
X126125383Y-91573373D01*
X126185171Y-91442457D01*
X126195104Y-91373371D01*
X126205653Y-91300002D01*
X126205653Y-91299997D01*
X126994353Y-91299997D01*
X126994353Y-91300002D01*
X127014834Y-91442456D01*
X127059403Y-91540046D01*
X127074623Y-91573373D01*
X127168872Y-91682143D01*
X127168873Y-91682144D01*
X127289942Y-91759950D01*
X127289947Y-91759953D01*
X127389306Y-91789127D01*
X127428035Y-91800499D01*
X127428036Y-91800499D01*
X127428039Y-91800500D01*
X127428041Y-91800500D01*
X127571959Y-91800500D01*
X127571961Y-91800500D01*
X127710053Y-91759953D01*
X127831128Y-91682143D01*
X127831136Y-91682133D01*
X127835165Y-91678644D01*
X127891523Y-91654824D01*
X127951119Y-91668679D01*
X127964835Y-91678644D01*
X127968866Y-91682137D01*
X127968872Y-91682143D01*
X128089947Y-91759953D01*
X128189306Y-91789127D01*
X128228035Y-91800499D01*
X128228036Y-91800499D01*
X128228039Y-91800500D01*
X128228041Y-91800500D01*
X128371959Y-91800500D01*
X128371961Y-91800500D01*
X128510053Y-91759953D01*
X128631128Y-91682143D01*
X128725377Y-91573373D01*
X128785165Y-91442457D01*
X128795098Y-91373371D01*
X128805647Y-91300002D01*
X128805647Y-91299997D01*
X128785165Y-91157543D01*
X128770799Y-91126087D01*
X128725377Y-91026627D01*
X128631128Y-90917857D01*
X128631127Y-90917856D01*
X128631126Y-90917855D01*
X128510057Y-90840049D01*
X128510054Y-90840047D01*
X128510053Y-90840047D01*
X128510050Y-90840046D01*
X128371964Y-90799500D01*
X128371961Y-90799500D01*
X128228039Y-90799500D01*
X128228035Y-90799500D01*
X128089949Y-90840046D01*
X128089942Y-90840049D01*
X127968872Y-90917856D01*
X127964830Y-90921359D01*
X127908471Y-90945176D01*
X127848876Y-90931317D01*
X127835170Y-90921359D01*
X127831127Y-90917856D01*
X127710057Y-90840049D01*
X127710054Y-90840047D01*
X127710053Y-90840047D01*
X127710050Y-90840046D01*
X127571964Y-90799500D01*
X127571961Y-90799500D01*
X127428039Y-90799500D01*
X127428035Y-90799500D01*
X127289949Y-90840046D01*
X127289942Y-90840049D01*
X127168873Y-90917855D01*
X127074622Y-91026628D01*
X127014834Y-91157543D01*
X126994353Y-91299997D01*
X126205653Y-91299997D01*
X126185171Y-91157543D01*
X126170805Y-91126087D01*
X126125383Y-91026627D01*
X126031134Y-90917857D01*
X126031133Y-90917856D01*
X126031132Y-90917855D01*
X125910063Y-90840049D01*
X125910060Y-90840047D01*
X125910059Y-90840047D01*
X125910056Y-90840046D01*
X125771970Y-90799500D01*
X125771967Y-90799500D01*
X125628045Y-90799500D01*
X125628041Y-90799500D01*
X125489955Y-90840046D01*
X125489948Y-90840049D01*
X125378527Y-90911655D01*
X125319352Y-90927210D01*
X125271481Y-90911655D01*
X125160060Y-90840049D01*
X125160057Y-90840047D01*
X125160056Y-90840047D01*
X125160053Y-90840046D01*
X125021967Y-90799500D01*
X125021964Y-90799500D01*
X124878042Y-90799500D01*
X124878038Y-90799500D01*
X124739952Y-90840046D01*
X124739945Y-90840049D01*
X124618876Y-90917855D01*
X124524625Y-91026628D01*
X124464837Y-91157543D01*
X124444356Y-91299997D01*
X123055196Y-91299997D01*
X123035161Y-91160647D01*
X122975373Y-91029732D01*
X122975373Y-91029731D01*
X122881124Y-90920961D01*
X122881123Y-90920960D01*
X122881122Y-90920959D01*
X122760053Y-90843153D01*
X122760050Y-90843151D01*
X122760049Y-90843151D01*
X122760046Y-90843150D01*
X122621960Y-90802604D01*
X122621957Y-90802604D01*
X122478035Y-90802604D01*
X122478031Y-90802604D01*
X122339945Y-90843150D01*
X122339938Y-90843153D01*
X122230935Y-90913205D01*
X122171760Y-90928760D01*
X122123890Y-90913205D01*
X122010053Y-90840047D01*
X122010050Y-90840046D01*
X121871964Y-90799500D01*
X121871961Y-90799500D01*
X121728039Y-90799500D01*
X121728035Y-90799500D01*
X121589949Y-90840046D01*
X121589942Y-90840049D01*
X121468873Y-90917855D01*
X121374622Y-91026628D01*
X121314834Y-91157543D01*
X121294353Y-91299997D01*
X114258887Y-91299997D01*
X114285165Y-91242457D01*
X114301896Y-91126088D01*
X114305647Y-91100002D01*
X114305647Y-91099997D01*
X114285165Y-90957543D01*
X114232923Y-90843151D01*
X114225377Y-90826627D01*
X114131128Y-90717857D01*
X114131127Y-90717856D01*
X114131126Y-90717855D01*
X114010057Y-90640049D01*
X114010054Y-90640047D01*
X114010053Y-90640047D01*
X114010050Y-90640046D01*
X113871964Y-90599500D01*
X113871961Y-90599500D01*
X113728039Y-90599500D01*
X113728035Y-90599500D01*
X113589949Y-90640046D01*
X113589942Y-90640049D01*
X113468873Y-90717855D01*
X113374622Y-90826628D01*
X113314834Y-90957543D01*
X113294353Y-91099997D01*
X110566270Y-91099997D01*
X110576372Y-91029732D01*
X110580647Y-91000002D01*
X110580647Y-90999997D01*
X110560165Y-90857543D01*
X110534969Y-90802372D01*
X110500377Y-90726627D01*
X110406128Y-90617857D01*
X110406127Y-90617856D01*
X110406126Y-90617855D01*
X110285057Y-90540049D01*
X110285054Y-90540047D01*
X110285053Y-90540047D01*
X110285050Y-90540046D01*
X110146964Y-90499500D01*
X110146961Y-90499500D01*
X110003039Y-90499500D01*
X110003035Y-90499500D01*
X109864949Y-90540046D01*
X109864942Y-90540049D01*
X109743873Y-90617855D01*
X109649622Y-90726628D01*
X109589834Y-90857543D01*
X109569353Y-90999997D01*
X94850500Y-90999997D01*
X94850500Y-89488906D01*
X114105444Y-89488906D01*
X114105444Y-89488911D01*
X114125925Y-89631365D01*
X114185713Y-89762280D01*
X114185714Y-89762282D01*
X114275900Y-89866363D01*
X114279964Y-89871053D01*
X114366441Y-89926628D01*
X114401038Y-89948862D01*
X114480058Y-89972064D01*
X114539126Y-89989408D01*
X114539127Y-89989408D01*
X114539130Y-89989409D01*
X114539132Y-89989409D01*
X114610379Y-89989409D01*
X114668570Y-90008316D01*
X114704534Y-90057816D01*
X114708371Y-90102498D01*
X114694353Y-90199997D01*
X114694353Y-90200002D01*
X114714834Y-90342456D01*
X114736117Y-90389058D01*
X114774623Y-90473373D01*
X114863235Y-90575637D01*
X114868873Y-90582144D01*
X114968531Y-90646190D01*
X114989947Y-90659953D01*
X115088533Y-90688900D01*
X115128035Y-90700499D01*
X115128036Y-90700499D01*
X115128039Y-90700500D01*
X115128041Y-90700500D01*
X115271959Y-90700500D01*
X115271961Y-90700500D01*
X115410053Y-90659953D01*
X115463531Y-90625585D01*
X117144353Y-90625585D01*
X117144353Y-90625590D01*
X117164834Y-90768044D01*
X117199135Y-90843151D01*
X117224623Y-90898961D01*
X117284870Y-90968490D01*
X117318873Y-91007732D01*
X117353106Y-91029732D01*
X117439947Y-91085541D01*
X117546403Y-91116799D01*
X117578035Y-91126087D01*
X117578036Y-91126087D01*
X117578039Y-91126088D01*
X117578041Y-91126088D01*
X117721959Y-91126088D01*
X117721961Y-91126088D01*
X117860053Y-91085541D01*
X117981128Y-91007731D01*
X118075377Y-90898961D01*
X118135165Y-90768045D01*
X118141120Y-90726627D01*
X118144791Y-90701098D01*
X118171787Y-90646190D01*
X118225901Y-90617637D01*
X118242783Y-90616187D01*
X118271959Y-90616187D01*
X118271961Y-90616187D01*
X118410053Y-90575640D01*
X118531128Y-90497830D01*
X118625377Y-90389060D01*
X118685165Y-90258144D01*
X118693525Y-90199997D01*
X119994350Y-90199997D01*
X119994350Y-90200002D01*
X120014831Y-90342456D01*
X120036114Y-90389058D01*
X120074620Y-90473373D01*
X120163232Y-90575637D01*
X120168870Y-90582144D01*
X120268528Y-90646190D01*
X120289944Y-90659953D01*
X120388530Y-90688900D01*
X120428032Y-90700499D01*
X120428033Y-90700499D01*
X120428036Y-90700500D01*
X120428038Y-90700500D01*
X120571956Y-90700500D01*
X120571958Y-90700500D01*
X120710050Y-90659953D01*
X120831125Y-90582143D01*
X120925374Y-90473373D01*
X120985162Y-90342457D01*
X120997284Y-90258144D01*
X121005644Y-90200002D01*
X121005644Y-90199997D01*
X120985162Y-90057543D01*
X120977231Y-90040176D01*
X120925374Y-89926627D01*
X120893489Y-89889829D01*
X120876657Y-89849997D01*
X125194353Y-89849997D01*
X125194353Y-89850002D01*
X125214834Y-89992456D01*
X125271113Y-90115687D01*
X125274623Y-90123373D01*
X125311243Y-90165635D01*
X125368873Y-90232144D01*
X125409330Y-90258144D01*
X125489947Y-90309953D01*
X125596403Y-90341211D01*
X125628035Y-90350499D01*
X125628036Y-90350499D01*
X125628039Y-90350500D01*
X125628041Y-90350500D01*
X125771959Y-90350500D01*
X125771961Y-90350500D01*
X125910053Y-90309953D01*
X126031128Y-90232143D01*
X126125377Y-90123373D01*
X126185165Y-89992457D01*
X126194630Y-89926626D01*
X126205647Y-89850002D01*
X126205647Y-89849997D01*
X126185165Y-89707543D01*
X126155321Y-89642194D01*
X126125377Y-89576627D01*
X126031128Y-89467857D01*
X126031127Y-89467856D01*
X126031126Y-89467855D01*
X125910057Y-89390049D01*
X125910054Y-89390047D01*
X125910053Y-89390047D01*
X125910050Y-89390046D01*
X125771964Y-89349500D01*
X125771961Y-89349500D01*
X125628039Y-89349500D01*
X125628035Y-89349500D01*
X125489949Y-89390046D01*
X125489942Y-89390049D01*
X125368873Y-89467855D01*
X125274622Y-89576628D01*
X125214834Y-89707543D01*
X125194353Y-89849997D01*
X120876657Y-89849997D01*
X120869673Y-89833471D01*
X120883532Y-89773876D01*
X120893484Y-89760176D01*
X120925377Y-89723371D01*
X120985165Y-89592455D01*
X121000053Y-89488906D01*
X121005647Y-89450000D01*
X121005647Y-89449995D01*
X120985165Y-89307541D01*
X120962331Y-89257543D01*
X120925377Y-89176625D01*
X120831128Y-89067855D01*
X120831127Y-89067854D01*
X120831126Y-89067853D01*
X120710057Y-88990047D01*
X120710054Y-88990045D01*
X120710053Y-88990045D01*
X120710050Y-88990044D01*
X120571964Y-88949498D01*
X120571961Y-88949498D01*
X120428039Y-88949498D01*
X120428035Y-88949498D01*
X120289949Y-88990044D01*
X120289942Y-88990047D01*
X120168873Y-89067853D01*
X120074622Y-89176626D01*
X120014834Y-89307541D01*
X119994353Y-89449995D01*
X119994353Y-89450000D01*
X120014834Y-89592454D01*
X120074623Y-89723371D01*
X120106506Y-89760167D01*
X120130323Y-89816526D01*
X120116464Y-89876121D01*
X120106507Y-89889826D01*
X120074620Y-89926626D01*
X120074618Y-89926630D01*
X120014831Y-90057543D01*
X119994350Y-90199997D01*
X118693525Y-90199997D01*
X118698466Y-90165634D01*
X118705647Y-90115689D01*
X118705647Y-90115684D01*
X118685165Y-89973230D01*
X118651949Y-89900499D01*
X118625377Y-89842314D01*
X118531128Y-89733544D01*
X118531127Y-89733543D01*
X118531126Y-89733542D01*
X118410057Y-89655736D01*
X118410054Y-89655735D01*
X118410053Y-89655734D01*
X118380096Y-89646938D01*
X118363940Y-89642194D01*
X118313433Y-89607658D01*
X118292872Y-89550030D01*
X118293840Y-89533115D01*
X118312057Y-89406412D01*
X118312057Y-89406407D01*
X118291575Y-89263953D01*
X118269463Y-89215536D01*
X118231787Y-89133037D01*
X118137538Y-89024267D01*
X118137537Y-89024266D01*
X118137536Y-89024265D01*
X118016467Y-88946459D01*
X118016464Y-88946457D01*
X118016463Y-88946457D01*
X118016460Y-88946456D01*
X117878374Y-88905910D01*
X117878371Y-88905910D01*
X117734449Y-88905910D01*
X117734445Y-88905910D01*
X117596359Y-88946456D01*
X117596352Y-88946459D01*
X117475283Y-89024265D01*
X117381032Y-89133038D01*
X117321244Y-89263953D01*
X117300763Y-89406407D01*
X117300763Y-89406412D01*
X117321244Y-89548866D01*
X117358797Y-89631093D01*
X117381033Y-89679783D01*
X117469728Y-89782143D01*
X117475283Y-89788554D01*
X117596352Y-89866360D01*
X117596357Y-89866363D01*
X117642468Y-89879902D01*
X117692975Y-89914437D01*
X117713537Y-89972064D01*
X117712570Y-89988980D01*
X117705210Y-90040176D01*
X117678214Y-90095084D01*
X117624100Y-90123638D01*
X117607217Y-90125088D01*
X117578035Y-90125088D01*
X117439949Y-90165634D01*
X117439942Y-90165637D01*
X117318873Y-90243443D01*
X117224622Y-90352216D01*
X117164834Y-90483131D01*
X117144353Y-90625585D01*
X115463531Y-90625585D01*
X115531128Y-90582143D01*
X115625377Y-90473373D01*
X115685165Y-90342457D01*
X115697287Y-90258144D01*
X115705647Y-90200002D01*
X115705647Y-90199997D01*
X115685165Y-90057543D01*
X115677234Y-90040176D01*
X115625377Y-89926627D01*
X115531128Y-89817857D01*
X115531127Y-89817856D01*
X115531126Y-89817855D01*
X115410057Y-89740049D01*
X115410054Y-89740047D01*
X115410053Y-89740047D01*
X115387906Y-89733544D01*
X115271964Y-89699500D01*
X115271961Y-89699500D01*
X115200712Y-89699500D01*
X115142521Y-89680593D01*
X115106557Y-89631093D01*
X115102720Y-89586411D01*
X115116738Y-89488911D01*
X115116738Y-89488906D01*
X115103955Y-89399997D01*
X115694353Y-89399997D01*
X115694353Y-89400002D01*
X115714834Y-89542456D01*
X115748050Y-89615187D01*
X115774623Y-89673373D01*
X115861709Y-89773876D01*
X115868873Y-89782144D01*
X115974463Y-89850002D01*
X115989947Y-89859953D01*
X116091686Y-89889826D01*
X116128035Y-89900499D01*
X116128036Y-89900499D01*
X116128039Y-89900500D01*
X116128041Y-89900500D01*
X116271959Y-89900500D01*
X116271961Y-89900500D01*
X116410053Y-89859953D01*
X116531128Y-89782143D01*
X116625377Y-89673373D01*
X116685165Y-89542457D01*
X116698458Y-89450000D01*
X116705647Y-89400002D01*
X116705647Y-89399997D01*
X116685165Y-89257543D01*
X116648211Y-89176626D01*
X116625377Y-89126627D01*
X116531128Y-89017857D01*
X116531127Y-89017856D01*
X116531126Y-89017855D01*
X116410057Y-88940049D01*
X116410054Y-88940047D01*
X116410053Y-88940047D01*
X116410050Y-88940046D01*
X116271964Y-88899500D01*
X116271961Y-88899500D01*
X116128039Y-88899500D01*
X116128035Y-88899500D01*
X115989949Y-88940046D01*
X115989942Y-88940049D01*
X115868873Y-89017855D01*
X115774622Y-89126628D01*
X115714834Y-89257543D01*
X115694353Y-89399997D01*
X115103955Y-89399997D01*
X115096256Y-89346452D01*
X115078486Y-89307541D01*
X115036468Y-89215536D01*
X114942219Y-89106766D01*
X114942218Y-89106765D01*
X114942217Y-89106764D01*
X114821148Y-89028958D01*
X114821145Y-89028956D01*
X114821144Y-89028956D01*
X114805168Y-89024265D01*
X114683055Y-88988409D01*
X114683052Y-88988409D01*
X114539130Y-88988409D01*
X114539126Y-88988409D01*
X114401040Y-89028955D01*
X114401033Y-89028958D01*
X114279964Y-89106764D01*
X114185713Y-89215537D01*
X114125925Y-89346452D01*
X114105444Y-89488906D01*
X94850500Y-89488906D01*
X94850500Y-86899997D01*
X117394353Y-86899997D01*
X117394353Y-86900002D01*
X117414834Y-87042456D01*
X117474622Y-87173371D01*
X117474623Y-87173373D01*
X117568872Y-87282143D01*
X117568873Y-87282144D01*
X117689942Y-87359950D01*
X117689947Y-87359953D01*
X117796403Y-87391211D01*
X117828035Y-87400499D01*
X117828036Y-87400499D01*
X117828039Y-87400500D01*
X117828041Y-87400500D01*
X117971959Y-87400500D01*
X117971961Y-87400500D01*
X118110053Y-87359953D01*
X118231128Y-87282143D01*
X118325377Y-87173373D01*
X118385165Y-87042457D01*
X118405647Y-86900000D01*
X118385165Y-86757543D01*
X118325377Y-86626627D01*
X118231128Y-86517857D01*
X118231127Y-86517856D01*
X118231126Y-86517855D01*
X118110057Y-86440049D01*
X118110054Y-86440047D01*
X118110053Y-86440047D01*
X118110050Y-86440046D01*
X117971964Y-86399500D01*
X117971961Y-86399500D01*
X117828039Y-86399500D01*
X117828035Y-86399500D01*
X117689949Y-86440046D01*
X117689942Y-86440049D01*
X117568873Y-86517855D01*
X117474622Y-86626628D01*
X117414834Y-86757543D01*
X117394353Y-86899997D01*
X94850500Y-86899997D01*
X94850500Y-84699997D01*
X111994353Y-84699997D01*
X111994353Y-84700002D01*
X112014834Y-84842456D01*
X112068229Y-84959373D01*
X112074623Y-84973373D01*
X112167529Y-85080593D01*
X112168873Y-85082144D01*
X112289942Y-85159950D01*
X112289947Y-85159953D01*
X112396403Y-85191211D01*
X112428035Y-85200499D01*
X112428036Y-85200499D01*
X112428039Y-85200500D01*
X112428041Y-85200500D01*
X112578176Y-85200500D01*
X112636367Y-85219407D01*
X112672331Y-85268907D01*
X112672331Y-85330093D01*
X112668229Y-85340627D01*
X112614834Y-85457543D01*
X112594353Y-85599997D01*
X112594353Y-85600002D01*
X112614834Y-85742456D01*
X112674622Y-85873371D01*
X112674623Y-85873373D01*
X112768872Y-85982143D01*
X112768873Y-85982144D01*
X112889942Y-86059950D01*
X112889947Y-86059953D01*
X112996403Y-86091211D01*
X113028035Y-86100499D01*
X113028036Y-86100499D01*
X113028039Y-86100500D01*
X113028041Y-86100500D01*
X113171959Y-86100500D01*
X113171961Y-86100500D01*
X113310053Y-86059953D01*
X113431128Y-85982143D01*
X113525377Y-85873373D01*
X113585165Y-85742457D01*
X113605647Y-85600000D01*
X113605647Y-85599997D01*
X117394353Y-85599997D01*
X117394353Y-85600002D01*
X117414834Y-85742456D01*
X117474622Y-85873371D01*
X117474623Y-85873373D01*
X117568872Y-85982143D01*
X117568873Y-85982144D01*
X117689942Y-86059950D01*
X117689947Y-86059953D01*
X117796403Y-86091211D01*
X117828035Y-86100499D01*
X117828036Y-86100499D01*
X117828039Y-86100500D01*
X117828041Y-86100500D01*
X117971959Y-86100500D01*
X117971961Y-86100500D01*
X118110053Y-86059953D01*
X118231128Y-85982143D01*
X118325377Y-85873373D01*
X118385165Y-85742457D01*
X118405647Y-85600000D01*
X118385165Y-85457543D01*
X118325377Y-85326627D01*
X118231128Y-85217857D01*
X118231127Y-85217856D01*
X118231126Y-85217855D01*
X118110057Y-85140049D01*
X118110054Y-85140047D01*
X118110053Y-85140047D01*
X118110050Y-85140046D01*
X117971964Y-85099500D01*
X117971961Y-85099500D01*
X117828039Y-85099500D01*
X117828035Y-85099500D01*
X117689949Y-85140046D01*
X117689942Y-85140049D01*
X117568873Y-85217855D01*
X117474622Y-85326628D01*
X117414834Y-85457543D01*
X117394353Y-85599997D01*
X113605647Y-85599997D01*
X113585165Y-85457543D01*
X113525377Y-85326627D01*
X113431128Y-85217857D01*
X113431127Y-85217856D01*
X113431126Y-85217855D01*
X113310057Y-85140049D01*
X113310054Y-85140047D01*
X113310053Y-85140047D01*
X113310050Y-85140046D01*
X113171964Y-85099500D01*
X113171961Y-85099500D01*
X113028039Y-85099500D01*
X113021824Y-85099500D01*
X112963633Y-85080593D01*
X112927669Y-85031093D01*
X112927669Y-84969907D01*
X112931771Y-84959373D01*
X112985165Y-84842456D01*
X113005647Y-84700002D01*
X113005647Y-84699997D01*
X112985165Y-84557543D01*
X112925377Y-84426628D01*
X112925377Y-84426627D01*
X112831128Y-84317857D01*
X112831127Y-84317856D01*
X112831126Y-84317855D01*
X112710057Y-84240049D01*
X112710054Y-84240047D01*
X112710053Y-84240047D01*
X112710050Y-84240046D01*
X112571964Y-84199500D01*
X112571961Y-84199500D01*
X112428039Y-84199500D01*
X112428035Y-84199500D01*
X112289949Y-84240046D01*
X112289942Y-84240049D01*
X112168873Y-84317855D01*
X112074622Y-84426628D01*
X112014834Y-84557543D01*
X111994353Y-84699997D01*
X94850500Y-84699997D01*
X94850500Y-83799997D01*
X117194353Y-83799997D01*
X117194353Y-83800002D01*
X117214834Y-83942456D01*
X117274622Y-84073371D01*
X117274623Y-84073373D01*
X117368872Y-84182143D01*
X117368873Y-84182144D01*
X117489942Y-84259950D01*
X117489947Y-84259953D01*
X117596403Y-84291211D01*
X117628035Y-84300499D01*
X117628036Y-84300499D01*
X117628039Y-84300500D01*
X117628041Y-84300500D01*
X117771959Y-84300500D01*
X117771961Y-84300500D01*
X117910053Y-84259953D01*
X118031128Y-84182143D01*
X118125377Y-84073373D01*
X118185165Y-83942457D01*
X118205647Y-83800000D01*
X118185165Y-83657543D01*
X118125377Y-83526627D01*
X118031128Y-83417857D01*
X118031127Y-83417856D01*
X118031126Y-83417855D01*
X117910057Y-83340049D01*
X117910054Y-83340047D01*
X117910053Y-83340047D01*
X117910050Y-83340046D01*
X117771964Y-83299500D01*
X117771961Y-83299500D01*
X117628039Y-83299500D01*
X117628035Y-83299500D01*
X117489949Y-83340046D01*
X117489942Y-83340049D01*
X117368873Y-83417855D01*
X117274622Y-83526628D01*
X117214834Y-83657543D01*
X117194353Y-83799997D01*
X94850500Y-83799997D01*
X94850500Y-80599997D01*
X115819353Y-80599997D01*
X115819353Y-80600002D01*
X115839834Y-80742456D01*
X115899622Y-80873371D01*
X115899623Y-80873373D01*
X115993872Y-80982143D01*
X115993873Y-80982144D01*
X116120903Y-81063781D01*
X116120238Y-81064815D01*
X116160012Y-81101322D01*
X116172160Y-81161290D01*
X116146740Y-81216945D01*
X116120682Y-81235876D01*
X116120903Y-81236219D01*
X115993873Y-81317855D01*
X115899622Y-81426628D01*
X115839834Y-81557543D01*
X115819353Y-81699997D01*
X115819353Y-81700002D01*
X115839834Y-81842456D01*
X115899622Y-81973371D01*
X115899623Y-81973373D01*
X115993872Y-82082143D01*
X115993873Y-82082144D01*
X116120903Y-82163781D01*
X116120238Y-82164815D01*
X116160012Y-82201322D01*
X116172160Y-82261290D01*
X116146740Y-82316945D01*
X116120682Y-82335876D01*
X116120903Y-82336219D01*
X115993873Y-82417855D01*
X115899622Y-82526628D01*
X115839834Y-82657543D01*
X115819353Y-82799997D01*
X115819353Y-82800002D01*
X115839834Y-82942456D01*
X115899622Y-83073371D01*
X115899623Y-83073373D01*
X115993872Y-83182143D01*
X115993873Y-83182144D01*
X116114942Y-83259950D01*
X116114947Y-83259953D01*
X116221403Y-83291211D01*
X116253035Y-83300499D01*
X116253036Y-83300499D01*
X116253039Y-83300500D01*
X116253041Y-83300500D01*
X116396959Y-83300500D01*
X116396961Y-83300500D01*
X116535053Y-83259953D01*
X116656128Y-83182143D01*
X116750377Y-83073373D01*
X116810165Y-82942457D01*
X116830647Y-82800000D01*
X116810165Y-82657543D01*
X116750377Y-82526627D01*
X116656128Y-82417857D01*
X116656127Y-82417856D01*
X116656126Y-82417855D01*
X116529097Y-82336219D01*
X116529761Y-82335184D01*
X116489990Y-82298683D01*
X116477838Y-82238716D01*
X116503255Y-82183060D01*
X116529317Y-82164124D01*
X116529097Y-82163781D01*
X116656126Y-82082144D01*
X116656125Y-82082144D01*
X116656128Y-82082143D01*
X116750377Y-81973373D01*
X116810165Y-81842457D01*
X116830647Y-81700000D01*
X116810165Y-81557543D01*
X116750377Y-81426627D01*
X116656128Y-81317857D01*
X116656127Y-81317856D01*
X116656126Y-81317855D01*
X116529097Y-81236219D01*
X116529761Y-81235184D01*
X116489990Y-81198683D01*
X116477838Y-81138716D01*
X116503255Y-81083060D01*
X116529317Y-81064124D01*
X116529097Y-81063781D01*
X116656126Y-80982144D01*
X116656125Y-80982144D01*
X116656128Y-80982143D01*
X116750377Y-80873373D01*
X116810165Y-80742457D01*
X116830647Y-80600000D01*
X116810165Y-80457543D01*
X116750377Y-80326627D01*
X116656128Y-80217857D01*
X116656127Y-80217856D01*
X116656126Y-80217855D01*
X116535057Y-80140049D01*
X116535054Y-80140047D01*
X116535053Y-80140047D01*
X116535050Y-80140046D01*
X116396964Y-80099500D01*
X116396961Y-80099500D01*
X116253039Y-80099500D01*
X116253035Y-80099500D01*
X116114949Y-80140046D01*
X116114942Y-80140049D01*
X115993873Y-80217855D01*
X115899622Y-80326628D01*
X115839834Y-80457543D01*
X115819353Y-80599997D01*
X94850500Y-80599997D01*
X94850500Y-80002035D01*
X94850585Y-79997944D01*
X94853225Y-79934108D01*
X94867919Y-79578843D01*
X94868591Y-79570715D01*
X94920228Y-79156462D01*
X94921568Y-79148428D01*
X95007236Y-78739859D01*
X95009237Y-78731959D01*
X95128343Y-78331890D01*
X95130999Y-78324154D01*
X95162877Y-78242457D01*
X95218465Y-78099997D01*
X115019353Y-78099997D01*
X115019353Y-78100002D01*
X115039834Y-78242456D01*
X115099622Y-78373371D01*
X115099623Y-78373373D01*
X115193872Y-78482143D01*
X115193873Y-78482144D01*
X115314942Y-78559950D01*
X115314947Y-78559953D01*
X115421403Y-78591211D01*
X115453035Y-78600499D01*
X115453036Y-78600499D01*
X115453039Y-78600500D01*
X115453041Y-78600500D01*
X115596959Y-78600500D01*
X115596961Y-78600500D01*
X115735053Y-78559953D01*
X115856128Y-78482143D01*
X115950377Y-78373373D01*
X116010165Y-78242457D01*
X116030647Y-78100000D01*
X116010165Y-77957543D01*
X115950377Y-77826627D01*
X115856128Y-77717857D01*
X115856127Y-77717856D01*
X115856126Y-77717855D01*
X115735057Y-77640049D01*
X115735054Y-77640047D01*
X115735053Y-77640047D01*
X115735050Y-77640046D01*
X115596964Y-77599500D01*
X115596961Y-77599500D01*
X115453039Y-77599500D01*
X115453035Y-77599500D01*
X115314949Y-77640046D01*
X115314942Y-77640049D01*
X115193873Y-77717855D01*
X115099622Y-77826628D01*
X115039834Y-77957543D01*
X115019353Y-78099997D01*
X95218465Y-78099997D01*
X95282744Y-77935264D01*
X95286012Y-77927812D01*
X95469367Y-77552754D01*
X95473234Y-77545610D01*
X95686919Y-77187000D01*
X95691381Y-77180169D01*
X95933948Y-76840435D01*
X95938969Y-76833985D01*
X96208749Y-76515456D01*
X96214268Y-76509460D01*
X96509460Y-76214268D01*
X96515456Y-76208749D01*
X96833991Y-75938964D01*
X96840435Y-75933948D01*
X97180169Y-75691381D01*
X97187000Y-75686919D01*
X97545610Y-75473234D01*
X97552754Y-75469367D01*
X97927812Y-75286012D01*
X97935264Y-75282744D01*
X98324156Y-75130998D01*
X98331893Y-75128343D01*
X98731959Y-75009237D01*
X98739859Y-75007236D01*
X99148428Y-74921568D01*
X99156462Y-74920228D01*
X99570715Y-74868591D01*
X99578843Y-74867919D01*
X99997945Y-74850585D01*
X100002036Y-74850500D01*
X100065892Y-74850500D01*
X114126659Y-74850500D01*
X114184850Y-74869407D01*
G37*
%TD.AperFunction*%
%TD*%
D23*
X95500000Y-105500000D03*
X127700000Y-104800000D03*
X110500000Y-80500000D03*
X113100000Y-93100000D03*
X135500000Y-105500000D03*
X120499999Y-85500000D03*
X128700000Y-104800000D03*
X125500000Y-75500000D03*
X126900000Y-103000000D03*
X100500000Y-85500000D03*
X105500000Y-80500000D03*
X113100000Y-89400000D03*
X113500000Y-80600000D03*
X130500000Y-75500000D03*
X100500000Y-75500000D03*
X118300000Y-107700000D03*
X115500000Y-110500000D03*
X95500000Y-80500000D03*
X135500000Y-80500000D03*
X126200000Y-104800000D03*
X95500000Y-110500000D03*
X95500000Y-85500000D03*
X110900000Y-78100000D03*
X113500000Y-81700000D03*
X130500000Y-115500000D03*
X97400002Y-102208949D03*
X105500000Y-110500000D03*
X117400000Y-79500000D03*
X100500000Y-90500000D03*
X112700000Y-100013786D03*
X113500000Y-82800000D03*
X123500000Y-103000000D03*
X125500000Y-85500000D03*
X120500000Y-75500000D03*
X105425000Y-96200000D03*
X120500000Y-115500000D03*
X113500000Y-79500000D03*
X116500000Y-87800000D03*
X121500000Y-111300000D03*
X114675000Y-81700000D03*
X108525000Y-92600000D03*
X123000000Y-101000000D03*
X95500000Y-90500000D03*
X129700000Y-104800000D03*
X124700000Y-107700000D03*
X106975000Y-92000000D03*
X120100000Y-78100000D03*
X117900000Y-96500000D03*
X130800000Y-105600000D03*
X105500000Y-85500000D03*
X125500000Y-80500000D03*
X120383246Y-92225000D03*
X130500000Y-90500000D03*
X100500000Y-115500000D03*
X114700000Y-85500000D03*
X131700000Y-104800000D03*
X110500000Y-75500000D03*
X113100000Y-97900000D03*
X115500000Y-105500000D03*
X108525000Y-91000000D03*
X110500000Y-100500000D03*
X114675000Y-80600000D03*
X105500000Y-100500000D03*
X110500000Y-85500000D03*
X100500000Y-105500000D03*
X116500000Y-85500000D03*
X117900000Y-94500000D03*
X100500000Y-100500000D03*
X125500000Y-115500000D03*
X110500000Y-105500000D03*
X135500000Y-85500000D03*
X130710387Y-97150001D03*
X109175000Y-97100000D03*
X130500000Y-85500000D03*
X118900000Y-101325000D03*
X122000000Y-102000000D03*
X130736262Y-93849999D03*
X114675000Y-82800000D03*
X95500000Y-100500000D03*
X117400000Y-82800000D03*
X117400000Y-81725000D03*
X105500000Y-75500000D03*
X125500000Y-103000000D03*
X109500000Y-113700000D03*
X95500000Y-95500000D03*
X105500000Y-105500000D03*
X111500000Y-112500000D03*
X120500000Y-80500000D03*
X135500000Y-110500000D03*
X121500000Y-112050003D03*
X124000000Y-103900000D03*
X120449997Y-94800000D03*
X111100000Y-97000000D03*
X125700000Y-89850000D03*
X121200000Y-94800000D03*
X122300000Y-109700000D03*
X120700000Y-109700000D03*
X112500000Y-84700000D03*
X111100000Y-96200000D03*
X97400002Y-103808871D03*
X119799582Y-96300000D03*
X116507512Y-99796921D03*
X113800000Y-91100000D03*
X121800000Y-91300000D03*
X130050002Y-95500000D03*
X125504412Y-101025000D03*
X110833006Y-97878563D03*
X122549996Y-91303104D03*
X116325000Y-81700000D03*
X110075000Y-92600000D03*
X101425000Y-103000000D03*
X118700000Y-98900000D03*
X131500000Y-102100000D03*
X129500000Y-102100000D03*
X115075000Y-100800000D03*
X115525000Y-78100000D03*
X124950003Y-91300000D03*
X132500000Y-101100000D03*
X129500000Y-101100000D03*
X118999999Y-92000000D03*
X128500000Y-103100000D03*
X131500000Y-100100000D03*
X132500000Y-103100000D03*
X112000000Y-92062500D03*
X133500000Y-101100000D03*
X116325000Y-80600000D03*
X128500000Y-100925000D03*
X133500000Y-100100000D03*
X133500000Y-102100000D03*
X131500000Y-101100000D03*
X129500000Y-103100000D03*
X116325000Y-82800000D03*
X130500000Y-101100000D03*
X132500000Y-100100000D03*
X117900000Y-85600000D03*
X132500000Y-102100000D03*
X131500000Y-103100000D03*
X129500000Y-100100000D03*
X110075000Y-91000000D03*
X130500000Y-102100000D03*
X109218750Y-98700000D03*
X130500000Y-100100000D03*
X133500000Y-103100000D03*
X117700000Y-83800000D03*
X114611091Y-89488909D03*
X117900000Y-86900000D03*
X115200000Y-90200000D03*
X121200000Y-93500000D03*
X118200000Y-90115687D03*
X128175000Y-97325002D03*
X112350000Y-101400000D03*
X115000000Y-104200006D03*
X128300000Y-91300000D03*
X119799582Y-97424999D03*
X119799582Y-99300000D03*
X124925000Y-99305653D03*
X112850000Y-103450003D03*
X122741776Y-99855653D03*
X115000000Y-103450003D03*
X120499997Y-90200000D03*
X116375000Y-100543042D03*
X127500000Y-91300000D03*
X125700006Y-91300000D03*
X116203526Y-101273179D03*
X120500000Y-89449998D03*
X121916806Y-99855653D03*
X112850000Y-102700000D03*
X115000000Y-102700000D03*
X117806410Y-89406410D03*
X116200000Y-89400000D03*
X113100000Y-85600000D03*
X117650000Y-90625588D03*
D24*
X118500000Y-75850000D03*
X116499999Y-75850000D03*
X114500000Y-75850000D03*
X112500000Y-75850000D03*
X128600000Y-80000000D03*
X129302944Y-78302944D03*
X129302944Y-81697056D03*
X131000000Y-77600000D03*
X131000000Y-80000000D03*
X131000000Y-82400000D03*
X132697056Y-78302944D03*
X132697056Y-81697056D03*
X133400000Y-80000000D03*
X97600000Y-94200000D03*
X97600000Y-96740000D03*
X114500000Y-115150000D03*
X112499999Y-115150000D03*
X110500000Y-115150000D03*
X108500000Y-115150000D03*
X106500000Y-115150000D03*
X104500000Y-115150000D03*
X118610000Y-109845000D03*
X124390000Y-109845000D03*
D25*
X117180000Y-109345000D03*
D26*
X117180000Y-113525000D03*
D25*
X125820000Y-109345000D03*
D26*
X125820000Y-113525000D03*
D24*
X97600000Y-80000000D03*
X98302944Y-78302944D03*
X98302944Y-81697056D03*
X100000000Y-77600000D03*
X100000000Y-80000000D03*
X100000000Y-82400000D03*
X101697056Y-78302944D03*
X101697056Y-81697056D03*
X102400000Y-80000000D03*
X133140000Y-94170000D03*
X135300000Y-99250000D03*
X135300000Y-96710000D03*
X135300000Y-94170001D03*
X135300000Y-91630000D03*
X128600000Y-111000000D03*
X129302944Y-109302944D03*
X129302944Y-112697056D03*
X131000000Y-108600000D03*
X131000000Y-111000000D03*
X131000000Y-113400000D03*
X132697056Y-109302944D03*
X132697056Y-112697056D03*
X133400000Y-111000000D03*
X97600000Y-111000000D03*
X98302944Y-109302944D03*
X98302944Y-112697056D03*
X100000000Y-108600000D03*
X100000000Y-111000000D03*
X100000000Y-113400000D03*
X101697056Y-109302944D03*
X101697056Y-112697056D03*
X102400000Y-111000000D03*
D23*
X123700000Y-96575000D03*
X125566667Y-96575000D03*
X127433333Y-96575000D03*
X129300000Y-96575000D03*
X123700000Y-94425000D03*
X125566667Y-94425000D03*
X127433333Y-94425000D03*
X129300000Y-94425000D03*
M02*
