%TF.GenerationSoftware,KiCad,Pcbnew,8.0.4*%
%TF.CreationDate,2024-08-27T17:51:02+02:00*%
%TF.ProjectId,stepper_driver_PCB,73746570-7065-4725-9f64-72697665725f,rev?*%
%TF.SameCoordinates,Original*%
%TF.FileFunction,Copper,L3,Inr*%
%TF.FilePolarity,Positive*%
%FSLAX46Y46*%
G04 Gerber Fmt 4.6, Leading zero omitted, Abs format (unit mm)*
G04 Created by KiCad (PCBNEW 8.0.4) date 2024-08-27 17:51:02*
%MOMM*%
%LPD*%
G01*
G04 APERTURE LIST*
%TA.AperFunction,ComponentPad*%
%ADD10R,1.350000X1.350000*%
%TD*%
%TA.AperFunction,ComponentPad*%
%ADD11O,1.350000X1.350000*%
%TD*%
%TA.AperFunction,ComponentPad*%
%ADD12C,0.800000*%
%TD*%
%TA.AperFunction,ComponentPad*%
%ADD13C,6.400000*%
%TD*%
%TA.AperFunction,ComponentPad*%
%ADD14R,2.000000X2.000000*%
%TD*%
%TA.AperFunction,ComponentPad*%
%ADD15C,2.000000*%
%TD*%
%TA.AperFunction,ComponentPad*%
%ADD16O,1.000000X2.100000*%
%TD*%
%TA.AperFunction,ComponentPad*%
%ADD17O,1.000000X1.600000*%
%TD*%
%TA.AperFunction,ComponentPad*%
%ADD18R,2.030000X1.730000*%
%TD*%
%TA.AperFunction,ComponentPad*%
%ADD19O,2.030000X1.730000*%
%TD*%
%TA.AperFunction,HeatsinkPad*%
%ADD20C,0.600000*%
%TD*%
%TA.AperFunction,ViaPad*%
%ADD21C,0.600000*%
%TD*%
%TA.AperFunction,Conductor*%
%ADD22C,0.200000*%
%TD*%
%ADD23C,0.300000*%
%ADD24C,0.350000*%
%ADD25O,0.600000X1.700000*%
%ADD26O,0.600000X1.200000*%
G04 APERTURE END LIST*
D10*
%TO.N,+3V3*%
%TO.C,J2*%
X114500000Y-115150000D03*
D11*
%TO.N,/CTRL_SPI_MOSI*%
X112499999Y-115150000D03*
%TO.N,/CTRL_SPI_MISO*%
X110500000Y-115150000D03*
%TO.N,/CTRL_SPI_CLK*%
X108500000Y-115150000D03*
%TO.N,/CTRL_SPI_NCS*%
X106500000Y-115150000D03*
%TO.N,GND*%
X104500000Y-115150000D03*
%TD*%
D10*
%TO.N,+3V3*%
%TO.C,J4*%
X118500000Y-75850000D03*
D11*
%TO.N,/JTAG_SWDIO*%
X116499999Y-75850000D03*
%TO.N,/JTAG_SWCLK*%
X114500000Y-75850000D03*
%TO.N,GND*%
X112500000Y-75850000D03*
%TD*%
D12*
%TO.N,GND*%
%TO.C,H2*%
X128600000Y-80000000D03*
X129302944Y-78302944D03*
X129302944Y-81697056D03*
X131000000Y-77600000D03*
D13*
X131000000Y-80000000D03*
D12*
X131000000Y-82400000D03*
X132697056Y-78302944D03*
X132697056Y-81697056D03*
X133400000Y-80000000D03*
%TD*%
D14*
%TO.N,+24V*%
%TO.C,J1*%
X97600000Y-94200000D03*
D15*
%TO.N,GND*%
X97600000Y-96740000D03*
%TD*%
D16*
%TO.N,unconnected-(J5-SHIELD-PadS1)*%
%TO.C,J5*%
X117180000Y-109345000D03*
D17*
%TO.N,unconnected-(J5-SHIELD-PadS1)_2*%
X117180000Y-113525000D03*
D16*
%TO.N,unconnected-(J5-SHIELD-PadS1)_3*%
X125820000Y-109345000D03*
D17*
%TO.N,unconnected-(J5-SHIELD-PadS1)_1*%
X125820000Y-113525000D03*
%TD*%
D12*
%TO.N,GND*%
%TO.C,H1*%
X97600000Y-80000000D03*
X98302944Y-78302944D03*
X98302944Y-81697056D03*
X100000000Y-77600000D03*
D13*
X100000000Y-80000000D03*
D12*
X100000000Y-82400000D03*
X101697056Y-78302944D03*
X101697056Y-81697056D03*
X102400000Y-80000000D03*
%TD*%
D18*
%TO.N,/STEPPER_B2*%
%TO.C,J3*%
X135300000Y-99250000D03*
D19*
%TO.N,/STEPPER_B1*%
X135300000Y-96710000D03*
%TO.N,/STEPPER_A1*%
X135300000Y-94170001D03*
%TO.N,/STEPPER_A2*%
X135300000Y-91630000D03*
%TD*%
D12*
%TO.N,GND*%
%TO.C,H4*%
X128600000Y-111000000D03*
X129302944Y-109302944D03*
X129302944Y-112697056D03*
X131000000Y-108600000D03*
D13*
X131000000Y-111000000D03*
D12*
X131000000Y-113400000D03*
X132697056Y-109302944D03*
X132697056Y-112697056D03*
X133400000Y-111000000D03*
%TD*%
%TO.N,GND*%
%TO.C,H3*%
X97600000Y-111000000D03*
X98302944Y-109302944D03*
X98302944Y-112697056D03*
X100000000Y-108600000D03*
D13*
X100000000Y-111000000D03*
D12*
X100000000Y-113400000D03*
X101697056Y-109302944D03*
X101697056Y-112697056D03*
X102400000Y-111000000D03*
%TD*%
D20*
%TO.N,GND*%
%TO.C,U5*%
X123700000Y-96575000D03*
X125566667Y-96575000D03*
X127433333Y-96575000D03*
X129300000Y-96575000D03*
X123700000Y-94425000D03*
X125566667Y-94425000D03*
X127433333Y-94425000D03*
X129300000Y-94425000D03*
%TD*%
D21*
%TO.N,GND*%
X95500000Y-105500000D03*
X127700000Y-104800000D03*
X110500000Y-80500000D03*
X113100000Y-93100000D03*
X135500000Y-105500000D03*
X120499999Y-85500000D03*
X128700000Y-104800000D03*
X125500000Y-75500000D03*
X126900000Y-103000000D03*
X100500000Y-85500000D03*
X105500000Y-80500000D03*
X113100000Y-89400000D03*
X113500000Y-80600000D03*
X130500000Y-75500000D03*
X100500000Y-75500000D03*
X118300000Y-107700000D03*
X115500000Y-110500000D03*
X95500000Y-80500000D03*
X135500000Y-80500000D03*
X126200000Y-104800000D03*
X95500000Y-110500000D03*
X95500000Y-85500000D03*
X110900000Y-78100000D03*
X113500000Y-81700000D03*
X130500000Y-115500000D03*
X97400002Y-102208949D03*
X105500000Y-110500000D03*
X117400000Y-79500000D03*
X100500000Y-90500000D03*
X112700000Y-100013786D03*
X113500000Y-82800000D03*
X123500000Y-103000000D03*
X125500000Y-85500000D03*
X120500000Y-75500000D03*
X105425000Y-96200000D03*
X120500000Y-115500000D03*
X113500000Y-79500000D03*
X116500000Y-87800000D03*
X121500000Y-111300000D03*
X114675000Y-81700000D03*
X108525000Y-92600000D03*
X123000000Y-101000000D03*
X95500000Y-90500000D03*
X129700000Y-104800000D03*
X124700000Y-107700000D03*
X106975000Y-92000000D03*
X120100000Y-78100000D03*
X117900000Y-96500000D03*
X130800000Y-105600000D03*
X105500000Y-85500000D03*
X125500000Y-80500000D03*
X120383246Y-92225000D03*
X130500000Y-90500000D03*
X100500000Y-115500000D03*
X114700000Y-85500000D03*
X131700000Y-104800000D03*
X110500000Y-75500000D03*
X113100000Y-97900000D03*
X115500000Y-105500000D03*
X108525000Y-91000000D03*
X110500000Y-100500000D03*
X114675000Y-80600000D03*
X105500000Y-100500000D03*
X110500000Y-85500000D03*
X100500000Y-105500000D03*
X116500000Y-85500000D03*
X117900000Y-94500000D03*
X100500000Y-100500000D03*
X125500000Y-115500000D03*
X110500000Y-105500000D03*
X135500000Y-85500000D03*
X130710387Y-97150001D03*
X109175000Y-97100000D03*
X130500000Y-85500000D03*
X118900000Y-101325000D03*
X122000000Y-102000000D03*
X130736262Y-93849999D03*
X114675000Y-82800000D03*
X95500000Y-100500000D03*
X117400000Y-82800000D03*
X117400000Y-81725000D03*
X105500000Y-75500000D03*
X125500000Y-103000000D03*
X109500000Y-113700000D03*
X95500000Y-95500000D03*
X105500000Y-105500000D03*
X111500000Y-112500000D03*
X120500000Y-80500000D03*
X135500000Y-110500000D03*
%TO.N,+5V*%
X121500000Y-112050003D03*
X124000000Y-103900000D03*
%TO.N,/USB_DN*%
X120449997Y-94800000D03*
%TO.N,+3.3VA*%
X111100000Y-97000000D03*
X125700000Y-89850000D03*
%TO.N,/USB_DP*%
X121200000Y-94800000D03*
%TO.N,Net-(J5-D+-PadA6)*%
X122300000Y-109700000D03*
%TO.N,Net-(J5-D--PadA7)*%
X120700000Y-109700000D03*
%TO.N,/NRST*%
X112500000Y-84700000D03*
X111100000Y-96200000D03*
%TO.N,/STATUS*%
X97400002Y-103808871D03*
X119799582Y-96300000D03*
%TO.N,/I2C_SDA*%
X116507512Y-99796921D03*
%TO.N,/I2C_SCL*%
X113800000Y-91100000D03*
%TO.N,/TMC_UART_RX*%
X121800000Y-91300000D03*
%TO.N,+24V*%
X130050002Y-95500000D03*
X125504412Y-101025000D03*
%TO.N,/AS5600_OUT*%
X110833006Y-97878563D03*
%TO.N,/TMC_UART_TX*%
X122549996Y-91303104D03*
%TO.N,+3V3*%
X116325000Y-81700000D03*
X110075000Y-92600000D03*
X101425000Y-103000000D03*
X118700000Y-98900000D03*
X131500000Y-102100000D03*
X129500000Y-102100000D03*
X115075000Y-100800000D03*
X115525000Y-78100000D03*
X124950003Y-91300000D03*
X132500000Y-101100000D03*
X129500000Y-101100000D03*
X118999999Y-92000000D03*
X128500000Y-103100000D03*
X131500000Y-100100000D03*
X132500000Y-103100000D03*
X112000000Y-92062500D03*
X133500000Y-101100000D03*
X116325000Y-80600000D03*
X128500000Y-100925000D03*
X133500000Y-100100000D03*
X133500000Y-102100000D03*
X131500000Y-101100000D03*
X129500000Y-103100000D03*
X116325000Y-82800000D03*
X130500000Y-101100000D03*
X132500000Y-100100000D03*
X117900000Y-85600000D03*
X132500000Y-102100000D03*
X131500000Y-103100000D03*
X129500000Y-100100000D03*
X110075000Y-91000000D03*
X130500000Y-102100000D03*
X109218750Y-98700000D03*
X130500000Y-100100000D03*
X133500000Y-103100000D03*
%TO.N,/BOOT0*%
X117700000Y-83800000D03*
X114611091Y-89488909D03*
%TO.N,/W25Q128_NRST*%
X117900000Y-86900000D03*
X115200000Y-90200000D03*
%TO.N,/JTAG_SWDIO*%
X121200000Y-93500000D03*
%TO.N,/JTAG_SWCLK*%
X118200000Y-90115687D03*
%TO.N,/TMC_NEN*%
X128175000Y-97325002D03*
X112350000Y-101400000D03*
X115000000Y-104200006D03*
%TO.N,/TMC_STDBY*%
X128300000Y-91300000D03*
%TO.N,/TMC_SPREAD*%
X119799582Y-97424999D03*
X119799582Y-99300000D03*
X124925000Y-99305653D03*
%TO.N,/TMC_MS1*%
X112850000Y-103450003D03*
X122741776Y-99855653D03*
X115000000Y-103450003D03*
%TO.N,/TMC_INDEX*%
X120499997Y-90200000D03*
X116375000Y-100543042D03*
%TO.N,/TMC_DIR*%
X127500000Y-91300000D03*
%TO.N,/TMC_STEP*%
X125700006Y-91300000D03*
%TO.N,/TMC_DIAG*%
X116203526Y-101273179D03*
X120500000Y-89449998D03*
%TO.N,/TMC_MS2*%
X121916806Y-99855653D03*
X112850000Y-102700000D03*
X115000000Y-102700000D03*
%TO.N,/FLASH_SPI_MOSI*%
X117806410Y-89406410D03*
X116200000Y-89400000D03*
%TO.N,/FLASH_SPI_NCS*%
X113100000Y-85600000D03*
X117650000Y-90625588D03*
%TD*%
D22*
%TO.N,+3.3VA*%
X120272182Y-88899998D02*
X124749998Y-88899998D01*
X124749998Y-88899998D02*
X125700000Y-89850000D01*
X111100000Y-97000000D02*
X112172180Y-97000000D01*
X112172180Y-97000000D02*
X120272182Y-88899998D01*
%TO.N,/TMC_INDEX*%
X116539209Y-100543042D02*
X117057512Y-100024739D01*
X120000000Y-90200000D02*
X120499997Y-90200000D01*
X117057512Y-99569103D02*
X116175000Y-98686591D01*
X117057512Y-100024739D02*
X117057512Y-99569103D01*
X116375000Y-100543042D02*
X116539209Y-100543042D01*
X116175000Y-98686591D02*
X116175000Y-94025000D01*
X116175000Y-94025000D02*
X120000000Y-90200000D01*
%TO.N,/TMC_DIAG*%
X116203526Y-101273179D02*
X115825000Y-100894653D01*
X120250002Y-89449998D02*
X120500000Y-89449998D01*
X115825000Y-100894653D02*
X115825000Y-93875000D01*
X115825000Y-93875000D02*
X120250002Y-89449998D01*
%TD*%
%TA.AperFunction,Conductor*%
%TO.N,+3V3*%
G36*
X104805378Y-74870185D02*
G01*
X104851133Y-74922989D01*
X104861077Y-74992147D01*
X104843332Y-75040473D01*
X104774211Y-75150475D01*
X104714631Y-75320745D01*
X104714630Y-75320750D01*
X104694435Y-75499996D01*
X104694435Y-75500003D01*
X104714630Y-75679249D01*
X104714631Y-75679254D01*
X104774211Y-75849523D01*
X104774511Y-75850000D01*
X104870184Y-76002262D01*
X104997738Y-76129816D01*
X105088080Y-76186582D01*
X105145434Y-76222620D01*
X105150478Y-76225789D01*
X105320745Y-76285368D01*
X105320750Y-76285369D01*
X105499996Y-76305565D01*
X105500000Y-76305565D01*
X105500004Y-76305565D01*
X105679249Y-76285369D01*
X105679252Y-76285368D01*
X105679255Y-76285368D01*
X105849522Y-76225789D01*
X106002262Y-76129816D01*
X106129816Y-76002262D01*
X106225789Y-75849522D01*
X106285368Y-75679255D01*
X106305565Y-75500000D01*
X106302314Y-75471150D01*
X106285369Y-75320750D01*
X106285368Y-75320745D01*
X106225788Y-75150475D01*
X106156668Y-75040473D01*
X106137667Y-74973236D01*
X106158034Y-74906401D01*
X106211302Y-74861186D01*
X106261661Y-74850500D01*
X109738339Y-74850500D01*
X109805378Y-74870185D01*
X109851133Y-74922989D01*
X109861077Y-74992147D01*
X109843332Y-75040473D01*
X109774211Y-75150475D01*
X109714631Y-75320745D01*
X109714630Y-75320750D01*
X109694435Y-75499996D01*
X109694435Y-75500003D01*
X109714630Y-75679249D01*
X109714631Y-75679254D01*
X109774211Y-75849523D01*
X109774511Y-75850000D01*
X109870184Y-76002262D01*
X109997738Y-76129816D01*
X110088080Y-76186582D01*
X110145434Y-76222620D01*
X110150478Y-76225789D01*
X110320745Y-76285368D01*
X110320750Y-76285369D01*
X110499996Y-76305565D01*
X110500000Y-76305565D01*
X110500004Y-76305565D01*
X110679249Y-76285369D01*
X110679252Y-76285368D01*
X110679255Y-76285368D01*
X110849522Y-76225789D01*
X111002262Y-76129816D01*
X111129816Y-76002262D01*
X111129819Y-76002256D01*
X111130003Y-76002073D01*
X111191326Y-75968588D01*
X111261018Y-75973572D01*
X111316952Y-76015443D01*
X111337229Y-76061627D01*
X111337997Y-76061409D01*
X111339564Y-76066918D01*
X111339565Y-76066923D01*
X111391797Y-76250499D01*
X111399184Y-76276462D01*
X111469626Y-76417927D01*
X111496288Y-76471472D01*
X111627573Y-76645322D01*
X111788568Y-76792088D01*
X111788575Y-76792092D01*
X111788576Y-76792093D01*
X111973786Y-76906770D01*
X111973792Y-76906773D01*
X111996664Y-76915633D01*
X112176931Y-76985470D01*
X112391074Y-77025500D01*
X112391076Y-77025500D01*
X112608924Y-77025500D01*
X112608926Y-77025500D01*
X112823069Y-76985470D01*
X113026210Y-76906772D01*
X113211432Y-76792088D01*
X113372427Y-76645322D01*
X113401047Y-76607422D01*
X113457153Y-76565787D01*
X113526865Y-76561094D01*
X113588048Y-76594836D01*
X113598946Y-76607414D01*
X113627573Y-76645322D01*
X113788568Y-76792088D01*
X113788575Y-76792092D01*
X113788576Y-76792093D01*
X113973786Y-76906770D01*
X113973792Y-76906773D01*
X113996664Y-76915633D01*
X114176931Y-76985470D01*
X114391074Y-77025500D01*
X114391076Y-77025500D01*
X114608924Y-77025500D01*
X114608926Y-77025500D01*
X114823069Y-76985470D01*
X115026210Y-76906772D01*
X115211432Y-76792088D01*
X115372427Y-76645322D01*
X115401046Y-76607423D01*
X115457151Y-76565789D01*
X115526863Y-76561096D01*
X115588046Y-76594837D01*
X115598951Y-76607421D01*
X115627572Y-76645322D01*
X115788567Y-76792088D01*
X115788574Y-76792092D01*
X115788575Y-76792093D01*
X115973785Y-76906770D01*
X115973791Y-76906773D01*
X115996663Y-76915633D01*
X116176930Y-76985470D01*
X116391073Y-77025500D01*
X116391075Y-77025500D01*
X116608923Y-77025500D01*
X116608925Y-77025500D01*
X116823068Y-76985470D01*
X117026209Y-76906772D01*
X117211431Y-76792088D01*
X117372426Y-76645322D01*
X117503711Y-76471472D01*
X117600816Y-76276459D01*
X117660434Y-76066923D01*
X117680535Y-75850000D01*
X117660434Y-75633077D01*
X117600816Y-75423541D01*
X117503711Y-75228528D01*
X117372426Y-75054678D01*
X117372425Y-75054677D01*
X117368971Y-75050103D01*
X117370912Y-75048636D01*
X117344877Y-74995266D01*
X117353057Y-74925877D01*
X117397452Y-74871925D01*
X117463969Y-74850540D01*
X117467126Y-74850500D01*
X119738339Y-74850500D01*
X119805378Y-74870185D01*
X119851133Y-74922989D01*
X119861077Y-74992147D01*
X119843332Y-75040473D01*
X119774211Y-75150475D01*
X119714631Y-75320745D01*
X119714630Y-75320750D01*
X119694435Y-75499996D01*
X119694435Y-75500003D01*
X119714630Y-75679249D01*
X119714631Y-75679254D01*
X119774211Y-75849523D01*
X119774511Y-75850000D01*
X119870184Y-76002262D01*
X119997738Y-76129816D01*
X120088080Y-76186582D01*
X120145434Y-76222620D01*
X120150478Y-76225789D01*
X120320745Y-76285368D01*
X120320750Y-76285369D01*
X120499996Y-76305565D01*
X120500000Y-76305565D01*
X120500004Y-76305565D01*
X120679249Y-76285369D01*
X120679252Y-76285368D01*
X120679255Y-76285368D01*
X120849522Y-76225789D01*
X121002262Y-76129816D01*
X121129816Y-76002262D01*
X121225789Y-75849522D01*
X121285368Y-75679255D01*
X121305565Y-75500000D01*
X121302314Y-75471150D01*
X121285369Y-75320750D01*
X121285368Y-75320745D01*
X121225788Y-75150475D01*
X121156668Y-75040473D01*
X121137667Y-74973236D01*
X121158034Y-74906401D01*
X121211302Y-74861186D01*
X121261661Y-74850500D01*
X124738339Y-74850500D01*
X124805378Y-74870185D01*
X124851133Y-74922989D01*
X124861077Y-74992147D01*
X124843332Y-75040473D01*
X124774211Y-75150475D01*
X124714631Y-75320745D01*
X124714630Y-75320750D01*
X124694435Y-75499996D01*
X124694435Y-75500003D01*
X124714630Y-75679249D01*
X124714631Y-75679254D01*
X124774211Y-75849523D01*
X124774511Y-75850000D01*
X124870184Y-76002262D01*
X124997738Y-76129816D01*
X125088080Y-76186582D01*
X125145434Y-76222620D01*
X125150478Y-76225789D01*
X125320745Y-76285368D01*
X125320750Y-76285369D01*
X125499996Y-76305565D01*
X125500000Y-76305565D01*
X125500004Y-76305565D01*
X125679249Y-76285369D01*
X125679252Y-76285368D01*
X125679255Y-76285368D01*
X125849522Y-76225789D01*
X126002262Y-76129816D01*
X126129816Y-76002262D01*
X126225789Y-75849522D01*
X126285368Y-75679255D01*
X126305565Y-75500000D01*
X126302314Y-75471150D01*
X126285369Y-75320750D01*
X126285368Y-75320745D01*
X126225788Y-75150475D01*
X126156668Y-75040473D01*
X126137667Y-74973236D01*
X126158034Y-74906401D01*
X126211302Y-74861186D01*
X126261661Y-74850500D01*
X129738339Y-74850500D01*
X129805378Y-74870185D01*
X129851133Y-74922989D01*
X129861077Y-74992147D01*
X129843332Y-75040473D01*
X129774211Y-75150475D01*
X129714631Y-75320745D01*
X129714630Y-75320750D01*
X129694435Y-75499996D01*
X129694435Y-75500003D01*
X129714630Y-75679249D01*
X129714631Y-75679254D01*
X129774211Y-75849523D01*
X129774511Y-75850000D01*
X129870184Y-76002262D01*
X129997738Y-76129816D01*
X130100393Y-76194319D01*
X130146684Y-76246653D01*
X130157332Y-76315706D01*
X130128957Y-76379555D01*
X130070568Y-76417927D01*
X130066515Y-76419087D01*
X129854905Y-76475788D01*
X129492802Y-76614787D01*
X129147206Y-76790877D01*
X128821917Y-77002122D01*
X128520488Y-77246215D01*
X128520480Y-77246222D01*
X128246222Y-77520480D01*
X128246215Y-77520488D01*
X128002122Y-77821917D01*
X127790877Y-78147206D01*
X127614787Y-78492802D01*
X127475788Y-78854905D01*
X127375397Y-79229570D01*
X127375397Y-79229572D01*
X127314722Y-79612660D01*
X127294422Y-79999999D01*
X127294422Y-80000000D01*
X127314722Y-80387339D01*
X127348404Y-80600000D01*
X127375398Y-80770433D01*
X127437515Y-81002259D01*
X127475788Y-81145094D01*
X127614787Y-81507197D01*
X127790877Y-81852793D01*
X128002122Y-82178082D01*
X128113784Y-82315973D01*
X128246219Y-82479516D01*
X128520484Y-82753781D01*
X128688375Y-82889737D01*
X128821917Y-82997877D01*
X129087247Y-83170184D01*
X129147211Y-83209125D01*
X129492806Y-83385214D01*
X129854913Y-83524214D01*
X130229567Y-83624602D01*
X130612662Y-83685278D01*
X130978576Y-83704455D01*
X130999999Y-83705578D01*
X131000000Y-83705578D01*
X131000001Y-83705578D01*
X131020301Y-83704514D01*
X131387338Y-83685278D01*
X131770433Y-83624602D01*
X132145087Y-83524214D01*
X132507194Y-83385214D01*
X132852789Y-83209125D01*
X133178084Y-82997876D01*
X133479516Y-82753781D01*
X133753781Y-82479516D01*
X133997876Y-82178084D01*
X134209125Y-81852789D01*
X134385214Y-81507194D01*
X134524214Y-81145087D01*
X134580912Y-80933483D01*
X134617277Y-80873824D01*
X134680124Y-80843295D01*
X134749500Y-80851590D01*
X134803377Y-80896075D01*
X134805678Y-80899601D01*
X134870184Y-81002262D01*
X134997738Y-81129816D01*
X135038490Y-81155422D01*
X135145620Y-81222737D01*
X135150478Y-81225789D01*
X135320745Y-81285368D01*
X135320750Y-81285369D01*
X135499996Y-81305565D01*
X135500000Y-81305565D01*
X135500004Y-81305565D01*
X135679249Y-81285369D01*
X135679252Y-81285368D01*
X135679255Y-81285368D01*
X135849522Y-81225789D01*
X135854380Y-81222737D01*
X135959527Y-81156668D01*
X136026764Y-81137667D01*
X136093599Y-81158034D01*
X136138814Y-81211302D01*
X136149500Y-81261661D01*
X136149500Y-84738338D01*
X136129815Y-84805377D01*
X136077011Y-84851132D01*
X136007853Y-84861076D01*
X135959528Y-84843332D01*
X135849523Y-84774211D01*
X135679254Y-84714631D01*
X135679249Y-84714630D01*
X135500004Y-84694435D01*
X135499996Y-84694435D01*
X135320750Y-84714630D01*
X135320745Y-84714631D01*
X135150476Y-84774211D01*
X134997737Y-84870184D01*
X134870184Y-84997737D01*
X134774211Y-85150476D01*
X134714631Y-85320745D01*
X134714630Y-85320750D01*
X134694435Y-85499996D01*
X134694435Y-85500003D01*
X134714630Y-85679249D01*
X134714631Y-85679254D01*
X134774211Y-85849523D01*
X134837045Y-85949522D01*
X134870184Y-86002262D01*
X134997738Y-86129816D01*
X135150478Y-86225789D01*
X135277352Y-86270184D01*
X135320745Y-86285368D01*
X135320750Y-86285369D01*
X135499996Y-86305565D01*
X135500000Y-86305565D01*
X135500004Y-86305565D01*
X135679249Y-86285369D01*
X135679252Y-86285368D01*
X135679255Y-86285368D01*
X135849522Y-86225789D01*
X135959527Y-86156667D01*
X136026764Y-86137667D01*
X136093599Y-86158034D01*
X136138814Y-86211302D01*
X136149500Y-86261661D01*
X136149500Y-90251586D01*
X136129815Y-90318625D01*
X136077011Y-90364380D01*
X136007853Y-90374324D01*
X135978055Y-90366150D01*
X135974176Y-90364543D01*
X135769757Y-90298124D01*
X135618778Y-90274211D01*
X135557467Y-90264500D01*
X135042533Y-90264500D01*
X134981222Y-90274211D01*
X134830243Y-90298124D01*
X134830240Y-90298124D01*
X134625832Y-90364540D01*
X134625829Y-90364541D01*
X134434321Y-90462120D01*
X134335114Y-90534198D01*
X134260437Y-90588455D01*
X134260435Y-90588457D01*
X134260434Y-90588457D01*
X134108457Y-90740434D01*
X134108457Y-90740435D01*
X134108455Y-90740437D01*
X134101160Y-90750478D01*
X133982120Y-90914321D01*
X133884541Y-91105829D01*
X133884540Y-91105832D01*
X133818124Y-91310240D01*
X133818124Y-91310243D01*
X133800456Y-91421794D01*
X133784500Y-91522533D01*
X133784500Y-91737467D01*
X133796722Y-91814632D01*
X133818124Y-91949756D01*
X133818124Y-91949759D01*
X133884540Y-92154167D01*
X133884541Y-92154170D01*
X133920633Y-92225003D01*
X133982120Y-92345678D01*
X134108455Y-92519563D01*
X134260437Y-92671545D01*
X134337125Y-92727262D01*
X134436802Y-92799682D01*
X134479467Y-92855012D01*
X134485446Y-92924626D01*
X134452840Y-92986421D01*
X134436802Y-93000318D01*
X134260435Y-93128457D01*
X134108457Y-93280435D01*
X134108457Y-93280436D01*
X134108455Y-93280438D01*
X134079170Y-93320745D01*
X133982120Y-93454322D01*
X133892038Y-93631118D01*
X133844063Y-93681914D01*
X133776242Y-93698709D01*
X133710107Y-93676171D01*
X133693872Y-93662504D01*
X133618419Y-93587051D01*
X133618415Y-93587048D01*
X133495501Y-93504919D01*
X133495488Y-93504912D01*
X133358917Y-93448343D01*
X133358907Y-93448340D01*
X133213920Y-93419500D01*
X133213918Y-93419500D01*
X133066082Y-93419500D01*
X133066080Y-93419500D01*
X132921092Y-93448340D01*
X132921082Y-93448343D01*
X132784511Y-93504912D01*
X132784498Y-93504919D01*
X132661584Y-93587048D01*
X132661580Y-93587051D01*
X132557051Y-93691580D01*
X132557048Y-93691584D01*
X132474919Y-93814498D01*
X132474912Y-93814511D01*
X132418343Y-93951082D01*
X132418340Y-93951092D01*
X132389500Y-94096079D01*
X132389500Y-94096082D01*
X132389500Y-94243918D01*
X132389500Y-94243920D01*
X132389499Y-94243920D01*
X132418340Y-94388907D01*
X132418343Y-94388917D01*
X132474912Y-94525488D01*
X132474919Y-94525501D01*
X132557048Y-94648415D01*
X132557051Y-94648419D01*
X132661580Y-94752948D01*
X132661584Y-94752951D01*
X132784498Y-94835080D01*
X132784511Y-94835087D01*
X132906652Y-94885679D01*
X132921087Y-94891658D01*
X132921091Y-94891658D01*
X132921092Y-94891659D01*
X133066079Y-94920500D01*
X133066082Y-94920500D01*
X133213920Y-94920500D01*
X133311462Y-94901096D01*
X133358913Y-94891658D01*
X133495495Y-94835084D01*
X133618416Y-94752951D01*
X133693872Y-94677494D01*
X133755193Y-94644011D01*
X133824885Y-94648995D01*
X133880819Y-94690866D01*
X133892037Y-94708882D01*
X133956342Y-94835087D01*
X133982120Y-94885679D01*
X134108455Y-95059564D01*
X134260437Y-95211546D01*
X134434322Y-95337881D01*
X134436801Y-95339682D01*
X134479466Y-95395012D01*
X134485445Y-95464626D01*
X134452839Y-95526421D01*
X134436801Y-95540318D01*
X134260435Y-95668456D01*
X134108457Y-95820434D01*
X134108457Y-95820435D01*
X134108455Y-95820437D01*
X134086629Y-95850478D01*
X133982120Y-95994321D01*
X133884541Y-96185829D01*
X133884540Y-96185832D01*
X133818124Y-96390240D01*
X133818124Y-96390243D01*
X133801018Y-96498244D01*
X133784500Y-96602533D01*
X133784500Y-96817467D01*
X133801657Y-96925788D01*
X133818124Y-97029756D01*
X133818124Y-97029759D01*
X133884540Y-97234167D01*
X133884541Y-97234170D01*
X133959134Y-97380565D01*
X133982120Y-97425678D01*
X134108455Y-97599563D01*
X134108457Y-97599565D01*
X134202981Y-97694089D01*
X134236466Y-97755412D01*
X134231482Y-97825104D01*
X134189610Y-97881037D01*
X134158633Y-97897952D01*
X134042671Y-97941202D01*
X134042664Y-97941206D01*
X133927455Y-98027452D01*
X133927452Y-98027455D01*
X133841206Y-98142664D01*
X133841202Y-98142671D01*
X133790908Y-98277517D01*
X133784501Y-98337116D01*
X133784500Y-98337135D01*
X133784500Y-100162870D01*
X133784501Y-100162876D01*
X133790908Y-100222483D01*
X133841202Y-100357328D01*
X133841206Y-100357335D01*
X133927452Y-100472544D01*
X133927455Y-100472547D01*
X134042664Y-100558793D01*
X134042671Y-100558797D01*
X134177517Y-100609091D01*
X134177516Y-100609091D01*
X134184444Y-100609835D01*
X134237127Y-100615500D01*
X136025500Y-100615499D01*
X136092539Y-100635184D01*
X136138294Y-100687987D01*
X136149500Y-100739499D01*
X136149500Y-104738338D01*
X136129815Y-104805377D01*
X136077011Y-104851132D01*
X136007853Y-104861076D01*
X135959528Y-104843332D01*
X135849523Y-104774211D01*
X135679254Y-104714631D01*
X135679249Y-104714630D01*
X135500004Y-104694435D01*
X135499996Y-104694435D01*
X135320750Y-104714630D01*
X135320745Y-104714631D01*
X135150476Y-104774211D01*
X134997737Y-104870184D01*
X134870184Y-104997737D01*
X134774211Y-105150476D01*
X134714631Y-105320745D01*
X134714630Y-105320750D01*
X134694435Y-105499996D01*
X134694435Y-105500003D01*
X134714630Y-105679249D01*
X134714631Y-105679254D01*
X134774211Y-105849523D01*
X134837045Y-105949522D01*
X134870184Y-106002262D01*
X134997738Y-106129816D01*
X135150478Y-106225789D01*
X135320745Y-106285368D01*
X135320750Y-106285369D01*
X135499996Y-106305565D01*
X135500000Y-106305565D01*
X135500004Y-106305565D01*
X135679249Y-106285369D01*
X135679252Y-106285368D01*
X135679255Y-106285368D01*
X135849522Y-106225789D01*
X135959527Y-106156667D01*
X136026764Y-106137667D01*
X136093599Y-106158034D01*
X136138814Y-106211302D01*
X136149500Y-106261661D01*
X136149500Y-109738338D01*
X136129815Y-109805377D01*
X136077011Y-109851132D01*
X136007853Y-109861076D01*
X135959528Y-109843332D01*
X135849523Y-109774211D01*
X135679254Y-109714631D01*
X135679249Y-109714630D01*
X135500004Y-109694435D01*
X135499996Y-109694435D01*
X135320750Y-109714630D01*
X135320745Y-109714631D01*
X135150476Y-109774211D01*
X134997737Y-109870184D01*
X134870182Y-109997739D01*
X134805680Y-110100394D01*
X134753346Y-110146684D01*
X134684292Y-110157332D01*
X134620444Y-110128957D01*
X134582072Y-110070567D01*
X134580912Y-110066515D01*
X134576359Y-110049522D01*
X134524214Y-109854913D01*
X134519768Y-109843332D01*
X134470364Y-109714630D01*
X134385214Y-109492806D01*
X134209125Y-109147211D01*
X134096778Y-108974211D01*
X133997877Y-108821917D01*
X133753784Y-108520488D01*
X133753781Y-108520484D01*
X133479516Y-108246219D01*
X133197518Y-108017861D01*
X133178082Y-108002122D01*
X132852793Y-107790877D01*
X132507197Y-107614787D01*
X132145094Y-107475788D01*
X132145087Y-107475786D01*
X131770433Y-107375398D01*
X131770429Y-107375397D01*
X131770428Y-107375397D01*
X131387339Y-107314722D01*
X131000001Y-107294422D01*
X130999999Y-107294422D01*
X130612660Y-107314722D01*
X130229572Y-107375397D01*
X130229570Y-107375397D01*
X129854905Y-107475788D01*
X129492802Y-107614787D01*
X129147206Y-107790877D01*
X128821917Y-108002122D01*
X128520488Y-108246215D01*
X128520480Y-108246222D01*
X128246222Y-108520480D01*
X128246215Y-108520488D01*
X128002122Y-108821917D01*
X127790877Y-109147206D01*
X127614787Y-109492802D01*
X127475788Y-109854905D01*
X127375397Y-110229570D01*
X127375397Y-110229572D01*
X127314722Y-110612660D01*
X127294422Y-110999999D01*
X127294422Y-111000000D01*
X127314722Y-111387339D01*
X127355718Y-111646176D01*
X127375398Y-111770433D01*
X127396069Y-111847580D01*
X127475788Y-112145094D01*
X127614787Y-112507197D01*
X127790877Y-112852793D01*
X128002122Y-113178082D01*
X128089001Y-113285368D01*
X128246219Y-113479516D01*
X128520484Y-113753781D01*
X128520488Y-113753784D01*
X128821917Y-113997877D01*
X129147206Y-114209122D01*
X129147211Y-114209125D01*
X129492806Y-114385214D01*
X129854913Y-114524214D01*
X130066516Y-114580912D01*
X130126175Y-114617277D01*
X130156704Y-114680124D01*
X130148409Y-114749500D01*
X130103924Y-114803378D01*
X130100394Y-114805680D01*
X129997739Y-114870182D01*
X129870184Y-114997737D01*
X129774211Y-115150476D01*
X129714631Y-115320745D01*
X129714630Y-115320750D01*
X129694435Y-115499996D01*
X129694435Y-115500003D01*
X129714630Y-115679249D01*
X129714631Y-115679254D01*
X129774211Y-115849524D01*
X129843332Y-115959527D01*
X129862333Y-116026764D01*
X129841966Y-116093599D01*
X129788698Y-116138814D01*
X129738339Y-116149500D01*
X126261661Y-116149500D01*
X126194622Y-116129815D01*
X126148867Y-116077011D01*
X126138923Y-116007853D01*
X126156668Y-115959527D01*
X126163718Y-115948308D01*
X126211698Y-115871948D01*
X126225788Y-115849524D01*
X126231284Y-115833818D01*
X126285368Y-115679255D01*
X126296950Y-115576462D01*
X126305565Y-115500003D01*
X126305565Y-115499996D01*
X126285369Y-115320750D01*
X126285368Y-115320745D01*
X126225788Y-115150476D01*
X126173119Y-115066655D01*
X126129816Y-114997738D01*
X126106795Y-114974717D01*
X126073310Y-114913394D01*
X126078294Y-114843702D01*
X126120166Y-114787769D01*
X126147021Y-114772476D01*
X126206798Y-114747716D01*
X126293908Y-114711635D01*
X126293911Y-114711633D01*
X126293914Y-114711632D01*
X126457782Y-114602139D01*
X126597139Y-114462782D01*
X126706632Y-114298914D01*
X126782051Y-114116835D01*
X126804832Y-114002308D01*
X126820500Y-113923543D01*
X126820500Y-113126456D01*
X126782052Y-112933170D01*
X126782051Y-112933169D01*
X126782051Y-112933165D01*
X126782049Y-112933160D01*
X126706635Y-112751092D01*
X126706628Y-112751079D01*
X126597139Y-112587218D01*
X126597136Y-112587214D01*
X126457785Y-112447863D01*
X126457781Y-112447860D01*
X126293920Y-112338371D01*
X126293907Y-112338364D01*
X126111839Y-112262950D01*
X126111829Y-112262947D01*
X125918543Y-112224500D01*
X125918541Y-112224500D01*
X125721459Y-112224500D01*
X125721457Y-112224500D01*
X125528170Y-112262947D01*
X125528160Y-112262950D01*
X125346092Y-112338364D01*
X125346079Y-112338371D01*
X125182218Y-112447860D01*
X125182214Y-112447863D01*
X125042863Y-112587214D01*
X125042860Y-112587218D01*
X124933371Y-112751079D01*
X124933364Y-112751092D01*
X124857950Y-112933160D01*
X124857947Y-112933170D01*
X124819500Y-113126456D01*
X124819500Y-113126459D01*
X124819500Y-113923541D01*
X124819500Y-113923543D01*
X124819499Y-113923543D01*
X124857947Y-114116829D01*
X124857950Y-114116839D01*
X124933364Y-114298907D01*
X124933371Y-114298920D01*
X125042860Y-114462781D01*
X125042863Y-114462785D01*
X125165693Y-114585615D01*
X125199178Y-114646938D01*
X125194194Y-114716630D01*
X125152322Y-114772563D01*
X125143985Y-114778289D01*
X124997740Y-114870182D01*
X124997737Y-114870184D01*
X124870184Y-114997737D01*
X124774211Y-115150476D01*
X124714631Y-115320745D01*
X124714630Y-115320750D01*
X124694435Y-115499996D01*
X124694435Y-115500003D01*
X124714630Y-115679249D01*
X124714631Y-115679254D01*
X124774211Y-115849524D01*
X124843332Y-115959527D01*
X124862333Y-116026764D01*
X124841966Y-116093599D01*
X124788698Y-116138814D01*
X124738339Y-116149500D01*
X121261661Y-116149500D01*
X121194622Y-116129815D01*
X121148867Y-116077011D01*
X121138923Y-116007853D01*
X121156668Y-115959527D01*
X121163718Y-115948308D01*
X121211698Y-115871948D01*
X121225788Y-115849524D01*
X121231284Y-115833818D01*
X121285368Y-115679255D01*
X121296950Y-115576462D01*
X121305565Y-115500003D01*
X121305565Y-115499996D01*
X121285369Y-115320750D01*
X121285368Y-115320745D01*
X121225788Y-115150476D01*
X121173119Y-115066655D01*
X121129816Y-114997738D01*
X121002262Y-114870184D01*
X120931148Y-114825500D01*
X120849523Y-114774211D01*
X120679254Y-114714631D01*
X120679249Y-114714630D01*
X120500004Y-114694435D01*
X120499996Y-114694435D01*
X120320750Y-114714630D01*
X120320745Y-114714631D01*
X120150476Y-114774211D01*
X119997737Y-114870184D01*
X119870184Y-114997737D01*
X119774211Y-115150476D01*
X119714631Y-115320745D01*
X119714630Y-115320750D01*
X119694435Y-115499996D01*
X119694435Y-115500003D01*
X119714630Y-115679249D01*
X119714631Y-115679254D01*
X119774211Y-115849524D01*
X119843332Y-115959527D01*
X119862333Y-116026764D01*
X119841966Y-116093599D01*
X119788698Y-116138814D01*
X119738339Y-116149500D01*
X113467126Y-116149500D01*
X113400087Y-116129815D01*
X113354332Y-116077011D01*
X113344388Y-116007853D01*
X113370372Y-115950955D01*
X113368971Y-115949897D01*
X113430348Y-115868620D01*
X113503711Y-115771472D01*
X113600816Y-115576459D01*
X113660434Y-115366923D01*
X113680535Y-115150000D01*
X113660434Y-114933077D01*
X113600816Y-114723541D01*
X113503711Y-114528528D01*
X113372426Y-114354678D01*
X113211431Y-114207912D01*
X113211427Y-114207909D01*
X113211422Y-114207906D01*
X113026212Y-114093229D01*
X113026206Y-114093226D01*
X112941112Y-114060260D01*
X112823068Y-114014530D01*
X112608925Y-113974500D01*
X112391073Y-113974500D01*
X112176930Y-114014530D01*
X112128129Y-114033435D01*
X111973791Y-114093226D01*
X111973785Y-114093229D01*
X111788575Y-114207906D01*
X111788565Y-114207913D01*
X111627572Y-114354676D01*
X111598952Y-114392576D01*
X111542843Y-114434211D01*
X111473131Y-114438902D01*
X111411949Y-114405159D01*
X111401046Y-114392576D01*
X111372427Y-114354678D01*
X111211432Y-114207912D01*
X111211428Y-114207909D01*
X111211423Y-114207906D01*
X111026213Y-114093229D01*
X111026207Y-114093226D01*
X110941113Y-114060260D01*
X110823069Y-114014530D01*
X110608926Y-113974500D01*
X110413393Y-113974500D01*
X110346354Y-113954815D01*
X110319257Y-113923543D01*
X116179499Y-113923543D01*
X116217947Y-114116829D01*
X116217950Y-114116839D01*
X116293364Y-114298907D01*
X116293371Y-114298920D01*
X116402860Y-114462781D01*
X116402863Y-114462785D01*
X116542214Y-114602136D01*
X116542218Y-114602139D01*
X116706079Y-114711628D01*
X116706092Y-114711635D01*
X116857166Y-114774211D01*
X116888165Y-114787051D01*
X116888169Y-114787051D01*
X116888170Y-114787052D01*
X117081456Y-114825500D01*
X117081459Y-114825500D01*
X117278543Y-114825500D01*
X117408582Y-114799632D01*
X117471835Y-114787051D01*
X117641848Y-114716630D01*
X117653907Y-114711635D01*
X117653907Y-114711634D01*
X117653914Y-114711632D01*
X117817782Y-114602139D01*
X117957139Y-114462782D01*
X118066632Y-114298914D01*
X118142051Y-114116835D01*
X118164832Y-114002308D01*
X118180500Y-113923543D01*
X118180500Y-113126456D01*
X118142052Y-112933170D01*
X118142051Y-112933169D01*
X118142051Y-112933165D01*
X118142049Y-112933160D01*
X118066635Y-112751092D01*
X118066628Y-112751079D01*
X117957139Y-112587218D01*
X117957136Y-112587214D01*
X117817785Y-112447863D01*
X117817781Y-112447860D01*
X117653920Y-112338371D01*
X117653907Y-112338364D01*
X117471839Y-112262950D01*
X117471829Y-112262947D01*
X117278543Y-112224500D01*
X117278541Y-112224500D01*
X117081459Y-112224500D01*
X117081457Y-112224500D01*
X116888170Y-112262947D01*
X116888160Y-112262950D01*
X116706092Y-112338364D01*
X116706079Y-112338371D01*
X116542218Y-112447860D01*
X116542214Y-112447863D01*
X116402863Y-112587214D01*
X116402860Y-112587218D01*
X116293371Y-112751079D01*
X116293364Y-112751092D01*
X116217950Y-112933160D01*
X116217947Y-112933170D01*
X116179500Y-113126456D01*
X116179500Y-113126459D01*
X116179500Y-113923541D01*
X116179500Y-113923543D01*
X116179499Y-113923543D01*
X110319257Y-113923543D01*
X110300599Y-113902011D01*
X110290173Y-113836617D01*
X110305565Y-113700003D01*
X110305565Y-113699996D01*
X110285369Y-113520750D01*
X110285368Y-113520745D01*
X110260925Y-113450891D01*
X110225789Y-113350478D01*
X110129816Y-113197738D01*
X110002262Y-113070184D01*
X109992024Y-113063751D01*
X109849523Y-112974211D01*
X109679254Y-112914631D01*
X109679249Y-112914630D01*
X109500004Y-112894435D01*
X109499996Y-112894435D01*
X109320750Y-112914630D01*
X109320745Y-112914631D01*
X109150476Y-112974211D01*
X108997737Y-113070184D01*
X108870184Y-113197737D01*
X108774211Y-113350476D01*
X108714631Y-113520745D01*
X108714630Y-113520750D01*
X108694435Y-113699996D01*
X108694435Y-113700003D01*
X108709827Y-113836617D01*
X108697772Y-113905439D01*
X108650423Y-113956818D01*
X108586607Y-113974500D01*
X108391074Y-113974500D01*
X108176931Y-114014530D01*
X108128130Y-114033435D01*
X107973792Y-114093226D01*
X107973786Y-114093229D01*
X107788576Y-114207906D01*
X107788566Y-114207913D01*
X107627573Y-114354676D01*
X107598953Y-114392576D01*
X107542844Y-114434211D01*
X107473132Y-114438902D01*
X107411950Y-114405159D01*
X107401047Y-114392576D01*
X107372426Y-114354676D01*
X107211433Y-114207913D01*
X107211423Y-114207906D01*
X107026213Y-114093229D01*
X107026207Y-114093226D01*
X106941113Y-114060260D01*
X106823069Y-114014530D01*
X106608926Y-113974500D01*
X106391074Y-113974500D01*
X106176931Y-114014530D01*
X106128130Y-114033435D01*
X105973792Y-114093226D01*
X105973786Y-114093229D01*
X105788576Y-114207906D01*
X105788566Y-114207913D01*
X105627573Y-114354676D01*
X105598953Y-114392576D01*
X105542844Y-114434211D01*
X105473132Y-114438902D01*
X105411950Y-114405159D01*
X105401047Y-114392576D01*
X105372426Y-114354676D01*
X105211433Y-114207913D01*
X105211423Y-114207906D01*
X105026213Y-114093229D01*
X105026207Y-114093226D01*
X104941113Y-114060260D01*
X104823069Y-114014530D01*
X104608926Y-113974500D01*
X104391074Y-113974500D01*
X104176931Y-114014530D01*
X104128130Y-114033435D01*
X103973792Y-114093226D01*
X103973786Y-114093229D01*
X103788576Y-114207906D01*
X103788566Y-114207913D01*
X103627574Y-114354676D01*
X103496288Y-114528527D01*
X103399184Y-114723537D01*
X103399183Y-114723541D01*
X103364067Y-114846963D01*
X103339564Y-114933081D01*
X103319464Y-115149999D01*
X103319464Y-115150000D01*
X103339564Y-115366918D01*
X103339564Y-115366920D01*
X103339565Y-115366923D01*
X103383101Y-115519935D01*
X103399184Y-115576462D01*
X103496288Y-115771472D01*
X103631028Y-115949897D01*
X103629086Y-115951363D01*
X103655122Y-116004734D01*
X103646942Y-116074123D01*
X103602547Y-116128075D01*
X103536030Y-116149460D01*
X103532873Y-116149500D01*
X101261661Y-116149500D01*
X101194622Y-116129815D01*
X101148867Y-116077011D01*
X101138923Y-116007853D01*
X101156668Y-115959527D01*
X101163718Y-115948308D01*
X101211698Y-115871948D01*
X101225788Y-115849524D01*
X101231284Y-115833818D01*
X101285368Y-115679255D01*
X101296950Y-115576462D01*
X101305565Y-115500003D01*
X101305565Y-115499996D01*
X101285369Y-115320750D01*
X101285368Y-115320745D01*
X101225788Y-115150476D01*
X101173119Y-115066655D01*
X101129816Y-114997738D01*
X101002262Y-114870184D01*
X100899605Y-114805680D01*
X100853315Y-114753346D01*
X100842667Y-114684293D01*
X100871042Y-114620444D01*
X100929432Y-114582072D01*
X100933460Y-114580919D01*
X101145087Y-114524214D01*
X101507194Y-114385214D01*
X101852789Y-114209125D01*
X102178084Y-113997876D01*
X102479516Y-113753781D01*
X102753781Y-113479516D01*
X102997876Y-113178084D01*
X103209125Y-112852789D01*
X103385214Y-112507194D01*
X103387977Y-112499996D01*
X110694435Y-112499996D01*
X110694435Y-112500003D01*
X110714630Y-112679249D01*
X110714631Y-112679254D01*
X110774211Y-112849523D01*
X110852558Y-112974211D01*
X110870184Y-113002262D01*
X110997738Y-113129816D01*
X111074553Y-113178082D01*
X111105833Y-113197737D01*
X111150478Y-113225789D01*
X111320745Y-113285368D01*
X111320750Y-113285369D01*
X111499996Y-113305565D01*
X111500000Y-113305565D01*
X111500004Y-113305565D01*
X111679249Y-113285369D01*
X111679252Y-113285368D01*
X111679255Y-113285368D01*
X111849522Y-113225789D01*
X112002262Y-113129816D01*
X112129816Y-113002262D01*
X112225789Y-112849522D01*
X112285368Y-112679255D01*
X112285369Y-112679249D01*
X112305565Y-112500003D01*
X112305565Y-112499996D01*
X112285369Y-112320750D01*
X112285368Y-112320745D01*
X112251690Y-112224500D01*
X112225789Y-112150478D01*
X112129816Y-111997738D01*
X112002262Y-111870184D01*
X111958189Y-111842491D01*
X111849523Y-111774211D01*
X111679254Y-111714631D01*
X111679249Y-111714630D01*
X111500004Y-111694435D01*
X111499996Y-111694435D01*
X111320750Y-111714630D01*
X111320745Y-111714631D01*
X111150476Y-111774211D01*
X110997737Y-111870184D01*
X110870184Y-111997737D01*
X110774211Y-112150476D01*
X110714631Y-112320745D01*
X110714630Y-112320750D01*
X110694435Y-112499996D01*
X103387977Y-112499996D01*
X103524214Y-112145087D01*
X103624602Y-111770433D01*
X103685278Y-111387338D01*
X103705578Y-111000000D01*
X103685278Y-110612662D01*
X103667434Y-110499996D01*
X104694435Y-110499996D01*
X104694435Y-110500003D01*
X104714630Y-110679249D01*
X104714631Y-110679254D01*
X104774211Y-110849523D01*
X104837646Y-110950478D01*
X104870184Y-111002262D01*
X104997738Y-111129816D01*
X104997740Y-111129817D01*
X105119047Y-111206040D01*
X105150478Y-111225789D01*
X105195818Y-111241654D01*
X105320745Y-111285368D01*
X105320750Y-111285369D01*
X105499996Y-111305565D01*
X105500000Y-111305565D01*
X105500004Y-111305565D01*
X105679249Y-111285369D01*
X105679252Y-111285368D01*
X105679255Y-111285368D01*
X105849522Y-111225789D01*
X106002262Y-111129816D01*
X106129816Y-111002262D01*
X106225789Y-110849522D01*
X106285368Y-110679255D01*
X106286390Y-110670184D01*
X106305565Y-110500003D01*
X106305565Y-110499996D01*
X114694435Y-110499996D01*
X114694435Y-110500003D01*
X114714630Y-110679249D01*
X114714631Y-110679254D01*
X114774211Y-110849523D01*
X114837646Y-110950478D01*
X114870184Y-111002262D01*
X114997738Y-111129816D01*
X114997740Y-111129817D01*
X115119047Y-111206040D01*
X115150478Y-111225789D01*
X115195818Y-111241654D01*
X115320745Y-111285368D01*
X115320750Y-111285369D01*
X115499996Y-111305565D01*
X115500000Y-111305565D01*
X115500004Y-111305565D01*
X115679249Y-111285369D01*
X115679252Y-111285368D01*
X115679255Y-111285368D01*
X115849522Y-111225789D01*
X116002262Y-111129816D01*
X116129816Y-111002262D01*
X116225789Y-110849522D01*
X116285368Y-110679255D01*
X116285368Y-110679254D01*
X116287668Y-110672682D01*
X116289885Y-110673458D01*
X116318570Y-110622132D01*
X116380219Y-110589251D01*
X116449858Y-110594919D01*
X116493067Y-110622989D01*
X116542214Y-110672136D01*
X116542218Y-110672139D01*
X116706079Y-110781628D01*
X116706092Y-110781635D01*
X116888160Y-110857049D01*
X116888165Y-110857051D01*
X116888169Y-110857051D01*
X116888170Y-110857052D01*
X117081456Y-110895500D01*
X117081459Y-110895500D01*
X117278543Y-110895500D01*
X117408582Y-110869632D01*
X117471835Y-110857051D01*
X117653914Y-110781632D01*
X117817782Y-110672139D01*
X117957139Y-110532782D01*
X118066632Y-110368914D01*
X118090544Y-110311182D01*
X118134384Y-110256782D01*
X118200678Y-110234716D01*
X118268377Y-110251995D01*
X118280334Y-110261283D01*
X118280890Y-110260559D01*
X118287333Y-110265503D01*
X118287335Y-110265505D01*
X118407164Y-110334688D01*
X118540817Y-110370500D01*
X118540819Y-110370500D01*
X118679181Y-110370500D01*
X118679183Y-110370500D01*
X118812836Y-110334688D01*
X118932665Y-110265505D01*
X119030505Y-110167665D01*
X119099688Y-110047836D01*
X119135500Y-109914183D01*
X119135500Y-109775817D01*
X119115184Y-109699996D01*
X119894435Y-109699996D01*
X119894435Y-109700003D01*
X119914630Y-109879249D01*
X119914631Y-109879254D01*
X119974211Y-110049523D01*
X120048443Y-110167661D01*
X120070184Y-110202262D01*
X120197738Y-110329816D01*
X120350478Y-110425789D01*
X120520745Y-110485368D01*
X120520750Y-110485369D01*
X120699996Y-110505565D01*
X120700000Y-110505565D01*
X120700003Y-110505565D01*
X120823057Y-110491699D01*
X120868923Y-110486532D01*
X120937745Y-110498586D01*
X120989125Y-110545935D01*
X121006749Y-110613546D01*
X120985023Y-110679951D01*
X120970489Y-110697433D01*
X120870183Y-110797739D01*
X120774211Y-110950476D01*
X120714631Y-111120745D01*
X120714630Y-111120750D01*
X120694435Y-111299996D01*
X120694435Y-111300003D01*
X120714630Y-111479249D01*
X120714633Y-111479262D01*
X120768795Y-111634046D01*
X120772357Y-111703825D01*
X120768796Y-111715956D01*
X120714631Y-111870748D01*
X120714630Y-111870753D01*
X120694435Y-112049999D01*
X120694435Y-112050006D01*
X120714630Y-112229252D01*
X120714631Y-112229257D01*
X120774211Y-112399526D01*
X120841864Y-112507194D01*
X120870184Y-112552265D01*
X120997738Y-112679819D01*
X121088080Y-112736585D01*
X121111147Y-112751079D01*
X121150478Y-112775792D01*
X121320745Y-112835371D01*
X121320750Y-112835372D01*
X121499996Y-112855568D01*
X121500000Y-112855568D01*
X121500004Y-112855568D01*
X121679249Y-112835372D01*
X121679252Y-112835371D01*
X121679255Y-112835371D01*
X121849522Y-112775792D01*
X122002262Y-112679819D01*
X122129816Y-112552265D01*
X122225789Y-112399525D01*
X122285368Y-112229258D01*
X122288571Y-112200829D01*
X122305565Y-112050006D01*
X122305565Y-112049999D01*
X122285369Y-111870753D01*
X122285366Y-111870740D01*
X122231204Y-111715955D01*
X122227642Y-111646176D01*
X122231198Y-111634061D01*
X122285368Y-111479255D01*
X122292032Y-111420113D01*
X122305565Y-111300003D01*
X122305565Y-111299996D01*
X122285369Y-111120750D01*
X122285368Y-111120745D01*
X122225788Y-110950476D01*
X122167085Y-110857051D01*
X122129816Y-110797738D01*
X122029511Y-110697433D01*
X121996026Y-110636110D01*
X122001010Y-110566418D01*
X122042882Y-110510485D01*
X122108346Y-110486068D01*
X122131076Y-110486532D01*
X122299997Y-110505565D01*
X122300000Y-110505565D01*
X122300004Y-110505565D01*
X122479249Y-110485369D01*
X122479252Y-110485368D01*
X122479255Y-110485368D01*
X122649522Y-110425789D01*
X122802262Y-110329816D01*
X122929816Y-110202262D01*
X123025789Y-110049522D01*
X123085368Y-109879255D01*
X123087292Y-109862182D01*
X123097023Y-109775817D01*
X123864500Y-109775817D01*
X123864500Y-109914183D01*
X123886889Y-109997738D01*
X123900312Y-110047835D01*
X123900313Y-110047838D01*
X123969492Y-110167661D01*
X123969494Y-110167664D01*
X123969495Y-110167665D01*
X124067335Y-110265505D01*
X124187164Y-110334688D01*
X124320817Y-110370500D01*
X124320819Y-110370500D01*
X124459181Y-110370500D01*
X124459183Y-110370500D01*
X124592836Y-110334688D01*
X124712665Y-110265505D01*
X124712669Y-110265500D01*
X124719110Y-110260559D01*
X124721238Y-110263333D01*
X124768331Y-110237516D01*
X124838031Y-110242382D01*
X124894035Y-110284159D01*
X124909455Y-110311184D01*
X124933366Y-110368910D01*
X124933371Y-110368920D01*
X125042860Y-110532781D01*
X125042863Y-110532785D01*
X125182214Y-110672136D01*
X125182218Y-110672139D01*
X125346079Y-110781628D01*
X125346092Y-110781635D01*
X125528160Y-110857049D01*
X125528165Y-110857051D01*
X125528169Y-110857051D01*
X125528170Y-110857052D01*
X125721456Y-110895500D01*
X125721459Y-110895500D01*
X125918543Y-110895500D01*
X126048582Y-110869632D01*
X126111835Y-110857051D01*
X126293914Y-110781632D01*
X126457782Y-110672139D01*
X126597139Y-110532782D01*
X126706632Y-110368914D01*
X126782051Y-110186835D01*
X126799620Y-110098512D01*
X126820500Y-109993543D01*
X126820500Y-108696456D01*
X126782052Y-108503170D01*
X126782051Y-108503169D01*
X126782051Y-108503165D01*
X126750001Y-108425788D01*
X126706635Y-108321092D01*
X126706628Y-108321079D01*
X126597139Y-108157218D01*
X126597136Y-108157214D01*
X126457785Y-108017863D01*
X126457781Y-108017860D01*
X126293920Y-107908371D01*
X126293907Y-107908364D01*
X126111839Y-107832950D01*
X126111829Y-107832947D01*
X125918543Y-107794500D01*
X125918541Y-107794500D01*
X125721459Y-107794500D01*
X125721456Y-107794500D01*
X125653019Y-107808113D01*
X125583428Y-107801886D01*
X125528250Y-107759023D01*
X125505608Y-107700379D01*
X125485369Y-107520750D01*
X125485368Y-107520745D01*
X125434509Y-107375398D01*
X125425789Y-107350478D01*
X125329816Y-107197738D01*
X125202262Y-107070184D01*
X125049523Y-106974211D01*
X124879254Y-106914631D01*
X124879249Y-106914630D01*
X124700004Y-106894435D01*
X124699996Y-106894435D01*
X124520750Y-106914630D01*
X124520745Y-106914631D01*
X124350476Y-106974211D01*
X124197737Y-107070184D01*
X124070184Y-107197737D01*
X123974211Y-107350476D01*
X123914631Y-107520745D01*
X123914630Y-107520750D01*
X123894435Y-107699996D01*
X123894435Y-107700003D01*
X123914630Y-107879249D01*
X123914631Y-107879254D01*
X123974211Y-108049523D01*
X124041878Y-108157214D01*
X124070184Y-108202262D01*
X124197738Y-108329816D01*
X124350478Y-108425789D01*
X124520745Y-108485368D01*
X124520750Y-108485369D01*
X124699997Y-108505565D01*
X124706377Y-108505565D01*
X124773416Y-108525250D01*
X124819171Y-108578054D01*
X124829115Y-108647212D01*
X124827994Y-108653758D01*
X124819500Y-108696457D01*
X124819500Y-109271402D01*
X124799815Y-109338441D01*
X124747011Y-109384196D01*
X124677853Y-109394140D01*
X124633501Y-109378789D01*
X124592842Y-109355315D01*
X124592838Y-109355313D01*
X124592836Y-109355312D01*
X124459183Y-109319500D01*
X124320817Y-109319500D01*
X124187164Y-109355312D01*
X124187161Y-109355313D01*
X124067338Y-109424492D01*
X124067333Y-109424496D01*
X123969496Y-109522333D01*
X123969492Y-109522338D01*
X123900313Y-109642161D01*
X123900312Y-109642164D01*
X123864500Y-109775817D01*
X123097023Y-109775817D01*
X123105565Y-109700003D01*
X123105565Y-109699996D01*
X123085369Y-109520750D01*
X123085368Y-109520745D01*
X123051689Y-109424496D01*
X123025789Y-109350478D01*
X123024092Y-109347778D01*
X122929815Y-109197737D01*
X122802262Y-109070184D01*
X122649523Y-108974211D01*
X122479254Y-108914631D01*
X122479249Y-108914630D01*
X122300004Y-108894435D01*
X122299996Y-108894435D01*
X122120750Y-108914630D01*
X122120745Y-108914631D01*
X121950476Y-108974211D01*
X121797737Y-109070184D01*
X121670184Y-109197737D01*
X121604994Y-109301487D01*
X121552659Y-109347778D01*
X121483605Y-109358426D01*
X121419757Y-109330051D01*
X121395006Y-109301487D01*
X121329815Y-109197737D01*
X121202262Y-109070184D01*
X121049523Y-108974211D01*
X120879254Y-108914631D01*
X120879249Y-108914630D01*
X120700004Y-108894435D01*
X120699996Y-108894435D01*
X120520750Y-108914630D01*
X120520745Y-108914631D01*
X120350476Y-108974211D01*
X120197737Y-109070184D01*
X120070184Y-109197737D01*
X119974211Y-109350476D01*
X119914631Y-109520745D01*
X119914630Y-109520750D01*
X119894435Y-109699996D01*
X119115184Y-109699996D01*
X119099688Y-109642164D01*
X119030505Y-109522335D01*
X118932665Y-109424495D01*
X118932664Y-109424494D01*
X118932661Y-109424492D01*
X118812838Y-109355313D01*
X118812837Y-109355312D01*
X118812836Y-109355312D01*
X118679183Y-109319500D01*
X118540817Y-109319500D01*
X118407164Y-109355312D01*
X118407157Y-109355315D01*
X118366499Y-109378789D01*
X118298599Y-109395262D01*
X118232572Y-109372409D01*
X118189382Y-109317488D01*
X118180500Y-109271402D01*
X118180500Y-108696457D01*
X118172006Y-108653758D01*
X118178233Y-108584166D01*
X118221095Y-108528988D01*
X118286985Y-108505743D01*
X118293623Y-108505565D01*
X118300003Y-108505565D01*
X118479249Y-108485369D01*
X118479252Y-108485368D01*
X118479255Y-108485368D01*
X118649522Y-108425789D01*
X118802262Y-108329816D01*
X118929816Y-108202262D01*
X119025789Y-108049522D01*
X119085368Y-107879255D01*
X119088746Y-107849276D01*
X119105565Y-107700003D01*
X119105565Y-107699996D01*
X119085369Y-107520750D01*
X119085368Y-107520745D01*
X119034509Y-107375398D01*
X119025789Y-107350478D01*
X118929816Y-107197738D01*
X118802262Y-107070184D01*
X118649523Y-106974211D01*
X118479254Y-106914631D01*
X118479249Y-106914630D01*
X118300004Y-106894435D01*
X118299996Y-106894435D01*
X118120750Y-106914630D01*
X118120745Y-106914631D01*
X117950476Y-106974211D01*
X117797737Y-107070184D01*
X117670184Y-107197737D01*
X117574211Y-107350476D01*
X117514631Y-107520745D01*
X117514630Y-107520749D01*
X117494391Y-107700380D01*
X117467324Y-107764794D01*
X117409729Y-107804349D01*
X117346979Y-107808113D01*
X117278543Y-107794500D01*
X117278541Y-107794500D01*
X117081459Y-107794500D01*
X117081457Y-107794500D01*
X116888170Y-107832947D01*
X116888160Y-107832950D01*
X116706092Y-107908364D01*
X116706079Y-107908371D01*
X116542218Y-108017860D01*
X116542214Y-108017863D01*
X116402863Y-108157214D01*
X116402860Y-108157218D01*
X116293371Y-108321079D01*
X116293364Y-108321092D01*
X116217950Y-108503160D01*
X116217947Y-108503170D01*
X116179500Y-108696456D01*
X116179500Y-109757188D01*
X116159815Y-109824227D01*
X116107011Y-109869982D01*
X116037853Y-109879926D01*
X115989528Y-109862182D01*
X115849523Y-109774211D01*
X115679254Y-109714631D01*
X115679249Y-109714630D01*
X115500004Y-109694435D01*
X115499996Y-109694435D01*
X115320750Y-109714630D01*
X115320745Y-109714631D01*
X115150476Y-109774211D01*
X114997737Y-109870184D01*
X114870184Y-109997737D01*
X114774211Y-110150476D01*
X114714631Y-110320745D01*
X114714630Y-110320750D01*
X114694435Y-110499996D01*
X106305565Y-110499996D01*
X106285369Y-110320750D01*
X106285368Y-110320745D01*
X106261311Y-110251995D01*
X106225789Y-110150478D01*
X106212266Y-110128957D01*
X106186582Y-110088080D01*
X106129816Y-109997738D01*
X106002262Y-109870184D01*
X105987767Y-109861076D01*
X105849523Y-109774211D01*
X105679254Y-109714631D01*
X105679249Y-109714630D01*
X105500004Y-109694435D01*
X105499996Y-109694435D01*
X105320750Y-109714630D01*
X105320745Y-109714631D01*
X105150476Y-109774211D01*
X104997737Y-109870184D01*
X104870184Y-109997737D01*
X104774211Y-110150476D01*
X104714631Y-110320745D01*
X104714630Y-110320750D01*
X104694435Y-110499996D01*
X103667434Y-110499996D01*
X103624602Y-110229567D01*
X103524214Y-109854913D01*
X103519768Y-109843332D01*
X103470364Y-109714630D01*
X103385214Y-109492806D01*
X103209125Y-109147211D01*
X103096778Y-108974211D01*
X102997877Y-108821917D01*
X102753784Y-108520488D01*
X102753781Y-108520484D01*
X102479516Y-108246219D01*
X102197518Y-108017861D01*
X102178082Y-108002122D01*
X101852793Y-107790877D01*
X101507197Y-107614787D01*
X101145094Y-107475788D01*
X101145087Y-107475786D01*
X100770433Y-107375398D01*
X100770429Y-107375397D01*
X100770428Y-107375397D01*
X100387339Y-107314722D01*
X100000001Y-107294422D01*
X99999999Y-107294422D01*
X99612660Y-107314722D01*
X99229572Y-107375397D01*
X99229570Y-107375397D01*
X98854905Y-107475788D01*
X98492802Y-107614787D01*
X98147206Y-107790877D01*
X97821917Y-108002122D01*
X97520488Y-108246215D01*
X97520480Y-108246222D01*
X97246222Y-108520480D01*
X97246215Y-108520488D01*
X97002122Y-108821917D01*
X96790877Y-109147206D01*
X96614787Y-109492802D01*
X96475788Y-109854905D01*
X96419087Y-110066515D01*
X96382721Y-110126175D01*
X96319874Y-110156704D01*
X96250499Y-110148409D01*
X96196621Y-110103923D01*
X96194318Y-110100393D01*
X96193136Y-110098512D01*
X96129816Y-109997738D01*
X96002262Y-109870184D01*
X95987767Y-109861076D01*
X95849523Y-109774211D01*
X95679254Y-109714631D01*
X95679249Y-109714630D01*
X95500004Y-109694435D01*
X95499996Y-109694435D01*
X95320750Y-109714630D01*
X95320745Y-109714631D01*
X95150476Y-109774211D01*
X95040472Y-109843332D01*
X94973235Y-109862332D01*
X94906400Y-109841964D01*
X94861186Y-109788696D01*
X94850500Y-109738338D01*
X94850500Y-106261661D01*
X94870185Y-106194622D01*
X94922989Y-106148867D01*
X94992147Y-106138923D01*
X95040473Y-106156668D01*
X95150475Y-106225788D01*
X95320745Y-106285368D01*
X95320750Y-106285369D01*
X95499996Y-106305565D01*
X95500000Y-106305565D01*
X95500004Y-106305565D01*
X95679249Y-106285369D01*
X95679252Y-106285368D01*
X95679255Y-106285368D01*
X95849522Y-106225789D01*
X96002262Y-106129816D01*
X96129816Y-106002262D01*
X96225789Y-105849522D01*
X96285368Y-105679255D01*
X96285369Y-105679249D01*
X96305565Y-105500003D01*
X96305565Y-105499996D01*
X99694435Y-105499996D01*
X99694435Y-105500003D01*
X99714630Y-105679249D01*
X99714631Y-105679254D01*
X99774211Y-105849523D01*
X99837045Y-105949522D01*
X99870184Y-106002262D01*
X99997738Y-106129816D01*
X100150478Y-106225789D01*
X100320745Y-106285368D01*
X100320750Y-106285369D01*
X100499996Y-106305565D01*
X100500000Y-106305565D01*
X100500004Y-106305565D01*
X100679249Y-106285369D01*
X100679252Y-106285368D01*
X100679255Y-106285368D01*
X100849522Y-106225789D01*
X101002262Y-106129816D01*
X101129816Y-106002262D01*
X101225789Y-105849522D01*
X101285368Y-105679255D01*
X101285369Y-105679249D01*
X101305565Y-105500003D01*
X101305565Y-105499996D01*
X104694435Y-105499996D01*
X104694435Y-105500003D01*
X104714630Y-105679249D01*
X104714631Y-105679254D01*
X104774211Y-105849523D01*
X104837045Y-105949522D01*
X104870184Y-106002262D01*
X104997738Y-106129816D01*
X105150478Y-106225789D01*
X105320745Y-106285368D01*
X105320750Y-106285369D01*
X105499996Y-106305565D01*
X105500000Y-106305565D01*
X105500004Y-106305565D01*
X105679249Y-106285369D01*
X105679252Y-106285368D01*
X105679255Y-106285368D01*
X105849522Y-106225789D01*
X106002262Y-106129816D01*
X106129816Y-106002262D01*
X106225789Y-105849522D01*
X106285368Y-105679255D01*
X106285369Y-105679249D01*
X106305565Y-105500003D01*
X106305565Y-105499996D01*
X109694435Y-105499996D01*
X109694435Y-105500003D01*
X109714630Y-105679249D01*
X109714631Y-105679254D01*
X109774211Y-105849523D01*
X109837045Y-105949522D01*
X109870184Y-106002262D01*
X109997738Y-106129816D01*
X110150478Y-106225789D01*
X110320745Y-106285368D01*
X110320750Y-106285369D01*
X110499996Y-106305565D01*
X110500000Y-106305565D01*
X110500004Y-106305565D01*
X110679249Y-106285369D01*
X110679252Y-106285368D01*
X110679255Y-106285368D01*
X110849522Y-106225789D01*
X111002262Y-106129816D01*
X111129816Y-106002262D01*
X111225789Y-105849522D01*
X111285368Y-105679255D01*
X111285369Y-105679249D01*
X111305565Y-105500003D01*
X111305565Y-105499996D01*
X111285369Y-105320750D01*
X111285368Y-105320745D01*
X111278901Y-105302264D01*
X111225789Y-105150478D01*
X111225188Y-105149522D01*
X111181712Y-105080330D01*
X111129816Y-104997738D01*
X111002262Y-104870184D01*
X110971941Y-104851132D01*
X110849523Y-104774211D01*
X110679254Y-104714631D01*
X110679249Y-104714630D01*
X110500004Y-104694435D01*
X110499996Y-104694435D01*
X110320750Y-104714630D01*
X110320745Y-104714631D01*
X110150476Y-104774211D01*
X109997737Y-104870184D01*
X109870184Y-104997737D01*
X109774211Y-105150476D01*
X109714631Y-105320745D01*
X109714630Y-105320750D01*
X109694435Y-105499996D01*
X106305565Y-105499996D01*
X106285369Y-105320750D01*
X106285368Y-105320745D01*
X106278901Y-105302264D01*
X106225789Y-105150478D01*
X106225188Y-105149522D01*
X106181712Y-105080330D01*
X106129816Y-104997738D01*
X106002262Y-104870184D01*
X105971941Y-104851132D01*
X105849523Y-104774211D01*
X105679254Y-104714631D01*
X105679249Y-104714630D01*
X105500004Y-104694435D01*
X105499996Y-104694435D01*
X105320750Y-104714630D01*
X105320745Y-104714631D01*
X105150476Y-104774211D01*
X104997737Y-104870184D01*
X104870184Y-104997737D01*
X104774211Y-105150476D01*
X104714631Y-105320745D01*
X104714630Y-105320750D01*
X104694435Y-105499996D01*
X101305565Y-105499996D01*
X101285369Y-105320750D01*
X101285368Y-105320745D01*
X101278901Y-105302264D01*
X101225789Y-105150478D01*
X101225188Y-105149522D01*
X101181712Y-105080330D01*
X101129816Y-104997738D01*
X101002262Y-104870184D01*
X100971941Y-104851132D01*
X100849523Y-104774211D01*
X100679254Y-104714631D01*
X100679249Y-104714630D01*
X100500004Y-104694435D01*
X100499996Y-104694435D01*
X100320750Y-104714630D01*
X100320745Y-104714631D01*
X100150476Y-104774211D01*
X99997737Y-104870184D01*
X99870184Y-104997737D01*
X99774211Y-105150476D01*
X99714631Y-105320745D01*
X99714630Y-105320750D01*
X99694435Y-105499996D01*
X96305565Y-105499996D01*
X96285369Y-105320750D01*
X96285368Y-105320745D01*
X96278901Y-105302264D01*
X96225789Y-105150478D01*
X96225188Y-105149522D01*
X96181712Y-105080330D01*
X96129816Y-104997738D01*
X96002262Y-104870184D01*
X95971941Y-104851132D01*
X95849523Y-104774211D01*
X95679254Y-104714631D01*
X95679249Y-104714630D01*
X95500004Y-104694435D01*
X95499996Y-104694435D01*
X95320750Y-104714630D01*
X95320745Y-104714631D01*
X95150476Y-104774211D01*
X95040472Y-104843332D01*
X94973235Y-104862332D01*
X94906400Y-104841964D01*
X94861186Y-104788696D01*
X94850500Y-104738338D01*
X94850500Y-102208945D01*
X96594437Y-102208945D01*
X96594437Y-102208952D01*
X96614632Y-102388198D01*
X96614633Y-102388203D01*
X96674213Y-102558472D01*
X96770186Y-102711211D01*
X96897741Y-102838766D01*
X97001427Y-102903917D01*
X97047717Y-102956252D01*
X97058365Y-103025305D01*
X97029990Y-103089153D01*
X97001427Y-103113903D01*
X96897741Y-103179053D01*
X96770186Y-103306608D01*
X96674213Y-103459347D01*
X96614633Y-103629616D01*
X96614632Y-103629621D01*
X96594437Y-103808867D01*
X96594437Y-103808874D01*
X96614632Y-103988120D01*
X96614633Y-103988125D01*
X96674213Y-104158394D01*
X96722582Y-104235372D01*
X96770186Y-104311133D01*
X96897740Y-104438687D01*
X96988082Y-104495453D01*
X97042770Y-104529816D01*
X97050480Y-104534660D01*
X97220747Y-104594239D01*
X97220752Y-104594240D01*
X97399998Y-104614436D01*
X97400002Y-104614436D01*
X97400006Y-104614436D01*
X97579251Y-104594240D01*
X97579254Y-104594239D01*
X97579257Y-104594239D01*
X97749524Y-104534660D01*
X97902264Y-104438687D01*
X98029818Y-104311133D01*
X98125791Y-104158393D01*
X98185370Y-103988126D01*
X98195299Y-103900003D01*
X98205567Y-103808874D01*
X98205567Y-103808867D01*
X98185371Y-103629621D01*
X98185370Y-103629616D01*
X98125790Y-103459347D01*
X98082570Y-103390564D01*
X98029818Y-103306609D01*
X97902264Y-103179055D01*
X97798577Y-103113904D01*
X97752286Y-103061569D01*
X97741638Y-102992515D01*
X97770013Y-102928667D01*
X97798577Y-102903916D01*
X97837818Y-102879259D01*
X97902264Y-102838765D01*
X98029818Y-102711211D01*
X98125791Y-102558471D01*
X98185370Y-102388204D01*
X98185371Y-102388198D01*
X98205567Y-102208952D01*
X98205567Y-102208945D01*
X98185371Y-102029699D01*
X98185370Y-102029694D01*
X98174978Y-101999996D01*
X98125791Y-101859427D01*
X98116035Y-101843901D01*
X98057529Y-101750789D01*
X98029818Y-101706687D01*
X97902264Y-101579133D01*
X97819712Y-101527262D01*
X97749525Y-101483160D01*
X97579256Y-101423580D01*
X97579251Y-101423579D01*
X97400006Y-101403384D01*
X97399998Y-101403384D01*
X97220752Y-101423579D01*
X97220747Y-101423580D01*
X97050478Y-101483160D01*
X96897739Y-101579133D01*
X96770186Y-101706686D01*
X96674213Y-101859425D01*
X96614633Y-102029694D01*
X96614632Y-102029699D01*
X96594437Y-102208945D01*
X94850500Y-102208945D01*
X94850500Y-101399996D01*
X111544435Y-101399996D01*
X111544435Y-101400003D01*
X111564630Y-101579249D01*
X111564631Y-101579254D01*
X111624211Y-101749523D01*
X111683513Y-101843901D01*
X111720184Y-101902262D01*
X111847738Y-102029816D01*
X111975936Y-102110368D01*
X112000478Y-102125789D01*
X112070878Y-102150423D01*
X112127654Y-102191145D01*
X112153402Y-102256097D01*
X112139946Y-102324659D01*
X112134918Y-102333436D01*
X112124212Y-102350474D01*
X112064631Y-102520745D01*
X112064630Y-102520750D01*
X112044435Y-102699996D01*
X112044435Y-102700003D01*
X112064630Y-102879249D01*
X112064633Y-102879262D01*
X112118795Y-103034046D01*
X112122357Y-103103825D01*
X112118796Y-103115956D01*
X112064631Y-103270748D01*
X112064630Y-103270753D01*
X112044435Y-103449999D01*
X112044435Y-103450006D01*
X112064630Y-103629252D01*
X112064631Y-103629257D01*
X112124211Y-103799526D01*
X112187346Y-103900004D01*
X112220184Y-103952265D01*
X112347738Y-104079819D01*
X112423318Y-104127309D01*
X112489289Y-104168762D01*
X112500478Y-104175792D01*
X112670745Y-104235371D01*
X112670750Y-104235372D01*
X112849996Y-104255568D01*
X112850000Y-104255568D01*
X112850004Y-104255568D01*
X113029249Y-104235372D01*
X113029252Y-104235371D01*
X113029255Y-104235371D01*
X113199522Y-104175792D01*
X113352262Y-104079819D01*
X113479816Y-103952265D01*
X113575789Y-103799525D01*
X113635368Y-103629258D01*
X113635369Y-103629252D01*
X113655565Y-103450006D01*
X113655565Y-103449999D01*
X113635369Y-103270753D01*
X113635366Y-103270740D01*
X113581204Y-103115955D01*
X113577642Y-103046176D01*
X113581198Y-103034061D01*
X113619749Y-102923889D01*
X113635367Y-102879259D01*
X113635369Y-102879249D01*
X113655565Y-102700003D01*
X113655565Y-102699996D01*
X114194435Y-102699996D01*
X114194435Y-102700003D01*
X114214630Y-102879249D01*
X114214633Y-102879262D01*
X114268795Y-103034046D01*
X114272357Y-103103825D01*
X114268796Y-103115956D01*
X114214631Y-103270748D01*
X114214630Y-103270753D01*
X114194435Y-103449999D01*
X114194435Y-103450006D01*
X114214630Y-103629252D01*
X114214633Y-103629265D01*
X114268795Y-103784049D01*
X114272357Y-103853828D01*
X114268796Y-103865959D01*
X114214631Y-104020751D01*
X114214630Y-104020756D01*
X114194435Y-104200002D01*
X114194435Y-104200009D01*
X114214630Y-104379255D01*
X114214631Y-104379260D01*
X114274211Y-104549529D01*
X114322128Y-104625788D01*
X114370184Y-104702268D01*
X114497738Y-104829822D01*
X114561974Y-104870184D01*
X114650478Y-104925795D01*
X114720875Y-104950428D01*
X114777651Y-104991150D01*
X114803399Y-105056102D01*
X114789943Y-105124664D01*
X114784915Y-105133442D01*
X114774211Y-105150476D01*
X114714631Y-105320745D01*
X114714630Y-105320750D01*
X114694435Y-105499996D01*
X114694435Y-105500003D01*
X114714630Y-105679249D01*
X114714631Y-105679254D01*
X114774211Y-105849523D01*
X114837045Y-105949522D01*
X114870184Y-106002262D01*
X114997738Y-106129816D01*
X115150478Y-106225789D01*
X115320745Y-106285368D01*
X115320750Y-106285369D01*
X115499996Y-106305565D01*
X115500000Y-106305565D01*
X115500004Y-106305565D01*
X115679249Y-106285369D01*
X115679252Y-106285368D01*
X115679255Y-106285368D01*
X115849522Y-106225789D01*
X116002262Y-106129816D01*
X116129816Y-106002262D01*
X116225789Y-105849522D01*
X116285368Y-105679255D01*
X116285369Y-105679249D01*
X116305565Y-105500003D01*
X116305565Y-105499996D01*
X116285369Y-105320750D01*
X116285368Y-105320745D01*
X116278901Y-105302264D01*
X116225789Y-105150478D01*
X116225188Y-105149522D01*
X116181712Y-105080330D01*
X116129816Y-104997738D01*
X116002262Y-104870184D01*
X115957350Y-104841964D01*
X115890559Y-104799996D01*
X125394435Y-104799996D01*
X125394435Y-104800003D01*
X125414630Y-104979249D01*
X125414631Y-104979254D01*
X125474211Y-105149523D01*
X125554994Y-105278087D01*
X125570184Y-105302262D01*
X125697738Y-105429816D01*
X125850478Y-105525789D01*
X126020745Y-105585368D01*
X126020750Y-105585369D01*
X126199996Y-105605565D01*
X126200000Y-105605565D01*
X126200004Y-105605565D01*
X126379249Y-105585369D01*
X126379252Y-105585368D01*
X126379255Y-105585368D01*
X126549522Y-105525789D01*
X126702262Y-105429816D01*
X126829816Y-105302262D01*
X126845007Y-105278084D01*
X126897339Y-105231796D01*
X126966393Y-105221146D01*
X127030242Y-105249521D01*
X127054990Y-105278082D01*
X127070184Y-105302262D01*
X127197738Y-105429816D01*
X127350478Y-105525789D01*
X127520745Y-105585368D01*
X127520750Y-105585369D01*
X127699996Y-105605565D01*
X127700000Y-105605565D01*
X127700004Y-105605565D01*
X127879249Y-105585369D01*
X127879252Y-105585368D01*
X127879255Y-105585368D01*
X128049522Y-105525789D01*
X128090572Y-105499996D01*
X128134027Y-105472691D01*
X128201264Y-105453690D01*
X128265973Y-105472691D01*
X128350475Y-105525788D01*
X128520745Y-105585368D01*
X128520750Y-105585369D01*
X128699996Y-105605565D01*
X128700000Y-105605565D01*
X128700004Y-105605565D01*
X128879249Y-105585369D01*
X128879252Y-105585368D01*
X128879255Y-105585368D01*
X129049522Y-105525789D01*
X129090572Y-105499996D01*
X129134027Y-105472691D01*
X129201264Y-105453690D01*
X129265973Y-105472691D01*
X129350475Y-105525788D01*
X129520745Y-105585368D01*
X129520750Y-105585369D01*
X129699996Y-105605565D01*
X129700000Y-105605565D01*
X129700003Y-105605565D01*
X129823352Y-105591666D01*
X129868142Y-105586620D01*
X129936964Y-105598674D01*
X129988344Y-105646023D01*
X130005246Y-105695957D01*
X130014630Y-105779249D01*
X130014631Y-105779254D01*
X130074211Y-105949523D01*
X130170184Y-106102262D01*
X130297738Y-106229816D01*
X130450478Y-106325789D01*
X130620745Y-106385368D01*
X130620750Y-106385369D01*
X130799996Y-106405565D01*
X130800000Y-106405565D01*
X130800004Y-106405565D01*
X130979249Y-106385369D01*
X130979252Y-106385368D01*
X130979255Y-106385368D01*
X131149522Y-106325789D01*
X131302262Y-106229816D01*
X131429816Y-106102262D01*
X131525789Y-105949522D01*
X131585368Y-105779255D01*
X131592644Y-105714680D01*
X131619710Y-105650265D01*
X131677304Y-105610710D01*
X131701981Y-105605342D01*
X131879249Y-105585369D01*
X131879252Y-105585368D01*
X131879255Y-105585368D01*
X132049522Y-105525789D01*
X132202262Y-105429816D01*
X132329816Y-105302262D01*
X132425789Y-105149522D01*
X132485368Y-104979255D01*
X132488616Y-104950428D01*
X132505565Y-104800003D01*
X132505565Y-104799996D01*
X132485369Y-104620750D01*
X132485368Y-104620745D01*
X132460448Y-104549528D01*
X132425789Y-104450478D01*
X132329816Y-104297738D01*
X132202262Y-104170184D01*
X132134027Y-104127309D01*
X132049523Y-104074211D01*
X131879254Y-104014631D01*
X131879249Y-104014630D01*
X131700004Y-103994435D01*
X131699996Y-103994435D01*
X131520750Y-104014630D01*
X131520745Y-104014631D01*
X131350476Y-104074211D01*
X131197737Y-104170184D01*
X131070184Y-104297737D01*
X130974211Y-104450476D01*
X130914631Y-104620745D01*
X130914630Y-104620749D01*
X130907355Y-104685321D01*
X130880288Y-104749735D01*
X130822693Y-104789290D01*
X130798019Y-104794657D01*
X130631857Y-104813379D01*
X130563035Y-104801325D01*
X130511655Y-104753976D01*
X130494753Y-104704041D01*
X130485369Y-104620750D01*
X130485368Y-104620745D01*
X130460448Y-104549528D01*
X130425789Y-104450478D01*
X130329816Y-104297738D01*
X130202262Y-104170184D01*
X130134027Y-104127309D01*
X130049523Y-104074211D01*
X129879254Y-104014631D01*
X129879249Y-104014630D01*
X129700004Y-103994435D01*
X129699996Y-103994435D01*
X129520750Y-104014630D01*
X129520737Y-104014633D01*
X129350479Y-104074209D01*
X129265971Y-104127309D01*
X129198734Y-104146309D01*
X129134029Y-104127309D01*
X129049520Y-104074209D01*
X128879262Y-104014633D01*
X128879249Y-104014630D01*
X128700004Y-103994435D01*
X128699996Y-103994435D01*
X128520750Y-104014630D01*
X128520737Y-104014633D01*
X128350479Y-104074209D01*
X128265971Y-104127309D01*
X128198734Y-104146309D01*
X128134029Y-104127309D01*
X128049520Y-104074209D01*
X127879262Y-104014633D01*
X127879249Y-104014630D01*
X127700004Y-103994435D01*
X127699996Y-103994435D01*
X127520750Y-104014630D01*
X127520745Y-104014631D01*
X127350476Y-104074211D01*
X127197737Y-104170184D01*
X127070184Y-104297737D01*
X127054994Y-104321913D01*
X127002659Y-104368204D01*
X126933605Y-104378852D01*
X126869757Y-104350477D01*
X126845006Y-104321913D01*
X126829816Y-104297738D01*
X126702262Y-104170184D01*
X126634027Y-104127309D01*
X126549523Y-104074211D01*
X126379254Y-104014631D01*
X126379249Y-104014630D01*
X126200004Y-103994435D01*
X126199996Y-103994435D01*
X126020750Y-104014630D01*
X126020745Y-104014631D01*
X125850476Y-104074211D01*
X125697737Y-104170184D01*
X125570184Y-104297737D01*
X125474211Y-104450476D01*
X125414631Y-104620745D01*
X125414630Y-104620750D01*
X125394435Y-104799996D01*
X115890559Y-104799996D01*
X115849521Y-104774210D01*
X115802614Y-104757797D01*
X115779123Y-104749577D01*
X115722348Y-104708857D01*
X115696600Y-104643904D01*
X115710056Y-104575342D01*
X115715086Y-104566561D01*
X115725789Y-104549528D01*
X115785368Y-104379261D01*
X115793044Y-104311133D01*
X115805565Y-104200009D01*
X115805565Y-104200002D01*
X115785369Y-104020756D01*
X115785366Y-104020743D01*
X115731204Y-103865958D01*
X115727642Y-103796179D01*
X115731198Y-103784064D01*
X115785243Y-103629616D01*
X115785367Y-103629262D01*
X115785369Y-103629252D01*
X115805565Y-103450006D01*
X115805565Y-103449999D01*
X115785369Y-103270753D01*
X115785366Y-103270740D01*
X115731204Y-103115955D01*
X115727642Y-103046176D01*
X115731198Y-103034061D01*
X115769749Y-102923889D01*
X115785367Y-102879259D01*
X115785369Y-102879249D01*
X115805565Y-102700003D01*
X115805565Y-102699996D01*
X115785369Y-102520750D01*
X115785368Y-102520745D01*
X115781168Y-102508742D01*
X115725789Y-102350478D01*
X115725786Y-102350474D01*
X115640431Y-102214632D01*
X115629816Y-102197738D01*
X115502262Y-102070184D01*
X115349523Y-101974211D01*
X115179254Y-101914631D01*
X115179249Y-101914630D01*
X115000004Y-101894435D01*
X114999996Y-101894435D01*
X114820750Y-101914630D01*
X114820745Y-101914631D01*
X114650476Y-101974211D01*
X114497737Y-102070184D01*
X114370184Y-102197737D01*
X114274211Y-102350476D01*
X114214631Y-102520745D01*
X114214630Y-102520750D01*
X114194435Y-102699996D01*
X113655565Y-102699996D01*
X113635369Y-102520750D01*
X113635368Y-102520745D01*
X113631168Y-102508742D01*
X113575789Y-102350478D01*
X113575786Y-102350474D01*
X113490431Y-102214632D01*
X113479816Y-102197738D01*
X113352262Y-102070184D01*
X113321395Y-102050789D01*
X113199519Y-101974209D01*
X113129120Y-101949575D01*
X113072344Y-101908854D01*
X113046597Y-101843901D01*
X113060053Y-101775339D01*
X113065078Y-101766568D01*
X113075789Y-101749522D01*
X113135368Y-101579255D01*
X113141226Y-101527262D01*
X113155565Y-101400003D01*
X113155565Y-101399996D01*
X113135369Y-101220750D01*
X113135368Y-101220745D01*
X113104816Y-101133433D01*
X113075789Y-101050478D01*
X113044073Y-101000003D01*
X112993537Y-100919575D01*
X112974537Y-100852339D01*
X112994905Y-100785503D01*
X113044734Y-100741881D01*
X113049520Y-100739576D01*
X113049643Y-100739499D01*
X113202262Y-100643602D01*
X113329816Y-100516048D01*
X113425789Y-100363308D01*
X113485368Y-100193041D01*
X113488767Y-100162876D01*
X113505565Y-100013789D01*
X113505565Y-100013782D01*
X113485369Y-99834536D01*
X113485368Y-99834531D01*
X113464261Y-99774211D01*
X113425789Y-99664264D01*
X113329816Y-99511524D01*
X113202262Y-99383970D01*
X113153596Y-99353391D01*
X113049523Y-99287997D01*
X112879254Y-99228417D01*
X112879249Y-99228416D01*
X112700004Y-99208221D01*
X112699996Y-99208221D01*
X112520750Y-99228416D01*
X112520745Y-99228417D01*
X112350476Y-99287997D01*
X112197737Y-99383970D01*
X112070184Y-99511523D01*
X111974211Y-99664262D01*
X111914631Y-99834531D01*
X111914630Y-99834536D01*
X111894435Y-100013782D01*
X111894435Y-100013789D01*
X111914630Y-100193035D01*
X111914631Y-100193040D01*
X111974211Y-100363309D01*
X112056463Y-100494211D01*
X112075463Y-100561447D01*
X112055095Y-100628283D01*
X112005266Y-100671905D01*
X112000479Y-100674209D01*
X111847737Y-100770184D01*
X111720184Y-100897737D01*
X111624211Y-101050476D01*
X111564631Y-101220745D01*
X111564630Y-101220750D01*
X111544435Y-101399996D01*
X94850500Y-101399996D01*
X94850500Y-101261661D01*
X94870185Y-101194622D01*
X94922989Y-101148867D01*
X94992147Y-101138923D01*
X95040473Y-101156668D01*
X95150475Y-101225788D01*
X95320745Y-101285368D01*
X95320750Y-101285369D01*
X95499996Y-101305565D01*
X95500000Y-101305565D01*
X95500004Y-101305565D01*
X95679249Y-101285369D01*
X95679252Y-101285368D01*
X95679255Y-101285368D01*
X95849522Y-101225789D01*
X96002262Y-101129816D01*
X96129816Y-101002262D01*
X96225789Y-100849522D01*
X96285368Y-100679255D01*
X96285794Y-100675476D01*
X96305565Y-100500003D01*
X96305565Y-100499996D01*
X99694435Y-100499996D01*
X99694435Y-100500003D01*
X99714630Y-100679249D01*
X99714631Y-100679254D01*
X99774211Y-100849523D01*
X99853353Y-100975476D01*
X99870184Y-101002262D01*
X99997738Y-101129816D01*
X100038993Y-101155738D01*
X100142450Y-101220745D01*
X100150478Y-101225789D01*
X100288860Y-101274211D01*
X100320745Y-101285368D01*
X100320750Y-101285369D01*
X100499996Y-101305565D01*
X100500000Y-101305565D01*
X100500004Y-101305565D01*
X100679249Y-101285369D01*
X100679252Y-101285368D01*
X100679255Y-101285368D01*
X100849522Y-101225789D01*
X101002262Y-101129816D01*
X101129816Y-101002262D01*
X101225789Y-100849522D01*
X101285368Y-100679255D01*
X101285794Y-100675476D01*
X101305565Y-100500003D01*
X101305565Y-100499996D01*
X104694435Y-100499996D01*
X104694435Y-100500003D01*
X104714630Y-100679249D01*
X104714631Y-100679254D01*
X104774211Y-100849523D01*
X104853353Y-100975476D01*
X104870184Y-101002262D01*
X104997738Y-101129816D01*
X105038993Y-101155738D01*
X105142450Y-101220745D01*
X105150478Y-101225789D01*
X105288860Y-101274211D01*
X105320745Y-101285368D01*
X105320750Y-101285369D01*
X105499996Y-101305565D01*
X105500000Y-101305565D01*
X105500004Y-101305565D01*
X105679249Y-101285369D01*
X105679252Y-101285368D01*
X105679255Y-101285368D01*
X105849522Y-101225789D01*
X106002262Y-101129816D01*
X106129816Y-101002262D01*
X106225789Y-100849522D01*
X106285368Y-100679255D01*
X106285794Y-100675476D01*
X106305565Y-100500003D01*
X106305565Y-100499996D01*
X109694435Y-100499996D01*
X109694435Y-100500003D01*
X109714630Y-100679249D01*
X109714631Y-100679254D01*
X109774211Y-100849523D01*
X109853353Y-100975476D01*
X109870184Y-101002262D01*
X109997738Y-101129816D01*
X110038993Y-101155738D01*
X110142450Y-101220745D01*
X110150478Y-101225789D01*
X110288860Y-101274211D01*
X110320745Y-101285368D01*
X110320750Y-101285369D01*
X110499996Y-101305565D01*
X110500000Y-101305565D01*
X110500004Y-101305565D01*
X110679249Y-101285369D01*
X110679252Y-101285368D01*
X110679255Y-101285368D01*
X110849522Y-101225789D01*
X111002262Y-101129816D01*
X111129816Y-101002262D01*
X111225789Y-100849522D01*
X111285368Y-100679255D01*
X111285794Y-100675476D01*
X111305565Y-100500003D01*
X111305565Y-100499996D01*
X111285369Y-100320750D01*
X111285368Y-100320745D01*
X111277833Y-100299211D01*
X111225789Y-100150478D01*
X111196455Y-100103794D01*
X111153171Y-100034907D01*
X111129816Y-99997738D01*
X111002262Y-99870184D01*
X110979130Y-99855649D01*
X110849523Y-99774211D01*
X110679254Y-99714631D01*
X110679249Y-99714630D01*
X110500004Y-99694435D01*
X110499996Y-99694435D01*
X110320750Y-99714630D01*
X110320745Y-99714631D01*
X110150476Y-99774211D01*
X109997737Y-99870184D01*
X109870184Y-99997737D01*
X109774211Y-100150476D01*
X109714631Y-100320745D01*
X109714630Y-100320750D01*
X109694435Y-100499996D01*
X106305565Y-100499996D01*
X106285369Y-100320750D01*
X106285368Y-100320745D01*
X106277833Y-100299211D01*
X106225789Y-100150478D01*
X106196455Y-100103794D01*
X106153171Y-100034907D01*
X106129816Y-99997738D01*
X106002262Y-99870184D01*
X105979130Y-99855649D01*
X105849523Y-99774211D01*
X105679254Y-99714631D01*
X105679249Y-99714630D01*
X105500004Y-99694435D01*
X105499996Y-99694435D01*
X105320750Y-99714630D01*
X105320745Y-99714631D01*
X105150476Y-99774211D01*
X104997737Y-99870184D01*
X104870184Y-99997737D01*
X104774211Y-100150476D01*
X104714631Y-100320745D01*
X104714630Y-100320750D01*
X104694435Y-100499996D01*
X101305565Y-100499996D01*
X101285369Y-100320750D01*
X101285368Y-100320745D01*
X101277833Y-100299211D01*
X101225789Y-100150478D01*
X101196455Y-100103794D01*
X101153171Y-100034907D01*
X101129816Y-99997738D01*
X101002262Y-99870184D01*
X100979130Y-99855649D01*
X100849523Y-99774211D01*
X100679254Y-99714631D01*
X100679249Y-99714630D01*
X100500004Y-99694435D01*
X100499996Y-99694435D01*
X100320750Y-99714630D01*
X100320745Y-99714631D01*
X100150476Y-99774211D01*
X99997737Y-99870184D01*
X99870184Y-99997737D01*
X99774211Y-100150476D01*
X99714631Y-100320745D01*
X99714630Y-100320750D01*
X99694435Y-100499996D01*
X96305565Y-100499996D01*
X96285369Y-100320750D01*
X96285368Y-100320745D01*
X96277833Y-100299211D01*
X96225789Y-100150478D01*
X96196455Y-100103794D01*
X96153171Y-100034907D01*
X96129816Y-99997738D01*
X96002262Y-99870184D01*
X95979130Y-99855649D01*
X95849523Y-99774211D01*
X95679254Y-99714631D01*
X95679249Y-99714630D01*
X95500004Y-99694435D01*
X95499996Y-99694435D01*
X95320750Y-99714630D01*
X95320745Y-99714631D01*
X95150476Y-99774211D01*
X95040472Y-99843332D01*
X94973235Y-99862332D01*
X94906400Y-99841964D01*
X94861186Y-99788696D01*
X94850500Y-99738338D01*
X94850500Y-96261661D01*
X94870185Y-96194622D01*
X94922989Y-96148867D01*
X94992147Y-96138923D01*
X95040472Y-96156667D01*
X95061355Y-96169789D01*
X95150475Y-96225788D01*
X95320745Y-96285368D01*
X95320750Y-96285369D01*
X95499996Y-96305565D01*
X95500000Y-96305565D01*
X95500004Y-96305565D01*
X95679249Y-96285369D01*
X95679252Y-96285368D01*
X95679255Y-96285368D01*
X95849522Y-96225789D01*
X95850021Y-96225476D01*
X95913118Y-96185829D01*
X95983137Y-96141832D01*
X96050373Y-96122832D01*
X96117208Y-96143199D01*
X96162423Y-96196467D01*
X96171661Y-96265723D01*
X96169315Y-96277266D01*
X96114892Y-96492175D01*
X96114890Y-96492187D01*
X96094357Y-96739994D01*
X96094357Y-96740005D01*
X96114890Y-96987812D01*
X96114892Y-96987824D01*
X96175936Y-97228881D01*
X96275826Y-97456606D01*
X96411833Y-97664782D01*
X96419389Y-97672990D01*
X96580256Y-97847738D01*
X96776491Y-98000474D01*
X96776493Y-98000475D01*
X96922065Y-98079255D01*
X96995190Y-98118828D01*
X97230386Y-98199571D01*
X97475665Y-98240500D01*
X97724335Y-98240500D01*
X97969614Y-98199571D01*
X98204810Y-98118828D01*
X98423509Y-98000474D01*
X98619744Y-97847738D01*
X98788164Y-97664785D01*
X98924173Y-97456607D01*
X99024063Y-97228881D01*
X99056701Y-97099996D01*
X108369435Y-97099996D01*
X108369435Y-97100003D01*
X108389630Y-97279249D01*
X108389631Y-97279254D01*
X108449211Y-97449523D01*
X108543488Y-97599563D01*
X108545184Y-97602262D01*
X108672738Y-97729816D01*
X108752314Y-97779817D01*
X108824387Y-97825104D01*
X108825478Y-97825789D01*
X108976306Y-97878566D01*
X108995745Y-97885368D01*
X108995750Y-97885369D01*
X109174996Y-97905565D01*
X109175000Y-97905565D01*
X109175004Y-97905565D01*
X109354249Y-97885369D01*
X109354252Y-97885368D01*
X109354255Y-97885368D01*
X109524522Y-97825789D01*
X109677262Y-97729816D01*
X109804816Y-97602262D01*
X109843923Y-97540022D01*
X109896256Y-97493733D01*
X109965310Y-97483084D01*
X110029158Y-97511459D01*
X110067530Y-97569849D01*
X110068243Y-97639715D01*
X110065958Y-97646950D01*
X110047638Y-97699305D01*
X110047636Y-97699313D01*
X110027441Y-97878559D01*
X110027441Y-97878566D01*
X110047636Y-98057810D01*
X110047637Y-98057817D01*
X110107217Y-98228086D01*
X110120687Y-98249523D01*
X110203190Y-98380825D01*
X110330744Y-98508379D01*
X110364861Y-98529816D01*
X110444511Y-98579864D01*
X110483484Y-98604352D01*
X110653751Y-98663931D01*
X110653756Y-98663932D01*
X110833002Y-98684128D01*
X110833006Y-98684128D01*
X110833010Y-98684128D01*
X111012255Y-98663932D01*
X111012258Y-98663931D01*
X111012261Y-98663931D01*
X111182528Y-98604352D01*
X111335268Y-98508379D01*
X111462822Y-98380825D01*
X111558795Y-98228085D01*
X111618374Y-98057818D01*
X111618374Y-98057816D01*
X111618376Y-98057810D01*
X111638571Y-97878566D01*
X111638571Y-97878560D01*
X111622777Y-97738384D01*
X111634831Y-97669562D01*
X111682181Y-97618182D01*
X111745997Y-97600500D01*
X112085511Y-97600500D01*
X112085527Y-97600501D01*
X112189424Y-97600501D01*
X112256463Y-97620186D01*
X112302218Y-97672990D01*
X112312644Y-97738384D01*
X112294435Y-97899996D01*
X112294435Y-97900003D01*
X112314630Y-98079249D01*
X112314631Y-98079254D01*
X112374211Y-98249523D01*
X112391801Y-98277517D01*
X112470184Y-98402262D01*
X112597738Y-98529816D01*
X112668392Y-98574211D01*
X112716359Y-98604351D01*
X112750478Y-98625789D01*
X112877352Y-98670184D01*
X112920745Y-98685368D01*
X112920750Y-98685369D01*
X113099996Y-98705565D01*
X113100000Y-98705565D01*
X113100004Y-98705565D01*
X113279249Y-98685369D01*
X113279252Y-98685368D01*
X113279255Y-98685368D01*
X113449522Y-98625789D01*
X113602262Y-98529816D01*
X113729816Y-98402262D01*
X113825789Y-98249522D01*
X113885368Y-98079255D01*
X113885369Y-98079249D01*
X113905565Y-97900003D01*
X113905565Y-97899996D01*
X113885369Y-97720750D01*
X113885368Y-97720745D01*
X113869195Y-97674525D01*
X113825789Y-97550478D01*
X113819220Y-97540024D01*
X113784540Y-97484830D01*
X113729816Y-97397738D01*
X113602262Y-97270184D01*
X113544946Y-97234170D01*
X113449523Y-97174211D01*
X113279254Y-97114631D01*
X113279250Y-97114630D01*
X113200368Y-97105743D01*
X113135954Y-97078676D01*
X113096399Y-97021082D01*
X113094262Y-96951245D01*
X113126569Y-96894844D01*
X115012821Y-95008593D01*
X115074142Y-94975110D01*
X115143834Y-94980094D01*
X115199767Y-95021966D01*
X115224184Y-95087430D01*
X115224500Y-95096276D01*
X115224500Y-100807983D01*
X115224499Y-100808001D01*
X115224499Y-100973707D01*
X115224498Y-100973707D01*
X115232150Y-101002262D01*
X115265423Y-101126438D01*
X115265424Y-101126440D01*
X115265423Y-101126440D01*
X115282337Y-101155734D01*
X115282339Y-101155736D01*
X115282340Y-101155738D01*
X115316342Y-101214632D01*
X115344479Y-101263368D01*
X115372824Y-101291713D01*
X115406309Y-101353036D01*
X115408363Y-101365510D01*
X115418156Y-101452428D01*
X115477736Y-101622700D01*
X115557424Y-101749522D01*
X115573710Y-101775441D01*
X115701264Y-101902995D01*
X115752819Y-101935389D01*
X115814603Y-101974211D01*
X115854004Y-101998968D01*
X115942160Y-102029815D01*
X116024271Y-102058547D01*
X116024276Y-102058548D01*
X116203522Y-102078744D01*
X116203526Y-102078744D01*
X116203530Y-102078744D01*
X116382775Y-102058548D01*
X116382778Y-102058547D01*
X116382781Y-102058547D01*
X116553048Y-101998968D01*
X116705788Y-101902995D01*
X116833342Y-101775441D01*
X116929315Y-101622701D01*
X116988894Y-101452434D01*
X116994421Y-101403384D01*
X117003253Y-101324996D01*
X118094435Y-101324996D01*
X118094435Y-101325003D01*
X118114630Y-101504249D01*
X118114631Y-101504254D01*
X118174211Y-101674523D01*
X118256551Y-101805565D01*
X118270184Y-101827262D01*
X118397738Y-101954816D01*
X118469643Y-101999997D01*
X118516905Y-102029694D01*
X118550478Y-102050789D01*
X118605906Y-102070184D01*
X118720745Y-102110368D01*
X118720750Y-102110369D01*
X118899996Y-102130565D01*
X118900000Y-102130565D01*
X118900004Y-102130565D01*
X119079249Y-102110369D01*
X119079252Y-102110368D01*
X119079255Y-102110368D01*
X119249522Y-102050789D01*
X119402262Y-101954816D01*
X119529816Y-101827262D01*
X119625789Y-101674522D01*
X119685368Y-101504255D01*
X119685593Y-101502262D01*
X119705565Y-101325003D01*
X119705565Y-101324996D01*
X119685369Y-101145750D01*
X119685368Y-101145745D01*
X119656978Y-101064611D01*
X119625789Y-100975478D01*
X119622934Y-100970935D01*
X119573691Y-100892564D01*
X119529816Y-100822738D01*
X119402262Y-100695184D01*
X119365214Y-100671905D01*
X119249523Y-100599211D01*
X119079254Y-100539631D01*
X119079249Y-100539630D01*
X118900004Y-100519435D01*
X118899996Y-100519435D01*
X118720750Y-100539630D01*
X118720745Y-100539631D01*
X118550476Y-100599211D01*
X118397737Y-100695184D01*
X118270184Y-100822737D01*
X118174211Y-100975476D01*
X118114631Y-101145745D01*
X118114630Y-101145750D01*
X118094435Y-101324996D01*
X117003253Y-101324996D01*
X117009091Y-101273182D01*
X117009091Y-101273176D01*
X116991528Y-101117301D01*
X117003582Y-101048479D01*
X117009754Y-101037445D01*
X117033281Y-101000003D01*
X117100789Y-100892564D01*
X117124742Y-100824107D01*
X117154100Y-100777384D01*
X117416018Y-100515467D01*
X117416023Y-100515463D01*
X117426226Y-100505259D01*
X117426228Y-100505259D01*
X117538032Y-100393455D01*
X117592443Y-100299211D01*
X117617089Y-100256524D01*
X117658012Y-100103796D01*
X117658012Y-99945682D01*
X117658012Y-99490046D01*
X117656635Y-99484908D01*
X117629589Y-99383970D01*
X117617089Y-99337319D01*
X117598807Y-99305653D01*
X117595541Y-99299996D01*
X118994017Y-99299996D01*
X118994017Y-99300003D01*
X119014212Y-99479249D01*
X119014213Y-99479254D01*
X119073793Y-99649523D01*
X119114704Y-99714632D01*
X119169766Y-99802262D01*
X119297320Y-99929816D01*
X119306317Y-99935469D01*
X119405415Y-99997737D01*
X119450060Y-100025789D01*
X119620327Y-100085368D01*
X119620332Y-100085369D01*
X119799578Y-100105565D01*
X119799582Y-100105565D01*
X119799586Y-100105565D01*
X119978831Y-100085369D01*
X119978834Y-100085368D01*
X119978837Y-100085368D01*
X120149104Y-100025789D01*
X120301844Y-99929816D01*
X120376011Y-99855649D01*
X121111241Y-99855649D01*
X121111241Y-99855656D01*
X121131436Y-100034902D01*
X121131437Y-100034907D01*
X121191017Y-100205176D01*
X121263638Y-100320750D01*
X121286990Y-100357915D01*
X121414544Y-100485469D01*
X121567284Y-100581442D01*
X121701148Y-100628283D01*
X121737551Y-100641021D01*
X121737556Y-100641022D01*
X121916802Y-100661218D01*
X121916806Y-100661218D01*
X121916809Y-100661218D01*
X122042426Y-100647064D01*
X122088862Y-100641832D01*
X122157684Y-100653886D01*
X122209064Y-100701235D01*
X122226688Y-100768846D01*
X122219789Y-100806002D01*
X122214633Y-100820736D01*
X122214630Y-100820750D01*
X122194435Y-100999996D01*
X122194435Y-101000004D01*
X122201714Y-101064611D01*
X122189659Y-101133433D01*
X122142310Y-101184812D01*
X122074699Y-101202436D01*
X122064611Y-101201714D01*
X122000004Y-101194435D01*
X121999996Y-101194435D01*
X121820750Y-101214630D01*
X121820745Y-101214631D01*
X121650476Y-101274211D01*
X121497737Y-101370184D01*
X121370184Y-101497737D01*
X121274211Y-101650476D01*
X121214631Y-101820745D01*
X121214630Y-101820750D01*
X121194435Y-101999996D01*
X121194435Y-102000003D01*
X121214630Y-102179249D01*
X121214631Y-102179254D01*
X121274211Y-102349523D01*
X121307250Y-102402104D01*
X121370184Y-102502262D01*
X121497738Y-102629816D01*
X121650478Y-102725789D01*
X121820745Y-102785368D01*
X121820750Y-102785369D01*
X121999996Y-102805565D01*
X122000000Y-102805565D01*
X122000004Y-102805565D01*
X122179249Y-102785369D01*
X122179252Y-102785368D01*
X122179255Y-102785368D01*
X122349522Y-102725789D01*
X122502262Y-102629816D01*
X122547555Y-102584522D01*
X122608876Y-102551038D01*
X122678567Y-102556022D01*
X122734501Y-102597893D01*
X122758919Y-102663357D01*
X122752277Y-102713158D01*
X122714632Y-102820742D01*
X122714630Y-102820750D01*
X122694435Y-102999996D01*
X122694435Y-103000003D01*
X122714630Y-103179249D01*
X122714631Y-103179254D01*
X122774211Y-103349523D01*
X122799999Y-103390564D01*
X122870184Y-103502262D01*
X122997738Y-103629816D01*
X123049363Y-103662254D01*
X123143887Y-103721648D01*
X123190178Y-103773983D01*
X123201135Y-103840523D01*
X123194436Y-103899997D01*
X123194435Y-103900004D01*
X123214630Y-104079249D01*
X123214631Y-104079254D01*
X123274211Y-104249523D01*
X123355728Y-104379255D01*
X123370184Y-104402262D01*
X123497738Y-104529816D01*
X123529111Y-104549529D01*
X123642450Y-104620745D01*
X123650478Y-104625789D01*
X123702248Y-104643904D01*
X123820745Y-104685368D01*
X123820750Y-104685369D01*
X123999996Y-104705565D01*
X124000000Y-104705565D01*
X124000004Y-104705565D01*
X124179249Y-104685369D01*
X124179252Y-104685368D01*
X124179255Y-104685368D01*
X124349522Y-104625789D01*
X124502262Y-104529816D01*
X124629816Y-104402262D01*
X124725789Y-104249522D01*
X124785368Y-104079255D01*
X124785369Y-104079249D01*
X124805565Y-103900003D01*
X124805565Y-103899997D01*
X124786532Y-103731076D01*
X124798586Y-103662254D01*
X124845935Y-103610874D01*
X124913546Y-103593250D01*
X124979952Y-103614976D01*
X124997433Y-103629511D01*
X124997738Y-103629816D01*
X125049363Y-103662254D01*
X125143887Y-103721648D01*
X125150478Y-103725789D01*
X125288209Y-103773983D01*
X125320745Y-103785368D01*
X125320750Y-103785369D01*
X125499996Y-103805565D01*
X125500000Y-103805565D01*
X125500004Y-103805565D01*
X125679249Y-103785369D01*
X125679252Y-103785368D01*
X125679255Y-103785368D01*
X125849522Y-103725789D01*
X126002262Y-103629816D01*
X126112319Y-103519759D01*
X126173642Y-103486274D01*
X126243334Y-103491258D01*
X126287681Y-103519759D01*
X126397738Y-103629816D01*
X126449363Y-103662254D01*
X126543887Y-103721648D01*
X126550478Y-103725789D01*
X126688209Y-103773983D01*
X126720745Y-103785368D01*
X126720750Y-103785369D01*
X126899996Y-103805565D01*
X126900000Y-103805565D01*
X126900004Y-103805565D01*
X127079249Y-103785369D01*
X127079252Y-103785368D01*
X127079255Y-103785368D01*
X127249522Y-103725789D01*
X127402262Y-103629816D01*
X127529816Y-103502262D01*
X127625789Y-103349522D01*
X127685368Y-103179255D01*
X127685470Y-103178350D01*
X127705565Y-103000003D01*
X127705565Y-102999996D01*
X127685369Y-102820750D01*
X127685368Y-102820745D01*
X127652141Y-102725788D01*
X127625789Y-102650478D01*
X127529816Y-102497738D01*
X127402262Y-102370184D01*
X127343778Y-102333436D01*
X127249523Y-102274211D01*
X127079254Y-102214631D01*
X127079249Y-102214630D01*
X126900004Y-102194435D01*
X126899996Y-102194435D01*
X126720750Y-102214630D01*
X126720745Y-102214631D01*
X126550476Y-102274211D01*
X126397737Y-102370184D01*
X126287681Y-102480241D01*
X126226358Y-102513726D01*
X126156666Y-102508742D01*
X126112319Y-102480241D01*
X126002262Y-102370184D01*
X125849523Y-102274211D01*
X125679254Y-102214631D01*
X125679249Y-102214630D01*
X125500004Y-102194435D01*
X125499996Y-102194435D01*
X125320750Y-102214630D01*
X125320745Y-102214631D01*
X125150476Y-102274211D01*
X124997737Y-102370184D01*
X124870184Y-102497737D01*
X124774211Y-102650476D01*
X124714631Y-102820745D01*
X124714630Y-102820750D01*
X124694435Y-102999996D01*
X124694435Y-103000003D01*
X124713467Y-103168924D01*
X124701412Y-103237746D01*
X124654063Y-103289125D01*
X124586453Y-103306749D01*
X124520047Y-103285022D01*
X124502566Y-103270488D01*
X124502260Y-103270182D01*
X124356111Y-103178350D01*
X124309821Y-103126016D01*
X124298864Y-103059473D01*
X124305565Y-103000002D01*
X124305565Y-102999996D01*
X124285369Y-102820750D01*
X124285368Y-102820745D01*
X124252141Y-102725788D01*
X124225789Y-102650478D01*
X124129816Y-102497738D01*
X124002262Y-102370184D01*
X123943778Y-102333436D01*
X123849523Y-102274211D01*
X123679254Y-102214631D01*
X123679249Y-102214630D01*
X123500004Y-102194435D01*
X123499996Y-102194435D01*
X123320750Y-102214630D01*
X123320745Y-102214631D01*
X123150476Y-102274211D01*
X122997737Y-102370184D01*
X122952444Y-102415477D01*
X122891121Y-102448961D01*
X122821429Y-102443976D01*
X122765496Y-102402104D01*
X122741080Y-102336640D01*
X122747723Y-102286840D01*
X122785366Y-102179262D01*
X122785369Y-102179249D01*
X122805565Y-102000003D01*
X122805565Y-101999997D01*
X122800474Y-101954815D01*
X122798285Y-101935388D01*
X122810339Y-101866567D01*
X122857688Y-101815188D01*
X122925298Y-101797563D01*
X122935385Y-101798284D01*
X122961857Y-101801267D01*
X122999998Y-101805565D01*
X123000000Y-101805565D01*
X123000004Y-101805565D01*
X123179249Y-101785369D01*
X123179252Y-101785368D01*
X123179255Y-101785368D01*
X123349522Y-101725789D01*
X123502262Y-101629816D01*
X123629816Y-101502262D01*
X123725789Y-101349522D01*
X123785368Y-101179255D01*
X123787913Y-101156668D01*
X123805565Y-101000003D01*
X123805565Y-100999996D01*
X123785369Y-100820750D01*
X123785368Y-100820745D01*
X123756939Y-100739499D01*
X123725789Y-100650478D01*
X123720356Y-100641832D01*
X123661276Y-100547806D01*
X123629816Y-100497738D01*
X123502262Y-100370184D01*
X123496816Y-100365841D01*
X123498741Y-100363426D01*
X123461545Y-100321034D01*
X123451173Y-100251939D01*
X123465700Y-100212004D01*
X123464545Y-100211448D01*
X123467562Y-100205182D01*
X123467563Y-100205176D01*
X123467565Y-100205175D01*
X123527144Y-100034908D01*
X123527535Y-100031441D01*
X123547341Y-99855656D01*
X123547341Y-99855649D01*
X123527145Y-99676403D01*
X123527144Y-99676398D01*
X123469452Y-99511524D01*
X123467565Y-99506131D01*
X123371592Y-99353391D01*
X123323850Y-99305649D01*
X124119435Y-99305649D01*
X124119435Y-99305656D01*
X124139631Y-99484905D01*
X124199211Y-99655176D01*
X124236570Y-99714632D01*
X124295184Y-99807915D01*
X124422738Y-99935469D01*
X124438992Y-99945682D01*
X124566479Y-100025788D01*
X124575478Y-100031442D01*
X124593717Y-100037824D01*
X124745745Y-100091021D01*
X124745750Y-100091022D01*
X124924996Y-100111218D01*
X124925000Y-100111218D01*
X124925003Y-100111218D01*
X125011771Y-100101441D01*
X125029817Y-100099408D01*
X125098639Y-100111462D01*
X125150019Y-100158811D01*
X125167643Y-100226422D01*
X125145917Y-100292827D01*
X125109674Y-100327621D01*
X125002151Y-100395182D01*
X124874596Y-100522737D01*
X124778623Y-100675476D01*
X124719043Y-100845745D01*
X124719042Y-100845750D01*
X124698847Y-101024996D01*
X124698847Y-101025003D01*
X124719042Y-101204249D01*
X124719043Y-101204254D01*
X124778623Y-101374523D01*
X124827578Y-101452434D01*
X124874596Y-101527262D01*
X125002150Y-101654816D01*
X125084701Y-101706686D01*
X125152873Y-101749522D01*
X125154890Y-101750789D01*
X125290626Y-101798285D01*
X125325157Y-101810368D01*
X125325162Y-101810369D01*
X125504408Y-101830565D01*
X125504412Y-101830565D01*
X125504416Y-101830565D01*
X125683661Y-101810369D01*
X125683664Y-101810368D01*
X125683667Y-101810368D01*
X125853934Y-101750789D01*
X126006674Y-101654816D01*
X126134228Y-101527262D01*
X126230201Y-101374522D01*
X126289780Y-101204255D01*
X126289985Y-101202436D01*
X126309977Y-101025003D01*
X126309977Y-101024996D01*
X126289781Y-100845750D01*
X126289780Y-100845745D01*
X126282210Y-100824110D01*
X126230201Y-100675478D01*
X126214492Y-100650478D01*
X126171114Y-100581442D01*
X126134228Y-100522738D01*
X126006674Y-100395184D01*
X125959975Y-100365841D01*
X125853935Y-100299211D01*
X125683666Y-100239631D01*
X125683661Y-100239630D01*
X125504416Y-100219435D01*
X125504408Y-100219435D01*
X125399593Y-100231244D01*
X125330771Y-100219189D01*
X125279392Y-100171840D01*
X125261768Y-100104229D01*
X125283495Y-100037824D01*
X125319735Y-100003032D01*
X125427262Y-99935469D01*
X125554816Y-99807915D01*
X125650789Y-99655175D01*
X125710368Y-99484908D01*
X125725186Y-99353391D01*
X125730565Y-99305656D01*
X125730565Y-99305649D01*
X125710369Y-99126403D01*
X125710368Y-99126398D01*
X125695617Y-99084242D01*
X125650789Y-98956131D01*
X125554816Y-98803391D01*
X125427262Y-98675837D01*
X125408314Y-98663931D01*
X125274523Y-98579864D01*
X125104254Y-98520284D01*
X125104249Y-98520283D01*
X124925004Y-98500088D01*
X124924996Y-98500088D01*
X124745750Y-98520283D01*
X124745745Y-98520284D01*
X124575476Y-98579864D01*
X124422737Y-98675837D01*
X124295184Y-98803390D01*
X124199211Y-98956129D01*
X124139631Y-99126398D01*
X124139630Y-99126403D01*
X124119435Y-99305649D01*
X123323850Y-99305649D01*
X123244038Y-99225837D01*
X123091299Y-99129864D01*
X122921030Y-99070284D01*
X122921025Y-99070283D01*
X122741780Y-99050088D01*
X122741772Y-99050088D01*
X122562526Y-99070283D01*
X122562513Y-99070286D01*
X122392254Y-99129863D01*
X122385982Y-99132884D01*
X122385013Y-99130872D01*
X122328006Y-99146972D01*
X122273520Y-99130973D01*
X122272600Y-99132884D01*
X122266327Y-99129863D01*
X122096068Y-99070286D01*
X122096055Y-99070283D01*
X121916810Y-99050088D01*
X121916802Y-99050088D01*
X121737556Y-99070283D01*
X121737551Y-99070284D01*
X121567282Y-99129864D01*
X121414543Y-99225837D01*
X121286990Y-99353390D01*
X121191017Y-99506129D01*
X121131437Y-99676398D01*
X121131436Y-99676403D01*
X121111241Y-99855649D01*
X120376011Y-99855649D01*
X120429398Y-99802262D01*
X120525371Y-99649522D01*
X120584950Y-99479255D01*
X120595686Y-99383970D01*
X120605147Y-99300003D01*
X120605147Y-99299996D01*
X120584951Y-99120750D01*
X120584950Y-99120745D01*
X120573695Y-99088581D01*
X120525371Y-98950478D01*
X120429398Y-98797738D01*
X120301844Y-98670184D01*
X120231190Y-98625789D01*
X120149105Y-98574211D01*
X119978836Y-98514631D01*
X119978831Y-98514630D01*
X119799586Y-98494435D01*
X119799578Y-98494435D01*
X119620332Y-98514630D01*
X119620327Y-98514631D01*
X119450058Y-98574211D01*
X119297319Y-98670184D01*
X119169766Y-98797737D01*
X119073793Y-98950476D01*
X119014213Y-99120745D01*
X119014212Y-99120750D01*
X118994017Y-99299996D01*
X117595541Y-99299996D01*
X117538036Y-99200393D01*
X117538033Y-99200389D01*
X117538032Y-99200387D01*
X117426228Y-99088583D01*
X117426227Y-99088582D01*
X117421897Y-99084252D01*
X117421886Y-99084242D01*
X116811819Y-98474175D01*
X116778334Y-98412852D01*
X116775500Y-98386494D01*
X116775500Y-96499996D01*
X117094435Y-96499996D01*
X117094435Y-96500003D01*
X117114630Y-96679249D01*
X117114631Y-96679254D01*
X117174211Y-96849523D01*
X117223818Y-96928471D01*
X117270184Y-97002262D01*
X117397738Y-97129816D01*
X117550478Y-97225789D01*
X117720745Y-97285368D01*
X117720750Y-97285369D01*
X117899996Y-97305565D01*
X117900000Y-97305565D01*
X117900004Y-97305565D01*
X118079249Y-97285369D01*
X118079252Y-97285368D01*
X118079255Y-97285368D01*
X118249522Y-97225789D01*
X118402262Y-97129816D01*
X118529816Y-97002262D01*
X118625789Y-96849522D01*
X118685368Y-96679255D01*
X118685369Y-96679249D01*
X118705565Y-96500003D01*
X118705565Y-96499996D01*
X118685369Y-96320750D01*
X118685368Y-96320745D01*
X118661004Y-96251118D01*
X118625789Y-96150478D01*
X118621215Y-96143199D01*
X118544272Y-96020745D01*
X118529816Y-95997738D01*
X118402262Y-95870184D01*
X118368882Y-95849210D01*
X118249523Y-95774211D01*
X118079254Y-95714631D01*
X118079249Y-95714630D01*
X117900004Y-95694435D01*
X117899996Y-95694435D01*
X117720750Y-95714630D01*
X117720745Y-95714631D01*
X117550476Y-95774211D01*
X117397737Y-95870184D01*
X117270184Y-95997737D01*
X117174211Y-96150476D01*
X117114631Y-96320745D01*
X117114630Y-96320750D01*
X117094435Y-96499996D01*
X116775500Y-96499996D01*
X116775500Y-94325096D01*
X116795185Y-94258057D01*
X116811814Y-94237420D01*
X116938322Y-94110912D01*
X116999643Y-94077429D01*
X117069335Y-94082413D01*
X117125268Y-94124285D01*
X117149685Y-94189749D01*
X117143043Y-94239549D01*
X117114632Y-94320742D01*
X117114630Y-94320750D01*
X117094435Y-94499996D01*
X117094435Y-94500003D01*
X117114630Y-94679249D01*
X117114631Y-94679254D01*
X117174211Y-94849523D01*
X117253123Y-94975110D01*
X117270184Y-95002262D01*
X117397738Y-95129816D01*
X117488080Y-95186582D01*
X117531518Y-95213876D01*
X117550478Y-95225789D01*
X117720745Y-95285368D01*
X117720750Y-95285369D01*
X117899996Y-95305565D01*
X117900000Y-95305565D01*
X117900004Y-95305565D01*
X118079249Y-95285369D01*
X118079252Y-95285368D01*
X118079255Y-95285368D01*
X118249522Y-95225789D01*
X118402262Y-95129816D01*
X118529816Y-95002262D01*
X118625789Y-94849522D01*
X118685368Y-94679255D01*
X118685369Y-94679249D01*
X118705565Y-94500003D01*
X118705565Y-94499996D01*
X118685369Y-94320750D01*
X118685368Y-94320745D01*
X118685367Y-94320742D01*
X118625789Y-94150478D01*
X118529816Y-93997738D01*
X118402262Y-93870184D01*
X118370138Y-93849999D01*
X118249523Y-93774211D01*
X118079254Y-93714631D01*
X118079249Y-93714630D01*
X117900004Y-93694435D01*
X117899996Y-93694435D01*
X117720750Y-93714630D01*
X117720742Y-93714632D01*
X117639549Y-93743043D01*
X117569770Y-93746604D01*
X117509143Y-93711875D01*
X117476916Y-93649882D01*
X117483322Y-93580306D01*
X117510912Y-93538322D01*
X120075359Y-90973874D01*
X120136680Y-90940391D01*
X120203993Y-90944516D01*
X120320734Y-90985366D01*
X120320740Y-90985367D01*
X120320742Y-90985368D01*
X120320743Y-90985368D01*
X120320747Y-90985369D01*
X120499993Y-91005565D01*
X120499997Y-91005565D01*
X120500001Y-91005565D01*
X120679246Y-90985369D01*
X120679249Y-90985368D01*
X120679252Y-90985368D01*
X120849519Y-90925789D01*
X120849520Y-90925787D01*
X120849526Y-90925786D01*
X120855792Y-90922769D01*
X120856463Y-90924162D01*
X120915779Y-90907395D01*
X120982616Y-90927756D01*
X121027835Y-90981020D01*
X121037079Y-91050275D01*
X121031568Y-91072343D01*
X121014632Y-91120742D01*
X121014630Y-91120750D01*
X120994435Y-91299996D01*
X120994435Y-91300003D01*
X121009697Y-91435463D01*
X120997642Y-91504285D01*
X120950293Y-91555664D01*
X120882683Y-91573288D01*
X120820505Y-91554340D01*
X120732768Y-91499211D01*
X120562500Y-91439631D01*
X120562495Y-91439630D01*
X120383250Y-91419435D01*
X120383242Y-91419435D01*
X120203996Y-91439630D01*
X120203991Y-91439631D01*
X120033722Y-91499211D01*
X119880983Y-91595184D01*
X119753430Y-91722737D01*
X119657457Y-91875476D01*
X119597877Y-92045745D01*
X119597876Y-92045750D01*
X119577681Y-92224996D01*
X119577681Y-92225003D01*
X119597876Y-92404249D01*
X119597877Y-92404254D01*
X119657457Y-92574523D01*
X119740012Y-92705908D01*
X119753430Y-92727262D01*
X119880984Y-92854816D01*
X119905442Y-92870184D01*
X120031707Y-92949522D01*
X120033724Y-92950789D01*
X120203991Y-93010368D01*
X120203995Y-93010369D01*
X120300193Y-93021207D01*
X120356615Y-93027564D01*
X120421028Y-93054630D01*
X120460583Y-93112225D01*
X120462721Y-93182061D01*
X120459773Y-93191738D01*
X120414632Y-93320742D01*
X120414630Y-93320750D01*
X120394435Y-93499996D01*
X120394435Y-93500003D01*
X120414630Y-93679249D01*
X120414632Y-93679257D01*
X120470720Y-93839548D01*
X120474281Y-93909327D01*
X120439552Y-93969954D01*
X120377559Y-94002181D01*
X120367562Y-94003722D01*
X120270746Y-94014630D01*
X120270742Y-94014631D01*
X120100473Y-94074211D01*
X119947734Y-94170184D01*
X119820181Y-94297737D01*
X119724208Y-94450476D01*
X119664628Y-94620745D01*
X119664627Y-94620750D01*
X119644432Y-94799996D01*
X119644432Y-94800003D01*
X119664627Y-94979249D01*
X119664628Y-94979254D01*
X119724208Y-95149523D01*
X119775131Y-95230565D01*
X119809566Y-95285369D01*
X119823886Y-95308158D01*
X119822477Y-95309043D01*
X119845622Y-95365737D01*
X119832865Y-95434432D01*
X119784993Y-95485325D01*
X119736150Y-95501581D01*
X119620331Y-95514630D01*
X119620327Y-95514631D01*
X119450058Y-95574211D01*
X119297319Y-95670184D01*
X119169766Y-95797737D01*
X119073793Y-95950476D01*
X119014213Y-96120745D01*
X119014212Y-96120750D01*
X118994017Y-96299996D01*
X118994017Y-96300003D01*
X119014212Y-96479249D01*
X119014213Y-96479254D01*
X119071717Y-96643590D01*
X119073793Y-96649522D01*
X119166163Y-96796528D01*
X119185163Y-96863763D01*
X119166163Y-96928471D01*
X119073793Y-97075475D01*
X119014213Y-97245744D01*
X119014212Y-97245749D01*
X118994017Y-97424995D01*
X118994017Y-97425002D01*
X119014212Y-97604248D01*
X119014213Y-97604253D01*
X119073793Y-97774522D01*
X119151350Y-97897952D01*
X119169766Y-97927261D01*
X119297320Y-98054815D01*
X119336216Y-98079255D01*
X119437138Y-98142669D01*
X119450060Y-98150788D01*
X119589471Y-98199570D01*
X119620327Y-98210367D01*
X119620332Y-98210368D01*
X119799578Y-98230564D01*
X119799582Y-98230564D01*
X119799586Y-98230564D01*
X119978831Y-98210368D01*
X119978834Y-98210367D01*
X119978837Y-98210367D01*
X120149104Y-98150788D01*
X120301844Y-98054815D01*
X120429398Y-97927261D01*
X120525371Y-97774521D01*
X120584950Y-97604254D01*
X120584951Y-97604248D01*
X120605147Y-97425002D01*
X120605147Y-97424995D01*
X120584951Y-97245749D01*
X120584950Y-97245744D01*
X120561683Y-97179251D01*
X120525371Y-97075477D01*
X120496644Y-97029759D01*
X120433001Y-96928471D01*
X120414001Y-96861234D01*
X120433000Y-96796528D01*
X120525371Y-96649522D01*
X120551449Y-96574996D01*
X122894435Y-96574996D01*
X122894435Y-96575003D01*
X122914630Y-96754249D01*
X122914631Y-96754254D01*
X122974211Y-96924523D01*
X123040333Y-97029755D01*
X123070184Y-97077262D01*
X123197738Y-97204816D01*
X123265368Y-97247311D01*
X123350143Y-97300579D01*
X123350478Y-97300789D01*
X123459236Y-97338845D01*
X123520745Y-97360368D01*
X123520750Y-97360369D01*
X123699996Y-97380565D01*
X123700000Y-97380565D01*
X123700004Y-97380565D01*
X123879249Y-97360369D01*
X123879252Y-97360368D01*
X123879255Y-97360368D01*
X124049522Y-97300789D01*
X124202262Y-97204816D01*
X124329816Y-97077262D01*
X124425789Y-96924522D01*
X124485368Y-96754255D01*
X124491226Y-96702262D01*
X124505565Y-96575003D01*
X124505565Y-96574996D01*
X124761102Y-96574996D01*
X124761102Y-96575003D01*
X124781297Y-96754249D01*
X124781298Y-96754254D01*
X124840878Y-96924523D01*
X124907000Y-97029755D01*
X124936851Y-97077262D01*
X125064405Y-97204816D01*
X125132035Y-97247311D01*
X125216810Y-97300579D01*
X125217145Y-97300789D01*
X125325903Y-97338845D01*
X125387412Y-97360368D01*
X125387417Y-97360369D01*
X125566663Y-97380565D01*
X125566667Y-97380565D01*
X125566671Y-97380565D01*
X125745916Y-97360369D01*
X125745919Y-97360368D01*
X125745922Y-97360368D01*
X125916189Y-97300789D01*
X126068929Y-97204816D01*
X126196483Y-97077262D01*
X126292456Y-96924522D01*
X126352035Y-96754255D01*
X126357893Y-96702262D01*
X126372232Y-96575003D01*
X126372232Y-96574996D01*
X126627768Y-96574996D01*
X126627768Y-96575003D01*
X126647963Y-96754249D01*
X126647964Y-96754254D01*
X126707544Y-96924523D01*
X126773666Y-97029755D01*
X126803517Y-97077262D01*
X126931071Y-97204816D01*
X126998701Y-97247311D01*
X127083476Y-97300579D01*
X127083811Y-97300789D01*
X127192569Y-97338845D01*
X127254078Y-97360368D01*
X127254082Y-97360369D01*
X127276688Y-97362916D01*
X127341102Y-97389982D01*
X127380657Y-97447576D01*
X127386025Y-97472252D01*
X127389630Y-97504251D01*
X127449210Y-97674523D01*
X127500036Y-97755412D01*
X127545184Y-97827264D01*
X127672738Y-97954818D01*
X127825478Y-98050791D01*
X127995745Y-98110370D01*
X127995750Y-98110371D01*
X128174996Y-98130567D01*
X128175000Y-98130567D01*
X128175004Y-98130567D01*
X128354249Y-98110371D01*
X128354252Y-98110370D01*
X128354255Y-98110370D01*
X128524522Y-98050791D01*
X128677262Y-97954818D01*
X128804816Y-97827264D01*
X128900789Y-97674524D01*
X128960368Y-97504257D01*
X128964659Y-97466171D01*
X128991724Y-97401760D01*
X129049318Y-97362204D01*
X129115469Y-97359164D01*
X129120743Y-97360367D01*
X129120745Y-97360368D01*
X129120746Y-97360368D01*
X129120750Y-97360369D01*
X129299996Y-97380565D01*
X129300000Y-97380565D01*
X129300004Y-97380565D01*
X129479249Y-97360369D01*
X129479252Y-97360368D01*
X129479255Y-97360368D01*
X129649522Y-97300789D01*
X129649857Y-97300579D01*
X129683803Y-97279249D01*
X129736806Y-97245944D01*
X129804042Y-97226944D01*
X129870877Y-97247311D01*
X129916091Y-97300579D01*
X129923668Y-97323343D01*
X129925015Y-97329245D01*
X129984598Y-97499524D01*
X130048046Y-97600500D01*
X130080571Y-97652263D01*
X130208125Y-97779817D01*
X130280199Y-97825104D01*
X130316220Y-97847738D01*
X130360865Y-97875790D01*
X130430062Y-97900003D01*
X130531132Y-97935369D01*
X130531137Y-97935370D01*
X130710383Y-97955566D01*
X130710387Y-97955566D01*
X130710391Y-97955566D01*
X130889636Y-97935370D01*
X130889639Y-97935369D01*
X130889642Y-97935369D01*
X131059909Y-97875790D01*
X131212649Y-97779817D01*
X131340203Y-97652263D01*
X131436176Y-97499523D01*
X131495755Y-97329256D01*
X131495756Y-97329250D01*
X131515952Y-97150004D01*
X131515952Y-97149997D01*
X131495756Y-96970751D01*
X131495755Y-96970746D01*
X131480024Y-96925789D01*
X131436176Y-96800479D01*
X131340203Y-96647739D01*
X131212649Y-96520185D01*
X131180525Y-96500000D01*
X131059910Y-96424212D01*
X130889641Y-96364632D01*
X130889636Y-96364631D01*
X130710391Y-96344436D01*
X130710383Y-96344436D01*
X130640548Y-96352304D01*
X130571726Y-96340249D01*
X130520347Y-96292900D01*
X130502723Y-96225289D01*
X130524450Y-96158884D01*
X130549357Y-96132133D01*
X130552252Y-96129823D01*
X130552264Y-96129816D01*
X130679818Y-96002262D01*
X130775791Y-95849522D01*
X130835370Y-95679255D01*
X130839077Y-95646356D01*
X130855567Y-95500003D01*
X130855567Y-95499996D01*
X130835371Y-95320750D01*
X130835370Y-95320745D01*
X130830058Y-95305565D01*
X130775791Y-95150478D01*
X130775190Y-95149522D01*
X130718667Y-95059566D01*
X130679818Y-94997738D01*
X130552264Y-94870184D01*
X130546818Y-94865841D01*
X130548339Y-94863932D01*
X130509584Y-94820126D01*
X130498930Y-94751073D01*
X130527300Y-94687222D01*
X130585686Y-94648845D01*
X130635726Y-94644237D01*
X130736258Y-94655564D01*
X130736262Y-94655564D01*
X130736266Y-94655564D01*
X130915511Y-94635368D01*
X130915514Y-94635367D01*
X130915517Y-94635367D01*
X131085784Y-94575788D01*
X131238524Y-94479815D01*
X131366078Y-94352261D01*
X131462051Y-94199521D01*
X131521630Y-94029254D01*
X131521631Y-94029248D01*
X131541827Y-93850002D01*
X131541827Y-93849995D01*
X131521631Y-93670749D01*
X131521630Y-93670744D01*
X131497667Y-93602262D01*
X131462051Y-93500477D01*
X131461751Y-93500000D01*
X131366077Y-93347736D01*
X131238524Y-93220183D01*
X131085785Y-93124210D01*
X130915516Y-93064630D01*
X130915511Y-93064629D01*
X130736266Y-93044434D01*
X130736258Y-93044434D01*
X130557012Y-93064629D01*
X130557007Y-93064630D01*
X130386738Y-93124210D01*
X130233999Y-93220183D01*
X130106446Y-93347736D01*
X130010473Y-93500475D01*
X129950893Y-93670744D01*
X129950892Y-93670748D01*
X129950068Y-93678069D01*
X129923001Y-93742483D01*
X129865406Y-93782038D01*
X129795569Y-93784175D01*
X129760876Y-93769179D01*
X129649523Y-93699211D01*
X129479254Y-93639631D01*
X129479249Y-93639630D01*
X129300004Y-93619435D01*
X129299996Y-93619435D01*
X129120750Y-93639630D01*
X129120745Y-93639631D01*
X128950476Y-93699211D01*
X128797737Y-93795184D01*
X128670184Y-93922737D01*
X128574211Y-94075476D01*
X128514631Y-94245745D01*
X128514630Y-94245750D01*
X128494435Y-94424996D01*
X128494435Y-94425003D01*
X128514630Y-94604249D01*
X128514631Y-94604254D01*
X128574211Y-94774523D01*
X128647813Y-94891659D01*
X128670184Y-94927262D01*
X128797738Y-95054816D01*
X128805298Y-95059566D01*
X128949979Y-95150476D01*
X128950478Y-95150789D01*
X129120745Y-95210368D01*
X129151889Y-95213876D01*
X129216302Y-95240942D01*
X129255858Y-95298536D01*
X129261226Y-95350980D01*
X129244437Y-95499995D01*
X129244437Y-95500004D01*
X129261226Y-95649019D01*
X129249171Y-95717841D01*
X129201822Y-95769220D01*
X129151890Y-95786122D01*
X129120752Y-95789630D01*
X129120747Y-95789631D01*
X128950478Y-95849210D01*
X128797737Y-95945184D01*
X128670184Y-96072737D01*
X128574211Y-96225476D01*
X128514631Y-96395745D01*
X128514630Y-96395749D01*
X128510340Y-96433830D01*
X128483273Y-96498244D01*
X128425678Y-96537799D01*
X128359526Y-96540837D01*
X128354251Y-96539632D01*
X128331641Y-96537085D01*
X128267228Y-96510017D01*
X128227674Y-96452421D01*
X128222307Y-96427752D01*
X128218701Y-96395745D01*
X128159122Y-96225478D01*
X128134209Y-96185830D01*
X128106564Y-96141833D01*
X128063149Y-96072738D01*
X127935595Y-95945184D01*
X127782856Y-95849211D01*
X127612587Y-95789631D01*
X127612582Y-95789630D01*
X127433337Y-95769435D01*
X127433329Y-95769435D01*
X127254083Y-95789630D01*
X127254078Y-95789631D01*
X127083809Y-95849211D01*
X126931070Y-95945184D01*
X126803517Y-96072737D01*
X126707544Y-96225476D01*
X126647964Y-96395745D01*
X126647963Y-96395750D01*
X126627768Y-96574996D01*
X126372232Y-96574996D01*
X126352036Y-96395750D01*
X126352035Y-96395745D01*
X126323652Y-96314631D01*
X126292456Y-96225478D01*
X126267543Y-96185830D01*
X126239898Y-96141833D01*
X126196483Y-96072738D01*
X126068929Y-95945184D01*
X125916190Y-95849211D01*
X125745921Y-95789631D01*
X125745916Y-95789630D01*
X125566671Y-95769435D01*
X125566663Y-95769435D01*
X125387417Y-95789630D01*
X125387412Y-95789631D01*
X125217143Y-95849211D01*
X125064404Y-95945184D01*
X124936851Y-96072737D01*
X124840878Y-96225476D01*
X124781298Y-96395745D01*
X124781297Y-96395750D01*
X124761102Y-96574996D01*
X124505565Y-96574996D01*
X124485369Y-96395750D01*
X124485368Y-96395745D01*
X124456985Y-96314631D01*
X124425789Y-96225478D01*
X124400876Y-96185830D01*
X124373231Y-96141833D01*
X124329816Y-96072738D01*
X124202262Y-95945184D01*
X124049523Y-95849211D01*
X123879254Y-95789631D01*
X123879249Y-95789630D01*
X123700004Y-95769435D01*
X123699996Y-95769435D01*
X123520750Y-95789630D01*
X123520745Y-95789631D01*
X123350476Y-95849211D01*
X123197737Y-95945184D01*
X123070184Y-96072737D01*
X122974211Y-96225476D01*
X122914631Y-96395745D01*
X122914630Y-96395750D01*
X122894435Y-96574996D01*
X120551449Y-96574996D01*
X120584950Y-96479255D01*
X120585972Y-96470184D01*
X120605147Y-96300003D01*
X120605147Y-96299996D01*
X120584951Y-96120750D01*
X120584950Y-96120745D01*
X120541908Y-95997738D01*
X120525371Y-95950478D01*
X120429398Y-95797738D01*
X120429397Y-95797737D01*
X120425693Y-95791842D01*
X120427101Y-95790956D01*
X120403957Y-95734266D01*
X120416712Y-95665570D01*
X120464582Y-95614676D01*
X120513429Y-95598418D01*
X120629246Y-95585369D01*
X120629249Y-95585368D01*
X120629252Y-95585368D01*
X120629253Y-95585367D01*
X120629256Y-95585367D01*
X120673886Y-95569749D01*
X120784044Y-95531203D01*
X120853820Y-95527641D01*
X120865952Y-95531204D01*
X121020737Y-95585366D01*
X121020743Y-95585367D01*
X121020745Y-95585368D01*
X121020746Y-95585368D01*
X121020750Y-95585369D01*
X121199996Y-95605565D01*
X121200000Y-95605565D01*
X121200004Y-95605565D01*
X121379249Y-95585369D01*
X121379252Y-95585368D01*
X121379255Y-95585368D01*
X121549522Y-95525789D01*
X121702262Y-95429816D01*
X121829816Y-95302262D01*
X121925789Y-95149522D01*
X121985368Y-94979255D01*
X121985835Y-94975110D01*
X122005565Y-94800003D01*
X122005565Y-94799996D01*
X121985369Y-94620750D01*
X121985368Y-94620745D01*
X121969637Y-94575788D01*
X121925789Y-94450478D01*
X121909778Y-94424996D01*
X122894435Y-94424996D01*
X122894435Y-94425003D01*
X122914630Y-94604249D01*
X122914631Y-94604254D01*
X122974211Y-94774523D01*
X123047813Y-94891659D01*
X123070184Y-94927262D01*
X123197738Y-95054816D01*
X123205298Y-95059566D01*
X123349979Y-95150476D01*
X123350478Y-95150789D01*
X123520742Y-95210367D01*
X123520745Y-95210368D01*
X123520750Y-95210369D01*
X123699996Y-95230565D01*
X123700000Y-95230565D01*
X123700004Y-95230565D01*
X123879249Y-95210369D01*
X123879252Y-95210368D01*
X123879255Y-95210368D01*
X124049522Y-95150789D01*
X124202262Y-95054816D01*
X124329816Y-94927262D01*
X124425789Y-94774522D01*
X124485368Y-94604255D01*
X124485369Y-94604249D01*
X124505565Y-94425003D01*
X124505565Y-94424996D01*
X124761102Y-94424996D01*
X124761102Y-94425003D01*
X124781297Y-94604249D01*
X124781298Y-94604254D01*
X124840878Y-94774523D01*
X124914480Y-94891659D01*
X124936851Y-94927262D01*
X125064405Y-95054816D01*
X125071965Y-95059566D01*
X125216646Y-95150476D01*
X125217145Y-95150789D01*
X125387409Y-95210367D01*
X125387412Y-95210368D01*
X125387417Y-95210369D01*
X125566663Y-95230565D01*
X125566667Y-95230565D01*
X125566671Y-95230565D01*
X125745916Y-95210369D01*
X125745919Y-95210368D01*
X125745922Y-95210368D01*
X125916189Y-95150789D01*
X126068929Y-95054816D01*
X126196483Y-94927262D01*
X126292456Y-94774522D01*
X126352035Y-94604255D01*
X126352036Y-94604249D01*
X126372232Y-94425003D01*
X126372232Y-94424996D01*
X126627768Y-94424996D01*
X126627768Y-94425003D01*
X126647963Y-94604249D01*
X126647964Y-94604254D01*
X126707544Y-94774523D01*
X126781146Y-94891659D01*
X126803517Y-94927262D01*
X126931071Y-95054816D01*
X126938631Y-95059566D01*
X127083312Y-95150476D01*
X127083811Y-95150789D01*
X127254075Y-95210367D01*
X127254078Y-95210368D01*
X127254083Y-95210369D01*
X127433329Y-95230565D01*
X127433333Y-95230565D01*
X127433337Y-95230565D01*
X127612582Y-95210369D01*
X127612585Y-95210368D01*
X127612588Y-95210368D01*
X127782855Y-95150789D01*
X127935595Y-95054816D01*
X128063149Y-94927262D01*
X128159122Y-94774522D01*
X128218701Y-94604255D01*
X128218702Y-94604249D01*
X128238898Y-94425003D01*
X128238898Y-94424996D01*
X128218702Y-94245750D01*
X128218701Y-94245745D01*
X128202527Y-94199522D01*
X128159122Y-94075478D01*
X128063149Y-93922738D01*
X127935595Y-93795184D01*
X127902217Y-93774211D01*
X127782856Y-93699211D01*
X127612587Y-93639631D01*
X127612582Y-93639630D01*
X127433337Y-93619435D01*
X127433329Y-93619435D01*
X127254083Y-93639630D01*
X127254078Y-93639631D01*
X127083809Y-93699211D01*
X126931070Y-93795184D01*
X126803517Y-93922737D01*
X126707544Y-94075476D01*
X126647964Y-94245745D01*
X126647963Y-94245750D01*
X126627768Y-94424996D01*
X126372232Y-94424996D01*
X126352036Y-94245750D01*
X126352035Y-94245745D01*
X126335861Y-94199522D01*
X126292456Y-94075478D01*
X126196483Y-93922738D01*
X126068929Y-93795184D01*
X126035551Y-93774211D01*
X125916190Y-93699211D01*
X125745921Y-93639631D01*
X125745916Y-93639630D01*
X125566671Y-93619435D01*
X125566663Y-93619435D01*
X125387417Y-93639630D01*
X125387412Y-93639631D01*
X125217143Y-93699211D01*
X125064404Y-93795184D01*
X124936851Y-93922737D01*
X124840878Y-94075476D01*
X124781298Y-94245745D01*
X124781297Y-94245750D01*
X124761102Y-94424996D01*
X124505565Y-94424996D01*
X124485369Y-94245750D01*
X124485368Y-94245745D01*
X124469194Y-94199522D01*
X124425789Y-94075478D01*
X124329816Y-93922738D01*
X124202262Y-93795184D01*
X124168884Y-93774211D01*
X124049523Y-93699211D01*
X123879254Y-93639631D01*
X123879249Y-93639630D01*
X123700004Y-93619435D01*
X123699996Y-93619435D01*
X123520750Y-93639630D01*
X123520745Y-93639631D01*
X123350476Y-93699211D01*
X123197737Y-93795184D01*
X123070184Y-93922737D01*
X122974211Y-94075476D01*
X122914631Y-94245745D01*
X122914630Y-94245750D01*
X122894435Y-94424996D01*
X121909778Y-94424996D01*
X121829816Y-94297738D01*
X121769759Y-94237681D01*
X121736274Y-94176358D01*
X121741258Y-94106666D01*
X121769759Y-94062319D01*
X121829816Y-94002262D01*
X121925789Y-93849522D01*
X121985368Y-93679255D01*
X121985502Y-93678069D01*
X122005565Y-93500003D01*
X122005565Y-93499996D01*
X121985369Y-93320750D01*
X121985368Y-93320745D01*
X121970848Y-93279249D01*
X121925789Y-93150478D01*
X121829816Y-92997738D01*
X121702262Y-92870184D01*
X121677804Y-92854816D01*
X121549523Y-92774211D01*
X121379254Y-92714631D01*
X121379249Y-92714630D01*
X121226632Y-92697435D01*
X121162218Y-92670369D01*
X121122662Y-92612774D01*
X121120525Y-92542937D01*
X121123474Y-92533260D01*
X121168612Y-92404262D01*
X121168615Y-92404249D01*
X121188811Y-92225003D01*
X121188811Y-92224997D01*
X121173548Y-92089537D01*
X121185602Y-92020715D01*
X121232951Y-91969335D01*
X121300562Y-91951711D01*
X121362741Y-91970660D01*
X121450475Y-92025788D01*
X121620745Y-92085368D01*
X121620750Y-92085369D01*
X121799996Y-92105565D01*
X121800000Y-92105565D01*
X121800004Y-92105565D01*
X121979249Y-92085369D01*
X121979252Y-92085368D01*
X121979255Y-92085368D01*
X121979256Y-92085367D01*
X121979259Y-92085367D01*
X122025146Y-92069309D01*
X122129609Y-92032756D01*
X122199385Y-92029194D01*
X122211517Y-92032757D01*
X122370733Y-92088470D01*
X122370739Y-92088471D01*
X122370741Y-92088472D01*
X122370742Y-92088472D01*
X122370746Y-92088473D01*
X122549992Y-92108669D01*
X122549996Y-92108669D01*
X122550000Y-92108669D01*
X122729245Y-92088473D01*
X122729248Y-92088472D01*
X122729251Y-92088472D01*
X122899518Y-92028893D01*
X123052258Y-91932920D01*
X123179812Y-91805366D01*
X123275785Y-91652626D01*
X123335364Y-91482359D01*
X123335714Y-91479254D01*
X123355561Y-91303107D01*
X123355561Y-91303100D01*
X123335365Y-91123854D01*
X123335364Y-91123849D01*
X123329059Y-91105830D01*
X123275785Y-90953582D01*
X123273833Y-90950476D01*
X123210400Y-90849522D01*
X123179812Y-90800842D01*
X123052258Y-90673288D01*
X122976338Y-90625584D01*
X122899519Y-90577315D01*
X122729250Y-90517735D01*
X122729245Y-90517734D01*
X122550000Y-90497539D01*
X122549992Y-90497539D01*
X122370746Y-90517734D01*
X122370738Y-90517736D01*
X122220388Y-90570346D01*
X122150609Y-90573907D01*
X122138480Y-90570346D01*
X121979257Y-90514632D01*
X121979249Y-90514630D01*
X121800004Y-90494435D01*
X121799996Y-90494435D01*
X121620750Y-90514630D01*
X121620745Y-90514631D01*
X121450470Y-90574213D01*
X121444205Y-90577231D01*
X121443535Y-90575841D01*
X121384188Y-90592603D01*
X121317355Y-90572227D01*
X121272149Y-90518952D01*
X121262921Y-90449694D01*
X121268426Y-90427661D01*
X121285365Y-90379255D01*
X121285921Y-90374324D01*
X121305562Y-90200003D01*
X121305562Y-90199996D01*
X121285366Y-90020750D01*
X121285363Y-90020737D01*
X121231203Y-89865958D01*
X121227641Y-89796179D01*
X121231203Y-89784048D01*
X121285366Y-89629260D01*
X121285369Y-89629248D01*
X121287469Y-89610613D01*
X121314536Y-89546199D01*
X121372132Y-89506645D01*
X121410689Y-89500498D01*
X124449901Y-89500498D01*
X124516940Y-89520183D01*
X124537582Y-89536817D01*
X124869298Y-89868533D01*
X124902783Y-89929856D01*
X124904837Y-89942330D01*
X124914630Y-90029249D01*
X124974210Y-90199521D01*
X125070184Y-90352262D01*
X125202662Y-90484740D01*
X125201229Y-90486172D01*
X125235673Y-90535252D01*
X125238518Y-90605063D01*
X125203168Y-90665331D01*
X125198887Y-90669040D01*
X125070190Y-90797737D01*
X124974217Y-90950476D01*
X124914637Y-91120745D01*
X124914636Y-91120750D01*
X124894441Y-91299996D01*
X124894441Y-91300003D01*
X124914636Y-91479249D01*
X124914637Y-91479254D01*
X124974217Y-91649523D01*
X125035681Y-91747341D01*
X125070190Y-91802262D01*
X125197744Y-91929816D01*
X125229483Y-91949759D01*
X125348260Y-92024392D01*
X125350484Y-92025789D01*
X125520745Y-92085366D01*
X125520751Y-92085368D01*
X125520756Y-92085369D01*
X125700002Y-92105565D01*
X125700006Y-92105565D01*
X125700010Y-92105565D01*
X125879255Y-92085369D01*
X125879258Y-92085368D01*
X125879261Y-92085368D01*
X126049528Y-92025789D01*
X126202268Y-91929816D01*
X126329822Y-91802262D01*
X126425795Y-91649522D01*
X126482961Y-91486151D01*
X126523683Y-91429374D01*
X126588636Y-91403627D01*
X126657197Y-91417083D01*
X126707600Y-91465470D01*
X126717045Y-91486151D01*
X126774210Y-91649521D01*
X126835675Y-91747341D01*
X126870184Y-91802262D01*
X126997738Y-91929816D01*
X127029477Y-91949759D01*
X127148254Y-92024392D01*
X127150478Y-92025789D01*
X127320739Y-92085366D01*
X127320745Y-92085368D01*
X127320750Y-92085369D01*
X127499996Y-92105565D01*
X127500000Y-92105565D01*
X127500004Y-92105565D01*
X127679249Y-92085369D01*
X127679251Y-92085368D01*
X127679255Y-92085368D01*
X127679258Y-92085366D01*
X127679262Y-92085366D01*
X127856095Y-92023489D01*
X127856846Y-92025637D01*
X127915128Y-92016035D01*
X127943588Y-92024392D01*
X127943905Y-92023489D01*
X128120737Y-92085366D01*
X128120743Y-92085367D01*
X128120745Y-92085368D01*
X128120746Y-92085368D01*
X128120750Y-92085369D01*
X128299996Y-92105565D01*
X128300000Y-92105565D01*
X128300004Y-92105565D01*
X128479249Y-92085369D01*
X128479252Y-92085368D01*
X128479255Y-92085368D01*
X128649522Y-92025789D01*
X128802262Y-91929816D01*
X128929816Y-91802262D01*
X129025789Y-91649522D01*
X129085368Y-91479255D01*
X129085872Y-91474785D01*
X129105565Y-91300003D01*
X129105565Y-91299996D01*
X129085369Y-91120750D01*
X129085368Y-91120745D01*
X129043909Y-91002262D01*
X129025789Y-90950478D01*
X129007106Y-90920745D01*
X128934280Y-90804843D01*
X128929816Y-90797738D01*
X128802262Y-90670184D01*
X128794426Y-90665260D01*
X128649523Y-90574211D01*
X128479254Y-90514631D01*
X128479249Y-90514630D01*
X128349362Y-90499996D01*
X129694435Y-90499996D01*
X129694435Y-90500003D01*
X129714630Y-90679249D01*
X129714631Y-90679254D01*
X129774211Y-90849523D01*
X129859569Y-90985368D01*
X129870184Y-91002262D01*
X129997738Y-91129816D01*
X130040473Y-91156668D01*
X130132721Y-91214632D01*
X130150478Y-91225789D01*
X130288860Y-91274211D01*
X130320745Y-91285368D01*
X130320750Y-91285369D01*
X130499996Y-91305565D01*
X130500000Y-91305565D01*
X130500004Y-91305565D01*
X130679249Y-91285369D01*
X130679252Y-91285368D01*
X130679255Y-91285368D01*
X130849522Y-91225789D01*
X131002262Y-91129816D01*
X131129816Y-91002262D01*
X131225789Y-90849522D01*
X131285368Y-90679255D01*
X131285369Y-90679249D01*
X131305565Y-90500003D01*
X131305565Y-90499996D01*
X131285369Y-90320750D01*
X131285368Y-90320745D01*
X131256259Y-90237557D01*
X131225789Y-90150478D01*
X131129816Y-89997738D01*
X131002262Y-89870184D01*
X130970144Y-89850003D01*
X130849523Y-89774211D01*
X130679254Y-89714631D01*
X130679249Y-89714630D01*
X130500004Y-89694435D01*
X130499996Y-89694435D01*
X130320750Y-89714630D01*
X130320745Y-89714631D01*
X130150476Y-89774211D01*
X129997737Y-89870184D01*
X129870184Y-89997737D01*
X129774211Y-90150476D01*
X129714631Y-90320745D01*
X129714630Y-90320750D01*
X129694435Y-90499996D01*
X128349362Y-90499996D01*
X128300004Y-90494435D01*
X128299996Y-90494435D01*
X128120750Y-90514630D01*
X128120737Y-90514633D01*
X127943906Y-90576510D01*
X127943155Y-90574364D01*
X127884856Y-90583962D01*
X127856409Y-90575609D01*
X127856094Y-90576510D01*
X127679262Y-90514633D01*
X127679249Y-90514630D01*
X127500004Y-90494435D01*
X127499996Y-90494435D01*
X127320750Y-90514630D01*
X127320745Y-90514631D01*
X127150476Y-90574211D01*
X126997737Y-90670184D01*
X126870184Y-90797737D01*
X126774211Y-90950476D01*
X126717045Y-91113849D01*
X126676323Y-91170625D01*
X126611370Y-91196372D01*
X126542808Y-91182916D01*
X126492406Y-91134529D01*
X126482961Y-91113849D01*
X126443915Y-91002262D01*
X126425795Y-90950478D01*
X126407112Y-90920745D01*
X126334286Y-90804843D01*
X126329822Y-90797738D01*
X126202268Y-90670184D01*
X126197344Y-90665260D01*
X126198775Y-90663828D01*
X126164330Y-90614743D01*
X126161488Y-90544931D01*
X126196840Y-90484665D01*
X126201123Y-90480954D01*
X126202259Y-90479817D01*
X126202262Y-90479816D01*
X126329816Y-90352262D01*
X126425789Y-90199522D01*
X126485368Y-90029255D01*
X126485390Y-90029064D01*
X126505565Y-89850003D01*
X126505565Y-89849996D01*
X126485369Y-89670750D01*
X126485368Y-89670745D01*
X126470849Y-89629253D01*
X126425789Y-89500478D01*
X126423269Y-89496468D01*
X126329815Y-89347737D01*
X126202262Y-89220184D01*
X126049521Y-89124210D01*
X125901849Y-89072538D01*
X125879255Y-89064632D01*
X125879254Y-89064631D01*
X125879249Y-89064630D01*
X125792330Y-89054837D01*
X125727916Y-89027770D01*
X125718533Y-89019298D01*
X125237588Y-88538353D01*
X125237586Y-88538350D01*
X125118715Y-88419479D01*
X125118714Y-88419478D01*
X125031902Y-88369358D01*
X125031902Y-88369357D01*
X125031898Y-88369356D01*
X124981783Y-88340421D01*
X124829055Y-88299497D01*
X124670941Y-88299497D01*
X124663345Y-88299497D01*
X124663329Y-88299498D01*
X120358852Y-88299498D01*
X120358836Y-88299497D01*
X120351240Y-88299497D01*
X120193125Y-88299497D01*
X120116761Y-88319959D01*
X120040396Y-88340421D01*
X120040391Y-88340424D01*
X119903472Y-88419473D01*
X119903464Y-88419479D01*
X118854975Y-89467967D01*
X118793652Y-89501452D01*
X118723960Y-89496468D01*
X118701323Y-89485280D01*
X118665294Y-89462642D01*
X118619002Y-89410308D01*
X118608045Y-89371531D01*
X118591779Y-89227160D01*
X118591778Y-89227155D01*
X118575268Y-89179971D01*
X118532199Y-89056888D01*
X118530910Y-89054837D01*
X118436225Y-88904147D01*
X118308672Y-88776594D01*
X118155933Y-88680621D01*
X117985664Y-88621041D01*
X117985659Y-88621040D01*
X117806414Y-88600845D01*
X117806406Y-88600845D01*
X117627160Y-88621040D01*
X117627155Y-88621041D01*
X117456886Y-88680621D01*
X117304147Y-88776594D01*
X117176594Y-88904147D01*
X117176592Y-88904150D01*
X117110211Y-89009793D01*
X117057876Y-89056084D01*
X116988822Y-89066731D01*
X116924974Y-89038355D01*
X116900224Y-89009792D01*
X116888323Y-88990851D01*
X116829816Y-88897738D01*
X116702262Y-88770184D01*
X116698933Y-88766855D01*
X116665448Y-88705532D01*
X116670432Y-88635840D01*
X116712304Y-88579907D01*
X116745660Y-88562132D01*
X116813616Y-88538353D01*
X116849522Y-88525789D01*
X117002262Y-88429816D01*
X117129816Y-88302262D01*
X117225789Y-88149522D01*
X117285368Y-87979255D01*
X117305565Y-87800000D01*
X117294610Y-87702771D01*
X117306664Y-87633950D01*
X117354013Y-87582571D01*
X117421623Y-87564946D01*
X117483802Y-87583894D01*
X117542458Y-87620750D01*
X117550478Y-87625789D01*
X117720745Y-87685368D01*
X117720750Y-87685369D01*
X117899996Y-87705565D01*
X117900000Y-87705565D01*
X117900004Y-87705565D01*
X118079249Y-87685369D01*
X118079252Y-87685368D01*
X118079255Y-87685368D01*
X118249522Y-87625789D01*
X118402262Y-87529816D01*
X118529816Y-87402262D01*
X118625789Y-87249522D01*
X118685368Y-87079255D01*
X118685369Y-87079249D01*
X118705565Y-86900003D01*
X118705565Y-86899996D01*
X118685369Y-86720750D01*
X118685368Y-86720745D01*
X118625788Y-86550476D01*
X118529815Y-86397737D01*
X118402262Y-86270184D01*
X118249523Y-86174211D01*
X118079254Y-86114631D01*
X118079249Y-86114630D01*
X117900004Y-86094435D01*
X117899996Y-86094435D01*
X117720750Y-86114630D01*
X117720745Y-86114631D01*
X117550476Y-86174211D01*
X117397737Y-86270184D01*
X117270184Y-86397737D01*
X117174211Y-86550476D01*
X117114631Y-86720745D01*
X117114630Y-86720750D01*
X117094435Y-86899996D01*
X117094435Y-86900004D01*
X117105389Y-86997228D01*
X117093334Y-87066050D01*
X117045985Y-87117429D01*
X116978375Y-87135053D01*
X116916197Y-87116105D01*
X116849523Y-87074211D01*
X116679254Y-87014631D01*
X116679249Y-87014630D01*
X116500004Y-86994435D01*
X116499996Y-86994435D01*
X116320750Y-87014630D01*
X116320745Y-87014631D01*
X116150476Y-87074211D01*
X115997737Y-87170184D01*
X115870184Y-87297737D01*
X115774211Y-87450476D01*
X115714631Y-87620745D01*
X115714630Y-87620750D01*
X115694435Y-87799996D01*
X115694435Y-87800003D01*
X115714630Y-87979249D01*
X115714631Y-87979254D01*
X115774211Y-88149523D01*
X115870184Y-88302262D01*
X116001066Y-88433144D01*
X116034551Y-88494467D01*
X116029567Y-88564159D01*
X115987695Y-88620092D01*
X115954341Y-88637866D01*
X115850479Y-88674209D01*
X115697737Y-88770184D01*
X115570184Y-88897737D01*
X115570182Y-88897740D01*
X115482605Y-89037116D01*
X115430270Y-89083407D01*
X115361217Y-89094054D01*
X115297368Y-89065679D01*
X115272618Y-89037115D01*
X115240907Y-88986647D01*
X115113353Y-88859093D01*
X114960614Y-88763120D01*
X114790345Y-88703540D01*
X114790340Y-88703539D01*
X114611095Y-88683344D01*
X114611087Y-88683344D01*
X114431841Y-88703539D01*
X114431836Y-88703540D01*
X114261567Y-88763120D01*
X114108828Y-88859093D01*
X113981271Y-88986650D01*
X113980830Y-88987204D01*
X113980454Y-88987467D01*
X113976351Y-88991571D01*
X113975631Y-88990851D01*
X113923637Y-89027338D01*
X113853825Y-89030180D01*
X113793559Y-88994827D01*
X113778898Y-88975852D01*
X113733845Y-88904150D01*
X113729816Y-88897738D01*
X113602262Y-88770184D01*
X113591020Y-88763120D01*
X113449523Y-88674211D01*
X113279254Y-88614631D01*
X113279249Y-88614630D01*
X113100004Y-88594435D01*
X113099996Y-88594435D01*
X112920750Y-88614630D01*
X112920745Y-88614631D01*
X112750476Y-88674211D01*
X112597737Y-88770184D01*
X112470184Y-88897737D01*
X112374211Y-89050476D01*
X112314631Y-89220745D01*
X112314630Y-89220750D01*
X112294435Y-89399996D01*
X112294435Y-89400003D01*
X112314630Y-89579249D01*
X112314631Y-89579254D01*
X112374211Y-89749523D01*
X112445094Y-89862332D01*
X112470184Y-89902262D01*
X112597738Y-90029816D01*
X112688080Y-90086582D01*
X112746559Y-90123327D01*
X112750478Y-90125789D01*
X112903224Y-90179237D01*
X112920745Y-90185368D01*
X112920750Y-90185369D01*
X113099996Y-90205565D01*
X113100000Y-90205565D01*
X113100004Y-90205565D01*
X113279249Y-90185369D01*
X113279251Y-90185368D01*
X113279255Y-90185368D01*
X113305135Y-90176311D01*
X113374913Y-90172748D01*
X113434409Y-90206826D01*
X113438633Y-90160952D01*
X113481636Y-90105884D01*
X113487934Y-90101653D01*
X113602262Y-90029816D01*
X113729816Y-89902262D01*
X113729821Y-89902253D01*
X113730246Y-89901722D01*
X113730615Y-89901462D01*
X113734740Y-89897338D01*
X113735462Y-89898060D01*
X113787431Y-89861578D01*
X113857243Y-89858723D01*
X113917515Y-89894064D01*
X113932192Y-89913056D01*
X113981275Y-89991171D01*
X114096646Y-90106542D01*
X114130131Y-90167865D01*
X114125147Y-90237557D01*
X114083275Y-90293490D01*
X114017811Y-90317907D01*
X113981385Y-90315117D01*
X113979257Y-90314631D01*
X113800004Y-90294435D01*
X113799996Y-90294435D01*
X113620750Y-90314630D01*
X113620742Y-90314632D01*
X113594860Y-90323689D01*
X113525081Y-90327250D01*
X113465589Y-90293171D01*
X113461368Y-90339043D01*
X113418366Y-90394112D01*
X113412066Y-90398345D01*
X113297740Y-90470182D01*
X113297737Y-90470184D01*
X113170184Y-90597737D01*
X113074211Y-90750476D01*
X113014631Y-90920745D01*
X113014630Y-90920750D01*
X112994435Y-91099996D01*
X112994435Y-91100003D01*
X113014630Y-91279249D01*
X113014631Y-91279254D01*
X113074211Y-91449523D01*
X113151978Y-91573288D01*
X113170184Y-91602262D01*
X113297738Y-91729816D01*
X113325629Y-91747341D01*
X113442450Y-91820745D01*
X113450478Y-91825789D01*
X113588860Y-91874211D01*
X113620745Y-91885368D01*
X113620750Y-91885369D01*
X113799996Y-91905565D01*
X113800000Y-91905565D01*
X113800004Y-91905565D01*
X113979249Y-91885369D01*
X113979252Y-91885368D01*
X113979255Y-91885368D01*
X114149522Y-91825789D01*
X114302262Y-91729816D01*
X114429816Y-91602262D01*
X114525789Y-91449522D01*
X114585368Y-91279255D01*
X114585369Y-91279249D01*
X114605565Y-91100003D01*
X114605565Y-91099997D01*
X114594610Y-91002772D01*
X114606664Y-90933950D01*
X114654013Y-90882571D01*
X114721623Y-90864946D01*
X114783802Y-90883894D01*
X114850473Y-90925786D01*
X114850478Y-90925789D01*
X114929906Y-90953582D01*
X115020745Y-90985368D01*
X115020750Y-90985369D01*
X115199996Y-91005565D01*
X115200000Y-91005565D01*
X115200004Y-91005565D01*
X115379249Y-90985369D01*
X115379252Y-90985368D01*
X115379255Y-90985368D01*
X115549522Y-90925789D01*
X115702262Y-90829816D01*
X115829816Y-90702262D01*
X115925789Y-90549522D01*
X115985368Y-90379255D01*
X115985937Y-90374211D01*
X115993500Y-90307083D01*
X116020566Y-90242669D01*
X116078161Y-90203114D01*
X116130604Y-90197746D01*
X116199998Y-90205565D01*
X116200000Y-90205565D01*
X116200004Y-90205565D01*
X116379249Y-90185369D01*
X116379252Y-90185368D01*
X116379255Y-90185368D01*
X116549522Y-90125789D01*
X116702262Y-90029816D01*
X116829816Y-89902262D01*
X116896197Y-89796616D01*
X116948532Y-89750326D01*
X117017585Y-89739678D01*
X117081434Y-89768053D01*
X117106185Y-89796617D01*
X117146458Y-89860711D01*
X117165458Y-89927948D01*
X117145090Y-89994783D01*
X117129146Y-90014364D01*
X117020183Y-90123327D01*
X116924211Y-90276064D01*
X116864631Y-90446333D01*
X116864630Y-90446338D01*
X116844435Y-90625584D01*
X116844435Y-90625591D01*
X116864630Y-90804837D01*
X116864631Y-90804842D01*
X116924211Y-90975111D01*
X117020184Y-91127850D01*
X117024525Y-91133293D01*
X117023499Y-91134110D01*
X117053443Y-91188947D01*
X117048459Y-91258639D01*
X117019958Y-91302986D01*
X112109649Y-96213295D01*
X112048326Y-96246780D01*
X111978634Y-96241796D01*
X111922701Y-96199924D01*
X111898748Y-96139497D01*
X111885369Y-96020750D01*
X111885368Y-96020745D01*
X111825789Y-95850478D01*
X111825188Y-95849522D01*
X111752768Y-95734266D01*
X111729816Y-95697738D01*
X111602262Y-95570184D01*
X111582146Y-95557544D01*
X111449523Y-95474211D01*
X111279254Y-95414631D01*
X111279249Y-95414630D01*
X111100004Y-95394435D01*
X111099996Y-95394435D01*
X110920750Y-95414630D01*
X110920745Y-95414631D01*
X110750476Y-95474211D01*
X110597737Y-95570184D01*
X110470184Y-95697737D01*
X110374211Y-95850476D01*
X110314631Y-96020745D01*
X110314630Y-96020750D01*
X110294435Y-96199996D01*
X110294435Y-96200003D01*
X110314630Y-96379249D01*
X110314633Y-96379262D01*
X110376510Y-96556094D01*
X110374364Y-96556844D01*
X110383962Y-96615144D01*
X110375609Y-96643590D01*
X110376510Y-96643906D01*
X110314633Y-96820737D01*
X110314630Y-96820750D01*
X110294435Y-96999996D01*
X110294435Y-97000003D01*
X110314630Y-97179251D01*
X110315291Y-97182144D01*
X110315173Y-97184064D01*
X110315411Y-97186175D01*
X110315041Y-97186216D01*
X110311013Y-97251883D01*
X110282080Y-97297411D01*
X110203187Y-97376304D01*
X110164082Y-97438539D01*
X110111747Y-97484830D01*
X110042693Y-97495477D01*
X109978845Y-97467101D01*
X109940474Y-97408711D01*
X109939762Y-97338845D01*
X109942048Y-97331610D01*
X109960367Y-97279259D01*
X109960369Y-97279249D01*
X109980565Y-97100003D01*
X109980565Y-97099996D01*
X109960369Y-96920750D01*
X109960368Y-96920745D01*
X109935446Y-96849522D01*
X109900789Y-96750478D01*
X109894208Y-96740005D01*
X109815753Y-96615144D01*
X109804816Y-96597738D01*
X109677262Y-96470184D01*
X109524523Y-96374211D01*
X109354254Y-96314631D01*
X109354249Y-96314630D01*
X109175004Y-96294435D01*
X109174996Y-96294435D01*
X108995750Y-96314630D01*
X108995745Y-96314631D01*
X108825476Y-96374211D01*
X108672737Y-96470184D01*
X108545184Y-96597737D01*
X108449211Y-96750476D01*
X108389631Y-96920745D01*
X108389630Y-96920750D01*
X108369435Y-97099996D01*
X99056701Y-97099996D01*
X99085108Y-96987821D01*
X99085311Y-96985369D01*
X99105643Y-96740005D01*
X99105643Y-96739994D01*
X99085109Y-96492187D01*
X99085107Y-96492175D01*
X99024063Y-96251118D01*
X99001639Y-96199996D01*
X104619435Y-96199996D01*
X104619435Y-96200003D01*
X104639630Y-96379249D01*
X104639631Y-96379254D01*
X104699211Y-96549523D01*
X104740444Y-96615144D01*
X104795184Y-96702262D01*
X104922738Y-96829816D01*
X105013080Y-96886582D01*
X105073461Y-96924522D01*
X105075478Y-96925789D01*
X105203958Y-96970746D01*
X105245745Y-96985368D01*
X105245750Y-96985369D01*
X105424996Y-97005565D01*
X105425000Y-97005565D01*
X105425004Y-97005565D01*
X105604249Y-96985369D01*
X105604252Y-96985368D01*
X105604255Y-96985368D01*
X105774522Y-96925789D01*
X105927262Y-96829816D01*
X106054816Y-96702262D01*
X106150789Y-96549522D01*
X106210368Y-96379255D01*
X106210369Y-96379249D01*
X106230565Y-96200003D01*
X106230565Y-96199996D01*
X106210369Y-96020750D01*
X106210368Y-96020745D01*
X106150789Y-95850478D01*
X106150188Y-95849522D01*
X106077768Y-95734266D01*
X106054816Y-95697738D01*
X105927262Y-95570184D01*
X105907146Y-95557544D01*
X105774523Y-95474211D01*
X105604254Y-95414631D01*
X105604249Y-95414630D01*
X105425004Y-95394435D01*
X105424996Y-95394435D01*
X105245750Y-95414630D01*
X105245745Y-95414631D01*
X105075476Y-95474211D01*
X104922737Y-95570184D01*
X104795184Y-95697737D01*
X104699211Y-95850476D01*
X104639631Y-96020745D01*
X104639630Y-96020750D01*
X104619435Y-96199996D01*
X99001639Y-96199996D01*
X98924174Y-96023396D01*
X98924173Y-96023393D01*
X98793256Y-95823009D01*
X98773070Y-95756122D01*
X98792250Y-95688936D01*
X98837642Y-95646356D01*
X98842323Y-95643798D01*
X98842331Y-95643796D01*
X98957546Y-95557546D01*
X99043796Y-95442331D01*
X99094091Y-95307483D01*
X99100500Y-95247873D01*
X99100499Y-93152128D01*
X99094091Y-93092517D01*
X99083690Y-93064631D01*
X99043797Y-92957671D01*
X99043793Y-92957664D01*
X98957547Y-92842455D01*
X98957544Y-92842452D01*
X98842335Y-92756206D01*
X98842328Y-92756202D01*
X98707482Y-92705908D01*
X98707483Y-92705908D01*
X98647883Y-92699501D01*
X98647881Y-92699500D01*
X98647873Y-92699500D01*
X98647864Y-92699500D01*
X96552129Y-92699500D01*
X96552123Y-92699501D01*
X96492516Y-92705908D01*
X96357671Y-92756202D01*
X96357664Y-92756206D01*
X96242455Y-92842452D01*
X96242452Y-92842455D01*
X96156206Y-92957664D01*
X96156202Y-92957671D01*
X96105908Y-93092517D01*
X96099677Y-93150478D01*
X96099501Y-93152123D01*
X96099500Y-93152135D01*
X96099500Y-94706921D01*
X96079815Y-94773960D01*
X96027011Y-94819715D01*
X95957853Y-94829659D01*
X95909528Y-94811915D01*
X95849523Y-94774211D01*
X95679254Y-94714631D01*
X95679249Y-94714630D01*
X95500004Y-94694435D01*
X95499996Y-94694435D01*
X95320750Y-94714630D01*
X95320745Y-94714631D01*
X95150476Y-94774211D01*
X95040472Y-94843332D01*
X94973235Y-94862332D01*
X94906400Y-94841964D01*
X94861186Y-94788696D01*
X94850500Y-94738338D01*
X94850500Y-91999996D01*
X106169435Y-91999996D01*
X106169435Y-92000003D01*
X106189630Y-92179249D01*
X106189631Y-92179254D01*
X106249211Y-92349523D01*
X106325028Y-92470184D01*
X106345184Y-92502262D01*
X106472738Y-92629816D01*
X106539149Y-92671545D01*
X106607721Y-92714632D01*
X106625478Y-92725789D01*
X106712399Y-92756204D01*
X106795745Y-92785368D01*
X106795750Y-92785369D01*
X106974996Y-92805565D01*
X106975000Y-92805565D01*
X106975004Y-92805565D01*
X107154249Y-92785369D01*
X107154252Y-92785368D01*
X107154255Y-92785368D01*
X107324522Y-92725789D01*
X107477262Y-92629816D01*
X107515860Y-92591217D01*
X107577181Y-92557733D01*
X107646872Y-92562717D01*
X107702806Y-92604587D01*
X107726760Y-92665016D01*
X107739630Y-92779249D01*
X107739631Y-92779254D01*
X107799211Y-92949523D01*
X107871538Y-93064630D01*
X107895184Y-93102262D01*
X108022738Y-93229816D01*
X108101410Y-93279249D01*
X108167450Y-93320745D01*
X108175478Y-93325789D01*
X108238199Y-93347736D01*
X108345745Y-93385368D01*
X108345750Y-93385369D01*
X108524996Y-93405565D01*
X108525000Y-93405565D01*
X108525004Y-93405565D01*
X108704249Y-93385369D01*
X108704252Y-93385368D01*
X108704255Y-93385368D01*
X108874522Y-93325789D01*
X109027262Y-93229816D01*
X109154816Y-93102262D01*
X109156240Y-93099996D01*
X112294435Y-93099996D01*
X112294435Y-93100003D01*
X112314630Y-93279249D01*
X112314631Y-93279254D01*
X112374211Y-93449523D01*
X112456388Y-93580306D01*
X112470184Y-93602262D01*
X112597738Y-93729816D01*
X112618789Y-93743043D01*
X112732519Y-93814505D01*
X112750478Y-93825789D01*
X112819675Y-93850002D01*
X112920745Y-93885368D01*
X112920750Y-93885369D01*
X113099996Y-93905565D01*
X113100000Y-93905565D01*
X113100004Y-93905565D01*
X113279249Y-93885369D01*
X113279252Y-93885368D01*
X113279255Y-93885368D01*
X113449522Y-93825789D01*
X113602262Y-93729816D01*
X113729816Y-93602262D01*
X113825789Y-93449522D01*
X113885368Y-93279255D01*
X113885369Y-93279249D01*
X113905565Y-93100003D01*
X113905565Y-93099996D01*
X113885369Y-92920750D01*
X113885368Y-92920745D01*
X113843006Y-92799682D01*
X113825789Y-92750478D01*
X113811201Y-92727262D01*
X113749971Y-92629815D01*
X113729816Y-92597738D01*
X113602262Y-92470184D01*
X113449523Y-92374211D01*
X113279254Y-92314631D01*
X113279249Y-92314630D01*
X113100004Y-92294435D01*
X113099996Y-92294435D01*
X112920750Y-92314630D01*
X112920745Y-92314631D01*
X112750476Y-92374211D01*
X112597737Y-92470184D01*
X112470184Y-92597737D01*
X112374211Y-92750476D01*
X112314631Y-92920745D01*
X112314630Y-92920750D01*
X112294435Y-93099996D01*
X109156240Y-93099996D01*
X109250789Y-92949522D01*
X109310368Y-92779255D01*
X109310369Y-92779249D01*
X109330565Y-92600003D01*
X109330565Y-92599996D01*
X109310369Y-92420750D01*
X109310368Y-92420745D01*
X109250788Y-92250476D01*
X109206033Y-92179249D01*
X109154816Y-92097738D01*
X109027262Y-91970184D01*
X108923510Y-91904992D01*
X108877221Y-91852659D01*
X108866573Y-91783606D01*
X108894948Y-91719757D01*
X108923509Y-91695007D01*
X109027262Y-91629816D01*
X109154816Y-91502262D01*
X109250789Y-91349522D01*
X109310368Y-91179255D01*
X109310369Y-91179249D01*
X109330565Y-91000003D01*
X109330565Y-90999996D01*
X109310369Y-90820750D01*
X109310368Y-90820745D01*
X109303403Y-90800841D01*
X109250789Y-90650478D01*
X109235151Y-90625591D01*
X109184469Y-90544931D01*
X109154816Y-90497738D01*
X109027262Y-90370184D01*
X109018025Y-90364380D01*
X108874523Y-90274211D01*
X108704254Y-90214631D01*
X108704249Y-90214630D01*
X108525004Y-90194435D01*
X108524996Y-90194435D01*
X108345750Y-90214630D01*
X108345745Y-90214631D01*
X108175476Y-90274211D01*
X108022737Y-90370184D01*
X107895184Y-90497737D01*
X107799211Y-90650476D01*
X107739631Y-90820745D01*
X107739630Y-90820750D01*
X107719435Y-90999996D01*
X107719435Y-91000003D01*
X107739630Y-91179249D01*
X107739631Y-91179254D01*
X107799213Y-91349530D01*
X107800814Y-91352853D01*
X107801202Y-91355214D01*
X107801511Y-91356095D01*
X107801356Y-91356148D01*
X107812166Y-91421794D01*
X107789260Y-91474785D01*
X107843401Y-91473679D01*
X107898586Y-91505664D01*
X108022738Y-91629816D01*
X108101696Y-91679428D01*
X108126487Y-91695006D01*
X108172778Y-91747341D01*
X108183426Y-91816395D01*
X108155051Y-91880243D01*
X108126487Y-91904994D01*
X108022737Y-91970184D01*
X107984139Y-92008782D01*
X107922816Y-92042267D01*
X107853124Y-92037281D01*
X107797191Y-91995409D01*
X107773239Y-91934982D01*
X107760369Y-91820750D01*
X107760368Y-91820745D01*
X107700788Y-91650475D01*
X107699187Y-91647151D01*
X107698797Y-91644787D01*
X107698489Y-91643905D01*
X107698643Y-91643850D01*
X107687832Y-91578210D01*
X107710737Y-91525214D01*
X107656593Y-91526319D01*
X107601413Y-91494335D01*
X107477262Y-91370184D01*
X107324523Y-91274211D01*
X107154254Y-91214631D01*
X107154249Y-91214630D01*
X106975004Y-91194435D01*
X106974996Y-91194435D01*
X106795750Y-91214630D01*
X106795745Y-91214631D01*
X106625476Y-91274211D01*
X106472737Y-91370184D01*
X106345184Y-91497737D01*
X106249211Y-91650476D01*
X106189631Y-91820745D01*
X106189630Y-91820750D01*
X106169435Y-91999996D01*
X94850500Y-91999996D01*
X94850500Y-91261661D01*
X94870185Y-91194622D01*
X94922989Y-91148867D01*
X94992147Y-91138923D01*
X95040473Y-91156668D01*
X95150475Y-91225788D01*
X95320745Y-91285368D01*
X95320750Y-91285369D01*
X95499996Y-91305565D01*
X95500000Y-91305565D01*
X95500004Y-91305565D01*
X95679249Y-91285369D01*
X95679252Y-91285368D01*
X95679255Y-91285368D01*
X95849522Y-91225789D01*
X96002262Y-91129816D01*
X96129816Y-91002262D01*
X96225789Y-90849522D01*
X96285368Y-90679255D01*
X96285369Y-90679249D01*
X96305565Y-90500003D01*
X96305565Y-90499996D01*
X99694435Y-90499996D01*
X99694435Y-90500003D01*
X99714630Y-90679249D01*
X99714631Y-90679254D01*
X99774211Y-90849523D01*
X99859569Y-90985368D01*
X99870184Y-91002262D01*
X99997738Y-91129816D01*
X100040473Y-91156668D01*
X100132721Y-91214632D01*
X100150478Y-91225789D01*
X100288860Y-91274211D01*
X100320745Y-91285368D01*
X100320750Y-91285369D01*
X100499996Y-91305565D01*
X100500000Y-91305565D01*
X100500004Y-91305565D01*
X100679249Y-91285369D01*
X100679252Y-91285368D01*
X100679255Y-91285368D01*
X100849522Y-91225789D01*
X101002262Y-91129816D01*
X101129816Y-91002262D01*
X101225789Y-90849522D01*
X101285368Y-90679255D01*
X101285369Y-90679249D01*
X101305565Y-90500003D01*
X101305565Y-90499996D01*
X101285369Y-90320750D01*
X101285368Y-90320745D01*
X101256259Y-90237557D01*
X101225789Y-90150478D01*
X101129816Y-89997738D01*
X101002262Y-89870184D01*
X100970144Y-89850003D01*
X100849523Y-89774211D01*
X100679254Y-89714631D01*
X100679249Y-89714630D01*
X100500004Y-89694435D01*
X100499996Y-89694435D01*
X100320750Y-89714630D01*
X100320745Y-89714631D01*
X100150476Y-89774211D01*
X99997737Y-89870184D01*
X99870184Y-89997737D01*
X99774211Y-90150476D01*
X99714631Y-90320745D01*
X99714630Y-90320750D01*
X99694435Y-90499996D01*
X96305565Y-90499996D01*
X96285369Y-90320750D01*
X96285368Y-90320745D01*
X96256259Y-90237557D01*
X96225789Y-90150478D01*
X96129816Y-89997738D01*
X96002262Y-89870184D01*
X95970144Y-89850003D01*
X95849523Y-89774211D01*
X95679254Y-89714631D01*
X95679249Y-89714630D01*
X95500004Y-89694435D01*
X95499996Y-89694435D01*
X95320750Y-89714630D01*
X95320745Y-89714631D01*
X95150476Y-89774211D01*
X95040472Y-89843332D01*
X94973235Y-89862332D01*
X94906400Y-89841964D01*
X94861186Y-89788696D01*
X94850500Y-89738338D01*
X94850500Y-86261661D01*
X94870185Y-86194622D01*
X94922989Y-86148867D01*
X94992147Y-86138923D01*
X95040473Y-86156668D01*
X95150475Y-86225788D01*
X95320745Y-86285368D01*
X95320750Y-86285369D01*
X95499996Y-86305565D01*
X95500000Y-86305565D01*
X95500004Y-86305565D01*
X95679249Y-86285369D01*
X95679252Y-86285368D01*
X95679255Y-86285368D01*
X95849522Y-86225789D01*
X96002262Y-86129816D01*
X96129816Y-86002262D01*
X96225789Y-85849522D01*
X96285368Y-85679255D01*
X96293890Y-85603619D01*
X96305565Y-85500003D01*
X96305565Y-85499996D01*
X99694435Y-85499996D01*
X99694435Y-85500003D01*
X99714630Y-85679249D01*
X99714631Y-85679254D01*
X99774211Y-85849523D01*
X99837045Y-85949522D01*
X99870184Y-86002262D01*
X99997738Y-86129816D01*
X100150478Y-86225789D01*
X100277352Y-86270184D01*
X100320745Y-86285368D01*
X100320750Y-86285369D01*
X100499996Y-86305565D01*
X100500000Y-86305565D01*
X100500004Y-86305565D01*
X100679249Y-86285369D01*
X100679252Y-86285368D01*
X100679255Y-86285368D01*
X100849522Y-86225789D01*
X101002262Y-86129816D01*
X101129816Y-86002262D01*
X101225789Y-85849522D01*
X101285368Y-85679255D01*
X101293890Y-85603619D01*
X101305565Y-85500003D01*
X101305565Y-85499996D01*
X104694435Y-85499996D01*
X104694435Y-85500003D01*
X104714630Y-85679249D01*
X104714631Y-85679254D01*
X104774211Y-85849523D01*
X104837045Y-85949522D01*
X104870184Y-86002262D01*
X104997738Y-86129816D01*
X105150478Y-86225789D01*
X105277352Y-86270184D01*
X105320745Y-86285368D01*
X105320750Y-86285369D01*
X105499996Y-86305565D01*
X105500000Y-86305565D01*
X105500004Y-86305565D01*
X105679249Y-86285369D01*
X105679252Y-86285368D01*
X105679255Y-86285368D01*
X105849522Y-86225789D01*
X106002262Y-86129816D01*
X106129816Y-86002262D01*
X106225789Y-85849522D01*
X106285368Y-85679255D01*
X106293890Y-85603619D01*
X106305565Y-85500003D01*
X106305565Y-85499996D01*
X109694435Y-85499996D01*
X109694435Y-85500003D01*
X109714630Y-85679249D01*
X109714631Y-85679254D01*
X109774211Y-85849523D01*
X109837045Y-85949522D01*
X109870184Y-86002262D01*
X109997738Y-86129816D01*
X110150478Y-86225789D01*
X110277352Y-86270184D01*
X110320745Y-86285368D01*
X110320750Y-86285369D01*
X110499996Y-86305565D01*
X110500000Y-86305565D01*
X110500004Y-86305565D01*
X110679249Y-86285369D01*
X110679252Y-86285368D01*
X110679255Y-86285368D01*
X110849522Y-86225789D01*
X111002262Y-86129816D01*
X111129816Y-86002262D01*
X111225789Y-85849522D01*
X111285368Y-85679255D01*
X111293890Y-85603619D01*
X111305565Y-85500003D01*
X111305565Y-85499996D01*
X111285369Y-85320750D01*
X111285368Y-85320745D01*
X111282958Y-85313857D01*
X111225789Y-85150478D01*
X111192651Y-85097740D01*
X111149499Y-85029064D01*
X111129816Y-84997738D01*
X111002262Y-84870184D01*
X110971941Y-84851132D01*
X110849523Y-84774211D01*
X110679254Y-84714631D01*
X110679249Y-84714630D01*
X110549362Y-84699996D01*
X111694435Y-84699996D01*
X111694435Y-84700003D01*
X111714630Y-84879249D01*
X111714631Y-84879254D01*
X111774211Y-85049523D01*
X111870184Y-85202262D01*
X111997738Y-85329816D01*
X112005250Y-85334536D01*
X112142450Y-85420745D01*
X112150478Y-85425789D01*
X112214520Y-85448198D01*
X112271296Y-85488920D01*
X112297044Y-85553872D01*
X112296787Y-85579119D01*
X112294435Y-85600000D01*
X112294435Y-85600003D01*
X112314630Y-85779249D01*
X112314631Y-85779254D01*
X112374211Y-85949523D01*
X112465266Y-86094435D01*
X112470184Y-86102262D01*
X112597738Y-86229816D01*
X112750478Y-86325789D01*
X112920745Y-86385368D01*
X112920750Y-86385369D01*
X113099996Y-86405565D01*
X113100000Y-86405565D01*
X113100004Y-86405565D01*
X113279249Y-86385369D01*
X113279252Y-86385368D01*
X113279255Y-86385368D01*
X113449522Y-86325789D01*
X113602262Y-86229816D01*
X113729816Y-86102262D01*
X113825789Y-85949522D01*
X113825789Y-85949519D01*
X113826423Y-85948512D01*
X113878758Y-85902221D01*
X113947811Y-85891573D01*
X114011660Y-85919948D01*
X114036409Y-85948510D01*
X114070184Y-86002262D01*
X114197738Y-86129816D01*
X114350478Y-86225789D01*
X114477352Y-86270184D01*
X114520745Y-86285368D01*
X114520750Y-86285369D01*
X114699996Y-86305565D01*
X114700000Y-86305565D01*
X114700004Y-86305565D01*
X114879249Y-86285369D01*
X114879252Y-86285368D01*
X114879255Y-86285368D01*
X115049522Y-86225789D01*
X115202262Y-86129816D01*
X115329816Y-86002262D01*
X115425789Y-85849522D01*
X115482958Y-85686141D01*
X115523680Y-85629366D01*
X115588633Y-85603619D01*
X115657194Y-85617075D01*
X115707597Y-85665462D01*
X115717042Y-85686142D01*
X115774211Y-85849523D01*
X115837045Y-85949522D01*
X115870184Y-86002262D01*
X115997738Y-86129816D01*
X116150478Y-86225789D01*
X116277352Y-86270184D01*
X116320745Y-86285368D01*
X116320750Y-86285369D01*
X116499996Y-86305565D01*
X116500000Y-86305565D01*
X116500004Y-86305565D01*
X116679249Y-86285369D01*
X116679252Y-86285368D01*
X116679255Y-86285368D01*
X116849522Y-86225789D01*
X117002262Y-86129816D01*
X117129816Y-86002262D01*
X117225789Y-85849522D01*
X117285368Y-85679255D01*
X117293890Y-85603619D01*
X117305565Y-85500003D01*
X117305565Y-85499996D01*
X119694434Y-85499996D01*
X119694434Y-85500003D01*
X119714629Y-85679249D01*
X119714630Y-85679254D01*
X119774210Y-85849523D01*
X119837044Y-85949522D01*
X119870183Y-86002262D01*
X119997737Y-86129816D01*
X120150477Y-86225789D01*
X120277351Y-86270184D01*
X120320744Y-86285368D01*
X120320749Y-86285369D01*
X120499995Y-86305565D01*
X120499999Y-86305565D01*
X120500003Y-86305565D01*
X120679248Y-86285369D01*
X120679251Y-86285368D01*
X120679254Y-86285368D01*
X120849521Y-86225789D01*
X121002261Y-86129816D01*
X121129815Y-86002262D01*
X121225788Y-85849522D01*
X121285367Y-85679255D01*
X121293889Y-85603619D01*
X121305564Y-85500003D01*
X121305564Y-85499996D01*
X124694435Y-85499996D01*
X124694435Y-85500003D01*
X124714630Y-85679249D01*
X124714631Y-85679254D01*
X124774211Y-85849523D01*
X124837045Y-85949522D01*
X124870184Y-86002262D01*
X124997738Y-86129816D01*
X125150478Y-86225789D01*
X125277352Y-86270184D01*
X125320745Y-86285368D01*
X125320750Y-86285369D01*
X125499996Y-86305565D01*
X125500000Y-86305565D01*
X125500004Y-86305565D01*
X125679249Y-86285369D01*
X125679252Y-86285368D01*
X125679255Y-86285368D01*
X125849522Y-86225789D01*
X126002262Y-86129816D01*
X126129816Y-86002262D01*
X126225789Y-85849522D01*
X126285368Y-85679255D01*
X126293890Y-85603619D01*
X126305565Y-85500003D01*
X126305565Y-85499996D01*
X129694435Y-85499996D01*
X129694435Y-85500003D01*
X129714630Y-85679249D01*
X129714631Y-85679254D01*
X129774211Y-85849523D01*
X129837045Y-85949522D01*
X129870184Y-86002262D01*
X129997738Y-86129816D01*
X130150478Y-86225789D01*
X130277352Y-86270184D01*
X130320745Y-86285368D01*
X130320750Y-86285369D01*
X130499996Y-86305565D01*
X130500000Y-86305565D01*
X130500004Y-86305565D01*
X130679249Y-86285369D01*
X130679252Y-86285368D01*
X130679255Y-86285368D01*
X130849522Y-86225789D01*
X131002262Y-86129816D01*
X131129816Y-86002262D01*
X131225789Y-85849522D01*
X131285368Y-85679255D01*
X131293890Y-85603619D01*
X131305565Y-85500003D01*
X131305565Y-85499996D01*
X131285369Y-85320750D01*
X131285368Y-85320745D01*
X131282958Y-85313857D01*
X131225789Y-85150478D01*
X131192651Y-85097740D01*
X131149499Y-85029064D01*
X131129816Y-84997738D01*
X131002262Y-84870184D01*
X130971941Y-84851132D01*
X130849523Y-84774211D01*
X130679254Y-84714631D01*
X130679249Y-84714630D01*
X130500004Y-84694435D01*
X130499996Y-84694435D01*
X130320750Y-84714630D01*
X130320745Y-84714631D01*
X130150476Y-84774211D01*
X129997737Y-84870184D01*
X129870184Y-84997737D01*
X129774211Y-85150476D01*
X129714631Y-85320745D01*
X129714630Y-85320750D01*
X129694435Y-85499996D01*
X126305565Y-85499996D01*
X126285369Y-85320750D01*
X126285368Y-85320745D01*
X126282958Y-85313857D01*
X126225789Y-85150478D01*
X126192651Y-85097740D01*
X126149499Y-85029064D01*
X126129816Y-84997738D01*
X126002262Y-84870184D01*
X125971941Y-84851132D01*
X125849523Y-84774211D01*
X125679254Y-84714631D01*
X125679249Y-84714630D01*
X125500004Y-84694435D01*
X125499996Y-84694435D01*
X125320750Y-84714630D01*
X125320745Y-84714631D01*
X125150476Y-84774211D01*
X124997737Y-84870184D01*
X124870184Y-84997737D01*
X124774211Y-85150476D01*
X124714631Y-85320745D01*
X124714630Y-85320750D01*
X124694435Y-85499996D01*
X121305564Y-85499996D01*
X121285368Y-85320750D01*
X121285367Y-85320745D01*
X121282957Y-85313857D01*
X121225788Y-85150478D01*
X121192650Y-85097740D01*
X121149498Y-85029064D01*
X121129815Y-84997738D01*
X121002261Y-84870184D01*
X120971940Y-84851132D01*
X120849522Y-84774211D01*
X120679253Y-84714631D01*
X120679248Y-84714630D01*
X120500003Y-84694435D01*
X120499995Y-84694435D01*
X120320749Y-84714630D01*
X120320744Y-84714631D01*
X120150475Y-84774211D01*
X119997736Y-84870184D01*
X119870183Y-84997737D01*
X119774210Y-85150476D01*
X119714630Y-85320745D01*
X119714629Y-85320750D01*
X119694434Y-85499996D01*
X117305565Y-85499996D01*
X117285369Y-85320750D01*
X117285368Y-85320745D01*
X117282958Y-85313857D01*
X117225789Y-85150478D01*
X117192651Y-85097740D01*
X117149499Y-85029064D01*
X117129816Y-84997738D01*
X117002262Y-84870184D01*
X116971941Y-84851132D01*
X116849523Y-84774211D01*
X116679254Y-84714631D01*
X116679249Y-84714630D01*
X116500004Y-84694435D01*
X116499996Y-84694435D01*
X116320750Y-84714630D01*
X116320745Y-84714631D01*
X116150476Y-84774211D01*
X115997737Y-84870184D01*
X115870184Y-84997737D01*
X115774209Y-85150480D01*
X115717041Y-85313857D01*
X115676320Y-85370633D01*
X115611367Y-85396380D01*
X115542805Y-85382924D01*
X115492403Y-85334536D01*
X115482959Y-85313857D01*
X115425790Y-85150480D01*
X115425789Y-85150478D01*
X115329816Y-84997738D01*
X115202262Y-84870184D01*
X115171941Y-84851132D01*
X115049523Y-84774211D01*
X114879254Y-84714631D01*
X114879249Y-84714630D01*
X114700004Y-84694435D01*
X114699996Y-84694435D01*
X114520750Y-84714630D01*
X114520745Y-84714631D01*
X114350476Y-84774211D01*
X114197737Y-84870184D01*
X114070182Y-84997739D01*
X113973575Y-85151488D01*
X113921241Y-85197778D01*
X113852187Y-85208426D01*
X113788339Y-85180051D01*
X113763588Y-85151486D01*
X113762953Y-85150476D01*
X113758206Y-85142920D01*
X113729818Y-85097740D01*
X113602262Y-84970184D01*
X113449522Y-84874211D01*
X113385478Y-84851801D01*
X113328702Y-84811079D01*
X113302955Y-84746126D01*
X113303213Y-84720874D01*
X113305565Y-84700001D01*
X113305565Y-84699996D01*
X113285369Y-84520750D01*
X113285368Y-84520745D01*
X113225789Y-84350478D01*
X113129816Y-84197738D01*
X113002262Y-84070184D01*
X112849523Y-83974211D01*
X112679254Y-83914631D01*
X112679249Y-83914630D01*
X112500004Y-83894435D01*
X112499996Y-83894435D01*
X112320750Y-83914630D01*
X112320745Y-83914631D01*
X112150476Y-83974211D01*
X111997737Y-84070184D01*
X111870184Y-84197737D01*
X111774211Y-84350476D01*
X111714631Y-84520745D01*
X111714630Y-84520750D01*
X111694435Y-84699996D01*
X110549362Y-84699996D01*
X110500004Y-84694435D01*
X110499996Y-84694435D01*
X110320750Y-84714630D01*
X110320745Y-84714631D01*
X110150476Y-84774211D01*
X109997737Y-84870184D01*
X109870184Y-84997737D01*
X109774211Y-85150476D01*
X109714631Y-85320745D01*
X109714630Y-85320750D01*
X109694435Y-85499996D01*
X106305565Y-85499996D01*
X106285369Y-85320750D01*
X106285368Y-85320745D01*
X106282958Y-85313857D01*
X106225789Y-85150478D01*
X106192651Y-85097740D01*
X106149499Y-85029064D01*
X106129816Y-84997738D01*
X106002262Y-84870184D01*
X105971941Y-84851132D01*
X105849523Y-84774211D01*
X105679254Y-84714631D01*
X105679249Y-84714630D01*
X105500004Y-84694435D01*
X105499996Y-84694435D01*
X105320750Y-84714630D01*
X105320745Y-84714631D01*
X105150476Y-84774211D01*
X104997737Y-84870184D01*
X104870184Y-84997737D01*
X104774211Y-85150476D01*
X104714631Y-85320745D01*
X104714630Y-85320750D01*
X104694435Y-85499996D01*
X101305565Y-85499996D01*
X101285369Y-85320750D01*
X101285368Y-85320745D01*
X101282958Y-85313857D01*
X101225789Y-85150478D01*
X101192651Y-85097740D01*
X101149499Y-85029064D01*
X101129816Y-84997738D01*
X101002262Y-84870184D01*
X100971941Y-84851132D01*
X100849523Y-84774211D01*
X100679254Y-84714631D01*
X100679249Y-84714630D01*
X100500004Y-84694435D01*
X100499996Y-84694435D01*
X100320750Y-84714630D01*
X100320745Y-84714631D01*
X100150476Y-84774211D01*
X99997737Y-84870184D01*
X99870184Y-84997737D01*
X99774211Y-85150476D01*
X99714631Y-85320745D01*
X99714630Y-85320750D01*
X99694435Y-85499996D01*
X96305565Y-85499996D01*
X96285369Y-85320750D01*
X96285368Y-85320745D01*
X96282958Y-85313857D01*
X96225789Y-85150478D01*
X96192651Y-85097740D01*
X96149499Y-85029064D01*
X96129816Y-84997738D01*
X96002262Y-84870184D01*
X95971941Y-84851132D01*
X95849523Y-84774211D01*
X95679254Y-84714631D01*
X95679249Y-84714630D01*
X95500004Y-84694435D01*
X95499996Y-84694435D01*
X95320750Y-84714630D01*
X95320745Y-84714631D01*
X95150476Y-84774211D01*
X95040472Y-84843332D01*
X94973235Y-84862332D01*
X94906400Y-84841964D01*
X94861186Y-84788696D01*
X94850500Y-84738338D01*
X94850500Y-81261661D01*
X94870185Y-81194622D01*
X94922989Y-81148867D01*
X94992147Y-81138923D01*
X95040473Y-81156668D01*
X95150475Y-81225788D01*
X95320745Y-81285368D01*
X95320750Y-81285369D01*
X95499996Y-81305565D01*
X95500000Y-81305565D01*
X95500004Y-81305565D01*
X95679249Y-81285369D01*
X95679252Y-81285368D01*
X95679255Y-81285368D01*
X95849522Y-81225789D01*
X96002262Y-81129816D01*
X96129816Y-81002262D01*
X96194319Y-80899606D01*
X96246652Y-80853315D01*
X96315706Y-80842666D01*
X96379554Y-80871041D01*
X96417926Y-80929431D01*
X96419087Y-80933484D01*
X96475788Y-81145094D01*
X96614787Y-81507197D01*
X96790877Y-81852793D01*
X97002122Y-82178082D01*
X97113784Y-82315973D01*
X97246219Y-82479516D01*
X97520484Y-82753781D01*
X97688375Y-82889737D01*
X97821917Y-82997877D01*
X98087247Y-83170184D01*
X98147211Y-83209125D01*
X98492806Y-83385214D01*
X98854913Y-83524214D01*
X99229567Y-83624602D01*
X99612662Y-83685278D01*
X99978576Y-83704455D01*
X99999999Y-83705578D01*
X100000000Y-83705578D01*
X100000001Y-83705578D01*
X100020301Y-83704514D01*
X100387338Y-83685278D01*
X100770433Y-83624602D01*
X101145087Y-83524214D01*
X101507194Y-83385214D01*
X101852789Y-83209125D01*
X102178084Y-82997876D01*
X102479516Y-82753781D01*
X102753781Y-82479516D01*
X102997876Y-82178084D01*
X103209125Y-81852789D01*
X103385214Y-81507194D01*
X103524214Y-81145087D01*
X103624602Y-80770433D01*
X103667435Y-80499996D01*
X104694435Y-80499996D01*
X104694435Y-80500003D01*
X104714630Y-80679249D01*
X104714631Y-80679254D01*
X104774211Y-80849523D01*
X104830830Y-80939631D01*
X104870184Y-81002262D01*
X104997738Y-81129816D01*
X105038490Y-81155422D01*
X105145620Y-81222737D01*
X105150478Y-81225789D01*
X105320745Y-81285368D01*
X105320750Y-81285369D01*
X105499996Y-81305565D01*
X105500000Y-81305565D01*
X105500004Y-81305565D01*
X105679249Y-81285369D01*
X105679252Y-81285368D01*
X105679255Y-81285368D01*
X105849522Y-81225789D01*
X106002262Y-81129816D01*
X106129816Y-81002262D01*
X106225789Y-80849522D01*
X106285368Y-80679255D01*
X106285369Y-80679249D01*
X106305565Y-80500003D01*
X106305565Y-80499996D01*
X109694435Y-80499996D01*
X109694435Y-80500003D01*
X109714630Y-80679249D01*
X109714631Y-80679254D01*
X109774211Y-80849523D01*
X109830830Y-80939631D01*
X109870184Y-81002262D01*
X109997738Y-81129816D01*
X110038490Y-81155422D01*
X110145620Y-81222737D01*
X110150478Y-81225789D01*
X110320745Y-81285368D01*
X110320750Y-81285369D01*
X110499996Y-81305565D01*
X110500000Y-81305565D01*
X110500004Y-81305565D01*
X110679249Y-81285369D01*
X110679252Y-81285368D01*
X110679255Y-81285368D01*
X110849522Y-81225789D01*
X111002262Y-81129816D01*
X111129816Y-81002262D01*
X111225789Y-80849522D01*
X111285368Y-80679255D01*
X111285369Y-80679249D01*
X111305565Y-80500003D01*
X111305565Y-80499996D01*
X111285369Y-80320750D01*
X111285368Y-80320745D01*
X111272989Y-80285368D01*
X111225789Y-80150478D01*
X111204107Y-80115972D01*
X111166061Y-80055422D01*
X111129816Y-79997738D01*
X111002262Y-79870184D01*
X110957180Y-79841857D01*
X110849523Y-79774211D01*
X110679254Y-79714631D01*
X110679249Y-79714630D01*
X110500004Y-79694435D01*
X110499996Y-79694435D01*
X110320750Y-79714630D01*
X110320745Y-79714631D01*
X110150476Y-79774211D01*
X109997737Y-79870184D01*
X109870184Y-79997737D01*
X109774211Y-80150476D01*
X109714631Y-80320745D01*
X109714630Y-80320750D01*
X109694435Y-80499996D01*
X106305565Y-80499996D01*
X106285369Y-80320750D01*
X106285368Y-80320745D01*
X106272989Y-80285368D01*
X106225789Y-80150478D01*
X106204107Y-80115972D01*
X106166061Y-80055422D01*
X106129816Y-79997738D01*
X106002262Y-79870184D01*
X105957180Y-79841857D01*
X105849523Y-79774211D01*
X105679254Y-79714631D01*
X105679249Y-79714630D01*
X105500004Y-79694435D01*
X105499996Y-79694435D01*
X105320750Y-79714630D01*
X105320745Y-79714631D01*
X105150476Y-79774211D01*
X104997737Y-79870184D01*
X104870184Y-79997737D01*
X104774211Y-80150476D01*
X104714631Y-80320745D01*
X104714630Y-80320750D01*
X104694435Y-80499996D01*
X103667435Y-80499996D01*
X103685278Y-80387338D01*
X103705578Y-80000000D01*
X103685278Y-79612662D01*
X103667434Y-79499996D01*
X112694435Y-79499996D01*
X112694435Y-79500003D01*
X112714630Y-79679249D01*
X112714631Y-79679254D01*
X112774211Y-79849523D01*
X112858727Y-79984028D01*
X112877727Y-80051264D01*
X112858727Y-80115972D01*
X112774211Y-80250476D01*
X112714631Y-80420745D01*
X112714630Y-80420750D01*
X112694435Y-80599996D01*
X112694435Y-80600003D01*
X112714630Y-80779249D01*
X112714631Y-80779254D01*
X112774211Y-80949523D01*
X112858727Y-81084028D01*
X112877727Y-81151264D01*
X112858727Y-81215971D01*
X112852559Y-81225788D01*
X112774211Y-81350476D01*
X112714631Y-81520745D01*
X112714630Y-81520750D01*
X112694435Y-81699996D01*
X112694435Y-81700003D01*
X112714630Y-81879249D01*
X112714631Y-81879254D01*
X112774211Y-82049523D01*
X112858727Y-82184028D01*
X112877727Y-82251264D01*
X112858727Y-82315972D01*
X112774211Y-82450476D01*
X112714631Y-82620745D01*
X112714630Y-82620750D01*
X112694435Y-82799996D01*
X112694435Y-82800003D01*
X112714630Y-82979249D01*
X112714631Y-82979254D01*
X112774211Y-83149523D01*
X112811660Y-83209122D01*
X112870184Y-83302262D01*
X112997738Y-83429816D01*
X113084543Y-83484359D01*
X113147966Y-83524211D01*
X113150478Y-83525789D01*
X113262671Y-83565047D01*
X113320745Y-83585368D01*
X113320750Y-83585369D01*
X113499996Y-83605565D01*
X113500000Y-83605565D01*
X113500004Y-83605565D01*
X113679249Y-83585369D01*
X113679252Y-83585368D01*
X113679255Y-83585368D01*
X113849522Y-83525789D01*
X114002262Y-83429816D01*
X114002266Y-83429811D01*
X114007705Y-83425475D01*
X114009081Y-83427201D01*
X114061142Y-83398774D01*
X114130834Y-83403758D01*
X114166390Y-83426609D01*
X114167295Y-83425475D01*
X114172737Y-83429815D01*
X114172738Y-83429816D01*
X114259543Y-83484359D01*
X114322966Y-83524211D01*
X114325478Y-83525789D01*
X114437671Y-83565047D01*
X114495745Y-83585368D01*
X114495750Y-83585369D01*
X114674996Y-83605565D01*
X114675000Y-83605565D01*
X114675004Y-83605565D01*
X114854249Y-83585369D01*
X114854252Y-83585368D01*
X114854255Y-83585368D01*
X115024522Y-83525789D01*
X115177262Y-83429816D01*
X115304816Y-83302262D01*
X115400789Y-83149522D01*
X115460368Y-82979255D01*
X115460368Y-82979252D01*
X115460369Y-82979249D01*
X115480565Y-82800003D01*
X115480565Y-82799996D01*
X115460369Y-82620750D01*
X115460368Y-82620745D01*
X115400788Y-82450475D01*
X115324127Y-82328472D01*
X115316272Y-82315970D01*
X115297272Y-82248736D01*
X115316273Y-82184028D01*
X115400789Y-82049522D01*
X115460368Y-81879255D01*
X115477748Y-81725003D01*
X115477749Y-81724996D01*
X116594435Y-81724996D01*
X116594435Y-81725003D01*
X116614630Y-81904249D01*
X116614631Y-81904254D01*
X116674211Y-82074523D01*
X116750872Y-82196528D01*
X116769872Y-82263765D01*
X116750872Y-82328472D01*
X116674211Y-82450476D01*
X116614631Y-82620745D01*
X116614630Y-82620750D01*
X116594435Y-82799996D01*
X116594435Y-82800003D01*
X116614630Y-82979249D01*
X116614631Y-82979254D01*
X116674211Y-83149523D01*
X116770184Y-83302262D01*
X116902662Y-83434740D01*
X116900936Y-83436465D01*
X116934539Y-83484359D01*
X116937375Y-83554171D01*
X116934120Y-83565047D01*
X116914631Y-83620745D01*
X116914631Y-83620746D01*
X116894435Y-83799996D01*
X116894435Y-83800003D01*
X116914630Y-83979249D01*
X116914631Y-83979254D01*
X116974211Y-84149523D01*
X117004507Y-84197738D01*
X117070184Y-84302262D01*
X117197738Y-84429816D01*
X117288080Y-84486582D01*
X117342450Y-84520745D01*
X117350478Y-84525789D01*
X117520745Y-84585368D01*
X117520750Y-84585369D01*
X117699996Y-84605565D01*
X117700000Y-84605565D01*
X117700004Y-84605565D01*
X117879249Y-84585369D01*
X117879252Y-84585368D01*
X117879255Y-84585368D01*
X118049522Y-84525789D01*
X118202262Y-84429816D01*
X118329816Y-84302262D01*
X118425789Y-84149522D01*
X118485368Y-83979255D01*
X118485369Y-83979249D01*
X118505565Y-83800003D01*
X118505565Y-83799996D01*
X118485369Y-83620750D01*
X118485368Y-83620745D01*
X118425788Y-83450476D01*
X118384780Y-83385212D01*
X118329816Y-83297738D01*
X118202262Y-83170184D01*
X118197338Y-83165260D01*
X118199064Y-83163533D01*
X118165466Y-83115660D01*
X118162618Y-83045849D01*
X118165879Y-83034950D01*
X118185368Y-82979255D01*
X118185368Y-82979253D01*
X118185369Y-82979251D01*
X118205565Y-82800003D01*
X118205565Y-82799996D01*
X118185369Y-82620750D01*
X118185368Y-82620745D01*
X118125787Y-82450473D01*
X118049128Y-82328472D01*
X118030127Y-82261236D01*
X118049128Y-82196528D01*
X118125787Y-82074526D01*
X118125788Y-82074523D01*
X118125789Y-82074522D01*
X118185368Y-81904255D01*
X118188185Y-81879254D01*
X118205565Y-81725003D01*
X118205565Y-81724996D01*
X118185369Y-81545750D01*
X118185368Y-81545745D01*
X118125788Y-81375476D01*
X118029815Y-81222737D01*
X117902262Y-81095184D01*
X117749523Y-80999211D01*
X117579254Y-80939631D01*
X117579249Y-80939630D01*
X117400004Y-80919435D01*
X117399996Y-80919435D01*
X117220750Y-80939630D01*
X117220745Y-80939631D01*
X117050476Y-80999211D01*
X116897737Y-81095184D01*
X116770184Y-81222737D01*
X116674211Y-81375476D01*
X116614631Y-81545745D01*
X116614630Y-81545750D01*
X116594435Y-81724996D01*
X115477749Y-81724996D01*
X115480565Y-81700003D01*
X115480565Y-81699996D01*
X115460369Y-81520750D01*
X115460368Y-81520745D01*
X115400788Y-81350475D01*
X115356957Y-81280720D01*
X115316272Y-81215970D01*
X115297272Y-81148736D01*
X115316273Y-81084028D01*
X115400789Y-80949522D01*
X115460368Y-80779255D01*
X115461362Y-80770433D01*
X115480565Y-80600003D01*
X115480565Y-80599996D01*
X115469298Y-80499996D01*
X119694435Y-80499996D01*
X119694435Y-80500003D01*
X119714630Y-80679249D01*
X119714631Y-80679254D01*
X119774211Y-80849523D01*
X119830830Y-80939631D01*
X119870184Y-81002262D01*
X119997738Y-81129816D01*
X120038490Y-81155422D01*
X120145620Y-81222737D01*
X120150478Y-81225789D01*
X120320745Y-81285368D01*
X120320750Y-81285369D01*
X120499996Y-81305565D01*
X120500000Y-81305565D01*
X120500004Y-81305565D01*
X120679249Y-81285369D01*
X120679252Y-81285368D01*
X120679255Y-81285368D01*
X120849522Y-81225789D01*
X121002262Y-81129816D01*
X121129816Y-81002262D01*
X121225789Y-80849522D01*
X121285368Y-80679255D01*
X121285369Y-80679249D01*
X121305565Y-80500003D01*
X121305565Y-80499996D01*
X124694435Y-80499996D01*
X124694435Y-80500003D01*
X124714630Y-80679249D01*
X124714631Y-80679254D01*
X124774211Y-80849523D01*
X124830830Y-80939631D01*
X124870184Y-81002262D01*
X124997738Y-81129816D01*
X125038490Y-81155422D01*
X125145620Y-81222737D01*
X125150478Y-81225789D01*
X125320745Y-81285368D01*
X125320750Y-81285369D01*
X125499996Y-81305565D01*
X125500000Y-81305565D01*
X125500004Y-81305565D01*
X125679249Y-81285369D01*
X125679252Y-81285368D01*
X125679255Y-81285368D01*
X125849522Y-81225789D01*
X126002262Y-81129816D01*
X126129816Y-81002262D01*
X126225789Y-80849522D01*
X126285368Y-80679255D01*
X126285369Y-80679249D01*
X126305565Y-80500003D01*
X126305565Y-80499996D01*
X126285369Y-80320750D01*
X126285368Y-80320745D01*
X126272989Y-80285368D01*
X126225789Y-80150478D01*
X126204107Y-80115972D01*
X126166061Y-80055422D01*
X126129816Y-79997738D01*
X126002262Y-79870184D01*
X125957180Y-79841857D01*
X125849523Y-79774211D01*
X125679254Y-79714631D01*
X125679249Y-79714630D01*
X125500004Y-79694435D01*
X125499996Y-79694435D01*
X125320750Y-79714630D01*
X125320745Y-79714631D01*
X125150476Y-79774211D01*
X124997737Y-79870184D01*
X124870184Y-79997737D01*
X124774211Y-80150476D01*
X124714631Y-80320745D01*
X124714630Y-80320750D01*
X124694435Y-80499996D01*
X121305565Y-80499996D01*
X121285369Y-80320750D01*
X121285368Y-80320745D01*
X121272989Y-80285368D01*
X121225789Y-80150478D01*
X121204107Y-80115972D01*
X121166061Y-80055422D01*
X121129816Y-79997738D01*
X121002262Y-79870184D01*
X120957180Y-79841857D01*
X120849523Y-79774211D01*
X120679254Y-79714631D01*
X120679249Y-79714630D01*
X120500004Y-79694435D01*
X120499996Y-79694435D01*
X120320750Y-79714630D01*
X120320745Y-79714631D01*
X120150476Y-79774211D01*
X119997737Y-79870184D01*
X119870184Y-79997737D01*
X119774211Y-80150476D01*
X119714631Y-80320745D01*
X119714630Y-80320750D01*
X119694435Y-80499996D01*
X115469298Y-80499996D01*
X115460369Y-80420750D01*
X115460368Y-80420745D01*
X115412998Y-80285369D01*
X115400789Y-80250478D01*
X115304816Y-80097738D01*
X115177262Y-79970184D01*
X115156797Y-79957325D01*
X115024523Y-79874211D01*
X114854254Y-79814631D01*
X114854249Y-79814630D01*
X114675004Y-79794435D01*
X114674996Y-79794435D01*
X114495750Y-79814630D01*
X114495738Y-79814633D01*
X114445074Y-79832361D01*
X114375295Y-79835922D01*
X114314668Y-79801192D01*
X114282442Y-79739198D01*
X114286210Y-79686593D01*
X114283818Y-79686047D01*
X114285369Y-79679249D01*
X114305565Y-79500003D01*
X114305565Y-79499996D01*
X116594435Y-79499996D01*
X116594435Y-79500003D01*
X116614630Y-79679249D01*
X116614631Y-79679254D01*
X116674211Y-79849523D01*
X116741948Y-79957325D01*
X116770184Y-80002262D01*
X116897738Y-80129816D01*
X117050478Y-80225789D01*
X117220745Y-80285368D01*
X117220750Y-80285369D01*
X117399996Y-80305565D01*
X117400000Y-80305565D01*
X117400004Y-80305565D01*
X117579249Y-80285369D01*
X117579252Y-80285368D01*
X117579255Y-80285368D01*
X117749522Y-80225789D01*
X117902262Y-80129816D01*
X118029816Y-80002262D01*
X118125789Y-79849522D01*
X118185368Y-79679255D01*
X118192871Y-79612662D01*
X118205565Y-79500003D01*
X118205565Y-79499996D01*
X118185369Y-79320750D01*
X118185368Y-79320745D01*
X118128249Y-79157508D01*
X118125789Y-79150478D01*
X118123854Y-79147399D01*
X118029815Y-78997737D01*
X117902262Y-78870184D01*
X117749523Y-78774211D01*
X117579254Y-78714631D01*
X117579249Y-78714630D01*
X117400004Y-78694435D01*
X117399996Y-78694435D01*
X117220750Y-78714630D01*
X117220745Y-78714631D01*
X117050476Y-78774211D01*
X116897737Y-78870184D01*
X116770184Y-78997737D01*
X116674211Y-79150476D01*
X116614631Y-79320745D01*
X116614630Y-79320750D01*
X116594435Y-79499996D01*
X114305565Y-79499996D01*
X114285369Y-79320750D01*
X114285368Y-79320745D01*
X114228249Y-79157508D01*
X114225789Y-79150478D01*
X114223854Y-79147399D01*
X114129815Y-78997737D01*
X114002262Y-78870184D01*
X113849523Y-78774211D01*
X113679254Y-78714631D01*
X113679249Y-78714630D01*
X113500004Y-78694435D01*
X113499996Y-78694435D01*
X113320750Y-78714630D01*
X113320745Y-78714631D01*
X113150476Y-78774211D01*
X112997737Y-78870184D01*
X112870184Y-78997737D01*
X112774211Y-79150476D01*
X112714631Y-79320745D01*
X112714630Y-79320750D01*
X112694435Y-79499996D01*
X103667434Y-79499996D01*
X103624602Y-79229567D01*
X103524214Y-78854913D01*
X103385214Y-78492806D01*
X103209125Y-78147211D01*
X103178463Y-78099996D01*
X110094435Y-78099996D01*
X110094435Y-78100003D01*
X110114630Y-78279249D01*
X110114631Y-78279254D01*
X110174211Y-78449523D01*
X110201408Y-78492806D01*
X110270184Y-78602262D01*
X110397738Y-78729816D01*
X110550478Y-78825789D01*
X110633687Y-78854905D01*
X110720745Y-78885368D01*
X110720750Y-78885369D01*
X110899996Y-78905565D01*
X110900000Y-78905565D01*
X110900004Y-78905565D01*
X111079249Y-78885369D01*
X111079252Y-78885368D01*
X111079255Y-78885368D01*
X111249522Y-78825789D01*
X111402262Y-78729816D01*
X111529816Y-78602262D01*
X111625789Y-78449522D01*
X111685368Y-78279255D01*
X111700246Y-78147211D01*
X111705565Y-78100003D01*
X111705565Y-78099996D01*
X119294435Y-78099996D01*
X119294435Y-78100003D01*
X119314630Y-78279249D01*
X119314631Y-78279254D01*
X119374211Y-78449523D01*
X119401408Y-78492806D01*
X119470184Y-78602262D01*
X119597738Y-78729816D01*
X119750478Y-78825789D01*
X119833687Y-78854905D01*
X119920745Y-78885368D01*
X119920750Y-78885369D01*
X120099996Y-78905565D01*
X120100000Y-78905565D01*
X120100004Y-78905565D01*
X120279249Y-78885369D01*
X120279252Y-78885368D01*
X120279255Y-78885368D01*
X120449522Y-78825789D01*
X120602262Y-78729816D01*
X120729816Y-78602262D01*
X120825789Y-78449522D01*
X120885368Y-78279255D01*
X120900246Y-78147211D01*
X120905565Y-78100003D01*
X120905565Y-78099996D01*
X120885369Y-77920750D01*
X120885368Y-77920745D01*
X120867459Y-77869565D01*
X120825789Y-77750478D01*
X120729816Y-77597738D01*
X120602262Y-77470184D01*
X120527244Y-77423047D01*
X120449523Y-77374211D01*
X120279254Y-77314631D01*
X120279249Y-77314630D01*
X120100004Y-77294435D01*
X120099996Y-77294435D01*
X119920750Y-77314630D01*
X119920745Y-77314631D01*
X119750476Y-77374211D01*
X119597737Y-77470184D01*
X119470184Y-77597737D01*
X119374211Y-77750476D01*
X119314631Y-77920745D01*
X119314630Y-77920750D01*
X119294435Y-78099996D01*
X111705565Y-78099996D01*
X111685369Y-77920750D01*
X111685368Y-77920745D01*
X111667459Y-77869565D01*
X111625789Y-77750478D01*
X111529816Y-77597738D01*
X111402262Y-77470184D01*
X111327244Y-77423047D01*
X111249523Y-77374211D01*
X111079254Y-77314631D01*
X111079249Y-77314630D01*
X110900004Y-77294435D01*
X110899996Y-77294435D01*
X110720750Y-77314630D01*
X110720745Y-77314631D01*
X110550476Y-77374211D01*
X110397737Y-77470184D01*
X110270184Y-77597737D01*
X110174211Y-77750476D01*
X110114631Y-77920745D01*
X110114630Y-77920750D01*
X110094435Y-78099996D01*
X103178463Y-78099996D01*
X103069021Y-77931469D01*
X102997877Y-77821917D01*
X102816339Y-77597737D01*
X102753781Y-77520484D01*
X102479516Y-77246219D01*
X102178084Y-77002124D01*
X102178082Y-77002122D01*
X101852793Y-76790877D01*
X101507197Y-76614787D01*
X101145094Y-76475788D01*
X100933484Y-76419087D01*
X100873824Y-76382722D01*
X100843295Y-76319874D01*
X100851590Y-76250499D01*
X100896075Y-76196621D01*
X100899586Y-76194331D01*
X101002262Y-76129816D01*
X101129816Y-76002262D01*
X101225789Y-75849522D01*
X101285368Y-75679255D01*
X101305565Y-75500000D01*
X101302314Y-75471150D01*
X101285369Y-75320750D01*
X101285368Y-75320745D01*
X101225788Y-75150475D01*
X101156668Y-75040473D01*
X101137667Y-74973236D01*
X101158034Y-74906401D01*
X101211302Y-74861186D01*
X101261661Y-74850500D01*
X104738339Y-74850500D01*
X104805378Y-74870185D01*
G37*
%TD.AperFunction*%
%TD*%
D23*
X95500000Y-105500000D03*
X127700000Y-104800000D03*
X110500000Y-80500000D03*
X113100000Y-93100000D03*
X135500000Y-105500000D03*
X120499999Y-85500000D03*
X128700000Y-104800000D03*
X125500000Y-75500000D03*
X126900000Y-103000000D03*
X100500000Y-85500000D03*
X105500000Y-80500000D03*
X113100000Y-89400000D03*
X113500000Y-80600000D03*
X130500000Y-75500000D03*
X100500000Y-75500000D03*
X118300000Y-107700000D03*
X115500000Y-110500000D03*
X95500000Y-80500000D03*
X135500000Y-80500000D03*
X126200000Y-104800000D03*
X95500000Y-110500000D03*
X95500000Y-85500000D03*
X110900000Y-78100000D03*
X113500000Y-81700000D03*
X130500000Y-115500000D03*
X97400002Y-102208949D03*
X105500000Y-110500000D03*
X117400000Y-79500000D03*
X100500000Y-90500000D03*
X112700000Y-100013786D03*
X113500000Y-82800000D03*
X123500000Y-103000000D03*
X125500000Y-85500000D03*
X120500000Y-75500000D03*
X105425000Y-96200000D03*
X120500000Y-115500000D03*
X113500000Y-79500000D03*
X116500000Y-87800000D03*
X121500000Y-111300000D03*
X114675000Y-81700000D03*
X108525000Y-92600000D03*
X123000000Y-101000000D03*
X95500000Y-90500000D03*
X129700000Y-104800000D03*
X124700000Y-107700000D03*
X106975000Y-92000000D03*
X120100000Y-78100000D03*
X117900000Y-96500000D03*
X130800000Y-105600000D03*
X105500000Y-85500000D03*
X125500000Y-80500000D03*
X120383246Y-92225000D03*
X130500000Y-90500000D03*
X100500000Y-115500000D03*
X114700000Y-85500000D03*
X131700000Y-104800000D03*
X110500000Y-75500000D03*
X113100000Y-97900000D03*
X115500000Y-105500000D03*
X108525000Y-91000000D03*
X110500000Y-100500000D03*
X114675000Y-80600000D03*
X105500000Y-100500000D03*
X110500000Y-85500000D03*
X100500000Y-105500000D03*
X116500000Y-85500000D03*
X117900000Y-94500000D03*
X100500000Y-100500000D03*
X125500000Y-115500000D03*
X110500000Y-105500000D03*
X135500000Y-85500000D03*
X130710387Y-97150001D03*
X109175000Y-97100000D03*
X130500000Y-85500000D03*
X118900000Y-101325000D03*
X122000000Y-102000000D03*
X130736262Y-93849999D03*
X114675000Y-82800000D03*
X95500000Y-100500000D03*
X117400000Y-82800000D03*
X117400000Y-81725000D03*
X105500000Y-75500000D03*
X125500000Y-103000000D03*
X109500000Y-113700000D03*
X95500000Y-95500000D03*
X105500000Y-105500000D03*
X111500000Y-112500000D03*
X120500000Y-80500000D03*
X135500000Y-110500000D03*
X121500000Y-112050003D03*
X124000000Y-103900000D03*
X120449997Y-94800000D03*
X111100000Y-97000000D03*
X125700000Y-89850000D03*
X121200000Y-94800000D03*
X122300000Y-109700000D03*
X120700000Y-109700000D03*
X112500000Y-84700000D03*
X111100000Y-96200000D03*
X97400002Y-103808871D03*
X119799582Y-96300000D03*
X116507512Y-99796921D03*
X113800000Y-91100000D03*
X121800000Y-91300000D03*
X130050002Y-95500000D03*
X125504412Y-101025000D03*
X110833006Y-97878563D03*
X122549996Y-91303104D03*
X116325000Y-81700000D03*
X110075000Y-92600000D03*
X101425000Y-103000000D03*
X118700000Y-98900000D03*
X131500000Y-102100000D03*
X129500000Y-102100000D03*
X115075000Y-100800000D03*
X115525000Y-78100000D03*
X124950003Y-91300000D03*
X132500000Y-101100000D03*
X129500000Y-101100000D03*
X118999999Y-92000000D03*
X128500000Y-103100000D03*
X131500000Y-100100000D03*
X132500000Y-103100000D03*
X112000000Y-92062500D03*
X133500000Y-101100000D03*
X116325000Y-80600000D03*
X128500000Y-100925000D03*
X133500000Y-100100000D03*
X133500000Y-102100000D03*
X131500000Y-101100000D03*
X129500000Y-103100000D03*
X116325000Y-82800000D03*
X130500000Y-101100000D03*
X132500000Y-100100000D03*
X117900000Y-85600000D03*
X132500000Y-102100000D03*
X131500000Y-103100000D03*
X129500000Y-100100000D03*
X110075000Y-91000000D03*
X130500000Y-102100000D03*
X109218750Y-98700000D03*
X130500000Y-100100000D03*
X133500000Y-103100000D03*
X117700000Y-83800000D03*
X114611091Y-89488909D03*
X117900000Y-86900000D03*
X115200000Y-90200000D03*
X121200000Y-93500000D03*
X118200000Y-90115687D03*
X128175000Y-97325002D03*
X112350000Y-101400000D03*
X115000000Y-104200006D03*
X128300000Y-91300000D03*
X119799582Y-97424999D03*
X119799582Y-99300000D03*
X124925000Y-99305653D03*
X112850000Y-103450003D03*
X122741776Y-99855653D03*
X115000000Y-103450003D03*
X120499997Y-90200000D03*
X116375000Y-100543042D03*
X127500000Y-91300000D03*
X125700006Y-91300000D03*
X116203526Y-101273179D03*
X120500000Y-89449998D03*
X121916806Y-99855653D03*
X112850000Y-102700000D03*
X115000000Y-102700000D03*
X117806410Y-89406410D03*
X116200000Y-89400000D03*
X113100000Y-85600000D03*
X117650000Y-90625588D03*
D24*
X114500000Y-115150000D03*
X112499999Y-115150000D03*
X110500000Y-115150000D03*
X108500000Y-115150000D03*
X106500000Y-115150000D03*
X104500000Y-115150000D03*
X118500000Y-75850000D03*
X116499999Y-75850000D03*
X114500000Y-75850000D03*
X112500000Y-75850000D03*
X128600000Y-80000000D03*
X129302944Y-78302944D03*
X129302944Y-81697056D03*
X131000000Y-77600000D03*
X131000000Y-80000000D03*
X131000000Y-82400000D03*
X132697056Y-78302944D03*
X132697056Y-81697056D03*
X133400000Y-80000000D03*
X97600000Y-94200000D03*
X97600000Y-96740000D03*
X118610000Y-109845000D03*
X124390000Y-109845000D03*
D25*
X117180000Y-109345000D03*
D26*
X117180000Y-113525000D03*
D25*
X125820000Y-109345000D03*
D26*
X125820000Y-113525000D03*
D24*
X97600000Y-80000000D03*
X98302944Y-78302944D03*
X98302944Y-81697056D03*
X100000000Y-77600000D03*
X100000000Y-80000000D03*
X100000000Y-82400000D03*
X101697056Y-78302944D03*
X101697056Y-81697056D03*
X102400000Y-80000000D03*
X133140000Y-94170000D03*
X135300000Y-99250000D03*
X135300000Y-96710000D03*
X135300000Y-94170001D03*
X135300000Y-91630000D03*
X128600000Y-111000000D03*
X129302944Y-109302944D03*
X129302944Y-112697056D03*
X131000000Y-108600000D03*
X131000000Y-111000000D03*
X131000000Y-113400000D03*
X132697056Y-109302944D03*
X132697056Y-112697056D03*
X133400000Y-111000000D03*
X97600000Y-111000000D03*
X98302944Y-109302944D03*
X98302944Y-112697056D03*
X100000000Y-108600000D03*
X100000000Y-111000000D03*
X100000000Y-113400000D03*
X101697056Y-109302944D03*
X101697056Y-112697056D03*
X102400000Y-111000000D03*
D23*
X123700000Y-96575000D03*
X125566667Y-96575000D03*
X127433333Y-96575000D03*
X129300000Y-96575000D03*
X123700000Y-94425000D03*
X125566667Y-94425000D03*
X127433333Y-94425000D03*
X129300000Y-94425000D03*
M02*
