%TF.GenerationSoftware,KiCad,Pcbnew,8.0.4*%
%TF.CreationDate,2024-08-28T16:39:45+02:00*%
%TF.ProjectId,stepper_driver_PCB,73746570-7065-4725-9f64-72697665725f,rev?*%
%TF.SameCoordinates,Original*%
%TF.FileFunction,Copper,L1,Top*%
%TF.FilePolarity,Positive*%
%FSLAX46Y46*%
G04 Gerber Fmt 4.6, Leading zero omitted, Abs format (unit mm)*
G04 Created by KiCad (PCBNEW 8.0.4) date 2024-08-28 16:39:45*
%MOMM*%
%LPD*%
G01*
G04 APERTURE LIST*
G04 Aperture macros list*
%AMRoundRect*
0 Rectangle with rounded corners*
0 $1 Rounding radius*
0 $2 $3 $4 $5 $6 $7 $8 $9 X,Y pos of 4 corners*
0 Add a 4 corners polygon primitive as box body*
4,1,4,$2,$3,$4,$5,$6,$7,$8,$9,$2,$3,0*
0 Add four circle primitives for the rounded corners*
1,1,$1+$1,$2,$3*
1,1,$1+$1,$4,$5*
1,1,$1+$1,$6,$7*
1,1,$1+$1,$8,$9*
0 Add four rect primitives between the rounded corners*
20,1,$1+$1,$2,$3,$4,$5,0*
20,1,$1+$1,$4,$5,$6,$7,0*
20,1,$1+$1,$6,$7,$8,$9,0*
20,1,$1+$1,$8,$9,$2,$3,0*%
G04 Aperture macros list end*
%TA.AperFunction,ComponentPad*%
%ADD10R,1.350000X1.350000*%
%TD*%
%TA.AperFunction,ComponentPad*%
%ADD11O,1.350000X1.350000*%
%TD*%
%TA.AperFunction,SMDPad,CuDef*%
%ADD12RoundRect,0.200000X0.200000X0.275000X-0.200000X0.275000X-0.200000X-0.275000X0.200000X-0.275000X0*%
%TD*%
%TA.AperFunction,SMDPad,CuDef*%
%ADD13RoundRect,0.218750X-0.218750X-0.256250X0.218750X-0.256250X0.218750X0.256250X-0.218750X0.256250X0*%
%TD*%
%TA.AperFunction,SMDPad,CuDef*%
%ADD14RoundRect,0.225000X-0.250000X0.225000X-0.250000X-0.225000X0.250000X-0.225000X0.250000X0.225000X0*%
%TD*%
%TA.AperFunction,SMDPad,CuDef*%
%ADD15RoundRect,0.225000X-0.225000X-0.250000X0.225000X-0.250000X0.225000X0.250000X-0.225000X0.250000X0*%
%TD*%
%TA.AperFunction,ComponentPad*%
%ADD16C,0.800000*%
%TD*%
%TA.AperFunction,ComponentPad*%
%ADD17C,6.400000*%
%TD*%
%TA.AperFunction,ComponentPad*%
%ADD18R,2.000000X2.000000*%
%TD*%
%TA.AperFunction,ComponentPad*%
%ADD19C,2.000000*%
%TD*%
%TA.AperFunction,SMDPad,CuDef*%
%ADD20RoundRect,0.150000X-0.150000X-0.500000X0.150000X-0.500000X0.150000X0.500000X-0.150000X0.500000X0*%
%TD*%
%TA.AperFunction,SMDPad,CuDef*%
%ADD21RoundRect,0.075000X-0.075000X-0.575000X0.075000X-0.575000X0.075000X0.575000X-0.075000X0.575000X0*%
%TD*%
%TA.AperFunction,ComponentPad*%
%ADD22O,1.000000X2.100000*%
%TD*%
%TA.AperFunction,ComponentPad*%
%ADD23O,1.000000X1.600000*%
%TD*%
%TA.AperFunction,SMDPad,CuDef*%
%ADD24RoundRect,0.225000X0.225000X0.250000X-0.225000X0.250000X-0.225000X-0.250000X0.225000X-0.250000X0*%
%TD*%
%TA.AperFunction,ComponentPad*%
%ADD25R,2.030000X1.730000*%
%TD*%
%TA.AperFunction,ComponentPad*%
%ADD26O,2.030000X1.730000*%
%TD*%
%TA.AperFunction,SMDPad,CuDef*%
%ADD27R,1.200000X1.400000*%
%TD*%
%TA.AperFunction,SMDPad,CuDef*%
%ADD28R,0.650000X1.050000*%
%TD*%
%TA.AperFunction,SMDPad,CuDef*%
%ADD29RoundRect,0.150000X-0.650000X-0.150000X0.650000X-0.150000X0.650000X0.150000X-0.650000X0.150000X0*%
%TD*%
%TA.AperFunction,SMDPad,CuDef*%
%ADD30RoundRect,0.218750X-0.218750X-0.381250X0.218750X-0.381250X0.218750X0.381250X-0.218750X0.381250X0*%
%TD*%
%TA.AperFunction,SMDPad,CuDef*%
%ADD31RoundRect,0.200000X-0.200000X-0.275000X0.200000X-0.275000X0.200000X0.275000X-0.200000X0.275000X0*%
%TD*%
%TA.AperFunction,SMDPad,CuDef*%
%ADD32RoundRect,0.062500X-0.375000X-0.062500X0.375000X-0.062500X0.375000X0.062500X-0.375000X0.062500X0*%
%TD*%
%TA.AperFunction,SMDPad,CuDef*%
%ADD33RoundRect,0.062500X-0.062500X-0.375000X0.062500X-0.375000X0.062500X0.375000X-0.062500X0.375000X0*%
%TD*%
%TA.AperFunction,HeatsinkPad*%
%ADD34R,5.600000X5.600000*%
%TD*%
%TA.AperFunction,SMDPad,CuDef*%
%ADD35R,0.800000X0.550000*%
%TD*%
%TA.AperFunction,HeatsinkPad*%
%ADD36C,0.600000*%
%TD*%
%TA.AperFunction,HeatsinkPad*%
%ADD37R,6.200000X2.750000*%
%TD*%
%TA.AperFunction,ViaPad*%
%ADD38C,0.600000*%
%TD*%
%TA.AperFunction,Conductor*%
%ADD39C,0.500000*%
%TD*%
%TA.AperFunction,Conductor*%
%ADD40C,0.300000*%
%TD*%
%TA.AperFunction,Conductor*%
%ADD41C,0.200000*%
%TD*%
%ADD42C,0.300000*%
%ADD43C,0.350000*%
%ADD44O,0.600000X1.700000*%
%ADD45O,0.600000X1.200000*%
G04 APERTURE END LIST*
D10*
%TO.P,J4,1,Pin_1*%
%TO.N,+3V3*%
X118500000Y-75850000D03*
D11*
%TO.P,J4,2,Pin_2*%
%TO.N,/JTAG_SWDIO*%
X116499999Y-75850000D03*
%TO.P,J4,3,Pin_3*%
%TO.N,/JTAG_SWCLK*%
X114500000Y-75850000D03*
%TO.P,J4,4,Pin_4*%
%TO.N,GND*%
X112500000Y-75850000D03*
%TD*%
D12*
%TO.P,R6,1*%
%TO.N,GND*%
X124825000Y-106800000D03*
%TO.P,R6,2*%
%TO.N,Net-(J5-CC1)*%
X123175000Y-106800000D03*
%TD*%
%TO.P,R4,1*%
%TO.N,/HSE_OUT*%
X110125000Y-95200000D03*
%TO.P,R4,2*%
%TO.N,Net-(C14-Pad1)*%
X108475000Y-95200000D03*
%TD*%
D13*
%TO.P,D2,1,K*%
%TO.N,/STATUS*%
X96712499Y-103800000D03*
%TO.P,D2,2,A*%
%TO.N,Net-(D2-A)*%
X98287501Y-103800000D03*
%TD*%
D14*
%TO.P,C5,1*%
%TO.N,Net-(U4-VCAP_1)*%
X117300000Y-100425000D03*
%TO.P,C5,2*%
%TO.N,GND*%
X117300000Y-101975000D03*
%TD*%
%TO.P,C8,1*%
%TO.N,+3V3*%
X120400000Y-91325000D03*
%TO.P,C8,2*%
%TO.N,GND*%
X120400000Y-92875000D03*
%TD*%
%TO.P,C7,1*%
%TO.N,+3V3*%
X118900000Y-100425000D03*
%TO.P,C7,2*%
%TO.N,GND*%
X118900000Y-101975000D03*
%TD*%
D15*
%TO.P,C13,1*%
%TO.N,/HSE_IN*%
X105425000Y-91200000D03*
%TO.P,C13,2*%
%TO.N,GND*%
X106975000Y-91200000D03*
%TD*%
D16*
%TO.P,H2,1,1*%
%TO.N,GND*%
X128600000Y-80000000D03*
X129302944Y-78302944D03*
X129302944Y-81697056D03*
X131000000Y-77600000D03*
D17*
X131000000Y-80000000D03*
D16*
X131000000Y-82400000D03*
X132697056Y-78302944D03*
X132697056Y-81697056D03*
X133400000Y-80000000D03*
%TD*%
D18*
%TO.P,J1,1,Pin_1*%
%TO.N,+24V*%
X97600000Y-94200000D03*
D19*
%TO.P,J1,2,Pin_2*%
%TO.N,GND*%
X97600000Y-96740000D03*
%TD*%
D10*
%TO.P,J2,1,Pin_1*%
%TO.N,+3V3*%
X114500000Y-115150000D03*
D11*
%TO.P,J2,2,Pin_2*%
%TO.N,/CTRL_SPI_MOSI*%
X112499999Y-115150000D03*
%TO.P,J2,3,Pin_3*%
%TO.N,/CTRL_SPI_MISO*%
X110500000Y-115150000D03*
%TO.P,J2,4,Pin_4*%
%TO.N,/CTRL_SPI_CLK*%
X108500000Y-115150000D03*
%TO.P,J2,5,Pin_5*%
%TO.N,/CTRL_SPI_NCS*%
X106500000Y-115150000D03*
%TO.P,J2,6,Pin_6*%
%TO.N,GND*%
X104500000Y-115150000D03*
%TD*%
D20*
%TO.P,J5,A1,GND*%
%TO.N,GND*%
X118300000Y-108705000D03*
%TO.P,J5,A4,VBUS*%
%TO.N,+5V*%
X119100000Y-108705000D03*
D21*
%TO.P,J5,A5,CC1*%
%TO.N,Net-(J5-CC1)*%
X120250000Y-108705001D03*
%TO.P,J5,A6,D+*%
%TO.N,Net-(J5-D+-PadA6)*%
X121250000Y-108705000D03*
%TO.P,J5,A7,D-*%
%TO.N,Net-(J5-D--PadA7)*%
X121750000Y-108705000D03*
%TO.P,J5,A8,SBU1*%
%TO.N,unconnected-(J5-SBU1-PadA8)*%
X122750000Y-108705001D03*
D20*
%TO.P,J5,A9,VBUS*%
%TO.N,+5V*%
X123900000Y-108705000D03*
%TO.P,J5,A12,GND*%
%TO.N,GND*%
X124700000Y-108705000D03*
%TO.P,J5,B1,GND*%
X124700000Y-108705000D03*
%TO.P,J5,B4,VBUS*%
%TO.N,+5V*%
X123900000Y-108705000D03*
D21*
%TO.P,J5,B5,CC2*%
%TO.N,Net-(J5-CC1)*%
X123250000Y-108705000D03*
%TO.P,J5,B6,D+*%
%TO.N,Net-(J5-D+-PadA6)*%
X122250000Y-108705000D03*
%TO.P,J5,B7,D-*%
%TO.N,Net-(J5-D--PadA7)*%
X120750000Y-108705000D03*
%TO.P,J5,B8,SBU2*%
%TO.N,unconnected-(J5-SBU2-PadB8)*%
X119750000Y-108705000D03*
D20*
%TO.P,J5,B9,VBUS*%
%TO.N,+5V*%
X119100000Y-108705000D03*
%TO.P,J5,B12,GND*%
%TO.N,GND*%
X118300000Y-108705000D03*
D22*
%TO.P,J5,S1,SHIELD*%
%TO.N,unconnected-(J5-SHIELD-PadS1)*%
X117180000Y-109345000D03*
D23*
%TO.N,unconnected-(J5-SHIELD-PadS1)_2*%
X117180000Y-113525000D03*
D22*
%TO.N,unconnected-(J5-SHIELD-PadS1)_3*%
X125820000Y-109345000D03*
D23*
%TO.N,unconnected-(J5-SHIELD-PadS1)_1*%
X125820000Y-113525000D03*
%TD*%
D16*
%TO.P,H1,1,1*%
%TO.N,GND*%
X97600000Y-80000000D03*
X98302944Y-78302944D03*
X98302944Y-81697056D03*
X100000000Y-77600000D03*
D17*
X100000000Y-80000000D03*
D16*
X100000000Y-82400000D03*
X101697056Y-78302944D03*
X101697056Y-81697056D03*
X102400000Y-80000000D03*
%TD*%
D24*
%TO.P,C11,1*%
%TO.N,+3.3VA*%
X110075000Y-97100000D03*
%TO.P,C11,2*%
%TO.N,GND*%
X108525000Y-97100000D03*
%TD*%
%TO.P,C10,1*%
%TO.N,+3V3*%
X110075000Y-90300000D03*
%TO.P,C10,2*%
%TO.N,GND*%
X108525000Y-90300000D03*
%TD*%
D25*
%TO.P,J3,1,Pin_1*%
%TO.N,/STEPPER_B2*%
X135300000Y-99250000D03*
D26*
%TO.P,J3,2,Pin_2*%
%TO.N,/STEPPER_B1*%
X135300000Y-96710000D03*
%TO.P,J3,3,Pin_3*%
%TO.N,/STEPPER_A1*%
X135300000Y-94170001D03*
%TO.P,J3,4,Pin_4*%
%TO.N,/STEPPER_A2*%
X135300000Y-91630000D03*
%TD*%
D24*
%TO.P,C14,1*%
%TO.N,Net-(C14-Pad1)*%
X106975000Y-97000000D03*
%TO.P,C14,2*%
%TO.N,GND*%
X105425000Y-97000000D03*
%TD*%
%TO.P,C6,1*%
%TO.N,+3V3*%
X110075000Y-91800000D03*
%TO.P,C6,2*%
%TO.N,GND*%
X108525000Y-91800000D03*
%TD*%
D27*
%TO.P,Y1,1,1*%
%TO.N,/HSE_IN*%
X105150000Y-93000000D03*
%TO.P,Y1,2,2*%
%TO.N,GND*%
X105150000Y-95200000D03*
%TO.P,Y1,3,3*%
%TO.N,Net-(C14-Pad1)*%
X106850000Y-95200000D03*
%TO.P,Y1,4,4*%
%TO.N,GND*%
X106850000Y-93000000D03*
%TD*%
D12*
%TO.P,R3,1*%
%TO.N,+3V3*%
X116325000Y-78100000D03*
%TO.P,R3,2*%
%TO.N,/NRST*%
X114675000Y-78100000D03*
%TD*%
D15*
%TO.P,C1,1*%
%TO.N,+5V*%
X124000000Y-104800000D03*
%TO.P,C1,2*%
%TO.N,GND*%
X125550000Y-104800000D03*
%TD*%
D28*
%TO.P,SW1,1,1*%
%TO.N,/BOOT0*%
X118475000Y-79650000D03*
X118475000Y-83800000D03*
%TO.P,SW1,2,2*%
%TO.N,+3V3*%
X116325000Y-79650000D03*
X116325000Y-83800000D03*
%TD*%
D12*
%TO.P,R7,1*%
%TO.N,+3V3*%
X101425000Y-102200000D03*
%TO.P,R7,2*%
%TO.N,Net-(D1-A)*%
X99775000Y-102200000D03*
%TD*%
D29*
%TO.P,U7,1,~{CS}*%
%TO.N,/FLASH_SPI_NCS*%
X111900000Y-85595000D03*
%TO.P,U7,2,DO(IO1)*%
%TO.N,/FLASH_SPI_MISO*%
X111900000Y-86865000D03*
%TO.P,U7,3,IO2*%
%TO.N,/W25Q128_NWP*%
X111900000Y-88135000D03*
%TO.P,U7,4,GND*%
%TO.N,GND*%
X111900000Y-89405000D03*
%TO.P,U7,5,DI(IO0)*%
%TO.N,/FLASH_SPI_MOSI*%
X119100000Y-89405000D03*
%TO.P,U7,6,CLK*%
%TO.N,/FLASH_SPI_CLK*%
X119100000Y-88135000D03*
%TO.P,U7,7,IO3*%
%TO.N,/W25Q128_NRST*%
X119100000Y-86865000D03*
%TO.P,U7,8,VCC*%
%TO.N,+3V3*%
X119100000Y-85595000D03*
%TD*%
D12*
%TO.P,R8,1*%
%TO.N,+3V3*%
X101425000Y-103800000D03*
%TO.P,R8,2*%
%TO.N,Net-(D2-A)*%
X99775000Y-103800000D03*
%TD*%
D30*
%TO.P,L1,1*%
%TO.N,+3V3*%
X107981250Y-98700000D03*
%TO.P,L1,2*%
%TO.N,+3.3VA*%
X110106250Y-98700000D03*
%TD*%
D16*
%TO.P,H4,1,1*%
%TO.N,GND*%
X128600000Y-111000000D03*
X129302944Y-109302944D03*
X129302944Y-112697056D03*
X131000000Y-108600000D03*
D17*
X131000000Y-111000000D03*
D16*
X131000000Y-113400000D03*
X132697056Y-109302944D03*
X132697056Y-112697056D03*
X133400000Y-111000000D03*
%TD*%
D31*
%TO.P,R5,1*%
%TO.N,/BOOT0*%
X117675000Y-78100000D03*
%TO.P,R5,2*%
%TO.N,GND*%
X119325000Y-78100000D03*
%TD*%
D13*
%TO.P,D1,1,K*%
%TO.N,GND*%
X96712499Y-102200000D03*
%TO.P,D1,2,A*%
%TO.N,Net-(D1-A)*%
X98287501Y-102200000D03*
%TD*%
D16*
%TO.P,H3,1,1*%
%TO.N,GND*%
X97600000Y-111000000D03*
X98302944Y-109302944D03*
X98302944Y-112697056D03*
X100000000Y-108600000D03*
D17*
X100000000Y-111000000D03*
D16*
X100000000Y-113400000D03*
X101697056Y-109302944D03*
X101697056Y-112697056D03*
X102400000Y-111000000D03*
%TD*%
D24*
%TO.P,C9,1*%
%TO.N,+3V3*%
X110075000Y-93300000D03*
%TO.P,C9,2*%
%TO.N,GND*%
X108525000Y-93300000D03*
%TD*%
D32*
%TO.P,U4,1,VBAT*%
%TO.N,+3V3*%
X112062500Y-92750000D03*
%TO.P,U4,2,PC13*%
%TO.N,unconnected-(U4-PC13-Pad2)*%
X112062500Y-93250000D03*
%TO.P,U4,3,PC14*%
%TO.N,unconnected-(U4-PC14-Pad3)*%
X112062500Y-93750000D03*
%TO.P,U4,4,PC15*%
%TO.N,unconnected-(U4-PC15-Pad4)*%
X112062500Y-94250000D03*
%TO.P,U4,5,PH0*%
%TO.N,/HSE_IN*%
X112062500Y-94750000D03*
%TO.P,U4,6,PH1*%
%TO.N,/HSE_OUT*%
X112062500Y-95250000D03*
%TO.P,U4,7,NRST*%
%TO.N,/NRST*%
X112062500Y-95750000D03*
%TO.P,U4,8,VSSA*%
%TO.N,GND*%
X112062500Y-96250000D03*
%TO.P,U4,9,VDDA*%
%TO.N,+3.3VA*%
X112062500Y-96750000D03*
%TO.P,U4,10,PA0*%
%TO.N,/AS5600_OUT*%
X112062500Y-97250000D03*
%TO.P,U4,11,PA1*%
%TO.N,/TMC_MS1*%
X112062500Y-97750000D03*
%TO.P,U4,12,PA2*%
%TO.N,/TMC_MS2*%
X112062500Y-98250000D03*
D33*
%TO.P,U4,13,PA3*%
%TO.N,/TMC_NEN*%
X112750000Y-98937500D03*
%TO.P,U4,14,PA4*%
%TO.N,/CTRL_SPI_NCS*%
X113250000Y-98937500D03*
%TO.P,U4,15,PA5*%
%TO.N,/CTRL_SPI_CLK*%
X113750000Y-98937500D03*
%TO.P,U4,16,PA6*%
%TO.N,/CTRL_SPI_MISO*%
X114250000Y-98937500D03*
%TO.P,U4,17,PA7*%
%TO.N,/CTRL_SPI_MOSI*%
X114750000Y-98937500D03*
%TO.P,U4,18,PB0*%
%TO.N,/TMC_DIAG*%
X115250000Y-98937500D03*
%TO.P,U4,19,PB1*%
%TO.N,/TMC_INDEX*%
X115750000Y-98937500D03*
%TO.P,U4,20,PB2*%
%TO.N,unconnected-(U4-PB2-Pad20)*%
X116250000Y-98937500D03*
%TO.P,U4,21,PB10*%
%TO.N,/I2C_SDA*%
X116750000Y-98937500D03*
%TO.P,U4,22,VCAP_1*%
%TO.N,Net-(U4-VCAP_1)*%
X117250000Y-98937500D03*
%TO.P,U4,23,VSS*%
%TO.N,GND*%
X117750000Y-98937500D03*
%TO.P,U4,24,VDD*%
%TO.N,+3V3*%
X118250000Y-98937500D03*
D32*
%TO.P,U4,25,PB12*%
%TO.N,/TMC_STEP*%
X118937500Y-98250000D03*
%TO.P,U4,26,PB13*%
%TO.N,/TMC_DIR*%
X118937500Y-97750000D03*
%TO.P,U4,27,PB14*%
%TO.N,/TMC_SPREAD*%
X118937500Y-97250000D03*
%TO.P,U4,28,PB15*%
%TO.N,/TMC_STDBY*%
X118937500Y-96750000D03*
%TO.P,U4,29,PA8*%
%TO.N,/STATUS*%
X118937500Y-96250000D03*
%TO.P,U4,30,PA9*%
%TO.N,/TMC_UART_TX*%
X118937500Y-95750000D03*
%TO.P,U4,31,PA10*%
%TO.N,/TMC_UART_RX*%
X118937500Y-95250000D03*
%TO.P,U4,32,PA11*%
%TO.N,/USB_DN*%
X118937500Y-94750000D03*
%TO.P,U4,33,PA12*%
%TO.N,/USB_DP*%
X118937500Y-94250000D03*
%TO.P,U4,34,PA13*%
%TO.N,/JTAG_SWDIO*%
X118937500Y-93750000D03*
%TO.P,U4,35,VSS*%
%TO.N,GND*%
X118937500Y-93250000D03*
%TO.P,U4,36,VDD*%
%TO.N,+3V3*%
X118937500Y-92750000D03*
D33*
%TO.P,U4,37,PA14*%
%TO.N,/JTAG_SWCLK*%
X118250000Y-92062500D03*
%TO.P,U4,38,PA15*%
%TO.N,/FLASH_SPI_NCS*%
X117750000Y-92062500D03*
%TO.P,U4,39,PB3*%
%TO.N,/FLASH_SPI_CLK*%
X117250000Y-92062500D03*
%TO.P,U4,40,PB4*%
%TO.N,/FLASH_SPI_MISO*%
X116750000Y-92062500D03*
%TO.P,U4,41,PB5*%
%TO.N,/FLASH_SPI_MOSI*%
X116250000Y-92062500D03*
%TO.P,U4,42,PB6*%
%TO.N,/W25Q128_NWP*%
X115750000Y-92062500D03*
%TO.P,U4,43,PB7*%
%TO.N,/W25Q128_NRST*%
X115250000Y-92062500D03*
%TO.P,U4,44,BOOT0*%
%TO.N,/BOOT0*%
X114750000Y-92062500D03*
%TO.P,U4,45,PB8*%
%TO.N,unconnected-(U4-PB8-Pad45)*%
X114250000Y-92062500D03*
%TO.P,U4,46,PB9*%
%TO.N,/I2C_SCL*%
X113750000Y-92062500D03*
%TO.P,U4,47,VSS*%
%TO.N,GND*%
X113250000Y-92062500D03*
%TO.P,U4,48,VDD*%
%TO.N,+3V3*%
X112750000Y-92062500D03*
D34*
%TO.P,U4,49,VSS*%
%TO.N,GND*%
X115500000Y-95500000D03*
%TD*%
D14*
%TO.P,C2,1*%
%TO.N,+3V3*%
X130800000Y-103225000D03*
%TO.P,C2,2*%
%TO.N,GND*%
X130800000Y-104775000D03*
%TD*%
D35*
%TO.P,U1,1,VIN*%
%TO.N,+5V*%
X126899999Y-103850000D03*
%TO.P,U1,2,GND*%
%TO.N,GND*%
X126900000Y-104800000D03*
%TO.P,U1,3,EN*%
%TO.N,+5V*%
X126899999Y-105750000D03*
%TO.P,U1,4*%
%TO.N,N/C*%
X129300001Y-105750000D03*
%TO.P,U1,5,VOUT*%
%TO.N,+3V3*%
X129300001Y-103850000D03*
%TD*%
D28*
%TO.P,SW2,1,1*%
%TO.N,/NRST*%
X112525000Y-83800000D03*
X112525000Y-79650000D03*
%TO.P,SW2,2,2*%
%TO.N,GND*%
X114675000Y-83800000D03*
X114675000Y-79650000D03*
%TD*%
D15*
%TO.P,C12,1*%
%TO.N,GND*%
X111725000Y-78100000D03*
%TO.P,C12,2*%
%TO.N,/NRST*%
X113275000Y-78100000D03*
%TD*%
D36*
%TO.P,U5,29,GND*%
%TO.N,GND*%
X123700000Y-96575000D03*
X125566667Y-96575000D03*
X127433333Y-96575000D03*
X129300000Y-96575000D03*
D37*
X126500000Y-95500000D03*
D36*
X123700000Y-94425000D03*
X125566667Y-94425000D03*
X127433333Y-94425000D03*
X129300000Y-94425000D03*
%TD*%
D38*
%TO.N,GND*%
X95500000Y-105500000D03*
X127700000Y-104800000D03*
X110500000Y-80500000D03*
X113100000Y-93100000D03*
X135500000Y-105500000D03*
X120499999Y-85500000D03*
X128700000Y-104800000D03*
X125500000Y-75500000D03*
X126900000Y-103000000D03*
X100500000Y-85500000D03*
X105500000Y-80500000D03*
X113100000Y-89400000D03*
X113500000Y-80600000D03*
X130500000Y-75500000D03*
X100500000Y-75500000D03*
X118300000Y-107700000D03*
X115500000Y-110500000D03*
X95500000Y-80500000D03*
X135500000Y-80500000D03*
X126200000Y-104800000D03*
X95500000Y-110500000D03*
X95500000Y-85500000D03*
X110900000Y-78100000D03*
X113500000Y-81700000D03*
X130500000Y-115500000D03*
X97400002Y-102208949D03*
X105500000Y-110500000D03*
X117400000Y-79500000D03*
X100500000Y-90500000D03*
X112700000Y-100013786D03*
X113500000Y-82800000D03*
X123500000Y-103000000D03*
X125500000Y-85500000D03*
X120500000Y-75500000D03*
X105425000Y-96200000D03*
X120500000Y-115500000D03*
X113500000Y-79500000D03*
X116500000Y-87800000D03*
X121500000Y-111300000D03*
X114675000Y-81700000D03*
X108525000Y-92600000D03*
X123000000Y-101000000D03*
X95500000Y-90500000D03*
X129700000Y-104800000D03*
X124700000Y-107700000D03*
X106975000Y-92000000D03*
X120100000Y-78100000D03*
X117900000Y-96500000D03*
X130800000Y-105600000D03*
X105500000Y-85500000D03*
X125500000Y-80500000D03*
X120383246Y-92225000D03*
X130500000Y-90500000D03*
X100500000Y-115500000D03*
X114700000Y-85500000D03*
X131700000Y-104800000D03*
X110500000Y-75500000D03*
X113100000Y-97900000D03*
X115500000Y-105500000D03*
X108525000Y-91000000D03*
X110500000Y-100500000D03*
X114675000Y-80600000D03*
X105500000Y-100500000D03*
X110500000Y-85500000D03*
X100500000Y-105500000D03*
X116500000Y-85500000D03*
X117900000Y-94500000D03*
X100500000Y-100500000D03*
X125500000Y-115500000D03*
X110500000Y-105500000D03*
X135500000Y-85500000D03*
X130710387Y-97150001D03*
X109175000Y-97100000D03*
X130500000Y-85500000D03*
X118900000Y-101325000D03*
X122000000Y-102000000D03*
X130736262Y-93849999D03*
X114675000Y-82800000D03*
X95500000Y-100500000D03*
X117400000Y-82800000D03*
X117400000Y-81725000D03*
X105500000Y-75500000D03*
X125500000Y-103000000D03*
X109500000Y-113700000D03*
X95500000Y-95500000D03*
X105500000Y-105500000D03*
X111500000Y-112500000D03*
X120500000Y-80500000D03*
X135500000Y-110500000D03*
%TO.N,+5V*%
X121500000Y-112050003D03*
X124000000Y-103900000D03*
%TO.N,/USB_DN*%
X120449997Y-94800000D03*
%TO.N,+3.3VA*%
X111100000Y-97000000D03*
X125700000Y-89850000D03*
%TO.N,/USB_DP*%
X121200000Y-94800000D03*
%TO.N,Net-(J5-D+-PadA6)*%
X122300000Y-109700000D03*
%TO.N,Net-(J5-D--PadA7)*%
X120700000Y-109700000D03*
%TO.N,/NRST*%
X112500000Y-84700000D03*
X111100000Y-96200000D03*
%TO.N,/STATUS*%
X97400002Y-103808871D03*
X119799582Y-96300000D03*
%TO.N,/I2C_SDA*%
X116507512Y-99796921D03*
%TO.N,/I2C_SCL*%
X113800000Y-91100000D03*
%TO.N,/TMC_UART_RX*%
X121800000Y-91300000D03*
%TO.N,+24V*%
X130050002Y-95500000D03*
X125504412Y-101025000D03*
%TO.N,/AS5600_OUT*%
X110833006Y-97878563D03*
%TO.N,/TMC_UART_TX*%
X122549996Y-91303104D03*
%TO.N,+3V3*%
X116325000Y-81700000D03*
X110075000Y-92600000D03*
X101425000Y-103000000D03*
X118700000Y-98900000D03*
X131500000Y-102100000D03*
X129500000Y-102100000D03*
X115075000Y-100800000D03*
X115525000Y-78100000D03*
X124950003Y-91300000D03*
X132500000Y-101100000D03*
X129500000Y-101100000D03*
X118999999Y-92000000D03*
X128500000Y-103100000D03*
X131500000Y-100100000D03*
X132500000Y-103100000D03*
X112000000Y-92062500D03*
X133500000Y-101100000D03*
X116325000Y-80600000D03*
X128500000Y-100925000D03*
X133500000Y-100100000D03*
X133500000Y-102100000D03*
X131500000Y-101100000D03*
X129500000Y-103100000D03*
X116325000Y-82800000D03*
X130500000Y-101100000D03*
X132500000Y-100100000D03*
X117900000Y-85600000D03*
X132500000Y-102100000D03*
X131500000Y-103100000D03*
X129500000Y-100100000D03*
X110075000Y-91000000D03*
X130500000Y-102100000D03*
X109218750Y-98700000D03*
X130500000Y-100100000D03*
X133500000Y-103100000D03*
%TO.N,/BOOT0*%
X117700000Y-83800000D03*
X114611091Y-89488909D03*
%TO.N,/W25Q128_NRST*%
X117900000Y-86900000D03*
X115200000Y-90200000D03*
%TO.N,/JTAG_SWDIO*%
X121200000Y-93500000D03*
%TO.N,/JTAG_SWCLK*%
X118200000Y-90115687D03*
%TO.N,/TMC_NEN*%
X128175000Y-97325002D03*
X112350000Y-101400000D03*
X115000000Y-104200006D03*
%TO.N,/TMC_STDBY*%
X128300000Y-91300000D03*
%TO.N,/TMC_SPREAD*%
X119799582Y-97424999D03*
X119799582Y-99300000D03*
X124925000Y-99305653D03*
%TO.N,/TMC_MS1*%
X112850000Y-103450003D03*
X122741776Y-99855653D03*
X115000000Y-103450003D03*
%TO.N,/TMC_INDEX*%
X120499997Y-90200000D03*
X116375000Y-100543042D03*
%TO.N,/TMC_DIR*%
X127500000Y-91300000D03*
%TO.N,/TMC_STEP*%
X125700006Y-91300000D03*
%TO.N,/TMC_DIAG*%
X116203526Y-101273179D03*
X120500000Y-89449998D03*
%TO.N,/TMC_MS2*%
X121916806Y-99855653D03*
X112850000Y-102700000D03*
X115000000Y-102700000D03*
%TO.N,/FLASH_SPI_MOSI*%
X117806410Y-89406410D03*
X116200000Y-89400000D03*
%TO.N,/FLASH_SPI_NCS*%
X113100000Y-85600000D03*
X117650000Y-90625588D03*
%TD*%
D39*
%TO.N,GND*%
X108225000Y-93000000D02*
X108525000Y-93300000D01*
D40*
X117750000Y-98937500D02*
X117750000Y-99650000D01*
D39*
X126900000Y-104800000D02*
X130775000Y-104800000D01*
D40*
X120400000Y-92875000D02*
X120400000Y-92241754D01*
D39*
X130800000Y-104775000D02*
X130800000Y-105600000D01*
X111725000Y-78100000D02*
X110900000Y-78100000D01*
D40*
X118125000Y-100873696D02*
X118576304Y-101325000D01*
X113250000Y-92062500D02*
X113250000Y-93250000D01*
X113250000Y-93250000D02*
X115500000Y-95500000D01*
D39*
X108525000Y-97100000D02*
X109175000Y-97100000D01*
X106975000Y-91200000D02*
X106975000Y-92875000D01*
D40*
X114750000Y-96250000D02*
X112062500Y-96250000D01*
D39*
X106850000Y-93000000D02*
X108225000Y-93000000D01*
X131675000Y-104775000D02*
X131700000Y-104800000D01*
X113095000Y-89405000D02*
X113100000Y-89400000D01*
X97391053Y-102200000D02*
X97400002Y-102208949D01*
D40*
X117750000Y-93250000D02*
X115500000Y-95500000D01*
D39*
X106975000Y-91200000D02*
X107625000Y-91200000D01*
X96712499Y-102200000D02*
X97391053Y-102200000D01*
D40*
X115500000Y-95500000D02*
X114750000Y-96250000D01*
X117750000Y-99650000D02*
X118125000Y-100025000D01*
X117750000Y-98937500D02*
X117750000Y-97750000D01*
D39*
X108525000Y-93300000D02*
X108525000Y-90300000D01*
D40*
X120400000Y-92241754D02*
X120383246Y-92225000D01*
D39*
X119325000Y-78100000D02*
X120100000Y-78100000D01*
X111900000Y-89405000D02*
X113095000Y-89405000D01*
D40*
X118937500Y-93250000D02*
X120025000Y-93250000D01*
X118576304Y-101325000D02*
X118900000Y-101325000D01*
D39*
X117300000Y-101975000D02*
X118900000Y-101975000D01*
D40*
X118937500Y-93250000D02*
X117750000Y-93250000D01*
D39*
X118300000Y-108705000D02*
X118300000Y-107700000D01*
X114675000Y-83800000D02*
X114675000Y-79650000D01*
X124700000Y-106925000D02*
X124825000Y-106800000D01*
X130800000Y-104775000D02*
X131675000Y-104775000D01*
X130775000Y-104800000D02*
X130800000Y-104775000D01*
X124700000Y-107700000D02*
X124700000Y-106925000D01*
X107625000Y-91200000D02*
X108525000Y-90300000D01*
X106975000Y-92875000D02*
X106850000Y-93000000D01*
X105425000Y-97000000D02*
X105425000Y-95475000D01*
X124700000Y-108705000D02*
X124700000Y-107700000D01*
X105425000Y-95475000D02*
X105150000Y-95200000D01*
D40*
X120025000Y-93250000D02*
X120400000Y-92875000D01*
X118900000Y-101975000D02*
X118900000Y-101325000D01*
X117750000Y-97750000D02*
X115500000Y-95500000D01*
X118125000Y-100025000D02*
X118125000Y-100873696D01*
D39*
X125550000Y-104800000D02*
X126900000Y-104800000D01*
D40*
%TO.N,+5V*%
X119100000Y-108705000D02*
X119300000Y-108905000D01*
X123715000Y-109933529D02*
X121598526Y-112050003D01*
D39*
X124000000Y-108605000D02*
X124000000Y-104800000D01*
D40*
X119300000Y-108905000D02*
X119300000Y-109982526D01*
D39*
X119100000Y-108705000D02*
X119100000Y-108031170D01*
D40*
X121367477Y-112050003D02*
X121500000Y-112050003D01*
D39*
X124950000Y-105750000D02*
X124000000Y-104800000D01*
X126899999Y-103850000D02*
X124950000Y-103850000D01*
X123900000Y-108705000D02*
X124000000Y-108605000D01*
D40*
X123900000Y-108705000D02*
X123715000Y-108890000D01*
D39*
X119100000Y-108031170D02*
X122331170Y-104800000D01*
X122331170Y-104800000D02*
X124000000Y-104800000D01*
X124000000Y-103900000D02*
X124000000Y-104800000D01*
D40*
X121598526Y-112050003D02*
X121500000Y-112050003D01*
D39*
X124950000Y-103850000D02*
X124000000Y-104800000D01*
D40*
X119300000Y-109982526D02*
X121367477Y-112050003D01*
X123715000Y-108890000D02*
X123715000Y-109933529D01*
D39*
X126899999Y-105750000D02*
X124950000Y-105750000D01*
D40*
%TO.N,Net-(U4-VCAP_1)*%
X117250000Y-100375000D02*
X117300000Y-100425000D01*
X117250000Y-98937500D02*
X117250000Y-100375000D01*
D39*
%TO.N,/HSE_IN*%
X105425000Y-91200000D02*
X105425000Y-92725000D01*
D40*
X105800000Y-94200000D02*
X105150000Y-93550000D01*
X105150000Y-93550000D02*
X105150000Y-93000000D01*
X112062500Y-94750000D02*
X110862648Y-94750000D01*
D39*
X105425000Y-92725000D02*
X105150000Y-93000000D01*
D40*
X110862648Y-94750000D02*
X110312648Y-94200000D01*
X110312648Y-94200000D02*
X105800000Y-94200000D01*
D39*
%TO.N,Net-(C14-Pad1)*%
X106850000Y-96875000D02*
X106975000Y-97000000D01*
X108475000Y-95200000D02*
X106850000Y-95200000D01*
X106850000Y-95200000D02*
X106850000Y-96875000D01*
D40*
%TO.N,/USB_DN*%
X120399997Y-94750000D02*
X118937500Y-94750000D01*
X120449997Y-94800000D02*
X120399997Y-94750000D01*
%TO.N,+3.3VA*%
X111000000Y-97100000D02*
X111100000Y-97000000D01*
X110075000Y-97100000D02*
X111000000Y-97100000D01*
X111350000Y-96750000D02*
X111100000Y-97000000D01*
D39*
X110106250Y-98700000D02*
X110106250Y-97131250D01*
X110106250Y-97131250D02*
X110075000Y-97100000D01*
D40*
X112062500Y-96750000D02*
X111350000Y-96750000D01*
%TO.N,/USB_DP*%
X118987500Y-94200000D02*
X118937500Y-94250000D01*
X120900000Y-94200000D02*
X118987500Y-94200000D01*
X121200000Y-94500000D02*
X120900000Y-94200000D01*
X121200000Y-94800000D02*
X121200000Y-94500000D01*
%TO.N,Net-(J5-D+-PadA6)*%
X122250000Y-108705000D02*
X122250000Y-109650000D01*
X122250000Y-109650000D02*
X122300000Y-109700000D01*
X122250000Y-108022590D02*
X122250000Y-108705000D01*
X121250000Y-108705000D02*
X121250000Y-108022590D01*
X121250000Y-108022590D02*
X121517590Y-107755000D01*
X121517590Y-107755000D02*
X121982410Y-107755000D01*
X121982410Y-107755000D02*
X122250000Y-108022590D01*
%TO.N,Net-(J5-D--PadA7)*%
X121750000Y-108705000D02*
X121750000Y-109387410D01*
X121750000Y-109387410D02*
X121437410Y-109700000D01*
X120750000Y-109650000D02*
X120700000Y-109700000D01*
X120750000Y-108705000D02*
X120750000Y-109650000D01*
X121437410Y-109700000D02*
X120700000Y-109700000D01*
%TO.N,Net-(J5-CC1)*%
X123250000Y-106875000D02*
X123175000Y-106800000D01*
X120250000Y-108705001D02*
X120250000Y-108022590D01*
X123250000Y-108705000D02*
X123250000Y-106875000D01*
X120250000Y-108022590D02*
X121472590Y-106800000D01*
X121472590Y-106800000D02*
X123175000Y-106800000D01*
D41*
%TO.N,/NRST*%
X112525000Y-84675000D02*
X112500000Y-84700000D01*
X112525000Y-83800000D02*
X112525000Y-84675000D01*
D39*
X112525000Y-79650000D02*
X112525000Y-78850000D01*
X113275000Y-78100000D02*
X114675000Y-78100000D01*
X112525000Y-78850000D02*
X113275000Y-78100000D01*
X112525000Y-79650000D02*
X112525000Y-83800000D01*
D41*
X111550000Y-95750000D02*
X112062500Y-95750000D01*
X111100000Y-96200000D02*
X111550000Y-95750000D01*
D39*
%TO.N,Net-(D1-A)*%
X98287501Y-102200000D02*
X99775000Y-102200000D01*
%TO.N,Net-(D2-A)*%
X99775000Y-103800000D02*
X98287501Y-103800000D01*
D41*
%TO.N,/FLASH_SPI_CLK*%
X117250000Y-92062500D02*
X117250000Y-91681326D01*
X118300001Y-88135000D02*
X119100000Y-88135000D01*
X117100000Y-89335001D02*
X118300001Y-88135000D01*
X117250000Y-91681326D02*
X117100000Y-91531326D01*
X117100000Y-91531326D02*
X117100000Y-89335001D01*
D39*
%TO.N,/STATUS*%
X96712499Y-103800000D02*
X97391131Y-103800000D01*
X97391131Y-103800000D02*
X97400002Y-103808871D01*
D41*
X119749582Y-96250000D02*
X118937500Y-96250000D01*
X119799582Y-96300000D02*
X119749582Y-96250000D01*
D40*
%TO.N,/HSE_OUT*%
X110175000Y-95250000D02*
X110125000Y-95200000D01*
X112062500Y-95250000D02*
X110175000Y-95250000D01*
D41*
%TO.N,/I2C_SDA*%
X116750000Y-99554433D02*
X116750000Y-98937500D01*
X116507512Y-99796921D02*
X116750000Y-99554433D01*
%TO.N,/I2C_SCL*%
X113750000Y-91150000D02*
X113800000Y-91100000D01*
X113750000Y-92062500D02*
X113750000Y-91150000D01*
%TO.N,/CTRL_SPI_MISO*%
X114250000Y-100352207D02*
X114100000Y-100502207D01*
X114100000Y-108539950D02*
X110500000Y-112139950D01*
X114250000Y-98937500D02*
X114250000Y-100352207D01*
X110500000Y-112139950D02*
X110500000Y-115150000D01*
X114100000Y-100502207D02*
X114100000Y-108539950D01*
%TO.N,/TMC_UART_RX*%
X119062499Y-95374999D02*
X121402819Y-95374999D01*
X118937500Y-95250000D02*
X119062499Y-95374999D01*
X121750000Y-91350000D02*
X121800000Y-91300000D01*
X121750000Y-95027818D02*
X121750000Y-91350000D01*
X121402819Y-95374999D02*
X121750000Y-95027818D01*
%TO.N,/AS5600_OUT*%
X110999255Y-97878563D02*
X111627818Y-97250000D01*
X111627818Y-97250000D02*
X112062500Y-97250000D01*
X110833006Y-97878563D02*
X110999255Y-97878563D01*
%TO.N,/TMC_UART_TX*%
X122100000Y-91777818D02*
X122549996Y-91327822D01*
X122100000Y-95172793D02*
X122100000Y-91777818D01*
X121522793Y-95750000D02*
X122100000Y-95172793D01*
X118937500Y-95750000D02*
X121522793Y-95750000D01*
X122549996Y-91327822D02*
X122549996Y-91303104D01*
%TO.N,/CTRL_SPI_NCS*%
X113250000Y-98937500D02*
X113250000Y-100350000D01*
X113400000Y-100500000D02*
X113400000Y-108250000D01*
X113400000Y-108250000D02*
X106500000Y-115150000D01*
X113250000Y-100350000D02*
X113400000Y-100500000D01*
D40*
%TO.N,+3V3*%
X112062500Y-92125000D02*
X112000000Y-92062500D01*
X118900000Y-100425000D02*
X118900000Y-99100000D01*
X118700000Y-98900000D02*
X118287500Y-98900000D01*
D39*
X119100000Y-85595000D02*
X117905000Y-85595000D01*
D40*
X118900000Y-99100000D02*
X118700000Y-98900000D01*
X112062500Y-92750000D02*
X112062500Y-92125000D01*
X110337500Y-92062500D02*
X110075000Y-91800000D01*
X110625000Y-92750000D02*
X110075000Y-93300000D01*
D39*
X101425000Y-102200000D02*
X101425000Y-103800000D01*
D40*
X112750000Y-92062500D02*
X110337500Y-92062500D01*
D39*
X110075000Y-93300000D02*
X110075000Y-90300000D01*
X116325000Y-78100000D02*
X116325000Y-78025000D01*
D40*
X118937500Y-92750000D02*
X118937500Y-92062499D01*
D39*
X116325000Y-79650000D02*
X116325000Y-78100000D01*
D40*
X112062500Y-92750000D02*
X110625000Y-92750000D01*
X118937500Y-92062499D02*
X118999999Y-92000000D01*
D39*
X116325000Y-83800000D02*
X116325000Y-79650000D01*
X116325000Y-78100000D02*
X115525000Y-78100000D01*
D40*
X118287500Y-98900000D02*
X118250000Y-98937500D01*
D39*
X107981250Y-98700000D02*
X109218750Y-98700000D01*
X117905000Y-85595000D02*
X117900000Y-85600000D01*
D40*
X119674999Y-91325000D02*
X118999999Y-92000000D01*
X120400000Y-91325000D02*
X119674999Y-91325000D01*
D39*
X129300001Y-103850000D02*
X130175000Y-103850000D01*
X130175000Y-103850000D02*
X130800000Y-103225000D01*
D41*
%TO.N,/BOOT0*%
X114611091Y-89488909D02*
X114611091Y-90611091D01*
D39*
X118475000Y-79650000D02*
X118475000Y-78900000D01*
D41*
X117700000Y-83800000D02*
X118475000Y-83800000D01*
D39*
X118475000Y-83800000D02*
X118475000Y-79650000D01*
X118475000Y-78900000D02*
X117675000Y-78100000D01*
D41*
X114611091Y-90611091D02*
X114750000Y-90750000D01*
X114750000Y-90750000D02*
X114750000Y-92062500D01*
%TO.N,/W25Q128_NRST*%
X115250000Y-90250000D02*
X115200000Y-90200000D01*
X119065000Y-86900000D02*
X119100000Y-86865000D01*
X115250000Y-92062500D02*
X115250000Y-90250000D01*
X117900000Y-86900000D02*
X119065000Y-86900000D01*
%TO.N,/JTAG_SWDIO*%
X121200000Y-93500000D02*
X120950000Y-93750000D01*
X120950000Y-93750000D02*
X118937500Y-93750000D01*
%TO.N,/JTAG_SWCLK*%
X118200000Y-90115687D02*
X118374999Y-90290686D01*
X118374999Y-90290686D02*
X118374999Y-91937501D01*
X118374999Y-91937501D02*
X118250000Y-92062500D01*
%TO.N,/TMC_NEN*%
X128175000Y-97325002D02*
X121299996Y-104200006D01*
X112150000Y-101200000D02*
X112150000Y-99537500D01*
X121299996Y-104200006D02*
X115000000Y-104200006D01*
X112150000Y-99537500D02*
X112750000Y-98937500D01*
X112350000Y-101400000D02*
X112150000Y-101200000D01*
%TO.N,/TMC_STDBY*%
X128300000Y-91300000D02*
X127400000Y-90400000D01*
X119062499Y-96874999D02*
X118937500Y-96750000D01*
X122450000Y-95450000D02*
X121025001Y-96874999D01*
X122450000Y-92350000D02*
X122450000Y-95450000D01*
X124400000Y-90400000D02*
X122450000Y-92350000D01*
X121025001Y-96874999D02*
X119062499Y-96874999D01*
X127400000Y-90400000D02*
X124400000Y-90400000D01*
%TO.N,/FLASH_SPI_MISO*%
X116750000Y-92062500D02*
X116750000Y-89150000D01*
X116750000Y-89150000D02*
X114465000Y-86865000D01*
X114465000Y-86865000D02*
X111900000Y-86865000D01*
%TO.N,/W25Q128_NWP*%
X114035000Y-88135000D02*
X111900000Y-88135000D01*
X115750000Y-92062500D02*
X115750000Y-89850000D01*
X115750000Y-89850000D02*
X114035000Y-88135000D01*
%TO.N,/TMC_SPREAD*%
X119805235Y-99305653D02*
X124925000Y-99305653D01*
X118937500Y-97250000D02*
X119624583Y-97250000D01*
X119799582Y-99300000D02*
X119805235Y-99305653D01*
X119624583Y-97250000D02*
X119799582Y-97424999D01*
%TO.N,/TMC_MS1*%
X119147426Y-103450003D02*
X122741776Y-99855653D01*
X112150003Y-103450003D02*
X112850000Y-103450003D01*
X115000000Y-103450003D02*
X119147426Y-103450003D01*
X111375000Y-98000001D02*
X111375000Y-102675000D01*
X112062500Y-97750000D02*
X111625001Y-97750000D01*
X111375000Y-102675000D02*
X112150003Y-103450003D01*
X111625001Y-97750000D02*
X111375000Y-98000001D01*
%TO.N,/CTRL_SPI_CLK*%
X113750000Y-108394975D02*
X108500000Y-113644975D01*
X108500000Y-113644975D02*
X108500000Y-115150000D01*
X113750000Y-98937500D02*
X113750000Y-108394975D01*
%TO.N,/CTRL_SPI_MOSI*%
X114450000Y-108684925D02*
X112500000Y-110634925D01*
X112500000Y-110634925D02*
X112500000Y-115150000D01*
X114750000Y-98937500D02*
X114750000Y-100347182D01*
X114750000Y-100347182D02*
X114450000Y-100647182D01*
X114450000Y-100647182D02*
X114450000Y-108684925D01*
%TO.N,/TMC_INDEX*%
X115750000Y-99918042D02*
X115750000Y-98937500D01*
X116375000Y-100543042D02*
X115750000Y-99918042D01*
%TO.N,/TMC_DIR*%
X118937500Y-97750000D02*
X119346765Y-97750000D01*
X119571764Y-97974999D02*
X120419975Y-97974999D01*
X126950000Y-90750000D02*
X127500000Y-91300000D01*
X122800000Y-92494974D02*
X124544974Y-90750000D01*
X120419975Y-97974999D02*
X122800000Y-95594974D01*
X124544974Y-90750000D02*
X126950000Y-90750000D01*
X119346765Y-97750000D02*
X119571764Y-97974999D01*
X122800000Y-95594974D02*
X122800000Y-92494974D01*
%TO.N,/TMC_STEP*%
X119037500Y-98350000D02*
X120539949Y-98350000D01*
X125700006Y-91327815D02*
X125700006Y-91300000D01*
X123150000Y-95739949D02*
X123150000Y-93877821D01*
X118937500Y-98250000D02*
X119037500Y-98350000D01*
X123150000Y-93877821D02*
X125700006Y-91327815D01*
X120539949Y-98350000D02*
X123150000Y-95739949D01*
%TO.N,/TMC_DIAG*%
X116203526Y-101273179D02*
X116203526Y-101149386D01*
X116203526Y-101149386D02*
X115250000Y-100195860D01*
X115250000Y-100195860D02*
X115250000Y-98937500D01*
%TO.N,/TMC_MS2*%
X112062500Y-98250000D02*
X111800000Y-98512500D01*
X115000000Y-102700000D02*
X119327986Y-102700000D01*
X111800000Y-101650000D02*
X112850000Y-102700000D01*
X111800000Y-98512500D02*
X111800000Y-101650000D01*
X119327986Y-102700000D02*
X121916806Y-100111180D01*
X121916806Y-100111180D02*
X121916806Y-99855653D01*
%TO.N,/FLASH_SPI_MOSI*%
X116250000Y-92062500D02*
X116250000Y-89450000D01*
X117806410Y-89406410D02*
X119098590Y-89406410D01*
X119098590Y-89406410D02*
X119100000Y-89405000D01*
X116250000Y-89450000D02*
X116200000Y-89400000D01*
%TO.N,/FLASH_SPI_NCS*%
X117650000Y-90625588D02*
X117750000Y-90725588D01*
X117750000Y-90725588D02*
X117750000Y-92062500D01*
X111905000Y-85600000D02*
X111900000Y-85595000D01*
X113100000Y-85600000D02*
X111905000Y-85600000D01*
%TD*%
%TA.AperFunction,Conductor*%
%TO.N,GND*%
G36*
X114184850Y-74869407D02*
G01*
X114220814Y-74918907D01*
X114220814Y-74980093D01*
X114184850Y-75029593D01*
X114166927Y-75039940D01*
X114151260Y-75046915D01*
X114059845Y-75087615D01*
X114059842Y-75087617D01*
X113910948Y-75195794D01*
X113787803Y-75332562D01*
X113787803Y-75332563D01*
X113695790Y-75491931D01*
X113695784Y-75491945D01*
X113638916Y-75666965D01*
X113619678Y-75850000D01*
X113638916Y-76033034D01*
X113695784Y-76208054D01*
X113695790Y-76208068D01*
X113768893Y-76334684D01*
X113787805Y-76367440D01*
X113910950Y-76504207D01*
X114059839Y-76612381D01*
X114059843Y-76612383D01*
X114059845Y-76612384D01*
X114115485Y-76637156D01*
X114227966Y-76687236D01*
X114407981Y-76725500D01*
X114407983Y-76725500D01*
X114592017Y-76725500D01*
X114592019Y-76725500D01*
X114772034Y-76687236D01*
X114940161Y-76612381D01*
X115089050Y-76504207D01*
X115212195Y-76367440D01*
X115302291Y-76211390D01*
X115304209Y-76208068D01*
X115304209Y-76208066D01*
X115304214Y-76208059D01*
X115361085Y-76033029D01*
X115380322Y-75850000D01*
X115361085Y-75666971D01*
X115304214Y-75491941D01*
X115304211Y-75491936D01*
X115304209Y-75491931D01*
X115256935Y-75410052D01*
X115212195Y-75332560D01*
X115089050Y-75195793D01*
X114940161Y-75087619D01*
X114940157Y-75087617D01*
X114940154Y-75087615D01*
X114855016Y-75049710D01*
X114833073Y-75039940D01*
X114787605Y-74999000D01*
X114774883Y-74939152D01*
X114799769Y-74883256D01*
X114852757Y-74852663D01*
X114873341Y-74850500D01*
X116126658Y-74850500D01*
X116184849Y-74869407D01*
X116220813Y-74918907D01*
X116220813Y-74980093D01*
X116184849Y-75029593D01*
X116166926Y-75039940D01*
X116151259Y-75046915D01*
X116059844Y-75087615D01*
X116059841Y-75087617D01*
X115910947Y-75195794D01*
X115787802Y-75332562D01*
X115787802Y-75332563D01*
X115695789Y-75491931D01*
X115695783Y-75491945D01*
X115638915Y-75666965D01*
X115619677Y-75850000D01*
X115638915Y-76033034D01*
X115695783Y-76208054D01*
X115695789Y-76208068D01*
X115768892Y-76334684D01*
X115787804Y-76367440D01*
X115910949Y-76504207D01*
X116059838Y-76612381D01*
X116059842Y-76612383D01*
X116059844Y-76612384D01*
X116115484Y-76637156D01*
X116227965Y-76687236D01*
X116407980Y-76725500D01*
X116407982Y-76725500D01*
X116592016Y-76725500D01*
X116592018Y-76725500D01*
X116772033Y-76687236D01*
X116940160Y-76612381D01*
X117089049Y-76504207D01*
X117212194Y-76367440D01*
X117302290Y-76211390D01*
X117304208Y-76208068D01*
X117304208Y-76208066D01*
X117304213Y-76208059D01*
X117361084Y-76033029D01*
X117380321Y-75850000D01*
X117361084Y-75666971D01*
X117304213Y-75491941D01*
X117304210Y-75491936D01*
X117304208Y-75491931D01*
X117256934Y-75410052D01*
X117212194Y-75332560D01*
X117089049Y-75195793D01*
X116940160Y-75087619D01*
X116940156Y-75087617D01*
X116940153Y-75087615D01*
X116855015Y-75049710D01*
X116833072Y-75039940D01*
X116787604Y-74999000D01*
X116774882Y-74939152D01*
X116799768Y-74883256D01*
X116852756Y-74852663D01*
X116873340Y-74850500D01*
X117623400Y-74850500D01*
X117681591Y-74869407D01*
X117717555Y-74918907D01*
X117717555Y-74980093D01*
X117686552Y-75022763D01*
X117687343Y-75023554D01*
X117682353Y-75028543D01*
X117681591Y-75029593D01*
X117680644Y-75030252D01*
X117680445Y-75030451D01*
X117636134Y-75096766D01*
X117636132Y-75096772D01*
X117624501Y-75155241D01*
X117624500Y-75155253D01*
X117624500Y-76544746D01*
X117624501Y-76544758D01*
X117636132Y-76603227D01*
X117636134Y-76603233D01*
X117642249Y-76612384D01*
X117680448Y-76669552D01*
X117746769Y-76713867D01*
X117791231Y-76722711D01*
X117805241Y-76725498D01*
X117805246Y-76725498D01*
X117805252Y-76725500D01*
X117805253Y-76725500D01*
X119194747Y-76725500D01*
X119194748Y-76725500D01*
X119253231Y-76713867D01*
X119319552Y-76669552D01*
X119363867Y-76603231D01*
X119375500Y-76544748D01*
X119375500Y-75155252D01*
X119363867Y-75096769D01*
X119319552Y-75030448D01*
X119319548Y-75030445D01*
X119312657Y-75023554D01*
X119314014Y-75022196D01*
X119283718Y-74983764D01*
X119281317Y-74922626D01*
X119315311Y-74871752D01*
X119372715Y-74850576D01*
X119376600Y-74850500D01*
X130934108Y-74850500D01*
X130997964Y-74850500D01*
X131002055Y-74850585D01*
X131421154Y-74867918D01*
X131429286Y-74868592D01*
X131843533Y-74920227D01*
X131851574Y-74921569D01*
X132260134Y-75007235D01*
X132268046Y-75009239D01*
X132531304Y-75087615D01*
X132668106Y-75128343D01*
X132675845Y-75130999D01*
X132766012Y-75166182D01*
X133064726Y-75282740D01*
X133072196Y-75286016D01*
X133447235Y-75469362D01*
X133454399Y-75473240D01*
X133779512Y-75666965D01*
X133812989Y-75686913D01*
X133819839Y-75691388D01*
X134159557Y-75933943D01*
X134166014Y-75938969D01*
X134484531Y-76208739D01*
X134490551Y-76214280D01*
X134785719Y-76509448D01*
X134791260Y-76515468D01*
X135061030Y-76833985D01*
X135066056Y-76840442D01*
X135308611Y-77180160D01*
X135313086Y-77187010D01*
X135500463Y-77501470D01*
X135526750Y-77545584D01*
X135530641Y-77552773D01*
X135624716Y-77745206D01*
X135713977Y-77927791D01*
X135717264Y-77935285D01*
X135869000Y-78324154D01*
X135871656Y-78331893D01*
X135990757Y-78731943D01*
X135992766Y-78739875D01*
X136078427Y-79148410D01*
X136079774Y-79156481D01*
X136131406Y-79570702D01*
X136132081Y-79578856D01*
X136149415Y-79997944D01*
X136149500Y-80002035D01*
X136149500Y-90630709D01*
X136130593Y-90688900D01*
X136081093Y-90724864D01*
X136019907Y-90724864D01*
X135995500Y-90713025D01*
X135954705Y-90685767D01*
X135760798Y-90605448D01*
X135760792Y-90605446D01*
X135554945Y-90564500D01*
X135554943Y-90564500D01*
X135045057Y-90564500D01*
X135045054Y-90564500D01*
X134839207Y-90605446D01*
X134839201Y-90605448D01*
X134645297Y-90685766D01*
X134470787Y-90802369D01*
X134322369Y-90950787D01*
X134205766Y-91125297D01*
X134125448Y-91319201D01*
X134125446Y-91319207D01*
X134084500Y-91525054D01*
X134084500Y-91734945D01*
X134125446Y-91940792D01*
X134125448Y-91940798D01*
X134205766Y-92134702D01*
X134322369Y-92309212D01*
X134322372Y-92309216D01*
X134470784Y-92457628D01*
X134645297Y-92574233D01*
X134839205Y-92654553D01*
X135045057Y-92695500D01*
X135045058Y-92695500D01*
X135554942Y-92695500D01*
X135554943Y-92695500D01*
X135760795Y-92654553D01*
X135954703Y-92574233D01*
X135995499Y-92546973D01*
X136054387Y-92530366D01*
X136111790Y-92551544D01*
X136145783Y-92602418D01*
X136149500Y-92629290D01*
X136149500Y-93170710D01*
X136130593Y-93228901D01*
X136081093Y-93264865D01*
X136019907Y-93264865D01*
X135995500Y-93253026D01*
X135954705Y-93225768D01*
X135760798Y-93145449D01*
X135760792Y-93145447D01*
X135554945Y-93104501D01*
X135554943Y-93104501D01*
X135045057Y-93104501D01*
X135045054Y-93104501D01*
X134839207Y-93145447D01*
X134839201Y-93145449D01*
X134645297Y-93225767D01*
X134470787Y-93342370D01*
X134322369Y-93490788D01*
X134205766Y-93665298D01*
X134125448Y-93859202D01*
X134125446Y-93859208D01*
X134084500Y-94065055D01*
X134084500Y-94066220D01*
X134084336Y-94066724D01*
X134084024Y-94069894D01*
X134083328Y-94069825D01*
X134065593Y-94124411D01*
X134016093Y-94160375D01*
X133954907Y-94160375D01*
X133905407Y-94124411D01*
X133888402Y-94085535D01*
X133880001Y-94043300D01*
X133861658Y-93951087D01*
X133805084Y-93814505D01*
X133722951Y-93691584D01*
X133618416Y-93587049D01*
X133495495Y-93504916D01*
X133493011Y-93503887D01*
X133358914Y-93448342D01*
X133213918Y-93419500D01*
X133066082Y-93419500D01*
X133066081Y-93419500D01*
X132921085Y-93448342D01*
X132784506Y-93504915D01*
X132661585Y-93587048D01*
X132557048Y-93691585D01*
X132474915Y-93814506D01*
X132418342Y-93951085D01*
X132389500Y-94096081D01*
X132389500Y-94243918D01*
X132418342Y-94388914D01*
X132474504Y-94524501D01*
X132474916Y-94525495D01*
X132557049Y-94648416D01*
X132661584Y-94752951D01*
X132784505Y-94835084D01*
X132921087Y-94891658D01*
X133066082Y-94920500D01*
X133066083Y-94920500D01*
X133213917Y-94920500D01*
X133213918Y-94920500D01*
X133358913Y-94891658D01*
X133495495Y-94835084D01*
X133618416Y-94752951D01*
X133722951Y-94648416D01*
X133805084Y-94525495D01*
X133861658Y-94388913D01*
X133888402Y-94254464D01*
X133918299Y-94201081D01*
X133973864Y-94175465D01*
X134033874Y-94187402D01*
X134075406Y-94232332D01*
X134083701Y-94270139D01*
X134084024Y-94270108D01*
X134084292Y-94272831D01*
X134084500Y-94273779D01*
X134084500Y-94274946D01*
X134125446Y-94480793D01*
X134125448Y-94480799D01*
X134205766Y-94674703D01*
X134315142Y-94838397D01*
X134322372Y-94849217D01*
X134470784Y-94997629D01*
X134645297Y-95114234D01*
X134839205Y-95194554D01*
X135045057Y-95235501D01*
X135045058Y-95235501D01*
X135554942Y-95235501D01*
X135554943Y-95235501D01*
X135760795Y-95194554D01*
X135954703Y-95114234D01*
X135995499Y-95086974D01*
X136054387Y-95070367D01*
X136111790Y-95091545D01*
X136145783Y-95142419D01*
X136149500Y-95169291D01*
X136149500Y-95710709D01*
X136130593Y-95768900D01*
X136081093Y-95804864D01*
X136019907Y-95804864D01*
X135995500Y-95793025D01*
X135954705Y-95765767D01*
X135760798Y-95685448D01*
X135760792Y-95685446D01*
X135554945Y-95644500D01*
X135554943Y-95644500D01*
X135045057Y-95644500D01*
X135045054Y-95644500D01*
X134839207Y-95685446D01*
X134839201Y-95685448D01*
X134645297Y-95765766D01*
X134470787Y-95882369D01*
X134322369Y-96030787D01*
X134205766Y-96205297D01*
X134125448Y-96399201D01*
X134125446Y-96399207D01*
X134084500Y-96605054D01*
X134084500Y-96814945D01*
X134125446Y-97020792D01*
X134125448Y-97020798D01*
X134205766Y-97214702D01*
X134318545Y-97383489D01*
X134322372Y-97389216D01*
X134470784Y-97537628D01*
X134645297Y-97654233D01*
X134839205Y-97734553D01*
X135045057Y-97775500D01*
X135045058Y-97775500D01*
X135554942Y-97775500D01*
X135554943Y-97775500D01*
X135760795Y-97734553D01*
X135954703Y-97654233D01*
X135995499Y-97626973D01*
X136054387Y-97610366D01*
X136111790Y-97631544D01*
X136145783Y-97682418D01*
X136149500Y-97709290D01*
X136149500Y-98085500D01*
X136130593Y-98143691D01*
X136081093Y-98179655D01*
X136050500Y-98184500D01*
X134265252Y-98184500D01*
X134265251Y-98184500D01*
X134265241Y-98184501D01*
X134206772Y-98196132D01*
X134206766Y-98196134D01*
X134140451Y-98240445D01*
X134140445Y-98240451D01*
X134096134Y-98306766D01*
X134096132Y-98306772D01*
X134084501Y-98365241D01*
X134084500Y-98365253D01*
X134084500Y-99107784D01*
X134065593Y-99165975D01*
X134016093Y-99201939D01*
X133968557Y-99203819D01*
X133968344Y-99205165D01*
X133901003Y-99194500D01*
X133901000Y-99194500D01*
X127799000Y-99194500D01*
X127766856Y-99197030D01*
X127736206Y-99201883D01*
X127731718Y-99202646D01*
X127731713Y-99202647D01*
X127647617Y-99238591D01*
X127598118Y-99274555D01*
X127570372Y-99298797D01*
X127523464Y-99377307D01*
X127523462Y-99377310D01*
X127504556Y-99435499D01*
X127494500Y-99498996D01*
X127494500Y-103288629D01*
X127475593Y-103346820D01*
X127426093Y-103382784D01*
X127376188Y-103385726D01*
X127319747Y-103374500D01*
X126480251Y-103374500D01*
X126480250Y-103374500D01*
X126480240Y-103374501D01*
X126421771Y-103386132D01*
X126421769Y-103386132D01*
X126421768Y-103386133D01*
X126421767Y-103386133D01*
X126412756Y-103389866D01*
X126411722Y-103387369D01*
X126371731Y-103399500D01*
X124890691Y-103399500D01*
X124845508Y-103411606D01*
X124800325Y-103423713D01*
X124800324Y-103423712D01*
X124776112Y-103430201D01*
X124776109Y-103430202D01*
X124673390Y-103489507D01*
X124673385Y-103489511D01*
X124552046Y-103610850D01*
X124497530Y-103638627D01*
X124437098Y-103629055D01*
X124407225Y-103605679D01*
X124331128Y-103517857D01*
X124331127Y-103517856D01*
X124331126Y-103517855D01*
X124210057Y-103440049D01*
X124210054Y-103440047D01*
X124210053Y-103440047D01*
X124210050Y-103440046D01*
X124071964Y-103399500D01*
X124071961Y-103399500D01*
X123928039Y-103399500D01*
X123928035Y-103399500D01*
X123789949Y-103440046D01*
X123789942Y-103440049D01*
X123668873Y-103517855D01*
X123574622Y-103626628D01*
X123514834Y-103757543D01*
X123494353Y-103899997D01*
X123494353Y-103900002D01*
X123514834Y-104042456D01*
X123538310Y-104093860D01*
X123545285Y-104154647D01*
X123518261Y-104204990D01*
X123426471Y-104296780D01*
X123421890Y-104303086D01*
X123420512Y-104302084D01*
X123383886Y-104338710D01*
X123338942Y-104349500D01*
X122271861Y-104349500D01*
X122227420Y-104361408D01*
X122157282Y-104380201D01*
X122117847Y-104402970D01*
X122117846Y-104402969D01*
X122054557Y-104439510D01*
X118739507Y-107754560D01*
X118680202Y-107857279D01*
X118680201Y-107857282D01*
X118673712Y-107881494D01*
X118673713Y-107881495D01*
X118649500Y-107971861D01*
X118649500Y-107998731D01*
X118639441Y-108042211D01*
X118609427Y-108103604D01*
X118606233Y-108125529D01*
X118602009Y-108154524D01*
X118599500Y-108171743D01*
X118599500Y-109227810D01*
X118580593Y-109286001D01*
X118531093Y-109321965D01*
X118526123Y-109323437D01*
X118407164Y-109355312D01*
X118287335Y-109424495D01*
X118189495Y-109522335D01*
X118120312Y-109642164D01*
X118084500Y-109775817D01*
X118084500Y-109914183D01*
X118120312Y-110047836D01*
X118189495Y-110167665D01*
X118287335Y-110265505D01*
X118407164Y-110334688D01*
X118540817Y-110370500D01*
X118540819Y-110370500D01*
X118679181Y-110370500D01*
X118679183Y-110370500D01*
X118812836Y-110334688D01*
X118932665Y-110265505D01*
X118939975Y-110258194D01*
X118994490Y-110230416D01*
X119054922Y-110239984D01*
X119079981Y-110258189D01*
X120063446Y-111241654D01*
X121002697Y-112180905D01*
X121022746Y-112209783D01*
X121074621Y-112323373D01*
X121074622Y-112323374D01*
X121074623Y-112323376D01*
X121115409Y-112370446D01*
X121168873Y-112432147D01*
X121289942Y-112509953D01*
X121289947Y-112509956D01*
X121390396Y-112539450D01*
X121428035Y-112550502D01*
X121428036Y-112550502D01*
X121428039Y-112550503D01*
X121428041Y-112550503D01*
X121571959Y-112550503D01*
X121571961Y-112550503D01*
X121710053Y-112509956D01*
X121831128Y-112432146D01*
X121925377Y-112323376D01*
X121985165Y-112192460D01*
X121986085Y-112186057D01*
X122013077Y-112131148D01*
X122014011Y-112130198D01*
X123903018Y-110241191D01*
X123957533Y-110213416D01*
X124017965Y-110222987D01*
X124043020Y-110241190D01*
X124067335Y-110265505D01*
X124187164Y-110334688D01*
X124320817Y-110370500D01*
X124320819Y-110370500D01*
X124459181Y-110370500D01*
X124459183Y-110370500D01*
X124592836Y-110334688D01*
X124712665Y-110265505D01*
X124810505Y-110167665D01*
X124879688Y-110047836D01*
X124915500Y-109914183D01*
X124915500Y-109775817D01*
X124879688Y-109642164D01*
X124810505Y-109522335D01*
X124712665Y-109424495D01*
X124592836Y-109355312D01*
X124527774Y-109337878D01*
X124473877Y-109323437D01*
X124422562Y-109290112D01*
X124400636Y-109232991D01*
X124400500Y-109227810D01*
X124400500Y-108838840D01*
X124413764Y-108789339D01*
X124414420Y-108788201D01*
X124419799Y-108778886D01*
X124433969Y-108726004D01*
X125119500Y-108726004D01*
X125119500Y-109963995D01*
X125146420Y-110099327D01*
X125146420Y-110099329D01*
X125199222Y-110226806D01*
X125199228Y-110226817D01*
X125275885Y-110341541D01*
X125373458Y-110439114D01*
X125488182Y-110515771D01*
X125488193Y-110515777D01*
X125535283Y-110535282D01*
X125615672Y-110568580D01*
X125751007Y-110595500D01*
X125751008Y-110595500D01*
X125888992Y-110595500D01*
X125888993Y-110595500D01*
X126024328Y-110568580D01*
X126151811Y-110515775D01*
X126266542Y-110439114D01*
X126364114Y-110341542D01*
X126440775Y-110226811D01*
X126493580Y-110099328D01*
X126520500Y-109963993D01*
X126520500Y-108726007D01*
X126493580Y-108590672D01*
X126440775Y-108463189D01*
X126440774Y-108463187D01*
X126440771Y-108463182D01*
X126364114Y-108348458D01*
X126266541Y-108250885D01*
X126151817Y-108174228D01*
X126151806Y-108174222D01*
X126024328Y-108121420D01*
X125888995Y-108094500D01*
X125888993Y-108094500D01*
X125751007Y-108094500D01*
X125751004Y-108094500D01*
X125615672Y-108121420D01*
X125615670Y-108121420D01*
X125488193Y-108174222D01*
X125488182Y-108174228D01*
X125373458Y-108250885D01*
X125275885Y-108348458D01*
X125199228Y-108463182D01*
X125199222Y-108463193D01*
X125146420Y-108590670D01*
X125146420Y-108590672D01*
X125119500Y-108726004D01*
X124433969Y-108726004D01*
X124450500Y-108664309D01*
X124450500Y-106126610D01*
X124469407Y-106068419D01*
X124518907Y-106032455D01*
X124580093Y-106032455D01*
X124619501Y-106056604D01*
X124673386Y-106110489D01*
X124673388Y-106110490D01*
X124673390Y-106110492D01*
X124776107Y-106169796D01*
X124776109Y-106169797D01*
X124776113Y-106169799D01*
X124800322Y-106176284D01*
X124800325Y-106176287D01*
X124800326Y-106176286D01*
X124890688Y-106200499D01*
X124890690Y-106200500D01*
X124890691Y-106200500D01*
X126371731Y-106200500D01*
X126411722Y-106212630D01*
X126412756Y-106210134D01*
X126421763Y-106213863D01*
X126421768Y-106213867D01*
X126466230Y-106222711D01*
X126480240Y-106225498D01*
X126480245Y-106225498D01*
X126480251Y-106225500D01*
X126480252Y-106225500D01*
X127319746Y-106225500D01*
X127319747Y-106225500D01*
X127378230Y-106213867D01*
X127444551Y-106169552D01*
X127488866Y-106103231D01*
X127500499Y-106044748D01*
X127500499Y-105455253D01*
X128699501Y-105455253D01*
X128699501Y-106044746D01*
X128699502Y-106044758D01*
X128711133Y-106103227D01*
X128711135Y-106103233D01*
X128735271Y-106139354D01*
X128755449Y-106169552D01*
X128821770Y-106213867D01*
X128866232Y-106222711D01*
X128880242Y-106225498D01*
X128880247Y-106225498D01*
X128880253Y-106225500D01*
X128880254Y-106225500D01*
X129719748Y-106225500D01*
X129719749Y-106225500D01*
X129778232Y-106213867D01*
X129844553Y-106169552D01*
X129888868Y-106103231D01*
X129900501Y-106044748D01*
X129900501Y-105455252D01*
X129888868Y-105396769D01*
X129844553Y-105330448D01*
X129844549Y-105330445D01*
X129778234Y-105286134D01*
X129778232Y-105286133D01*
X129778229Y-105286132D01*
X129778228Y-105286132D01*
X129719759Y-105274501D01*
X129719749Y-105274500D01*
X128880253Y-105274500D01*
X128880252Y-105274500D01*
X128880242Y-105274501D01*
X128821773Y-105286132D01*
X128821767Y-105286134D01*
X128755452Y-105330445D01*
X128755446Y-105330451D01*
X128711135Y-105396766D01*
X128711133Y-105396772D01*
X128699502Y-105455241D01*
X128699501Y-105455253D01*
X127500499Y-105455253D01*
X127500499Y-105455252D01*
X127488866Y-105396769D01*
X127444551Y-105330448D01*
X127444547Y-105330445D01*
X127378232Y-105286134D01*
X127378230Y-105286133D01*
X127378227Y-105286132D01*
X127378226Y-105286132D01*
X127319757Y-105274501D01*
X127319747Y-105274500D01*
X126480251Y-105274500D01*
X126480250Y-105274500D01*
X126480240Y-105274501D01*
X126421771Y-105286132D01*
X126421769Y-105286132D01*
X126421768Y-105286133D01*
X126421767Y-105286133D01*
X126412756Y-105289866D01*
X126411722Y-105287369D01*
X126371731Y-105299500D01*
X125177611Y-105299500D01*
X125119420Y-105280593D01*
X125107607Y-105270504D01*
X124707107Y-104870004D01*
X124679330Y-104815487D01*
X124688901Y-104755055D01*
X124707107Y-104729996D01*
X125107607Y-104329496D01*
X125162124Y-104301719D01*
X125177611Y-104300500D01*
X126371731Y-104300500D01*
X126411722Y-104312630D01*
X126412756Y-104310134D01*
X126421763Y-104313863D01*
X126421768Y-104313867D01*
X126466230Y-104322711D01*
X126480240Y-104325498D01*
X126480245Y-104325498D01*
X126480251Y-104325500D01*
X126480252Y-104325500D01*
X127319746Y-104325500D01*
X127319747Y-104325500D01*
X127378230Y-104313867D01*
X127437113Y-104274521D01*
X127495997Y-104257914D01*
X127553401Y-104279091D01*
X127572200Y-104298641D01*
X127573134Y-104299926D01*
X127574556Y-104301883D01*
X127598797Y-104329628D01*
X127677307Y-104376536D01*
X127735498Y-104395443D01*
X127747552Y-104397352D01*
X127798996Y-104405500D01*
X127799000Y-104405500D01*
X128300994Y-104405500D01*
X128301001Y-104405500D01*
X128333145Y-104402970D01*
X128363738Y-104398125D01*
X128363749Y-104398123D01*
X128363794Y-104398116D01*
X128368282Y-104397353D01*
X128368281Y-104397353D01*
X128368288Y-104397352D01*
X128452384Y-104361408D01*
X128501884Y-104325444D01*
X128501888Y-104325439D01*
X128503309Y-104324408D01*
X128561500Y-104305500D01*
X128781878Y-104305500D01*
X128819760Y-104313034D01*
X128821765Y-104313863D01*
X128821770Y-104313867D01*
X128866232Y-104322711D01*
X128880242Y-104325498D01*
X128880247Y-104325498D01*
X128880253Y-104325500D01*
X128880254Y-104325500D01*
X129719748Y-104325500D01*
X129719749Y-104325500D01*
X129778232Y-104313867D01*
X129778238Y-104313862D01*
X129787244Y-104310134D01*
X129788277Y-104312630D01*
X129828269Y-104300500D01*
X130234309Y-104300500D01*
X130324669Y-104276287D01*
X130324672Y-104276287D01*
X130337903Y-104272741D01*
X130348887Y-104269799D01*
X130451614Y-104210489D01*
X130680859Y-103981244D01*
X130757608Y-103904496D01*
X130812124Y-103876719D01*
X130827611Y-103875500D01*
X131083490Y-103875500D01*
X131119297Y-103869828D01*
X131171835Y-103861507D01*
X131232266Y-103871078D01*
X131275531Y-103914342D01*
X131285103Y-103974774D01*
X131283840Y-103981317D01*
X131263506Y-104070407D01*
X131263506Y-104131610D01*
X131266808Y-104168282D01*
X131266808Y-104168283D01*
X131266809Y-104168287D01*
X131301948Y-104250500D01*
X131302754Y-104252385D01*
X131315407Y-104269800D01*
X131338717Y-104301883D01*
X131362958Y-104329628D01*
X131441468Y-104376536D01*
X131499659Y-104395443D01*
X131511713Y-104397352D01*
X131563157Y-104405500D01*
X131563161Y-104405500D01*
X133900993Y-104405500D01*
X133901000Y-104405500D01*
X133933144Y-104402970D01*
X133963737Y-104398125D01*
X133963748Y-104398123D01*
X133963793Y-104398116D01*
X133968281Y-104397353D01*
X133968280Y-104397353D01*
X133968287Y-104397352D01*
X134052383Y-104361408D01*
X134101883Y-104325444D01*
X134129628Y-104301203D01*
X134176536Y-104222693D01*
X134195443Y-104164502D01*
X134200655Y-104131593D01*
X134205500Y-104101003D01*
X134205500Y-100414500D01*
X134224407Y-100356309D01*
X134273907Y-100320345D01*
X134304500Y-100315500D01*
X136050500Y-100315500D01*
X136108691Y-100334407D01*
X136144655Y-100383907D01*
X136149500Y-100414500D01*
X136149500Y-110997964D01*
X136149415Y-111002055D01*
X136132081Y-111421143D01*
X136131406Y-111429297D01*
X136079774Y-111843518D01*
X136078427Y-111851589D01*
X135992766Y-112260124D01*
X135990757Y-112268056D01*
X135871656Y-112668106D01*
X135869000Y-112675845D01*
X135717264Y-113064714D01*
X135713977Y-113072208D01*
X135530645Y-113447219D01*
X135526750Y-113454415D01*
X135313086Y-113812989D01*
X135308611Y-113819839D01*
X135066056Y-114159557D01*
X135061030Y-114166014D01*
X134791260Y-114484531D01*
X134785719Y-114490551D01*
X134490551Y-114785719D01*
X134484531Y-114791260D01*
X134166014Y-115061030D01*
X134159557Y-115066056D01*
X133819839Y-115308611D01*
X133812989Y-115313086D01*
X133454415Y-115526750D01*
X133447219Y-115530645D01*
X133072208Y-115713977D01*
X133064714Y-115717264D01*
X132675845Y-115869000D01*
X132668106Y-115871656D01*
X132268056Y-115990757D01*
X132260124Y-115992766D01*
X131851589Y-116078427D01*
X131843518Y-116079774D01*
X131429297Y-116131406D01*
X131421143Y-116132081D01*
X131002055Y-116149415D01*
X130997964Y-116149500D01*
X115376600Y-116149500D01*
X115318409Y-116130593D01*
X115282445Y-116081093D01*
X115282445Y-116019907D01*
X115313447Y-115977236D01*
X115312657Y-115976446D01*
X115317646Y-115971456D01*
X115318409Y-115970407D01*
X115319355Y-115969747D01*
X115319545Y-115969556D01*
X115319552Y-115969552D01*
X115363867Y-115903231D01*
X115375500Y-115844748D01*
X115375500Y-114455252D01*
X115363867Y-114396769D01*
X115319552Y-114330448D01*
X115316321Y-114328289D01*
X115253233Y-114286134D01*
X115253231Y-114286133D01*
X115253228Y-114286132D01*
X115253227Y-114286132D01*
X115194758Y-114274501D01*
X115194748Y-114274500D01*
X113805252Y-114274500D01*
X113805251Y-114274500D01*
X113805241Y-114274501D01*
X113746772Y-114286132D01*
X113746766Y-114286134D01*
X113680451Y-114330445D01*
X113680445Y-114330451D01*
X113636134Y-114396766D01*
X113636132Y-114396772D01*
X113624501Y-114455241D01*
X113624500Y-114455253D01*
X113624500Y-115844746D01*
X113624501Y-115844758D01*
X113636132Y-115903227D01*
X113636134Y-115903233D01*
X113642249Y-115912384D01*
X113680448Y-115969552D01*
X113680451Y-115969554D01*
X113687343Y-115976446D01*
X113685985Y-115977803D01*
X113716282Y-116016236D01*
X113718683Y-116077374D01*
X113684689Y-116128248D01*
X113627285Y-116149424D01*
X113623400Y-116149500D01*
X112873340Y-116149500D01*
X112815149Y-116130593D01*
X112779185Y-116081093D01*
X112779185Y-116019907D01*
X112815149Y-115970407D01*
X112833071Y-115960059D01*
X112940160Y-115912381D01*
X113089049Y-115804207D01*
X113212194Y-115667440D01*
X113304213Y-115508059D01*
X113361084Y-115333029D01*
X113380321Y-115150000D01*
X113361084Y-114966971D01*
X113304213Y-114791941D01*
X113304210Y-114791936D01*
X113304208Y-114791931D01*
X113256934Y-114710052D01*
X113212194Y-114632560D01*
X113089049Y-114495793D01*
X112940160Y-114387619D01*
X112940156Y-114387617D01*
X112940152Y-114387615D01*
X112859233Y-114351587D01*
X112813763Y-114310646D01*
X112800500Y-114261146D01*
X112800500Y-113156004D01*
X116479500Y-113156004D01*
X116479500Y-113156007D01*
X116479500Y-113893993D01*
X116505811Y-114026268D01*
X116506420Y-114029327D01*
X116506420Y-114029329D01*
X116559222Y-114156806D01*
X116559228Y-114156817D01*
X116635885Y-114271541D01*
X116733458Y-114369114D01*
X116848182Y-114445771D01*
X116848193Y-114445777D01*
X116871071Y-114455253D01*
X116975672Y-114498580D01*
X117111007Y-114525500D01*
X117111008Y-114525500D01*
X117248992Y-114525500D01*
X117248993Y-114525500D01*
X117384328Y-114498580D01*
X117511811Y-114445775D01*
X117626542Y-114369114D01*
X117724114Y-114271542D01*
X117800775Y-114156811D01*
X117853580Y-114029328D01*
X117880500Y-113893993D01*
X117880500Y-113156007D01*
X117880499Y-113156004D01*
X125119500Y-113156004D01*
X125119500Y-113156007D01*
X125119500Y-113893993D01*
X125145811Y-114026268D01*
X125146420Y-114029327D01*
X125146420Y-114029329D01*
X125199222Y-114156806D01*
X125199228Y-114156817D01*
X125275885Y-114271541D01*
X125373458Y-114369114D01*
X125488182Y-114445771D01*
X125488193Y-114445777D01*
X125511071Y-114455253D01*
X125615672Y-114498580D01*
X125751007Y-114525500D01*
X125751008Y-114525500D01*
X125888992Y-114525500D01*
X125888993Y-114525500D01*
X126024328Y-114498580D01*
X126151811Y-114445775D01*
X126266542Y-114369114D01*
X126364114Y-114271542D01*
X126440775Y-114156811D01*
X126493580Y-114029328D01*
X126520500Y-113893993D01*
X126520500Y-113156007D01*
X126493580Y-113020672D01*
X126440775Y-112893189D01*
X126440774Y-112893187D01*
X126440771Y-112893182D01*
X126364114Y-112778458D01*
X126266541Y-112680885D01*
X126151817Y-112604228D01*
X126151806Y-112604222D01*
X126024328Y-112551420D01*
X125888995Y-112524500D01*
X125888993Y-112524500D01*
X125751007Y-112524500D01*
X125751004Y-112524500D01*
X125615672Y-112551420D01*
X125615670Y-112551420D01*
X125488193Y-112604222D01*
X125488182Y-112604228D01*
X125373458Y-112680885D01*
X125275885Y-112778458D01*
X125199228Y-112893182D01*
X125199222Y-112893193D01*
X125146420Y-113020670D01*
X125146420Y-113020672D01*
X125119500Y-113156004D01*
X117880499Y-113156004D01*
X117853580Y-113020672D01*
X117800775Y-112893189D01*
X117800774Y-112893187D01*
X117800771Y-112893182D01*
X117724114Y-112778458D01*
X117626541Y-112680885D01*
X117511817Y-112604228D01*
X117511806Y-112604222D01*
X117384328Y-112551420D01*
X117248995Y-112524500D01*
X117248993Y-112524500D01*
X117111007Y-112524500D01*
X117111004Y-112524500D01*
X116975672Y-112551420D01*
X116975670Y-112551420D01*
X116848193Y-112604222D01*
X116848182Y-112604228D01*
X116733458Y-112680885D01*
X116635885Y-112778458D01*
X116559228Y-112893182D01*
X116559222Y-112893193D01*
X116506420Y-113020670D01*
X116506420Y-113020672D01*
X116479500Y-113156004D01*
X112800500Y-113156004D01*
X112800500Y-110800403D01*
X112819407Y-110742212D01*
X112829490Y-110730405D01*
X114690460Y-108869436D01*
X114696568Y-108858856D01*
X114730021Y-108800914D01*
X114750094Y-108726004D01*
X116479500Y-108726004D01*
X116479500Y-109963995D01*
X116506420Y-110099327D01*
X116506420Y-110099329D01*
X116559222Y-110226806D01*
X116559228Y-110226817D01*
X116635885Y-110341541D01*
X116733458Y-110439114D01*
X116848182Y-110515771D01*
X116848193Y-110515777D01*
X116895283Y-110535282D01*
X116975672Y-110568580D01*
X117111007Y-110595500D01*
X117111008Y-110595500D01*
X117248992Y-110595500D01*
X117248993Y-110595500D01*
X117384328Y-110568580D01*
X117511811Y-110515775D01*
X117626542Y-110439114D01*
X117724114Y-110341542D01*
X117800775Y-110226811D01*
X117853580Y-110099328D01*
X117880500Y-109963993D01*
X117880500Y-108726007D01*
X117853580Y-108590672D01*
X117800775Y-108463189D01*
X117800774Y-108463187D01*
X117800771Y-108463182D01*
X117724114Y-108348458D01*
X117626541Y-108250885D01*
X117511817Y-108174228D01*
X117511806Y-108174222D01*
X117384328Y-108121420D01*
X117248995Y-108094500D01*
X117248993Y-108094500D01*
X117111007Y-108094500D01*
X117111004Y-108094500D01*
X116975672Y-108121420D01*
X116975670Y-108121420D01*
X116848193Y-108174222D01*
X116848182Y-108174228D01*
X116733458Y-108250885D01*
X116635885Y-108348458D01*
X116559228Y-108463182D01*
X116559222Y-108463193D01*
X116506420Y-108590670D01*
X116506420Y-108590672D01*
X116479500Y-108726004D01*
X114750094Y-108726004D01*
X114750500Y-108724487D01*
X114750500Y-104780624D01*
X114769407Y-104722433D01*
X114818907Y-104686469D01*
X114877389Y-104685634D01*
X114928039Y-104700506D01*
X114928041Y-104700506D01*
X115071959Y-104700506D01*
X115071961Y-104700506D01*
X115210053Y-104659959D01*
X115331128Y-104582149D01*
X115372264Y-104534674D01*
X115424660Y-104503079D01*
X115447083Y-104500506D01*
X121339559Y-104500506D01*
X121339559Y-104500505D01*
X121415985Y-104480027D01*
X121484507Y-104440466D01*
X121540456Y-104384517D01*
X124846498Y-101078473D01*
X124901013Y-101050698D01*
X124961445Y-101060269D01*
X125004710Y-101103534D01*
X125014492Y-101134390D01*
X125019246Y-101167456D01*
X125067527Y-101273175D01*
X125079035Y-101298373D01*
X125173284Y-101407143D01*
X125173285Y-101407144D01*
X125186499Y-101415636D01*
X125294359Y-101484953D01*
X125400815Y-101516211D01*
X125432447Y-101525499D01*
X125432448Y-101525499D01*
X125432451Y-101525500D01*
X125432453Y-101525500D01*
X125576371Y-101525500D01*
X125576373Y-101525500D01*
X125714465Y-101484953D01*
X125835540Y-101407143D01*
X125929789Y-101298373D01*
X125989577Y-101167457D01*
X126005067Y-101059719D01*
X126010059Y-101025002D01*
X126010059Y-101024997D01*
X125989577Y-100882543D01*
X125944174Y-100783126D01*
X125929789Y-100751627D01*
X125835540Y-100642857D01*
X125835539Y-100642856D01*
X125835538Y-100642855D01*
X125714469Y-100565049D01*
X125714466Y-100565048D01*
X125714465Y-100565047D01*
X125683184Y-100555862D01*
X125600495Y-100531582D01*
X125549988Y-100497046D01*
X125529427Y-100439418D01*
X125546666Y-100380712D01*
X125558378Y-100366593D01*
X128070474Y-97854498D01*
X128124991Y-97826721D01*
X128140478Y-97825502D01*
X128246959Y-97825502D01*
X128246961Y-97825502D01*
X128385053Y-97784955D01*
X128506128Y-97707145D01*
X128600377Y-97598375D01*
X128660165Y-97467459D01*
X128672290Y-97383125D01*
X128680647Y-97325004D01*
X128680647Y-97324999D01*
X128660165Y-97182545D01*
X128656947Y-97175499D01*
X128600377Y-97051629D01*
X128506128Y-96942859D01*
X128506127Y-96942858D01*
X128506126Y-96942857D01*
X128385057Y-96865051D01*
X128385054Y-96865049D01*
X128385053Y-96865049D01*
X128385050Y-96865048D01*
X128246964Y-96824502D01*
X128246961Y-96824502D01*
X128103039Y-96824502D01*
X128103035Y-96824502D01*
X127964949Y-96865048D01*
X127964942Y-96865051D01*
X127843873Y-96942857D01*
X127749622Y-97051630D01*
X127689834Y-97182545D01*
X127669353Y-97324999D01*
X127669353Y-97325005D01*
X127672441Y-97346484D01*
X127662007Y-97406773D01*
X127644453Y-97430576D01*
X125584094Y-99490935D01*
X125529577Y-99518712D01*
X125469145Y-99509141D01*
X125425880Y-99465876D01*
X125416098Y-99406842D01*
X125430647Y-99305653D01*
X125429834Y-99300000D01*
X125410165Y-99163196D01*
X125384859Y-99107784D01*
X125350377Y-99032280D01*
X125256128Y-98923510D01*
X125256127Y-98923509D01*
X125256126Y-98923508D01*
X125135057Y-98845702D01*
X125135054Y-98845700D01*
X125135053Y-98845700D01*
X125135050Y-98845699D01*
X124996964Y-98805153D01*
X124996961Y-98805153D01*
X124853039Y-98805153D01*
X124853035Y-98805153D01*
X124714949Y-98845699D01*
X124714942Y-98845702D01*
X124593876Y-98923507D01*
X124593875Y-98923508D01*
X124593872Y-98923510D01*
X124552979Y-98970704D01*
X124552736Y-98970984D01*
X124500340Y-99002580D01*
X124477917Y-99005153D01*
X120251564Y-99005153D01*
X120193373Y-98986246D01*
X120176746Y-98970986D01*
X120130710Y-98917857D01*
X120130709Y-98917856D01*
X120130708Y-98917855D01*
X120009635Y-98840046D01*
X120008556Y-98839554D01*
X120007826Y-98838884D01*
X120003679Y-98836219D01*
X120004140Y-98835501D01*
X119963477Y-98798183D01*
X119951325Y-98738217D01*
X119976741Y-98682560D01*
X120030018Y-98652472D01*
X120049680Y-98650500D01*
X120579512Y-98650500D01*
X120579512Y-98650499D01*
X120655938Y-98630021D01*
X120724460Y-98590460D01*
X120780409Y-98534511D01*
X123390460Y-95924460D01*
X123393175Y-95919758D01*
X123430020Y-95855941D01*
X123430020Y-95855939D01*
X123430022Y-95855937D01*
X123450500Y-95779511D01*
X123450500Y-95700387D01*
X123450500Y-95499997D01*
X129544355Y-95499997D01*
X129544355Y-95500002D01*
X129564836Y-95642456D01*
X129597209Y-95713342D01*
X129624625Y-95773373D01*
X129681275Y-95838751D01*
X129718875Y-95882144D01*
X129839944Y-95959950D01*
X129839949Y-95959953D01*
X129946405Y-95991211D01*
X129978037Y-96000499D01*
X129978038Y-96000499D01*
X129978041Y-96000500D01*
X129978043Y-96000500D01*
X130121961Y-96000500D01*
X130121963Y-96000500D01*
X130260055Y-95959953D01*
X130381130Y-95882143D01*
X130475379Y-95773373D01*
X130535167Y-95642457D01*
X130547741Y-95555002D01*
X130555649Y-95500002D01*
X130555649Y-95499997D01*
X130535167Y-95357543D01*
X130498944Y-95278227D01*
X130475379Y-95226627D01*
X130381130Y-95117857D01*
X130381129Y-95117856D01*
X130381128Y-95117855D01*
X130260059Y-95040049D01*
X130260056Y-95040047D01*
X130260055Y-95040047D01*
X130260052Y-95040046D01*
X130121966Y-94999500D01*
X130121963Y-94999500D01*
X129978041Y-94999500D01*
X129978037Y-94999500D01*
X129839951Y-95040046D01*
X129839944Y-95040049D01*
X129718875Y-95117855D01*
X129624624Y-95226628D01*
X129564836Y-95357543D01*
X129544355Y-95499997D01*
X123450500Y-95499997D01*
X123450500Y-94043300D01*
X123469407Y-93985109D01*
X123479496Y-93973296D01*
X125623296Y-91829496D01*
X125677813Y-91801719D01*
X125693300Y-91800500D01*
X125771965Y-91800500D01*
X125771967Y-91800500D01*
X125910059Y-91759953D01*
X126031134Y-91682143D01*
X126125383Y-91573373D01*
X126185171Y-91442457D01*
X126202473Y-91322120D01*
X126205653Y-91300002D01*
X126205653Y-91299997D01*
X126186041Y-91163589D01*
X126196474Y-91103300D01*
X126240352Y-91060657D01*
X126284033Y-91050500D01*
X126784521Y-91050500D01*
X126842712Y-91069407D01*
X126854525Y-91079496D01*
X126969453Y-91194424D01*
X126997230Y-91248941D01*
X126997441Y-91278514D01*
X126994354Y-91299997D01*
X126994353Y-91300002D01*
X127014834Y-91442456D01*
X127059403Y-91540047D01*
X127074623Y-91573373D01*
X127168870Y-91682141D01*
X127168873Y-91682144D01*
X127289942Y-91759950D01*
X127289947Y-91759953D01*
X127395480Y-91790940D01*
X127428035Y-91800499D01*
X127428036Y-91800499D01*
X127428039Y-91800500D01*
X127428041Y-91800500D01*
X127571959Y-91800500D01*
X127571961Y-91800500D01*
X127710053Y-91759953D01*
X127831128Y-91682143D01*
X127831136Y-91682133D01*
X127835165Y-91678644D01*
X127891523Y-91654824D01*
X127951119Y-91668679D01*
X127964835Y-91678644D01*
X127968866Y-91682137D01*
X127968872Y-91682143D01*
X128089947Y-91759953D01*
X128195480Y-91790940D01*
X128228035Y-91800499D01*
X128228036Y-91800499D01*
X128228039Y-91800500D01*
X128228041Y-91800500D01*
X128371959Y-91800500D01*
X128371961Y-91800500D01*
X128510053Y-91759953D01*
X128631128Y-91682143D01*
X128725377Y-91573373D01*
X128785165Y-91442457D01*
X128802467Y-91322120D01*
X128805647Y-91300002D01*
X128805647Y-91299997D01*
X128785165Y-91157543D01*
X128778275Y-91142457D01*
X128725377Y-91026627D01*
X128631128Y-90917857D01*
X128631127Y-90917856D01*
X128631126Y-90917855D01*
X128510057Y-90840049D01*
X128510054Y-90840047D01*
X128510053Y-90840047D01*
X128510050Y-90840046D01*
X128371964Y-90799500D01*
X128371961Y-90799500D01*
X128265479Y-90799500D01*
X128207288Y-90780593D01*
X128195475Y-90770504D01*
X127898342Y-90473371D01*
X127584511Y-90159540D01*
X127584508Y-90159538D01*
X127568853Y-90150499D01*
X127568853Y-90150500D01*
X127515989Y-90119979D01*
X127515988Y-90119978D01*
X127515987Y-90119978D01*
X127439564Y-90099500D01*
X127439562Y-90099500D01*
X126284027Y-90099500D01*
X126225836Y-90080593D01*
X126189872Y-90031093D01*
X126186035Y-89986411D01*
X126205647Y-89850002D01*
X126205647Y-89849997D01*
X126185165Y-89707543D01*
X126154447Y-89640281D01*
X126125377Y-89576627D01*
X126031128Y-89467857D01*
X126031127Y-89467856D01*
X126031126Y-89467855D01*
X125910057Y-89390049D01*
X125910054Y-89390047D01*
X125910053Y-89390047D01*
X125910050Y-89390046D01*
X125771964Y-89349500D01*
X125771961Y-89349500D01*
X125628039Y-89349500D01*
X125628035Y-89349500D01*
X125489949Y-89390046D01*
X125489942Y-89390049D01*
X125368873Y-89467855D01*
X125274622Y-89576628D01*
X125214834Y-89707543D01*
X125194353Y-89849997D01*
X125194353Y-89850002D01*
X125213965Y-89986411D01*
X125203532Y-90046700D01*
X125159654Y-90089343D01*
X125115973Y-90099500D01*
X124360435Y-90099500D01*
X124284012Y-90119978D01*
X124231147Y-90150500D01*
X124231146Y-90150499D01*
X124215489Y-90159539D01*
X123192171Y-91182855D01*
X123137655Y-91210632D01*
X123077223Y-91201061D01*
X123033958Y-91157796D01*
X123032130Y-91154010D01*
X122975373Y-91029731D01*
X122881124Y-90920961D01*
X122881123Y-90920960D01*
X122881122Y-90920959D01*
X122760053Y-90843153D01*
X122760050Y-90843151D01*
X122760049Y-90843151D01*
X122760046Y-90843150D01*
X122621960Y-90802604D01*
X122621957Y-90802604D01*
X122478035Y-90802604D01*
X122478031Y-90802604D01*
X122339945Y-90843150D01*
X122339938Y-90843153D01*
X122230935Y-90913205D01*
X122171760Y-90928760D01*
X122123890Y-90913205D01*
X122010053Y-90840047D01*
X122010050Y-90840046D01*
X121871964Y-90799500D01*
X121871961Y-90799500D01*
X121728039Y-90799500D01*
X121728035Y-90799500D01*
X121589949Y-90840046D01*
X121589942Y-90840049D01*
X121468873Y-90917855D01*
X121374622Y-91026628D01*
X121314834Y-91157543D01*
X121294353Y-91299997D01*
X121294353Y-91300002D01*
X121314834Y-91442456D01*
X121359403Y-91540047D01*
X121374623Y-91573373D01*
X121425320Y-91631880D01*
X121449137Y-91688238D01*
X121449500Y-91696710D01*
X121449500Y-92919381D01*
X121430593Y-92977572D01*
X121381093Y-93013536D01*
X121322609Y-93014371D01*
X121271964Y-92999500D01*
X121271961Y-92999500D01*
X121128039Y-92999500D01*
X121128035Y-92999500D01*
X120989949Y-93040046D01*
X120989942Y-93040049D01*
X120868873Y-93117855D01*
X120774622Y-93226628D01*
X120714835Y-93357541D01*
X120714834Y-93357545D01*
X120713821Y-93364591D01*
X120686823Y-93419499D01*
X120632708Y-93448050D01*
X120615829Y-93449500D01*
X119458324Y-93449500D01*
X119420442Y-93441966D01*
X119415119Y-93439761D01*
X119415117Y-93439760D01*
X119415113Y-93439759D01*
X119338411Y-93424501D01*
X119338402Y-93424500D01*
X119338401Y-93424500D01*
X119338399Y-93424500D01*
X118536602Y-93424500D01*
X118536595Y-93424501D01*
X118459883Y-93439759D01*
X118459881Y-93439760D01*
X118372890Y-93497886D01*
X118372886Y-93497890D01*
X118314762Y-93584879D01*
X118314759Y-93584886D01*
X118299501Y-93661589D01*
X118299500Y-93661599D01*
X118299500Y-93838397D01*
X118299501Y-93838404D01*
X118314759Y-93915115D01*
X118314759Y-93915116D01*
X118314760Y-93915117D01*
X118334726Y-93944999D01*
X118351334Y-94003887D01*
X118334727Y-94054999D01*
X118314761Y-94084880D01*
X118314759Y-94084886D01*
X118299501Y-94161589D01*
X118299500Y-94161599D01*
X118299500Y-94338397D01*
X118299501Y-94338404D01*
X118314759Y-94415115D01*
X118314759Y-94415116D01*
X118314760Y-94415117D01*
X118334726Y-94444999D01*
X118351334Y-94503887D01*
X118334727Y-94554999D01*
X118314761Y-94584880D01*
X118314759Y-94584886D01*
X118299501Y-94661589D01*
X118299500Y-94661599D01*
X118299500Y-94838397D01*
X118299501Y-94838404D01*
X118314759Y-94915115D01*
X118314759Y-94915116D01*
X118314760Y-94915117D01*
X118334726Y-94944999D01*
X118351334Y-95003887D01*
X118334727Y-95054999D01*
X118314761Y-95084880D01*
X118314759Y-95084886D01*
X118299501Y-95161589D01*
X118299500Y-95161599D01*
X118299500Y-95338397D01*
X118299501Y-95338404D01*
X118314759Y-95415115D01*
X118314759Y-95415116D01*
X118314760Y-95415117D01*
X118334726Y-95444999D01*
X118351334Y-95503887D01*
X118334727Y-95554999D01*
X118314761Y-95584880D01*
X118314759Y-95584886D01*
X118299501Y-95661589D01*
X118299500Y-95661599D01*
X118299500Y-95838397D01*
X118299501Y-95838404D01*
X118314759Y-95915115D01*
X118314759Y-95915116D01*
X118314760Y-95915117D01*
X118334726Y-95944999D01*
X118351334Y-96003887D01*
X118334727Y-96054999D01*
X118314761Y-96084880D01*
X118314759Y-96084886D01*
X118299501Y-96161589D01*
X118299500Y-96161599D01*
X118299500Y-96338397D01*
X118299501Y-96338404D01*
X118314759Y-96415115D01*
X118314759Y-96415116D01*
X118314760Y-96415117D01*
X118334726Y-96444999D01*
X118351334Y-96503887D01*
X118334727Y-96554999D01*
X118314761Y-96584880D01*
X118314759Y-96584886D01*
X118299501Y-96661589D01*
X118299500Y-96661599D01*
X118299500Y-96838397D01*
X118299501Y-96838404D01*
X118314759Y-96915115D01*
X118314759Y-96915116D01*
X118314760Y-96915117D01*
X118334726Y-96944999D01*
X118351334Y-97003887D01*
X118334727Y-97054999D01*
X118314761Y-97084880D01*
X118314759Y-97084886D01*
X118299501Y-97161589D01*
X118299500Y-97161599D01*
X118299500Y-97338397D01*
X118299501Y-97338404D01*
X118314759Y-97415115D01*
X118314759Y-97415116D01*
X118314760Y-97415117D01*
X118334726Y-97444999D01*
X118351334Y-97503887D01*
X118334727Y-97554999D01*
X118314761Y-97584880D01*
X118314759Y-97584886D01*
X118299501Y-97661589D01*
X118299500Y-97661599D01*
X118299500Y-97838397D01*
X118299501Y-97838404D01*
X118314759Y-97915115D01*
X118314759Y-97915116D01*
X118314760Y-97915117D01*
X118334726Y-97944999D01*
X118351334Y-98003887D01*
X118334727Y-98054999D01*
X118314761Y-98084880D01*
X118314759Y-98084886D01*
X118299501Y-98161588D01*
X118299500Y-98161600D01*
X118299500Y-98200500D01*
X118280593Y-98258691D01*
X118231093Y-98294655D01*
X118200502Y-98299500D01*
X118161603Y-98299500D01*
X118161595Y-98299501D01*
X118084883Y-98314759D01*
X118084881Y-98314760D01*
X117997890Y-98372886D01*
X117997886Y-98372890D01*
X117939762Y-98459879D01*
X117939759Y-98459886D01*
X117924501Y-98536588D01*
X117924500Y-98536600D01*
X117924500Y-98785020D01*
X117921127Y-98810642D01*
X117911734Y-98845699D01*
X117899501Y-98891356D01*
X117899501Y-98983644D01*
X117921127Y-99064358D01*
X117924500Y-99089977D01*
X117924500Y-99338397D01*
X117924501Y-99338404D01*
X117939759Y-99415116D01*
X117939760Y-99415118D01*
X117961805Y-99448110D01*
X117997888Y-99502112D01*
X118084883Y-99560240D01*
X118161599Y-99575500D01*
X118338400Y-99575499D01*
X118400566Y-99563134D01*
X118424680Y-99558338D01*
X118425069Y-99560296D01*
X118473602Y-99556473D01*
X118525774Y-99588438D01*
X118549194Y-99644963D01*
X118549500Y-99652740D01*
X118549500Y-99712989D01*
X118530593Y-99771180D01*
X118495446Y-99801198D01*
X118396781Y-99851471D01*
X118301470Y-99946782D01*
X118240283Y-100066867D01*
X118240281Y-100066874D01*
X118224500Y-100166510D01*
X118224500Y-100683489D01*
X118240281Y-100783125D01*
X118240283Y-100783132D01*
X118301470Y-100903217D01*
X118301472Y-100903220D01*
X118396780Y-100998528D01*
X118396782Y-100998529D01*
X118516867Y-101059716D01*
X118516869Y-101059716D01*
X118516874Y-101059719D01*
X118592541Y-101071703D01*
X118616510Y-101075500D01*
X118616512Y-101075500D01*
X119183490Y-101075500D01*
X119204885Y-101072111D01*
X119283126Y-101059719D01*
X119403220Y-100998528D01*
X119498528Y-100903220D01*
X119559719Y-100783126D01*
X119575500Y-100683488D01*
X119575500Y-100166512D01*
X119559719Y-100066874D01*
X119559716Y-100066869D01*
X119559716Y-100066867D01*
X119498529Y-99946782D01*
X119498528Y-99946780D01*
X119463163Y-99911415D01*
X119435388Y-99856901D01*
X119444959Y-99796469D01*
X119488224Y-99753204D01*
X119548656Y-99743633D01*
X119586691Y-99758129D01*
X119589529Y-99759953D01*
X119692818Y-99790281D01*
X119727617Y-99800499D01*
X119727618Y-99800499D01*
X119727621Y-99800500D01*
X119727623Y-99800500D01*
X119871541Y-99800500D01*
X119871543Y-99800500D01*
X120009635Y-99759953D01*
X120130710Y-99682143D01*
X120156188Y-99652740D01*
X120166949Y-99640322D01*
X120219345Y-99608726D01*
X120241768Y-99606153D01*
X121332779Y-99606153D01*
X121390970Y-99625060D01*
X121426934Y-99674560D01*
X121430771Y-99719242D01*
X121411159Y-99855650D01*
X121411159Y-99855655D01*
X121431640Y-99998109D01*
X121431640Y-99998111D01*
X121457405Y-100054527D01*
X121464380Y-100115313D01*
X121437356Y-100165657D01*
X119232511Y-102370504D01*
X119177994Y-102398281D01*
X119162507Y-102399500D01*
X115447083Y-102399500D01*
X115388892Y-102380593D01*
X115372264Y-102365331D01*
X115331128Y-102317857D01*
X115298182Y-102296684D01*
X115210057Y-102240049D01*
X115210054Y-102240047D01*
X115210053Y-102240047D01*
X115210050Y-102240046D01*
X115071964Y-102199500D01*
X115071961Y-102199500D01*
X114928039Y-102199500D01*
X114928035Y-102199500D01*
X114877391Y-102214371D01*
X114816230Y-102212623D01*
X114767778Y-102175260D01*
X114750500Y-102119381D01*
X114750500Y-101358596D01*
X114769407Y-101300405D01*
X114818907Y-101264441D01*
X114877388Y-101263606D01*
X115003039Y-101300500D01*
X115003041Y-101300500D01*
X115146959Y-101300500D01*
X115146961Y-101300500D01*
X115285053Y-101259953D01*
X115406128Y-101182143D01*
X115500377Y-101073373D01*
X115504525Y-101064289D01*
X115545896Y-101019213D01*
X115605863Y-101007062D01*
X115661519Y-101032479D01*
X115664582Y-101035413D01*
X115688540Y-101059371D01*
X115716317Y-101113888D01*
X115716528Y-101143464D01*
X115697879Y-101273175D01*
X115697879Y-101273181D01*
X115718360Y-101415635D01*
X115776278Y-101542456D01*
X115778149Y-101546552D01*
X115824758Y-101600342D01*
X115872399Y-101655323D01*
X115989522Y-101730593D01*
X115993473Y-101733132D01*
X116099929Y-101764390D01*
X116131561Y-101773678D01*
X116131562Y-101773678D01*
X116131565Y-101773679D01*
X116131567Y-101773679D01*
X116275485Y-101773679D01*
X116275487Y-101773679D01*
X116413579Y-101733132D01*
X116534654Y-101655322D01*
X116628903Y-101546552D01*
X116688691Y-101415636D01*
X116709173Y-101273179D01*
X116709173Y-101273176D01*
X116687684Y-101123713D01*
X116688947Y-101123531D01*
X116690483Y-101069721D01*
X116727845Y-101021267D01*
X116786551Y-101004027D01*
X116828671Y-101014777D01*
X116916874Y-101059719D01*
X116992541Y-101071703D01*
X117016510Y-101075500D01*
X117016512Y-101075500D01*
X117583490Y-101075500D01*
X117604885Y-101072111D01*
X117683126Y-101059719D01*
X117803220Y-100998528D01*
X117898528Y-100903220D01*
X117959719Y-100783126D01*
X117975500Y-100683488D01*
X117975500Y-100166512D01*
X117959719Y-100066874D01*
X117959716Y-100066869D01*
X117959716Y-100066867D01*
X117898529Y-99946782D01*
X117898528Y-99946780D01*
X117803220Y-99851472D01*
X117803217Y-99851470D01*
X117683129Y-99790282D01*
X117675718Y-99787874D01*
X117676185Y-99786434D01*
X117629491Y-99762638D01*
X117601718Y-99708119D01*
X117600500Y-99692640D01*
X117600500Y-98891357D01*
X117600500Y-98891356D01*
X117578871Y-98810638D01*
X117575499Y-98785017D01*
X117575499Y-98536602D01*
X117575498Y-98536595D01*
X117560240Y-98459883D01*
X117560239Y-98459881D01*
X117506237Y-98379062D01*
X117502112Y-98372888D01*
X117415117Y-98314760D01*
X117415113Y-98314759D01*
X117338410Y-98299501D01*
X117338402Y-98299500D01*
X117338401Y-98299500D01*
X117338400Y-98299500D01*
X117161602Y-98299500D01*
X117161595Y-98299501D01*
X117084884Y-98314759D01*
X117055000Y-98334727D01*
X116996111Y-98351334D01*
X116944999Y-98334726D01*
X116915119Y-98314761D01*
X116915117Y-98314760D01*
X116915114Y-98314759D01*
X116915113Y-98314759D01*
X116838410Y-98299501D01*
X116838402Y-98299500D01*
X116838401Y-98299500D01*
X116838400Y-98299500D01*
X116661602Y-98299500D01*
X116661595Y-98299501D01*
X116584884Y-98314759D01*
X116555000Y-98334727D01*
X116496111Y-98351334D01*
X116444999Y-98334726D01*
X116415119Y-98314761D01*
X116415117Y-98314760D01*
X116415114Y-98314759D01*
X116415113Y-98314759D01*
X116338410Y-98299501D01*
X116338402Y-98299500D01*
X116338401Y-98299500D01*
X116338400Y-98299500D01*
X116161602Y-98299500D01*
X116161595Y-98299501D01*
X116084884Y-98314759D01*
X116055000Y-98334727D01*
X115996111Y-98351334D01*
X115944999Y-98334726D01*
X115915119Y-98314761D01*
X115915117Y-98314760D01*
X115915114Y-98314759D01*
X115915113Y-98314759D01*
X115838410Y-98299501D01*
X115838402Y-98299500D01*
X115838401Y-98299500D01*
X115838400Y-98299500D01*
X115661602Y-98299500D01*
X115661595Y-98299501D01*
X115584884Y-98314759D01*
X115555000Y-98334727D01*
X115496111Y-98351334D01*
X115444999Y-98334726D01*
X115415119Y-98314761D01*
X115415117Y-98314760D01*
X115415114Y-98314759D01*
X115415113Y-98314759D01*
X115338410Y-98299501D01*
X115338402Y-98299500D01*
X115338401Y-98299500D01*
X115338400Y-98299500D01*
X115161602Y-98299500D01*
X115161595Y-98299501D01*
X115084884Y-98314759D01*
X115055000Y-98334727D01*
X114996111Y-98351334D01*
X114944999Y-98334726D01*
X114915119Y-98314761D01*
X114915117Y-98314760D01*
X114915114Y-98314759D01*
X114915113Y-98314759D01*
X114838410Y-98299501D01*
X114838402Y-98299500D01*
X114838401Y-98299500D01*
X114838400Y-98299500D01*
X114661602Y-98299500D01*
X114661595Y-98299501D01*
X114584884Y-98314759D01*
X114555000Y-98334727D01*
X114496111Y-98351334D01*
X114444999Y-98334726D01*
X114415119Y-98314761D01*
X114415117Y-98314760D01*
X114415114Y-98314759D01*
X114415113Y-98314759D01*
X114338410Y-98299501D01*
X114338402Y-98299500D01*
X114338401Y-98299500D01*
X114338400Y-98299500D01*
X114161602Y-98299500D01*
X114161595Y-98299501D01*
X114084884Y-98314759D01*
X114055000Y-98334727D01*
X113996111Y-98351334D01*
X113944999Y-98334726D01*
X113915119Y-98314761D01*
X113915117Y-98314760D01*
X113915114Y-98314759D01*
X113915113Y-98314759D01*
X113838410Y-98299501D01*
X113838402Y-98299500D01*
X113838401Y-98299500D01*
X113838400Y-98299500D01*
X113661602Y-98299500D01*
X113661595Y-98299501D01*
X113584884Y-98314759D01*
X113555000Y-98334727D01*
X113496111Y-98351334D01*
X113444999Y-98334726D01*
X113415119Y-98314761D01*
X113415117Y-98314760D01*
X113415114Y-98314759D01*
X113415113Y-98314759D01*
X113338410Y-98299501D01*
X113338402Y-98299500D01*
X113338401Y-98299500D01*
X113338400Y-98299500D01*
X113161602Y-98299500D01*
X113161595Y-98299501D01*
X113084884Y-98314759D01*
X113055000Y-98334727D01*
X112996111Y-98351334D01*
X112944999Y-98334726D01*
X112915119Y-98314761D01*
X112915117Y-98314760D01*
X112915114Y-98314759D01*
X112915113Y-98314759D01*
X112838411Y-98299501D01*
X112838401Y-98299500D01*
X112838400Y-98299500D01*
X112799499Y-98299500D01*
X112741308Y-98280593D01*
X112705344Y-98231093D01*
X112700499Y-98200500D01*
X112700499Y-98161602D01*
X112700498Y-98161595D01*
X112685240Y-98084883D01*
X112685239Y-98084881D01*
X112665274Y-98055002D01*
X112648665Y-97996114D01*
X112665274Y-97944998D01*
X112685238Y-97915120D01*
X112685238Y-97915119D01*
X112685240Y-97915117D01*
X112700500Y-97838401D01*
X112700499Y-97661600D01*
X112685240Y-97584883D01*
X112665273Y-97555001D01*
X112648665Y-97496114D01*
X112665274Y-97444998D01*
X112685238Y-97415120D01*
X112685238Y-97415119D01*
X112685240Y-97415117D01*
X112700500Y-97338401D01*
X112700499Y-97161600D01*
X112685240Y-97084883D01*
X112665273Y-97055001D01*
X112648665Y-96996114D01*
X112665274Y-96944998D01*
X112685238Y-96915120D01*
X112685238Y-96915119D01*
X112685240Y-96915117D01*
X112700500Y-96838401D01*
X112700499Y-96661600D01*
X112685240Y-96584883D01*
X112683409Y-96582143D01*
X112643107Y-96521826D01*
X112627112Y-96497888D01*
X112540117Y-96439760D01*
X112540113Y-96439759D01*
X112463411Y-96424501D01*
X112463401Y-96424500D01*
X112463400Y-96424500D01*
X112214979Y-96424500D01*
X112189358Y-96421127D01*
X112108644Y-96399500D01*
X112108642Y-96399500D01*
X111691216Y-96399500D01*
X111633025Y-96380593D01*
X111597061Y-96331093D01*
X111593224Y-96286412D01*
X111605647Y-96200003D01*
X111605647Y-96200001D01*
X111605647Y-96200000D01*
X111604006Y-96188589D01*
X111614438Y-96128302D01*
X111658314Y-96085658D01*
X111701993Y-96075499D01*
X112463400Y-96075499D01*
X112540117Y-96060240D01*
X112627112Y-96002112D01*
X112685240Y-95915117D01*
X112700500Y-95838401D01*
X112700499Y-95661600D01*
X112685240Y-95584883D01*
X112665273Y-95555001D01*
X112648665Y-95496114D01*
X112665274Y-95444998D01*
X112685238Y-95415120D01*
X112685238Y-95415119D01*
X112685240Y-95415117D01*
X112700500Y-95338401D01*
X112700499Y-95161600D01*
X112685240Y-95084883D01*
X112665273Y-95055001D01*
X112648665Y-94996114D01*
X112665274Y-94944998D01*
X112685238Y-94915120D01*
X112685238Y-94915119D01*
X112685240Y-94915117D01*
X112700500Y-94838401D01*
X112700499Y-94661600D01*
X112685240Y-94584883D01*
X112665273Y-94555001D01*
X112648665Y-94496114D01*
X112665274Y-94444998D01*
X112685238Y-94415120D01*
X112685238Y-94415119D01*
X112685240Y-94415117D01*
X112700500Y-94338401D01*
X112700499Y-94161600D01*
X112685240Y-94084883D01*
X112665273Y-94055001D01*
X112648665Y-93996114D01*
X112665274Y-93944998D01*
X112672221Y-93934602D01*
X112685240Y-93915117D01*
X112700500Y-93838401D01*
X112700499Y-93661600D01*
X112685240Y-93584883D01*
X112685237Y-93584879D01*
X112665274Y-93555002D01*
X112648665Y-93496114D01*
X112665274Y-93444998D01*
X112685238Y-93415120D01*
X112685238Y-93415119D01*
X112685240Y-93415117D01*
X112700500Y-93338401D01*
X112700499Y-93161600D01*
X112685240Y-93084883D01*
X112678970Y-93075500D01*
X112665274Y-93055002D01*
X112648665Y-92996114D01*
X112665274Y-92944998D01*
X112685238Y-92915120D01*
X112685239Y-92915118D01*
X112685240Y-92915117D01*
X112700500Y-92838401D01*
X112700500Y-92799499D01*
X112719407Y-92741308D01*
X112768907Y-92705344D01*
X112799500Y-92700499D01*
X112838398Y-92700499D01*
X112838400Y-92700499D01*
X112915117Y-92685240D01*
X113002112Y-92627112D01*
X113060240Y-92540117D01*
X113075500Y-92463401D01*
X113075499Y-92214979D01*
X113078870Y-92189365D01*
X113100500Y-92108644D01*
X113100500Y-92016356D01*
X113078871Y-91935638D01*
X113075499Y-91910017D01*
X113075499Y-91661602D01*
X113075498Y-91661595D01*
X113060240Y-91584883D01*
X113060239Y-91584881D01*
X113003189Y-91499500D01*
X113002112Y-91497888D01*
X112915117Y-91439760D01*
X112915113Y-91439759D01*
X112838410Y-91424501D01*
X112838402Y-91424500D01*
X112838401Y-91424500D01*
X112838400Y-91424500D01*
X112661602Y-91424500D01*
X112661595Y-91424501D01*
X112584883Y-91439759D01*
X112584881Y-91439760D01*
X112497890Y-91497886D01*
X112497886Y-91497890D01*
X112439762Y-91584879D01*
X112439759Y-91584884D01*
X112438962Y-91588895D01*
X112409062Y-91642278D01*
X112353496Y-91667890D01*
X112293487Y-91655951D01*
X112288342Y-91652860D01*
X112210057Y-91602549D01*
X112210054Y-91602547D01*
X112210053Y-91602547D01*
X112210050Y-91602546D01*
X112071964Y-91562000D01*
X112071961Y-91562000D01*
X111928039Y-91562000D01*
X111928035Y-91562000D01*
X111789949Y-91602546D01*
X111789942Y-91602549D01*
X111668871Y-91680356D01*
X111663520Y-91684994D01*
X111662031Y-91683276D01*
X111618659Y-91709428D01*
X111596241Y-91712000D01*
X110824500Y-91712000D01*
X110766309Y-91693093D01*
X110730345Y-91643593D01*
X110725500Y-91613000D01*
X110725500Y-91516510D01*
X110720270Y-91483489D01*
X110709719Y-91416874D01*
X110709716Y-91416869D01*
X110709716Y-91416867D01*
X110648529Y-91296782D01*
X110648528Y-91296780D01*
X110623237Y-91271489D01*
X110586728Y-91234979D01*
X110558951Y-91180462D01*
X110560936Y-91149721D01*
X110559158Y-91149466D01*
X110580647Y-91000002D01*
X110580647Y-90999998D01*
X110571496Y-90936356D01*
X110581929Y-90876067D01*
X110599486Y-90852261D01*
X110608595Y-90843153D01*
X110648528Y-90803220D01*
X110709719Y-90683126D01*
X110725500Y-90583488D01*
X110725500Y-90016512D01*
X110709719Y-89916874D01*
X110709716Y-89916869D01*
X110709716Y-89916867D01*
X110648529Y-89796782D01*
X110648528Y-89796780D01*
X110553220Y-89701472D01*
X110553217Y-89701470D01*
X110433132Y-89640283D01*
X110433127Y-89640281D01*
X110433126Y-89640281D01*
X110376839Y-89631366D01*
X110333490Y-89624500D01*
X110333488Y-89624500D01*
X109816512Y-89624500D01*
X109816510Y-89624500D01*
X109716874Y-89640281D01*
X109716867Y-89640283D01*
X109596782Y-89701470D01*
X109501470Y-89796782D01*
X109440283Y-89916867D01*
X109440281Y-89916874D01*
X109424500Y-90016510D01*
X109424500Y-90583489D01*
X109440281Y-90683125D01*
X109440283Y-90683132D01*
X109501158Y-90802604D01*
X109501472Y-90803220D01*
X109550516Y-90852264D01*
X109578292Y-90906779D01*
X109578503Y-90936355D01*
X109569353Y-90999996D01*
X109569353Y-91000002D01*
X109590842Y-91149465D01*
X109587900Y-91149887D01*
X109586492Y-91198296D01*
X109563271Y-91234980D01*
X109501473Y-91296778D01*
X109501470Y-91296782D01*
X109440283Y-91416867D01*
X109440281Y-91416874D01*
X109424500Y-91516510D01*
X109424500Y-92083489D01*
X109440281Y-92183125D01*
X109440283Y-92183132D01*
X109498958Y-92298286D01*
X109501472Y-92303220D01*
X109563272Y-92365020D01*
X109591048Y-92419535D01*
X109589080Y-92450281D01*
X109590842Y-92450535D01*
X109569353Y-92599997D01*
X109569353Y-92600002D01*
X109578503Y-92663643D01*
X109568070Y-92723932D01*
X109550516Y-92747734D01*
X109501474Y-92796777D01*
X109501470Y-92796782D01*
X109440283Y-92916867D01*
X109440281Y-92916874D01*
X109424500Y-93016510D01*
X109424500Y-93583489D01*
X109424721Y-93584883D01*
X109436871Y-93661599D01*
X109440281Y-93683125D01*
X109440282Y-93683130D01*
X109451709Y-93705556D01*
X109461280Y-93765988D01*
X109433502Y-93820504D01*
X109378985Y-93848281D01*
X109363499Y-93849500D01*
X106045323Y-93849500D01*
X105987132Y-93830593D01*
X105951168Y-93781093D01*
X105948225Y-93731186D01*
X105948705Y-93728770D01*
X105950500Y-93719748D01*
X105950500Y-92280252D01*
X105938867Y-92221769D01*
X105913046Y-92183126D01*
X105892185Y-92151905D01*
X105875500Y-92096903D01*
X105875500Y-91867255D01*
X105894407Y-91809064D01*
X105904490Y-91797257D01*
X105998528Y-91703220D01*
X106059719Y-91583126D01*
X106075500Y-91483488D01*
X106075500Y-90916512D01*
X106073958Y-90906779D01*
X106068841Y-90874471D01*
X106059719Y-90816874D01*
X106059716Y-90816869D01*
X106059716Y-90816867D01*
X105998529Y-90696782D01*
X105998528Y-90696780D01*
X105903220Y-90601472D01*
X105903217Y-90601470D01*
X105783132Y-90540283D01*
X105783127Y-90540281D01*
X105783126Y-90540281D01*
X105749913Y-90535020D01*
X105683490Y-90524500D01*
X105683488Y-90524500D01*
X105166512Y-90524500D01*
X105166510Y-90524500D01*
X105066874Y-90540281D01*
X105066867Y-90540283D01*
X104946782Y-90601470D01*
X104851470Y-90696782D01*
X104790283Y-90816867D01*
X104790281Y-90816874D01*
X104775024Y-90913205D01*
X104774500Y-90916512D01*
X104774500Y-91483488D01*
X104789715Y-91579555D01*
X104790281Y-91583125D01*
X104790283Y-91583132D01*
X104851470Y-91703217D01*
X104851472Y-91703220D01*
X104945505Y-91797253D01*
X104973281Y-91851768D01*
X104974500Y-91867255D01*
X104974500Y-92000500D01*
X104955593Y-92058691D01*
X104906093Y-92094655D01*
X104875500Y-92099500D01*
X104530252Y-92099500D01*
X104530251Y-92099500D01*
X104530241Y-92099501D01*
X104471772Y-92111132D01*
X104471766Y-92111134D01*
X104405451Y-92155445D01*
X104405445Y-92155451D01*
X104361134Y-92221766D01*
X104361132Y-92221772D01*
X104349501Y-92280241D01*
X104349500Y-92280253D01*
X104349500Y-93719746D01*
X104349501Y-93719758D01*
X104361132Y-93778227D01*
X104361134Y-93778233D01*
X104401335Y-93838397D01*
X104405448Y-93844552D01*
X104471769Y-93888867D01*
X104516231Y-93897711D01*
X104530241Y-93900498D01*
X104530246Y-93900498D01*
X104530252Y-93900500D01*
X104963810Y-93900500D01*
X105022001Y-93919407D01*
X105033814Y-93929496D01*
X105584788Y-94480470D01*
X105585353Y-94480796D01*
X105661053Y-94524502D01*
X105661054Y-94524502D01*
X105664712Y-94526614D01*
X105753856Y-94550500D01*
X105950500Y-94550500D01*
X106008691Y-94569407D01*
X106044655Y-94618907D01*
X106049500Y-94649500D01*
X106049500Y-95919746D01*
X106049501Y-95919758D01*
X106061132Y-95978227D01*
X106061134Y-95978233D01*
X106078276Y-96003887D01*
X106105448Y-96044552D01*
X106171769Y-96088867D01*
X106216231Y-96097711D01*
X106230241Y-96100498D01*
X106230246Y-96100498D01*
X106230252Y-96100500D01*
X106300500Y-96100500D01*
X106358691Y-96119407D01*
X106394655Y-96168907D01*
X106399500Y-96199500D01*
X106399500Y-96476881D01*
X106388710Y-96521826D01*
X106340281Y-96616872D01*
X106340281Y-96616874D01*
X106324500Y-96716510D01*
X106324500Y-97283489D01*
X106340281Y-97383125D01*
X106340283Y-97383132D01*
X106397851Y-97496114D01*
X106401472Y-97503220D01*
X106496780Y-97598528D01*
X106496782Y-97598529D01*
X106616867Y-97659716D01*
X106616869Y-97659716D01*
X106616874Y-97659719D01*
X106692541Y-97671703D01*
X106716510Y-97675500D01*
X106716512Y-97675500D01*
X107233490Y-97675500D01*
X107254885Y-97672111D01*
X107333126Y-97659719D01*
X107453220Y-97598528D01*
X107548528Y-97503220D01*
X107609719Y-97383126D01*
X107625500Y-97283488D01*
X107625500Y-96716512D01*
X107609719Y-96616874D01*
X107609716Y-96616869D01*
X107609716Y-96616867D01*
X107548529Y-96496782D01*
X107548528Y-96496780D01*
X107453220Y-96401472D01*
X107448763Y-96399201D01*
X107354554Y-96351198D01*
X107311290Y-96307933D01*
X107300500Y-96262989D01*
X107300500Y-96199500D01*
X107319407Y-96141309D01*
X107368907Y-96105345D01*
X107399500Y-96100500D01*
X107469747Y-96100500D01*
X107469748Y-96100500D01*
X107528231Y-96088867D01*
X107594552Y-96044552D01*
X107638867Y-95978231D01*
X107650500Y-95919748D01*
X107650500Y-95749500D01*
X107669407Y-95691309D01*
X107718907Y-95655345D01*
X107749500Y-95650500D01*
X107854263Y-95650500D01*
X107912454Y-95669407D01*
X107942472Y-95704554D01*
X107946950Y-95713342D01*
X108036658Y-95803050D01*
X108149696Y-95860646D01*
X108243481Y-95875500D01*
X108706518Y-95875499D01*
X108706520Y-95875499D01*
X108706521Y-95875498D01*
X108753411Y-95868072D01*
X108800299Y-95860647D01*
X108800299Y-95860646D01*
X108800304Y-95860646D01*
X108913342Y-95803050D01*
X109003050Y-95713342D01*
X109060646Y-95600304D01*
X109075500Y-95506519D01*
X109075499Y-94893482D01*
X109066775Y-94838397D01*
X109060647Y-94799700D01*
X109060646Y-94799698D01*
X109060646Y-94799696D01*
X109007017Y-94694445D01*
X108997446Y-94634014D01*
X109025223Y-94579497D01*
X109079739Y-94551719D01*
X109095227Y-94550500D01*
X109504773Y-94550500D01*
X109562964Y-94569407D01*
X109598928Y-94618907D01*
X109598928Y-94680093D01*
X109592982Y-94694446D01*
X109539354Y-94799694D01*
X109524500Y-94893477D01*
X109524500Y-95506520D01*
X109524501Y-95506523D01*
X109539352Y-95600299D01*
X109539354Y-95600304D01*
X109596950Y-95713342D01*
X109686658Y-95803050D01*
X109799696Y-95860646D01*
X109893481Y-95875500D01*
X110356518Y-95875499D01*
X110356520Y-95875499D01*
X110356521Y-95875498D01*
X110403411Y-95868072D01*
X110450299Y-95860647D01*
X110450304Y-95860646D01*
X110459546Y-95855937D01*
X110529004Y-95820545D01*
X110589435Y-95810974D01*
X110643952Y-95838751D01*
X110671730Y-95893267D01*
X110664002Y-95949881D01*
X110614834Y-96057541D01*
X110614834Y-96057543D01*
X110594353Y-96199997D01*
X110594353Y-96200002D01*
X110614834Y-96342457D01*
X110615873Y-96345995D01*
X110615785Y-96349070D01*
X110615842Y-96349466D01*
X110615773Y-96349475D01*
X110614125Y-96407155D01*
X110576762Y-96455608D01*
X110518055Y-96472845D01*
X110475938Y-96462095D01*
X110433126Y-96440281D01*
X110333490Y-96424500D01*
X110333488Y-96424500D01*
X109816512Y-96424500D01*
X109816510Y-96424500D01*
X109716874Y-96440281D01*
X109716867Y-96440283D01*
X109596782Y-96501470D01*
X109501470Y-96596782D01*
X109440283Y-96716867D01*
X109440281Y-96716874D01*
X109424500Y-96816510D01*
X109424500Y-97383489D01*
X109429510Y-97415120D01*
X109437799Y-97467458D01*
X109440281Y-97483125D01*
X109440283Y-97483132D01*
X109501470Y-97603217D01*
X109501472Y-97603220D01*
X109596780Y-97698528D01*
X109596782Y-97698529D01*
X109601692Y-97701031D01*
X109644958Y-97744294D01*
X109655750Y-97789242D01*
X109655750Y-97916584D01*
X109636843Y-97974775D01*
X109626759Y-97986581D01*
X109558342Y-98054999D01*
X109544092Y-98069249D01*
X109490676Y-98174081D01*
X109447411Y-98217344D01*
X109386978Y-98226915D01*
X109374576Y-98224124D01*
X109290714Y-98199500D01*
X109290711Y-98199500D01*
X109146789Y-98199500D01*
X109146785Y-98199500D01*
X109008693Y-98240048D01*
X109007588Y-98240553D01*
X109005218Y-98241068D01*
X109001903Y-98242042D01*
X109001833Y-98241804D01*
X108966462Y-98249500D01*
X108695748Y-98249500D01*
X108637557Y-98230593D01*
X108610237Y-98192995D01*
X108607239Y-98194523D01*
X108551372Y-98084880D01*
X108543408Y-98069249D01*
X108449501Y-97975342D01*
X108389948Y-97944998D01*
X108331173Y-97915050D01*
X108331170Y-97915049D01*
X108306626Y-97911161D01*
X108232999Y-97899500D01*
X108232996Y-97899500D01*
X107729504Y-97899500D01*
X107729501Y-97899500D01*
X107631330Y-97915049D01*
X107631326Y-97915050D01*
X107513000Y-97975341D01*
X107419091Y-98069250D01*
X107358800Y-98187576D01*
X107358799Y-98187580D01*
X107343250Y-98285751D01*
X107343250Y-99114248D01*
X107358799Y-99212419D01*
X107358800Y-99212423D01*
X107403423Y-99300000D01*
X107419092Y-99330751D01*
X107512999Y-99424658D01*
X107631330Y-99484951D01*
X107697880Y-99495491D01*
X107729501Y-99500500D01*
X107729504Y-99500500D01*
X108232999Y-99500500D01*
X108261553Y-99495976D01*
X108331170Y-99484951D01*
X108449501Y-99424658D01*
X108543408Y-99330751D01*
X108602394Y-99214985D01*
X108607239Y-99205477D01*
X108610238Y-99207005D01*
X108637565Y-99169402D01*
X108695748Y-99150500D01*
X108966462Y-99150500D01*
X109001833Y-99158195D01*
X109001903Y-99157958D01*
X109005218Y-99158931D01*
X109007588Y-99159447D01*
X109008693Y-99159951D01*
X109008694Y-99159951D01*
X109008697Y-99159953D01*
X109122689Y-99193423D01*
X109146785Y-99200499D01*
X109146786Y-99200499D01*
X109146789Y-99200500D01*
X109146791Y-99200500D01*
X109290709Y-99200500D01*
X109290711Y-99200500D01*
X109374576Y-99175875D01*
X109435736Y-99177622D01*
X109484189Y-99214985D01*
X109490676Y-99225919D01*
X109528423Y-99300000D01*
X109544092Y-99330751D01*
X109637999Y-99424658D01*
X109756330Y-99484951D01*
X109822880Y-99495491D01*
X109854501Y-99500500D01*
X109854504Y-99500500D01*
X110357999Y-99500500D01*
X110386553Y-99495976D01*
X110456170Y-99484951D01*
X110574501Y-99424658D01*
X110668408Y-99330751D01*
X110728701Y-99212420D01*
X110744250Y-99114246D01*
X110744250Y-98478063D01*
X110763157Y-98419872D01*
X110812657Y-98383908D01*
X110843250Y-98379063D01*
X110904965Y-98379063D01*
X110904967Y-98379063D01*
X110947609Y-98366542D01*
X111008768Y-98368289D01*
X111057221Y-98405652D01*
X111074500Y-98461532D01*
X111074500Y-102714564D01*
X111094977Y-102790985D01*
X111094978Y-102790987D01*
X111094979Y-102790989D01*
X111109412Y-102815988D01*
X111134540Y-102859511D01*
X111965492Y-103690463D01*
X111965494Y-103690464D01*
X111965496Y-103690466D01*
X112034011Y-103730023D01*
X112034009Y-103730023D01*
X112034013Y-103730024D01*
X112034015Y-103730025D01*
X112110441Y-103750503D01*
X112189565Y-103750503D01*
X112402917Y-103750503D01*
X112461108Y-103769410D01*
X112477733Y-103784670D01*
X112518872Y-103832146D01*
X112588229Y-103876719D01*
X112634911Y-103906720D01*
X112639947Y-103909956D01*
X112727389Y-103935631D01*
X112778035Y-103950502D01*
X112778036Y-103950502D01*
X112778039Y-103950503D01*
X112778041Y-103950503D01*
X112921959Y-103950503D01*
X112921961Y-103950503D01*
X112972610Y-103935631D01*
X113033768Y-103937378D01*
X113082221Y-103974740D01*
X113099500Y-104030621D01*
X113099500Y-108084520D01*
X113080593Y-108142711D01*
X113070504Y-108154524D01*
X106917175Y-114307852D01*
X106862658Y-114335629D01*
X106806905Y-114328289D01*
X106772040Y-114312766D01*
X106772035Y-114312764D01*
X106772034Y-114312764D01*
X106772031Y-114312763D01*
X106772030Y-114312763D01*
X106725135Y-114302795D01*
X106592019Y-114274500D01*
X106407981Y-114274500D01*
X106310797Y-114295157D01*
X106227969Y-114312763D01*
X106227963Y-114312765D01*
X106059845Y-114387615D01*
X106059842Y-114387617D01*
X105910948Y-114495794D01*
X105787803Y-114632562D01*
X105787803Y-114632563D01*
X105695790Y-114791931D01*
X105695784Y-114791945D01*
X105638916Y-114966965D01*
X105619678Y-115150000D01*
X105638916Y-115333034D01*
X105695784Y-115508054D01*
X105695790Y-115508068D01*
X105768893Y-115634684D01*
X105787805Y-115667440D01*
X105910950Y-115804207D01*
X106059839Y-115912381D01*
X106059843Y-115912383D01*
X106059845Y-115912384D01*
X106123100Y-115940547D01*
X106166926Y-115960059D01*
X106212395Y-116001000D01*
X106225117Y-116060848D01*
X106200231Y-116116744D01*
X106147243Y-116147337D01*
X106126659Y-116149500D01*
X100002036Y-116149500D01*
X99997945Y-116149415D01*
X99578856Y-116132081D01*
X99570702Y-116131406D01*
X99156481Y-116079774D01*
X99148410Y-116078427D01*
X98739875Y-115992766D01*
X98731943Y-115990757D01*
X98331893Y-115871656D01*
X98324154Y-115869000D01*
X97935285Y-115717264D01*
X97927791Y-115713977D01*
X97832590Y-115667436D01*
X97552773Y-115530641D01*
X97545592Y-115526754D01*
X97370427Y-115422379D01*
X97187010Y-115313086D01*
X97180160Y-115308611D01*
X96840442Y-115066056D01*
X96833985Y-115061030D01*
X96515468Y-114791260D01*
X96509448Y-114785719D01*
X96214280Y-114490551D01*
X96208739Y-114484531D01*
X95938969Y-114166014D01*
X95933943Y-114159557D01*
X95691388Y-113819839D01*
X95686913Y-113812989D01*
X95546266Y-113576953D01*
X95473240Y-113454399D01*
X95469362Y-113447235D01*
X95286016Y-113072196D01*
X95282740Y-113064726D01*
X95132966Y-112680886D01*
X95130999Y-112675845D01*
X95128343Y-112668106D01*
X95081258Y-112509953D01*
X95009239Y-112268046D01*
X95007233Y-112260124D01*
X94921569Y-111851574D01*
X94920227Y-111843533D01*
X94868592Y-111429286D01*
X94867918Y-111421143D01*
X94850585Y-111002055D01*
X94850500Y-110997964D01*
X94850500Y-103510751D01*
X96074499Y-103510751D01*
X96074499Y-104089248D01*
X96077235Y-104106519D01*
X96090036Y-104187347D01*
X96090048Y-104187419D01*
X96090049Y-104187423D01*
X96132021Y-104269796D01*
X96150341Y-104305751D01*
X96244248Y-104399658D01*
X96362579Y-104459951D01*
X96429129Y-104470491D01*
X96460750Y-104475500D01*
X96460753Y-104475500D01*
X96964248Y-104475500D01*
X96992802Y-104470976D01*
X97062419Y-104459951D01*
X97180750Y-104399658D01*
X97243162Y-104337245D01*
X97297676Y-104309469D01*
X97327253Y-104309258D01*
X97328039Y-104309371D01*
X97328041Y-104309371D01*
X97471961Y-104309371D01*
X97471963Y-104309371D01*
X97610055Y-104268824D01*
X97610058Y-104268821D01*
X97615997Y-104267078D01*
X97677158Y-104268825D01*
X97719530Y-104300544D01*
X97719834Y-104300241D01*
X97721948Y-104302355D01*
X97723981Y-104303877D01*
X97725338Y-104305745D01*
X97725341Y-104305748D01*
X97725343Y-104305751D01*
X97819250Y-104399658D01*
X97937581Y-104459951D01*
X98004131Y-104470491D01*
X98035752Y-104475500D01*
X98035755Y-104475500D01*
X98539250Y-104475500D01*
X98567804Y-104470976D01*
X98637421Y-104459951D01*
X98755752Y-104399658D01*
X98849659Y-104305751D01*
X98850270Y-104304550D01*
X98851221Y-104303599D01*
X98854237Y-104299449D01*
X98854894Y-104299926D01*
X98893537Y-104261288D01*
X98938478Y-104250500D01*
X99154263Y-104250500D01*
X99212454Y-104269407D01*
X99242472Y-104304554D01*
X99244976Y-104309469D01*
X99246950Y-104313342D01*
X99336658Y-104403050D01*
X99449696Y-104460646D01*
X99543481Y-104475500D01*
X100006518Y-104475499D01*
X100006520Y-104475499D01*
X100006521Y-104475498D01*
X100053411Y-104468072D01*
X100100299Y-104460647D01*
X100100299Y-104460646D01*
X100100304Y-104460646D01*
X100213342Y-104403050D01*
X100303050Y-104313342D01*
X100360646Y-104200304D01*
X100375500Y-104106519D01*
X100375499Y-103493482D01*
X100367037Y-103440049D01*
X100360647Y-103399700D01*
X100360646Y-103399698D01*
X100360646Y-103399696D01*
X100303050Y-103286658D01*
X100213342Y-103196950D01*
X100100304Y-103139354D01*
X100100305Y-103139354D01*
X100006522Y-103124500D01*
X99543479Y-103124500D01*
X99543476Y-103124501D01*
X99449700Y-103139352D01*
X99449695Y-103139354D01*
X99336659Y-103196949D01*
X99246948Y-103286660D01*
X99242472Y-103295446D01*
X99199207Y-103338710D01*
X99154263Y-103349500D01*
X98938478Y-103349500D01*
X98880287Y-103330593D01*
X98854478Y-103300375D01*
X98854237Y-103300551D01*
X98852012Y-103297489D01*
X98850270Y-103295449D01*
X98849659Y-103294249D01*
X98755752Y-103200342D01*
X98749093Y-103196949D01*
X98637424Y-103140050D01*
X98637421Y-103140049D01*
X98612877Y-103136161D01*
X98539250Y-103124500D01*
X98539247Y-103124500D01*
X98035755Y-103124500D01*
X98035752Y-103124500D01*
X97937581Y-103140049D01*
X97937577Y-103140050D01*
X97819251Y-103200341D01*
X97725341Y-103294251D01*
X97725340Y-103294253D01*
X97723395Y-103298070D01*
X97680127Y-103341331D01*
X97619695Y-103350898D01*
X97607298Y-103348108D01*
X97471966Y-103308371D01*
X97471963Y-103308371D01*
X97329786Y-103308371D01*
X97271595Y-103289464D01*
X97259788Y-103279380D01*
X97180750Y-103200342D01*
X97174091Y-103196949D01*
X97062422Y-103140050D01*
X97062419Y-103140049D01*
X97037875Y-103136161D01*
X96964248Y-103124500D01*
X96964245Y-103124500D01*
X96460753Y-103124500D01*
X96460750Y-103124500D01*
X96362579Y-103140049D01*
X96362575Y-103140050D01*
X96244249Y-103200341D01*
X96150340Y-103294250D01*
X96090049Y-103412576D01*
X96090048Y-103412580D01*
X96074499Y-103510751D01*
X94850500Y-103510751D01*
X94850500Y-101910751D01*
X97649501Y-101910751D01*
X97649501Y-102489248D01*
X97665050Y-102587419D01*
X97665051Y-102587423D01*
X97697191Y-102650500D01*
X97725343Y-102705751D01*
X97819250Y-102799658D01*
X97919050Y-102850509D01*
X97936713Y-102859509D01*
X97937581Y-102859951D01*
X98004131Y-102870491D01*
X98035752Y-102875500D01*
X98035755Y-102875500D01*
X98539250Y-102875500D01*
X98567804Y-102870976D01*
X98637421Y-102859951D01*
X98755752Y-102799658D01*
X98849659Y-102705751D01*
X98850270Y-102704550D01*
X98851221Y-102703599D01*
X98854237Y-102699449D01*
X98854894Y-102699926D01*
X98893537Y-102661288D01*
X98938478Y-102650500D01*
X99154263Y-102650500D01*
X99212454Y-102669407D01*
X99242472Y-102704554D01*
X99246950Y-102713342D01*
X99336658Y-102803050D01*
X99449696Y-102860646D01*
X99543481Y-102875500D01*
X100006518Y-102875499D01*
X100006520Y-102875499D01*
X100006521Y-102875498D01*
X100060979Y-102866874D01*
X100100299Y-102860647D01*
X100100299Y-102860646D01*
X100100304Y-102860646D01*
X100213342Y-102803050D01*
X100303050Y-102713342D01*
X100360646Y-102600304D01*
X100375500Y-102506519D01*
X100375499Y-101893482D01*
X100375498Y-101893477D01*
X100824500Y-101893477D01*
X100824500Y-102506520D01*
X100824501Y-102506523D01*
X100839352Y-102600299D01*
X100839354Y-102600303D01*
X100839354Y-102600304D01*
X100896950Y-102713342D01*
X100922995Y-102739387D01*
X100950771Y-102793902D01*
X100943046Y-102850509D01*
X100939835Y-102857540D01*
X100939835Y-102857542D01*
X100919353Y-102999997D01*
X100919353Y-103000002D01*
X100939833Y-103142452D01*
X100939835Y-103142458D01*
X100943045Y-103149487D01*
X100950017Y-103210274D01*
X100922995Y-103260612D01*
X100896951Y-103286655D01*
X100896950Y-103286658D01*
X100839354Y-103399695D01*
X100824500Y-103493477D01*
X100824500Y-104106520D01*
X100824501Y-104106523D01*
X100839352Y-104200299D01*
X100839354Y-104200304D01*
X100896950Y-104313342D01*
X100986658Y-104403050D01*
X101099696Y-104460646D01*
X101193481Y-104475500D01*
X101656518Y-104475499D01*
X101656520Y-104475499D01*
X101656521Y-104475498D01*
X101703411Y-104468072D01*
X101750299Y-104460647D01*
X101750299Y-104460646D01*
X101750304Y-104460646D01*
X101863342Y-104403050D01*
X101953050Y-104313342D01*
X102010646Y-104200304D01*
X102025500Y-104106519D01*
X102025499Y-103493482D01*
X102017037Y-103440049D01*
X102010647Y-103399700D01*
X102010646Y-103399698D01*
X102010646Y-103399696D01*
X101953050Y-103286658D01*
X101927003Y-103260611D01*
X101899228Y-103206097D01*
X101906958Y-103149479D01*
X101910165Y-103142457D01*
X101930647Y-103000000D01*
X101927196Y-102976000D01*
X101910166Y-102857547D01*
X101910165Y-102857545D01*
X101910165Y-102857543D01*
X101906954Y-102850513D01*
X101899981Y-102789728D01*
X101927007Y-102739384D01*
X101953050Y-102713342D01*
X102010646Y-102600304D01*
X102025500Y-102506519D01*
X102025499Y-101893482D01*
X102017423Y-101842487D01*
X102010647Y-101799700D01*
X102010646Y-101799698D01*
X102010646Y-101799696D01*
X101953050Y-101686658D01*
X101863342Y-101596950D01*
X101750304Y-101539354D01*
X101750305Y-101539354D01*
X101656522Y-101524500D01*
X101193479Y-101524500D01*
X101193476Y-101524501D01*
X101099700Y-101539352D01*
X101099695Y-101539354D01*
X100986659Y-101596949D01*
X100896949Y-101686659D01*
X100839354Y-101799695D01*
X100824500Y-101893477D01*
X100375498Y-101893477D01*
X100367423Y-101842487D01*
X100360647Y-101799700D01*
X100360646Y-101799698D01*
X100360646Y-101799696D01*
X100303050Y-101686658D01*
X100213342Y-101596950D01*
X100100304Y-101539354D01*
X100100305Y-101539354D01*
X100006522Y-101524500D01*
X99543479Y-101524500D01*
X99543476Y-101524501D01*
X99449700Y-101539352D01*
X99449695Y-101539354D01*
X99336659Y-101596949D01*
X99246948Y-101686660D01*
X99242472Y-101695446D01*
X99199207Y-101738710D01*
X99154263Y-101749500D01*
X98938478Y-101749500D01*
X98880287Y-101730593D01*
X98854478Y-101700375D01*
X98854237Y-101700551D01*
X98852012Y-101697489D01*
X98850270Y-101695449D01*
X98849659Y-101694249D01*
X98755752Y-101600342D01*
X98749093Y-101596949D01*
X98637424Y-101540050D01*
X98637421Y-101540049D01*
X98612877Y-101536161D01*
X98539250Y-101524500D01*
X98539247Y-101524500D01*
X98035755Y-101524500D01*
X98035752Y-101524500D01*
X97937581Y-101540049D01*
X97937577Y-101540050D01*
X97819251Y-101600341D01*
X97725342Y-101694250D01*
X97665051Y-101812576D01*
X97665050Y-101812580D01*
X97649501Y-101910751D01*
X94850500Y-101910751D01*
X94850500Y-93180253D01*
X96399500Y-93180253D01*
X96399500Y-95219746D01*
X96399501Y-95219758D01*
X96402633Y-95235501D01*
X96411133Y-95278231D01*
X96455448Y-95344552D01*
X96521769Y-95388867D01*
X96566231Y-95397711D01*
X96580241Y-95400498D01*
X96580246Y-95400498D01*
X96580252Y-95400500D01*
X96580253Y-95400500D01*
X98619747Y-95400500D01*
X98619748Y-95400500D01*
X98678231Y-95388867D01*
X98744552Y-95344552D01*
X98788867Y-95278231D01*
X98800500Y-95219748D01*
X98800500Y-93180252D01*
X98788867Y-93121769D01*
X98744552Y-93055448D01*
X98743885Y-93055002D01*
X98678233Y-93011134D01*
X98678231Y-93011133D01*
X98678228Y-93011132D01*
X98678227Y-93011132D01*
X98619758Y-92999501D01*
X98619748Y-92999500D01*
X96580252Y-92999500D01*
X96580251Y-92999500D01*
X96580241Y-92999501D01*
X96521772Y-93011132D01*
X96521766Y-93011134D01*
X96455451Y-93055445D01*
X96455445Y-93055451D01*
X96411134Y-93121766D01*
X96411132Y-93121772D01*
X96399501Y-93180241D01*
X96399500Y-93180253D01*
X94850500Y-93180253D01*
X94850500Y-86681740D01*
X110899500Y-86681740D01*
X110899500Y-87048260D01*
X110906118Y-87093682D01*
X110909427Y-87116395D01*
X110947609Y-87194496D01*
X110960802Y-87221483D01*
X111043517Y-87304198D01*
X111097285Y-87330483D01*
X111148604Y-87355572D01*
X111148605Y-87355572D01*
X111148607Y-87355573D01*
X111216740Y-87365500D01*
X111216743Y-87365500D01*
X112583257Y-87365500D01*
X112583260Y-87365500D01*
X112651393Y-87355573D01*
X112756483Y-87304198D01*
X112839198Y-87221483D01*
X112839423Y-87221021D01*
X112839819Y-87220612D01*
X112843965Y-87214806D01*
X112844835Y-87215427D01*
X112881965Y-87177047D01*
X112928365Y-87165500D01*
X114299521Y-87165500D01*
X114357712Y-87184407D01*
X114369525Y-87194496D01*
X115979252Y-88804223D01*
X116007029Y-88858740D01*
X115997458Y-88919172D01*
X115962772Y-88957511D01*
X115868872Y-89017857D01*
X115774621Y-89126628D01*
X115732583Y-89218678D01*
X115691210Y-89263756D01*
X115631243Y-89275906D01*
X115575588Y-89250487D01*
X115572526Y-89247555D01*
X114899169Y-88574198D01*
X114219511Y-87894540D01*
X114219508Y-87894538D01*
X114219507Y-87894537D01*
X114200576Y-87883608D01*
X114200576Y-87883607D01*
X114200572Y-87883606D01*
X114169136Y-87865456D01*
X114150988Y-87854978D01*
X114074564Y-87834500D01*
X114074562Y-87834500D01*
X112928365Y-87834500D01*
X112870174Y-87815593D01*
X112844389Y-87784891D01*
X112843965Y-87785194D01*
X112840115Y-87779802D01*
X112839423Y-87778978D01*
X112839198Y-87778518D01*
X112839198Y-87778517D01*
X112756483Y-87695802D01*
X112756481Y-87695801D01*
X112651395Y-87644427D01*
X112624139Y-87640456D01*
X112583260Y-87634500D01*
X111216740Y-87634500D01*
X111182673Y-87639463D01*
X111148604Y-87644427D01*
X111043518Y-87695801D01*
X110960801Y-87778518D01*
X110909427Y-87883604D01*
X110907834Y-87894537D01*
X110899500Y-87951740D01*
X110899500Y-88318260D01*
X110906118Y-88363682D01*
X110909427Y-88386395D01*
X110947609Y-88464496D01*
X110960802Y-88491483D01*
X111043517Y-88574198D01*
X111071899Y-88588073D01*
X111148604Y-88625572D01*
X111148605Y-88625572D01*
X111148607Y-88625573D01*
X111216740Y-88635500D01*
X111216743Y-88635500D01*
X112583257Y-88635500D01*
X112583260Y-88635500D01*
X112651393Y-88625573D01*
X112756483Y-88574198D01*
X112839198Y-88491483D01*
X112839423Y-88491021D01*
X112839819Y-88490612D01*
X112843965Y-88484806D01*
X112844835Y-88485427D01*
X112881965Y-88447047D01*
X112928365Y-88435500D01*
X113869521Y-88435500D01*
X113927712Y-88454407D01*
X113939525Y-88464496D01*
X114376839Y-88901810D01*
X114404616Y-88956327D01*
X114395045Y-89016759D01*
X114360359Y-89055098D01*
X114279963Y-89106766D01*
X114185713Y-89215537D01*
X114125925Y-89346452D01*
X114105444Y-89488906D01*
X114105444Y-89488911D01*
X114125925Y-89631365D01*
X114159832Y-89705610D01*
X114185714Y-89762282D01*
X114276956Y-89867582D01*
X114284600Y-89876403D01*
X114282562Y-89878168D01*
X114308016Y-89920367D01*
X114310591Y-89942802D01*
X114310591Y-90657142D01*
X114308245Y-90657142D01*
X114298965Y-90707208D01*
X114254582Y-90749325D01*
X114193920Y-90757310D01*
X114140150Y-90728114D01*
X114137144Y-90724799D01*
X114131129Y-90717858D01*
X114131127Y-90717856D01*
X114010057Y-90640049D01*
X114010054Y-90640047D01*
X114010053Y-90640047D01*
X114010050Y-90640046D01*
X113871964Y-90599500D01*
X113871961Y-90599500D01*
X113728039Y-90599500D01*
X113728035Y-90599500D01*
X113589949Y-90640046D01*
X113589942Y-90640049D01*
X113468873Y-90717855D01*
X113374622Y-90826628D01*
X113314834Y-90957543D01*
X113294353Y-91099997D01*
X113294353Y-91100002D01*
X113314834Y-91242456D01*
X113341113Y-91299997D01*
X113374623Y-91373373D01*
X113425320Y-91431880D01*
X113449137Y-91488238D01*
X113449500Y-91496710D01*
X113449500Y-91541675D01*
X113441967Y-91579555D01*
X113439759Y-91584885D01*
X113424501Y-91661588D01*
X113424500Y-91661600D01*
X113424500Y-92463397D01*
X113424501Y-92463404D01*
X113439759Y-92540116D01*
X113439760Y-92540118D01*
X113473390Y-92590448D01*
X113497888Y-92627112D01*
X113584883Y-92685240D01*
X113661599Y-92700500D01*
X113838400Y-92700499D01*
X113915117Y-92685240D01*
X113944998Y-92665273D01*
X114003886Y-92648665D01*
X114055002Y-92665274D01*
X114084879Y-92685238D01*
X114084880Y-92685238D01*
X114084883Y-92685240D01*
X114161599Y-92700500D01*
X114338400Y-92700499D01*
X114415117Y-92685240D01*
X114444998Y-92665273D01*
X114503886Y-92648665D01*
X114555002Y-92665274D01*
X114584879Y-92685238D01*
X114584880Y-92685238D01*
X114584883Y-92685240D01*
X114661599Y-92700500D01*
X114838400Y-92700499D01*
X114915117Y-92685240D01*
X114944998Y-92665273D01*
X115003886Y-92648665D01*
X115055002Y-92665274D01*
X115084879Y-92685238D01*
X115084880Y-92685238D01*
X115084883Y-92685240D01*
X115161599Y-92700500D01*
X115338400Y-92700499D01*
X115415117Y-92685240D01*
X115444998Y-92665273D01*
X115503886Y-92648665D01*
X115555002Y-92665274D01*
X115584879Y-92685238D01*
X115584880Y-92685238D01*
X115584883Y-92685240D01*
X115661599Y-92700500D01*
X115838400Y-92700499D01*
X115915117Y-92685240D01*
X115944998Y-92665273D01*
X116003886Y-92648665D01*
X116055002Y-92665274D01*
X116084879Y-92685238D01*
X116084880Y-92685238D01*
X116084883Y-92685240D01*
X116161599Y-92700500D01*
X116338400Y-92700499D01*
X116415117Y-92685240D01*
X116444998Y-92665273D01*
X116503886Y-92648665D01*
X116555002Y-92665274D01*
X116584879Y-92685238D01*
X116584880Y-92685238D01*
X116584883Y-92685240D01*
X116661599Y-92700500D01*
X116838400Y-92700499D01*
X116915117Y-92685240D01*
X116944998Y-92665273D01*
X117003886Y-92648665D01*
X117055002Y-92665274D01*
X117084879Y-92685238D01*
X117084880Y-92685238D01*
X117084883Y-92685240D01*
X117161599Y-92700500D01*
X117338400Y-92700499D01*
X117415117Y-92685240D01*
X117444998Y-92665273D01*
X117503886Y-92648665D01*
X117555002Y-92665274D01*
X117584879Y-92685238D01*
X117584880Y-92685238D01*
X117584883Y-92685240D01*
X117661599Y-92700500D01*
X117838400Y-92700499D01*
X117915117Y-92685240D01*
X117944998Y-92665273D01*
X118003886Y-92648665D01*
X118055002Y-92665274D01*
X118084879Y-92685238D01*
X118084880Y-92685238D01*
X118084883Y-92685240D01*
X118161599Y-92700500D01*
X118200500Y-92700499D01*
X118258689Y-92719405D01*
X118294654Y-92768904D01*
X118299500Y-92799497D01*
X118299500Y-92838396D01*
X118299501Y-92838404D01*
X118314759Y-92915116D01*
X118314760Y-92915118D01*
X118356491Y-92977572D01*
X118372888Y-93002112D01*
X118459883Y-93060240D01*
X118536599Y-93075500D01*
X118785017Y-93075499D01*
X118810638Y-93078871D01*
X118891356Y-93100500D01*
X118891358Y-93100500D01*
X118983642Y-93100500D01*
X118983644Y-93100500D01*
X119064363Y-93078871D01*
X119089981Y-93075499D01*
X119338398Y-93075499D01*
X119338400Y-93075499D01*
X119415117Y-93060240D01*
X119502112Y-93002112D01*
X119560240Y-92915117D01*
X119575500Y-92838401D01*
X119575499Y-92661600D01*
X119560240Y-92584883D01*
X119502112Y-92497888D01*
X119502108Y-92497885D01*
X119502107Y-92497884D01*
X119423607Y-92445432D01*
X119385727Y-92397383D01*
X119383325Y-92336244D01*
X119403789Y-92298286D01*
X119419415Y-92280252D01*
X119425376Y-92273373D01*
X119485164Y-92142457D01*
X119485163Y-92142457D01*
X119485165Y-92142455D01*
X119502630Y-92020977D01*
X119529625Y-91966069D01*
X119530551Y-91965128D01*
X119676964Y-91818715D01*
X119731479Y-91790940D01*
X119791911Y-91800511D01*
X119816966Y-91818714D01*
X119896780Y-91898528D01*
X119896782Y-91898529D01*
X120016867Y-91959716D01*
X120016869Y-91959716D01*
X120016874Y-91959719D01*
X120092541Y-91971703D01*
X120116510Y-91975500D01*
X120116512Y-91975500D01*
X120683490Y-91975500D01*
X120704885Y-91972111D01*
X120783126Y-91959719D01*
X120903220Y-91898528D01*
X120998528Y-91803220D01*
X121059719Y-91683126D01*
X121075279Y-91584883D01*
X121075500Y-91583489D01*
X121075500Y-91066510D01*
X121071703Y-91042541D01*
X121059719Y-90966874D01*
X121059716Y-90966869D01*
X121059716Y-90966867D01*
X120998529Y-90846782D01*
X120998528Y-90846780D01*
X120903220Y-90751472D01*
X120864137Y-90731558D01*
X120820874Y-90688295D01*
X120811303Y-90627863D01*
X120834265Y-90578519D01*
X120834977Y-90577697D01*
X120925374Y-90473373D01*
X120985162Y-90342457D01*
X121005644Y-90200000D01*
X120994873Y-90125088D01*
X120985162Y-90057543D01*
X120980210Y-90046700D01*
X120925374Y-89926627D01*
X120893489Y-89889829D01*
X120869673Y-89833471D01*
X120883532Y-89773876D01*
X120893484Y-89760176D01*
X120925377Y-89723371D01*
X120985165Y-89592455D01*
X121000053Y-89488906D01*
X121005647Y-89450000D01*
X121005647Y-89449995D01*
X120985165Y-89307541D01*
X120944582Y-89218678D01*
X120925377Y-89176625D01*
X120831128Y-89067855D01*
X120831127Y-89067854D01*
X120831126Y-89067853D01*
X120710057Y-88990047D01*
X120710054Y-88990045D01*
X120710053Y-88990045D01*
X120710050Y-88990044D01*
X120571964Y-88949498D01*
X120571961Y-88949498D01*
X120428039Y-88949498D01*
X120428035Y-88949498D01*
X120289949Y-88990044D01*
X120289947Y-88990045D01*
X120168759Y-89067927D01*
X120109583Y-89083480D01*
X120052567Y-89061282D01*
X120045539Y-89053776D01*
X120044998Y-89054318D01*
X120039198Y-89048518D01*
X120039198Y-89048517D01*
X119956483Y-88965802D01*
X119955843Y-88965489D01*
X119851395Y-88914427D01*
X119824139Y-88910456D01*
X119783260Y-88904500D01*
X118416740Y-88904500D01*
X118382673Y-88909463D01*
X118348604Y-88914427D01*
X118243518Y-88965801D01*
X118243514Y-88965803D01*
X118222873Y-88986445D01*
X118168356Y-89014221D01*
X118107924Y-89004649D01*
X118099352Y-88999726D01*
X118078686Y-88986445D01*
X118057139Y-88972597D01*
X118018409Y-88925230D01*
X118014917Y-88864144D01*
X118040658Y-88819312D01*
X118221918Y-88638052D01*
X118276433Y-88610277D01*
X118335400Y-88619117D01*
X118348604Y-88625572D01*
X118348605Y-88625572D01*
X118348607Y-88625573D01*
X118416740Y-88635500D01*
X118416743Y-88635500D01*
X119783257Y-88635500D01*
X119783260Y-88635500D01*
X119851393Y-88625573D01*
X119956483Y-88574198D01*
X120039198Y-88491483D01*
X120090573Y-88386393D01*
X120100500Y-88318260D01*
X120100500Y-87951740D01*
X120090573Y-87883607D01*
X120039198Y-87778517D01*
X119956483Y-87695802D01*
X119956481Y-87695801D01*
X119851395Y-87644427D01*
X119824139Y-87640456D01*
X119783260Y-87634500D01*
X118416740Y-87634500D01*
X118382673Y-87639463D01*
X118348604Y-87644427D01*
X118243518Y-87695801D01*
X118160801Y-87778518D01*
X118109425Y-87883611D01*
X118109066Y-87884773D01*
X118107961Y-87886604D01*
X118106051Y-87890513D01*
X118105706Y-87890344D01*
X118084485Y-87925543D01*
X117087503Y-88922525D01*
X117032986Y-88950302D01*
X116972554Y-88940731D01*
X116947493Y-88922522D01*
X116934511Y-88909539D01*
X116934511Y-88909540D01*
X114924968Y-86899997D01*
X117394353Y-86899997D01*
X117394353Y-86900002D01*
X117414834Y-87042456D01*
X117471027Y-87165500D01*
X117474623Y-87173373D01*
X117568872Y-87282143D01*
X117568873Y-87282144D01*
X117689942Y-87359950D01*
X117689947Y-87359953D01*
X117796403Y-87391211D01*
X117828035Y-87400499D01*
X117828036Y-87400499D01*
X117828039Y-87400500D01*
X117828041Y-87400500D01*
X117971959Y-87400500D01*
X117971961Y-87400500D01*
X118110053Y-87359953D01*
X118170080Y-87321375D01*
X118229253Y-87305820D01*
X118267083Y-87315718D01*
X118348607Y-87355573D01*
X118416740Y-87365500D01*
X118416743Y-87365500D01*
X119783257Y-87365500D01*
X119783260Y-87365500D01*
X119851393Y-87355573D01*
X119956483Y-87304198D01*
X120039198Y-87221483D01*
X120090573Y-87116393D01*
X120100500Y-87048260D01*
X120100500Y-86681740D01*
X120090573Y-86613607D01*
X120039198Y-86508517D01*
X119956483Y-86425802D01*
X119956481Y-86425801D01*
X119851395Y-86374427D01*
X119824139Y-86370456D01*
X119783260Y-86364500D01*
X118416740Y-86364500D01*
X118382673Y-86369463D01*
X118348604Y-86374427D01*
X118243515Y-86425802D01*
X118239038Y-86430280D01*
X118184520Y-86458055D01*
X118124089Y-86448480D01*
X118115519Y-86443560D01*
X118110053Y-86440047D01*
X118110050Y-86440046D01*
X117971964Y-86399500D01*
X117971961Y-86399500D01*
X117828039Y-86399500D01*
X117828035Y-86399500D01*
X117689949Y-86440046D01*
X117689942Y-86440049D01*
X117568873Y-86517855D01*
X117474622Y-86626628D01*
X117414834Y-86757543D01*
X117394353Y-86899997D01*
X114924968Y-86899997D01*
X114649511Y-86624540D01*
X114630569Y-86613604D01*
X114606139Y-86599499D01*
X114606138Y-86599499D01*
X114580988Y-86584978D01*
X114504564Y-86564500D01*
X114504562Y-86564500D01*
X112928365Y-86564500D01*
X112870174Y-86545593D01*
X112844389Y-86514891D01*
X112843965Y-86515194D01*
X112840115Y-86509802D01*
X112839423Y-86508978D01*
X112839198Y-86508518D01*
X112839198Y-86508517D01*
X112756483Y-86425802D01*
X112756481Y-86425801D01*
X112651395Y-86374427D01*
X112624139Y-86370456D01*
X112583260Y-86364500D01*
X111216740Y-86364500D01*
X111182673Y-86369463D01*
X111148604Y-86374427D01*
X111043518Y-86425801D01*
X110960801Y-86508518D01*
X110909427Y-86613604D01*
X110909427Y-86613607D01*
X110899500Y-86681740D01*
X94850500Y-86681740D01*
X94850500Y-85411740D01*
X110899500Y-85411740D01*
X110899500Y-85778260D01*
X110906118Y-85823682D01*
X110909427Y-85846395D01*
X110960801Y-85951481D01*
X110960802Y-85951483D01*
X111043517Y-86034198D01*
X111066636Y-86045500D01*
X111148604Y-86085572D01*
X111148605Y-86085572D01*
X111148607Y-86085573D01*
X111216740Y-86095500D01*
X111216743Y-86095500D01*
X112583257Y-86095500D01*
X112583260Y-86095500D01*
X112651393Y-86085573D01*
X112756483Y-86034198D01*
X112756483Y-86034197D01*
X112759428Y-86032758D01*
X112820010Y-86024186D01*
X112856429Y-86038412D01*
X112889947Y-86059953D01*
X112977202Y-86085573D01*
X113028035Y-86100499D01*
X113028036Y-86100499D01*
X113028039Y-86100500D01*
X113028041Y-86100500D01*
X113171959Y-86100500D01*
X113171961Y-86100500D01*
X113310053Y-86059953D01*
X113431128Y-85982143D01*
X113525377Y-85873373D01*
X113585165Y-85742457D01*
X113605647Y-85600000D01*
X113605647Y-85599997D01*
X117394353Y-85599997D01*
X117394353Y-85600002D01*
X117414834Y-85742456D01*
X117462302Y-85846395D01*
X117474623Y-85873373D01*
X117542305Y-85951483D01*
X117568873Y-85982144D01*
X117685369Y-86057011D01*
X117689947Y-86059953D01*
X117777202Y-86085573D01*
X117828035Y-86100499D01*
X117828036Y-86100499D01*
X117828039Y-86100500D01*
X117828041Y-86100500D01*
X117971959Y-86100500D01*
X117971961Y-86100500D01*
X118110053Y-86059953D01*
X118110060Y-86059948D01*
X118116494Y-86057011D01*
X118117193Y-86058542D01*
X118161611Y-86045500D01*
X118243732Y-86045500D01*
X118287212Y-86055559D01*
X118348607Y-86085573D01*
X118416740Y-86095500D01*
X118416743Y-86095500D01*
X119783257Y-86095500D01*
X119783260Y-86095500D01*
X119851393Y-86085573D01*
X119956483Y-86034198D01*
X120039198Y-85951483D01*
X120090573Y-85846393D01*
X120100500Y-85778260D01*
X120100500Y-85411740D01*
X120090573Y-85343607D01*
X120039198Y-85238517D01*
X119956483Y-85155802D01*
X119956481Y-85155801D01*
X119851395Y-85104427D01*
X119817577Y-85099500D01*
X119783260Y-85094500D01*
X118416740Y-85094500D01*
X118348607Y-85104427D01*
X118287212Y-85134441D01*
X118243732Y-85144500D01*
X118139452Y-85144500D01*
X118111561Y-85140490D01*
X118110053Y-85140047D01*
X118084032Y-85132406D01*
X117971964Y-85099500D01*
X117971961Y-85099500D01*
X117828039Y-85099500D01*
X117828035Y-85099500D01*
X117689949Y-85140046D01*
X117689942Y-85140049D01*
X117568873Y-85217855D01*
X117474622Y-85326628D01*
X117414834Y-85457543D01*
X117394353Y-85599997D01*
X113605647Y-85599997D01*
X113585165Y-85457543D01*
X113525377Y-85326627D01*
X113431128Y-85217857D01*
X113431127Y-85217856D01*
X113431126Y-85217855D01*
X113310057Y-85140049D01*
X113310054Y-85140047D01*
X113310053Y-85140047D01*
X113310050Y-85140046D01*
X113171964Y-85099500D01*
X113171961Y-85099500D01*
X113028039Y-85099500D01*
X113021824Y-85099500D01*
X112963633Y-85080593D01*
X112927669Y-85031093D01*
X112927669Y-84969907D01*
X112931771Y-84959373D01*
X112985165Y-84842456D01*
X113005647Y-84700002D01*
X113005647Y-84699997D01*
X112985165Y-84557543D01*
X112983171Y-84550750D01*
X112986485Y-84549776D01*
X112980997Y-84503401D01*
X112995780Y-84467714D01*
X113025480Y-84423265D01*
X113038867Y-84403231D01*
X113050500Y-84344748D01*
X113050500Y-83255252D01*
X113038867Y-83196769D01*
X112994552Y-83130448D01*
X112992185Y-83126905D01*
X112975500Y-83071903D01*
X112975500Y-80378096D01*
X112992185Y-80323094D01*
X112997067Y-80315788D01*
X113038867Y-80253231D01*
X113050500Y-80194748D01*
X113050500Y-79105252D01*
X113050499Y-79105250D01*
X113050499Y-79105244D01*
X113044984Y-79077524D01*
X113038867Y-79046769D01*
X113038866Y-79046767D01*
X113036990Y-79037337D01*
X113044180Y-78976576D01*
X113064081Y-78948021D01*
X113207607Y-78804496D01*
X113262124Y-78776719D01*
X113277610Y-78775500D01*
X113533490Y-78775500D01*
X113554885Y-78772111D01*
X113633126Y-78759719D01*
X113753220Y-78698528D01*
X113848528Y-78603220D01*
X113848531Y-78603215D01*
X113853110Y-78596914D01*
X113854487Y-78597915D01*
X113891114Y-78561290D01*
X113936058Y-78550500D01*
X114054263Y-78550500D01*
X114112454Y-78569407D01*
X114142472Y-78604554D01*
X114144210Y-78607966D01*
X114146950Y-78613342D01*
X114236658Y-78703050D01*
X114349696Y-78760646D01*
X114443481Y-78775500D01*
X114906518Y-78775499D01*
X114906520Y-78775499D01*
X114906521Y-78775498D01*
X114953411Y-78768072D01*
X115000299Y-78760647D01*
X115000299Y-78760646D01*
X115000304Y-78760646D01*
X115113342Y-78703050D01*
X115203050Y-78613342D01*
X115203983Y-78611509D01*
X115205436Y-78610055D01*
X115207628Y-78607040D01*
X115208105Y-78607386D01*
X115247244Y-78568244D01*
X115307676Y-78558669D01*
X115320072Y-78561457D01*
X115453039Y-78600500D01*
X115453041Y-78600500D01*
X115596959Y-78600500D01*
X115596961Y-78600500D01*
X115687137Y-78574022D01*
X115748294Y-78575769D01*
X115791306Y-78607966D01*
X115791441Y-78607832D01*
X115792378Y-78608769D01*
X115795119Y-78610821D01*
X115796948Y-78613339D01*
X115796950Y-78613342D01*
X115845505Y-78661897D01*
X115873281Y-78716412D01*
X115874500Y-78731899D01*
X115874500Y-78921903D01*
X115857815Y-78976905D01*
X115811134Y-79046766D01*
X115811132Y-79046772D01*
X115799501Y-79105241D01*
X115799500Y-79105253D01*
X115799500Y-80194746D01*
X115799501Y-80194758D01*
X115811132Y-80253227D01*
X115811134Y-80253233D01*
X115852933Y-80315788D01*
X115869542Y-80374676D01*
X115860672Y-80411916D01*
X115839833Y-80457545D01*
X115819353Y-80599997D01*
X115819353Y-80600002D01*
X115839833Y-80742454D01*
X115853286Y-80771911D01*
X115865553Y-80798771D01*
X115874500Y-80839897D01*
X115874500Y-81460102D01*
X115865553Y-81501229D01*
X115839834Y-81557543D01*
X115819353Y-81699997D01*
X115819353Y-81700002D01*
X115839833Y-81842454D01*
X115853286Y-81871911D01*
X115865553Y-81898771D01*
X115874500Y-81939897D01*
X115874500Y-82560102D01*
X115865553Y-82601229D01*
X115839834Y-82657543D01*
X115819353Y-82799997D01*
X115819353Y-82800002D01*
X115839833Y-82942454D01*
X115853286Y-82971911D01*
X115865553Y-82998771D01*
X115874500Y-83039897D01*
X115874500Y-83071903D01*
X115857815Y-83126905D01*
X115811134Y-83196766D01*
X115811132Y-83196772D01*
X115799501Y-83255241D01*
X115799500Y-83255253D01*
X115799500Y-84344746D01*
X115799501Y-84344758D01*
X115811132Y-84403227D01*
X115811134Y-84403233D01*
X115854220Y-84467714D01*
X115855448Y-84469552D01*
X115921769Y-84513867D01*
X115966231Y-84522711D01*
X115980241Y-84525498D01*
X115980246Y-84525498D01*
X115980252Y-84525500D01*
X115980253Y-84525500D01*
X116669747Y-84525500D01*
X116669748Y-84525500D01*
X116728231Y-84513867D01*
X116794552Y-84469552D01*
X116838867Y-84403231D01*
X116850500Y-84344748D01*
X116850500Y-83255252D01*
X116838867Y-83196769D01*
X116794552Y-83130448D01*
X116792185Y-83126905D01*
X116775500Y-83071903D01*
X116775500Y-83039897D01*
X116784446Y-82998771D01*
X116810165Y-82942457D01*
X116810165Y-82942455D01*
X116810166Y-82942454D01*
X116830647Y-82800002D01*
X116830647Y-82799997D01*
X116810165Y-82657543D01*
X116784447Y-82601229D01*
X116775500Y-82560102D01*
X116775500Y-81939897D01*
X116784446Y-81898771D01*
X116810165Y-81842457D01*
X116810165Y-81842455D01*
X116810166Y-81842454D01*
X116830647Y-81700002D01*
X116830647Y-81699997D01*
X116810165Y-81557543D01*
X116784447Y-81501229D01*
X116775500Y-81460102D01*
X116775500Y-80839897D01*
X116784446Y-80798771D01*
X116810165Y-80742457D01*
X116810165Y-80742455D01*
X116810166Y-80742454D01*
X116830647Y-80600002D01*
X116830647Y-80599997D01*
X116810165Y-80457544D01*
X116789328Y-80411917D01*
X116782353Y-80351131D01*
X116797063Y-80315793D01*
X116838867Y-80253231D01*
X116850500Y-80194748D01*
X116850500Y-79105252D01*
X116838867Y-79046769D01*
X116809413Y-79002689D01*
X116792185Y-78976905D01*
X116775500Y-78921903D01*
X116775500Y-78731899D01*
X116794407Y-78673708D01*
X116804490Y-78661901D01*
X116853050Y-78613342D01*
X116885070Y-78550500D01*
X116911791Y-78498058D01*
X116955055Y-78454793D01*
X117015487Y-78445222D01*
X117070004Y-78473000D01*
X117088209Y-78498058D01*
X117145275Y-78610055D01*
X117146950Y-78613342D01*
X117236658Y-78703050D01*
X117349696Y-78760646D01*
X117443481Y-78775500D01*
X117672387Y-78775499D01*
X117730577Y-78794406D01*
X117742391Y-78804495D01*
X117927619Y-78989723D01*
X117955396Y-79044240D01*
X117954713Y-79079039D01*
X117949500Y-79105244D01*
X117949500Y-80194746D01*
X117949501Y-80194758D01*
X117961132Y-80253227D01*
X117961134Y-80253233D01*
X118007815Y-80323094D01*
X118024500Y-80378096D01*
X118024500Y-83071903D01*
X118007815Y-83126905D01*
X117961134Y-83196766D01*
X117961132Y-83196771D01*
X117952505Y-83240139D01*
X117922607Y-83293522D01*
X117867041Y-83319136D01*
X117827517Y-83315812D01*
X117771964Y-83299500D01*
X117771961Y-83299500D01*
X117628039Y-83299500D01*
X117628035Y-83299500D01*
X117489949Y-83340046D01*
X117489942Y-83340049D01*
X117368873Y-83417855D01*
X117274622Y-83526628D01*
X117214834Y-83657543D01*
X117194353Y-83799997D01*
X117194353Y-83800002D01*
X117214834Y-83942456D01*
X117274622Y-84073371D01*
X117274623Y-84073373D01*
X117368872Y-84182143D01*
X117368873Y-84182144D01*
X117450500Y-84234602D01*
X117489947Y-84259953D01*
X117596403Y-84291211D01*
X117628035Y-84300499D01*
X117628036Y-84300499D01*
X117628039Y-84300500D01*
X117628041Y-84300500D01*
X117771959Y-84300500D01*
X117771961Y-84300500D01*
X117827518Y-84284187D01*
X117888676Y-84285934D01*
X117937129Y-84323297D01*
X117952505Y-84359861D01*
X117961132Y-84403227D01*
X117961134Y-84403233D01*
X118004220Y-84467714D01*
X118005448Y-84469552D01*
X118071769Y-84513867D01*
X118116231Y-84522711D01*
X118130241Y-84525498D01*
X118130246Y-84525498D01*
X118130252Y-84525500D01*
X118130253Y-84525500D01*
X118819747Y-84525500D01*
X118819748Y-84525500D01*
X118878231Y-84513867D01*
X118944552Y-84469552D01*
X118988867Y-84403231D01*
X119000500Y-84344748D01*
X119000500Y-83255252D01*
X118988867Y-83196769D01*
X118944552Y-83130448D01*
X118942185Y-83126905D01*
X118925500Y-83071903D01*
X118925500Y-80378096D01*
X118942185Y-80323094D01*
X118947067Y-80315788D01*
X118988867Y-80253231D01*
X119000500Y-80194748D01*
X119000500Y-79105252D01*
X118988867Y-79046769D01*
X118959413Y-79002689D01*
X118942185Y-78976905D01*
X118925500Y-78921903D01*
X118925500Y-78840692D01*
X118915801Y-78804496D01*
X118894799Y-78726114D01*
X118894799Y-78726113D01*
X118835490Y-78623386D01*
X118304494Y-78092391D01*
X118276718Y-78037875D01*
X118275499Y-78022388D01*
X118275499Y-77793478D01*
X118275498Y-77793476D01*
X118260647Y-77699700D01*
X118260646Y-77699698D01*
X118260646Y-77699696D01*
X118203050Y-77586658D01*
X118113342Y-77496950D01*
X118000304Y-77439354D01*
X118000305Y-77439354D01*
X117906522Y-77424500D01*
X117443479Y-77424500D01*
X117443476Y-77424501D01*
X117349700Y-77439352D01*
X117349695Y-77439354D01*
X117236659Y-77496949D01*
X117146949Y-77586659D01*
X117088209Y-77701942D01*
X117044944Y-77745206D01*
X116984512Y-77754777D01*
X116929996Y-77726999D01*
X116911791Y-77701942D01*
X116872659Y-77625143D01*
X116853050Y-77586658D01*
X116763342Y-77496950D01*
X116650304Y-77439354D01*
X116650305Y-77439354D01*
X116556522Y-77424500D01*
X116093479Y-77424500D01*
X116093476Y-77424501D01*
X115999700Y-77439352D01*
X115999695Y-77439354D01*
X115886659Y-77496949D01*
X115796947Y-77586661D01*
X115795116Y-77589182D01*
X115792597Y-77591011D01*
X115791441Y-77592168D01*
X115791257Y-77591984D01*
X115745614Y-77625143D01*
X115687135Y-77625977D01*
X115596964Y-77599500D01*
X115596961Y-77599500D01*
X115453039Y-77599500D01*
X115453035Y-77599500D01*
X115320085Y-77638538D01*
X115258925Y-77636790D01*
X115210472Y-77599427D01*
X115203982Y-77588488D01*
X115203050Y-77586658D01*
X115113342Y-77496950D01*
X115000304Y-77439354D01*
X115000305Y-77439354D01*
X114906522Y-77424500D01*
X114443479Y-77424500D01*
X114443476Y-77424501D01*
X114349700Y-77439352D01*
X114349695Y-77439354D01*
X114236659Y-77496949D01*
X114146948Y-77586660D01*
X114142472Y-77595446D01*
X114099207Y-77638710D01*
X114054263Y-77649500D01*
X113936058Y-77649500D01*
X113877867Y-77630593D01*
X113853890Y-77602519D01*
X113853110Y-77603086D01*
X113848531Y-77596784D01*
X113848529Y-77596782D01*
X113848528Y-77596780D01*
X113753220Y-77501472D01*
X113753217Y-77501470D01*
X113633132Y-77440283D01*
X113633127Y-77440281D01*
X113633126Y-77440281D01*
X113599913Y-77435020D01*
X113533490Y-77424500D01*
X113533488Y-77424500D01*
X113016512Y-77424500D01*
X113016510Y-77424500D01*
X112916874Y-77440281D01*
X112916867Y-77440283D01*
X112796782Y-77501470D01*
X112701470Y-77596782D01*
X112640283Y-77716867D01*
X112640281Y-77716874D01*
X112624500Y-77816510D01*
X112624500Y-78072389D01*
X112605593Y-78130580D01*
X112595504Y-78142392D01*
X112164511Y-78573385D01*
X112164507Y-78573390D01*
X112105200Y-78676112D01*
X112105200Y-78676113D01*
X112105201Y-78676114D01*
X112078571Y-78775500D01*
X112074500Y-78790692D01*
X112074500Y-78921903D01*
X112057815Y-78976905D01*
X112011134Y-79046766D01*
X112011132Y-79046772D01*
X111999501Y-79105241D01*
X111999500Y-79105253D01*
X111999500Y-80194746D01*
X111999501Y-80194758D01*
X112011132Y-80253227D01*
X112011134Y-80253233D01*
X112057815Y-80323094D01*
X112074500Y-80378096D01*
X112074500Y-83071903D01*
X112057815Y-83126905D01*
X112011134Y-83196766D01*
X112011132Y-83196772D01*
X111999501Y-83255241D01*
X111999500Y-83255253D01*
X111999500Y-84344746D01*
X111999501Y-84344758D01*
X112011132Y-84403227D01*
X112011134Y-84403233D01*
X112024519Y-84423265D01*
X112041127Y-84482153D01*
X112032258Y-84519390D01*
X112014834Y-84557545D01*
X112014833Y-84557547D01*
X111994353Y-84699997D01*
X111994353Y-84700002D01*
X112014834Y-84842456D01*
X112065946Y-84954373D01*
X112072921Y-85015160D01*
X112042835Y-85068437D01*
X111987179Y-85093855D01*
X111975893Y-85094500D01*
X111216740Y-85094500D01*
X111182673Y-85099463D01*
X111148604Y-85104427D01*
X111043518Y-85155801D01*
X110960801Y-85238518D01*
X110909427Y-85343604D01*
X110909427Y-85343607D01*
X110899500Y-85411740D01*
X94850500Y-85411740D01*
X94850500Y-80002035D01*
X94850585Y-79997944D01*
X94853225Y-79934108D01*
X94867919Y-79578843D01*
X94868591Y-79570715D01*
X94920228Y-79156462D01*
X94921568Y-79148428D01*
X95007236Y-78739859D01*
X95009237Y-78731959D01*
X95128343Y-78331890D01*
X95130999Y-78324154D01*
X95282744Y-77935264D01*
X95286012Y-77927812D01*
X95469367Y-77552754D01*
X95473234Y-77545610D01*
X95686919Y-77187000D01*
X95691381Y-77180169D01*
X95933948Y-76840435D01*
X95938969Y-76833985D01*
X96208749Y-76515456D01*
X96214268Y-76509460D01*
X96509460Y-76214268D01*
X96515456Y-76208749D01*
X96833991Y-75938964D01*
X96840435Y-75933948D01*
X97180169Y-75691381D01*
X97187000Y-75686919D01*
X97545610Y-75473234D01*
X97552754Y-75469367D01*
X97927812Y-75286012D01*
X97935264Y-75282744D01*
X98324156Y-75130998D01*
X98331893Y-75128343D01*
X98731959Y-75009237D01*
X98739859Y-75007236D01*
X99148428Y-74921568D01*
X99156462Y-74920228D01*
X99570715Y-74868591D01*
X99578843Y-74867919D01*
X99997945Y-74850585D01*
X100002036Y-74850500D01*
X100065892Y-74850500D01*
X114126659Y-74850500D01*
X114184850Y-74869407D01*
G37*
%TD.AperFunction*%
%TA.AperFunction,Conductor*%
G36*
X110145445Y-112521244D02*
G01*
X110188710Y-112564509D01*
X110199500Y-112609454D01*
X110199500Y-114261145D01*
X110180593Y-114319336D01*
X110140768Y-114351586D01*
X110059843Y-114387617D01*
X110059842Y-114387617D01*
X109910948Y-114495794D01*
X109787803Y-114632562D01*
X109787803Y-114632563D01*
X109695790Y-114791931D01*
X109695784Y-114791945D01*
X109638916Y-114966965D01*
X109619678Y-115150000D01*
X109638916Y-115333034D01*
X109695784Y-115508054D01*
X109695790Y-115508068D01*
X109768893Y-115634684D01*
X109787805Y-115667440D01*
X109910950Y-115804207D01*
X110059839Y-115912381D01*
X110059843Y-115912383D01*
X110059845Y-115912384D01*
X110123100Y-115940547D01*
X110166926Y-115960059D01*
X110212395Y-116001000D01*
X110225117Y-116060848D01*
X110200231Y-116116744D01*
X110147243Y-116147337D01*
X110126659Y-116149500D01*
X108873341Y-116149500D01*
X108815150Y-116130593D01*
X108779186Y-116081093D01*
X108779186Y-116019907D01*
X108815150Y-115970407D01*
X108833072Y-115960059D01*
X108940161Y-115912381D01*
X109089050Y-115804207D01*
X109212195Y-115667440D01*
X109304214Y-115508059D01*
X109361085Y-115333029D01*
X109380322Y-115150000D01*
X109361085Y-114966971D01*
X109304214Y-114791941D01*
X109304211Y-114791936D01*
X109304209Y-114791931D01*
X109256935Y-114710052D01*
X109212195Y-114632560D01*
X109089050Y-114495793D01*
X108940161Y-114387619D01*
X108940157Y-114387617D01*
X108859232Y-114351586D01*
X108813763Y-114310644D01*
X108800500Y-114261145D01*
X108800500Y-113810454D01*
X108819407Y-113752263D01*
X108829496Y-113740450D01*
X110030496Y-112539450D01*
X110085013Y-112511673D01*
X110145445Y-112521244D01*
G37*
%TD.AperFunction*%
%TA.AperFunction,Conductor*%
G36*
X112145445Y-111016219D02*
G01*
X112188710Y-111059484D01*
X112199500Y-111104429D01*
X112199500Y-114261145D01*
X112180593Y-114319336D01*
X112140768Y-114351586D01*
X112059841Y-114387617D01*
X111910947Y-114495794D01*
X111787802Y-114632562D01*
X111787802Y-114632563D01*
X111695789Y-114791931D01*
X111695783Y-114791945D01*
X111638915Y-114966965D01*
X111619677Y-115150000D01*
X111638915Y-115333034D01*
X111695783Y-115508054D01*
X111695789Y-115508068D01*
X111768892Y-115634684D01*
X111787804Y-115667440D01*
X111910949Y-115804207D01*
X112059838Y-115912381D01*
X112059842Y-115912383D01*
X112059844Y-115912384D01*
X112123099Y-115940547D01*
X112166925Y-115960059D01*
X112212394Y-116001000D01*
X112225116Y-116060848D01*
X112200230Y-116116744D01*
X112147242Y-116147337D01*
X112126658Y-116149500D01*
X110873341Y-116149500D01*
X110815150Y-116130593D01*
X110779186Y-116081093D01*
X110779186Y-116019907D01*
X110815150Y-115970407D01*
X110833072Y-115960059D01*
X110940161Y-115912381D01*
X111089050Y-115804207D01*
X111212195Y-115667440D01*
X111304214Y-115508059D01*
X111361085Y-115333029D01*
X111380322Y-115150000D01*
X111361085Y-114966971D01*
X111304214Y-114791941D01*
X111304211Y-114791936D01*
X111304209Y-114791931D01*
X111256935Y-114710052D01*
X111212195Y-114632560D01*
X111089050Y-114495793D01*
X110940161Y-114387619D01*
X110940157Y-114387617D01*
X110859232Y-114351586D01*
X110813763Y-114310644D01*
X110800500Y-114261145D01*
X110800500Y-112305429D01*
X110819407Y-112247238D01*
X110829496Y-112235425D01*
X112030496Y-111034425D01*
X112085013Y-111006648D01*
X112145445Y-111016219D01*
G37*
%TD.AperFunction*%
%TA.AperFunction,Conductor*%
G36*
X123055000Y-109531159D02*
G01*
X123067505Y-109539515D01*
X123147867Y-109555500D01*
X123265500Y-109555499D01*
X123323690Y-109574406D01*
X123359654Y-109623906D01*
X123364500Y-109654499D01*
X123364500Y-109747338D01*
X123345593Y-109805529D01*
X123335504Y-109817342D01*
X121632339Y-111520507D01*
X121577822Y-111548284D01*
X121562335Y-111549503D01*
X121428039Y-111549503D01*
X121428036Y-111549503D01*
X121421031Y-111550511D01*
X121420586Y-111547419D01*
X121372674Y-111546038D01*
X121335964Y-111522808D01*
X119679496Y-109866340D01*
X119651719Y-109811823D01*
X119650500Y-109796336D01*
X119650500Y-109654499D01*
X119669407Y-109596308D01*
X119718907Y-109560344D01*
X119749500Y-109555499D01*
X119852130Y-109555499D01*
X119852132Y-109555499D01*
X119932495Y-109539515D01*
X119944998Y-109531160D01*
X120003884Y-109514552D01*
X120055001Y-109531161D01*
X120067502Y-109539514D01*
X120067505Y-109539516D01*
X120121228Y-109550202D01*
X120174610Y-109580098D01*
X120200226Y-109635663D01*
X120199904Y-109661388D01*
X120194353Y-109699997D01*
X120194353Y-109700002D01*
X120214834Y-109842456D01*
X120266480Y-109955543D01*
X120274623Y-109973373D01*
X120343682Y-110053072D01*
X120368873Y-110082144D01*
X120489942Y-110159950D01*
X120489947Y-110159953D01*
X120577396Y-110185630D01*
X120628035Y-110200499D01*
X120628036Y-110200499D01*
X120628039Y-110200500D01*
X120628041Y-110200500D01*
X120771959Y-110200500D01*
X120771961Y-110200500D01*
X120910053Y-110159953D01*
X121031128Y-110082143D01*
X121036480Y-110077506D01*
X121037968Y-110079223D01*
X121081341Y-110053072D01*
X121103759Y-110050500D01*
X121483552Y-110050500D01*
X121483554Y-110050500D01*
X121572698Y-110026614D01*
X121652622Y-109980470D01*
X121706424Y-109926667D01*
X121760939Y-109898890D01*
X121821371Y-109908461D01*
X121864636Y-109951725D01*
X121866480Y-109955543D01*
X121874622Y-109973372D01*
X121968873Y-110082144D01*
X122089942Y-110159950D01*
X122089947Y-110159953D01*
X122177396Y-110185630D01*
X122228035Y-110200499D01*
X122228036Y-110200499D01*
X122228039Y-110200500D01*
X122228041Y-110200500D01*
X122371959Y-110200500D01*
X122371961Y-110200500D01*
X122510053Y-110159953D01*
X122631128Y-110082143D01*
X122725377Y-109973373D01*
X122785165Y-109842457D01*
X122805647Y-109700000D01*
X122805647Y-109699997D01*
X122800096Y-109661388D01*
X122810529Y-109601099D01*
X122854407Y-109558456D01*
X122878775Y-109550201D01*
X122893539Y-109547264D01*
X122932495Y-109539516D01*
X122944998Y-109531161D01*
X123003884Y-109514551D01*
X123055000Y-109531159D01*
G37*
%TD.AperFunction*%
%TA.AperFunction,Conductor*%
G36*
X124536108Y-99625060D02*
G01*
X124552733Y-99640320D01*
X124593872Y-99687796D01*
X124642803Y-99719242D01*
X124710328Y-99762638D01*
X124714947Y-99765606D01*
X124798987Y-99790282D01*
X124853035Y-99806152D01*
X124853036Y-99806152D01*
X124853039Y-99806153D01*
X124853041Y-99806153D01*
X124996959Y-99806153D01*
X124996961Y-99806153D01*
X125009738Y-99802401D01*
X125070896Y-99804146D01*
X125119350Y-99841507D01*
X125136591Y-99900213D01*
X125116032Y-99957841D01*
X125107635Y-99967394D01*
X121204521Y-103870510D01*
X121150004Y-103898287D01*
X121134517Y-103899506D01*
X119339337Y-103899506D01*
X119281146Y-103880599D01*
X119245182Y-103831099D01*
X119245182Y-103769913D01*
X119281146Y-103720413D01*
X119289836Y-103714770D01*
X119292503Y-103713230D01*
X119331937Y-103690463D01*
X119387886Y-103634514D01*
X122637250Y-100385148D01*
X122691767Y-100357372D01*
X122707254Y-100356153D01*
X122813735Y-100356153D01*
X122813737Y-100356153D01*
X122951829Y-100315606D01*
X123072904Y-100237796D01*
X123167153Y-100129026D01*
X123226941Y-99998110D01*
X123247423Y-99855653D01*
X123246822Y-99851470D01*
X123227811Y-99719242D01*
X123238244Y-99658953D01*
X123282122Y-99616310D01*
X123325803Y-99606153D01*
X124477917Y-99606153D01*
X124536108Y-99625060D01*
G37*
%TD.AperFunction*%
%TA.AperFunction,Conductor*%
G36*
X112609546Y-99565145D02*
G01*
X112661599Y-99575500D01*
X112838400Y-99575499D01*
X112838403Y-99575498D01*
X112840792Y-99575263D01*
X112841867Y-99575499D01*
X112843263Y-99575499D01*
X112843263Y-99575805D01*
X112900556Y-99588373D01*
X112941201Y-99634108D01*
X112949500Y-99673786D01*
X112949500Y-100389564D01*
X112956182Y-100414500D01*
X112969979Y-100465989D01*
X112995555Y-100510288D01*
X113009540Y-100534511D01*
X113070505Y-100595476D01*
X113098281Y-100649991D01*
X113099500Y-100665478D01*
X113099500Y-102119381D01*
X113080593Y-102177572D01*
X113031093Y-102213536D01*
X112972609Y-102214371D01*
X112921964Y-102199500D01*
X112921961Y-102199500D01*
X112815479Y-102199500D01*
X112757288Y-102180593D01*
X112745475Y-102170504D01*
X112570747Y-101995776D01*
X112542970Y-101941259D01*
X112552541Y-101880827D01*
X112587224Y-101842491D01*
X112681128Y-101782143D01*
X112775377Y-101673373D01*
X112835165Y-101542457D01*
X112855647Y-101400000D01*
X112841035Y-101298373D01*
X112835165Y-101257543D01*
X112775377Y-101126627D01*
X112681128Y-101017857D01*
X112681127Y-101017856D01*
X112681126Y-101017855D01*
X112560057Y-100940049D01*
X112560047Y-100940044D01*
X112521607Y-100928757D01*
X112471101Y-100894221D01*
X112450540Y-100836593D01*
X112450500Y-100833768D01*
X112450500Y-99702977D01*
X112469407Y-99644786D01*
X112479491Y-99632979D01*
X112520231Y-99592238D01*
X112574745Y-99564462D01*
X112609546Y-99565145D01*
G37*
%TD.AperFunction*%
%TD*%
%TA.AperFunction,Conductor*%
%TO.N,+3V3*%
G36*
X133959191Y-99418907D02*
G01*
X133995155Y-99468407D01*
X134000000Y-99499000D01*
X134000000Y-104101000D01*
X133981093Y-104159191D01*
X133931593Y-104195155D01*
X133901000Y-104200000D01*
X131563161Y-104200000D01*
X131504970Y-104181093D01*
X131469006Y-104131593D01*
X131469006Y-104070407D01*
X131499128Y-104027124D01*
X131498654Y-104026650D01*
X131501299Y-104024004D01*
X131501762Y-104023340D01*
X131502726Y-104022577D01*
X131622574Y-103902729D01*
X131711545Y-103758487D01*
X131764856Y-103597603D01*
X131775000Y-103498323D01*
X131775000Y-103475001D01*
X131774999Y-103475000D01*
X130649000Y-103475000D01*
X130590809Y-103456093D01*
X130554845Y-103406593D01*
X130550000Y-103376000D01*
X130550000Y-102275001D01*
X131050000Y-102275001D01*
X131050000Y-102974999D01*
X131050001Y-102975000D01*
X131774998Y-102975000D01*
X131774999Y-102974999D01*
X131774999Y-102951677D01*
X131764857Y-102852402D01*
X131764854Y-102852390D01*
X131711545Y-102691512D01*
X131622574Y-102547270D01*
X131502729Y-102427425D01*
X131358487Y-102338454D01*
X131197603Y-102285143D01*
X131098323Y-102275000D01*
X131050001Y-102275000D01*
X131050000Y-102275001D01*
X130550000Y-102275001D01*
X130550000Y-102274999D01*
X130501679Y-102275000D01*
X130501676Y-102275001D01*
X130402402Y-102285142D01*
X130402390Y-102285145D01*
X130241512Y-102338454D01*
X130097270Y-102427425D01*
X129977425Y-102547270D01*
X129888454Y-102691512D01*
X129835143Y-102852396D01*
X129825000Y-102951676D01*
X129825000Y-102976000D01*
X129806093Y-103034191D01*
X129756593Y-103070155D01*
X129726000Y-103075000D01*
X129550002Y-103075000D01*
X129550001Y-103075001D01*
X129550001Y-104001000D01*
X129531094Y-104059191D01*
X129481594Y-104095155D01*
X129451001Y-104100000D01*
X128400002Y-104100000D01*
X128400001Y-104100001D01*
X128400001Y-104101000D01*
X128381094Y-104159191D01*
X128331594Y-104195155D01*
X128301001Y-104200000D01*
X127799000Y-104200000D01*
X127740809Y-104181093D01*
X127704845Y-104131593D01*
X127700000Y-104101000D01*
X127700000Y-103527175D01*
X128400001Y-103527175D01*
X128400001Y-103599999D01*
X128400002Y-103600000D01*
X129050000Y-103600000D01*
X129050001Y-103599999D01*
X129050001Y-103075001D01*
X129050000Y-103075000D01*
X128852177Y-103075000D01*
X128792630Y-103081401D01*
X128792619Y-103081403D01*
X128657912Y-103131646D01*
X128657910Y-103131647D01*
X128542816Y-103217807D01*
X128542808Y-103217815D01*
X128456648Y-103332909D01*
X128456647Y-103332911D01*
X128406404Y-103467618D01*
X128406402Y-103467629D01*
X128400001Y-103527175D01*
X127700000Y-103527175D01*
X127700000Y-99499000D01*
X127718907Y-99440809D01*
X127768407Y-99404845D01*
X127799000Y-99400000D01*
X133901000Y-99400000D01*
X133959191Y-99418907D01*
G37*
%TD.AperFunction*%
%TD*%
D42*
X95500000Y-105500000D03*
X127700000Y-104800000D03*
X110500000Y-80500000D03*
X113100000Y-93100000D03*
X135500000Y-105500000D03*
X120499999Y-85500000D03*
X128700000Y-104800000D03*
X125500000Y-75500000D03*
X126900000Y-103000000D03*
X100500000Y-85500000D03*
X105500000Y-80500000D03*
X113100000Y-89400000D03*
X113500000Y-80600000D03*
X130500000Y-75500000D03*
X100500000Y-75500000D03*
X118300000Y-107700000D03*
X115500000Y-110500000D03*
X95500000Y-80500000D03*
X135500000Y-80500000D03*
X126200000Y-104800000D03*
X95500000Y-110500000D03*
X95500000Y-85500000D03*
X110900000Y-78100000D03*
X113500000Y-81700000D03*
X130500000Y-115500000D03*
X97400002Y-102208949D03*
X105500000Y-110500000D03*
X117400000Y-79500000D03*
X100500000Y-90500000D03*
X112700000Y-100013786D03*
X113500000Y-82800000D03*
X123500000Y-103000000D03*
X125500000Y-85500000D03*
X120500000Y-75500000D03*
X105425000Y-96200000D03*
X120500000Y-115500000D03*
X113500000Y-79500000D03*
X116500000Y-87800000D03*
X121500000Y-111300000D03*
X114675000Y-81700000D03*
X108525000Y-92600000D03*
X123000000Y-101000000D03*
X95500000Y-90500000D03*
X129700000Y-104800000D03*
X124700000Y-107700000D03*
X106975000Y-92000000D03*
X120100000Y-78100000D03*
X117900000Y-96500000D03*
X130800000Y-105600000D03*
X105500000Y-85500000D03*
X125500000Y-80500000D03*
X120383246Y-92225000D03*
X130500000Y-90500000D03*
X100500000Y-115500000D03*
X114700000Y-85500000D03*
X131700000Y-104800000D03*
X110500000Y-75500000D03*
X113100000Y-97900000D03*
X115500000Y-105500000D03*
X108525000Y-91000000D03*
X110500000Y-100500000D03*
X114675000Y-80600000D03*
X105500000Y-100500000D03*
X110500000Y-85500000D03*
X100500000Y-105500000D03*
X116500000Y-85500000D03*
X117900000Y-94500000D03*
X100500000Y-100500000D03*
X125500000Y-115500000D03*
X110500000Y-105500000D03*
X135500000Y-85500000D03*
X130710387Y-97150001D03*
X109175000Y-97100000D03*
X130500000Y-85500000D03*
X118900000Y-101325000D03*
X122000000Y-102000000D03*
X130736262Y-93849999D03*
X114675000Y-82800000D03*
X95500000Y-100500000D03*
X117400000Y-82800000D03*
X117400000Y-81725000D03*
X105500000Y-75500000D03*
X125500000Y-103000000D03*
X109500000Y-113700000D03*
X95500000Y-95500000D03*
X105500000Y-105500000D03*
X111500000Y-112500000D03*
X120500000Y-80500000D03*
X135500000Y-110500000D03*
X121500000Y-112050003D03*
X124000000Y-103900000D03*
X120449997Y-94800000D03*
X111100000Y-97000000D03*
X125700000Y-89850000D03*
X121200000Y-94800000D03*
X122300000Y-109700000D03*
X120700000Y-109700000D03*
X112500000Y-84700000D03*
X111100000Y-96200000D03*
X97400002Y-103808871D03*
X119799582Y-96300000D03*
X116507512Y-99796921D03*
X113800000Y-91100000D03*
X121800000Y-91300000D03*
X130050002Y-95500000D03*
X125504412Y-101025000D03*
X110833006Y-97878563D03*
X122549996Y-91303104D03*
X116325000Y-81700000D03*
X110075000Y-92600000D03*
X101425000Y-103000000D03*
X118700000Y-98900000D03*
X131500000Y-102100000D03*
X129500000Y-102100000D03*
X115075000Y-100800000D03*
X115525000Y-78100000D03*
X124950003Y-91300000D03*
X132500000Y-101100000D03*
X129500000Y-101100000D03*
X118999999Y-92000000D03*
X128500000Y-103100000D03*
X131500000Y-100100000D03*
X132500000Y-103100000D03*
X112000000Y-92062500D03*
X133500000Y-101100000D03*
X116325000Y-80600000D03*
X128500000Y-100925000D03*
X133500000Y-100100000D03*
X133500000Y-102100000D03*
X131500000Y-101100000D03*
X129500000Y-103100000D03*
X116325000Y-82800000D03*
X130500000Y-101100000D03*
X132500000Y-100100000D03*
X117900000Y-85600000D03*
X132500000Y-102100000D03*
X131500000Y-103100000D03*
X129500000Y-100100000D03*
X110075000Y-91000000D03*
X130500000Y-102100000D03*
X109218750Y-98700000D03*
X130500000Y-100100000D03*
X133500000Y-103100000D03*
X117700000Y-83800000D03*
X114611091Y-89488909D03*
X117900000Y-86900000D03*
X115200000Y-90200000D03*
X121200000Y-93500000D03*
X118200000Y-90115687D03*
X128175000Y-97325002D03*
X112350000Y-101400000D03*
X115000000Y-104200006D03*
X128300000Y-91300000D03*
X119799582Y-97424999D03*
X119799582Y-99300000D03*
X124925000Y-99305653D03*
X112850000Y-103450003D03*
X122741776Y-99855653D03*
X115000000Y-103450003D03*
X120499997Y-90200000D03*
X116375000Y-100543042D03*
X127500000Y-91300000D03*
X125700006Y-91300000D03*
X116203526Y-101273179D03*
X120500000Y-89449998D03*
X121916806Y-99855653D03*
X112850000Y-102700000D03*
X115000000Y-102700000D03*
X117806410Y-89406410D03*
X116200000Y-89400000D03*
X113100000Y-85600000D03*
X117650000Y-90625588D03*
D43*
X118500000Y-75850000D03*
X116499999Y-75850000D03*
X114500000Y-75850000D03*
X112500000Y-75850000D03*
X128600000Y-80000000D03*
X129302944Y-78302944D03*
X129302944Y-81697056D03*
X131000000Y-77600000D03*
X131000000Y-80000000D03*
X131000000Y-82400000D03*
X132697056Y-78302944D03*
X132697056Y-81697056D03*
X133400000Y-80000000D03*
X97600000Y-94200000D03*
X97600000Y-96740000D03*
X114500000Y-115150000D03*
X112499999Y-115150000D03*
X110500000Y-115150000D03*
X108500000Y-115150000D03*
X106500000Y-115150000D03*
X104500000Y-115150000D03*
X118610000Y-109845000D03*
X124390000Y-109845000D03*
D44*
X117180000Y-109345000D03*
D45*
X117180000Y-113525000D03*
D44*
X125820000Y-109345000D03*
D45*
X125820000Y-113525000D03*
D43*
X97600000Y-80000000D03*
X98302944Y-78302944D03*
X98302944Y-81697056D03*
X100000000Y-77600000D03*
X100000000Y-80000000D03*
X100000000Y-82400000D03*
X101697056Y-78302944D03*
X101697056Y-81697056D03*
X102400000Y-80000000D03*
X133140000Y-94170000D03*
X135300000Y-99250000D03*
X135300000Y-96710000D03*
X135300000Y-94170001D03*
X135300000Y-91630000D03*
X128600000Y-111000000D03*
X129302944Y-109302944D03*
X129302944Y-112697056D03*
X131000000Y-108600000D03*
X131000000Y-111000000D03*
X131000000Y-113400000D03*
X132697056Y-109302944D03*
X132697056Y-112697056D03*
X133400000Y-111000000D03*
X97600000Y-111000000D03*
X98302944Y-109302944D03*
X98302944Y-112697056D03*
X100000000Y-108600000D03*
X100000000Y-111000000D03*
X100000000Y-113400000D03*
X101697056Y-109302944D03*
X101697056Y-112697056D03*
X102400000Y-111000000D03*
D42*
X123700000Y-96575000D03*
X125566667Y-96575000D03*
X127433333Y-96575000D03*
X129300000Y-96575000D03*
X123700000Y-94425000D03*
X125566667Y-94425000D03*
X127433333Y-94425000D03*
X129300000Y-94425000D03*
M02*
