%TF.GenerationSoftware,KiCad,Pcbnew,8.0.4*%
%TF.CreationDate,2024-08-27T17:51:01+02:00*%
%TF.ProjectId,stepper_driver_PCB,73746570-7065-4725-9f64-72697665725f,rev?*%
%TF.SameCoordinates,Original*%
%TF.FileFunction,Copper,L1,Top*%
%TF.FilePolarity,Positive*%
%FSLAX46Y46*%
G04 Gerber Fmt 4.6, Leading zero omitted, Abs format (unit mm)*
G04 Created by KiCad (PCBNEW 8.0.4) date 2024-08-27 17:51:01*
%MOMM*%
%LPD*%
G01*
G04 APERTURE LIST*
G04 Aperture macros list*
%AMRoundRect*
0 Rectangle with rounded corners*
0 $1 Rounding radius*
0 $2 $3 $4 $5 $6 $7 $8 $9 X,Y pos of 4 corners*
0 Add a 4 corners polygon primitive as box body*
4,1,4,$2,$3,$4,$5,$6,$7,$8,$9,$2,$3,0*
0 Add four circle primitives for the rounded corners*
1,1,$1+$1,$2,$3*
1,1,$1+$1,$4,$5*
1,1,$1+$1,$6,$7*
1,1,$1+$1,$8,$9*
0 Add four rect primitives between the rounded corners*
20,1,$1+$1,$2,$3,$4,$5,0*
20,1,$1+$1,$4,$5,$6,$7,0*
20,1,$1+$1,$6,$7,$8,$9,0*
20,1,$1+$1,$8,$9,$2,$3,0*%
G04 Aperture macros list end*
%TA.AperFunction,ComponentPad*%
%ADD10R,1.350000X1.350000*%
%TD*%
%TA.AperFunction,ComponentPad*%
%ADD11O,1.350000X1.350000*%
%TD*%
%TA.AperFunction,SMDPad,CuDef*%
%ADD12RoundRect,0.200000X0.200000X0.275000X-0.200000X0.275000X-0.200000X-0.275000X0.200000X-0.275000X0*%
%TD*%
%TA.AperFunction,SMDPad,CuDef*%
%ADD13RoundRect,0.218750X-0.218750X-0.256250X0.218750X-0.256250X0.218750X0.256250X-0.218750X0.256250X0*%
%TD*%
%TA.AperFunction,SMDPad,CuDef*%
%ADD14RoundRect,0.225000X-0.250000X0.225000X-0.250000X-0.225000X0.250000X-0.225000X0.250000X0.225000X0*%
%TD*%
%TA.AperFunction,SMDPad,CuDef*%
%ADD15RoundRect,0.225000X-0.225000X-0.250000X0.225000X-0.250000X0.225000X0.250000X-0.225000X0.250000X0*%
%TD*%
%TA.AperFunction,ComponentPad*%
%ADD16C,0.800000*%
%TD*%
%TA.AperFunction,ComponentPad*%
%ADD17C,6.400000*%
%TD*%
%TA.AperFunction,ComponentPad*%
%ADD18R,2.000000X2.000000*%
%TD*%
%TA.AperFunction,ComponentPad*%
%ADD19C,2.000000*%
%TD*%
%TA.AperFunction,SMDPad,CuDef*%
%ADD20RoundRect,0.150000X-0.150000X-0.500000X0.150000X-0.500000X0.150000X0.500000X-0.150000X0.500000X0*%
%TD*%
%TA.AperFunction,SMDPad,CuDef*%
%ADD21RoundRect,0.075000X-0.075000X-0.575000X0.075000X-0.575000X0.075000X0.575000X-0.075000X0.575000X0*%
%TD*%
%TA.AperFunction,ComponentPad*%
%ADD22O,1.000000X2.100000*%
%TD*%
%TA.AperFunction,ComponentPad*%
%ADD23O,1.000000X1.600000*%
%TD*%
%TA.AperFunction,SMDPad,CuDef*%
%ADD24RoundRect,0.225000X0.225000X0.250000X-0.225000X0.250000X-0.225000X-0.250000X0.225000X-0.250000X0*%
%TD*%
%TA.AperFunction,ComponentPad*%
%ADD25R,2.030000X1.730000*%
%TD*%
%TA.AperFunction,ComponentPad*%
%ADD26O,2.030000X1.730000*%
%TD*%
%TA.AperFunction,SMDPad,CuDef*%
%ADD27R,1.200000X1.400000*%
%TD*%
%TA.AperFunction,SMDPad,CuDef*%
%ADD28R,0.650000X1.050000*%
%TD*%
%TA.AperFunction,SMDPad,CuDef*%
%ADD29RoundRect,0.150000X-0.650000X-0.150000X0.650000X-0.150000X0.650000X0.150000X-0.650000X0.150000X0*%
%TD*%
%TA.AperFunction,SMDPad,CuDef*%
%ADD30RoundRect,0.218750X-0.218750X-0.381250X0.218750X-0.381250X0.218750X0.381250X-0.218750X0.381250X0*%
%TD*%
%TA.AperFunction,SMDPad,CuDef*%
%ADD31RoundRect,0.200000X-0.200000X-0.275000X0.200000X-0.275000X0.200000X0.275000X-0.200000X0.275000X0*%
%TD*%
%TA.AperFunction,SMDPad,CuDef*%
%ADD32RoundRect,0.062500X-0.375000X-0.062500X0.375000X-0.062500X0.375000X0.062500X-0.375000X0.062500X0*%
%TD*%
%TA.AperFunction,SMDPad,CuDef*%
%ADD33RoundRect,0.062500X-0.062500X-0.375000X0.062500X-0.375000X0.062500X0.375000X-0.062500X0.375000X0*%
%TD*%
%TA.AperFunction,HeatsinkPad*%
%ADD34R,5.600000X5.600000*%
%TD*%
%TA.AperFunction,SMDPad,CuDef*%
%ADD35R,0.800000X0.550000*%
%TD*%
%TA.AperFunction,HeatsinkPad*%
%ADD36C,0.600000*%
%TD*%
%TA.AperFunction,HeatsinkPad*%
%ADD37R,6.200000X2.750000*%
%TD*%
%TA.AperFunction,ViaPad*%
%ADD38C,0.600000*%
%TD*%
%TA.AperFunction,Conductor*%
%ADD39C,0.500000*%
%TD*%
%TA.AperFunction,Conductor*%
%ADD40C,0.300000*%
%TD*%
%TA.AperFunction,Conductor*%
%ADD41C,0.200000*%
%TD*%
%ADD42C,0.300000*%
%ADD43C,0.350000*%
%ADD44O,0.600000X1.700000*%
%ADD45O,0.600000X1.200000*%
G04 APERTURE END LIST*
D10*
%TO.P,J2,1,Pin_1*%
%TO.N,+3V3*%
X114500000Y-115150000D03*
D11*
%TO.P,J2,2,Pin_2*%
%TO.N,/CTRL_SPI_MOSI*%
X112499999Y-115150000D03*
%TO.P,J2,3,Pin_3*%
%TO.N,/CTRL_SPI_MISO*%
X110500000Y-115150000D03*
%TO.P,J2,4,Pin_4*%
%TO.N,/CTRL_SPI_CLK*%
X108500000Y-115150000D03*
%TO.P,J2,5,Pin_5*%
%TO.N,/CTRL_SPI_NCS*%
X106500000Y-115150000D03*
%TO.P,J2,6,Pin_6*%
%TO.N,GND*%
X104500000Y-115150000D03*
%TD*%
D10*
%TO.P,J4,1,Pin_1*%
%TO.N,+3V3*%
X118500000Y-75850000D03*
D11*
%TO.P,J4,2,Pin_2*%
%TO.N,/JTAG_SWDIO*%
X116499999Y-75850000D03*
%TO.P,J4,3,Pin_3*%
%TO.N,/JTAG_SWCLK*%
X114500000Y-75850000D03*
%TO.P,J4,4,Pin_4*%
%TO.N,GND*%
X112500000Y-75850000D03*
%TD*%
D12*
%TO.P,R6,1*%
%TO.N,GND*%
X124825000Y-106800000D03*
%TO.P,R6,2*%
%TO.N,Net-(J5-CC1)*%
X123175000Y-106800000D03*
%TD*%
%TO.P,R4,1*%
%TO.N,/HSE_OUT*%
X110125000Y-95200000D03*
%TO.P,R4,2*%
%TO.N,Net-(C14-Pad1)*%
X108475000Y-95200000D03*
%TD*%
D13*
%TO.P,D2,1,K*%
%TO.N,/STATUS*%
X96712499Y-103800000D03*
%TO.P,D2,2,A*%
%TO.N,Net-(D2-A)*%
X98287501Y-103800000D03*
%TD*%
D14*
%TO.P,C5,1*%
%TO.N,Net-(U4-VCAP_1)*%
X117300000Y-100425000D03*
%TO.P,C5,2*%
%TO.N,GND*%
X117300000Y-101975000D03*
%TD*%
%TO.P,C8,1*%
%TO.N,+3V3*%
X120400000Y-91325000D03*
%TO.P,C8,2*%
%TO.N,GND*%
X120400000Y-92875000D03*
%TD*%
%TO.P,C7,1*%
%TO.N,+3V3*%
X118900000Y-100425000D03*
%TO.P,C7,2*%
%TO.N,GND*%
X118900000Y-101975000D03*
%TD*%
D15*
%TO.P,C13,1*%
%TO.N,/HSE_IN*%
X105425000Y-91200000D03*
%TO.P,C13,2*%
%TO.N,GND*%
X106975000Y-91200000D03*
%TD*%
D16*
%TO.P,H2,1,1*%
%TO.N,GND*%
X128600000Y-80000000D03*
X129302944Y-78302944D03*
X129302944Y-81697056D03*
X131000000Y-77600000D03*
D17*
X131000000Y-80000000D03*
D16*
X131000000Y-82400000D03*
X132697056Y-78302944D03*
X132697056Y-81697056D03*
X133400000Y-80000000D03*
%TD*%
D18*
%TO.P,J1,1,Pin_1*%
%TO.N,+24V*%
X97600000Y-94200000D03*
D19*
%TO.P,J1,2,Pin_2*%
%TO.N,GND*%
X97600000Y-96740000D03*
%TD*%
D20*
%TO.P,J5,A1,GND*%
%TO.N,GND*%
X118300000Y-108705000D03*
%TO.P,J5,A4,VBUS*%
%TO.N,+5V*%
X119100000Y-108705000D03*
D21*
%TO.P,J5,A5,CC1*%
%TO.N,Net-(J5-CC1)*%
X120250000Y-108705001D03*
%TO.P,J5,A6,D+*%
%TO.N,Net-(J5-D+-PadA6)*%
X121250000Y-108705000D03*
%TO.P,J5,A7,D-*%
%TO.N,Net-(J5-D--PadA7)*%
X121750000Y-108705000D03*
%TO.P,J5,A8,SBU1*%
%TO.N,unconnected-(J5-SBU1-PadA8)*%
X122750000Y-108705001D03*
D20*
%TO.P,J5,A9,VBUS*%
%TO.N,+5V*%
X123900000Y-108705000D03*
%TO.P,J5,A12,GND*%
%TO.N,GND*%
X124700000Y-108705000D03*
%TO.P,J5,B1,GND*%
X124700000Y-108705000D03*
%TO.P,J5,B4,VBUS*%
%TO.N,+5V*%
X123900000Y-108705000D03*
D21*
%TO.P,J5,B5,CC2*%
%TO.N,Net-(J5-CC1)*%
X123250000Y-108705000D03*
%TO.P,J5,B6,D+*%
%TO.N,Net-(J5-D+-PadA6)*%
X122250000Y-108705000D03*
%TO.P,J5,B7,D-*%
%TO.N,Net-(J5-D--PadA7)*%
X120750000Y-108705000D03*
%TO.P,J5,B8,SBU2*%
%TO.N,unconnected-(J5-SBU2-PadB8)*%
X119750000Y-108705000D03*
D20*
%TO.P,J5,B9,VBUS*%
%TO.N,+5V*%
X119100000Y-108705000D03*
%TO.P,J5,B12,GND*%
%TO.N,GND*%
X118300000Y-108705000D03*
D22*
%TO.P,J5,S1,SHIELD*%
%TO.N,unconnected-(J5-SHIELD-PadS1)*%
X117180000Y-109345000D03*
D23*
%TO.N,unconnected-(J5-SHIELD-PadS1)_2*%
X117180000Y-113525000D03*
D22*
%TO.N,unconnected-(J5-SHIELD-PadS1)_3*%
X125820000Y-109345000D03*
D23*
%TO.N,unconnected-(J5-SHIELD-PadS1)_1*%
X125820000Y-113525000D03*
%TD*%
D16*
%TO.P,H1,1,1*%
%TO.N,GND*%
X97600000Y-80000000D03*
X98302944Y-78302944D03*
X98302944Y-81697056D03*
X100000000Y-77600000D03*
D17*
X100000000Y-80000000D03*
D16*
X100000000Y-82400000D03*
X101697056Y-78302944D03*
X101697056Y-81697056D03*
X102400000Y-80000000D03*
%TD*%
D24*
%TO.P,C11,1*%
%TO.N,+3.3VA*%
X110075000Y-97100000D03*
%TO.P,C11,2*%
%TO.N,GND*%
X108525000Y-97100000D03*
%TD*%
%TO.P,C10,1*%
%TO.N,+3V3*%
X110075000Y-90300000D03*
%TO.P,C10,2*%
%TO.N,GND*%
X108525000Y-90300000D03*
%TD*%
D25*
%TO.P,J3,1,Pin_1*%
%TO.N,/STEPPER_B2*%
X135300000Y-99250000D03*
D26*
%TO.P,J3,2,Pin_2*%
%TO.N,/STEPPER_B1*%
X135300000Y-96710000D03*
%TO.P,J3,3,Pin_3*%
%TO.N,/STEPPER_A1*%
X135300000Y-94170001D03*
%TO.P,J3,4,Pin_4*%
%TO.N,/STEPPER_A2*%
X135300000Y-91630000D03*
%TD*%
D24*
%TO.P,C14,1*%
%TO.N,Net-(C14-Pad1)*%
X106975000Y-97000000D03*
%TO.P,C14,2*%
%TO.N,GND*%
X105425000Y-97000000D03*
%TD*%
%TO.P,C6,1*%
%TO.N,+3V3*%
X110075000Y-91800000D03*
%TO.P,C6,2*%
%TO.N,GND*%
X108525000Y-91800000D03*
%TD*%
D27*
%TO.P,Y1,1,1*%
%TO.N,/HSE_IN*%
X105150000Y-93000000D03*
%TO.P,Y1,2,2*%
%TO.N,GND*%
X105150000Y-95200000D03*
%TO.P,Y1,3,3*%
%TO.N,Net-(C14-Pad1)*%
X106850000Y-95200000D03*
%TO.P,Y1,4,4*%
%TO.N,GND*%
X106850000Y-93000000D03*
%TD*%
D12*
%TO.P,R3,1*%
%TO.N,+3V3*%
X116325000Y-78100000D03*
%TO.P,R3,2*%
%TO.N,/NRST*%
X114675000Y-78100000D03*
%TD*%
D15*
%TO.P,C1,1*%
%TO.N,+5V*%
X124000000Y-104800000D03*
%TO.P,C1,2*%
%TO.N,GND*%
X125550000Y-104800000D03*
%TD*%
D28*
%TO.P,SW1,1,1*%
%TO.N,/BOOT0*%
X118475000Y-79650000D03*
X118475000Y-83800000D03*
%TO.P,SW1,2,2*%
%TO.N,+3V3*%
X116325000Y-79650000D03*
X116325000Y-83800000D03*
%TD*%
D12*
%TO.P,R7,1*%
%TO.N,+3V3*%
X101425000Y-102200000D03*
%TO.P,R7,2*%
%TO.N,Net-(D1-A)*%
X99775000Y-102200000D03*
%TD*%
D29*
%TO.P,U7,1,~{CS}*%
%TO.N,/FLASH_SPI_NCS*%
X111900000Y-85595000D03*
%TO.P,U7,2,DO(IO1)*%
%TO.N,/FLASH_SPI_MISO*%
X111900000Y-86865000D03*
%TO.P,U7,3,IO2*%
%TO.N,/W25Q128_NWP*%
X111900000Y-88135000D03*
%TO.P,U7,4,GND*%
%TO.N,GND*%
X111900000Y-89405000D03*
%TO.P,U7,5,DI(IO0)*%
%TO.N,/FLASH_SPI_MOSI*%
X119100000Y-89405000D03*
%TO.P,U7,6,CLK*%
%TO.N,/FLASH_SPI_CLK*%
X119100000Y-88135000D03*
%TO.P,U7,7,IO3*%
%TO.N,/W25Q128_NRST*%
X119100000Y-86865000D03*
%TO.P,U7,8,VCC*%
%TO.N,+3V3*%
X119100000Y-85595000D03*
%TD*%
D12*
%TO.P,R8,1*%
%TO.N,+3V3*%
X101425000Y-103800000D03*
%TO.P,R8,2*%
%TO.N,Net-(D2-A)*%
X99775000Y-103800000D03*
%TD*%
D30*
%TO.P,L1,1*%
%TO.N,+3V3*%
X107981250Y-98700000D03*
%TO.P,L1,2*%
%TO.N,+3.3VA*%
X110106250Y-98700000D03*
%TD*%
D16*
%TO.P,H4,1,1*%
%TO.N,GND*%
X128600000Y-111000000D03*
X129302944Y-109302944D03*
X129302944Y-112697056D03*
X131000000Y-108600000D03*
D17*
X131000000Y-111000000D03*
D16*
X131000000Y-113400000D03*
X132697056Y-109302944D03*
X132697056Y-112697056D03*
X133400000Y-111000000D03*
%TD*%
D31*
%TO.P,R5,1*%
%TO.N,/BOOT0*%
X117675000Y-78100000D03*
%TO.P,R5,2*%
%TO.N,GND*%
X119325000Y-78100000D03*
%TD*%
D13*
%TO.P,D1,1,K*%
%TO.N,GND*%
X96712499Y-102200000D03*
%TO.P,D1,2,A*%
%TO.N,Net-(D1-A)*%
X98287501Y-102200000D03*
%TD*%
D16*
%TO.P,H3,1,1*%
%TO.N,GND*%
X97600000Y-111000000D03*
X98302944Y-109302944D03*
X98302944Y-112697056D03*
X100000000Y-108600000D03*
D17*
X100000000Y-111000000D03*
D16*
X100000000Y-113400000D03*
X101697056Y-109302944D03*
X101697056Y-112697056D03*
X102400000Y-111000000D03*
%TD*%
D24*
%TO.P,C9,1*%
%TO.N,+3V3*%
X110075000Y-93300000D03*
%TO.P,C9,2*%
%TO.N,GND*%
X108525000Y-93300000D03*
%TD*%
D32*
%TO.P,U4,1,VBAT*%
%TO.N,+3V3*%
X112062500Y-92750000D03*
%TO.P,U4,2,PC13*%
%TO.N,unconnected-(U4-PC13-Pad2)*%
X112062500Y-93250000D03*
%TO.P,U4,3,PC14*%
%TO.N,unconnected-(U4-PC14-Pad3)*%
X112062500Y-93750000D03*
%TO.P,U4,4,PC15*%
%TO.N,unconnected-(U4-PC15-Pad4)*%
X112062500Y-94250000D03*
%TO.P,U4,5,PH0*%
%TO.N,/HSE_IN*%
X112062500Y-94750000D03*
%TO.P,U4,6,PH1*%
%TO.N,/HSE_OUT*%
X112062500Y-95250000D03*
%TO.P,U4,7,NRST*%
%TO.N,/NRST*%
X112062500Y-95750000D03*
%TO.P,U4,8,VSSA*%
%TO.N,GND*%
X112062500Y-96250000D03*
%TO.P,U4,9,VDDA*%
%TO.N,+3.3VA*%
X112062500Y-96750000D03*
%TO.P,U4,10,PA0*%
%TO.N,/AS5600_OUT*%
X112062500Y-97250000D03*
%TO.P,U4,11,PA1*%
%TO.N,/TMC_MS1*%
X112062500Y-97750000D03*
%TO.P,U4,12,PA2*%
%TO.N,/TMC_MS2*%
X112062500Y-98250000D03*
D33*
%TO.P,U4,13,PA3*%
%TO.N,/TMC_NEN*%
X112750000Y-98937500D03*
%TO.P,U4,14,PA4*%
%TO.N,/CTRL_SPI_NCS*%
X113250000Y-98937500D03*
%TO.P,U4,15,PA5*%
%TO.N,/CTRL_SPI_CLK*%
X113750000Y-98937500D03*
%TO.P,U4,16,PA6*%
%TO.N,/CTRL_SPI_MISO*%
X114250000Y-98937500D03*
%TO.P,U4,17,PA7*%
%TO.N,/CTRL_SPI_MOSI*%
X114750000Y-98937500D03*
%TO.P,U4,18,PB0*%
%TO.N,/TMC_DIAG*%
X115250000Y-98937500D03*
%TO.P,U4,19,PB1*%
%TO.N,/TMC_INDEX*%
X115750000Y-98937500D03*
%TO.P,U4,20,PB2*%
%TO.N,unconnected-(U4-PB2-Pad20)*%
X116250000Y-98937500D03*
%TO.P,U4,21,PB10*%
%TO.N,/I2C_SDA*%
X116750000Y-98937500D03*
%TO.P,U4,22,VCAP_1*%
%TO.N,Net-(U4-VCAP_1)*%
X117250000Y-98937500D03*
%TO.P,U4,23,VSS*%
%TO.N,GND*%
X117750000Y-98937500D03*
%TO.P,U4,24,VDD*%
%TO.N,+3V3*%
X118250000Y-98937500D03*
D32*
%TO.P,U4,25,PB12*%
%TO.N,/TMC_STEP*%
X118937500Y-98250000D03*
%TO.P,U4,26,PB13*%
%TO.N,/TMC_DIR*%
X118937500Y-97750000D03*
%TO.P,U4,27,PB14*%
%TO.N,/TMC_SPREAD*%
X118937500Y-97250000D03*
%TO.P,U4,28,PB15*%
%TO.N,/TMC_STDBY*%
X118937500Y-96750000D03*
%TO.P,U4,29,PA8*%
%TO.N,/STATUS*%
X118937500Y-96250000D03*
%TO.P,U4,30,PA9*%
%TO.N,/TMC_UART_TX*%
X118937500Y-95750000D03*
%TO.P,U4,31,PA10*%
%TO.N,/TMC_UART_RX*%
X118937500Y-95250000D03*
%TO.P,U4,32,PA11*%
%TO.N,/USB_DN*%
X118937500Y-94750000D03*
%TO.P,U4,33,PA12*%
%TO.N,/USB_DP*%
X118937500Y-94250000D03*
%TO.P,U4,34,PA13*%
%TO.N,/JTAG_SWDIO*%
X118937500Y-93750000D03*
%TO.P,U4,35,VSS*%
%TO.N,GND*%
X118937500Y-93250000D03*
%TO.P,U4,36,VDD*%
%TO.N,+3V3*%
X118937500Y-92750000D03*
D33*
%TO.P,U4,37,PA14*%
%TO.N,/JTAG_SWCLK*%
X118250000Y-92062500D03*
%TO.P,U4,38,PA15*%
%TO.N,/FLASH_SPI_NCS*%
X117750000Y-92062500D03*
%TO.P,U4,39,PB3*%
%TO.N,/FLASH_SPI_CLK*%
X117250000Y-92062500D03*
%TO.P,U4,40,PB4*%
%TO.N,/FLASH_SPI_MISO*%
X116750000Y-92062500D03*
%TO.P,U4,41,PB5*%
%TO.N,/FLASH_SPI_MOSI*%
X116250000Y-92062500D03*
%TO.P,U4,42,PB6*%
%TO.N,/W25Q128_NWP*%
X115750000Y-92062500D03*
%TO.P,U4,43,PB7*%
%TO.N,/W25Q128_NRST*%
X115250000Y-92062500D03*
%TO.P,U4,44,BOOT0*%
%TO.N,/BOOT0*%
X114750000Y-92062500D03*
%TO.P,U4,45,PB8*%
%TO.N,unconnected-(U4-PB8-Pad45)*%
X114250000Y-92062500D03*
%TO.P,U4,46,PB9*%
%TO.N,/I2C_SCL*%
X113750000Y-92062500D03*
%TO.P,U4,47,VSS*%
%TO.N,GND*%
X113250000Y-92062500D03*
%TO.P,U4,48,VDD*%
%TO.N,+3V3*%
X112750000Y-92062500D03*
D34*
%TO.P,U4,49,VSS*%
%TO.N,GND*%
X115500000Y-95500000D03*
%TD*%
D14*
%TO.P,C2,1*%
%TO.N,+3V3*%
X130800000Y-103225000D03*
%TO.P,C2,2*%
%TO.N,GND*%
X130800000Y-104775000D03*
%TD*%
D35*
%TO.P,U1,1,VIN*%
%TO.N,+5V*%
X126899999Y-103850000D03*
%TO.P,U1,2,GND*%
%TO.N,GND*%
X126900000Y-104800000D03*
%TO.P,U1,3,EN*%
%TO.N,+5V*%
X126899999Y-105750000D03*
%TO.P,U1,4*%
%TO.N,N/C*%
X129300001Y-105750000D03*
%TO.P,U1,5,VOUT*%
%TO.N,+3V3*%
X129300001Y-103850000D03*
%TD*%
D28*
%TO.P,SW2,1,1*%
%TO.N,/NRST*%
X112525000Y-83800000D03*
X112525000Y-79650000D03*
%TO.P,SW2,2,2*%
%TO.N,GND*%
X114675000Y-83800000D03*
X114675000Y-79650000D03*
%TD*%
D15*
%TO.P,C12,1*%
%TO.N,GND*%
X111725000Y-78100000D03*
%TO.P,C12,2*%
%TO.N,/NRST*%
X113275000Y-78100000D03*
%TD*%
D36*
%TO.P,U5,29,GND*%
%TO.N,GND*%
X123700000Y-96575000D03*
X125566667Y-96575000D03*
X127433333Y-96575000D03*
X129300000Y-96575000D03*
D37*
X126500000Y-95500000D03*
D36*
X123700000Y-94425000D03*
X125566667Y-94425000D03*
X127433333Y-94425000D03*
X129300000Y-94425000D03*
%TD*%
D38*
%TO.N,GND*%
X95500000Y-105500000D03*
X127700000Y-104800000D03*
X110500000Y-80500000D03*
X113100000Y-93100000D03*
X135500000Y-105500000D03*
X120499999Y-85500000D03*
X128700000Y-104800000D03*
X125500000Y-75500000D03*
X126900000Y-103000000D03*
X100500000Y-85500000D03*
X105500000Y-80500000D03*
X113100000Y-89400000D03*
X113500000Y-80600000D03*
X130500000Y-75500000D03*
X100500000Y-75500000D03*
X118300000Y-107700000D03*
X115500000Y-110500000D03*
X95500000Y-80500000D03*
X135500000Y-80500000D03*
X126200000Y-104800000D03*
X95500000Y-110500000D03*
X95500000Y-85500000D03*
X110900000Y-78100000D03*
X113500000Y-81700000D03*
X130500000Y-115500000D03*
X97400002Y-102208949D03*
X105500000Y-110500000D03*
X117400000Y-79500000D03*
X100500000Y-90500000D03*
X112700000Y-100013786D03*
X113500000Y-82800000D03*
X123500000Y-103000000D03*
X125500000Y-85500000D03*
X120500000Y-75500000D03*
X105425000Y-96200000D03*
X120500000Y-115500000D03*
X113500000Y-79500000D03*
X116500000Y-87800000D03*
X121500000Y-111300000D03*
X114675000Y-81700000D03*
X108525000Y-92600000D03*
X123000000Y-101000000D03*
X95500000Y-90500000D03*
X129700000Y-104800000D03*
X124700000Y-107700000D03*
X106975000Y-92000000D03*
X120100000Y-78100000D03*
X117900000Y-96500000D03*
X130800000Y-105600000D03*
X105500000Y-85500000D03*
X125500000Y-80500000D03*
X120383246Y-92225000D03*
X130500000Y-90500000D03*
X100500000Y-115500000D03*
X114700000Y-85500000D03*
X131700000Y-104800000D03*
X110500000Y-75500000D03*
X113100000Y-97900000D03*
X115500000Y-105500000D03*
X108525000Y-91000000D03*
X110500000Y-100500000D03*
X114675000Y-80600000D03*
X105500000Y-100500000D03*
X110500000Y-85500000D03*
X100500000Y-105500000D03*
X116500000Y-85500000D03*
X117900000Y-94500000D03*
X100500000Y-100500000D03*
X125500000Y-115500000D03*
X110500000Y-105500000D03*
X135500000Y-85500000D03*
X130710387Y-97150001D03*
X109175000Y-97100000D03*
X130500000Y-85500000D03*
X118900000Y-101325000D03*
X122000000Y-102000000D03*
X130736262Y-93849999D03*
X114675000Y-82800000D03*
X95500000Y-100500000D03*
X117400000Y-82800000D03*
X117400000Y-81725000D03*
X105500000Y-75500000D03*
X125500000Y-103000000D03*
X109500000Y-113700000D03*
X95500000Y-95500000D03*
X105500000Y-105500000D03*
X111500000Y-112500000D03*
X120500000Y-80500000D03*
X135500000Y-110500000D03*
%TO.N,+5V*%
X121500000Y-112050003D03*
X124000000Y-103900000D03*
%TO.N,/USB_DN*%
X120449997Y-94800000D03*
%TO.N,+3.3VA*%
X111100000Y-97000000D03*
X125700000Y-89850000D03*
%TO.N,/USB_DP*%
X121200000Y-94800000D03*
%TO.N,Net-(J5-D+-PadA6)*%
X122300000Y-109700000D03*
%TO.N,Net-(J5-D--PadA7)*%
X120700000Y-109700000D03*
%TO.N,/NRST*%
X112500000Y-84700000D03*
X111100000Y-96200000D03*
%TO.N,/STATUS*%
X97400002Y-103808871D03*
X119799582Y-96300000D03*
%TO.N,/I2C_SDA*%
X116507512Y-99796921D03*
%TO.N,/I2C_SCL*%
X113800000Y-91100000D03*
%TO.N,/TMC_UART_RX*%
X121800000Y-91300000D03*
%TO.N,+24V*%
X130050002Y-95500000D03*
X125504412Y-101025000D03*
%TO.N,/AS5600_OUT*%
X110833006Y-97878563D03*
%TO.N,/TMC_UART_TX*%
X122549996Y-91303104D03*
%TO.N,+3V3*%
X116325000Y-81700000D03*
X110075000Y-92600000D03*
X101425000Y-103000000D03*
X118700000Y-98900000D03*
X131500000Y-102100000D03*
X129500000Y-102100000D03*
X115075000Y-100800000D03*
X115525000Y-78100000D03*
X124950003Y-91300000D03*
X132500000Y-101100000D03*
X129500000Y-101100000D03*
X118999999Y-92000000D03*
X128500000Y-103100000D03*
X131500000Y-100100000D03*
X132500000Y-103100000D03*
X112000000Y-92062500D03*
X133500000Y-101100000D03*
X116325000Y-80600000D03*
X128500000Y-100925000D03*
X133500000Y-100100000D03*
X133500000Y-102100000D03*
X131500000Y-101100000D03*
X129500000Y-103100000D03*
X116325000Y-82800000D03*
X130500000Y-101100000D03*
X132500000Y-100100000D03*
X117900000Y-85600000D03*
X132500000Y-102100000D03*
X131500000Y-103100000D03*
X129500000Y-100100000D03*
X110075000Y-91000000D03*
X130500000Y-102100000D03*
X109218750Y-98700000D03*
X130500000Y-100100000D03*
X133500000Y-103100000D03*
%TO.N,/BOOT0*%
X117700000Y-83800000D03*
X114611091Y-89488909D03*
%TO.N,/W25Q128_NRST*%
X117900000Y-86900000D03*
X115200000Y-90200000D03*
%TO.N,/JTAG_SWDIO*%
X121200000Y-93500000D03*
%TO.N,/JTAG_SWCLK*%
X118200000Y-90115687D03*
%TO.N,/TMC_NEN*%
X128175000Y-97325002D03*
X112350000Y-101400000D03*
X115000000Y-104200006D03*
%TO.N,/TMC_STDBY*%
X128300000Y-91300000D03*
%TO.N,/TMC_SPREAD*%
X119799582Y-97424999D03*
X119799582Y-99300000D03*
X124925000Y-99305653D03*
%TO.N,/TMC_MS1*%
X112850000Y-103450003D03*
X122741776Y-99855653D03*
X115000000Y-103450003D03*
%TO.N,/TMC_INDEX*%
X120499997Y-90200000D03*
X116375000Y-100543042D03*
%TO.N,/TMC_DIR*%
X127500000Y-91300000D03*
%TO.N,/TMC_STEP*%
X125700006Y-91300000D03*
%TO.N,/TMC_DIAG*%
X116203526Y-101273179D03*
X120500000Y-89449998D03*
%TO.N,/TMC_MS2*%
X121916806Y-99855653D03*
X112850000Y-102700000D03*
X115000000Y-102700000D03*
%TO.N,/FLASH_SPI_MOSI*%
X117806410Y-89406410D03*
X116200000Y-89400000D03*
%TO.N,/FLASH_SPI_NCS*%
X113100000Y-85600000D03*
X117650000Y-90625588D03*
%TD*%
D39*
%TO.N,GND*%
X108225000Y-93000000D02*
X108525000Y-93300000D01*
D40*
X117750000Y-98937500D02*
X117750000Y-99650000D01*
D39*
X126900000Y-104800000D02*
X130775000Y-104800000D01*
D40*
X120400000Y-92875000D02*
X120400000Y-92241754D01*
D39*
X130800000Y-104775000D02*
X130800000Y-105600000D01*
X111725000Y-78100000D02*
X110900000Y-78100000D01*
D40*
X118125000Y-100873696D02*
X118576304Y-101325000D01*
X113250000Y-92062500D02*
X113250000Y-93250000D01*
X113250000Y-93250000D02*
X115500000Y-95500000D01*
D39*
X108525000Y-97100000D02*
X109175000Y-97100000D01*
X106975000Y-91200000D02*
X106975000Y-92875000D01*
D40*
X114750000Y-96250000D02*
X112062500Y-96250000D01*
D39*
X106850000Y-93000000D02*
X108225000Y-93000000D01*
X131675000Y-104775000D02*
X131700000Y-104800000D01*
X113095000Y-89405000D02*
X113100000Y-89400000D01*
X97391053Y-102200000D02*
X97400002Y-102208949D01*
D40*
X117750000Y-93250000D02*
X115500000Y-95500000D01*
D39*
X106975000Y-91200000D02*
X107625000Y-91200000D01*
X96712499Y-102200000D02*
X97391053Y-102200000D01*
D40*
X115500000Y-95500000D02*
X114750000Y-96250000D01*
X117750000Y-99650000D02*
X118125000Y-100025000D01*
X117750000Y-98937500D02*
X117750000Y-97750000D01*
D39*
X108525000Y-93300000D02*
X108525000Y-90300000D01*
D40*
X120400000Y-92241754D02*
X120383246Y-92225000D01*
D39*
X119325000Y-78100000D02*
X120100000Y-78100000D01*
X111900000Y-89405000D02*
X113095000Y-89405000D01*
D40*
X118937500Y-93250000D02*
X120025000Y-93250000D01*
X118576304Y-101325000D02*
X118900000Y-101325000D01*
D39*
X117300000Y-101975000D02*
X118900000Y-101975000D01*
D40*
X118937500Y-93250000D02*
X117750000Y-93250000D01*
D39*
X118300000Y-108705000D02*
X118300000Y-107700000D01*
X114675000Y-83800000D02*
X114675000Y-79650000D01*
X124700000Y-106925000D02*
X124825000Y-106800000D01*
X130800000Y-104775000D02*
X131675000Y-104775000D01*
X130775000Y-104800000D02*
X130800000Y-104775000D01*
X124700000Y-107700000D02*
X124700000Y-106925000D01*
X107625000Y-91200000D02*
X108525000Y-90300000D01*
X106975000Y-92875000D02*
X106850000Y-93000000D01*
X105425000Y-97000000D02*
X105425000Y-95475000D01*
X124700000Y-108705000D02*
X124700000Y-107700000D01*
X105425000Y-95475000D02*
X105150000Y-95200000D01*
D40*
X120025000Y-93250000D02*
X120400000Y-92875000D01*
X118900000Y-101975000D02*
X118900000Y-101325000D01*
X117750000Y-97750000D02*
X115500000Y-95500000D01*
X118125000Y-100025000D02*
X118125000Y-100873696D01*
D39*
X125550000Y-104800000D02*
X126900000Y-104800000D01*
D40*
%TO.N,+5V*%
X119100000Y-108705000D02*
X119300000Y-108905000D01*
X123715000Y-109933529D02*
X121598526Y-112050003D01*
D39*
X124000000Y-108605000D02*
X124000000Y-104800000D01*
D40*
X119300000Y-108905000D02*
X119300000Y-109982526D01*
D39*
X119100000Y-108705000D02*
X119100000Y-108031170D01*
D40*
X121367477Y-112050003D02*
X121500000Y-112050003D01*
D39*
X124950000Y-105750000D02*
X124000000Y-104800000D01*
X126899999Y-103850000D02*
X124950000Y-103850000D01*
X123900000Y-108705000D02*
X124000000Y-108605000D01*
D40*
X123900000Y-108705000D02*
X123715000Y-108890000D01*
D39*
X119100000Y-108031170D02*
X122331170Y-104800000D01*
X122331170Y-104800000D02*
X124000000Y-104800000D01*
X124000000Y-103900000D02*
X124000000Y-104800000D01*
D40*
X121598526Y-112050003D02*
X121500000Y-112050003D01*
D39*
X124950000Y-103850000D02*
X124000000Y-104800000D01*
D40*
X119300000Y-109982526D02*
X121367477Y-112050003D01*
X123715000Y-108890000D02*
X123715000Y-109933529D01*
D39*
X126899999Y-105750000D02*
X124950000Y-105750000D01*
D40*
%TO.N,Net-(U4-VCAP_1)*%
X117250000Y-100375000D02*
X117300000Y-100425000D01*
X117250000Y-98937500D02*
X117250000Y-100375000D01*
D39*
%TO.N,/HSE_IN*%
X105425000Y-91200000D02*
X105425000Y-92725000D01*
D40*
X105800000Y-94200000D02*
X105150000Y-93550000D01*
X105150000Y-93550000D02*
X105150000Y-93000000D01*
X112062500Y-94750000D02*
X110862648Y-94750000D01*
D39*
X105425000Y-92725000D02*
X105150000Y-93000000D01*
D40*
X110862648Y-94750000D02*
X110312648Y-94200000D01*
X110312648Y-94200000D02*
X105800000Y-94200000D01*
D39*
%TO.N,Net-(C14-Pad1)*%
X106850000Y-96875000D02*
X106975000Y-97000000D01*
X108475000Y-95200000D02*
X106850000Y-95200000D01*
X106850000Y-95200000D02*
X106850000Y-96875000D01*
D40*
%TO.N,/USB_DN*%
X120399997Y-94750000D02*
X118937500Y-94750000D01*
X120449997Y-94800000D02*
X120399997Y-94750000D01*
%TO.N,+3.3VA*%
X111000000Y-97100000D02*
X111100000Y-97000000D01*
X110075000Y-97100000D02*
X111000000Y-97100000D01*
X111350000Y-96750000D02*
X111100000Y-97000000D01*
D39*
X110106250Y-98700000D02*
X110106250Y-97131250D01*
X110106250Y-97131250D02*
X110075000Y-97100000D01*
D40*
X112062500Y-96750000D02*
X111350000Y-96750000D01*
%TO.N,/USB_DP*%
X118987500Y-94200000D02*
X118937500Y-94250000D01*
X120900000Y-94200000D02*
X118987500Y-94200000D01*
X121200000Y-94500000D02*
X120900000Y-94200000D01*
X121200000Y-94800000D02*
X121200000Y-94500000D01*
%TO.N,Net-(J5-D+-PadA6)*%
X122250000Y-108705000D02*
X122250000Y-109650000D01*
X122250000Y-109650000D02*
X122300000Y-109700000D01*
X122250000Y-108022590D02*
X122250000Y-108705000D01*
X121250000Y-108705000D02*
X121250000Y-108022590D01*
X121250000Y-108022590D02*
X121517590Y-107755000D01*
X121517590Y-107755000D02*
X121982410Y-107755000D01*
X121982410Y-107755000D02*
X122250000Y-108022590D01*
%TO.N,Net-(J5-D--PadA7)*%
X121750000Y-108705000D02*
X121750000Y-109387410D01*
X121750000Y-109387410D02*
X121437410Y-109700000D01*
X120750000Y-109650000D02*
X120700000Y-109700000D01*
X120750000Y-108705000D02*
X120750000Y-109650000D01*
X121437410Y-109700000D02*
X120700000Y-109700000D01*
%TO.N,Net-(J5-CC1)*%
X123250000Y-106875000D02*
X123175000Y-106800000D01*
X120250000Y-108705001D02*
X120250000Y-108022590D01*
X123250000Y-108705000D02*
X123250000Y-106875000D01*
X120250000Y-108022590D02*
X121472590Y-106800000D01*
X121472590Y-106800000D02*
X123175000Y-106800000D01*
D41*
%TO.N,/NRST*%
X112525000Y-84675000D02*
X112500000Y-84700000D01*
X112525000Y-83800000D02*
X112525000Y-84675000D01*
D39*
X112525000Y-79650000D02*
X112525000Y-78850000D01*
X113275000Y-78100000D02*
X114675000Y-78100000D01*
X112525000Y-78850000D02*
X113275000Y-78100000D01*
X112525000Y-79650000D02*
X112525000Y-83800000D01*
D41*
X111550000Y-95750000D02*
X112062500Y-95750000D01*
X111100000Y-96200000D02*
X111550000Y-95750000D01*
D39*
%TO.N,Net-(D1-A)*%
X98287501Y-102200000D02*
X99775000Y-102200000D01*
%TO.N,Net-(D2-A)*%
X99775000Y-103800000D02*
X98287501Y-103800000D01*
D41*
%TO.N,/FLASH_SPI_CLK*%
X117250000Y-92062500D02*
X117250000Y-91681326D01*
X118300001Y-88135000D02*
X119100000Y-88135000D01*
X117100000Y-89335001D02*
X118300001Y-88135000D01*
X117250000Y-91681326D02*
X117100000Y-91531326D01*
X117100000Y-91531326D02*
X117100000Y-89335001D01*
D39*
%TO.N,/STATUS*%
X96712499Y-103800000D02*
X97391131Y-103800000D01*
X97391131Y-103800000D02*
X97400002Y-103808871D01*
D41*
X119749582Y-96250000D02*
X118937500Y-96250000D01*
X119799582Y-96300000D02*
X119749582Y-96250000D01*
D40*
%TO.N,/HSE_OUT*%
X110175000Y-95250000D02*
X110125000Y-95200000D01*
X112062500Y-95250000D02*
X110175000Y-95250000D01*
D41*
%TO.N,/I2C_SDA*%
X116750000Y-99554433D02*
X116750000Y-98937500D01*
X116507512Y-99796921D02*
X116750000Y-99554433D01*
%TO.N,/I2C_SCL*%
X113750000Y-91150000D02*
X113800000Y-91100000D01*
X113750000Y-92062500D02*
X113750000Y-91150000D01*
%TO.N,/CTRL_SPI_MISO*%
X114250000Y-100352207D02*
X114100000Y-100502207D01*
X114100000Y-108539950D02*
X110500000Y-112139950D01*
X114250000Y-98937500D02*
X114250000Y-100352207D01*
X110500000Y-112139950D02*
X110500000Y-115150000D01*
X114100000Y-100502207D02*
X114100000Y-108539950D01*
%TO.N,/TMC_UART_RX*%
X119062499Y-95374999D02*
X121402819Y-95374999D01*
X118937500Y-95250000D02*
X119062499Y-95374999D01*
X121750000Y-91350000D02*
X121800000Y-91300000D01*
X121750000Y-95027818D02*
X121750000Y-91350000D01*
X121402819Y-95374999D02*
X121750000Y-95027818D01*
%TO.N,/AS5600_OUT*%
X110999255Y-97878563D02*
X111627818Y-97250000D01*
X111627818Y-97250000D02*
X112062500Y-97250000D01*
X110833006Y-97878563D02*
X110999255Y-97878563D01*
%TO.N,/TMC_UART_TX*%
X122100000Y-91777818D02*
X122549996Y-91327822D01*
X122100000Y-95172793D02*
X122100000Y-91777818D01*
X121522793Y-95750000D02*
X122100000Y-95172793D01*
X118937500Y-95750000D02*
X121522793Y-95750000D01*
X122549996Y-91327822D02*
X122549996Y-91303104D01*
%TO.N,/CTRL_SPI_NCS*%
X113250000Y-98937500D02*
X113250000Y-100350000D01*
X113400000Y-100500000D02*
X113400000Y-108250000D01*
X113400000Y-108250000D02*
X106500000Y-115150000D01*
X113250000Y-100350000D02*
X113400000Y-100500000D01*
D40*
%TO.N,+3V3*%
X112062500Y-92125000D02*
X112000000Y-92062500D01*
X118900000Y-100425000D02*
X118900000Y-99100000D01*
X118700000Y-98900000D02*
X118287500Y-98900000D01*
D39*
X119100000Y-85595000D02*
X117905000Y-85595000D01*
D40*
X118900000Y-99100000D02*
X118700000Y-98900000D01*
X112062500Y-92750000D02*
X112062500Y-92125000D01*
X110337500Y-92062500D02*
X110075000Y-91800000D01*
X110625000Y-92750000D02*
X110075000Y-93300000D01*
D39*
X101425000Y-102200000D02*
X101425000Y-103800000D01*
D40*
X112750000Y-92062500D02*
X110337500Y-92062500D01*
D39*
X110075000Y-93300000D02*
X110075000Y-90300000D01*
X116325000Y-78100000D02*
X116325000Y-78025000D01*
D40*
X118937500Y-92750000D02*
X118937500Y-92062499D01*
D39*
X116325000Y-79650000D02*
X116325000Y-78100000D01*
D40*
X112062500Y-92750000D02*
X110625000Y-92750000D01*
X118937500Y-92062499D02*
X118999999Y-92000000D01*
D39*
X116325000Y-83800000D02*
X116325000Y-79650000D01*
X116325000Y-78100000D02*
X115525000Y-78100000D01*
D40*
X118287500Y-98900000D02*
X118250000Y-98937500D01*
D39*
X107981250Y-98700000D02*
X109218750Y-98700000D01*
X117905000Y-85595000D02*
X117900000Y-85600000D01*
D40*
X119674999Y-91325000D02*
X118999999Y-92000000D01*
X120400000Y-91325000D02*
X119674999Y-91325000D01*
D39*
X129300001Y-103850000D02*
X130175000Y-103850000D01*
X130175000Y-103850000D02*
X130800000Y-103225000D01*
D41*
%TO.N,/BOOT0*%
X114611091Y-89488909D02*
X114611091Y-90611091D01*
D39*
X118475000Y-79650000D02*
X118475000Y-78900000D01*
D41*
X117700000Y-83800000D02*
X118475000Y-83800000D01*
D39*
X118475000Y-83800000D02*
X118475000Y-79650000D01*
X118475000Y-78900000D02*
X117675000Y-78100000D01*
D41*
X114611091Y-90611091D02*
X114750000Y-90750000D01*
X114750000Y-90750000D02*
X114750000Y-92062500D01*
%TO.N,/W25Q128_NRST*%
X115250000Y-90250000D02*
X115200000Y-90200000D01*
X119065000Y-86900000D02*
X119100000Y-86865000D01*
X115250000Y-92062500D02*
X115250000Y-90250000D01*
X117900000Y-86900000D02*
X119065000Y-86900000D01*
%TO.N,/JTAG_SWDIO*%
X121200000Y-93500000D02*
X120950000Y-93750000D01*
X120950000Y-93750000D02*
X118937500Y-93750000D01*
%TO.N,/JTAG_SWCLK*%
X118200000Y-90115687D02*
X118374999Y-90290686D01*
X118374999Y-90290686D02*
X118374999Y-91937501D01*
X118374999Y-91937501D02*
X118250000Y-92062500D01*
%TO.N,/TMC_NEN*%
X128175000Y-97325002D02*
X121299996Y-104200006D01*
X112150000Y-101200000D02*
X112150000Y-99537500D01*
X121299996Y-104200006D02*
X115000000Y-104200006D01*
X112150000Y-99537500D02*
X112750000Y-98937500D01*
X112350000Y-101400000D02*
X112150000Y-101200000D01*
%TO.N,/TMC_STDBY*%
X128300000Y-91300000D02*
X127400000Y-90400000D01*
X119062499Y-96874999D02*
X118937500Y-96750000D01*
X122450000Y-95450000D02*
X121025001Y-96874999D01*
X122450000Y-92350000D02*
X122450000Y-95450000D01*
X124400000Y-90400000D02*
X122450000Y-92350000D01*
X121025001Y-96874999D02*
X119062499Y-96874999D01*
X127400000Y-90400000D02*
X124400000Y-90400000D01*
%TO.N,/FLASH_SPI_MISO*%
X116750000Y-92062500D02*
X116750000Y-89150000D01*
X116750000Y-89150000D02*
X114465000Y-86865000D01*
X114465000Y-86865000D02*
X111900000Y-86865000D01*
%TO.N,/W25Q128_NWP*%
X114035000Y-88135000D02*
X111900000Y-88135000D01*
X115750000Y-92062500D02*
X115750000Y-89850000D01*
X115750000Y-89850000D02*
X114035000Y-88135000D01*
%TO.N,/TMC_SPREAD*%
X119805235Y-99305653D02*
X124925000Y-99305653D01*
X118937500Y-97250000D02*
X119624583Y-97250000D01*
X119799582Y-99300000D02*
X119805235Y-99305653D01*
X119624583Y-97250000D02*
X119799582Y-97424999D01*
%TO.N,/TMC_MS1*%
X119147426Y-103450003D02*
X122741776Y-99855653D01*
X112150003Y-103450003D02*
X112850000Y-103450003D01*
X115000000Y-103450003D02*
X119147426Y-103450003D01*
X111375000Y-98000001D02*
X111375000Y-102675000D01*
X112062500Y-97750000D02*
X111625001Y-97750000D01*
X111375000Y-102675000D02*
X112150003Y-103450003D01*
X111625001Y-97750000D02*
X111375000Y-98000001D01*
%TO.N,/CTRL_SPI_CLK*%
X113750000Y-108394975D02*
X108500000Y-113644975D01*
X108500000Y-113644975D02*
X108500000Y-115150000D01*
X113750000Y-98937500D02*
X113750000Y-108394975D01*
%TO.N,/CTRL_SPI_MOSI*%
X114450000Y-108684925D02*
X112500000Y-110634925D01*
X112500000Y-110634925D02*
X112500000Y-115150000D01*
X114750000Y-98937500D02*
X114750000Y-100347182D01*
X114750000Y-100347182D02*
X114450000Y-100647182D01*
X114450000Y-100647182D02*
X114450000Y-108684925D01*
%TO.N,/TMC_INDEX*%
X115750000Y-99918042D02*
X115750000Y-98937500D01*
X116375000Y-100543042D02*
X115750000Y-99918042D01*
%TO.N,/TMC_DIR*%
X118937500Y-97750000D02*
X119346765Y-97750000D01*
X119571764Y-97974999D02*
X120419975Y-97974999D01*
X126950000Y-90750000D02*
X127500000Y-91300000D01*
X122800000Y-92494974D02*
X124544974Y-90750000D01*
X120419975Y-97974999D02*
X122800000Y-95594974D01*
X124544974Y-90750000D02*
X126950000Y-90750000D01*
X119346765Y-97750000D02*
X119571764Y-97974999D01*
X122800000Y-95594974D02*
X122800000Y-92494974D01*
%TO.N,/TMC_STEP*%
X119037500Y-98350000D02*
X120539949Y-98350000D01*
X125700006Y-91327815D02*
X125700006Y-91300000D01*
X123150000Y-95739949D02*
X123150000Y-93877821D01*
X118937500Y-98250000D02*
X119037500Y-98350000D01*
X123150000Y-93877821D02*
X125700006Y-91327815D01*
X120539949Y-98350000D02*
X123150000Y-95739949D01*
%TO.N,/TMC_DIAG*%
X116203526Y-101273179D02*
X116203526Y-101149386D01*
X116203526Y-101149386D02*
X115250000Y-100195860D01*
X115250000Y-100195860D02*
X115250000Y-98937500D01*
%TO.N,/TMC_MS2*%
X112062500Y-98250000D02*
X111800000Y-98512500D01*
X115000000Y-102700000D02*
X119327986Y-102700000D01*
X111800000Y-101650000D02*
X112850000Y-102700000D01*
X111800000Y-98512500D02*
X111800000Y-101650000D01*
X119327986Y-102700000D02*
X121916806Y-100111180D01*
X121916806Y-100111180D02*
X121916806Y-99855653D01*
%TO.N,/FLASH_SPI_MOSI*%
X116250000Y-92062500D02*
X116250000Y-89450000D01*
X117806410Y-89406410D02*
X119098590Y-89406410D01*
X119098590Y-89406410D02*
X119100000Y-89405000D01*
X116250000Y-89450000D02*
X116200000Y-89400000D01*
%TO.N,/FLASH_SPI_NCS*%
X117650000Y-90625588D02*
X117750000Y-90725588D01*
X117750000Y-90725588D02*
X117750000Y-92062500D01*
X111905000Y-85600000D02*
X111900000Y-85595000D01*
X113100000Y-85600000D02*
X111905000Y-85600000D01*
%TD*%
%TA.AperFunction,Conductor*%
%TO.N,GND*%
G36*
X113599912Y-74870185D02*
G01*
X113645667Y-74922989D01*
X113655611Y-74992147D01*
X113629626Y-75049044D01*
X113631028Y-75050103D01*
X113627573Y-75054677D01*
X113627573Y-75054678D01*
X113617877Y-75067518D01*
X113496288Y-75228527D01*
X113399184Y-75423537D01*
X113339564Y-75633081D01*
X113319464Y-75849999D01*
X113319464Y-75850000D01*
X113339564Y-76066918D01*
X113339564Y-76066920D01*
X113339565Y-76066923D01*
X113399183Y-76276459D01*
X113496288Y-76471472D01*
X113627573Y-76645322D01*
X113788568Y-76792088D01*
X113788575Y-76792092D01*
X113788576Y-76792093D01*
X113973786Y-76906770D01*
X113973787Y-76906770D01*
X113973790Y-76906772D01*
X114144395Y-76972865D01*
X114199793Y-77015436D01*
X114223384Y-77081203D01*
X114207673Y-77149283D01*
X114163748Y-77194607D01*
X114054648Y-77260560D01*
X113987093Y-77278396D01*
X113925401Y-77259981D01*
X113808705Y-77188001D01*
X113808699Y-77187998D01*
X113808697Y-77187997D01*
X113782487Y-77179312D01*
X113647709Y-77134651D01*
X113548346Y-77124500D01*
X113001662Y-77124500D01*
X113001644Y-77124501D01*
X112902292Y-77134650D01*
X112902289Y-77134651D01*
X112741305Y-77187996D01*
X112741294Y-77188001D01*
X112596959Y-77277029D01*
X112596955Y-77277032D01*
X112477032Y-77396955D01*
X112477029Y-77396959D01*
X112388001Y-77541294D01*
X112387996Y-77541305D01*
X112334651Y-77702290D01*
X112324500Y-77801647D01*
X112324500Y-77937770D01*
X112304815Y-78004809D01*
X112288181Y-78025451D01*
X111942047Y-78371584D01*
X111942045Y-78371586D01*
X111918167Y-78407324D01*
X111908640Y-78421584D01*
X111889975Y-78449519D01*
X111859914Y-78494507D01*
X111803343Y-78631082D01*
X111803340Y-78631092D01*
X111774500Y-78776079D01*
X111774500Y-78817513D01*
X111759333Y-78876939D01*
X111756203Y-78882670D01*
X111705908Y-79017517D01*
X111699675Y-79075498D01*
X111699501Y-79077123D01*
X111699500Y-79077135D01*
X111699500Y-80222870D01*
X111699501Y-80222876D01*
X111705908Y-80282483D01*
X111756203Y-80417330D01*
X111759329Y-80423054D01*
X111774500Y-80482486D01*
X111774500Y-82967513D01*
X111759333Y-83026939D01*
X111756203Y-83032670D01*
X111705908Y-83167517D01*
X111700442Y-83218364D01*
X111699501Y-83227123D01*
X111699500Y-83227135D01*
X111699500Y-84372870D01*
X111699501Y-84372876D01*
X111705908Y-84432483D01*
X111710854Y-84445743D01*
X111715836Y-84515435D01*
X111715564Y-84516657D01*
X111714631Y-84520744D01*
X111696194Y-84684383D01*
X111669128Y-84748797D01*
X111611533Y-84788353D01*
X111572974Y-84794500D01*
X111184298Y-84794500D01*
X111147432Y-84797401D01*
X111147426Y-84797402D01*
X110989606Y-84843254D01*
X110989603Y-84843255D01*
X110848137Y-84926917D01*
X110848129Y-84926923D01*
X110731923Y-85043129D01*
X110731917Y-85043137D01*
X110648255Y-85184603D01*
X110648254Y-85184606D01*
X110602402Y-85342426D01*
X110602401Y-85342432D01*
X110599500Y-85379298D01*
X110599500Y-85810701D01*
X110602401Y-85847567D01*
X110602402Y-85847573D01*
X110648254Y-86005393D01*
X110648255Y-86005396D01*
X110731917Y-86146862D01*
X110736702Y-86153031D01*
X110734256Y-86154927D01*
X110760857Y-86203642D01*
X110755873Y-86273334D01*
X110735069Y-86305703D01*
X110736702Y-86306969D01*
X110731917Y-86313137D01*
X110648255Y-86454603D01*
X110648254Y-86454606D01*
X110602402Y-86612426D01*
X110602401Y-86612432D01*
X110599500Y-86649298D01*
X110599500Y-87080701D01*
X110602401Y-87117567D01*
X110602402Y-87117573D01*
X110648254Y-87275393D01*
X110648255Y-87275396D01*
X110731917Y-87416862D01*
X110736702Y-87423031D01*
X110734256Y-87424927D01*
X110760857Y-87473642D01*
X110755873Y-87543334D01*
X110735069Y-87575703D01*
X110736702Y-87576969D01*
X110731917Y-87583137D01*
X110648255Y-87724603D01*
X110648254Y-87724606D01*
X110602402Y-87882426D01*
X110602401Y-87882432D01*
X110599500Y-87919298D01*
X110599500Y-88350701D01*
X110602401Y-88387567D01*
X110602402Y-88387573D01*
X110648254Y-88545393D01*
X110648255Y-88545396D01*
X110648256Y-88545398D01*
X110671569Y-88584818D01*
X110731917Y-88686862D01*
X110731923Y-88686870D01*
X110848129Y-88803076D01*
X110848133Y-88803079D01*
X110848135Y-88803081D01*
X110989602Y-88886744D01*
X111031224Y-88898836D01*
X111147426Y-88932597D01*
X111147429Y-88932597D01*
X111147431Y-88932598D01*
X111184306Y-88935500D01*
X111184314Y-88935500D01*
X112615686Y-88935500D01*
X112615694Y-88935500D01*
X112652569Y-88932598D01*
X112652571Y-88932597D01*
X112652573Y-88932597D01*
X112694191Y-88920505D01*
X112810398Y-88886744D01*
X112951865Y-88803081D01*
X112983126Y-88771820D01*
X113044448Y-88738334D01*
X113070808Y-88735500D01*
X113734903Y-88735500D01*
X113801942Y-88755185D01*
X113822584Y-88771819D01*
X113933013Y-88882248D01*
X113966498Y-88943571D01*
X113961514Y-89013263D01*
X113950326Y-89035901D01*
X113885302Y-89139385D01*
X113825722Y-89309654D01*
X113825721Y-89309659D01*
X113805526Y-89488905D01*
X113805526Y-89488912D01*
X113825721Y-89668158D01*
X113825722Y-89668163D01*
X113885302Y-89838432D01*
X113981276Y-89991172D01*
X113983536Y-89994006D01*
X113984425Y-89996184D01*
X113984980Y-89997067D01*
X113984825Y-89997164D01*
X114009946Y-90058692D01*
X114010591Y-90071321D01*
X114010591Y-90179406D01*
X113990906Y-90246445D01*
X113938102Y-90292200D01*
X113872709Y-90302626D01*
X113800005Y-90294435D01*
X113799996Y-90294435D01*
X113620750Y-90314630D01*
X113620745Y-90314631D01*
X113450476Y-90374211D01*
X113297737Y-90470184D01*
X113170184Y-90597737D01*
X113074211Y-90750476D01*
X113014631Y-90920745D01*
X113014630Y-90920750D01*
X113003740Y-91017410D01*
X112976674Y-91081824D01*
X112919079Y-91121380D01*
X112864335Y-91126466D01*
X112849401Y-91124500D01*
X112650596Y-91124500D01*
X112540536Y-91138988D01*
X112540527Y-91138991D01*
X112403573Y-91195719D01*
X112403571Y-91195720D01*
X112313621Y-91264740D01*
X112248451Y-91289933D01*
X112197184Y-91283405D01*
X112179258Y-91277133D01*
X112179257Y-91277132D01*
X112179255Y-91277132D01*
X112179253Y-91277131D01*
X112179246Y-91277130D01*
X112000004Y-91256935D01*
X111999996Y-91256935D01*
X111820750Y-91277130D01*
X111820737Y-91277133D01*
X111650481Y-91336709D01*
X111650477Y-91336710D01*
X111560904Y-91392994D01*
X111494932Y-91412000D01*
X111108107Y-91412000D01*
X111041068Y-91392315D01*
X110995313Y-91339511D01*
X110990401Y-91327004D01*
X110984846Y-91310240D01*
X110962003Y-91241303D01*
X110892628Y-91128830D01*
X110874188Y-91061439D01*
X110874945Y-91049873D01*
X110878735Y-91016235D01*
X110896417Y-90965026D01*
X110896418Y-90965025D01*
X110962003Y-90858697D01*
X111015349Y-90697708D01*
X111025500Y-90598345D01*
X111025499Y-90001656D01*
X111015349Y-89902292D01*
X110962003Y-89741303D01*
X110961999Y-89741297D01*
X110961998Y-89741294D01*
X110872970Y-89596959D01*
X110872967Y-89596955D01*
X110753044Y-89477032D01*
X110753040Y-89477029D01*
X110608705Y-89388001D01*
X110608699Y-89387998D01*
X110608697Y-89387997D01*
X110608694Y-89387996D01*
X110447709Y-89334651D01*
X110348346Y-89324500D01*
X109801662Y-89324500D01*
X109801644Y-89324501D01*
X109702292Y-89334650D01*
X109702289Y-89334651D01*
X109541305Y-89387996D01*
X109541294Y-89388001D01*
X109396959Y-89477029D01*
X109396955Y-89477032D01*
X109277032Y-89596955D01*
X109277029Y-89596959D01*
X109188001Y-89741294D01*
X109187996Y-89741305D01*
X109134651Y-89902290D01*
X109124500Y-90001647D01*
X109124500Y-90598337D01*
X109124501Y-90598355D01*
X109134650Y-90697707D01*
X109134651Y-90697709D01*
X109151493Y-90748535D01*
X109187997Y-90858697D01*
X109253582Y-90965026D01*
X109271264Y-91016240D01*
X109275051Y-91049852D01*
X109262996Y-91118674D01*
X109257370Y-91128832D01*
X109187998Y-91241300D01*
X109187996Y-91241305D01*
X109134651Y-91402290D01*
X109124500Y-91501647D01*
X109124500Y-92098337D01*
X109124501Y-92098355D01*
X109134650Y-92197707D01*
X109134651Y-92197710D01*
X109187996Y-92358694D01*
X109188001Y-92358705D01*
X109257369Y-92471167D01*
X109275810Y-92538559D01*
X109275051Y-92550148D01*
X109271264Y-92583757D01*
X109253583Y-92634969D01*
X109188000Y-92741296D01*
X109187996Y-92741305D01*
X109134651Y-92902290D01*
X109124500Y-93001647D01*
X109124500Y-93001655D01*
X109124500Y-93250000D01*
X109124501Y-93425500D01*
X109104817Y-93492539D01*
X109052013Y-93538294D01*
X109000501Y-93549500D01*
X106374500Y-93549500D01*
X106307461Y-93529815D01*
X106261706Y-93477011D01*
X106250500Y-93425500D01*
X106250499Y-92252129D01*
X106250498Y-92252123D01*
X106250497Y-92252116D01*
X106244091Y-92192517D01*
X106244088Y-92192510D01*
X106190697Y-92049360D01*
X106191991Y-92048877D01*
X106179120Y-91989736D01*
X106203530Y-91924269D01*
X106215114Y-91910897D01*
X106222968Y-91903044D01*
X106312003Y-91758697D01*
X106365349Y-91597708D01*
X106375500Y-91498345D01*
X106375499Y-90901656D01*
X106371110Y-90858694D01*
X106365349Y-90802292D01*
X106365348Y-90802289D01*
X106359916Y-90785897D01*
X106312003Y-90641303D01*
X106311999Y-90641297D01*
X106311998Y-90641294D01*
X106222970Y-90496959D01*
X106222967Y-90496955D01*
X106103044Y-90377032D01*
X106103040Y-90377029D01*
X105958705Y-90288001D01*
X105958699Y-90287998D01*
X105958697Y-90287997D01*
X105928495Y-90277989D01*
X105797709Y-90234651D01*
X105698346Y-90224500D01*
X105151662Y-90224500D01*
X105151644Y-90224501D01*
X105052292Y-90234650D01*
X105052289Y-90234651D01*
X104891305Y-90287996D01*
X104891294Y-90288001D01*
X104746959Y-90377029D01*
X104746955Y-90377032D01*
X104627032Y-90496955D01*
X104627029Y-90496959D01*
X104538001Y-90641294D01*
X104537996Y-90641305D01*
X104484651Y-90802290D01*
X104474500Y-90901647D01*
X104474500Y-91498337D01*
X104474501Y-91498355D01*
X104484650Y-91597707D01*
X104484651Y-91597710D01*
X104503832Y-91655593D01*
X104506234Y-91725421D01*
X104470502Y-91785463D01*
X104429459Y-91810779D01*
X104307671Y-91856202D01*
X104307664Y-91856206D01*
X104192455Y-91942452D01*
X104192452Y-91942455D01*
X104106206Y-92057664D01*
X104106202Y-92057671D01*
X104055908Y-92192517D01*
X104049501Y-92252116D01*
X104049501Y-92252123D01*
X104049500Y-92252135D01*
X104049500Y-93747870D01*
X104049501Y-93747876D01*
X104055908Y-93807483D01*
X104106202Y-93942328D01*
X104106206Y-93942335D01*
X104192452Y-94057544D01*
X104192455Y-94057547D01*
X104307664Y-94143793D01*
X104307671Y-94143797D01*
X104325911Y-94150600D01*
X104442517Y-94194091D01*
X104502127Y-94200500D01*
X104829191Y-94200499D01*
X104896230Y-94220183D01*
X104916872Y-94236818D01*
X105385325Y-94705272D01*
X105385326Y-94705273D01*
X105385329Y-94705275D01*
X105385331Y-94705277D01*
X105481421Y-94769481D01*
X105481420Y-94769481D01*
X105481422Y-94769482D01*
X105491873Y-94776465D01*
X105610256Y-94825501D01*
X105649693Y-94833345D01*
X105711601Y-94865729D01*
X105746176Y-94926444D01*
X105749500Y-94954962D01*
X105749500Y-95947870D01*
X105749501Y-95947876D01*
X105755908Y-96007483D01*
X105806202Y-96142328D01*
X105806206Y-96142335D01*
X105892452Y-96257544D01*
X105892455Y-96257547D01*
X106007662Y-96343792D01*
X106012212Y-96346276D01*
X106061619Y-96395679D01*
X106076474Y-96463951D01*
X106070496Y-96494114D01*
X106034651Y-96602288D01*
X106024500Y-96701647D01*
X106024500Y-97298337D01*
X106024501Y-97298355D01*
X106034650Y-97397707D01*
X106034651Y-97397710D01*
X106087996Y-97558694D01*
X106088001Y-97558705D01*
X106177029Y-97703040D01*
X106177032Y-97703044D01*
X106296955Y-97822967D01*
X106296959Y-97822970D01*
X106441294Y-97911998D01*
X106441297Y-97911999D01*
X106441303Y-97912003D01*
X106602292Y-97965349D01*
X106701655Y-97975500D01*
X106946813Y-97975499D01*
X107013851Y-97995183D01*
X107059606Y-98047987D01*
X107069550Y-98117146D01*
X107064518Y-98138501D01*
X107053315Y-98172309D01*
X107053313Y-98172316D01*
X107043250Y-98270818D01*
X107043250Y-99129181D01*
X107053313Y-99227683D01*
X107106200Y-99387284D01*
X107106205Y-99387295D01*
X107194466Y-99530387D01*
X107194469Y-99530391D01*
X107313358Y-99649280D01*
X107313362Y-99649283D01*
X107456454Y-99737544D01*
X107456457Y-99737545D01*
X107456463Y-99737549D01*
X107616065Y-99790436D01*
X107714576Y-99800500D01*
X107714581Y-99800500D01*
X108247919Y-99800500D01*
X108247924Y-99800500D01*
X108346435Y-99790436D01*
X108506037Y-99737549D01*
X108649141Y-99649281D01*
X108768031Y-99530391D01*
X108780977Y-99509401D01*
X108832924Y-99462679D01*
X108886515Y-99450500D01*
X108918778Y-99450500D01*
X108959733Y-99457458D01*
X109039495Y-99485368D01*
X109039500Y-99485369D01*
X109218747Y-99505565D01*
X109218748Y-99505565D01*
X109218748Y-99505564D01*
X109218750Y-99505565D01*
X109227611Y-99504566D01*
X109296431Y-99516615D01*
X109329182Y-99540104D01*
X109438358Y-99649280D01*
X109438362Y-99649283D01*
X109581454Y-99737544D01*
X109581457Y-99737545D01*
X109581463Y-99737549D01*
X109741065Y-99790436D01*
X109839576Y-99800500D01*
X109839581Y-99800500D01*
X110372919Y-99800500D01*
X110372924Y-99800500D01*
X110471435Y-99790436D01*
X110611500Y-99744022D01*
X110681324Y-99741621D01*
X110741366Y-99777352D01*
X110772559Y-99839873D01*
X110774500Y-99861729D01*
X110774500Y-102588330D01*
X110774499Y-102588348D01*
X110774499Y-102754054D01*
X110774498Y-102754054D01*
X110777326Y-102764607D01*
X110815423Y-102906785D01*
X110815424Y-102906786D01*
X110829856Y-102931785D01*
X110829857Y-102931786D01*
X110894475Y-103043709D01*
X110894481Y-103043717D01*
X111013349Y-103162585D01*
X111013354Y-103162589D01*
X111781287Y-103930523D01*
X111781289Y-103930524D01*
X111781293Y-103930527D01*
X111918212Y-104009576D01*
X111918219Y-104009580D01*
X112070946Y-104050504D01*
X112070948Y-104050504D01*
X112236657Y-104050504D01*
X112236673Y-104050503D01*
X112267588Y-104050503D01*
X112334627Y-104070188D01*
X112344903Y-104077558D01*
X112347736Y-104079817D01*
X112347738Y-104079819D01*
X112461270Y-104151155D01*
X112500011Y-104175499D01*
X112500478Y-104175792D01*
X112670745Y-104235371D01*
X112689382Y-104237470D01*
X112753795Y-104264535D01*
X112793352Y-104322129D01*
X112799500Y-104360691D01*
X112799500Y-107949901D01*
X112779815Y-108016940D01*
X112763181Y-108037582D01*
X106838252Y-113962510D01*
X106776929Y-113995995D01*
X106727787Y-113996718D01*
X106672992Y-113986475D01*
X106608926Y-113974500D01*
X106391074Y-113974500D01*
X106176931Y-114014530D01*
X106133896Y-114031202D01*
X105973792Y-114093226D01*
X105973786Y-114093229D01*
X105788576Y-114207906D01*
X105788566Y-114207913D01*
X105627574Y-114354676D01*
X105496288Y-114528527D01*
X105399184Y-114723537D01*
X105339564Y-114933081D01*
X105319464Y-115149999D01*
X105319464Y-115150000D01*
X105339564Y-115366918D01*
X105339564Y-115366920D01*
X105339565Y-115366923D01*
X105399183Y-115576459D01*
X105496288Y-115771472D01*
X105617877Y-115932483D01*
X105631028Y-115949897D01*
X105629086Y-115951363D01*
X105655122Y-116004734D01*
X105646942Y-116074123D01*
X105602547Y-116128075D01*
X105536030Y-116149460D01*
X105532873Y-116149500D01*
X100002561Y-116149500D01*
X99997437Y-116149394D01*
X99579886Y-116132124D01*
X99569672Y-116131278D01*
X99157508Y-116079902D01*
X99147399Y-116078215D01*
X98740890Y-115992979D01*
X98730955Y-115990463D01*
X98332871Y-115871948D01*
X98323178Y-115868620D01*
X97936248Y-115717639D01*
X97926863Y-115713523D01*
X97839082Y-115670609D01*
X97553706Y-115531097D01*
X97544715Y-115526232D01*
X97187892Y-115313612D01*
X97179312Y-115308006D01*
X96841280Y-115066655D01*
X96833193Y-115060360D01*
X96516252Y-114791924D01*
X96508712Y-114784983D01*
X96215016Y-114491287D01*
X96208075Y-114483747D01*
X96051523Y-114298907D01*
X95939634Y-114166800D01*
X95933344Y-114158719D01*
X95919426Y-114139226D01*
X95691989Y-113820681D01*
X95686387Y-113812107D01*
X95546266Y-113576953D01*
X95473762Y-113455275D01*
X95468906Y-113446302D01*
X95286473Y-113073130D01*
X95282360Y-113063751D01*
X95169998Y-112775792D01*
X95131374Y-112676809D01*
X95128055Y-112667141D01*
X95009532Y-112269031D01*
X95007023Y-112259123D01*
X94921781Y-111852586D01*
X94920099Y-111842506D01*
X94868719Y-111430306D01*
X94867876Y-111420133D01*
X94850606Y-111002562D01*
X94850500Y-110997438D01*
X94850500Y-103495818D01*
X95774499Y-103495818D01*
X95774499Y-104104181D01*
X95784562Y-104202683D01*
X95837449Y-104362284D01*
X95837454Y-104362295D01*
X95925715Y-104505387D01*
X95925718Y-104505391D01*
X96044607Y-104624280D01*
X96044611Y-104624283D01*
X96187703Y-104712544D01*
X96187706Y-104712545D01*
X96187712Y-104712549D01*
X96347314Y-104765436D01*
X96445825Y-104775500D01*
X96445830Y-104775500D01*
X96979168Y-104775500D01*
X96979173Y-104775500D01*
X97077684Y-104765436D01*
X97237286Y-104712549D01*
X97371909Y-104629511D01*
X97423118Y-104611831D01*
X97530582Y-104599723D01*
X97599403Y-104611777D01*
X97613382Y-104620620D01*
X97613463Y-104620490D01*
X97762705Y-104712544D01*
X97762708Y-104712545D01*
X97762714Y-104712549D01*
X97922316Y-104765436D01*
X98020827Y-104775500D01*
X98020832Y-104775500D01*
X98554170Y-104775500D01*
X98554175Y-104775500D01*
X98652686Y-104765436D01*
X98812288Y-104712549D01*
X98955392Y-104624281D01*
X98956823Y-104622849D01*
X98958047Y-104622180D01*
X98961055Y-104619803D01*
X98961461Y-104620316D01*
X99018140Y-104589363D01*
X99087832Y-104594342D01*
X99132188Y-104622846D01*
X99139811Y-104630469D01*
X99139813Y-104630470D01*
X99139815Y-104630472D01*
X99285394Y-104718478D01*
X99447804Y-104769086D01*
X99518384Y-104775500D01*
X99518387Y-104775500D01*
X100031613Y-104775500D01*
X100031616Y-104775500D01*
X100102196Y-104769086D01*
X100264606Y-104718478D01*
X100410185Y-104630472D01*
X100454663Y-104585994D01*
X100512319Y-104528339D01*
X100573642Y-104494854D01*
X100643334Y-104499838D01*
X100687681Y-104528339D01*
X100789811Y-104630469D01*
X100789813Y-104630470D01*
X100789815Y-104630472D01*
X100935394Y-104718478D01*
X101097804Y-104769086D01*
X101168384Y-104775500D01*
X101168387Y-104775500D01*
X101681613Y-104775500D01*
X101681616Y-104775500D01*
X101752196Y-104769086D01*
X101914606Y-104718478D01*
X102060185Y-104630472D01*
X102180472Y-104510185D01*
X102268478Y-104364606D01*
X102319086Y-104202196D01*
X102325500Y-104131616D01*
X102325500Y-103468384D01*
X102319086Y-103397804D01*
X102268478Y-103235394D01*
X102235991Y-103181655D01*
X102218156Y-103114101D01*
X102218889Y-103103621D01*
X102219354Y-103099500D01*
X102228975Y-103014114D01*
X102230565Y-103000001D01*
X102230565Y-102999997D01*
X102218889Y-102896376D01*
X102230943Y-102827554D01*
X102235982Y-102818358D01*
X102268478Y-102764606D01*
X102319086Y-102602196D01*
X102325500Y-102531616D01*
X102325500Y-101868384D01*
X102319086Y-101797804D01*
X102268478Y-101635394D01*
X102180472Y-101489815D01*
X102180470Y-101489813D01*
X102180469Y-101489811D01*
X102060188Y-101369530D01*
X101914606Y-101281522D01*
X101763906Y-101234563D01*
X101752196Y-101230914D01*
X101752194Y-101230913D01*
X101752192Y-101230913D01*
X101702778Y-101226423D01*
X101681616Y-101224500D01*
X101168384Y-101224500D01*
X101149145Y-101226248D01*
X101097807Y-101230913D01*
X100935393Y-101281522D01*
X100789811Y-101369530D01*
X100789810Y-101369531D01*
X100687681Y-101471661D01*
X100626358Y-101505146D01*
X100556666Y-101500162D01*
X100512319Y-101471661D01*
X100410188Y-101369530D01*
X100264606Y-101281522D01*
X100113906Y-101234563D01*
X100102196Y-101230914D01*
X100102194Y-101230913D01*
X100102192Y-101230913D01*
X100052778Y-101226423D01*
X100031616Y-101224500D01*
X99518384Y-101224500D01*
X99499145Y-101226248D01*
X99447807Y-101230913D01*
X99285393Y-101281522D01*
X99139812Y-101369530D01*
X99132185Y-101377157D01*
X99070860Y-101410639D01*
X99001169Y-101405652D01*
X98961225Y-101379980D01*
X98961055Y-101380197D01*
X98958852Y-101378455D01*
X98956826Y-101377153D01*
X98955392Y-101375719D01*
X98955388Y-101375716D01*
X98812296Y-101287455D01*
X98812290Y-101287452D01*
X98812288Y-101287451D01*
X98652686Y-101234564D01*
X98652684Y-101234563D01*
X98554182Y-101224500D01*
X98554175Y-101224500D01*
X98020827Y-101224500D01*
X98020819Y-101224500D01*
X97922317Y-101234563D01*
X97922316Y-101234564D01*
X97843220Y-101260773D01*
X97762716Y-101287450D01*
X97762705Y-101287455D01*
X97619613Y-101375716D01*
X97619609Y-101375719D01*
X97500720Y-101494608D01*
X97500717Y-101494612D01*
X97412456Y-101637704D01*
X97412451Y-101637715D01*
X97385774Y-101718219D01*
X97359565Y-101797315D01*
X97359565Y-101797316D01*
X97359564Y-101797316D01*
X97349501Y-101895818D01*
X97349501Y-102504181D01*
X97359564Y-102602683D01*
X97359565Y-102602684D01*
X97403099Y-102734061D01*
X97405501Y-102803890D01*
X97369769Y-102863931D01*
X97307249Y-102895124D01*
X97244610Y-102888305D01*
X97244141Y-102889723D01*
X97237287Y-102887452D01*
X97237286Y-102887451D01*
X97077684Y-102834564D01*
X97077682Y-102834563D01*
X96979180Y-102824500D01*
X96979173Y-102824500D01*
X96445825Y-102824500D01*
X96445817Y-102824500D01*
X96347315Y-102834563D01*
X96347314Y-102834564D01*
X96287305Y-102854449D01*
X96187714Y-102887450D01*
X96187703Y-102887455D01*
X96044611Y-102975716D01*
X96044607Y-102975719D01*
X95925718Y-103094608D01*
X95925715Y-103094612D01*
X95837454Y-103237704D01*
X95837450Y-103237713D01*
X95784563Y-103397315D01*
X95784563Y-103397316D01*
X95784562Y-103397316D01*
X95774499Y-103495818D01*
X94850500Y-103495818D01*
X94850500Y-93152135D01*
X96099500Y-93152135D01*
X96099500Y-95247870D01*
X96099501Y-95247876D01*
X96105908Y-95307483D01*
X96156202Y-95442328D01*
X96156206Y-95442335D01*
X96242452Y-95557544D01*
X96242455Y-95557547D01*
X96357664Y-95643793D01*
X96357671Y-95643797D01*
X96492517Y-95694091D01*
X96492516Y-95694091D01*
X96499444Y-95694835D01*
X96552127Y-95700500D01*
X98647872Y-95700499D01*
X98707483Y-95694091D01*
X98842331Y-95643796D01*
X98957546Y-95557546D01*
X99043796Y-95442331D01*
X99094091Y-95307483D01*
X99100500Y-95247873D01*
X99100499Y-93152128D01*
X99094091Y-93092517D01*
X99093701Y-93091472D01*
X99043797Y-92957671D01*
X99043793Y-92957664D01*
X98957547Y-92842455D01*
X98957544Y-92842452D01*
X98842335Y-92756206D01*
X98842328Y-92756202D01*
X98707482Y-92705908D01*
X98707483Y-92705908D01*
X98647883Y-92699501D01*
X98647881Y-92699500D01*
X98647873Y-92699500D01*
X98647864Y-92699500D01*
X96552129Y-92699500D01*
X96552123Y-92699501D01*
X96492516Y-92705908D01*
X96357671Y-92756202D01*
X96357664Y-92756206D01*
X96242455Y-92842452D01*
X96242452Y-92842455D01*
X96156206Y-92957664D01*
X96156202Y-92957671D01*
X96105908Y-93092517D01*
X96101044Y-93137763D01*
X96099501Y-93152123D01*
X96099500Y-93152135D01*
X94850500Y-93152135D01*
X94850500Y-80002561D01*
X94850606Y-79997437D01*
X94853225Y-79934108D01*
X94867876Y-79579864D01*
X94868719Y-79569695D01*
X94920100Y-79157489D01*
X94921780Y-79147417D01*
X95007024Y-78740870D01*
X95009531Y-78730974D01*
X95128057Y-78332850D01*
X95131372Y-78323198D01*
X95282362Y-77936243D01*
X95286469Y-77926877D01*
X95468911Y-77553686D01*
X95473756Y-77544733D01*
X95686398Y-77187874D01*
X95691981Y-77179329D01*
X95933357Y-76841263D01*
X95939625Y-76833210D01*
X96208085Y-76516240D01*
X96215004Y-76508724D01*
X96508724Y-76215004D01*
X96516240Y-76208085D01*
X96833210Y-75939625D01*
X96841263Y-75933357D01*
X97179329Y-75691981D01*
X97187874Y-75686398D01*
X97544733Y-75473756D01*
X97553686Y-75468911D01*
X97926877Y-75286469D01*
X97936243Y-75282362D01*
X98323198Y-75131372D01*
X98332850Y-75128057D01*
X98730974Y-75009531D01*
X98740870Y-75007024D01*
X99147417Y-74921780D01*
X99157489Y-74920100D01*
X99569695Y-74868719D01*
X99579864Y-74867876D01*
X99997437Y-74850605D01*
X100002561Y-74850500D01*
X100065892Y-74850500D01*
X113532873Y-74850500D01*
X113599912Y-74870185D01*
G37*
%TD.AperFunction*%
%TA.AperFunction,Conductor*%
G36*
X136092539Y-100635184D02*
G01*
X136138294Y-100687988D01*
X136149500Y-100739499D01*
X136149500Y-110997438D01*
X136149394Y-111002562D01*
X136132124Y-111420113D01*
X136131278Y-111430327D01*
X136079902Y-111842491D01*
X136078215Y-111852600D01*
X135992979Y-112259109D01*
X135990463Y-112269044D01*
X135871948Y-112667128D01*
X135868620Y-112676821D01*
X135717639Y-113063751D01*
X135713523Y-113073136D01*
X135531106Y-113446277D01*
X135526228Y-113455291D01*
X135313612Y-113812107D01*
X135308006Y-113820687D01*
X135066655Y-114158719D01*
X135060360Y-114166806D01*
X134791924Y-114483747D01*
X134784983Y-114491287D01*
X134491287Y-114784983D01*
X134483747Y-114791924D01*
X134166806Y-115060360D01*
X134158719Y-115066655D01*
X133820687Y-115308006D01*
X133812107Y-115313612D01*
X133455291Y-115526228D01*
X133446283Y-115531102D01*
X133328058Y-115588899D01*
X133073136Y-115713523D01*
X133063751Y-115717639D01*
X132676821Y-115868620D01*
X132667128Y-115871948D01*
X132269044Y-115990463D01*
X132259109Y-115992979D01*
X131852600Y-116078215D01*
X131842491Y-116079902D01*
X131430327Y-116131278D01*
X131420113Y-116132124D01*
X131002563Y-116149394D01*
X130997439Y-116149500D01*
X115766742Y-116149500D01*
X115699703Y-116129815D01*
X115653948Y-116077011D01*
X115644004Y-116007853D01*
X115650560Y-115982166D01*
X115662049Y-115951363D01*
X115669091Y-115932483D01*
X115675500Y-115872873D01*
X115675499Y-114427128D01*
X115669091Y-114367517D01*
X115664302Y-114354678D01*
X115618797Y-114232671D01*
X115618793Y-114232664D01*
X115532547Y-114117455D01*
X115532544Y-114117452D01*
X115417335Y-114031206D01*
X115417328Y-114031202D01*
X115282482Y-113980908D01*
X115282483Y-113980908D01*
X115222883Y-113974501D01*
X115222881Y-113974500D01*
X115222873Y-113974500D01*
X115222864Y-113974500D01*
X113777129Y-113974500D01*
X113777123Y-113974501D01*
X113717516Y-113980908D01*
X113582671Y-114031202D01*
X113582664Y-114031206D01*
X113467455Y-114117452D01*
X113405213Y-114200595D01*
X113349278Y-114242466D01*
X113279586Y-114247449D01*
X113222410Y-114217921D01*
X113211431Y-114207912D01*
X113199614Y-114200595D01*
X113159221Y-114175584D01*
X113112586Y-114123556D01*
X113100500Y-114070158D01*
X113100500Y-113923543D01*
X116179499Y-113923543D01*
X116217947Y-114116829D01*
X116217950Y-114116839D01*
X116293364Y-114298907D01*
X116293371Y-114298920D01*
X116402860Y-114462781D01*
X116402863Y-114462785D01*
X116542214Y-114602136D01*
X116542218Y-114602139D01*
X116706079Y-114711628D01*
X116706092Y-114711635D01*
X116883172Y-114784983D01*
X116888165Y-114787051D01*
X116888169Y-114787051D01*
X116888170Y-114787052D01*
X117081456Y-114825500D01*
X117081459Y-114825500D01*
X117278543Y-114825500D01*
X117408582Y-114799632D01*
X117471835Y-114787051D01*
X117653914Y-114711632D01*
X117817782Y-114602139D01*
X117957139Y-114462782D01*
X118066632Y-114298914D01*
X118142051Y-114116835D01*
X118169089Y-113980908D01*
X118180500Y-113923543D01*
X124819499Y-113923543D01*
X124857947Y-114116829D01*
X124857950Y-114116839D01*
X124933364Y-114298907D01*
X124933371Y-114298920D01*
X125042860Y-114462781D01*
X125042863Y-114462785D01*
X125182214Y-114602136D01*
X125182218Y-114602139D01*
X125346079Y-114711628D01*
X125346092Y-114711635D01*
X125523172Y-114784983D01*
X125528165Y-114787051D01*
X125528169Y-114787051D01*
X125528170Y-114787052D01*
X125721456Y-114825500D01*
X125721459Y-114825500D01*
X125918543Y-114825500D01*
X126048582Y-114799632D01*
X126111835Y-114787051D01*
X126293914Y-114711632D01*
X126457782Y-114602139D01*
X126597139Y-114462782D01*
X126706632Y-114298914D01*
X126782051Y-114116835D01*
X126809089Y-113980908D01*
X126820500Y-113923543D01*
X126820500Y-113126456D01*
X126782052Y-112933170D01*
X126782051Y-112933169D01*
X126782051Y-112933165D01*
X126741544Y-112835371D01*
X126706635Y-112751092D01*
X126706628Y-112751079D01*
X126597139Y-112587218D01*
X126597136Y-112587214D01*
X126457785Y-112447863D01*
X126457781Y-112447860D01*
X126293920Y-112338371D01*
X126293907Y-112338364D01*
X126111839Y-112262950D01*
X126111829Y-112262947D01*
X125918543Y-112224500D01*
X125918541Y-112224500D01*
X125721459Y-112224500D01*
X125721457Y-112224500D01*
X125528170Y-112262947D01*
X125528160Y-112262950D01*
X125346092Y-112338364D01*
X125346079Y-112338371D01*
X125182218Y-112447860D01*
X125182214Y-112447863D01*
X125042863Y-112587214D01*
X125042860Y-112587218D01*
X124933371Y-112751079D01*
X124933364Y-112751092D01*
X124857950Y-112933160D01*
X124857947Y-112933170D01*
X124819500Y-113126456D01*
X124819500Y-113126459D01*
X124819500Y-113923541D01*
X124819500Y-113923543D01*
X124819499Y-113923543D01*
X118180500Y-113923543D01*
X118180500Y-113126456D01*
X118142052Y-112933170D01*
X118142051Y-112933169D01*
X118142051Y-112933165D01*
X118101544Y-112835371D01*
X118066635Y-112751092D01*
X118066628Y-112751079D01*
X117957139Y-112587218D01*
X117957136Y-112587214D01*
X117817785Y-112447863D01*
X117817781Y-112447860D01*
X117653920Y-112338371D01*
X117653907Y-112338364D01*
X117471839Y-112262950D01*
X117471829Y-112262947D01*
X117278543Y-112224500D01*
X117278541Y-112224500D01*
X117081459Y-112224500D01*
X117081457Y-112224500D01*
X116888170Y-112262947D01*
X116888160Y-112262950D01*
X116706092Y-112338364D01*
X116706079Y-112338371D01*
X116542218Y-112447860D01*
X116542214Y-112447863D01*
X116402863Y-112587214D01*
X116402860Y-112587218D01*
X116293371Y-112751079D01*
X116293364Y-112751092D01*
X116217950Y-112933160D01*
X116217947Y-112933170D01*
X116179500Y-113126456D01*
X116179500Y-113126459D01*
X116179500Y-113923541D01*
X116179500Y-113923543D01*
X116179499Y-113923543D01*
X113100500Y-113923543D01*
X113100500Y-110935021D01*
X113120185Y-110867982D01*
X113136814Y-110847345D01*
X114808506Y-109175652D01*
X114808511Y-109175649D01*
X114818714Y-109165445D01*
X114818716Y-109165445D01*
X114930520Y-109053641D01*
X115009577Y-108916709D01*
X115050500Y-108763982D01*
X115050500Y-105110694D01*
X115070185Y-105043655D01*
X115122989Y-104997900D01*
X115160616Y-104987474D01*
X115179255Y-104985374D01*
X115349522Y-104925795D01*
X115502262Y-104829822D01*
X115502267Y-104829816D01*
X115505097Y-104827561D01*
X115507275Y-104826671D01*
X115508158Y-104826117D01*
X115508255Y-104826271D01*
X115569783Y-104801151D01*
X115582412Y-104800506D01*
X120969935Y-104800506D01*
X121036974Y-104820191D01*
X121082729Y-104872995D01*
X121092673Y-104942153D01*
X121063648Y-105005709D01*
X121057616Y-105012187D01*
X118517050Y-107552750D01*
X118517044Y-107552758D01*
X118467812Y-107626438D01*
X118467813Y-107626439D01*
X118434921Y-107675666D01*
X118434914Y-107675678D01*
X118378342Y-107812256D01*
X118378341Y-107812261D01*
X118357789Y-107915577D01*
X118349978Y-107940620D01*
X118348256Y-107944599D01*
X118302402Y-108102426D01*
X118302401Y-108102432D01*
X118299500Y-108139298D01*
X118299500Y-108261714D01*
X118279815Y-108328753D01*
X118227011Y-108374508D01*
X118157853Y-108384452D01*
X118094297Y-108355427D01*
X118070604Y-108325758D01*
X118070017Y-108326151D01*
X117957139Y-108157218D01*
X117957136Y-108157214D01*
X117817785Y-108017863D01*
X117817781Y-108017860D01*
X117653920Y-107908371D01*
X117653907Y-107908364D01*
X117471839Y-107832950D01*
X117471829Y-107832947D01*
X117278543Y-107794500D01*
X117278541Y-107794500D01*
X117081459Y-107794500D01*
X117081457Y-107794500D01*
X116888170Y-107832947D01*
X116888160Y-107832950D01*
X116706092Y-107908364D01*
X116706079Y-107908371D01*
X116542218Y-108017860D01*
X116542214Y-108017863D01*
X116402863Y-108157214D01*
X116402860Y-108157218D01*
X116293371Y-108321079D01*
X116293364Y-108321092D01*
X116217950Y-108503160D01*
X116217947Y-108503170D01*
X116179500Y-108696456D01*
X116179500Y-108696459D01*
X116179500Y-109993541D01*
X116179500Y-109993543D01*
X116179499Y-109993543D01*
X116217947Y-110186829D01*
X116217950Y-110186839D01*
X116293364Y-110368907D01*
X116293371Y-110368920D01*
X116402860Y-110532781D01*
X116402863Y-110532785D01*
X116542214Y-110672136D01*
X116542218Y-110672139D01*
X116706079Y-110781628D01*
X116706092Y-110781635D01*
X116864720Y-110847340D01*
X116888165Y-110857051D01*
X116888169Y-110857051D01*
X116888170Y-110857052D01*
X117081456Y-110895500D01*
X117081459Y-110895500D01*
X117278543Y-110895500D01*
X117416882Y-110867982D01*
X117471835Y-110857051D01*
X117653914Y-110781632D01*
X117817782Y-110672139D01*
X117957139Y-110532782D01*
X118066632Y-110368914D01*
X118090544Y-110311182D01*
X118134384Y-110256782D01*
X118200678Y-110234716D01*
X118268377Y-110251995D01*
X118280334Y-110261283D01*
X118280890Y-110260559D01*
X118287333Y-110265503D01*
X118287335Y-110265505D01*
X118407164Y-110334688D01*
X118540817Y-110370500D01*
X118540819Y-110370500D01*
X118679179Y-110370500D01*
X118679183Y-110370500D01*
X118680093Y-110370256D01*
X118680890Y-110370275D01*
X118687240Y-110369439D01*
X118687370Y-110370428D01*
X118749939Y-110371912D01*
X118799875Y-110402347D01*
X120741902Y-112344374D01*
X120771263Y-112391101D01*
X120774210Y-112399524D01*
X120804584Y-112447863D01*
X120870184Y-112552265D01*
X120997738Y-112679819D01*
X121088080Y-112736585D01*
X121111147Y-112751079D01*
X121150478Y-112775792D01*
X121320745Y-112835371D01*
X121320750Y-112835372D01*
X121499996Y-112855568D01*
X121500000Y-112855568D01*
X121500004Y-112855568D01*
X121679249Y-112835372D01*
X121679252Y-112835371D01*
X121679255Y-112835371D01*
X121849522Y-112775792D01*
X122002262Y-112679819D01*
X122129816Y-112552265D01*
X122225789Y-112399525D01*
X122247036Y-112338803D01*
X122276394Y-112292079D01*
X124173312Y-110395163D01*
X124234635Y-110361678D01*
X124293084Y-110363068D01*
X124320817Y-110370500D01*
X124320820Y-110370500D01*
X124459181Y-110370500D01*
X124459183Y-110370500D01*
X124592836Y-110334688D01*
X124712665Y-110265505D01*
X124712669Y-110265500D01*
X124719110Y-110260559D01*
X124721238Y-110263333D01*
X124768331Y-110237516D01*
X124838031Y-110242382D01*
X124894035Y-110284159D01*
X124909455Y-110311184D01*
X124933366Y-110368910D01*
X124933371Y-110368920D01*
X125042860Y-110532781D01*
X125042863Y-110532785D01*
X125182214Y-110672136D01*
X125182218Y-110672139D01*
X125346079Y-110781628D01*
X125346092Y-110781635D01*
X125504720Y-110847340D01*
X125528165Y-110857051D01*
X125528169Y-110857051D01*
X125528170Y-110857052D01*
X125721456Y-110895500D01*
X125721459Y-110895500D01*
X125918543Y-110895500D01*
X126056882Y-110867982D01*
X126111835Y-110857051D01*
X126293914Y-110781632D01*
X126457782Y-110672139D01*
X126597139Y-110532782D01*
X126706632Y-110368914D01*
X126782051Y-110186835D01*
X126820500Y-109993541D01*
X126820500Y-108696459D01*
X126820500Y-108696456D01*
X126782052Y-108503170D01*
X126782051Y-108503169D01*
X126782051Y-108503165D01*
X126728760Y-108374508D01*
X126706635Y-108321092D01*
X126706628Y-108321079D01*
X126597139Y-108157218D01*
X126597136Y-108157214D01*
X126457785Y-108017863D01*
X126457781Y-108017860D01*
X126293920Y-107908371D01*
X126293907Y-107908364D01*
X126111839Y-107832950D01*
X126111829Y-107832947D01*
X125918543Y-107794500D01*
X125918541Y-107794500D01*
X125721459Y-107794500D01*
X125721457Y-107794500D01*
X125528170Y-107832947D01*
X125528160Y-107832950D01*
X125346092Y-107908364D01*
X125346079Y-107908371D01*
X125182218Y-108017860D01*
X125182214Y-108017863D01*
X125042863Y-108157214D01*
X125042860Y-108157218D01*
X124977602Y-108254884D01*
X124923990Y-108299689D01*
X124854665Y-108308396D01*
X124791637Y-108278241D01*
X124754918Y-108218798D01*
X124750500Y-108185993D01*
X124750500Y-106624500D01*
X124770185Y-106557461D01*
X124822989Y-106511706D01*
X124874500Y-106500500D01*
X124876082Y-106500500D01*
X124876083Y-106500500D01*
X125023917Y-106500500D01*
X126320299Y-106500500D01*
X126363631Y-106508317D01*
X126392516Y-106519091D01*
X126452126Y-106525500D01*
X127347871Y-106525499D01*
X127407482Y-106519091D01*
X127542330Y-106468796D01*
X127657545Y-106382546D01*
X127743795Y-106267331D01*
X127794090Y-106132483D01*
X127800499Y-106072873D01*
X127800498Y-105427128D01*
X127800498Y-105427127D01*
X128399501Y-105427127D01*
X128399501Y-105427134D01*
X128399501Y-105427135D01*
X128399501Y-106072870D01*
X128399502Y-106072876D01*
X128405909Y-106132483D01*
X128456203Y-106267328D01*
X128456207Y-106267335D01*
X128542453Y-106382544D01*
X128542456Y-106382547D01*
X128657665Y-106468793D01*
X128657672Y-106468797D01*
X128792518Y-106519091D01*
X128792517Y-106519091D01*
X128799445Y-106519835D01*
X128852128Y-106525500D01*
X129747873Y-106525499D01*
X129807484Y-106519091D01*
X129942332Y-106468796D01*
X130057547Y-106382546D01*
X130143797Y-106267331D01*
X130194092Y-106132483D01*
X130200501Y-106072873D01*
X130200500Y-105427128D01*
X130194092Y-105367517D01*
X130143797Y-105232669D01*
X130143796Y-105232668D01*
X130143794Y-105232664D01*
X130057548Y-105117455D01*
X130057545Y-105117452D01*
X129942336Y-105031206D01*
X129942329Y-105031202D01*
X129807483Y-104980908D01*
X129807484Y-104980908D01*
X129747884Y-104974501D01*
X129747882Y-104974500D01*
X129747874Y-104974500D01*
X129747865Y-104974500D01*
X128852130Y-104974500D01*
X128852124Y-104974501D01*
X128792517Y-104980908D01*
X128657672Y-105031202D01*
X128657665Y-105031206D01*
X128542456Y-105117452D01*
X128542453Y-105117455D01*
X128456207Y-105232664D01*
X128456203Y-105232671D01*
X128405911Y-105367513D01*
X128405910Y-105367517D01*
X128399501Y-105427127D01*
X127800498Y-105427127D01*
X127794090Y-105367517D01*
X127743795Y-105232669D01*
X127743794Y-105232668D01*
X127743792Y-105232664D01*
X127657546Y-105117455D01*
X127657543Y-105117452D01*
X127542334Y-105031206D01*
X127542327Y-105031202D01*
X127407481Y-104980908D01*
X127407482Y-104980908D01*
X127347882Y-104974501D01*
X127347880Y-104974500D01*
X127347872Y-104974500D01*
X127347863Y-104974500D01*
X126452128Y-104974500D01*
X126452122Y-104974501D01*
X126392517Y-104980908D01*
X126374917Y-104987473D01*
X126363631Y-104991682D01*
X126320299Y-104999500D01*
X125312230Y-104999500D01*
X125245191Y-104979815D01*
X125224549Y-104963181D01*
X125149049Y-104887681D01*
X125115564Y-104826358D01*
X125120548Y-104756666D01*
X125149049Y-104712319D01*
X125224549Y-104636819D01*
X125285872Y-104603334D01*
X125312230Y-104600500D01*
X126320299Y-104600500D01*
X126363631Y-104608317D01*
X126392516Y-104619091D01*
X126452126Y-104625500D01*
X127347871Y-104625499D01*
X127407482Y-104619091D01*
X127542330Y-104568796D01*
X127613699Y-104515368D01*
X127679160Y-104490952D01*
X127728964Y-104497595D01*
X127748853Y-104504554D01*
X127748853Y-104504555D01*
X127792060Y-104519674D01*
X127874348Y-104540901D01*
X127915302Y-104547859D01*
X127936094Y-104549612D01*
X127999954Y-104554999D01*
X127999970Y-104554999D01*
X127999972Y-104555000D01*
X127999973Y-104555000D01*
X128400027Y-104555000D01*
X128400028Y-104555000D01*
X128400029Y-104554999D01*
X128400045Y-104554999D01*
X128430825Y-104552402D01*
X128484696Y-104547859D01*
X128525651Y-104540901D01*
X128538485Y-104537590D01*
X128608311Y-104539902D01*
X128643771Y-104558392D01*
X128657665Y-104568793D01*
X128657672Y-104568797D01*
X128792518Y-104619091D01*
X128792517Y-104619091D01*
X128799140Y-104619803D01*
X128852128Y-104625500D01*
X129747873Y-104625499D01*
X129807484Y-104619091D01*
X129836368Y-104608317D01*
X129879701Y-104600500D01*
X130248920Y-104600500D01*
X130346462Y-104581096D01*
X130393913Y-104571658D01*
X130530495Y-104515084D01*
X130600604Y-104468239D01*
X130600607Y-104468236D01*
X130600609Y-104468236D01*
X130627186Y-104450477D01*
X130653416Y-104432952D01*
X130874550Y-104211816D01*
X130935871Y-104178333D01*
X130962230Y-104175499D01*
X131098338Y-104175499D01*
X131098344Y-104175499D01*
X131147237Y-104170504D01*
X131215927Y-104183273D01*
X131262052Y-104223662D01*
X131287913Y-104261318D01*
X131287914Y-104261319D01*
X131287915Y-104261320D01*
X131385419Y-104367124D01*
X131385421Y-104367125D01*
X131385420Y-104367125D01*
X131508775Y-104441169D01*
X131508778Y-104441169D01*
X131508782Y-104441172D01*
X131569445Y-104466662D01*
X131571439Y-104467579D01*
X131573196Y-104468239D01*
X131573200Y-104468241D01*
X131628079Y-104482546D01*
X131712423Y-104504532D01*
X131712425Y-104504532D01*
X131712428Y-104504533D01*
X131752178Y-104509011D01*
X131779232Y-104515185D01*
X131815623Y-104527918D01*
X131840636Y-104539965D01*
X131853544Y-104548076D01*
X131853543Y-104548076D01*
X131853546Y-104548077D01*
X131854960Y-104548966D01*
X131854963Y-104548968D01*
X131891073Y-104571658D01*
X131913889Y-104585994D01*
X131920166Y-104590211D01*
X131921379Y-104591081D01*
X131934100Y-104599723D01*
X131942703Y-104605567D01*
X132073580Y-104665338D01*
X132140619Y-104685023D01*
X132140623Y-104685024D01*
X132283039Y-104705500D01*
X132283042Y-104705500D01*
X133875990Y-104705500D01*
X133876000Y-104705500D01*
X133983456Y-104693947D01*
X134034967Y-104682741D01*
X134069197Y-104671347D01*
X134137497Y-104648616D01*
X134137501Y-104648613D01*
X134137504Y-104648613D01*
X134258543Y-104570825D01*
X134311347Y-104525070D01*
X134405567Y-104416336D01*
X134465338Y-104285459D01*
X134485023Y-104218420D01*
X134485024Y-104218416D01*
X134505500Y-104076000D01*
X134505500Y-100739499D01*
X134525185Y-100672460D01*
X134577989Y-100626705D01*
X134629500Y-100615499D01*
X136025500Y-100615499D01*
X136092539Y-100635184D01*
G37*
%TD.AperFunction*%
%TA.AperFunction,Conductor*%
G36*
X109818834Y-113277890D02*
G01*
X109874767Y-113319762D01*
X109899184Y-113385226D01*
X109899500Y-113394072D01*
X109899500Y-114070158D01*
X109879815Y-114137197D01*
X109840778Y-114175585D01*
X109788566Y-114207913D01*
X109627573Y-114354676D01*
X109598953Y-114392576D01*
X109542844Y-114434211D01*
X109473132Y-114438902D01*
X109411950Y-114405159D01*
X109401047Y-114392576D01*
X109372426Y-114354676D01*
X109211433Y-114207913D01*
X109211432Y-114207912D01*
X109159222Y-114175585D01*
X109112587Y-114123557D01*
X109100500Y-114070158D01*
X109100500Y-113945072D01*
X109120185Y-113878033D01*
X109136819Y-113857391D01*
X109687819Y-113306391D01*
X109749142Y-113272906D01*
X109818834Y-113277890D01*
G37*
%TD.AperFunction*%
%TA.AperFunction,Conductor*%
G36*
X111818834Y-111772865D02*
G01*
X111874767Y-111814737D01*
X111899184Y-111880201D01*
X111899500Y-111889047D01*
X111899500Y-114070157D01*
X111879815Y-114137196D01*
X111840778Y-114175584D01*
X111788565Y-114207913D01*
X111627572Y-114354676D01*
X111598952Y-114392576D01*
X111542843Y-114434211D01*
X111473131Y-114438902D01*
X111411949Y-114405159D01*
X111401046Y-114392576D01*
X111372427Y-114354678D01*
X111211432Y-114207912D01*
X111159222Y-114175585D01*
X111112587Y-114123557D01*
X111100500Y-114070158D01*
X111100500Y-112440047D01*
X111120185Y-112373008D01*
X111136819Y-112352366D01*
X111687819Y-111801366D01*
X111749142Y-111767881D01*
X111818834Y-111772865D01*
G37*
%TD.AperFunction*%
%TA.AperFunction,Conductor*%
G36*
X121793057Y-110326082D02*
G01*
X121797734Y-110329812D01*
X121797738Y-110329816D01*
X121950478Y-110425789D01*
X122025197Y-110451934D01*
X122081973Y-110492655D01*
X122107721Y-110557608D01*
X122094265Y-110626170D01*
X122071924Y-110656657D01*
X121570682Y-111157900D01*
X121509359Y-111191385D01*
X121439668Y-111186401D01*
X121395320Y-111157900D01*
X120902890Y-110665470D01*
X120869405Y-110604147D01*
X120874389Y-110534455D01*
X120916261Y-110478522D01*
X120949615Y-110460747D01*
X121049522Y-110425789D01*
X121139096Y-110369505D01*
X121205068Y-110350500D01*
X121501481Y-110350500D01*
X121627149Y-110325502D01*
X121627149Y-110325501D01*
X121627154Y-110325501D01*
X121668284Y-110308463D01*
X121737752Y-110300994D01*
X121793057Y-110326082D01*
G37*
%TD.AperFunction*%
%TA.AperFunction,Conductor*%
G36*
X127124081Y-99327667D02*
G01*
X127180015Y-99369539D01*
X127204432Y-99435003D01*
X127203486Y-99461494D01*
X127194500Y-99523996D01*
X127194500Y-102943636D01*
X127194595Y-102947033D01*
X127176792Y-103014597D01*
X127125288Y-103061810D01*
X127070643Y-103074500D01*
X126452128Y-103074500D01*
X126452122Y-103074501D01*
X126392517Y-103080908D01*
X126373546Y-103087984D01*
X126363631Y-103091682D01*
X126320299Y-103099500D01*
X124876080Y-103099500D01*
X124731092Y-103128340D01*
X124731082Y-103128343D01*
X124594509Y-103184913D01*
X124594506Y-103184915D01*
X124577651Y-103196177D01*
X124550850Y-103214084D01*
X124484173Y-103234961D01*
X124416793Y-103216476D01*
X124416074Y-103216027D01*
X124349522Y-103174211D01*
X124349520Y-103174210D01*
X124349518Y-103174209D01*
X124179262Y-103114633D01*
X124179249Y-103114630D01*
X124000004Y-103094435D01*
X123999996Y-103094435D01*
X123820750Y-103114630D01*
X123820745Y-103114631D01*
X123650476Y-103174211D01*
X123497737Y-103270184D01*
X123370184Y-103397737D01*
X123274211Y-103550476D01*
X123214631Y-103720745D01*
X123214630Y-103720750D01*
X123194435Y-103899996D01*
X123194435Y-103899998D01*
X123195744Y-103911614D01*
X123183691Y-103980436D01*
X123136343Y-104031816D01*
X123072524Y-104049500D01*
X122599099Y-104049500D01*
X122532060Y-104029815D01*
X122486305Y-103977011D01*
X122476361Y-103907853D01*
X122505386Y-103844297D01*
X122511418Y-103837819D01*
X124760604Y-101588632D01*
X124821927Y-101555147D01*
X124891619Y-101560131D01*
X124935966Y-101588632D01*
X125002150Y-101654816D01*
X125154890Y-101750789D01*
X125264980Y-101789311D01*
X125325157Y-101810368D01*
X125325162Y-101810369D01*
X125504408Y-101830565D01*
X125504412Y-101830565D01*
X125504416Y-101830565D01*
X125683661Y-101810369D01*
X125683664Y-101810368D01*
X125683667Y-101810368D01*
X125853934Y-101750789D01*
X126006674Y-101654816D01*
X126134228Y-101527262D01*
X126230201Y-101374522D01*
X126289780Y-101204255D01*
X126291928Y-101185192D01*
X126309977Y-101025003D01*
X126309977Y-101024996D01*
X126289781Y-100845750D01*
X126289780Y-100845745D01*
X126252603Y-100739499D01*
X126230201Y-100675478D01*
X126134228Y-100522738D01*
X126068044Y-100456554D01*
X126034559Y-100395231D01*
X126039543Y-100325539D01*
X126068044Y-100281192D01*
X126509363Y-99839873D01*
X126993069Y-99356166D01*
X127054390Y-99322683D01*
X127124081Y-99327667D01*
G37*
%TD.AperFunction*%
%TA.AperFunction,Conductor*%
G36*
X124409627Y-99925838D02*
G01*
X124419903Y-99933208D01*
X124422739Y-99935470D01*
X124444290Y-99949011D01*
X124470746Y-99965635D01*
X124517038Y-100017968D01*
X124527687Y-100087021D01*
X124499312Y-100150870D01*
X124492456Y-100158309D01*
X121087580Y-103563187D01*
X121026257Y-103596672D01*
X120999899Y-103599506D01*
X120146520Y-103599506D01*
X120079481Y-103579821D01*
X120033726Y-103527017D01*
X120023782Y-103457859D01*
X120052807Y-103394303D01*
X120058839Y-103387825D01*
X121388117Y-102058547D01*
X122760312Y-100686351D01*
X122821633Y-100652868D01*
X122834086Y-100650816D01*
X122921031Y-100641021D01*
X123091298Y-100581442D01*
X123244038Y-100485469D01*
X123371592Y-100357915D01*
X123467565Y-100205175D01*
X123527144Y-100034908D01*
X123527535Y-100031442D01*
X123529245Y-100016268D01*
X123556312Y-99951854D01*
X123613908Y-99912300D01*
X123652465Y-99906153D01*
X124342588Y-99906153D01*
X124409627Y-99925838D01*
G37*
%TD.AperFunction*%
%TA.AperFunction,Conductor*%
G36*
X121040274Y-99925838D02*
G01*
X121086029Y-99978642D01*
X121095973Y-100047800D01*
X121066948Y-100111356D01*
X121060916Y-100117834D01*
X119115570Y-102063181D01*
X119054247Y-102096666D01*
X119027889Y-102099500D01*
X116808645Y-102099500D01*
X116741606Y-102079815D01*
X116695851Y-102027011D01*
X116685907Y-101957853D01*
X116714932Y-101894297D01*
X116720964Y-101887819D01*
X116740399Y-101868384D01*
X116833342Y-101775441D01*
X116929315Y-101622701D01*
X116986756Y-101458543D01*
X117027477Y-101401769D01*
X117092429Y-101376021D01*
X117103778Y-101375499D01*
X117598344Y-101375499D01*
X117598352Y-101375498D01*
X117598355Y-101375498D01*
X117656797Y-101369528D01*
X117697708Y-101365349D01*
X117858697Y-101312003D01*
X118003044Y-101222968D01*
X118012319Y-101213693D01*
X118073642Y-101180208D01*
X118143334Y-101185192D01*
X118187681Y-101213693D01*
X118196955Y-101222967D01*
X118196959Y-101222970D01*
X118341294Y-101311998D01*
X118341297Y-101311999D01*
X118341303Y-101312003D01*
X118502292Y-101365349D01*
X118601655Y-101375500D01*
X119198344Y-101375499D01*
X119198352Y-101375498D01*
X119198355Y-101375498D01*
X119256797Y-101369528D01*
X119297708Y-101365349D01*
X119458697Y-101312003D01*
X119603044Y-101222968D01*
X119722968Y-101103044D01*
X119812003Y-100958697D01*
X119865349Y-100797708D01*
X119875500Y-100698345D01*
X119875499Y-100207823D01*
X119895183Y-100140785D01*
X119947987Y-100095030D01*
X119972377Y-100088353D01*
X119972050Y-100086917D01*
X119978835Y-100085368D01*
X119978837Y-100085368D01*
X120149104Y-100025789D01*
X120301844Y-99929816D01*
X120301844Y-99929815D01*
X120307740Y-99926111D01*
X120309215Y-99928459D01*
X120362292Y-99906796D01*
X120374906Y-99906153D01*
X120973235Y-99906153D01*
X121040274Y-99925838D01*
G37*
%TD.AperFunction*%
%TA.AperFunction,Conductor*%
G36*
X131002562Y-74850605D02*
G01*
X131420133Y-74867876D01*
X131430306Y-74868719D01*
X131842506Y-74920099D01*
X131852586Y-74921781D01*
X132259123Y-75007023D01*
X132269031Y-75009532D01*
X132667141Y-75128055D01*
X132676809Y-75131374D01*
X132925789Y-75228527D01*
X133063751Y-75282360D01*
X133073130Y-75286473D01*
X133446302Y-75468906D01*
X133455275Y-75473762D01*
X133812113Y-75686391D01*
X133820681Y-75691989D01*
X134158724Y-75933348D01*
X134166800Y-75939634D01*
X134461609Y-76189325D01*
X134483747Y-76208075D01*
X134491287Y-76215016D01*
X134784983Y-76508712D01*
X134791924Y-76516252D01*
X135004577Y-76767331D01*
X135060360Y-76833193D01*
X135066653Y-76841278D01*
X135280527Y-77140825D01*
X135308006Y-77179312D01*
X135313612Y-77187892D01*
X135524193Y-77541294D01*
X135526228Y-77544708D01*
X135531097Y-77553706D01*
X135652309Y-77801647D01*
X135713523Y-77926863D01*
X135717639Y-77936248D01*
X135868620Y-78323178D01*
X135871948Y-78332871D01*
X135990463Y-78730955D01*
X135992979Y-78740890D01*
X136078215Y-79147399D01*
X136079902Y-79157508D01*
X136131278Y-79569672D01*
X136132124Y-79579886D01*
X136149394Y-79997437D01*
X136149500Y-80002561D01*
X136149500Y-90251586D01*
X136129815Y-90318625D01*
X136077011Y-90364380D01*
X136007853Y-90374324D01*
X135978055Y-90366150D01*
X135974176Y-90364543D01*
X135769757Y-90298124D01*
X135628229Y-90275708D01*
X135557467Y-90264500D01*
X135042533Y-90264500D01*
X134971770Y-90275708D01*
X134830243Y-90298124D01*
X134830240Y-90298124D01*
X134625832Y-90364540D01*
X134625829Y-90364541D01*
X134434321Y-90462120D01*
X134344978Y-90527032D01*
X134260437Y-90588455D01*
X134260435Y-90588457D01*
X134260434Y-90588457D01*
X134108457Y-90740434D01*
X134108457Y-90740435D01*
X134108455Y-90740437D01*
X134066824Y-90797737D01*
X133982120Y-90914321D01*
X133884541Y-91105829D01*
X133884540Y-91105832D01*
X133818124Y-91310240D01*
X133818124Y-91310243D01*
X133803545Y-91402290D01*
X133784500Y-91522533D01*
X133784500Y-91737467D01*
X133803306Y-91856202D01*
X133818124Y-91949756D01*
X133818124Y-91949759D01*
X133884540Y-92154167D01*
X133884541Y-92154170D01*
X133951597Y-92285774D01*
X133982120Y-92345678D01*
X134108455Y-92519563D01*
X134260437Y-92671545D01*
X134359762Y-92743709D01*
X134436802Y-92799682D01*
X134479467Y-92855012D01*
X134485446Y-92924626D01*
X134452840Y-92986421D01*
X134436802Y-93000318D01*
X134260435Y-93128457D01*
X134108457Y-93280435D01*
X134108457Y-93280436D01*
X134108455Y-93280438D01*
X134088337Y-93308128D01*
X133982120Y-93454322D01*
X133892038Y-93631118D01*
X133844063Y-93681914D01*
X133776242Y-93698709D01*
X133710107Y-93676171D01*
X133693872Y-93662504D01*
X133618419Y-93587051D01*
X133618415Y-93587048D01*
X133495501Y-93504919D01*
X133495488Y-93504912D01*
X133358917Y-93448343D01*
X133358907Y-93448340D01*
X133213920Y-93419500D01*
X133213918Y-93419500D01*
X133066082Y-93419500D01*
X133066080Y-93419500D01*
X132921092Y-93448340D01*
X132921082Y-93448343D01*
X132784511Y-93504912D01*
X132784498Y-93504919D01*
X132661584Y-93587048D01*
X132661580Y-93587051D01*
X132557051Y-93691580D01*
X132557048Y-93691584D01*
X132474919Y-93814498D01*
X132474912Y-93814511D01*
X132418343Y-93951082D01*
X132418340Y-93951092D01*
X132389500Y-94096079D01*
X132389500Y-94096082D01*
X132389500Y-94243918D01*
X132389500Y-94243920D01*
X132389499Y-94243920D01*
X132418340Y-94388907D01*
X132418343Y-94388917D01*
X132474912Y-94525488D01*
X132474919Y-94525501D01*
X132557048Y-94648415D01*
X132557051Y-94648419D01*
X132661580Y-94752948D01*
X132661584Y-94752951D01*
X132784498Y-94835080D01*
X132784511Y-94835087D01*
X132906652Y-94885679D01*
X132921087Y-94891658D01*
X132921091Y-94891658D01*
X132921092Y-94891659D01*
X133066079Y-94920500D01*
X133066082Y-94920500D01*
X133213920Y-94920500D01*
X133311462Y-94901096D01*
X133358913Y-94891658D01*
X133495495Y-94835084D01*
X133618416Y-94752951D01*
X133693872Y-94677494D01*
X133755193Y-94644011D01*
X133824885Y-94648995D01*
X133880819Y-94690866D01*
X133892037Y-94708882D01*
X133956342Y-94835087D01*
X133982120Y-94885679D01*
X134108455Y-95059564D01*
X134260437Y-95211546D01*
X134434322Y-95337881D01*
X134436801Y-95339682D01*
X134479466Y-95395012D01*
X134485445Y-95464626D01*
X134452839Y-95526421D01*
X134436801Y-95540318D01*
X134260435Y-95668456D01*
X134108457Y-95820434D01*
X134108457Y-95820435D01*
X134108455Y-95820437D01*
X134087323Y-95849523D01*
X133982120Y-95994321D01*
X133884541Y-96185829D01*
X133884540Y-96185832D01*
X133818124Y-96390240D01*
X133818124Y-96390243D01*
X133807160Y-96459468D01*
X133784500Y-96602533D01*
X133784500Y-96817467D01*
X133806916Y-96958992D01*
X133818124Y-97029756D01*
X133818124Y-97029759D01*
X133884540Y-97234167D01*
X133884541Y-97234170D01*
X133968189Y-97398337D01*
X133982120Y-97425678D01*
X134108455Y-97599563D01*
X134108457Y-97599565D01*
X134202981Y-97694089D01*
X134236466Y-97755412D01*
X134231482Y-97825104D01*
X134189610Y-97881037D01*
X134158633Y-97897952D01*
X134042671Y-97941202D01*
X134042664Y-97941206D01*
X133927455Y-98027452D01*
X133927452Y-98027455D01*
X133841206Y-98142664D01*
X133841202Y-98142671D01*
X133790908Y-98277517D01*
X133784501Y-98337116D01*
X133784500Y-98337135D01*
X133784500Y-98770500D01*
X133764815Y-98837539D01*
X133712011Y-98883294D01*
X133660500Y-98894500D01*
X127824000Y-98894500D01*
X127759730Y-98901409D01*
X127690972Y-98889004D01*
X127639835Y-98841393D01*
X127622556Y-98773693D01*
X127644621Y-98707399D01*
X127658790Y-98690445D01*
X128193535Y-98155700D01*
X128254856Y-98122217D01*
X128267311Y-98120165D01*
X128354255Y-98110370D01*
X128524522Y-98050791D01*
X128677262Y-97954818D01*
X128804816Y-97827264D01*
X128900789Y-97674524D01*
X128960368Y-97504257D01*
X128965414Y-97459472D01*
X128980565Y-97325005D01*
X128980565Y-97324998D01*
X128960369Y-97145752D01*
X128960368Y-97145747D01*
X128900789Y-96975480D01*
X128895765Y-96967485D01*
X128821568Y-96849401D01*
X128804816Y-96822740D01*
X128677262Y-96695186D01*
X128606304Y-96650600D01*
X128524523Y-96599213D01*
X128354254Y-96539633D01*
X128354249Y-96539632D01*
X128175004Y-96519437D01*
X128174996Y-96519437D01*
X127995750Y-96539632D01*
X127995745Y-96539633D01*
X127825476Y-96599213D01*
X127672737Y-96695186D01*
X127545184Y-96822739D01*
X127449210Y-96975480D01*
X127389630Y-97145752D01*
X127379837Y-97232670D01*
X127352770Y-97297084D01*
X127344298Y-97306467D01*
X125777656Y-98873109D01*
X125716333Y-98906594D01*
X125646641Y-98901610D01*
X125590708Y-98859738D01*
X125584981Y-98851399D01*
X125576272Y-98837539D01*
X125554816Y-98803391D01*
X125427262Y-98675837D01*
X125358553Y-98632664D01*
X125274523Y-98579864D01*
X125104254Y-98520284D01*
X125104249Y-98520283D01*
X124925004Y-98500088D01*
X124924996Y-98500088D01*
X124745750Y-98520283D01*
X124745745Y-98520284D01*
X124575476Y-98579864D01*
X124422736Y-98675838D01*
X124419903Y-98678098D01*
X124417724Y-98678987D01*
X124416842Y-98679542D01*
X124416744Y-98679387D01*
X124355217Y-98704508D01*
X124342588Y-98705153D01*
X121333393Y-98705153D01*
X121266354Y-98685468D01*
X121220599Y-98632664D01*
X121210655Y-98563506D01*
X121239680Y-98499950D01*
X121245712Y-98493472D01*
X122313506Y-97425678D01*
X123630520Y-96108665D01*
X123709577Y-95971733D01*
X123750501Y-95819006D01*
X123750501Y-95660891D01*
X123750501Y-95653296D01*
X123750500Y-95653278D01*
X123750500Y-95499996D01*
X129244437Y-95499996D01*
X129244437Y-95500003D01*
X129264632Y-95679249D01*
X129264633Y-95679254D01*
X129324213Y-95849523D01*
X129362330Y-95910185D01*
X129420186Y-96002262D01*
X129547740Y-96129816D01*
X129700480Y-96225789D01*
X129846921Y-96277031D01*
X129870747Y-96285368D01*
X129870752Y-96285369D01*
X130049998Y-96305565D01*
X130050002Y-96305565D01*
X130050006Y-96305565D01*
X130229251Y-96285369D01*
X130229254Y-96285368D01*
X130229257Y-96285368D01*
X130399524Y-96225789D01*
X130552264Y-96129816D01*
X130679818Y-96002262D01*
X130775791Y-95849522D01*
X130835370Y-95679255D01*
X130839365Y-95643797D01*
X130855567Y-95500003D01*
X130855567Y-95499996D01*
X130835371Y-95320750D01*
X130835370Y-95320745D01*
X130809868Y-95247864D01*
X130775791Y-95150478D01*
X130679818Y-94997738D01*
X130552264Y-94870184D01*
X130519188Y-94849401D01*
X130399525Y-94774211D01*
X130229256Y-94714631D01*
X130229251Y-94714630D01*
X130050006Y-94694435D01*
X130049998Y-94694435D01*
X129870752Y-94714630D01*
X129870747Y-94714631D01*
X129700478Y-94774211D01*
X129547739Y-94870184D01*
X129420186Y-94997737D01*
X129324213Y-95150476D01*
X129264633Y-95320745D01*
X129264632Y-95320750D01*
X129244437Y-95499996D01*
X123750500Y-95499996D01*
X123750500Y-94177917D01*
X123770185Y-94110878D01*
X123786814Y-94090241D01*
X125749888Y-92127166D01*
X125811209Y-92093683D01*
X125823665Y-92091631D01*
X125879261Y-92085368D01*
X126049528Y-92025789D01*
X126202268Y-91929816D01*
X126329822Y-91802262D01*
X126425795Y-91649522D01*
X126482961Y-91486151D01*
X126523683Y-91429374D01*
X126588636Y-91403627D01*
X126657197Y-91417083D01*
X126707600Y-91465470D01*
X126717045Y-91486151D01*
X126774210Y-91649521D01*
X126842808Y-91758694D01*
X126870184Y-91802262D01*
X126997738Y-91929816D01*
X127088080Y-91986582D01*
X127148254Y-92024392D01*
X127150478Y-92025789D01*
X127241572Y-92057664D01*
X127320745Y-92085368D01*
X127320750Y-92085369D01*
X127499996Y-92105565D01*
X127500000Y-92105565D01*
X127500004Y-92105565D01*
X127679249Y-92085369D01*
X127679251Y-92085368D01*
X127679255Y-92085368D01*
X127679258Y-92085366D01*
X127679262Y-92085366D01*
X127856095Y-92023489D01*
X127856846Y-92025637D01*
X127915128Y-92016035D01*
X127943588Y-92024392D01*
X127943905Y-92023489D01*
X128120737Y-92085366D01*
X128120743Y-92085367D01*
X128120745Y-92085368D01*
X128120746Y-92085368D01*
X128120750Y-92085369D01*
X128299996Y-92105565D01*
X128300000Y-92105565D01*
X128300004Y-92105565D01*
X128479249Y-92085369D01*
X128479252Y-92085368D01*
X128479255Y-92085368D01*
X128649522Y-92025789D01*
X128802262Y-91929816D01*
X128929816Y-91802262D01*
X129025789Y-91649522D01*
X129085368Y-91479255D01*
X129085369Y-91479249D01*
X129105565Y-91300003D01*
X129105565Y-91299996D01*
X129085369Y-91120750D01*
X129085368Y-91120745D01*
X129080149Y-91105829D01*
X129025789Y-90950478D01*
X129010633Y-90926358D01*
X128943632Y-90819726D01*
X128929816Y-90797738D01*
X128802262Y-90670184D01*
X128773071Y-90651842D01*
X128649521Y-90574210D01*
X128479249Y-90514630D01*
X128392330Y-90504837D01*
X128327916Y-90477770D01*
X128318533Y-90469298D01*
X127887590Y-90038355D01*
X127887588Y-90038352D01*
X127768717Y-89919481D01*
X127768716Y-89919480D01*
X127681904Y-89869360D01*
X127681904Y-89869359D01*
X127681900Y-89869358D01*
X127631785Y-89840423D01*
X127479057Y-89799499D01*
X127320943Y-89799499D01*
X127313347Y-89799499D01*
X127313331Y-89799500D01*
X126610689Y-89799500D01*
X126543650Y-89779815D01*
X126497895Y-89727011D01*
X126487469Y-89689385D01*
X126485369Y-89670749D01*
X126485368Y-89670745D01*
X126425788Y-89500476D01*
X126329815Y-89347737D01*
X126202262Y-89220184D01*
X126049523Y-89124211D01*
X125879254Y-89064631D01*
X125879249Y-89064630D01*
X125700004Y-89044435D01*
X125699996Y-89044435D01*
X125520750Y-89064630D01*
X125520745Y-89064631D01*
X125350476Y-89124211D01*
X125197737Y-89220184D01*
X125070184Y-89347737D01*
X124974211Y-89500476D01*
X124914631Y-89670745D01*
X124914630Y-89670749D01*
X124912531Y-89689385D01*
X124885464Y-89753799D01*
X124827868Y-89793353D01*
X124789311Y-89799500D01*
X124320941Y-89799500D01*
X124281136Y-89810165D01*
X124281137Y-89810166D01*
X124168214Y-89840423D01*
X124168209Y-89840426D01*
X124031290Y-89919475D01*
X124031282Y-89919481D01*
X123252548Y-90698216D01*
X123191225Y-90731701D01*
X123121533Y-90726717D01*
X123077186Y-90698216D01*
X123052258Y-90673288D01*
X122899519Y-90577315D01*
X122729250Y-90517735D01*
X122729245Y-90517734D01*
X122550000Y-90497539D01*
X122549992Y-90497539D01*
X122370746Y-90517734D01*
X122370738Y-90517736D01*
X122220388Y-90570346D01*
X122150609Y-90573907D01*
X122138480Y-90570346D01*
X121979257Y-90514632D01*
X121979249Y-90514630D01*
X121800004Y-90494435D01*
X121799996Y-90494435D01*
X121620750Y-90514630D01*
X121620745Y-90514631D01*
X121450470Y-90574213D01*
X121444205Y-90577231D01*
X121443535Y-90575841D01*
X121384188Y-90592603D01*
X121317355Y-90572227D01*
X121272149Y-90518952D01*
X121262921Y-90449694D01*
X121268426Y-90427661D01*
X121285365Y-90379255D01*
X121285366Y-90379249D01*
X121305562Y-90200003D01*
X121305562Y-90199996D01*
X121285366Y-90020750D01*
X121285363Y-90020737D01*
X121231203Y-89865958D01*
X121227641Y-89796179D01*
X121231203Y-89784048D01*
X121285366Y-89629260D01*
X121285369Y-89629247D01*
X121305565Y-89450001D01*
X121305565Y-89449994D01*
X121285369Y-89270748D01*
X121285368Y-89270743D01*
X121267677Y-89220184D01*
X121225789Y-89100476D01*
X121203265Y-89064630D01*
X121129815Y-88947735D01*
X121002262Y-88820182D01*
X120849523Y-88724209D01*
X120679254Y-88664629D01*
X120679249Y-88664628D01*
X120500004Y-88644433D01*
X120493036Y-88644433D01*
X120493036Y-88642683D01*
X120433016Y-88632169D01*
X120381638Y-88584818D01*
X120364016Y-88517208D01*
X120368882Y-88486410D01*
X120397597Y-88387573D01*
X120397598Y-88387567D01*
X120400499Y-88350701D01*
X120400500Y-88350694D01*
X120400500Y-87919306D01*
X120397598Y-87882431D01*
X120394416Y-87871480D01*
X120351745Y-87724606D01*
X120351744Y-87724603D01*
X120351744Y-87724602D01*
X120268081Y-87583135D01*
X120268078Y-87583132D01*
X120263298Y-87576969D01*
X120265750Y-87575066D01*
X120239155Y-87526421D01*
X120244104Y-87456726D01*
X120264940Y-87424304D01*
X120263298Y-87423031D01*
X120268075Y-87416870D01*
X120268081Y-87416865D01*
X120351744Y-87275398D01*
X120397598Y-87117569D01*
X120400500Y-87080694D01*
X120400500Y-86649306D01*
X120397598Y-86612431D01*
X120351744Y-86454602D01*
X120268081Y-86313135D01*
X120268078Y-86313132D01*
X120263298Y-86306969D01*
X120265750Y-86305066D01*
X120239155Y-86256421D01*
X120244104Y-86186726D01*
X120264940Y-86154304D01*
X120263298Y-86153031D01*
X120268075Y-86146870D01*
X120268081Y-86146865D01*
X120351744Y-86005398D01*
X120397598Y-85847569D01*
X120400500Y-85810694D01*
X120400500Y-85379306D01*
X120397598Y-85342431D01*
X120351744Y-85184602D01*
X120268081Y-85043135D01*
X120268079Y-85043133D01*
X120268076Y-85043129D01*
X120151870Y-84926923D01*
X120151862Y-84926917D01*
X120010396Y-84843255D01*
X120010393Y-84843254D01*
X119852573Y-84797402D01*
X119852567Y-84797401D01*
X119815701Y-84794500D01*
X119815694Y-84794500D01*
X119321460Y-84794500D01*
X119254421Y-84774815D01*
X119208666Y-84722011D01*
X119198722Y-84652853D01*
X119222193Y-84596189D01*
X119224361Y-84593292D01*
X119243796Y-84567331D01*
X119294091Y-84432483D01*
X119300500Y-84372873D01*
X119300499Y-83227128D01*
X119294091Y-83167517D01*
X119243796Y-83032669D01*
X119243793Y-83032666D01*
X119240667Y-83026939D01*
X119225500Y-82967513D01*
X119225500Y-80482486D01*
X119240671Y-80423054D01*
X119243793Y-80417333D01*
X119243796Y-80417331D01*
X119294091Y-80282483D01*
X119300500Y-80222873D01*
X119300499Y-79077128D01*
X119294091Y-79017517D01*
X119292034Y-79012003D01*
X119243797Y-78882672D01*
X119243796Y-78882670D01*
X119243796Y-78882669D01*
X119243793Y-78882665D01*
X119240370Y-78876396D01*
X119226703Y-78832054D01*
X119226689Y-78832057D01*
X119226660Y-78831913D01*
X119225798Y-78829115D01*
X119225500Y-78826092D01*
X119225500Y-78826082D01*
X119196658Y-78681087D01*
X119196656Y-78681082D01*
X119140086Y-78544508D01*
X119076619Y-78449522D01*
X119076619Y-78449521D01*
X119076617Y-78449520D01*
X119057952Y-78421584D01*
X118611819Y-77975451D01*
X118578334Y-77914128D01*
X118575500Y-77887770D01*
X118575500Y-77768386D01*
X118569494Y-77702292D01*
X118569086Y-77697804D01*
X118518478Y-77535394D01*
X118430472Y-77389815D01*
X118430470Y-77389813D01*
X118430469Y-77389811D01*
X118310188Y-77269530D01*
X118294392Y-77259981D01*
X118287169Y-77255614D01*
X118239983Y-77204088D01*
X118228145Y-77135228D01*
X118255414Y-77070900D01*
X118313133Y-77031526D01*
X118351317Y-77025499D01*
X119222872Y-77025499D01*
X119282483Y-77019091D01*
X119417331Y-76968796D01*
X119532546Y-76882546D01*
X119618796Y-76767331D01*
X119669091Y-76632483D01*
X119675500Y-76572873D01*
X119675499Y-75127128D01*
X119669091Y-75067517D01*
X119650559Y-75017832D01*
X119645576Y-74948142D01*
X119679061Y-74886819D01*
X119740384Y-74853334D01*
X119766742Y-74850500D01*
X130934108Y-74850500D01*
X130997439Y-74850500D01*
X131002562Y-74850605D01*
G37*
%TD.AperFunction*%
%TA.AperFunction,Conductor*%
G36*
X113308126Y-92858206D02*
G01*
X113325485Y-92869362D01*
X113365414Y-92900000D01*
X113403571Y-92929279D01*
X113540528Y-92986009D01*
X113650599Y-93000500D01*
X113849400Y-93000499D01*
X113849401Y-93000499D01*
X113866087Y-92998302D01*
X113959472Y-92986009D01*
X113959475Y-92986007D01*
X113967326Y-92983905D01*
X113968210Y-92987207D01*
X114021925Y-92981392D01*
X114032514Y-92984501D01*
X114032674Y-92983905D01*
X114040524Y-92986008D01*
X114040526Y-92986008D01*
X114040528Y-92986009D01*
X114150599Y-93000500D01*
X114349400Y-93000499D01*
X114349401Y-93000499D01*
X114366087Y-92998302D01*
X114459472Y-92986009D01*
X114459475Y-92986007D01*
X114467326Y-92983905D01*
X114468210Y-92987207D01*
X114521925Y-92981392D01*
X114532514Y-92984501D01*
X114532674Y-92983905D01*
X114540524Y-92986008D01*
X114540526Y-92986008D01*
X114540528Y-92986009D01*
X114650599Y-93000500D01*
X114849400Y-93000499D01*
X114849401Y-93000499D01*
X114866087Y-92998302D01*
X114959472Y-92986009D01*
X114959475Y-92986007D01*
X114967326Y-92983905D01*
X114968210Y-92987207D01*
X115021925Y-92981392D01*
X115032514Y-92984501D01*
X115032674Y-92983905D01*
X115040524Y-92986008D01*
X115040526Y-92986008D01*
X115040528Y-92986009D01*
X115150599Y-93000500D01*
X115349400Y-93000499D01*
X115349401Y-93000499D01*
X115366087Y-92998302D01*
X115459472Y-92986009D01*
X115459475Y-92986007D01*
X115467326Y-92983905D01*
X115468210Y-92987207D01*
X115521925Y-92981392D01*
X115532514Y-92984501D01*
X115532674Y-92983905D01*
X115540524Y-92986008D01*
X115540526Y-92986008D01*
X115540528Y-92986009D01*
X115650599Y-93000500D01*
X115849400Y-93000499D01*
X115849401Y-93000499D01*
X115866087Y-92998302D01*
X115959472Y-92986009D01*
X115959475Y-92986007D01*
X115967326Y-92983905D01*
X115968210Y-92987207D01*
X116021925Y-92981392D01*
X116032514Y-92984501D01*
X116032674Y-92983905D01*
X116040524Y-92986008D01*
X116040526Y-92986008D01*
X116040528Y-92986009D01*
X116150599Y-93000500D01*
X116349400Y-93000499D01*
X116349401Y-93000499D01*
X116366087Y-92998302D01*
X116459472Y-92986009D01*
X116459475Y-92986007D01*
X116467326Y-92983905D01*
X116468210Y-92987207D01*
X116521925Y-92981392D01*
X116532514Y-92984501D01*
X116532674Y-92983905D01*
X116540524Y-92986008D01*
X116540526Y-92986008D01*
X116540528Y-92986009D01*
X116650599Y-93000500D01*
X116849400Y-93000499D01*
X116849401Y-93000499D01*
X116866087Y-92998302D01*
X116959472Y-92986009D01*
X116959475Y-92986007D01*
X116967326Y-92983905D01*
X116968210Y-92987207D01*
X117021925Y-92981392D01*
X117032514Y-92984501D01*
X117032674Y-92983905D01*
X117040524Y-92986008D01*
X117040526Y-92986008D01*
X117040528Y-92986009D01*
X117150599Y-93000500D01*
X117349400Y-93000499D01*
X117349401Y-93000499D01*
X117366087Y-92998302D01*
X117459472Y-92986009D01*
X117459475Y-92986007D01*
X117467326Y-92983905D01*
X117468210Y-92987207D01*
X117521925Y-92981392D01*
X117532514Y-92984501D01*
X117532674Y-92983905D01*
X117540524Y-92986008D01*
X117540526Y-92986008D01*
X117540528Y-92986009D01*
X117650599Y-93000500D01*
X117849400Y-93000499D01*
X117927261Y-92990249D01*
X117996296Y-93001015D01*
X118048551Y-93047395D01*
X118058005Y-93065733D01*
X118070718Y-93096424D01*
X118070721Y-93096429D01*
X118130637Y-93174514D01*
X118155831Y-93239683D01*
X118141792Y-93308128D01*
X118130637Y-93325486D01*
X118070721Y-93403570D01*
X118070719Y-93403573D01*
X118013991Y-93540527D01*
X118013990Y-93540529D01*
X117999500Y-93650598D01*
X117999500Y-93849403D01*
X118013989Y-93959468D01*
X118016094Y-93967322D01*
X118012814Y-93968200D01*
X118018581Y-94022073D01*
X118015517Y-94032522D01*
X118016095Y-94032677D01*
X118013990Y-94040529D01*
X117999500Y-94150598D01*
X117999500Y-94349403D01*
X118013989Y-94459468D01*
X118016094Y-94467322D01*
X118012814Y-94468200D01*
X118018581Y-94522073D01*
X118015517Y-94532522D01*
X118016095Y-94532677D01*
X118013990Y-94540529D01*
X117999500Y-94650598D01*
X117999500Y-94849403D01*
X118013989Y-94959468D01*
X118016094Y-94967322D01*
X118012814Y-94968200D01*
X118018581Y-95022073D01*
X118015517Y-95032522D01*
X118016095Y-95032677D01*
X118013990Y-95040529D01*
X117999500Y-95150598D01*
X117999500Y-95349403D01*
X118013989Y-95459468D01*
X118016094Y-95467322D01*
X118012814Y-95468200D01*
X118018581Y-95522073D01*
X118015517Y-95532522D01*
X118016095Y-95532677D01*
X118013990Y-95540529D01*
X117999500Y-95650598D01*
X117999500Y-95849403D01*
X118013989Y-95959468D01*
X118016094Y-95967322D01*
X118012814Y-95968200D01*
X118018581Y-96022073D01*
X118015517Y-96032522D01*
X118016095Y-96032677D01*
X118013990Y-96040529D01*
X117999500Y-96150598D01*
X117999500Y-96349403D01*
X118013989Y-96459468D01*
X118016094Y-96467322D01*
X118012814Y-96468200D01*
X118018581Y-96522073D01*
X118015517Y-96532522D01*
X118016095Y-96532677D01*
X118013990Y-96540529D01*
X117999500Y-96650598D01*
X117999500Y-96849403D01*
X118013989Y-96959468D01*
X118016094Y-96967322D01*
X118012814Y-96968200D01*
X118018581Y-97022073D01*
X118015517Y-97032522D01*
X118016095Y-97032677D01*
X118013990Y-97040529D01*
X117999500Y-97150598D01*
X117999500Y-97349403D01*
X118013989Y-97459468D01*
X118016094Y-97467322D01*
X118012814Y-97468200D01*
X118018581Y-97522073D01*
X118015517Y-97532522D01*
X118016095Y-97532677D01*
X118013990Y-97540529D01*
X117999500Y-97650598D01*
X117999500Y-97849403D01*
X118009750Y-97927263D01*
X117998983Y-97996298D01*
X117952603Y-98048553D01*
X117934267Y-98058006D01*
X117903568Y-98070722D01*
X117825486Y-98130637D01*
X117760317Y-98155831D01*
X117691872Y-98141792D01*
X117674514Y-98130637D01*
X117596429Y-98070721D01*
X117596426Y-98070719D01*
X117459472Y-98013991D01*
X117459470Y-98013990D01*
X117349401Y-97999500D01*
X117150596Y-97999500D01*
X117040531Y-98013989D01*
X117032678Y-98016094D01*
X117031802Y-98012824D01*
X116977853Y-98018567D01*
X116967477Y-98015518D01*
X116967323Y-98016095D01*
X116959470Y-98013990D01*
X116849401Y-97999500D01*
X116650596Y-97999500D01*
X116540531Y-98013989D01*
X116532678Y-98016094D01*
X116531802Y-98012824D01*
X116477853Y-98018567D01*
X116467477Y-98015518D01*
X116467323Y-98016095D01*
X116459470Y-98013990D01*
X116349401Y-97999500D01*
X116150596Y-97999500D01*
X116040531Y-98013989D01*
X116032678Y-98016094D01*
X116031802Y-98012824D01*
X115977853Y-98018567D01*
X115967477Y-98015518D01*
X115967323Y-98016095D01*
X115959470Y-98013990D01*
X115849401Y-97999500D01*
X115650596Y-97999500D01*
X115540531Y-98013989D01*
X115532678Y-98016094D01*
X115531802Y-98012824D01*
X115477853Y-98018567D01*
X115467477Y-98015518D01*
X115467323Y-98016095D01*
X115459470Y-98013990D01*
X115349401Y-97999500D01*
X115150596Y-97999500D01*
X115040531Y-98013989D01*
X115032678Y-98016094D01*
X115031802Y-98012824D01*
X114977853Y-98018567D01*
X114967477Y-98015518D01*
X114967323Y-98016095D01*
X114959470Y-98013990D01*
X114849401Y-97999500D01*
X114650596Y-97999500D01*
X114540531Y-98013989D01*
X114532678Y-98016094D01*
X114531802Y-98012824D01*
X114477853Y-98018567D01*
X114467477Y-98015518D01*
X114467323Y-98016095D01*
X114459470Y-98013990D01*
X114349401Y-97999500D01*
X114150596Y-97999500D01*
X114040531Y-98013989D01*
X114032678Y-98016094D01*
X114031802Y-98012824D01*
X113977853Y-98018567D01*
X113967477Y-98015518D01*
X113967323Y-98016095D01*
X113959470Y-98013990D01*
X113849401Y-97999500D01*
X113650596Y-97999500D01*
X113540531Y-98013989D01*
X113532678Y-98016094D01*
X113531802Y-98012824D01*
X113477853Y-98018567D01*
X113467477Y-98015518D01*
X113467323Y-98016095D01*
X113459470Y-98013990D01*
X113349401Y-97999500D01*
X113150598Y-97999500D01*
X113137953Y-98001165D01*
X113068918Y-97990395D01*
X113016665Y-97944012D01*
X112997784Y-97876742D01*
X112998836Y-97862039D01*
X113000500Y-97849401D01*
X113000499Y-97650600D01*
X112986009Y-97540528D01*
X112986008Y-97540525D01*
X112983905Y-97532674D01*
X112987207Y-97531789D01*
X112981392Y-97478075D01*
X112984501Y-97467485D01*
X112983905Y-97467326D01*
X112986008Y-97459475D01*
X112986008Y-97459474D01*
X112986009Y-97459472D01*
X113000500Y-97349401D01*
X113000499Y-97150600D01*
X112986009Y-97040528D01*
X112986008Y-97040525D01*
X112983905Y-97032674D01*
X112987207Y-97031789D01*
X112981392Y-96978075D01*
X112984501Y-96967485D01*
X112983905Y-96967326D01*
X112986008Y-96959475D01*
X112986008Y-96959474D01*
X112986009Y-96959472D01*
X113000500Y-96849401D01*
X113000499Y-96650600D01*
X113000499Y-96650598D01*
X113000499Y-96650596D01*
X112986011Y-96540536D01*
X112986009Y-96540529D01*
X112986009Y-96540528D01*
X112929279Y-96403571D01*
X112869360Y-96325484D01*
X112844168Y-96260318D01*
X112858206Y-96191873D01*
X112869356Y-96174521D01*
X112929279Y-96096429D01*
X112986009Y-95959472D01*
X113000500Y-95849401D01*
X113000499Y-95650600D01*
X112999603Y-95643797D01*
X112988249Y-95557544D01*
X112986009Y-95540528D01*
X112986008Y-95540525D01*
X112983905Y-95532674D01*
X112987207Y-95531789D01*
X112981392Y-95478075D01*
X112984501Y-95467485D01*
X112983905Y-95467326D01*
X112986008Y-95459475D01*
X112986008Y-95459474D01*
X112986009Y-95459472D01*
X113000500Y-95349401D01*
X113000499Y-95150600D01*
X112986009Y-95040528D01*
X112986008Y-95040525D01*
X112983905Y-95032674D01*
X112987207Y-95031789D01*
X112981392Y-94978075D01*
X112984501Y-94967485D01*
X112983905Y-94967326D01*
X112986008Y-94959475D01*
X112986008Y-94959474D01*
X112986009Y-94959472D01*
X113000500Y-94849401D01*
X113000499Y-94650600D01*
X113000211Y-94648416D01*
X112986009Y-94540529D01*
X112986009Y-94540528D01*
X112986008Y-94540525D01*
X112983905Y-94532674D01*
X112987207Y-94531789D01*
X112981392Y-94478075D01*
X112984501Y-94467485D01*
X112983905Y-94467326D01*
X112986008Y-94459475D01*
X112986008Y-94459474D01*
X112986009Y-94459472D01*
X113000500Y-94349401D01*
X113000499Y-94150600D01*
X112999603Y-94143797D01*
X112993322Y-94096079D01*
X112986009Y-94040528D01*
X112986008Y-94040525D01*
X112983905Y-94032674D01*
X112987207Y-94031789D01*
X112981392Y-93978075D01*
X112984501Y-93967485D01*
X112983905Y-93967326D01*
X112986008Y-93959475D01*
X112986008Y-93959474D01*
X112986009Y-93959472D01*
X113000500Y-93849401D01*
X113000499Y-93650600D01*
X112986009Y-93540528D01*
X112986008Y-93540525D01*
X112983905Y-93532674D01*
X112987207Y-93531789D01*
X112981392Y-93478075D01*
X112984501Y-93467485D01*
X112983905Y-93467326D01*
X112986008Y-93459475D01*
X112986008Y-93459474D01*
X112986009Y-93459472D01*
X113000500Y-93349401D01*
X113000499Y-93150600D01*
X112990249Y-93072736D01*
X113001015Y-93003702D01*
X113047395Y-92951447D01*
X113065727Y-92941996D01*
X113096429Y-92929279D01*
X113174516Y-92869360D01*
X113239681Y-92844168D01*
X113308126Y-92858206D01*
G37*
%TD.AperFunction*%
%TA.AperFunction,Conductor*%
G36*
X109343334Y-95899838D02*
G01*
X109387681Y-95928339D01*
X109495118Y-96035776D01*
X109492975Y-96037918D01*
X109525540Y-96083434D01*
X109529019Y-96153217D01*
X109494219Y-96213803D01*
X109473548Y-96229788D01*
X109396956Y-96277031D01*
X109277032Y-96396955D01*
X109277029Y-96396959D01*
X109188001Y-96541294D01*
X109187996Y-96541305D01*
X109134651Y-96702290D01*
X109124500Y-96801647D01*
X109124500Y-97398337D01*
X109124501Y-97398355D01*
X109134650Y-97497707D01*
X109134651Y-97497710D01*
X109187996Y-97658694D01*
X109188001Y-97658705D01*
X109223299Y-97715931D01*
X109241740Y-97783323D01*
X109220818Y-97849987D01*
X109167176Y-97894757D01*
X109131645Y-97904248D01*
X109039499Y-97914630D01*
X109039495Y-97914631D01*
X108959733Y-97942542D01*
X108918778Y-97949500D01*
X108886515Y-97949500D01*
X108819476Y-97929815D01*
X108780977Y-97890598D01*
X108768031Y-97869609D01*
X108649141Y-97750719D01*
X108649137Y-97750716D01*
X108506045Y-97662455D01*
X108506039Y-97662452D01*
X108506037Y-97662451D01*
X108346435Y-97609564D01*
X108346433Y-97609563D01*
X108247931Y-97599500D01*
X108247924Y-97599500D01*
X108020202Y-97599500D01*
X107953163Y-97579815D01*
X107907408Y-97527011D01*
X107897464Y-97457853D01*
X107902496Y-97436496D01*
X107906081Y-97425678D01*
X107915349Y-97397708D01*
X107925500Y-97298345D01*
X107925499Y-96701656D01*
X107920283Y-96650598D01*
X107915349Y-96602292D01*
X107915348Y-96602289D01*
X107894883Y-96540529D01*
X107862003Y-96441303D01*
X107819570Y-96372510D01*
X107801131Y-96305119D01*
X107822053Y-96238455D01*
X107825830Y-96233121D01*
X107873094Y-96169984D01*
X107929028Y-96128115D01*
X107998720Y-96123131D01*
X108009235Y-96125907D01*
X108147804Y-96169086D01*
X108218384Y-96175500D01*
X108218387Y-96175500D01*
X108731613Y-96175500D01*
X108731616Y-96175500D01*
X108802196Y-96169086D01*
X108964606Y-96118478D01*
X109110185Y-96030472D01*
X109146336Y-95994321D01*
X109212319Y-95928339D01*
X109273642Y-95894854D01*
X109343334Y-95899838D01*
G37*
%TD.AperFunction*%
%TA.AperFunction,Conductor*%
G36*
X121094457Y-92213431D02*
G01*
X121139228Y-92267072D01*
X121149500Y-92316489D01*
X121149500Y-92589311D01*
X121129815Y-92656350D01*
X121077011Y-92702105D01*
X121039385Y-92712531D01*
X121020750Y-92714630D01*
X120850478Y-92774210D01*
X120697737Y-92870184D01*
X120570184Y-92997737D01*
X120511287Y-93091472D01*
X120458952Y-93137763D01*
X120406293Y-93149500D01*
X119967876Y-93149500D01*
X119900837Y-93129815D01*
X119855082Y-93077011D01*
X119845138Y-93007853D01*
X119853314Y-92978049D01*
X119861009Y-92959472D01*
X119875500Y-92849401D01*
X119875499Y-92650600D01*
X119875499Y-92650596D01*
X119861011Y-92540536D01*
X119861009Y-92540532D01*
X119861009Y-92540528D01*
X119810139Y-92417720D01*
X119802671Y-92348253D01*
X119833946Y-92285774D01*
X119894034Y-92250121D01*
X119963705Y-92252563D01*
X119983423Y-92259096D01*
X120002292Y-92265349D01*
X120101655Y-92275500D01*
X120698344Y-92275499D01*
X120698352Y-92275498D01*
X120698355Y-92275498D01*
X120752760Y-92269940D01*
X120797708Y-92265349D01*
X120958697Y-92212003D01*
X120960401Y-92210952D01*
X120961728Y-92210588D01*
X120965245Y-92208949D01*
X120965525Y-92209549D01*
X121027793Y-92192510D01*
X121094457Y-92213431D01*
G37*
%TD.AperFunction*%
%TA.AperFunction,Conductor*%
G36*
X115449356Y-78931043D02*
G01*
X115493644Y-78985084D01*
X115502767Y-79046731D01*
X115499501Y-79077123D01*
X115499500Y-79077130D01*
X115499500Y-80222870D01*
X115499501Y-80222876D01*
X115505908Y-80282483D01*
X115533442Y-80356304D01*
X115537532Y-80413500D01*
X115540411Y-80413825D01*
X115519435Y-80599996D01*
X115519435Y-80600003D01*
X115539630Y-80779249D01*
X115539631Y-80779254D01*
X115567542Y-80859017D01*
X115574500Y-80899972D01*
X115574500Y-81400028D01*
X115567542Y-81440982D01*
X115539631Y-81520747D01*
X115519435Y-81699996D01*
X115519435Y-81700003D01*
X115539630Y-81879249D01*
X115539631Y-81879254D01*
X115567542Y-81959017D01*
X115574500Y-81999972D01*
X115574500Y-82500028D01*
X115567542Y-82540982D01*
X115539631Y-82620747D01*
X115519435Y-82799996D01*
X115519435Y-82800003D01*
X115539631Y-82979252D01*
X115542496Y-82987440D01*
X115546057Y-83057219D01*
X115541636Y-83071727D01*
X115505908Y-83167517D01*
X115500442Y-83218364D01*
X115499501Y-83227123D01*
X115499500Y-83227135D01*
X115499500Y-84372870D01*
X115499501Y-84372876D01*
X115505908Y-84432483D01*
X115556202Y-84567328D01*
X115556206Y-84567335D01*
X115642452Y-84682544D01*
X115642455Y-84682547D01*
X115757664Y-84768793D01*
X115757671Y-84768797D01*
X115802618Y-84785561D01*
X115892517Y-84819091D01*
X115952127Y-84825500D01*
X116697872Y-84825499D01*
X116757483Y-84819091D01*
X116892331Y-84768796D01*
X117007546Y-84682546D01*
X117093796Y-84567331D01*
X117101711Y-84546110D01*
X117101867Y-84545693D01*
X117143737Y-84489759D01*
X117209201Y-84465341D01*
X117277475Y-84480192D01*
X117284022Y-84484032D01*
X117350475Y-84525788D01*
X117520745Y-84585368D01*
X117520750Y-84585369D01*
X117577607Y-84591774D01*
X117627777Y-84597427D01*
X117692190Y-84624493D01*
X117731746Y-84682087D01*
X117733885Y-84751924D01*
X117697927Y-84811831D01*
X117654850Y-84837688D01*
X117550479Y-84874209D01*
X117397737Y-84970184D01*
X117270184Y-85097737D01*
X117174211Y-85250476D01*
X117114631Y-85420745D01*
X117114630Y-85420750D01*
X117094435Y-85599996D01*
X117094435Y-85600003D01*
X117114630Y-85779249D01*
X117114631Y-85779254D01*
X117174211Y-85949523D01*
X117270184Y-86102262D01*
X117330241Y-86162319D01*
X117363726Y-86223642D01*
X117358742Y-86293334D01*
X117330241Y-86337681D01*
X117270184Y-86397737D01*
X117174211Y-86550476D01*
X117114631Y-86720745D01*
X117114630Y-86720750D01*
X117094435Y-86899996D01*
X117094435Y-86900003D01*
X117114630Y-87079249D01*
X117114631Y-87079254D01*
X117174211Y-87249523D01*
X117270184Y-87402262D01*
X117397738Y-87529816D01*
X117550478Y-87625789D01*
X117667558Y-87666757D01*
X117724334Y-87707479D01*
X117750081Y-87772432D01*
X117736625Y-87840993D01*
X117714284Y-87871480D01*
X117105180Y-88480583D01*
X117043857Y-88514068D01*
X116974165Y-88509084D01*
X116929818Y-88480583D01*
X114952590Y-86503355D01*
X114952588Y-86503352D01*
X114833717Y-86384481D01*
X114833716Y-86384480D01*
X114746904Y-86334360D01*
X114746904Y-86334359D01*
X114746900Y-86334358D01*
X114696785Y-86305423D01*
X114544057Y-86264499D01*
X114385943Y-86264499D01*
X114378347Y-86264499D01*
X114378331Y-86264500D01*
X113852236Y-86264500D01*
X113785197Y-86244815D01*
X113739442Y-86192011D01*
X113729498Y-86122853D01*
X113747242Y-86074528D01*
X113825789Y-85949522D01*
X113885368Y-85779255D01*
X113905565Y-85600000D01*
X113885368Y-85420745D01*
X113825789Y-85250478D01*
X113729816Y-85097738D01*
X113602262Y-84970184D01*
X113449522Y-84874211D01*
X113385478Y-84851801D01*
X113328702Y-84811079D01*
X113302955Y-84746126D01*
X113303213Y-84720874D01*
X113305565Y-84700001D01*
X113305565Y-84699998D01*
X113294672Y-84603329D01*
X113301709Y-84546113D01*
X113344091Y-84432483D01*
X113350500Y-84372873D01*
X113350499Y-83227128D01*
X113344091Y-83167517D01*
X113293796Y-83032669D01*
X113293793Y-83032666D01*
X113290667Y-83026939D01*
X113275500Y-82967513D01*
X113275500Y-80482486D01*
X113290671Y-80423054D01*
X113293793Y-80417333D01*
X113293796Y-80417331D01*
X113344091Y-80282483D01*
X113350500Y-80222873D01*
X113350499Y-79199498D01*
X113370183Y-79132460D01*
X113422987Y-79086705D01*
X113474499Y-79075499D01*
X113548338Y-79075499D01*
X113548344Y-79075499D01*
X113548352Y-79075498D01*
X113548355Y-79075498D01*
X113611124Y-79069086D01*
X113647708Y-79065349D01*
X113808697Y-79012003D01*
X113925402Y-78940017D01*
X113992794Y-78921577D01*
X114054647Y-78939438D01*
X114185394Y-79018478D01*
X114347804Y-79069086D01*
X114418384Y-79075500D01*
X114418387Y-79075500D01*
X114931613Y-79075500D01*
X114931616Y-79075500D01*
X115002196Y-79069086D01*
X115164606Y-79018478D01*
X115310185Y-78930472D01*
X115310187Y-78930469D01*
X115315328Y-78927362D01*
X115382882Y-78909526D01*
X115449356Y-78931043D01*
G37*
%TD.AperFunction*%
%TA.AperFunction,Conductor*%
G36*
X117311379Y-79057735D02*
G01*
X117347804Y-79069086D01*
X117418384Y-79075500D01*
X117525500Y-79075500D01*
X117592539Y-79095185D01*
X117638294Y-79147989D01*
X117649500Y-79199500D01*
X117649500Y-80222870D01*
X117649501Y-80222876D01*
X117655908Y-80282483D01*
X117706203Y-80417330D01*
X117709329Y-80423054D01*
X117724500Y-80482486D01*
X117724500Y-82880861D01*
X117704815Y-82947900D01*
X117652011Y-82993655D01*
X117614383Y-83004081D01*
X117520750Y-83014630D01*
X117520745Y-83014631D01*
X117350476Y-83074211D01*
X117298343Y-83106969D01*
X117231106Y-83125969D01*
X117164271Y-83105601D01*
X117119057Y-83052333D01*
X117110243Y-82986249D01*
X117109589Y-82986176D01*
X117109884Y-82983557D01*
X117109820Y-82983077D01*
X117110108Y-82981569D01*
X117130565Y-82800003D01*
X117130565Y-82799996D01*
X117110368Y-82620747D01*
X117110368Y-82620745D01*
X117082458Y-82540982D01*
X117075500Y-82500028D01*
X117075500Y-81999972D01*
X117082458Y-81959017D01*
X117110368Y-81879254D01*
X117110369Y-81879249D01*
X117130565Y-81700003D01*
X117130565Y-81699996D01*
X117110368Y-81520747D01*
X117110368Y-81520745D01*
X117082458Y-81440982D01*
X117075500Y-81400028D01*
X117075500Y-80899972D01*
X117082458Y-80859017D01*
X117110368Y-80779254D01*
X117110369Y-80779249D01*
X117130565Y-80600003D01*
X117130565Y-80599996D01*
X117109589Y-80413824D01*
X117112700Y-80413473D01*
X117116101Y-80357546D01*
X117116510Y-80356426D01*
X117144091Y-80282483D01*
X117150500Y-80222873D01*
X117150499Y-79176123D01*
X117170183Y-79109085D01*
X117222987Y-79063330D01*
X117292146Y-79053386D01*
X117311379Y-79057735D01*
G37*
%TD.AperFunction*%
%TD*%
%TA.AperFunction,Conductor*%
%TO.N,+3V3*%
G36*
X133727540Y-99419685D02*
G01*
X133773295Y-99472489D01*
X133784501Y-99524000D01*
X133784501Y-100162876D01*
X133790908Y-100222483D01*
X133841202Y-100357328D01*
X133841203Y-100357329D01*
X133841204Y-100357331D01*
X133884329Y-100414938D01*
X133927454Y-100472547D01*
X133950309Y-100489655D01*
X133992181Y-100545588D01*
X134000000Y-100588923D01*
X134000000Y-104076000D01*
X133980315Y-104143039D01*
X133927511Y-104188794D01*
X133876000Y-104200000D01*
X132283039Y-104200000D01*
X132216000Y-104180315D01*
X132205724Y-104172945D01*
X132202263Y-104170185D01*
X132202262Y-104170184D01*
X132123905Y-104120949D01*
X132049523Y-104074211D01*
X131879254Y-104014631D01*
X131879250Y-104014630D01*
X131769023Y-104002211D01*
X131704609Y-103975144D01*
X131665054Y-103917549D01*
X131662917Y-103847712D01*
X131677369Y-103813893D01*
X131711544Y-103758487D01*
X131711547Y-103758481D01*
X131764855Y-103597606D01*
X131774999Y-103498322D01*
X131775000Y-103498309D01*
X131775000Y-103475000D01*
X130674000Y-103475000D01*
X130606961Y-103455315D01*
X130561206Y-103402511D01*
X130550000Y-103351000D01*
X130550000Y-102975000D01*
X131050000Y-102975000D01*
X131774999Y-102975000D01*
X131774999Y-102951692D01*
X131774998Y-102951677D01*
X131764855Y-102852392D01*
X131711547Y-102691518D01*
X131711542Y-102691507D01*
X131622575Y-102547271D01*
X131622572Y-102547267D01*
X131502732Y-102427427D01*
X131502728Y-102427424D01*
X131358492Y-102338457D01*
X131358481Y-102338452D01*
X131197606Y-102285144D01*
X131098322Y-102275000D01*
X131050000Y-102275000D01*
X131050000Y-102975000D01*
X130550000Y-102975000D01*
X130550000Y-102275000D01*
X130549999Y-102274999D01*
X130501693Y-102275000D01*
X130501675Y-102275001D01*
X130402392Y-102285144D01*
X130241518Y-102338452D01*
X130241507Y-102338457D01*
X130097271Y-102427424D01*
X130097267Y-102427427D01*
X129977427Y-102547267D01*
X129977424Y-102547271D01*
X129888457Y-102691507D01*
X129888452Y-102691518D01*
X129835144Y-102852393D01*
X129825000Y-102951677D01*
X129824840Y-102954833D01*
X129824679Y-102954824D01*
X129824679Y-102954826D01*
X129824655Y-102954823D01*
X129823888Y-102954784D01*
X129805315Y-103018039D01*
X129752511Y-103063794D01*
X129701000Y-103075000D01*
X129550001Y-103075000D01*
X129550001Y-103916412D01*
X129530316Y-103983451D01*
X129477512Y-104029206D01*
X129466954Y-104033454D01*
X129440981Y-104042542D01*
X129400028Y-104049500D01*
X128999972Y-104049500D01*
X128959017Y-104042542D01*
X128879254Y-104014631D01*
X128879249Y-104014630D01*
X128700004Y-103994435D01*
X128699996Y-103994435D01*
X128520750Y-104014630D01*
X128520745Y-104014631D01*
X128440983Y-104042542D01*
X128400028Y-104049500D01*
X127999972Y-104049500D01*
X127959018Y-104042542D01*
X127915811Y-104027423D01*
X127883543Y-104016132D01*
X127826768Y-103975411D01*
X127801020Y-103910459D01*
X127800498Y-103899091D01*
X127800498Y-103527155D01*
X128400001Y-103527155D01*
X128400001Y-103600000D01*
X129050001Y-103600000D01*
X129050001Y-103075000D01*
X128852156Y-103075000D01*
X128792628Y-103081401D01*
X128792621Y-103081403D01*
X128657914Y-103131645D01*
X128657907Y-103131649D01*
X128542813Y-103217809D01*
X128542810Y-103217812D01*
X128456650Y-103332906D01*
X128456646Y-103332913D01*
X128406404Y-103467620D01*
X128406402Y-103467627D01*
X128400001Y-103527155D01*
X127800498Y-103527155D01*
X127800498Y-103527129D01*
X127800497Y-103527123D01*
X127794090Y-103467516D01*
X127743796Y-103332671D01*
X127743792Y-103332664D01*
X127724733Y-103307204D01*
X127700316Y-103241740D01*
X127700000Y-103232894D01*
X127700000Y-103056352D01*
X127700780Y-103042468D01*
X127705565Y-103000002D01*
X127705565Y-102999998D01*
X127700780Y-102957531D01*
X127700000Y-102943647D01*
X127700000Y-99524000D01*
X127719685Y-99456961D01*
X127772489Y-99411206D01*
X127824000Y-99400000D01*
X133660501Y-99400000D01*
X133727540Y-99419685D01*
G37*
%TD.AperFunction*%
%TD*%
D42*
X95500000Y-105500000D03*
X127700000Y-104800000D03*
X110500000Y-80500000D03*
X113100000Y-93100000D03*
X135500000Y-105500000D03*
X120499999Y-85500000D03*
X128700000Y-104800000D03*
X125500000Y-75500000D03*
X126900000Y-103000000D03*
X100500000Y-85500000D03*
X105500000Y-80500000D03*
X113100000Y-89400000D03*
X113500000Y-80600000D03*
X130500000Y-75500000D03*
X100500000Y-75500000D03*
X118300000Y-107700000D03*
X115500000Y-110500000D03*
X95500000Y-80500000D03*
X135500000Y-80500000D03*
X126200000Y-104800000D03*
X95500000Y-110500000D03*
X95500000Y-85500000D03*
X110900000Y-78100000D03*
X113500000Y-81700000D03*
X130500000Y-115500000D03*
X97400002Y-102208949D03*
X105500000Y-110500000D03*
X117400000Y-79500000D03*
X100500000Y-90500000D03*
X112700000Y-100013786D03*
X113500000Y-82800000D03*
X123500000Y-103000000D03*
X125500000Y-85500000D03*
X120500000Y-75500000D03*
X105425000Y-96200000D03*
X120500000Y-115500000D03*
X113500000Y-79500000D03*
X116500000Y-87800000D03*
X121500000Y-111300000D03*
X114675000Y-81700000D03*
X108525000Y-92600000D03*
X123000000Y-101000000D03*
X95500000Y-90500000D03*
X129700000Y-104800000D03*
X124700000Y-107700000D03*
X106975000Y-92000000D03*
X120100000Y-78100000D03*
X117900000Y-96500000D03*
X130800000Y-105600000D03*
X105500000Y-85500000D03*
X125500000Y-80500000D03*
X120383246Y-92225000D03*
X130500000Y-90500000D03*
X100500000Y-115500000D03*
X114700000Y-85500000D03*
X131700000Y-104800000D03*
X110500000Y-75500000D03*
X113100000Y-97900000D03*
X115500000Y-105500000D03*
X108525000Y-91000000D03*
X110500000Y-100500000D03*
X114675000Y-80600000D03*
X105500000Y-100500000D03*
X110500000Y-85500000D03*
X100500000Y-105500000D03*
X116500000Y-85500000D03*
X117900000Y-94500000D03*
X100500000Y-100500000D03*
X125500000Y-115500000D03*
X110500000Y-105500000D03*
X135500000Y-85500000D03*
X130710387Y-97150001D03*
X109175000Y-97100000D03*
X130500000Y-85500000D03*
X118900000Y-101325000D03*
X122000000Y-102000000D03*
X130736262Y-93849999D03*
X114675000Y-82800000D03*
X95500000Y-100500000D03*
X117400000Y-82800000D03*
X117400000Y-81725000D03*
X105500000Y-75500000D03*
X125500000Y-103000000D03*
X109500000Y-113700000D03*
X95500000Y-95500000D03*
X105500000Y-105500000D03*
X111500000Y-112500000D03*
X120500000Y-80500000D03*
X135500000Y-110500000D03*
X121500000Y-112050003D03*
X124000000Y-103900000D03*
X120449997Y-94800000D03*
X111100000Y-97000000D03*
X125700000Y-89850000D03*
X121200000Y-94800000D03*
X122300000Y-109700000D03*
X120700000Y-109700000D03*
X112500000Y-84700000D03*
X111100000Y-96200000D03*
X97400002Y-103808871D03*
X119799582Y-96300000D03*
X116507512Y-99796921D03*
X113800000Y-91100000D03*
X121800000Y-91300000D03*
X130050002Y-95500000D03*
X125504412Y-101025000D03*
X110833006Y-97878563D03*
X122549996Y-91303104D03*
X116325000Y-81700000D03*
X110075000Y-92600000D03*
X101425000Y-103000000D03*
X118700000Y-98900000D03*
X131500000Y-102100000D03*
X129500000Y-102100000D03*
X115075000Y-100800000D03*
X115525000Y-78100000D03*
X124950003Y-91300000D03*
X132500000Y-101100000D03*
X129500000Y-101100000D03*
X118999999Y-92000000D03*
X128500000Y-103100000D03*
X131500000Y-100100000D03*
X132500000Y-103100000D03*
X112000000Y-92062500D03*
X133500000Y-101100000D03*
X116325000Y-80600000D03*
X128500000Y-100925000D03*
X133500000Y-100100000D03*
X133500000Y-102100000D03*
X131500000Y-101100000D03*
X129500000Y-103100000D03*
X116325000Y-82800000D03*
X130500000Y-101100000D03*
X132500000Y-100100000D03*
X117900000Y-85600000D03*
X132500000Y-102100000D03*
X131500000Y-103100000D03*
X129500000Y-100100000D03*
X110075000Y-91000000D03*
X130500000Y-102100000D03*
X109218750Y-98700000D03*
X130500000Y-100100000D03*
X133500000Y-103100000D03*
X117700000Y-83800000D03*
X114611091Y-89488909D03*
X117900000Y-86900000D03*
X115200000Y-90200000D03*
X121200000Y-93500000D03*
X118200000Y-90115687D03*
X128175000Y-97325002D03*
X112350000Y-101400000D03*
X115000000Y-104200006D03*
X128300000Y-91300000D03*
X119799582Y-97424999D03*
X119799582Y-99300000D03*
X124925000Y-99305653D03*
X112850000Y-103450003D03*
X122741776Y-99855653D03*
X115000000Y-103450003D03*
X120499997Y-90200000D03*
X116375000Y-100543042D03*
X127500000Y-91300000D03*
X125700006Y-91300000D03*
X116203526Y-101273179D03*
X120500000Y-89449998D03*
X121916806Y-99855653D03*
X112850000Y-102700000D03*
X115000000Y-102700000D03*
X117806410Y-89406410D03*
X116200000Y-89400000D03*
X113100000Y-85600000D03*
X117650000Y-90625588D03*
D43*
X114500000Y-115150000D03*
X112499999Y-115150000D03*
X110500000Y-115150000D03*
X108500000Y-115150000D03*
X106500000Y-115150000D03*
X104500000Y-115150000D03*
X118500000Y-75850000D03*
X116499999Y-75850000D03*
X114500000Y-75850000D03*
X112500000Y-75850000D03*
X128600000Y-80000000D03*
X129302944Y-78302944D03*
X129302944Y-81697056D03*
X131000000Y-77600000D03*
X131000000Y-80000000D03*
X131000000Y-82400000D03*
X132697056Y-78302944D03*
X132697056Y-81697056D03*
X133400000Y-80000000D03*
X97600000Y-94200000D03*
X97600000Y-96740000D03*
X118610000Y-109845000D03*
X124390000Y-109845000D03*
D44*
X117180000Y-109345000D03*
D45*
X117180000Y-113525000D03*
D44*
X125820000Y-109345000D03*
D45*
X125820000Y-113525000D03*
D43*
X97600000Y-80000000D03*
X98302944Y-78302944D03*
X98302944Y-81697056D03*
X100000000Y-77600000D03*
X100000000Y-80000000D03*
X100000000Y-82400000D03*
X101697056Y-78302944D03*
X101697056Y-81697056D03*
X102400000Y-80000000D03*
X133140000Y-94170000D03*
X135300000Y-99250000D03*
X135300000Y-96710000D03*
X135300000Y-94170001D03*
X135300000Y-91630000D03*
X128600000Y-111000000D03*
X129302944Y-109302944D03*
X129302944Y-112697056D03*
X131000000Y-108600000D03*
X131000000Y-111000000D03*
X131000000Y-113400000D03*
X132697056Y-109302944D03*
X132697056Y-112697056D03*
X133400000Y-111000000D03*
X97600000Y-111000000D03*
X98302944Y-109302944D03*
X98302944Y-112697056D03*
X100000000Y-108600000D03*
X100000000Y-111000000D03*
X100000000Y-113400000D03*
X101697056Y-109302944D03*
X101697056Y-112697056D03*
X102400000Y-111000000D03*
D42*
X123700000Y-96575000D03*
X125566667Y-96575000D03*
X127433333Y-96575000D03*
X129300000Y-96575000D03*
X123700000Y-94425000D03*
X125566667Y-94425000D03*
X127433333Y-94425000D03*
X129300000Y-94425000D03*
M02*
