%TF.GenerationSoftware,KiCad,Pcbnew,8.0.4*%
%TF.CreationDate,2024-08-28T16:39:45+02:00*%
%TF.ProjectId,stepper_driver_PCB,73746570-7065-4725-9f64-72697665725f,rev?*%
%TF.SameCoordinates,Original*%
%TF.FileFunction,Legend,Top*%
%TF.FilePolarity,Positive*%
%FSLAX46Y46*%
G04 Gerber Fmt 4.6, Leading zero omitted, Abs format (unit mm)*
G04 Created by KiCad (PCBNEW 8.0.4) date 2024-08-28 16:39:45*
%MOMM*%
%LPD*%
G01*
G04 APERTURE LIST*
%ADD10C,0.250000*%
%ADD11C,0.200000*%
%ADD12C,0.150000*%
%ADD13C,0.100000*%
%ADD14C,0.120000*%
%ADD15C,0.350000*%
%ADD16O,0.600000X1.700000*%
%ADD17O,0.600000X1.200000*%
%ADD18C,0.300000*%
G04 APERTURE END LIST*
D10*
G36*
X130980384Y-95281116D02*
G01*
X131008839Y-95309572D01*
X131043714Y-95379320D01*
X131043714Y-95681955D01*
X130665142Y-95681955D01*
X130665142Y-95379320D01*
X130700016Y-95309571D01*
X130728473Y-95281115D01*
X130798222Y-95246241D01*
X130910634Y-95246241D01*
X130980384Y-95281116D01*
G37*
G36*
X130980384Y-94081116D02*
G01*
X131008839Y-94109572D01*
X131043714Y-94179320D01*
X131043714Y-94481955D01*
X130665142Y-94481955D01*
X130665142Y-94179320D01*
X130700016Y-94109571D01*
X130728473Y-94081115D01*
X130798222Y-94046241D01*
X130910634Y-94046241D01*
X130980384Y-94081116D01*
G37*
G36*
X130980384Y-91795402D02*
G01*
X131008839Y-91823858D01*
X131043714Y-91893606D01*
X131043714Y-92196241D01*
X130665142Y-92196241D01*
X130665142Y-91893606D01*
X130700016Y-91823857D01*
X130728473Y-91795401D01*
X130798222Y-91760527D01*
X130910634Y-91760527D01*
X130980384Y-91795402D01*
G37*
G36*
X131998475Y-99265288D02*
G01*
X130281809Y-99265288D01*
X130281809Y-98492669D01*
X130415142Y-98492669D01*
X130415142Y-98778384D01*
X130417544Y-98802770D01*
X130419262Y-98806918D01*
X130419581Y-98811400D01*
X130428339Y-98834286D01*
X130485482Y-98948571D01*
X130492090Y-98959069D01*
X130493352Y-98962115D01*
X130496165Y-98965543D01*
X130498536Y-98969309D01*
X130501033Y-98971475D01*
X130508897Y-98981057D01*
X130566039Y-99038200D01*
X130575627Y-99046069D01*
X130577789Y-99048561D01*
X130581546Y-99050926D01*
X130584981Y-99053745D01*
X130588031Y-99055008D01*
X130598526Y-99061615D01*
X130712813Y-99118759D01*
X130735698Y-99127516D01*
X130740179Y-99127834D01*
X130744328Y-99129553D01*
X130768714Y-99131955D01*
X130883000Y-99131955D01*
X130907386Y-99129553D01*
X130911534Y-99127834D01*
X130916016Y-99127516D01*
X130938902Y-99118758D01*
X131053187Y-99061615D01*
X131063685Y-99055006D01*
X131066731Y-99053745D01*
X131070159Y-99050931D01*
X131073925Y-99048561D01*
X131076091Y-99046063D01*
X131085673Y-99038200D01*
X131142816Y-98981058D01*
X131150685Y-98971469D01*
X131153177Y-98969308D01*
X131155542Y-98965550D01*
X131158361Y-98962116D01*
X131159624Y-98959065D01*
X131166231Y-98948571D01*
X131223374Y-98834286D01*
X131224057Y-98832500D01*
X131224594Y-98831776D01*
X131228249Y-98821546D01*
X131232132Y-98811400D01*
X131232195Y-98810500D01*
X131232839Y-98808701D01*
X131286654Y-98593439D01*
X131328588Y-98509571D01*
X131357045Y-98481115D01*
X131426793Y-98446241D01*
X131482063Y-98446241D01*
X131551813Y-98481116D01*
X131580267Y-98509571D01*
X131615142Y-98579320D01*
X131615142Y-98815243D01*
X131564414Y-98967427D01*
X131558982Y-98991321D01*
X131562439Y-99039971D01*
X131584251Y-99083595D01*
X131621097Y-99115550D01*
X131667366Y-99130973D01*
X131716016Y-99127516D01*
X131759640Y-99105704D01*
X131791595Y-99068858D01*
X131801586Y-99046483D01*
X131858728Y-98875055D01*
X131861477Y-98862961D01*
X131862740Y-98859913D01*
X131863175Y-98855491D01*
X131864160Y-98851161D01*
X131863926Y-98847870D01*
X131865142Y-98835527D01*
X131865142Y-98549812D01*
X131862740Y-98525426D01*
X131861021Y-98521276D01*
X131860703Y-98516796D01*
X131851945Y-98493910D01*
X131794804Y-98379626D01*
X131788195Y-98369126D01*
X131786933Y-98366080D01*
X131784117Y-98362649D01*
X131781750Y-98358888D01*
X131779254Y-98356723D01*
X131771388Y-98347138D01*
X131714245Y-98289996D01*
X131704659Y-98282129D01*
X131702496Y-98279635D01*
X131698734Y-98277267D01*
X131695303Y-98274451D01*
X131692255Y-98273188D01*
X131681759Y-98266581D01*
X131567473Y-98209438D01*
X131544587Y-98200680D01*
X131540105Y-98200361D01*
X131535957Y-98198643D01*
X131511571Y-98196241D01*
X131397285Y-98196241D01*
X131372899Y-98198643D01*
X131368750Y-98200361D01*
X131364269Y-98200680D01*
X131341383Y-98209438D01*
X131227098Y-98266581D01*
X131216603Y-98273187D01*
X131213553Y-98274451D01*
X131210118Y-98277269D01*
X131206361Y-98279635D01*
X131204199Y-98282126D01*
X131194611Y-98289996D01*
X131137469Y-98347139D01*
X131129605Y-98356720D01*
X131127108Y-98358887D01*
X131124737Y-98362652D01*
X131121924Y-98366081D01*
X131120662Y-98369126D01*
X131114054Y-98379625D01*
X131056911Y-98493910D01*
X131056228Y-98495693D01*
X131055691Y-98496419D01*
X131052032Y-98506656D01*
X131048153Y-98516796D01*
X131048089Y-98517695D01*
X131047446Y-98519495D01*
X130993630Y-98734756D01*
X130951696Y-98818623D01*
X130923240Y-98847080D01*
X130853492Y-98881955D01*
X130798222Y-98881955D01*
X130728473Y-98847080D01*
X130700016Y-98818624D01*
X130665142Y-98748875D01*
X130665142Y-98512953D01*
X130715870Y-98360770D01*
X130721303Y-98336876D01*
X130717846Y-98288226D01*
X130696034Y-98244602D01*
X130659189Y-98212646D01*
X130612919Y-98197223D01*
X130564270Y-98200680D01*
X130520645Y-98222492D01*
X130488690Y-98259337D01*
X130478700Y-98281712D01*
X130421557Y-98453140D01*
X130418807Y-98465233D01*
X130417544Y-98468283D01*
X130417108Y-98472704D01*
X130416124Y-98477034D01*
X130416357Y-98480325D01*
X130415142Y-98492669D01*
X130281809Y-98492669D01*
X130281809Y-97292670D01*
X130415142Y-97292670D01*
X130415142Y-97978384D01*
X130417544Y-98002770D01*
X130436208Y-98047830D01*
X130470696Y-98082318D01*
X130515756Y-98100982D01*
X130564528Y-98100982D01*
X130609588Y-98082318D01*
X130644076Y-98047830D01*
X130662740Y-98002770D01*
X130665142Y-97978384D01*
X130665142Y-97760527D01*
X131740142Y-97760527D01*
X131764528Y-97758125D01*
X131809588Y-97739461D01*
X131844076Y-97704973D01*
X131862740Y-97659913D01*
X131862740Y-97611141D01*
X131844076Y-97566081D01*
X131809588Y-97531593D01*
X131764528Y-97512929D01*
X131740142Y-97510527D01*
X130665142Y-97510527D01*
X130665142Y-97292670D01*
X130662740Y-97268284D01*
X130644076Y-97223224D01*
X130609588Y-97188736D01*
X130564528Y-97170072D01*
X130515756Y-97170072D01*
X130470696Y-97188736D01*
X130436208Y-97223224D01*
X130417544Y-97268284D01*
X130415142Y-97292670D01*
X130281809Y-97292670D01*
X130281809Y-96321241D01*
X130415142Y-96321241D01*
X130415142Y-96892669D01*
X130417544Y-96917055D01*
X130436208Y-96962115D01*
X130470696Y-96996603D01*
X130515756Y-97015267D01*
X130540142Y-97017669D01*
X131740142Y-97017669D01*
X131764528Y-97015267D01*
X131809588Y-96996603D01*
X131844076Y-96962115D01*
X131862740Y-96917055D01*
X131865142Y-96892669D01*
X131865142Y-96321241D01*
X131862740Y-96296855D01*
X131844076Y-96251795D01*
X131809588Y-96217307D01*
X131764528Y-96198643D01*
X131715756Y-96198643D01*
X131670696Y-96217307D01*
X131636208Y-96251795D01*
X131617544Y-96296855D01*
X131615142Y-96321241D01*
X131615142Y-96767669D01*
X131236571Y-96767669D01*
X131236571Y-96492669D01*
X131234169Y-96468283D01*
X131215505Y-96423223D01*
X131181017Y-96388735D01*
X131135957Y-96370071D01*
X131087185Y-96370071D01*
X131042125Y-96388735D01*
X131007637Y-96423223D01*
X130988973Y-96468283D01*
X130986571Y-96492669D01*
X130986571Y-96767669D01*
X130665142Y-96767669D01*
X130665142Y-96321241D01*
X130662740Y-96296855D01*
X130644076Y-96251795D01*
X130609588Y-96217307D01*
X130564528Y-96198643D01*
X130515756Y-96198643D01*
X130470696Y-96217307D01*
X130436208Y-96251795D01*
X130417544Y-96296855D01*
X130415142Y-96321241D01*
X130281809Y-96321241D01*
X130281809Y-95349812D01*
X130415142Y-95349812D01*
X130415142Y-95806955D01*
X130417544Y-95831341D01*
X130436208Y-95876401D01*
X130470696Y-95910889D01*
X130515756Y-95929553D01*
X130540142Y-95931955D01*
X131740142Y-95931955D01*
X131764528Y-95929553D01*
X131809588Y-95910889D01*
X131844076Y-95876401D01*
X131862740Y-95831341D01*
X131862740Y-95782569D01*
X131844076Y-95737509D01*
X131809588Y-95703021D01*
X131764528Y-95684357D01*
X131740142Y-95681955D01*
X131293714Y-95681955D01*
X131293714Y-95349812D01*
X131291312Y-95325426D01*
X131289593Y-95321277D01*
X131289275Y-95316796D01*
X131280517Y-95293910D01*
X131223374Y-95179625D01*
X131216767Y-95169130D01*
X131215504Y-95166080D01*
X131212685Y-95162645D01*
X131210320Y-95158888D01*
X131207828Y-95156726D01*
X131199959Y-95147138D01*
X131142816Y-95089996D01*
X131133230Y-95082129D01*
X131131067Y-95079635D01*
X131127305Y-95077267D01*
X131123874Y-95074451D01*
X131120826Y-95073188D01*
X131110330Y-95066581D01*
X130996044Y-95009438D01*
X130973158Y-95000680D01*
X130968676Y-95000361D01*
X130964528Y-94998643D01*
X130940142Y-94996241D01*
X130768714Y-94996241D01*
X130744328Y-94998643D01*
X130740179Y-95000361D01*
X130735698Y-95000680D01*
X130712813Y-95009437D01*
X130598526Y-95066581D01*
X130588031Y-95073187D01*
X130584981Y-95074451D01*
X130581546Y-95077269D01*
X130577789Y-95079635D01*
X130575627Y-95082126D01*
X130566039Y-95089996D01*
X130508897Y-95147139D01*
X130501033Y-95156720D01*
X130498536Y-95158887D01*
X130496165Y-95162652D01*
X130493352Y-95166081D01*
X130492090Y-95169126D01*
X130485482Y-95179625D01*
X130428339Y-95293910D01*
X130419581Y-95316796D01*
X130419262Y-95321277D01*
X130417544Y-95325426D01*
X130415142Y-95349812D01*
X130281809Y-95349812D01*
X130281809Y-94149812D01*
X130415142Y-94149812D01*
X130415142Y-94606955D01*
X130417544Y-94631341D01*
X130436208Y-94676401D01*
X130470696Y-94710889D01*
X130515756Y-94729553D01*
X130540142Y-94731955D01*
X131740142Y-94731955D01*
X131764528Y-94729553D01*
X131809588Y-94710889D01*
X131844076Y-94676401D01*
X131862740Y-94631341D01*
X131862740Y-94582569D01*
X131844076Y-94537509D01*
X131809588Y-94503021D01*
X131764528Y-94484357D01*
X131740142Y-94481955D01*
X131293714Y-94481955D01*
X131293714Y-94149812D01*
X131291312Y-94125426D01*
X131289593Y-94121277D01*
X131289275Y-94116796D01*
X131280517Y-94093910D01*
X131223374Y-93979625D01*
X131216767Y-93969130D01*
X131215504Y-93966080D01*
X131212685Y-93962645D01*
X131210320Y-93958888D01*
X131207828Y-93956726D01*
X131199959Y-93947138D01*
X131142816Y-93889996D01*
X131133230Y-93882129D01*
X131131067Y-93879635D01*
X131127305Y-93877267D01*
X131123874Y-93874451D01*
X131120826Y-93873188D01*
X131110330Y-93866581D01*
X130996044Y-93809438D01*
X130973158Y-93800680D01*
X130968676Y-93800361D01*
X130964528Y-93798643D01*
X130940142Y-93796241D01*
X130768714Y-93796241D01*
X130744328Y-93798643D01*
X130740179Y-93800361D01*
X130735698Y-93800680D01*
X130712813Y-93809437D01*
X130598526Y-93866581D01*
X130588031Y-93873187D01*
X130584981Y-93874451D01*
X130581546Y-93877269D01*
X130577789Y-93879635D01*
X130575627Y-93882126D01*
X130566039Y-93889996D01*
X130508897Y-93947139D01*
X130501033Y-93956720D01*
X130498536Y-93958887D01*
X130496165Y-93962652D01*
X130493352Y-93966081D01*
X130492090Y-93969126D01*
X130485482Y-93979625D01*
X130428339Y-94093910D01*
X130419581Y-94116796D01*
X130419262Y-94121277D01*
X130417544Y-94125426D01*
X130415142Y-94149812D01*
X130281809Y-94149812D01*
X130281809Y-92835527D01*
X130415142Y-92835527D01*
X130415142Y-93406955D01*
X130417544Y-93431341D01*
X130436208Y-93476401D01*
X130470696Y-93510889D01*
X130515756Y-93529553D01*
X130540142Y-93531955D01*
X131740142Y-93531955D01*
X131764528Y-93529553D01*
X131809588Y-93510889D01*
X131844076Y-93476401D01*
X131862740Y-93431341D01*
X131865142Y-93406955D01*
X131865142Y-92835527D01*
X131862740Y-92811141D01*
X131844076Y-92766081D01*
X131809588Y-92731593D01*
X131764528Y-92712929D01*
X131715756Y-92712929D01*
X131670696Y-92731593D01*
X131636208Y-92766081D01*
X131617544Y-92811141D01*
X131615142Y-92835527D01*
X131615142Y-93281955D01*
X131236571Y-93281955D01*
X131236571Y-93006955D01*
X131234169Y-92982569D01*
X131215505Y-92937509D01*
X131181017Y-92903021D01*
X131135957Y-92884357D01*
X131087185Y-92884357D01*
X131042125Y-92903021D01*
X131007637Y-92937509D01*
X130988973Y-92982569D01*
X130986571Y-93006955D01*
X130986571Y-93281955D01*
X130665142Y-93281955D01*
X130665142Y-92835527D01*
X130662740Y-92811141D01*
X130644076Y-92766081D01*
X130609588Y-92731593D01*
X130564528Y-92712929D01*
X130515756Y-92712929D01*
X130470696Y-92731593D01*
X130436208Y-92766081D01*
X130417544Y-92811141D01*
X130415142Y-92835527D01*
X130281809Y-92835527D01*
X130281809Y-91864098D01*
X130415142Y-91864098D01*
X130415142Y-92321241D01*
X130417544Y-92345627D01*
X130436208Y-92390687D01*
X130470696Y-92425175D01*
X130515756Y-92443839D01*
X130540142Y-92446241D01*
X131740142Y-92446241D01*
X131764528Y-92443839D01*
X131809588Y-92425175D01*
X131844076Y-92390687D01*
X131862740Y-92345627D01*
X131862740Y-92296855D01*
X131844076Y-92251795D01*
X131809588Y-92217307D01*
X131764528Y-92198643D01*
X131740142Y-92196241D01*
X131293714Y-92196241D01*
X131293714Y-92100609D01*
X131811825Y-91737931D01*
X131830425Y-91721979D01*
X131856637Y-91680848D01*
X131865113Y-91632817D01*
X131854563Y-91585199D01*
X131826594Y-91545244D01*
X131785463Y-91519032D01*
X131737432Y-91510556D01*
X131689814Y-91521106D01*
X131668459Y-91533123D01*
X131279215Y-91805593D01*
X131223374Y-91693911D01*
X131216767Y-91683416D01*
X131215504Y-91680366D01*
X131212685Y-91676931D01*
X131210320Y-91673174D01*
X131207828Y-91671012D01*
X131199959Y-91661424D01*
X131142816Y-91604282D01*
X131133230Y-91596415D01*
X131131067Y-91593921D01*
X131127305Y-91591553D01*
X131123874Y-91588737D01*
X131120826Y-91587474D01*
X131110330Y-91580867D01*
X130996044Y-91523724D01*
X130973158Y-91514966D01*
X130968676Y-91514647D01*
X130964528Y-91512929D01*
X130940142Y-91510527D01*
X130768714Y-91510527D01*
X130744328Y-91512929D01*
X130740179Y-91514647D01*
X130735698Y-91514966D01*
X130712813Y-91523723D01*
X130598526Y-91580867D01*
X130588031Y-91587473D01*
X130584981Y-91588737D01*
X130581546Y-91591555D01*
X130577789Y-91593921D01*
X130575627Y-91596412D01*
X130566039Y-91604282D01*
X130508897Y-91661425D01*
X130501033Y-91671006D01*
X130498536Y-91673173D01*
X130496165Y-91676938D01*
X130493352Y-91680367D01*
X130492090Y-91683412D01*
X130485482Y-91693911D01*
X130428339Y-91808196D01*
X130419581Y-91831082D01*
X130419262Y-91835563D01*
X130417544Y-91839712D01*
X130415142Y-91864098D01*
X130281809Y-91864098D01*
X130281809Y-91377194D01*
X131998475Y-91377194D01*
X131998475Y-99265288D01*
G37*
G36*
X103854714Y-101864970D02*
G01*
X103911125Y-101921381D01*
X103946615Y-102063341D01*
X103946615Y-102365896D01*
X103911125Y-102507855D01*
X103854711Y-102564269D01*
X103804012Y-102589619D01*
X103672553Y-102589619D01*
X103621852Y-102564268D01*
X103565438Y-102507855D01*
X103529949Y-102365896D01*
X103529949Y-102063341D01*
X103565439Y-101921381D01*
X103621849Y-101864970D01*
X103672553Y-101839619D01*
X103804012Y-101839619D01*
X103854714Y-101864970D01*
G37*
G36*
X106949951Y-101864969D02*
G01*
X106968883Y-101883902D01*
X106994234Y-101934603D01*
X106994234Y-102018443D01*
X106968883Y-102069144D01*
X106949951Y-102088077D01*
X106899250Y-102113428D01*
X106672806Y-102113428D01*
X106672806Y-101839619D01*
X106899250Y-101839619D01*
X106949951Y-101864969D01*
G37*
G36*
X102854713Y-101864969D02*
G01*
X102873645Y-101883902D01*
X102898996Y-101934603D01*
X102898996Y-102018443D01*
X102873645Y-102069144D01*
X102854713Y-102088077D01*
X102804012Y-102113428D01*
X102577568Y-102113428D01*
X102577568Y-101839619D01*
X102804012Y-101839619D01*
X102854713Y-101864969D01*
G37*
G36*
X107369234Y-102964619D02*
G01*
X102202568Y-102964619D01*
X102202568Y-101714619D01*
X102327568Y-101714619D01*
X102327568Y-102714619D01*
X102329970Y-102739005D01*
X102348634Y-102784065D01*
X102383122Y-102818553D01*
X102428182Y-102837217D01*
X102476954Y-102837217D01*
X102522014Y-102818553D01*
X102556502Y-102784065D01*
X102575166Y-102739005D01*
X102577568Y-102714619D01*
X102577568Y-102363428D01*
X102833520Y-102363428D01*
X102857906Y-102361026D01*
X102862054Y-102359307D01*
X102866536Y-102358989D01*
X102889422Y-102350231D01*
X102984659Y-102302613D01*
X102995157Y-102296003D01*
X102998204Y-102294742D01*
X103001635Y-102291926D01*
X103005397Y-102289558D01*
X103007560Y-102287063D01*
X103017146Y-102279197D01*
X103064765Y-102231579D01*
X103072634Y-102221990D01*
X103075126Y-102219829D01*
X103077491Y-102216071D01*
X103080310Y-102212637D01*
X103081573Y-102209586D01*
X103088180Y-102199092D01*
X103135799Y-102103854D01*
X103144557Y-102080968D01*
X103144875Y-102076487D01*
X103146594Y-102072338D01*
X103148996Y-102047952D01*
X103279949Y-102047952D01*
X103279949Y-102381285D01*
X103280368Y-102385539D01*
X103280097Y-102387361D01*
X103281446Y-102396489D01*
X103282351Y-102405671D01*
X103283055Y-102407372D01*
X103283681Y-102411602D01*
X103331300Y-102602078D01*
X103339545Y-102625153D01*
X103345077Y-102632619D01*
X103348634Y-102641207D01*
X103364179Y-102660149D01*
X103459417Y-102755388D01*
X103469005Y-102763257D01*
X103471167Y-102765749D01*
X103474924Y-102768114D01*
X103478359Y-102770933D01*
X103481409Y-102772196D01*
X103491904Y-102778803D01*
X103587142Y-102826422D01*
X103610028Y-102835180D01*
X103614508Y-102835498D01*
X103618658Y-102837217D01*
X103643044Y-102839619D01*
X103833520Y-102839619D01*
X103857906Y-102837217D01*
X103862054Y-102835498D01*
X103866536Y-102835180D01*
X103889422Y-102826422D01*
X103984659Y-102778804D01*
X103995155Y-102772196D01*
X103998205Y-102770933D01*
X104001639Y-102768114D01*
X104005397Y-102765749D01*
X104007558Y-102763257D01*
X104017147Y-102755388D01*
X104112385Y-102660149D01*
X104127930Y-102641207D01*
X104131487Y-102632618D01*
X104137019Y-102625153D01*
X104145264Y-102602078D01*
X104192883Y-102411602D01*
X104193508Y-102407372D01*
X104194213Y-102405671D01*
X104195117Y-102396491D01*
X104196467Y-102387362D01*
X104196195Y-102385539D01*
X104196615Y-102381285D01*
X104196615Y-102047952D01*
X104196195Y-102043697D01*
X104196467Y-102041875D01*
X104195117Y-102032745D01*
X104194213Y-102023566D01*
X104193508Y-102021864D01*
X104192883Y-102017635D01*
X104145264Y-101827159D01*
X104137019Y-101804084D01*
X104131485Y-101796615D01*
X104127929Y-101788030D01*
X104112384Y-101769088D01*
X104062588Y-101719292D01*
X104280037Y-101719292D01*
X104283348Y-101743572D01*
X104521443Y-102743572D01*
X104524327Y-102751940D01*
X104524726Y-102754940D01*
X104526296Y-102757652D01*
X104529428Y-102766738D01*
X104540070Y-102781444D01*
X104549163Y-102797150D01*
X104554257Y-102801049D01*
X104558021Y-102806250D01*
X104573485Y-102815766D01*
X104587893Y-102826794D01*
X104594091Y-102828447D01*
X104599560Y-102831812D01*
X104617482Y-102834684D01*
X104635018Y-102839361D01*
X104641381Y-102838515D01*
X104647717Y-102839531D01*
X104665371Y-102835327D01*
X104683365Y-102832937D01*
X104688918Y-102829721D01*
X104695163Y-102828235D01*
X104709869Y-102817592D01*
X104725575Y-102808500D01*
X104729474Y-102803405D01*
X104734675Y-102799642D01*
X104744191Y-102784177D01*
X104755219Y-102769770D01*
X104758591Y-102760776D01*
X104760237Y-102758103D01*
X104760716Y-102755109D01*
X104763823Y-102746827D01*
X104833519Y-102485462D01*
X104903217Y-102746827D01*
X104906323Y-102755110D01*
X104906803Y-102758103D01*
X104908447Y-102760775D01*
X104911821Y-102769771D01*
X104922852Y-102784183D01*
X104932365Y-102799641D01*
X104937563Y-102803403D01*
X104941465Y-102808500D01*
X104957175Y-102817595D01*
X104971877Y-102828235D01*
X104978118Y-102829720D01*
X104983675Y-102832938D01*
X105001674Y-102835329D01*
X105019323Y-102839531D01*
X105025658Y-102838515D01*
X105032022Y-102839361D01*
X105049558Y-102834684D01*
X105067480Y-102831812D01*
X105072947Y-102828447D01*
X105079148Y-102826794D01*
X105093560Y-102815762D01*
X105109018Y-102806250D01*
X105112780Y-102801051D01*
X105117877Y-102797150D01*
X105126971Y-102781440D01*
X105137612Y-102766738D01*
X105140742Y-102757654D01*
X105142314Y-102754941D01*
X105142712Y-102751939D01*
X105145597Y-102743572D01*
X105383693Y-101743572D01*
X105387004Y-101719293D01*
X105386255Y-101714619D01*
X105518044Y-101714619D01*
X105518044Y-102714619D01*
X105520446Y-102739005D01*
X105539110Y-102784065D01*
X105573598Y-102818553D01*
X105618658Y-102837217D01*
X105643044Y-102839619D01*
X106119234Y-102839619D01*
X106143620Y-102837217D01*
X106188680Y-102818553D01*
X106223168Y-102784065D01*
X106241832Y-102739005D01*
X106241832Y-102690233D01*
X106223168Y-102645173D01*
X106188680Y-102610685D01*
X106143620Y-102592021D01*
X106119234Y-102589619D01*
X105768044Y-102589619D01*
X105768044Y-102315809D01*
X105976377Y-102315809D01*
X106000763Y-102313407D01*
X106045823Y-102294743D01*
X106080311Y-102260255D01*
X106098975Y-102215195D01*
X106098975Y-102166423D01*
X106080311Y-102121363D01*
X106045823Y-102086875D01*
X106000763Y-102068211D01*
X105976377Y-102065809D01*
X105768044Y-102065809D01*
X105768044Y-101839619D01*
X106119234Y-101839619D01*
X106143620Y-101837217D01*
X106188680Y-101818553D01*
X106223168Y-101784065D01*
X106241832Y-101739005D01*
X106241832Y-101714619D01*
X106422806Y-101714619D01*
X106422806Y-102714619D01*
X106425208Y-102739005D01*
X106443872Y-102784065D01*
X106478360Y-102818553D01*
X106523420Y-102837217D01*
X106572192Y-102837217D01*
X106617252Y-102818553D01*
X106651740Y-102784065D01*
X106670404Y-102739005D01*
X106672806Y-102714619D01*
X106672806Y-102363428D01*
X106720819Y-102363428D01*
X107016830Y-102786302D01*
X107032782Y-102804902D01*
X107073913Y-102831114D01*
X107121944Y-102839590D01*
X107169562Y-102829040D01*
X107209517Y-102801071D01*
X107235729Y-102759941D01*
X107244205Y-102711909D01*
X107233655Y-102664292D01*
X107221638Y-102642936D01*
X107008426Y-102338347D01*
X107079897Y-102302613D01*
X107090395Y-102296003D01*
X107093442Y-102294742D01*
X107096873Y-102291926D01*
X107100635Y-102289558D01*
X107102798Y-102287063D01*
X107112384Y-102279197D01*
X107160003Y-102231579D01*
X107167872Y-102221990D01*
X107170364Y-102219829D01*
X107172729Y-102216071D01*
X107175548Y-102212637D01*
X107176811Y-102209586D01*
X107183418Y-102199092D01*
X107231037Y-102103854D01*
X107239795Y-102080968D01*
X107240113Y-102076487D01*
X107241832Y-102072338D01*
X107244234Y-102047952D01*
X107244234Y-101905095D01*
X107241832Y-101880709D01*
X107240113Y-101876559D01*
X107239795Y-101872079D01*
X107231037Y-101849193D01*
X107183418Y-101753955D01*
X107176811Y-101743460D01*
X107175548Y-101740410D01*
X107172729Y-101736975D01*
X107170364Y-101733218D01*
X107167872Y-101731056D01*
X107160003Y-101721468D01*
X107112384Y-101673850D01*
X107102798Y-101665983D01*
X107100635Y-101663489D01*
X107096873Y-101661120D01*
X107093442Y-101658305D01*
X107090395Y-101657043D01*
X107079897Y-101650434D01*
X106984660Y-101602816D01*
X106961774Y-101594058D01*
X106957292Y-101593739D01*
X106953144Y-101592021D01*
X106928758Y-101589619D01*
X106547806Y-101589619D01*
X106523420Y-101592021D01*
X106478360Y-101610685D01*
X106443872Y-101645173D01*
X106425208Y-101690233D01*
X106422806Y-101714619D01*
X106241832Y-101714619D01*
X106241832Y-101690233D01*
X106223168Y-101645173D01*
X106188680Y-101610685D01*
X106143620Y-101592021D01*
X106119234Y-101589619D01*
X105643044Y-101589619D01*
X105618658Y-101592021D01*
X105573598Y-101610685D01*
X105539110Y-101645173D01*
X105520446Y-101690233D01*
X105518044Y-101714619D01*
X105386255Y-101714619D01*
X105379285Y-101671135D01*
X105353723Y-101629597D01*
X105314211Y-101601003D01*
X105266765Y-101589707D01*
X105218608Y-101597426D01*
X105177070Y-101622988D01*
X105148476Y-101662500D01*
X105140491Y-101685666D01*
X105017134Y-102203760D01*
X104954299Y-101968125D01*
X104952157Y-101962414D01*
X104951838Y-101960011D01*
X104950186Y-101957157D01*
X104945695Y-101945182D01*
X104935669Y-101932083D01*
X104927401Y-101917802D01*
X104920971Y-101912880D01*
X104916051Y-101906452D01*
X104901773Y-101898186D01*
X104888672Y-101888158D01*
X104880847Y-101886071D01*
X104873841Y-101882015D01*
X104857487Y-101879842D01*
X104841546Y-101875591D01*
X104833519Y-101876657D01*
X104825494Y-101875591D01*
X104809558Y-101879840D01*
X104793199Y-101882014D01*
X104786188Y-101886072D01*
X104778369Y-101888158D01*
X104765270Y-101898183D01*
X104750989Y-101906452D01*
X104746067Y-101912881D01*
X104739639Y-101917802D01*
X104731373Y-101932079D01*
X104721345Y-101945181D01*
X104716852Y-101957161D01*
X104715202Y-101960012D01*
X104714882Y-101962413D01*
X104712741Y-101968125D01*
X104649905Y-102203759D01*
X104526550Y-101685666D01*
X104518565Y-101662500D01*
X104489972Y-101622988D01*
X104448433Y-101597426D01*
X104400276Y-101589707D01*
X104352830Y-101601003D01*
X104313318Y-101629596D01*
X104287756Y-101671135D01*
X104280037Y-101719292D01*
X104062588Y-101719292D01*
X104017146Y-101673850D01*
X104007560Y-101665983D01*
X104005397Y-101663489D01*
X104001635Y-101661120D01*
X103998204Y-101658305D01*
X103995157Y-101657043D01*
X103984659Y-101650434D01*
X103889422Y-101602816D01*
X103866536Y-101594058D01*
X103862054Y-101593739D01*
X103857906Y-101592021D01*
X103833520Y-101589619D01*
X103643044Y-101589619D01*
X103618658Y-101592021D01*
X103614508Y-101593739D01*
X103610028Y-101594058D01*
X103587142Y-101602816D01*
X103491904Y-101650435D01*
X103481407Y-101657042D01*
X103478360Y-101658305D01*
X103474928Y-101661121D01*
X103471167Y-101663489D01*
X103469003Y-101665983D01*
X103459418Y-101673850D01*
X103364180Y-101769088D01*
X103348635Y-101788030D01*
X103345078Y-101796615D01*
X103339545Y-101804084D01*
X103331300Y-101827159D01*
X103283681Y-102017635D01*
X103283055Y-102021864D01*
X103282351Y-102023566D01*
X103281446Y-102032747D01*
X103280097Y-102041876D01*
X103280368Y-102043697D01*
X103279949Y-102047952D01*
X103148996Y-102047952D01*
X103148996Y-101905095D01*
X103146594Y-101880709D01*
X103144875Y-101876559D01*
X103144557Y-101872079D01*
X103135799Y-101849193D01*
X103088180Y-101753955D01*
X103081573Y-101743460D01*
X103080310Y-101740410D01*
X103077491Y-101736975D01*
X103075126Y-101733218D01*
X103072634Y-101731056D01*
X103064765Y-101721468D01*
X103017146Y-101673850D01*
X103007560Y-101665983D01*
X103005397Y-101663489D01*
X103001635Y-101661120D01*
X102998204Y-101658305D01*
X102995157Y-101657043D01*
X102984659Y-101650434D01*
X102889422Y-101602816D01*
X102866536Y-101594058D01*
X102862054Y-101593739D01*
X102857906Y-101592021D01*
X102833520Y-101589619D01*
X102452568Y-101589619D01*
X102428182Y-101592021D01*
X102383122Y-101610685D01*
X102348634Y-101645173D01*
X102329970Y-101690233D01*
X102327568Y-101714619D01*
X102202568Y-101714619D01*
X102202568Y-101464619D01*
X107369234Y-101464619D01*
X107369234Y-102964619D01*
G37*
D11*
G36*
X110363123Y-75758249D02*
G01*
X110207922Y-75706516D01*
X110363123Y-75654782D01*
X110363123Y-75758249D01*
G37*
G36*
X110891695Y-77352215D02*
G01*
X109691695Y-77352215D01*
X109691695Y-76829865D01*
X109793616Y-76829865D01*
X109793616Y-76868883D01*
X109808548Y-76904931D01*
X109836138Y-76932521D01*
X109872186Y-76947453D01*
X109891695Y-76949374D01*
X110446896Y-76949374D01*
X110523389Y-76974871D01*
X110566197Y-77017678D01*
X110591695Y-77094172D01*
X110591695Y-77154136D01*
X110593616Y-77173645D01*
X110608548Y-77209693D01*
X110636138Y-77237283D01*
X110672186Y-77252215D01*
X110711204Y-77252215D01*
X110747252Y-77237283D01*
X110774842Y-77209693D01*
X110789774Y-77173645D01*
X110791695Y-77154136D01*
X110791695Y-77077945D01*
X110790722Y-77068071D01*
X110790910Y-77065438D01*
X110790122Y-77061974D01*
X110789774Y-77058436D01*
X110788762Y-77055993D01*
X110786563Y-77046322D01*
X110748468Y-76932037D01*
X110740477Y-76914137D01*
X110738121Y-76911421D01*
X110736747Y-76908102D01*
X110724310Y-76892949D01*
X110648120Y-76816758D01*
X110632966Y-76804322D01*
X110629647Y-76802947D01*
X110626932Y-76800592D01*
X110609032Y-76792601D01*
X110494746Y-76754506D01*
X110485074Y-76752306D01*
X110482632Y-76751295D01*
X110479093Y-76750946D01*
X110475630Y-76750159D01*
X110472996Y-76750346D01*
X110463123Y-76749374D01*
X109891695Y-76749374D01*
X109872186Y-76751295D01*
X109836138Y-76766227D01*
X109808548Y-76793817D01*
X109793616Y-76829865D01*
X109691695Y-76829865D01*
X109691695Y-76125564D01*
X109791695Y-76125564D01*
X109791695Y-76582707D01*
X109793616Y-76602216D01*
X109808548Y-76638264D01*
X109836138Y-76665854D01*
X109872186Y-76680786D01*
X109911204Y-76680786D01*
X109947252Y-76665854D01*
X109974842Y-76638264D01*
X109989774Y-76602216D01*
X109991695Y-76582707D01*
X109991695Y-76454136D01*
X110691695Y-76454136D01*
X110711204Y-76452215D01*
X110747252Y-76437283D01*
X110774842Y-76409693D01*
X110789774Y-76373645D01*
X110789774Y-76334627D01*
X110774842Y-76298579D01*
X110747252Y-76270989D01*
X110711204Y-76256057D01*
X110691695Y-76254136D01*
X109991695Y-76254136D01*
X109991695Y-76125564D01*
X109989774Y-76106055D01*
X109974842Y-76070007D01*
X109947252Y-76042417D01*
X109911204Y-76027485D01*
X109872186Y-76027485D01*
X109836138Y-76042417D01*
X109808548Y-76070007D01*
X109793616Y-76106055D01*
X109791695Y-76125564D01*
X109691695Y-76125564D01*
X109691695Y-75694009D01*
X109792480Y-75694009D01*
X109793368Y-75706516D01*
X109792480Y-75719023D01*
X109794739Y-75725801D01*
X109795246Y-75732929D01*
X109800852Y-75744140D01*
X109804818Y-75756039D01*
X109809502Y-75761439D01*
X109812696Y-75767827D01*
X109822165Y-75776040D01*
X109830383Y-75785515D01*
X109836772Y-75788709D01*
X109842172Y-75793393D01*
X109860072Y-75801384D01*
X110660072Y-76068051D01*
X110679187Y-76072398D01*
X110718107Y-76069632D01*
X110753006Y-76052182D01*
X110778571Y-76022706D01*
X110790910Y-75985690D01*
X110788144Y-75946770D01*
X110770694Y-75911871D01*
X110741218Y-75886306D01*
X110723318Y-75878315D01*
X110563123Y-75824916D01*
X110563123Y-75588116D01*
X110723318Y-75534718D01*
X110741218Y-75526727D01*
X110770695Y-75501162D01*
X110788144Y-75466263D01*
X110790910Y-75427343D01*
X110778572Y-75390327D01*
X110753007Y-75360851D01*
X110718108Y-75343401D01*
X110679188Y-75340635D01*
X110660072Y-75344982D01*
X109860072Y-75611648D01*
X109842172Y-75619639D01*
X109836771Y-75624323D01*
X109830384Y-75627517D01*
X109822170Y-75636986D01*
X109812696Y-75645204D01*
X109809501Y-75651593D01*
X109804818Y-75656993D01*
X109800852Y-75668890D01*
X109795246Y-75680103D01*
X109794739Y-75687230D01*
X109792480Y-75694009D01*
X109691695Y-75694009D01*
X109691695Y-74830326D01*
X109791695Y-74830326D01*
X109791695Y-74944612D01*
X109792667Y-74954485D01*
X109792480Y-74957119D01*
X109793267Y-74960582D01*
X109793616Y-74964121D01*
X109794627Y-74966563D01*
X109796827Y-74976235D01*
X109834922Y-75090521D01*
X109842913Y-75108421D01*
X109845268Y-75111136D01*
X109846643Y-75114455D01*
X109859079Y-75129609D01*
X109935269Y-75205799D01*
X109942938Y-75212093D01*
X109944669Y-75214088D01*
X109947676Y-75215981D01*
X109950423Y-75218235D01*
X109952862Y-75219245D01*
X109961259Y-75224531D01*
X110037450Y-75262626D01*
X110038874Y-75263171D01*
X110039456Y-75263602D01*
X110047656Y-75266531D01*
X110055759Y-75269632D01*
X110056478Y-75269683D01*
X110057917Y-75270197D01*
X110210298Y-75308293D01*
X110213679Y-75308793D01*
X110215043Y-75309358D01*
X110222391Y-75310081D01*
X110229690Y-75311161D01*
X110231148Y-75310943D01*
X110234552Y-75311279D01*
X110348838Y-75311279D01*
X110352241Y-75310943D01*
X110353700Y-75311161D01*
X110360998Y-75310081D01*
X110368347Y-75309358D01*
X110369710Y-75308793D01*
X110373092Y-75308293D01*
X110525473Y-75270197D01*
X110526911Y-75269683D01*
X110527632Y-75269632D01*
X110535742Y-75266528D01*
X110543934Y-75263602D01*
X110544515Y-75263171D01*
X110545940Y-75262626D01*
X110622130Y-75224531D01*
X110630524Y-75219247D01*
X110632966Y-75218236D01*
X110635713Y-75215981D01*
X110638721Y-75214088D01*
X110640452Y-75212091D01*
X110648119Y-75205799D01*
X110724310Y-75129609D01*
X110736747Y-75114456D01*
X110738122Y-75111136D01*
X110740477Y-75108421D01*
X110748468Y-75090521D01*
X110786563Y-74976234D01*
X110788762Y-74966563D01*
X110789774Y-74964121D01*
X110790122Y-74960581D01*
X110790910Y-74957119D01*
X110790722Y-74954485D01*
X110791695Y-74944612D01*
X110791695Y-74868421D01*
X110790722Y-74858547D01*
X110790910Y-74855914D01*
X110790122Y-74852450D01*
X110789774Y-74848912D01*
X110788762Y-74846469D01*
X110786563Y-74836798D01*
X110748468Y-74722513D01*
X110740477Y-74704613D01*
X110738121Y-74701897D01*
X110736747Y-74698579D01*
X110724311Y-74683425D01*
X110686215Y-74645329D01*
X110671061Y-74632893D01*
X110635013Y-74617961D01*
X110615504Y-74616040D01*
X110348838Y-74616040D01*
X110329329Y-74617961D01*
X110293281Y-74632893D01*
X110265691Y-74660483D01*
X110250759Y-74696531D01*
X110248838Y-74716040D01*
X110248838Y-74868421D01*
X110250759Y-74887930D01*
X110265691Y-74923978D01*
X110293281Y-74951568D01*
X110329329Y-74966500D01*
X110368347Y-74966500D01*
X110404395Y-74951568D01*
X110431985Y-74923978D01*
X110446917Y-74887930D01*
X110448838Y-74868421D01*
X110448838Y-74816040D01*
X110568826Y-74816040D01*
X110591695Y-74884648D01*
X110591695Y-74928385D01*
X110566197Y-75004879D01*
X110518174Y-75052901D01*
X110466314Y-75078831D01*
X110336528Y-75111279D01*
X110246862Y-75111279D01*
X110117074Y-75078831D01*
X110065216Y-75052902D01*
X110017192Y-75004878D01*
X109991695Y-74928385D01*
X109991695Y-74853933D01*
X110019233Y-74798857D01*
X110026239Y-74780549D01*
X110029005Y-74741629D01*
X110016666Y-74704613D01*
X109991102Y-74675136D01*
X109956203Y-74657687D01*
X109917283Y-74654921D01*
X109880267Y-74667260D01*
X109850790Y-74692824D01*
X109840347Y-74709415D01*
X109802252Y-74785605D01*
X109795246Y-74803913D01*
X109794991Y-74807496D01*
X109793616Y-74810817D01*
X109791695Y-74830326D01*
X109691695Y-74830326D01*
X109691695Y-74516040D01*
X110891695Y-74516040D01*
X110891695Y-77352215D01*
G37*
D10*
G36*
X102634857Y-98092107D02*
G01*
X102599982Y-98161855D01*
X102571527Y-98190311D01*
X102501777Y-98225187D01*
X102389365Y-98225187D01*
X102319616Y-98190312D01*
X102291159Y-98161856D01*
X102256285Y-98092107D01*
X102256285Y-97789473D01*
X102634857Y-97789473D01*
X102634857Y-98092107D01*
G37*
G36*
X102524522Y-94063057D02*
G01*
X102599982Y-94138517D01*
X102634857Y-94208266D01*
X102634857Y-94377821D01*
X102599982Y-94447570D01*
X102524522Y-94523030D01*
X102344468Y-94568044D01*
X101975246Y-94568044D01*
X101795191Y-94523030D01*
X101719730Y-94447569D01*
X101684857Y-94377821D01*
X101684857Y-94208266D01*
X101719730Y-94138518D01*
X101795191Y-94063057D01*
X101975246Y-94018044D01*
X102344468Y-94018044D01*
X102524522Y-94063057D01*
G37*
G36*
X102634857Y-93177821D02*
G01*
X102599982Y-93247569D01*
X102571527Y-93276025D01*
X102501777Y-93310901D01*
X102389365Y-93310901D01*
X102319616Y-93276026D01*
X102291159Y-93247570D01*
X102256285Y-93177821D01*
X102256285Y-92875187D01*
X102634857Y-92875187D01*
X102634857Y-93177821D01*
G37*
G36*
X103018190Y-98608520D02*
G01*
X101301524Y-98608520D01*
X101301524Y-98352897D01*
X101434886Y-98352897D01*
X101445436Y-98400515D01*
X101473405Y-98440470D01*
X101514536Y-98466682D01*
X101562567Y-98475158D01*
X101610185Y-98464608D01*
X101631540Y-98452591D01*
X102020783Y-98180120D01*
X102076625Y-98291803D01*
X102083233Y-98302301D01*
X102084495Y-98305347D01*
X102087308Y-98308775D01*
X102089679Y-98312541D01*
X102092176Y-98314707D01*
X102100040Y-98324289D01*
X102157182Y-98381432D01*
X102166770Y-98389301D01*
X102168932Y-98391793D01*
X102172689Y-98394158D01*
X102176124Y-98396977D01*
X102179174Y-98398240D01*
X102189669Y-98404847D01*
X102303956Y-98461991D01*
X102326841Y-98470748D01*
X102331322Y-98471066D01*
X102335471Y-98472785D01*
X102359857Y-98475187D01*
X102531285Y-98475187D01*
X102555671Y-98472785D01*
X102559819Y-98471066D01*
X102564301Y-98470748D01*
X102587187Y-98461990D01*
X102701473Y-98404847D01*
X102711969Y-98398239D01*
X102715017Y-98396977D01*
X102718448Y-98394160D01*
X102722210Y-98391793D01*
X102724373Y-98389298D01*
X102733959Y-98381432D01*
X102791102Y-98324290D01*
X102798971Y-98314701D01*
X102801463Y-98312540D01*
X102803828Y-98308782D01*
X102806647Y-98305348D01*
X102807910Y-98302297D01*
X102814517Y-98291803D01*
X102871660Y-98177518D01*
X102880418Y-98154632D01*
X102880736Y-98150150D01*
X102882455Y-98146002D01*
X102884857Y-98121616D01*
X102884857Y-97664473D01*
X102882455Y-97640087D01*
X102863791Y-97595027D01*
X102829303Y-97560539D01*
X102784243Y-97541875D01*
X102759857Y-97539473D01*
X101559857Y-97539473D01*
X101535471Y-97541875D01*
X101490411Y-97560539D01*
X101455923Y-97595027D01*
X101437259Y-97640087D01*
X101437259Y-97688859D01*
X101455923Y-97733919D01*
X101490411Y-97768407D01*
X101535471Y-97787071D01*
X101559857Y-97789473D01*
X102006285Y-97789473D01*
X102006285Y-97885104D01*
X101488174Y-98247783D01*
X101469574Y-98263735D01*
X101443362Y-98304866D01*
X101434886Y-98352897D01*
X101301524Y-98352897D01*
X101301524Y-96578759D01*
X101434857Y-96578759D01*
X101434857Y-97150187D01*
X101437259Y-97174573D01*
X101455923Y-97219633D01*
X101490411Y-97254121D01*
X101535471Y-97272785D01*
X101584243Y-97272785D01*
X101629303Y-97254121D01*
X101663791Y-97219633D01*
X101682455Y-97174573D01*
X101684857Y-97150187D01*
X101684857Y-96703759D01*
X102063428Y-96703759D01*
X102063428Y-96978759D01*
X102065830Y-97003145D01*
X102084494Y-97048205D01*
X102118982Y-97082693D01*
X102164042Y-97101357D01*
X102212814Y-97101357D01*
X102257874Y-97082693D01*
X102292362Y-97048205D01*
X102311026Y-97003145D01*
X102313428Y-96978759D01*
X102313428Y-96703759D01*
X102634857Y-96703759D01*
X102634857Y-97150187D01*
X102637259Y-97174573D01*
X102655923Y-97219633D01*
X102690411Y-97254121D01*
X102735471Y-97272785D01*
X102784243Y-97272785D01*
X102829303Y-97254121D01*
X102863791Y-97219633D01*
X102882455Y-97174573D01*
X102884857Y-97150187D01*
X102884857Y-96578759D01*
X102882455Y-96554373D01*
X102863791Y-96509313D01*
X102829303Y-96474825D01*
X102784243Y-96456161D01*
X102759857Y-96453759D01*
X101559857Y-96453759D01*
X101535471Y-96456161D01*
X101490411Y-96474825D01*
X101455923Y-96509313D01*
X101437259Y-96554373D01*
X101434857Y-96578759D01*
X101301524Y-96578759D01*
X101301524Y-95383431D01*
X101434945Y-95383431D01*
X101439148Y-95401085D01*
X101441539Y-95419079D01*
X101444754Y-95424632D01*
X101446241Y-95430877D01*
X101456883Y-95445583D01*
X101465976Y-95461289D01*
X101471070Y-95465188D01*
X101474834Y-95470389D01*
X101490295Y-95479903D01*
X101504705Y-95490933D01*
X101513700Y-95494306D01*
X101516373Y-95495951D01*
X101519365Y-95496430D01*
X101527649Y-95499537D01*
X101931870Y-95607329D01*
X101527649Y-95715122D01*
X101519366Y-95718228D01*
X101516373Y-95718708D01*
X101513699Y-95720353D01*
X101504706Y-95723726D01*
X101490295Y-95734755D01*
X101474835Y-95744270D01*
X101471072Y-95749469D01*
X101465976Y-95753370D01*
X101456882Y-95769077D01*
X101446241Y-95783782D01*
X101444754Y-95790026D01*
X101441539Y-95795580D01*
X101439148Y-95813573D01*
X101434945Y-95831228D01*
X101435960Y-95837563D01*
X101435115Y-95843927D01*
X101439791Y-95861462D01*
X101442664Y-95879385D01*
X101446028Y-95884852D01*
X101447682Y-95891052D01*
X101458711Y-95905462D01*
X101468226Y-95920923D01*
X101473425Y-95924685D01*
X101477326Y-95929782D01*
X101493033Y-95938875D01*
X101507738Y-95949517D01*
X101516823Y-95952648D01*
X101519536Y-95954219D01*
X101522535Y-95954617D01*
X101530904Y-95957502D01*
X102730904Y-96243217D01*
X102755184Y-96246528D01*
X102803341Y-96238809D01*
X102844880Y-96213247D01*
X102873473Y-96173735D01*
X102884769Y-96126289D01*
X102877050Y-96078132D01*
X102851488Y-96036594D01*
X102811976Y-96008000D01*
X102788810Y-96000015D01*
X102070716Y-95829039D01*
X102449208Y-95728109D01*
X102454919Y-95725967D01*
X102457321Y-95725648D01*
X102460171Y-95723997D01*
X102472152Y-95719505D01*
X102485253Y-95709476D01*
X102499531Y-95701211D01*
X102504451Y-95694781D01*
X102510881Y-95689861D01*
X102519148Y-95675581D01*
X102529175Y-95662482D01*
X102531260Y-95654660D01*
X102535319Y-95647651D01*
X102537492Y-95631292D01*
X102541742Y-95615356D01*
X102540675Y-95607330D01*
X102541742Y-95599304D01*
X102537490Y-95583362D01*
X102535318Y-95567009D01*
X102531261Y-95560002D01*
X102529175Y-95552178D01*
X102519146Y-95539076D01*
X102510881Y-95524799D01*
X102504451Y-95519878D01*
X102499531Y-95513449D01*
X102485252Y-95505182D01*
X102472152Y-95495155D01*
X102460174Y-95490663D01*
X102457322Y-95489012D01*
X102454919Y-95488692D01*
X102449208Y-95486551D01*
X102070716Y-95385619D01*
X102788810Y-95214645D01*
X102811976Y-95206660D01*
X102851488Y-95178066D01*
X102877050Y-95136528D01*
X102884770Y-95088371D01*
X102873473Y-95040925D01*
X102844880Y-95001413D01*
X102803342Y-94975851D01*
X102755184Y-94968132D01*
X102730905Y-94971443D01*
X101530904Y-95257157D01*
X101522535Y-95260041D01*
X101519536Y-95260440D01*
X101516823Y-95262010D01*
X101507738Y-95265142D01*
X101493031Y-95275784D01*
X101477326Y-95284877D01*
X101473426Y-95289971D01*
X101468226Y-95293735D01*
X101458711Y-95309196D01*
X101447682Y-95323606D01*
X101446028Y-95329806D01*
X101442664Y-95335274D01*
X101439791Y-95353195D01*
X101435115Y-95370732D01*
X101435960Y-95377095D01*
X101434945Y-95383431D01*
X101301524Y-95383431D01*
X101301524Y-94178758D01*
X101434857Y-94178758D01*
X101434857Y-94407330D01*
X101437259Y-94431716D01*
X101438977Y-94435864D01*
X101439296Y-94440346D01*
X101448054Y-94463232D01*
X101505197Y-94577517D01*
X101511802Y-94588010D01*
X101513066Y-94591061D01*
X101515884Y-94594495D01*
X101518251Y-94598255D01*
X101520745Y-94600418D01*
X101528611Y-94610003D01*
X101642896Y-94724289D01*
X101661838Y-94739834D01*
X101670425Y-94743391D01*
X101677893Y-94748924D01*
X101700968Y-94757169D01*
X101929540Y-94814312D01*
X101933769Y-94814937D01*
X101935471Y-94815642D01*
X101944652Y-94816546D01*
X101953781Y-94817896D01*
X101955602Y-94817624D01*
X101959857Y-94818044D01*
X102359857Y-94818044D01*
X102364111Y-94817624D01*
X102365934Y-94817896D01*
X102375063Y-94816546D01*
X102384243Y-94815642D01*
X102385944Y-94814937D01*
X102390174Y-94814312D01*
X102618745Y-94757169D01*
X102641821Y-94748924D01*
X102649290Y-94743389D01*
X102657874Y-94739834D01*
X102676816Y-94724289D01*
X102791102Y-94610003D01*
X102798970Y-94600416D01*
X102801463Y-94598254D01*
X102803828Y-94594496D01*
X102806648Y-94591061D01*
X102807912Y-94588009D01*
X102814517Y-94577517D01*
X102871660Y-94463232D01*
X102880418Y-94440346D01*
X102880736Y-94435864D01*
X102882455Y-94431716D01*
X102884857Y-94407330D01*
X102884857Y-94178758D01*
X102882455Y-94154372D01*
X102880736Y-94150223D01*
X102880418Y-94145742D01*
X102871660Y-94122856D01*
X102814517Y-94008571D01*
X102807912Y-93998078D01*
X102806648Y-93995027D01*
X102803828Y-93991591D01*
X102801463Y-93987834D01*
X102798970Y-93985671D01*
X102791102Y-93976085D01*
X102676816Y-93861799D01*
X102657874Y-93846254D01*
X102649290Y-93842698D01*
X102641821Y-93837164D01*
X102618745Y-93828919D01*
X102390174Y-93771776D01*
X102385944Y-93771150D01*
X102384243Y-93770446D01*
X102375063Y-93769541D01*
X102365934Y-93768192D01*
X102364111Y-93768463D01*
X102359857Y-93768044D01*
X101959857Y-93768044D01*
X101955602Y-93768463D01*
X101953781Y-93768192D01*
X101944652Y-93769541D01*
X101935471Y-93770446D01*
X101933769Y-93771150D01*
X101929540Y-93771776D01*
X101700968Y-93828919D01*
X101677893Y-93837164D01*
X101670425Y-93842696D01*
X101661838Y-93846254D01*
X101642896Y-93861799D01*
X101528611Y-93976085D01*
X101520745Y-93985669D01*
X101518251Y-93987833D01*
X101515884Y-93991592D01*
X101513066Y-93995027D01*
X101511802Y-93998077D01*
X101505197Y-94008571D01*
X101448054Y-94122856D01*
X101439296Y-94145742D01*
X101438977Y-94150223D01*
X101437259Y-94154372D01*
X101434857Y-94178758D01*
X101301524Y-94178758D01*
X101301524Y-92725801D01*
X101437259Y-92725801D01*
X101437259Y-92774573D01*
X101455923Y-92819633D01*
X101490411Y-92854121D01*
X101535471Y-92872785D01*
X101559857Y-92875187D01*
X102006285Y-92875187D01*
X102006285Y-93207330D01*
X102008687Y-93231716D01*
X102010405Y-93235864D01*
X102010724Y-93240346D01*
X102019482Y-93263232D01*
X102076625Y-93377517D01*
X102083233Y-93388015D01*
X102084495Y-93391061D01*
X102087308Y-93394489D01*
X102089679Y-93398255D01*
X102092176Y-93400421D01*
X102100040Y-93410003D01*
X102157182Y-93467146D01*
X102166770Y-93475015D01*
X102168932Y-93477507D01*
X102172689Y-93479872D01*
X102176124Y-93482691D01*
X102179174Y-93483954D01*
X102189669Y-93490561D01*
X102303956Y-93547705D01*
X102326841Y-93556462D01*
X102331322Y-93556780D01*
X102335471Y-93558499D01*
X102359857Y-93560901D01*
X102531285Y-93560901D01*
X102555671Y-93558499D01*
X102559819Y-93556780D01*
X102564301Y-93556462D01*
X102587187Y-93547704D01*
X102701473Y-93490561D01*
X102711969Y-93483953D01*
X102715017Y-93482691D01*
X102718448Y-93479874D01*
X102722210Y-93477507D01*
X102724373Y-93475012D01*
X102733959Y-93467146D01*
X102791102Y-93410004D01*
X102798971Y-93400415D01*
X102801463Y-93398254D01*
X102803828Y-93394496D01*
X102806647Y-93391062D01*
X102807910Y-93388011D01*
X102814517Y-93377517D01*
X102871660Y-93263232D01*
X102880418Y-93240346D01*
X102880736Y-93235864D01*
X102882455Y-93231716D01*
X102884857Y-93207330D01*
X102884857Y-92750187D01*
X102882455Y-92725801D01*
X102863791Y-92680741D01*
X102829303Y-92646253D01*
X102784243Y-92627589D01*
X102759857Y-92625187D01*
X101559857Y-92625187D01*
X101535471Y-92627589D01*
X101490411Y-92646253D01*
X101455923Y-92680741D01*
X101437259Y-92725801D01*
X101301524Y-92725801D01*
X101301524Y-92491854D01*
X103018190Y-92491854D01*
X103018190Y-98608520D01*
G37*
G36*
X104471997Y-103903904D02*
G01*
X104342663Y-103903904D01*
X104407329Y-103709903D01*
X104471997Y-103903904D01*
G37*
G36*
X107657330Y-104564619D02*
G01*
X102204949Y-104564619D01*
X102204949Y-103505095D01*
X102329949Y-103505095D01*
X102329949Y-103600333D01*
X102332351Y-103624719D01*
X102334069Y-103628867D01*
X102334388Y-103633349D01*
X102343146Y-103656235D01*
X102390764Y-103751472D01*
X102397373Y-103761970D01*
X102398635Y-103765017D01*
X102401450Y-103768448D01*
X102403819Y-103772210D01*
X102406313Y-103774373D01*
X102414180Y-103783959D01*
X102461798Y-103831578D01*
X102471386Y-103839447D01*
X102473548Y-103841939D01*
X102477305Y-103844304D01*
X102480740Y-103847123D01*
X102483790Y-103848386D01*
X102494285Y-103854993D01*
X102589523Y-103902612D01*
X102591308Y-103903295D01*
X102592033Y-103903832D01*
X102602262Y-103907487D01*
X102612409Y-103911370D01*
X102613308Y-103911433D01*
X102615108Y-103912077D01*
X102792274Y-103956368D01*
X102857094Y-103988778D01*
X102876026Y-104007711D01*
X102901377Y-104058412D01*
X102901377Y-104094633D01*
X102876025Y-104145336D01*
X102857094Y-104164268D01*
X102806393Y-104189619D01*
X102618092Y-104189619D01*
X102494477Y-104148415D01*
X102470583Y-104142982D01*
X102421934Y-104146439D01*
X102378309Y-104168251D01*
X102346354Y-104205097D01*
X102330931Y-104251366D01*
X102334388Y-104300015D01*
X102356200Y-104343640D01*
X102393046Y-104375595D01*
X102415421Y-104385585D01*
X102558277Y-104433204D01*
X102570370Y-104435953D01*
X102573420Y-104437217D01*
X102577841Y-104437652D01*
X102582171Y-104438637D01*
X102585462Y-104438403D01*
X102597806Y-104439619D01*
X102835901Y-104439619D01*
X102860287Y-104437217D01*
X102864435Y-104435498D01*
X102868917Y-104435180D01*
X102891803Y-104426422D01*
X102987040Y-104378804D01*
X102997536Y-104372196D01*
X103000586Y-104370933D01*
X103004019Y-104368114D01*
X103007778Y-104365749D01*
X103009940Y-104363255D01*
X103019528Y-104355387D01*
X103067147Y-104307768D01*
X103075014Y-104298180D01*
X103077507Y-104296019D01*
X103079873Y-104292259D01*
X103082692Y-104288825D01*
X103083954Y-104285776D01*
X103090561Y-104275282D01*
X103138180Y-104180044D01*
X103146938Y-104157158D01*
X103147256Y-104152677D01*
X103148975Y-104148528D01*
X103151377Y-104124142D01*
X103151377Y-104028904D01*
X103148975Y-104004518D01*
X103147256Y-104000368D01*
X103146938Y-103995888D01*
X103138180Y-103973002D01*
X103090561Y-103877764D01*
X103083954Y-103867269D01*
X103082691Y-103864219D01*
X103079872Y-103860784D01*
X103077507Y-103857027D01*
X103075015Y-103854865D01*
X103067146Y-103845277D01*
X103019527Y-103797659D01*
X103009941Y-103789792D01*
X103007778Y-103787298D01*
X103004016Y-103784929D01*
X103000585Y-103782114D01*
X102997538Y-103780852D01*
X102987040Y-103774243D01*
X102891803Y-103726625D01*
X102890017Y-103725941D01*
X102889293Y-103725405D01*
X102879063Y-103721749D01*
X102868917Y-103717867D01*
X102868017Y-103717803D01*
X102866218Y-103717160D01*
X102689053Y-103672868D01*
X102624232Y-103640458D01*
X102605299Y-103621526D01*
X102579949Y-103570825D01*
X102579949Y-103534603D01*
X102605299Y-103483901D01*
X102624232Y-103464969D01*
X102674934Y-103439619D01*
X102863237Y-103439619D01*
X102986848Y-103480823D01*
X103010742Y-103486256D01*
X103059392Y-103482799D01*
X103103016Y-103460987D01*
X103134972Y-103424141D01*
X103150395Y-103377872D01*
X103146938Y-103329222D01*
X103127443Y-103290233D01*
X103189494Y-103290233D01*
X103189494Y-103339005D01*
X103208158Y-103384065D01*
X103242646Y-103418553D01*
X103287706Y-103437217D01*
X103312092Y-103439619D01*
X103472806Y-103439619D01*
X103472806Y-104314619D01*
X103475208Y-104339005D01*
X103493872Y-104384065D01*
X103528360Y-104418553D01*
X103573420Y-104437217D01*
X103622192Y-104437217D01*
X103667252Y-104418553D01*
X103701740Y-104384065D01*
X103720404Y-104339005D01*
X103722806Y-104314619D01*
X103722806Y-104298985D01*
X103949979Y-104298985D01*
X103953436Y-104347634D01*
X103975248Y-104391259D01*
X104012094Y-104423214D01*
X104058363Y-104438637D01*
X104107012Y-104435180D01*
X104150637Y-104413368D01*
X104182592Y-104376522D01*
X104192582Y-104354147D01*
X104259330Y-104153904D01*
X104555330Y-104153904D01*
X104622077Y-104354147D01*
X104632068Y-104376522D01*
X104664023Y-104413368D01*
X104707647Y-104435180D01*
X104756297Y-104438637D01*
X104802566Y-104423214D01*
X104839412Y-104391258D01*
X104861224Y-104347634D01*
X104864681Y-104298984D01*
X104859248Y-104275090D01*
X104530962Y-103290233D01*
X104808542Y-103290233D01*
X104808542Y-103339005D01*
X104827206Y-103384065D01*
X104861694Y-103418553D01*
X104906754Y-103437217D01*
X104931140Y-103439619D01*
X105091854Y-103439619D01*
X105091854Y-104314619D01*
X105094256Y-104339005D01*
X105112920Y-104384065D01*
X105147408Y-104418553D01*
X105192468Y-104437217D01*
X105241240Y-104437217D01*
X105286300Y-104418553D01*
X105320788Y-104384065D01*
X105339452Y-104339005D01*
X105341854Y-104314619D01*
X105341854Y-103439619D01*
X105502568Y-103439619D01*
X105526954Y-103437217D01*
X105572014Y-103418553D01*
X105606502Y-103384065D01*
X105625166Y-103339005D01*
X105625166Y-103314619D01*
X105710902Y-103314619D01*
X105710902Y-104124142D01*
X105713304Y-104148528D01*
X105715022Y-104152676D01*
X105715341Y-104157158D01*
X105724099Y-104180044D01*
X105771717Y-104275281D01*
X105778324Y-104285777D01*
X105779587Y-104288825D01*
X105782404Y-104292258D01*
X105784772Y-104296019D01*
X105787266Y-104298182D01*
X105795132Y-104307767D01*
X105842751Y-104355387D01*
X105852339Y-104363256D01*
X105854501Y-104365749D01*
X105858255Y-104368112D01*
X105861692Y-104370933D01*
X105864745Y-104372197D01*
X105875238Y-104378803D01*
X105970476Y-104426422D01*
X105993362Y-104435180D01*
X105997842Y-104435498D01*
X106001992Y-104437217D01*
X106026378Y-104439619D01*
X106216854Y-104439619D01*
X106241240Y-104437217D01*
X106245388Y-104435498D01*
X106249870Y-104435180D01*
X106272756Y-104426422D01*
X106367993Y-104378804D01*
X106378489Y-104372196D01*
X106381539Y-104370933D01*
X106384972Y-104368114D01*
X106388731Y-104365749D01*
X106390893Y-104363255D01*
X106400481Y-104355387D01*
X106448100Y-104307768D01*
X106455967Y-104298180D01*
X106458460Y-104296019D01*
X106460826Y-104292259D01*
X106463645Y-104288825D01*
X106464907Y-104285776D01*
X106471514Y-104275282D01*
X106519133Y-104180044D01*
X106527891Y-104157158D01*
X106528209Y-104152677D01*
X106529928Y-104148528D01*
X106532330Y-104124142D01*
X106532330Y-103505095D01*
X106710902Y-103505095D01*
X106710902Y-103600333D01*
X106713304Y-103624719D01*
X106715022Y-103628867D01*
X106715341Y-103633349D01*
X106724099Y-103656235D01*
X106771717Y-103751472D01*
X106778326Y-103761970D01*
X106779588Y-103765017D01*
X106782403Y-103768448D01*
X106784772Y-103772210D01*
X106787266Y-103774373D01*
X106795133Y-103783959D01*
X106842751Y-103831578D01*
X106852339Y-103839447D01*
X106854501Y-103841939D01*
X106858258Y-103844304D01*
X106861693Y-103847123D01*
X106864743Y-103848386D01*
X106875238Y-103854993D01*
X106970476Y-103902612D01*
X106972261Y-103903295D01*
X106972986Y-103903832D01*
X106983215Y-103907487D01*
X106993362Y-103911370D01*
X106994261Y-103911433D01*
X106996061Y-103912077D01*
X107173227Y-103956368D01*
X107238047Y-103988778D01*
X107256979Y-104007711D01*
X107282330Y-104058412D01*
X107282330Y-104094633D01*
X107256978Y-104145336D01*
X107238047Y-104164268D01*
X107187346Y-104189619D01*
X106999045Y-104189619D01*
X106875430Y-104148415D01*
X106851536Y-104142982D01*
X106802887Y-104146439D01*
X106759262Y-104168251D01*
X106727307Y-104205097D01*
X106711884Y-104251366D01*
X106715341Y-104300015D01*
X106737153Y-104343640D01*
X106773999Y-104375595D01*
X106796374Y-104385585D01*
X106939230Y-104433204D01*
X106951323Y-104435953D01*
X106954373Y-104437217D01*
X106958794Y-104437652D01*
X106963124Y-104438637D01*
X106966415Y-104438403D01*
X106978759Y-104439619D01*
X107216854Y-104439619D01*
X107241240Y-104437217D01*
X107245388Y-104435498D01*
X107249870Y-104435180D01*
X107272756Y-104426422D01*
X107367993Y-104378804D01*
X107378489Y-104372196D01*
X107381539Y-104370933D01*
X107384972Y-104368114D01*
X107388731Y-104365749D01*
X107390893Y-104363255D01*
X107400481Y-104355387D01*
X107448100Y-104307768D01*
X107455967Y-104298180D01*
X107458460Y-104296019D01*
X107460826Y-104292259D01*
X107463645Y-104288825D01*
X107464907Y-104285776D01*
X107471514Y-104275282D01*
X107519133Y-104180044D01*
X107527891Y-104157158D01*
X107528209Y-104152677D01*
X107529928Y-104148528D01*
X107532330Y-104124142D01*
X107532330Y-104028904D01*
X107529928Y-104004518D01*
X107528209Y-104000368D01*
X107527891Y-103995888D01*
X107519133Y-103973002D01*
X107471514Y-103877764D01*
X107464907Y-103867269D01*
X107463644Y-103864219D01*
X107460825Y-103860784D01*
X107458460Y-103857027D01*
X107455968Y-103854865D01*
X107448099Y-103845277D01*
X107400480Y-103797659D01*
X107390894Y-103789792D01*
X107388731Y-103787298D01*
X107384969Y-103784929D01*
X107381538Y-103782114D01*
X107378491Y-103780852D01*
X107367993Y-103774243D01*
X107272756Y-103726625D01*
X107270970Y-103725941D01*
X107270246Y-103725405D01*
X107260016Y-103721749D01*
X107249870Y-103717867D01*
X107248970Y-103717803D01*
X107247171Y-103717160D01*
X107070006Y-103672868D01*
X107005185Y-103640458D01*
X106986252Y-103621526D01*
X106960902Y-103570825D01*
X106960902Y-103534603D01*
X106986252Y-103483901D01*
X107005185Y-103464969D01*
X107055887Y-103439619D01*
X107244190Y-103439619D01*
X107367801Y-103480823D01*
X107391695Y-103486256D01*
X107440345Y-103482799D01*
X107483969Y-103460987D01*
X107515925Y-103424141D01*
X107531348Y-103377872D01*
X107527891Y-103329222D01*
X107506079Y-103285598D01*
X107469233Y-103253643D01*
X107446858Y-103243652D01*
X107304001Y-103196034D01*
X107291910Y-103193284D01*
X107288859Y-103192021D01*
X107284436Y-103191585D01*
X107280107Y-103190601D01*
X107276816Y-103190834D01*
X107264473Y-103189619D01*
X107026378Y-103189619D01*
X107001992Y-103192021D01*
X106997842Y-103193739D01*
X106993362Y-103194058D01*
X106970476Y-103202816D01*
X106875238Y-103250435D01*
X106864743Y-103257041D01*
X106861693Y-103258305D01*
X106858258Y-103261123D01*
X106854501Y-103263489D01*
X106852339Y-103265980D01*
X106842751Y-103273850D01*
X106795133Y-103321469D01*
X106787266Y-103331054D01*
X106784772Y-103333218D01*
X106782403Y-103336979D01*
X106779588Y-103340411D01*
X106778326Y-103343457D01*
X106771717Y-103353956D01*
X106724099Y-103449193D01*
X106715341Y-103472079D01*
X106715022Y-103476560D01*
X106713304Y-103480709D01*
X106710902Y-103505095D01*
X106532330Y-103505095D01*
X106532330Y-103314619D01*
X106529928Y-103290233D01*
X106511264Y-103245173D01*
X106476776Y-103210685D01*
X106431716Y-103192021D01*
X106382944Y-103192021D01*
X106337884Y-103210685D01*
X106303396Y-103245173D01*
X106284732Y-103290233D01*
X106282330Y-103314619D01*
X106282330Y-104094633D01*
X106256978Y-104145336D01*
X106238047Y-104164268D01*
X106187346Y-104189619D01*
X106055887Y-104189619D01*
X106005185Y-104164268D01*
X105986253Y-104145336D01*
X105960902Y-104094634D01*
X105960902Y-103314619D01*
X105958500Y-103290233D01*
X105939836Y-103245173D01*
X105905348Y-103210685D01*
X105860288Y-103192021D01*
X105811516Y-103192021D01*
X105766456Y-103210685D01*
X105731968Y-103245173D01*
X105713304Y-103290233D01*
X105710902Y-103314619D01*
X105625166Y-103314619D01*
X105625166Y-103290233D01*
X105606502Y-103245173D01*
X105572014Y-103210685D01*
X105526954Y-103192021D01*
X105502568Y-103189619D01*
X104931140Y-103189619D01*
X104906754Y-103192021D01*
X104861694Y-103210685D01*
X104827206Y-103245173D01*
X104808542Y-103290233D01*
X104530962Y-103290233D01*
X104525915Y-103275091D01*
X104515925Y-103252716D01*
X104510073Y-103245968D01*
X104506079Y-103237980D01*
X104494241Y-103227713D01*
X104483970Y-103215870D01*
X104475978Y-103211874D01*
X104469233Y-103206024D01*
X104454365Y-103201068D01*
X104440345Y-103194058D01*
X104431435Y-103193424D01*
X104422964Y-103190601D01*
X104407329Y-103191711D01*
X104391696Y-103190601D01*
X104383224Y-103193424D01*
X104374314Y-103194058D01*
X104360292Y-103201069D01*
X104345427Y-103206024D01*
X104338681Y-103211874D01*
X104330690Y-103215870D01*
X104320421Y-103227710D01*
X104308581Y-103237979D01*
X104304585Y-103245969D01*
X104298735Y-103252716D01*
X104288744Y-103275091D01*
X103955412Y-104275091D01*
X103949979Y-104298985D01*
X103722806Y-104298985D01*
X103722806Y-103439619D01*
X103883520Y-103439619D01*
X103907906Y-103437217D01*
X103952966Y-103418553D01*
X103987454Y-103384065D01*
X104006118Y-103339005D01*
X104006118Y-103290233D01*
X103987454Y-103245173D01*
X103952966Y-103210685D01*
X103907906Y-103192021D01*
X103883520Y-103189619D01*
X103312092Y-103189619D01*
X103287706Y-103192021D01*
X103242646Y-103210685D01*
X103208158Y-103245173D01*
X103189494Y-103290233D01*
X103127443Y-103290233D01*
X103125126Y-103285598D01*
X103088280Y-103253643D01*
X103065905Y-103243652D01*
X102923048Y-103196034D01*
X102910957Y-103193284D01*
X102907906Y-103192021D01*
X102903483Y-103191585D01*
X102899154Y-103190601D01*
X102895863Y-103190834D01*
X102883520Y-103189619D01*
X102645425Y-103189619D01*
X102621039Y-103192021D01*
X102616889Y-103193739D01*
X102612409Y-103194058D01*
X102589523Y-103202816D01*
X102494285Y-103250435D01*
X102483790Y-103257041D01*
X102480740Y-103258305D01*
X102477305Y-103261123D01*
X102473548Y-103263489D01*
X102471386Y-103265980D01*
X102461798Y-103273850D01*
X102414180Y-103321469D01*
X102406313Y-103331054D01*
X102403819Y-103333218D01*
X102401450Y-103336979D01*
X102398635Y-103340411D01*
X102397373Y-103343457D01*
X102390764Y-103353956D01*
X102343146Y-103449193D01*
X102334388Y-103472079D01*
X102334069Y-103476560D01*
X102332351Y-103480709D01*
X102329949Y-103505095D01*
X102204949Y-103505095D01*
X102204949Y-103064619D01*
X107657330Y-103064619D01*
X107657330Y-104564619D01*
G37*
G36*
X110261856Y-112250016D02*
G01*
X110290312Y-112278473D01*
X110325187Y-112348222D01*
X110325187Y-112460634D01*
X110290312Y-112530382D01*
X110261856Y-112558839D01*
X110192108Y-112593714D01*
X109889473Y-112593714D01*
X109889473Y-112215142D01*
X110192108Y-112215142D01*
X110261856Y-112250016D01*
G37*
G36*
X111791832Y-113548475D02*
G01*
X107334711Y-113548475D01*
X107334711Y-112604428D01*
X107468044Y-112604428D01*
X107468044Y-112775857D01*
X107468463Y-112780111D01*
X107468192Y-112781934D01*
X107469541Y-112791063D01*
X107470446Y-112800243D01*
X107471150Y-112801944D01*
X107471776Y-112806174D01*
X107528919Y-113034745D01*
X107529562Y-113036544D01*
X107529626Y-113037444D01*
X107533505Y-113047583D01*
X107537164Y-113057821D01*
X107537701Y-113058546D01*
X107538384Y-113060330D01*
X107595527Y-113174616D01*
X107602132Y-113185108D01*
X107603396Y-113188160D01*
X107606216Y-113191596D01*
X107608581Y-113195353D01*
X107611072Y-113197513D01*
X107618941Y-113207102D01*
X107733226Y-113321388D01*
X107752168Y-113336933D01*
X107756319Y-113338652D01*
X107759712Y-113341595D01*
X107782087Y-113351586D01*
X107953516Y-113408728D01*
X107965608Y-113411477D01*
X107968658Y-113412740D01*
X107973080Y-113413175D01*
X107977411Y-113414160D01*
X107980700Y-113413926D01*
X107993044Y-113415142D01*
X108107330Y-113415142D01*
X108119673Y-113413926D01*
X108122964Y-113414160D01*
X108127294Y-113413175D01*
X108131716Y-113412740D01*
X108134764Y-113411477D01*
X108146858Y-113408728D01*
X108318286Y-113351585D01*
X108340661Y-113341595D01*
X108344054Y-113338651D01*
X108348204Y-113336933D01*
X108367146Y-113321388D01*
X108424289Y-113264246D01*
X108439834Y-113245304D01*
X108458499Y-113200244D01*
X108458499Y-113151471D01*
X108439834Y-113106411D01*
X108405347Y-113071924D01*
X108360287Y-113053259D01*
X108311514Y-113053259D01*
X108266454Y-113071924D01*
X108247512Y-113087469D01*
X108211236Y-113123745D01*
X108087044Y-113165142D01*
X108013330Y-113165142D01*
X107889137Y-113123745D01*
X107810061Y-113044669D01*
X107768127Y-112960800D01*
X107718044Y-112760467D01*
X107718044Y-112619817D01*
X107768127Y-112419484D01*
X107810061Y-112335615D01*
X107889139Y-112256537D01*
X108013327Y-112215142D01*
X108087046Y-112215142D01*
X108211235Y-112256538D01*
X108247512Y-112292816D01*
X108266454Y-112308361D01*
X108311514Y-112327026D01*
X108360287Y-112327026D01*
X108405347Y-112308361D01*
X108439834Y-112273874D01*
X108458499Y-112228814D01*
X108458499Y-112180041D01*
X108439834Y-112134981D01*
X108424289Y-112116039D01*
X108374005Y-112065756D01*
X108556160Y-112065756D01*
X108556160Y-112114528D01*
X108574824Y-112159588D01*
X108609312Y-112194076D01*
X108654372Y-112212740D01*
X108678758Y-112215142D01*
X108896615Y-112215142D01*
X108896615Y-113290142D01*
X108899017Y-113314528D01*
X108917681Y-113359588D01*
X108952169Y-113394076D01*
X108997229Y-113412740D01*
X109046001Y-113412740D01*
X109091061Y-113394076D01*
X109125549Y-113359588D01*
X109144213Y-113314528D01*
X109146615Y-113290142D01*
X109146615Y-112215142D01*
X109364473Y-112215142D01*
X109388859Y-112212740D01*
X109433919Y-112194076D01*
X109468407Y-112159588D01*
X109487071Y-112114528D01*
X109487071Y-112090142D01*
X109639473Y-112090142D01*
X109639473Y-113290142D01*
X109641875Y-113314528D01*
X109660539Y-113359588D01*
X109695027Y-113394076D01*
X109740087Y-113412740D01*
X109788859Y-113412740D01*
X109833919Y-113394076D01*
X109868407Y-113359588D01*
X109887071Y-113314528D01*
X109889473Y-113290142D01*
X109889473Y-112843714D01*
X109985105Y-112843714D01*
X110347783Y-113361825D01*
X110363735Y-113380425D01*
X110404866Y-113406637D01*
X110452897Y-113415113D01*
X110500515Y-113404563D01*
X110540470Y-113376594D01*
X110566682Y-113335463D01*
X110575158Y-113287432D01*
X110564608Y-113239814D01*
X110552591Y-113218459D01*
X110280120Y-112829215D01*
X110391803Y-112773374D01*
X110402301Y-112766765D01*
X110405347Y-112765504D01*
X110408775Y-112762690D01*
X110412541Y-112760320D01*
X110414707Y-112757822D01*
X110424289Y-112749959D01*
X110481432Y-112692817D01*
X110489301Y-112683228D01*
X110491793Y-112681067D01*
X110494158Y-112677309D01*
X110496977Y-112673875D01*
X110498240Y-112670824D01*
X110504847Y-112660330D01*
X110561991Y-112546043D01*
X110570748Y-112523158D01*
X110571066Y-112518676D01*
X110572785Y-112514528D01*
X110575187Y-112490142D01*
X110575187Y-112318714D01*
X110572785Y-112294328D01*
X110571066Y-112290179D01*
X110570748Y-112285698D01*
X110561991Y-112262813D01*
X110504847Y-112148526D01*
X110498240Y-112138031D01*
X110496977Y-112134981D01*
X110494158Y-112131546D01*
X110491793Y-112127789D01*
X110489301Y-112125627D01*
X110481432Y-112116039D01*
X110455535Y-112090142D01*
X110839473Y-112090142D01*
X110839473Y-113290142D01*
X110841875Y-113314528D01*
X110860539Y-113359588D01*
X110895027Y-113394076D01*
X110940087Y-113412740D01*
X110964473Y-113415142D01*
X111535901Y-113415142D01*
X111560287Y-113412740D01*
X111605347Y-113394076D01*
X111639835Y-113359588D01*
X111658499Y-113314528D01*
X111658499Y-113265756D01*
X111639835Y-113220696D01*
X111605347Y-113186208D01*
X111560287Y-113167544D01*
X111535901Y-113165142D01*
X111089473Y-113165142D01*
X111089473Y-112090142D01*
X111087071Y-112065756D01*
X111068407Y-112020696D01*
X111033919Y-111986208D01*
X110988859Y-111967544D01*
X110940087Y-111967544D01*
X110895027Y-111986208D01*
X110860539Y-112020696D01*
X110841875Y-112065756D01*
X110839473Y-112090142D01*
X110455535Y-112090142D01*
X110424289Y-112058897D01*
X110414707Y-112051033D01*
X110412541Y-112048536D01*
X110408775Y-112046165D01*
X110405347Y-112043352D01*
X110402301Y-112042090D01*
X110391803Y-112035482D01*
X110277518Y-111978339D01*
X110254632Y-111969581D01*
X110250150Y-111969262D01*
X110246002Y-111967544D01*
X110221616Y-111965142D01*
X109764473Y-111965142D01*
X109740087Y-111967544D01*
X109695027Y-111986208D01*
X109660539Y-112020696D01*
X109641875Y-112065756D01*
X109639473Y-112090142D01*
X109487071Y-112090142D01*
X109487071Y-112065756D01*
X109468407Y-112020696D01*
X109433919Y-111986208D01*
X109388859Y-111967544D01*
X109364473Y-111965142D01*
X108678758Y-111965142D01*
X108654372Y-111967544D01*
X108609312Y-111986208D01*
X108574824Y-112020696D01*
X108556160Y-112065756D01*
X108374005Y-112065756D01*
X108367146Y-112058897D01*
X108348204Y-112043352D01*
X108344056Y-112041633D01*
X108340662Y-112038690D01*
X108318287Y-112028700D01*
X108146859Y-111971557D01*
X108134765Y-111968807D01*
X108131716Y-111967544D01*
X108127294Y-111967108D01*
X108122965Y-111966124D01*
X108119673Y-111966357D01*
X108107330Y-111965142D01*
X107993044Y-111965142D01*
X107980700Y-111966357D01*
X107977410Y-111966124D01*
X107973080Y-111967108D01*
X107968658Y-111967544D01*
X107965607Y-111968807D01*
X107953515Y-111971557D01*
X107782087Y-112028700D01*
X107759712Y-112038690D01*
X107756319Y-112041632D01*
X107752168Y-112043352D01*
X107733226Y-112058897D01*
X107618941Y-112173183D01*
X107611072Y-112182771D01*
X107608581Y-112184932D01*
X107606216Y-112188688D01*
X107603396Y-112192125D01*
X107602132Y-112195176D01*
X107595527Y-112205669D01*
X107538384Y-112319955D01*
X107537701Y-112321738D01*
X107537164Y-112322464D01*
X107533505Y-112332701D01*
X107529626Y-112342841D01*
X107529562Y-112343740D01*
X107528919Y-112345540D01*
X107471776Y-112574111D01*
X107471150Y-112578340D01*
X107470446Y-112580042D01*
X107469541Y-112589221D01*
X107468192Y-112598351D01*
X107468463Y-112600173D01*
X107468044Y-112604428D01*
X107334711Y-112604428D01*
X107334711Y-111831809D01*
X111791832Y-111831809D01*
X111791832Y-113548475D01*
G37*
D12*
X120483333Y-76542902D02*
X120483333Y-77007188D01*
X120483333Y-77007188D02*
X120452380Y-77100045D01*
X120452380Y-77100045D02*
X120390476Y-77161950D01*
X120390476Y-77161950D02*
X120297618Y-77192902D01*
X120297618Y-77192902D02*
X120235714Y-77192902D01*
X121071428Y-76759569D02*
X121071428Y-77192902D01*
X120916666Y-76511950D02*
X120761904Y-76976235D01*
X120761904Y-76976235D02*
X121164285Y-76976235D01*
X121691666Y-107092902D02*
X121474999Y-106783378D01*
X121320237Y-107092902D02*
X121320237Y-106442902D01*
X121320237Y-106442902D02*
X121567856Y-106442902D01*
X121567856Y-106442902D02*
X121629761Y-106473854D01*
X121629761Y-106473854D02*
X121660714Y-106504807D01*
X121660714Y-106504807D02*
X121691666Y-106566711D01*
X121691666Y-106566711D02*
X121691666Y-106659569D01*
X121691666Y-106659569D02*
X121660714Y-106721473D01*
X121660714Y-106721473D02*
X121629761Y-106752426D01*
X121629761Y-106752426D02*
X121567856Y-106783378D01*
X121567856Y-106783378D02*
X121320237Y-106783378D01*
X122248809Y-106442902D02*
X122124999Y-106442902D01*
X122124999Y-106442902D02*
X122063095Y-106473854D01*
X122063095Y-106473854D02*
X122032142Y-106504807D01*
X122032142Y-106504807D02*
X121970237Y-106597664D01*
X121970237Y-106597664D02*
X121939285Y-106721473D01*
X121939285Y-106721473D02*
X121939285Y-106969092D01*
X121939285Y-106969092D02*
X121970237Y-107030997D01*
X121970237Y-107030997D02*
X122001190Y-107061950D01*
X122001190Y-107061950D02*
X122063095Y-107092902D01*
X122063095Y-107092902D02*
X122186904Y-107092902D01*
X122186904Y-107092902D02*
X122248809Y-107061950D01*
X122248809Y-107061950D02*
X122279761Y-107030997D01*
X122279761Y-107030997D02*
X122310714Y-106969092D01*
X122310714Y-106969092D02*
X122310714Y-106814330D01*
X122310714Y-106814330D02*
X122279761Y-106752426D01*
X122279761Y-106752426D02*
X122248809Y-106721473D01*
X122248809Y-106721473D02*
X122186904Y-106690521D01*
X122186904Y-106690521D02*
X122063095Y-106690521D01*
X122063095Y-106690521D02*
X122001190Y-106721473D01*
X122001190Y-106721473D02*
X121970237Y-106752426D01*
X121970237Y-106752426D02*
X121939285Y-106814330D01*
X109191666Y-100492902D02*
X108974999Y-100183378D01*
X108820237Y-100492902D02*
X108820237Y-99842902D01*
X108820237Y-99842902D02*
X109067856Y-99842902D01*
X109067856Y-99842902D02*
X109129761Y-99873854D01*
X109129761Y-99873854D02*
X109160714Y-99904807D01*
X109160714Y-99904807D02*
X109191666Y-99966711D01*
X109191666Y-99966711D02*
X109191666Y-100059569D01*
X109191666Y-100059569D02*
X109160714Y-100121473D01*
X109160714Y-100121473D02*
X109129761Y-100152426D01*
X109129761Y-100152426D02*
X109067856Y-100183378D01*
X109067856Y-100183378D02*
X108820237Y-100183378D01*
X109748809Y-100059569D02*
X109748809Y-100492902D01*
X109594047Y-99811950D02*
X109439285Y-100276235D01*
X109439285Y-100276235D02*
X109841666Y-100276235D01*
X97020237Y-105392902D02*
X97020237Y-104742902D01*
X97020237Y-104742902D02*
X97174999Y-104742902D01*
X97174999Y-104742902D02*
X97267856Y-104773854D01*
X97267856Y-104773854D02*
X97329761Y-104835759D01*
X97329761Y-104835759D02*
X97360714Y-104897664D01*
X97360714Y-104897664D02*
X97391666Y-105021473D01*
X97391666Y-105021473D02*
X97391666Y-105114330D01*
X97391666Y-105114330D02*
X97360714Y-105238140D01*
X97360714Y-105238140D02*
X97329761Y-105300045D01*
X97329761Y-105300045D02*
X97267856Y-105361950D01*
X97267856Y-105361950D02*
X97174999Y-105392902D01*
X97174999Y-105392902D02*
X97020237Y-105392902D01*
X97639285Y-104804807D02*
X97670237Y-104773854D01*
X97670237Y-104773854D02*
X97732142Y-104742902D01*
X97732142Y-104742902D02*
X97886904Y-104742902D01*
X97886904Y-104742902D02*
X97948809Y-104773854D01*
X97948809Y-104773854D02*
X97979761Y-104804807D01*
X97979761Y-104804807D02*
X98010714Y-104866711D01*
X98010714Y-104866711D02*
X98010714Y-104928616D01*
X98010714Y-104928616D02*
X97979761Y-105021473D01*
X97979761Y-105021473D02*
X97608333Y-105392902D01*
X97608333Y-105392902D02*
X98010714Y-105392902D01*
X117530997Y-103508333D02*
X117561950Y-103539285D01*
X117561950Y-103539285D02*
X117592902Y-103632143D01*
X117592902Y-103632143D02*
X117592902Y-103694047D01*
X117592902Y-103694047D02*
X117561950Y-103786904D01*
X117561950Y-103786904D02*
X117500045Y-103848809D01*
X117500045Y-103848809D02*
X117438140Y-103879762D01*
X117438140Y-103879762D02*
X117314330Y-103910714D01*
X117314330Y-103910714D02*
X117221473Y-103910714D01*
X117221473Y-103910714D02*
X117097664Y-103879762D01*
X117097664Y-103879762D02*
X117035759Y-103848809D01*
X117035759Y-103848809D02*
X116973854Y-103786904D01*
X116973854Y-103786904D02*
X116942902Y-103694047D01*
X116942902Y-103694047D02*
X116942902Y-103632143D01*
X116942902Y-103632143D02*
X116973854Y-103539285D01*
X116973854Y-103539285D02*
X117004807Y-103508333D01*
X116942902Y-102920238D02*
X116942902Y-103229762D01*
X116942902Y-103229762D02*
X117252426Y-103260714D01*
X117252426Y-103260714D02*
X117221473Y-103229762D01*
X117221473Y-103229762D02*
X117190521Y-103167857D01*
X117190521Y-103167857D02*
X117190521Y-103013095D01*
X117190521Y-103013095D02*
X117221473Y-102951190D01*
X117221473Y-102951190D02*
X117252426Y-102920238D01*
X117252426Y-102920238D02*
X117314330Y-102889285D01*
X117314330Y-102889285D02*
X117469092Y-102889285D01*
X117469092Y-102889285D02*
X117530997Y-102920238D01*
X117530997Y-102920238D02*
X117561950Y-102951190D01*
X117561950Y-102951190D02*
X117592902Y-103013095D01*
X117592902Y-103013095D02*
X117592902Y-103167857D01*
X117592902Y-103167857D02*
X117561950Y-103229762D01*
X117561950Y-103229762D02*
X117530997Y-103260714D01*
X120291666Y-94430997D02*
X120260714Y-94461950D01*
X120260714Y-94461950D02*
X120167856Y-94492902D01*
X120167856Y-94492902D02*
X120105952Y-94492902D01*
X120105952Y-94492902D02*
X120013095Y-94461950D01*
X120013095Y-94461950D02*
X119951190Y-94400045D01*
X119951190Y-94400045D02*
X119920237Y-94338140D01*
X119920237Y-94338140D02*
X119889285Y-94214330D01*
X119889285Y-94214330D02*
X119889285Y-94121473D01*
X119889285Y-94121473D02*
X119920237Y-93997664D01*
X119920237Y-93997664D02*
X119951190Y-93935759D01*
X119951190Y-93935759D02*
X120013095Y-93873854D01*
X120013095Y-93873854D02*
X120105952Y-93842902D01*
X120105952Y-93842902D02*
X120167856Y-93842902D01*
X120167856Y-93842902D02*
X120260714Y-93873854D01*
X120260714Y-93873854D02*
X120291666Y-93904807D01*
X120663095Y-94121473D02*
X120601190Y-94090521D01*
X120601190Y-94090521D02*
X120570237Y-94059569D01*
X120570237Y-94059569D02*
X120539285Y-93997664D01*
X120539285Y-93997664D02*
X120539285Y-93966711D01*
X120539285Y-93966711D02*
X120570237Y-93904807D01*
X120570237Y-93904807D02*
X120601190Y-93873854D01*
X120601190Y-93873854D02*
X120663095Y-93842902D01*
X120663095Y-93842902D02*
X120786904Y-93842902D01*
X120786904Y-93842902D02*
X120848809Y-93873854D01*
X120848809Y-93873854D02*
X120879761Y-93904807D01*
X120879761Y-93904807D02*
X120910714Y-93966711D01*
X120910714Y-93966711D02*
X120910714Y-93997664D01*
X120910714Y-93997664D02*
X120879761Y-94059569D01*
X120879761Y-94059569D02*
X120848809Y-94090521D01*
X120848809Y-94090521D02*
X120786904Y-94121473D01*
X120786904Y-94121473D02*
X120663095Y-94121473D01*
X120663095Y-94121473D02*
X120601190Y-94152426D01*
X120601190Y-94152426D02*
X120570237Y-94183378D01*
X120570237Y-94183378D02*
X120539285Y-94245283D01*
X120539285Y-94245283D02*
X120539285Y-94369092D01*
X120539285Y-94369092D02*
X120570237Y-94430997D01*
X120570237Y-94430997D02*
X120601190Y-94461950D01*
X120601190Y-94461950D02*
X120663095Y-94492902D01*
X120663095Y-94492902D02*
X120786904Y-94492902D01*
X120786904Y-94492902D02*
X120848809Y-94461950D01*
X120848809Y-94461950D02*
X120879761Y-94430997D01*
X120879761Y-94430997D02*
X120910714Y-94369092D01*
X120910714Y-94369092D02*
X120910714Y-94245283D01*
X120910714Y-94245283D02*
X120879761Y-94183378D01*
X120879761Y-94183378D02*
X120848809Y-94152426D01*
X120848809Y-94152426D02*
X120786904Y-94121473D01*
X119130997Y-103508333D02*
X119161950Y-103539285D01*
X119161950Y-103539285D02*
X119192902Y-103632143D01*
X119192902Y-103632143D02*
X119192902Y-103694047D01*
X119192902Y-103694047D02*
X119161950Y-103786904D01*
X119161950Y-103786904D02*
X119100045Y-103848809D01*
X119100045Y-103848809D02*
X119038140Y-103879762D01*
X119038140Y-103879762D02*
X118914330Y-103910714D01*
X118914330Y-103910714D02*
X118821473Y-103910714D01*
X118821473Y-103910714D02*
X118697664Y-103879762D01*
X118697664Y-103879762D02*
X118635759Y-103848809D01*
X118635759Y-103848809D02*
X118573854Y-103786904D01*
X118573854Y-103786904D02*
X118542902Y-103694047D01*
X118542902Y-103694047D02*
X118542902Y-103632143D01*
X118542902Y-103632143D02*
X118573854Y-103539285D01*
X118573854Y-103539285D02*
X118604807Y-103508333D01*
X118542902Y-103291666D02*
X118542902Y-102858333D01*
X118542902Y-102858333D02*
X119192902Y-103136904D01*
X105782142Y-90230997D02*
X105751190Y-90261950D01*
X105751190Y-90261950D02*
X105658332Y-90292902D01*
X105658332Y-90292902D02*
X105596428Y-90292902D01*
X105596428Y-90292902D02*
X105503571Y-90261950D01*
X105503571Y-90261950D02*
X105441666Y-90200045D01*
X105441666Y-90200045D02*
X105410713Y-90138140D01*
X105410713Y-90138140D02*
X105379761Y-90014330D01*
X105379761Y-90014330D02*
X105379761Y-89921473D01*
X105379761Y-89921473D02*
X105410713Y-89797664D01*
X105410713Y-89797664D02*
X105441666Y-89735759D01*
X105441666Y-89735759D02*
X105503571Y-89673854D01*
X105503571Y-89673854D02*
X105596428Y-89642902D01*
X105596428Y-89642902D02*
X105658332Y-89642902D01*
X105658332Y-89642902D02*
X105751190Y-89673854D01*
X105751190Y-89673854D02*
X105782142Y-89704807D01*
X106401190Y-90292902D02*
X106029761Y-90292902D01*
X106215475Y-90292902D02*
X106215475Y-89642902D01*
X106215475Y-89642902D02*
X106153571Y-89735759D01*
X106153571Y-89735759D02*
X106091666Y-89797664D01*
X106091666Y-89797664D02*
X106029761Y-89828616D01*
X106617857Y-89642902D02*
X107020238Y-89642902D01*
X107020238Y-89642902D02*
X106803571Y-89890521D01*
X106803571Y-89890521D02*
X106896428Y-89890521D01*
X106896428Y-89890521D02*
X106958333Y-89921473D01*
X106958333Y-89921473D02*
X106989285Y-89952426D01*
X106989285Y-89952426D02*
X107020238Y-90014330D01*
X107020238Y-90014330D02*
X107020238Y-90169092D01*
X107020238Y-90169092D02*
X106989285Y-90230997D01*
X106989285Y-90230997D02*
X106958333Y-90261950D01*
X106958333Y-90261950D02*
X106896428Y-90292902D01*
X106896428Y-90292902D02*
X106710714Y-90292902D01*
X106710714Y-90292902D02*
X106648809Y-90261950D01*
X106648809Y-90261950D02*
X106617857Y-90230997D01*
X95383333Y-91342902D02*
X95383333Y-91807188D01*
X95383333Y-91807188D02*
X95352380Y-91900045D01*
X95352380Y-91900045D02*
X95290476Y-91961950D01*
X95290476Y-91961950D02*
X95197618Y-91992902D01*
X95197618Y-91992902D02*
X95135714Y-91992902D01*
X96033333Y-91992902D02*
X95661904Y-91992902D01*
X95847618Y-91992902D02*
X95847618Y-91342902D01*
X95847618Y-91342902D02*
X95785714Y-91435759D01*
X95785714Y-91435759D02*
X95723809Y-91497664D01*
X95723809Y-91497664D02*
X95661904Y-91528616D01*
X103883333Y-112842902D02*
X103883333Y-113307188D01*
X103883333Y-113307188D02*
X103852380Y-113400045D01*
X103852380Y-113400045D02*
X103790476Y-113461950D01*
X103790476Y-113461950D02*
X103697618Y-113492902D01*
X103697618Y-113492902D02*
X103635714Y-113492902D01*
X104161904Y-112904807D02*
X104192856Y-112873854D01*
X104192856Y-112873854D02*
X104254761Y-112842902D01*
X104254761Y-112842902D02*
X104409523Y-112842902D01*
X104409523Y-112842902D02*
X104471428Y-112873854D01*
X104471428Y-112873854D02*
X104502380Y-112904807D01*
X104502380Y-112904807D02*
X104533333Y-112966711D01*
X104533333Y-112966711D02*
X104533333Y-113028616D01*
X104533333Y-113028616D02*
X104502380Y-113121473D01*
X104502380Y-113121473D02*
X104130952Y-113492902D01*
X104130952Y-113492902D02*
X104533333Y-113492902D01*
X116533333Y-106642902D02*
X116533333Y-107107188D01*
X116533333Y-107107188D02*
X116502380Y-107200045D01*
X116502380Y-107200045D02*
X116440476Y-107261950D01*
X116440476Y-107261950D02*
X116347618Y-107292902D01*
X116347618Y-107292902D02*
X116285714Y-107292902D01*
X117152380Y-106642902D02*
X116842856Y-106642902D01*
X116842856Y-106642902D02*
X116811904Y-106952426D01*
X116811904Y-106952426D02*
X116842856Y-106921473D01*
X116842856Y-106921473D02*
X116904761Y-106890521D01*
X116904761Y-106890521D02*
X117059523Y-106890521D01*
X117059523Y-106890521D02*
X117121428Y-106921473D01*
X117121428Y-106921473D02*
X117152380Y-106952426D01*
X117152380Y-106952426D02*
X117183333Y-107014330D01*
X117183333Y-107014330D02*
X117183333Y-107169092D01*
X117183333Y-107169092D02*
X117152380Y-107230997D01*
X117152380Y-107230997D02*
X117121428Y-107261950D01*
X117121428Y-107261950D02*
X117059523Y-107292902D01*
X117059523Y-107292902D02*
X116904761Y-107292902D01*
X116904761Y-107292902D02*
X116842856Y-107261950D01*
X116842856Y-107261950D02*
X116811904Y-107230997D01*
X108882142Y-101330997D02*
X108851190Y-101361950D01*
X108851190Y-101361950D02*
X108758332Y-101392902D01*
X108758332Y-101392902D02*
X108696428Y-101392902D01*
X108696428Y-101392902D02*
X108603571Y-101361950D01*
X108603571Y-101361950D02*
X108541666Y-101300045D01*
X108541666Y-101300045D02*
X108510713Y-101238140D01*
X108510713Y-101238140D02*
X108479761Y-101114330D01*
X108479761Y-101114330D02*
X108479761Y-101021473D01*
X108479761Y-101021473D02*
X108510713Y-100897664D01*
X108510713Y-100897664D02*
X108541666Y-100835759D01*
X108541666Y-100835759D02*
X108603571Y-100773854D01*
X108603571Y-100773854D02*
X108696428Y-100742902D01*
X108696428Y-100742902D02*
X108758332Y-100742902D01*
X108758332Y-100742902D02*
X108851190Y-100773854D01*
X108851190Y-100773854D02*
X108882142Y-100804807D01*
X109501190Y-101392902D02*
X109129761Y-101392902D01*
X109315475Y-101392902D02*
X109315475Y-100742902D01*
X109315475Y-100742902D02*
X109253571Y-100835759D01*
X109253571Y-100835759D02*
X109191666Y-100897664D01*
X109191666Y-100897664D02*
X109129761Y-100928616D01*
X110120238Y-101392902D02*
X109748809Y-101392902D01*
X109934523Y-101392902D02*
X109934523Y-100742902D01*
X109934523Y-100742902D02*
X109872619Y-100835759D01*
X109872619Y-100835759D02*
X109810714Y-100897664D01*
X109810714Y-100897664D02*
X109748809Y-100928616D01*
X108882142Y-87330997D02*
X108851190Y-87361950D01*
X108851190Y-87361950D02*
X108758332Y-87392902D01*
X108758332Y-87392902D02*
X108696428Y-87392902D01*
X108696428Y-87392902D02*
X108603571Y-87361950D01*
X108603571Y-87361950D02*
X108541666Y-87300045D01*
X108541666Y-87300045D02*
X108510713Y-87238140D01*
X108510713Y-87238140D02*
X108479761Y-87114330D01*
X108479761Y-87114330D02*
X108479761Y-87021473D01*
X108479761Y-87021473D02*
X108510713Y-86897664D01*
X108510713Y-86897664D02*
X108541666Y-86835759D01*
X108541666Y-86835759D02*
X108603571Y-86773854D01*
X108603571Y-86773854D02*
X108696428Y-86742902D01*
X108696428Y-86742902D02*
X108758332Y-86742902D01*
X108758332Y-86742902D02*
X108851190Y-86773854D01*
X108851190Y-86773854D02*
X108882142Y-86804807D01*
X109501190Y-87392902D02*
X109129761Y-87392902D01*
X109315475Y-87392902D02*
X109315475Y-86742902D01*
X109315475Y-86742902D02*
X109253571Y-86835759D01*
X109253571Y-86835759D02*
X109191666Y-86897664D01*
X109191666Y-86897664D02*
X109129761Y-86928616D01*
X109903571Y-86742902D02*
X109965476Y-86742902D01*
X109965476Y-86742902D02*
X110027380Y-86773854D01*
X110027380Y-86773854D02*
X110058333Y-86804807D01*
X110058333Y-86804807D02*
X110089285Y-86866711D01*
X110089285Y-86866711D02*
X110120238Y-86990521D01*
X110120238Y-86990521D02*
X110120238Y-87145283D01*
X110120238Y-87145283D02*
X110089285Y-87269092D01*
X110089285Y-87269092D02*
X110058333Y-87330997D01*
X110058333Y-87330997D02*
X110027380Y-87361950D01*
X110027380Y-87361950D02*
X109965476Y-87392902D01*
X109965476Y-87392902D02*
X109903571Y-87392902D01*
X109903571Y-87392902D02*
X109841666Y-87361950D01*
X109841666Y-87361950D02*
X109810714Y-87330997D01*
X109810714Y-87330997D02*
X109779761Y-87269092D01*
X109779761Y-87269092D02*
X109748809Y-87145283D01*
X109748809Y-87145283D02*
X109748809Y-86990521D01*
X109748809Y-86990521D02*
X109779761Y-86866711D01*
X109779761Y-86866711D02*
X109810714Y-86804807D01*
X109810714Y-86804807D02*
X109841666Y-86773854D01*
X109841666Y-86773854D02*
X109903571Y-86742902D01*
X135083333Y-89052902D02*
X135083333Y-89517188D01*
X135083333Y-89517188D02*
X135052380Y-89610045D01*
X135052380Y-89610045D02*
X134990476Y-89671950D01*
X134990476Y-89671950D02*
X134897618Y-89702902D01*
X134897618Y-89702902D02*
X134835714Y-89702902D01*
X135330952Y-89052902D02*
X135733333Y-89052902D01*
X135733333Y-89052902D02*
X135516666Y-89300521D01*
X135516666Y-89300521D02*
X135609523Y-89300521D01*
X135609523Y-89300521D02*
X135671428Y-89331473D01*
X135671428Y-89331473D02*
X135702380Y-89362426D01*
X135702380Y-89362426D02*
X135733333Y-89424330D01*
X135733333Y-89424330D02*
X135733333Y-89579092D01*
X135733333Y-89579092D02*
X135702380Y-89640997D01*
X135702380Y-89640997D02*
X135671428Y-89671950D01*
X135671428Y-89671950D02*
X135609523Y-89702902D01*
X135609523Y-89702902D02*
X135423809Y-89702902D01*
X135423809Y-89702902D02*
X135361904Y-89671950D01*
X135361904Y-89671950D02*
X135330952Y-89640997D01*
X105782142Y-98530997D02*
X105751190Y-98561950D01*
X105751190Y-98561950D02*
X105658332Y-98592902D01*
X105658332Y-98592902D02*
X105596428Y-98592902D01*
X105596428Y-98592902D02*
X105503571Y-98561950D01*
X105503571Y-98561950D02*
X105441666Y-98500045D01*
X105441666Y-98500045D02*
X105410713Y-98438140D01*
X105410713Y-98438140D02*
X105379761Y-98314330D01*
X105379761Y-98314330D02*
X105379761Y-98221473D01*
X105379761Y-98221473D02*
X105410713Y-98097664D01*
X105410713Y-98097664D02*
X105441666Y-98035759D01*
X105441666Y-98035759D02*
X105503571Y-97973854D01*
X105503571Y-97973854D02*
X105596428Y-97942902D01*
X105596428Y-97942902D02*
X105658332Y-97942902D01*
X105658332Y-97942902D02*
X105751190Y-97973854D01*
X105751190Y-97973854D02*
X105782142Y-98004807D01*
X106401190Y-98592902D02*
X106029761Y-98592902D01*
X106215475Y-98592902D02*
X106215475Y-97942902D01*
X106215475Y-97942902D02*
X106153571Y-98035759D01*
X106153571Y-98035759D02*
X106091666Y-98097664D01*
X106091666Y-98097664D02*
X106029761Y-98128616D01*
X106958333Y-98159569D02*
X106958333Y-98592902D01*
X106803571Y-97911950D02*
X106648809Y-98376235D01*
X106648809Y-98376235D02*
X107051190Y-98376235D01*
X109191666Y-88230997D02*
X109160714Y-88261950D01*
X109160714Y-88261950D02*
X109067856Y-88292902D01*
X109067856Y-88292902D02*
X109005952Y-88292902D01*
X109005952Y-88292902D02*
X108913095Y-88261950D01*
X108913095Y-88261950D02*
X108851190Y-88200045D01*
X108851190Y-88200045D02*
X108820237Y-88138140D01*
X108820237Y-88138140D02*
X108789285Y-88014330D01*
X108789285Y-88014330D02*
X108789285Y-87921473D01*
X108789285Y-87921473D02*
X108820237Y-87797664D01*
X108820237Y-87797664D02*
X108851190Y-87735759D01*
X108851190Y-87735759D02*
X108913095Y-87673854D01*
X108913095Y-87673854D02*
X109005952Y-87642902D01*
X109005952Y-87642902D02*
X109067856Y-87642902D01*
X109067856Y-87642902D02*
X109160714Y-87673854D01*
X109160714Y-87673854D02*
X109191666Y-87704807D01*
X109748809Y-87642902D02*
X109624999Y-87642902D01*
X109624999Y-87642902D02*
X109563095Y-87673854D01*
X109563095Y-87673854D02*
X109532142Y-87704807D01*
X109532142Y-87704807D02*
X109470237Y-87797664D01*
X109470237Y-87797664D02*
X109439285Y-87921473D01*
X109439285Y-87921473D02*
X109439285Y-88169092D01*
X109439285Y-88169092D02*
X109470237Y-88230997D01*
X109470237Y-88230997D02*
X109501190Y-88261950D01*
X109501190Y-88261950D02*
X109563095Y-88292902D01*
X109563095Y-88292902D02*
X109686904Y-88292902D01*
X109686904Y-88292902D02*
X109748809Y-88261950D01*
X109748809Y-88261950D02*
X109779761Y-88230997D01*
X109779761Y-88230997D02*
X109810714Y-88169092D01*
X109810714Y-88169092D02*
X109810714Y-88014330D01*
X109810714Y-88014330D02*
X109779761Y-87952426D01*
X109779761Y-87952426D02*
X109748809Y-87921473D01*
X109748809Y-87921473D02*
X109686904Y-87890521D01*
X109686904Y-87890521D02*
X109563095Y-87890521D01*
X109563095Y-87890521D02*
X109501190Y-87921473D01*
X109501190Y-87921473D02*
X109470237Y-87952426D01*
X109470237Y-87952426D02*
X109439285Y-88014330D01*
X103783378Y-94409523D02*
X104092902Y-94409523D01*
X103442902Y-94626190D02*
X103783378Y-94409523D01*
X103783378Y-94409523D02*
X103442902Y-94192856D01*
X104092902Y-93635713D02*
X104092902Y-94007142D01*
X104092902Y-93821428D02*
X103442902Y-93821428D01*
X103442902Y-93821428D02*
X103535759Y-93883332D01*
X103535759Y-93883332D02*
X103597664Y-93945237D01*
X103597664Y-93945237D02*
X103628616Y-94007142D01*
X115391666Y-77292902D02*
X115174999Y-76983378D01*
X115020237Y-77292902D02*
X115020237Y-76642902D01*
X115020237Y-76642902D02*
X115267856Y-76642902D01*
X115267856Y-76642902D02*
X115329761Y-76673854D01*
X115329761Y-76673854D02*
X115360714Y-76704807D01*
X115360714Y-76704807D02*
X115391666Y-76766711D01*
X115391666Y-76766711D02*
X115391666Y-76859569D01*
X115391666Y-76859569D02*
X115360714Y-76921473D01*
X115360714Y-76921473D02*
X115329761Y-76952426D01*
X115329761Y-76952426D02*
X115267856Y-76983378D01*
X115267856Y-76983378D02*
X115020237Y-76983378D01*
X115608333Y-76642902D02*
X116010714Y-76642902D01*
X116010714Y-76642902D02*
X115794047Y-76890521D01*
X115794047Y-76890521D02*
X115886904Y-76890521D01*
X115886904Y-76890521D02*
X115948809Y-76921473D01*
X115948809Y-76921473D02*
X115979761Y-76952426D01*
X115979761Y-76952426D02*
X116010714Y-77014330D01*
X116010714Y-77014330D02*
X116010714Y-77169092D01*
X116010714Y-77169092D02*
X115979761Y-77230997D01*
X115979761Y-77230997D02*
X115948809Y-77261950D01*
X115948809Y-77261950D02*
X115886904Y-77292902D01*
X115886904Y-77292902D02*
X115701190Y-77292902D01*
X115701190Y-77292902D02*
X115639285Y-77261950D01*
X115639285Y-77261950D02*
X115608333Y-77230997D01*
X124666666Y-103830997D02*
X124635714Y-103861950D01*
X124635714Y-103861950D02*
X124542856Y-103892902D01*
X124542856Y-103892902D02*
X124480952Y-103892902D01*
X124480952Y-103892902D02*
X124388095Y-103861950D01*
X124388095Y-103861950D02*
X124326190Y-103800045D01*
X124326190Y-103800045D02*
X124295237Y-103738140D01*
X124295237Y-103738140D02*
X124264285Y-103614330D01*
X124264285Y-103614330D02*
X124264285Y-103521473D01*
X124264285Y-103521473D02*
X124295237Y-103397664D01*
X124295237Y-103397664D02*
X124326190Y-103335759D01*
X124326190Y-103335759D02*
X124388095Y-103273854D01*
X124388095Y-103273854D02*
X124480952Y-103242902D01*
X124480952Y-103242902D02*
X124542856Y-103242902D01*
X124542856Y-103242902D02*
X124635714Y-103273854D01*
X124635714Y-103273854D02*
X124666666Y-103304807D01*
X125285714Y-103892902D02*
X124914285Y-103892902D01*
X125099999Y-103892902D02*
X125099999Y-103242902D01*
X125099999Y-103242902D02*
X125038095Y-103335759D01*
X125038095Y-103335759D02*
X124976190Y-103397664D01*
X124976190Y-103397664D02*
X124914285Y-103428616D01*
X119961950Y-82591666D02*
X119992902Y-82498809D01*
X119992902Y-82498809D02*
X119992902Y-82344047D01*
X119992902Y-82344047D02*
X119961950Y-82282142D01*
X119961950Y-82282142D02*
X119930997Y-82251190D01*
X119930997Y-82251190D02*
X119869092Y-82220237D01*
X119869092Y-82220237D02*
X119807188Y-82220237D01*
X119807188Y-82220237D02*
X119745283Y-82251190D01*
X119745283Y-82251190D02*
X119714330Y-82282142D01*
X119714330Y-82282142D02*
X119683378Y-82344047D01*
X119683378Y-82344047D02*
X119652426Y-82467856D01*
X119652426Y-82467856D02*
X119621473Y-82529761D01*
X119621473Y-82529761D02*
X119590521Y-82560714D01*
X119590521Y-82560714D02*
X119528616Y-82591666D01*
X119528616Y-82591666D02*
X119466711Y-82591666D01*
X119466711Y-82591666D02*
X119404807Y-82560714D01*
X119404807Y-82560714D02*
X119373854Y-82529761D01*
X119373854Y-82529761D02*
X119342902Y-82467856D01*
X119342902Y-82467856D02*
X119342902Y-82313095D01*
X119342902Y-82313095D02*
X119373854Y-82220237D01*
X119342902Y-82003570D02*
X119992902Y-81848808D01*
X119992902Y-81848808D02*
X119528616Y-81724999D01*
X119528616Y-81724999D02*
X119992902Y-81601189D01*
X119992902Y-81601189D02*
X119342902Y-81446428D01*
X119992902Y-80858332D02*
X119992902Y-81229761D01*
X119992902Y-81044047D02*
X119342902Y-81044047D01*
X119342902Y-81044047D02*
X119435759Y-81105951D01*
X119435759Y-81105951D02*
X119497664Y-81167856D01*
X119497664Y-81167856D02*
X119528616Y-81229761D01*
X100491666Y-101192902D02*
X100274999Y-100883378D01*
X100120237Y-101192902D02*
X100120237Y-100542902D01*
X100120237Y-100542902D02*
X100367856Y-100542902D01*
X100367856Y-100542902D02*
X100429761Y-100573854D01*
X100429761Y-100573854D02*
X100460714Y-100604807D01*
X100460714Y-100604807D02*
X100491666Y-100666711D01*
X100491666Y-100666711D02*
X100491666Y-100759569D01*
X100491666Y-100759569D02*
X100460714Y-100821473D01*
X100460714Y-100821473D02*
X100429761Y-100852426D01*
X100429761Y-100852426D02*
X100367856Y-100883378D01*
X100367856Y-100883378D02*
X100120237Y-100883378D01*
X100708333Y-100542902D02*
X101141666Y-100542902D01*
X101141666Y-100542902D02*
X100863095Y-101192902D01*
X114738095Y-83364819D02*
X114738095Y-84174342D01*
X114738095Y-84174342D02*
X114785714Y-84269580D01*
X114785714Y-84269580D02*
X114833333Y-84317200D01*
X114833333Y-84317200D02*
X114928571Y-84364819D01*
X114928571Y-84364819D02*
X115119047Y-84364819D01*
X115119047Y-84364819D02*
X115214285Y-84317200D01*
X115214285Y-84317200D02*
X115261904Y-84269580D01*
X115261904Y-84269580D02*
X115309523Y-84174342D01*
X115309523Y-84174342D02*
X115309523Y-83364819D01*
X115690476Y-83364819D02*
X116357142Y-83364819D01*
X116357142Y-83364819D02*
X115928571Y-84364819D01*
X100491666Y-105392902D02*
X100274999Y-105083378D01*
X100120237Y-105392902D02*
X100120237Y-104742902D01*
X100120237Y-104742902D02*
X100367856Y-104742902D01*
X100367856Y-104742902D02*
X100429761Y-104773854D01*
X100429761Y-104773854D02*
X100460714Y-104804807D01*
X100460714Y-104804807D02*
X100491666Y-104866711D01*
X100491666Y-104866711D02*
X100491666Y-104959569D01*
X100491666Y-104959569D02*
X100460714Y-105021473D01*
X100460714Y-105021473D02*
X100429761Y-105052426D01*
X100429761Y-105052426D02*
X100367856Y-105083378D01*
X100367856Y-105083378D02*
X100120237Y-105083378D01*
X100863095Y-105021473D02*
X100801190Y-104990521D01*
X100801190Y-104990521D02*
X100770237Y-104959569D01*
X100770237Y-104959569D02*
X100739285Y-104897664D01*
X100739285Y-104897664D02*
X100739285Y-104866711D01*
X100739285Y-104866711D02*
X100770237Y-104804807D01*
X100770237Y-104804807D02*
X100801190Y-104773854D01*
X100801190Y-104773854D02*
X100863095Y-104742902D01*
X100863095Y-104742902D02*
X100986904Y-104742902D01*
X100986904Y-104742902D02*
X101048809Y-104773854D01*
X101048809Y-104773854D02*
X101079761Y-104804807D01*
X101079761Y-104804807D02*
X101110714Y-104866711D01*
X101110714Y-104866711D02*
X101110714Y-104897664D01*
X101110714Y-104897664D02*
X101079761Y-104959569D01*
X101079761Y-104959569D02*
X101048809Y-104990521D01*
X101048809Y-104990521D02*
X100986904Y-105021473D01*
X100986904Y-105021473D02*
X100863095Y-105021473D01*
X100863095Y-105021473D02*
X100801190Y-105052426D01*
X100801190Y-105052426D02*
X100770237Y-105083378D01*
X100770237Y-105083378D02*
X100739285Y-105145283D01*
X100739285Y-105145283D02*
X100739285Y-105269092D01*
X100739285Y-105269092D02*
X100770237Y-105330997D01*
X100770237Y-105330997D02*
X100801190Y-105361950D01*
X100801190Y-105361950D02*
X100863095Y-105392902D01*
X100863095Y-105392902D02*
X100986904Y-105392902D01*
X100986904Y-105392902D02*
X101048809Y-105361950D01*
X101048809Y-105361950D02*
X101079761Y-105330997D01*
X101079761Y-105330997D02*
X101110714Y-105269092D01*
X101110714Y-105269092D02*
X101110714Y-105145283D01*
X101110714Y-105145283D02*
X101079761Y-105083378D01*
X101079761Y-105083378D02*
X101048809Y-105052426D01*
X101048809Y-105052426D02*
X100986904Y-105021473D01*
X109191666Y-102292902D02*
X108882142Y-102292902D01*
X108882142Y-102292902D02*
X108882142Y-101642902D01*
X109748809Y-102292902D02*
X109377380Y-102292902D01*
X109563094Y-102292902D02*
X109563094Y-101642902D01*
X109563094Y-101642902D02*
X109501190Y-101735759D01*
X109501190Y-101735759D02*
X109439285Y-101797664D01*
X109439285Y-101797664D02*
X109377380Y-101828616D01*
X119891666Y-79692902D02*
X119674999Y-79383378D01*
X119520237Y-79692902D02*
X119520237Y-79042902D01*
X119520237Y-79042902D02*
X119767856Y-79042902D01*
X119767856Y-79042902D02*
X119829761Y-79073854D01*
X119829761Y-79073854D02*
X119860714Y-79104807D01*
X119860714Y-79104807D02*
X119891666Y-79166711D01*
X119891666Y-79166711D02*
X119891666Y-79259569D01*
X119891666Y-79259569D02*
X119860714Y-79321473D01*
X119860714Y-79321473D02*
X119829761Y-79352426D01*
X119829761Y-79352426D02*
X119767856Y-79383378D01*
X119767856Y-79383378D02*
X119520237Y-79383378D01*
X120479761Y-79042902D02*
X120170237Y-79042902D01*
X120170237Y-79042902D02*
X120139285Y-79352426D01*
X120139285Y-79352426D02*
X120170237Y-79321473D01*
X120170237Y-79321473D02*
X120232142Y-79290521D01*
X120232142Y-79290521D02*
X120386904Y-79290521D01*
X120386904Y-79290521D02*
X120448809Y-79321473D01*
X120448809Y-79321473D02*
X120479761Y-79352426D01*
X120479761Y-79352426D02*
X120510714Y-79414330D01*
X120510714Y-79414330D02*
X120510714Y-79569092D01*
X120510714Y-79569092D02*
X120479761Y-79630997D01*
X120479761Y-79630997D02*
X120448809Y-79661950D01*
X120448809Y-79661950D02*
X120386904Y-79692902D01*
X120386904Y-79692902D02*
X120232142Y-79692902D01*
X120232142Y-79692902D02*
X120170237Y-79661950D01*
X120170237Y-79661950D02*
X120139285Y-79630997D01*
X97020237Y-101192902D02*
X97020237Y-100542902D01*
X97020237Y-100542902D02*
X97174999Y-100542902D01*
X97174999Y-100542902D02*
X97267856Y-100573854D01*
X97267856Y-100573854D02*
X97329761Y-100635759D01*
X97329761Y-100635759D02*
X97360714Y-100697664D01*
X97360714Y-100697664D02*
X97391666Y-100821473D01*
X97391666Y-100821473D02*
X97391666Y-100914330D01*
X97391666Y-100914330D02*
X97360714Y-101038140D01*
X97360714Y-101038140D02*
X97329761Y-101100045D01*
X97329761Y-101100045D02*
X97267856Y-101161950D01*
X97267856Y-101161950D02*
X97174999Y-101192902D01*
X97174999Y-101192902D02*
X97020237Y-101192902D01*
X98010714Y-101192902D02*
X97639285Y-101192902D01*
X97824999Y-101192902D02*
X97824999Y-100542902D01*
X97824999Y-100542902D02*
X97763095Y-100635759D01*
X97763095Y-100635759D02*
X97701190Y-100697664D01*
X97701190Y-100697664D02*
X97639285Y-100728616D01*
X109191666Y-89130997D02*
X109160714Y-89161950D01*
X109160714Y-89161950D02*
X109067856Y-89192902D01*
X109067856Y-89192902D02*
X109005952Y-89192902D01*
X109005952Y-89192902D02*
X108913095Y-89161950D01*
X108913095Y-89161950D02*
X108851190Y-89100045D01*
X108851190Y-89100045D02*
X108820237Y-89038140D01*
X108820237Y-89038140D02*
X108789285Y-88914330D01*
X108789285Y-88914330D02*
X108789285Y-88821473D01*
X108789285Y-88821473D02*
X108820237Y-88697664D01*
X108820237Y-88697664D02*
X108851190Y-88635759D01*
X108851190Y-88635759D02*
X108913095Y-88573854D01*
X108913095Y-88573854D02*
X109005952Y-88542902D01*
X109005952Y-88542902D02*
X109067856Y-88542902D01*
X109067856Y-88542902D02*
X109160714Y-88573854D01*
X109160714Y-88573854D02*
X109191666Y-88604807D01*
X109501190Y-89192902D02*
X109624999Y-89192902D01*
X109624999Y-89192902D02*
X109686904Y-89161950D01*
X109686904Y-89161950D02*
X109717856Y-89130997D01*
X109717856Y-89130997D02*
X109779761Y-89038140D01*
X109779761Y-89038140D02*
X109810714Y-88914330D01*
X109810714Y-88914330D02*
X109810714Y-88666711D01*
X109810714Y-88666711D02*
X109779761Y-88604807D01*
X109779761Y-88604807D02*
X109748809Y-88573854D01*
X109748809Y-88573854D02*
X109686904Y-88542902D01*
X109686904Y-88542902D02*
X109563095Y-88542902D01*
X109563095Y-88542902D02*
X109501190Y-88573854D01*
X109501190Y-88573854D02*
X109470237Y-88604807D01*
X109470237Y-88604807D02*
X109439285Y-88666711D01*
X109439285Y-88666711D02*
X109439285Y-88821473D01*
X109439285Y-88821473D02*
X109470237Y-88883378D01*
X109470237Y-88883378D02*
X109501190Y-88914330D01*
X109501190Y-88914330D02*
X109563095Y-88945283D01*
X109563095Y-88945283D02*
X109686904Y-88945283D01*
X109686904Y-88945283D02*
X109748809Y-88914330D01*
X109748809Y-88914330D02*
X109779761Y-88883378D01*
X109779761Y-88883378D02*
X109810714Y-88821473D01*
X115004761Y-90542902D02*
X115004761Y-91069092D01*
X115004761Y-91069092D02*
X115035714Y-91130997D01*
X115035714Y-91130997D02*
X115066666Y-91161950D01*
X115066666Y-91161950D02*
X115128571Y-91192902D01*
X115128571Y-91192902D02*
X115252380Y-91192902D01*
X115252380Y-91192902D02*
X115314285Y-91161950D01*
X115314285Y-91161950D02*
X115345238Y-91130997D01*
X115345238Y-91130997D02*
X115376190Y-91069092D01*
X115376190Y-91069092D02*
X115376190Y-90542902D01*
X115964285Y-90759569D02*
X115964285Y-91192902D01*
X115809523Y-90511950D02*
X115654761Y-90976235D01*
X115654761Y-90976235D02*
X116057142Y-90976235D01*
X132330997Y-104108333D02*
X132361950Y-104139285D01*
X132361950Y-104139285D02*
X132392902Y-104232143D01*
X132392902Y-104232143D02*
X132392902Y-104294047D01*
X132392902Y-104294047D02*
X132361950Y-104386904D01*
X132361950Y-104386904D02*
X132300045Y-104448809D01*
X132300045Y-104448809D02*
X132238140Y-104479762D01*
X132238140Y-104479762D02*
X132114330Y-104510714D01*
X132114330Y-104510714D02*
X132021473Y-104510714D01*
X132021473Y-104510714D02*
X131897664Y-104479762D01*
X131897664Y-104479762D02*
X131835759Y-104448809D01*
X131835759Y-104448809D02*
X131773854Y-104386904D01*
X131773854Y-104386904D02*
X131742902Y-104294047D01*
X131742902Y-104294047D02*
X131742902Y-104232143D01*
X131742902Y-104232143D02*
X131773854Y-104139285D01*
X131773854Y-104139285D02*
X131804807Y-104108333D01*
X131804807Y-103860714D02*
X131773854Y-103829762D01*
X131773854Y-103829762D02*
X131742902Y-103767857D01*
X131742902Y-103767857D02*
X131742902Y-103613095D01*
X131742902Y-103613095D02*
X131773854Y-103551190D01*
X131773854Y-103551190D02*
X131804807Y-103520238D01*
X131804807Y-103520238D02*
X131866711Y-103489285D01*
X131866711Y-103489285D02*
X131928616Y-103489285D01*
X131928616Y-103489285D02*
X132021473Y-103520238D01*
X132021473Y-103520238D02*
X132392902Y-103891666D01*
X132392902Y-103891666D02*
X132392902Y-103489285D01*
D13*
X128059847Y-105180952D02*
X128383657Y-105180952D01*
X128383657Y-105180952D02*
X128421752Y-105157142D01*
X128421752Y-105157142D02*
X128440800Y-105133333D01*
X128440800Y-105133333D02*
X128459847Y-105085714D01*
X128459847Y-105085714D02*
X128459847Y-104990476D01*
X128459847Y-104990476D02*
X128440800Y-104942857D01*
X128440800Y-104942857D02*
X128421752Y-104919047D01*
X128421752Y-104919047D02*
X128383657Y-104895238D01*
X128383657Y-104895238D02*
X128059847Y-104895238D01*
X128459847Y-104395237D02*
X128459847Y-104680951D01*
X128459847Y-104538094D02*
X128059847Y-104538094D01*
X128059847Y-104538094D02*
X128116990Y-104585713D01*
X128116990Y-104585713D02*
X128155085Y-104633332D01*
X128155085Y-104633332D02*
X128174133Y-104680951D01*
D12*
X111561950Y-82591666D02*
X111592902Y-82498809D01*
X111592902Y-82498809D02*
X111592902Y-82344047D01*
X111592902Y-82344047D02*
X111561950Y-82282142D01*
X111561950Y-82282142D02*
X111530997Y-82251190D01*
X111530997Y-82251190D02*
X111469092Y-82220237D01*
X111469092Y-82220237D02*
X111407188Y-82220237D01*
X111407188Y-82220237D02*
X111345283Y-82251190D01*
X111345283Y-82251190D02*
X111314330Y-82282142D01*
X111314330Y-82282142D02*
X111283378Y-82344047D01*
X111283378Y-82344047D02*
X111252426Y-82467856D01*
X111252426Y-82467856D02*
X111221473Y-82529761D01*
X111221473Y-82529761D02*
X111190521Y-82560714D01*
X111190521Y-82560714D02*
X111128616Y-82591666D01*
X111128616Y-82591666D02*
X111066711Y-82591666D01*
X111066711Y-82591666D02*
X111004807Y-82560714D01*
X111004807Y-82560714D02*
X110973854Y-82529761D01*
X110973854Y-82529761D02*
X110942902Y-82467856D01*
X110942902Y-82467856D02*
X110942902Y-82313095D01*
X110942902Y-82313095D02*
X110973854Y-82220237D01*
X110942902Y-82003570D02*
X111592902Y-81848808D01*
X111592902Y-81848808D02*
X111128616Y-81724999D01*
X111128616Y-81724999D02*
X111592902Y-81601189D01*
X111592902Y-81601189D02*
X110942902Y-81446428D01*
X111004807Y-81229761D02*
X110973854Y-81198809D01*
X110973854Y-81198809D02*
X110942902Y-81136904D01*
X110942902Y-81136904D02*
X110942902Y-80982142D01*
X110942902Y-80982142D02*
X110973854Y-80920237D01*
X110973854Y-80920237D02*
X111004807Y-80889285D01*
X111004807Y-80889285D02*
X111066711Y-80858332D01*
X111066711Y-80858332D02*
X111128616Y-80858332D01*
X111128616Y-80858332D02*
X111221473Y-80889285D01*
X111221473Y-80889285D02*
X111592902Y-81260713D01*
X111592902Y-81260713D02*
X111592902Y-80858332D01*
X110282142Y-79630997D02*
X110251190Y-79661950D01*
X110251190Y-79661950D02*
X110158332Y-79692902D01*
X110158332Y-79692902D02*
X110096428Y-79692902D01*
X110096428Y-79692902D02*
X110003571Y-79661950D01*
X110003571Y-79661950D02*
X109941666Y-79600045D01*
X109941666Y-79600045D02*
X109910713Y-79538140D01*
X109910713Y-79538140D02*
X109879761Y-79414330D01*
X109879761Y-79414330D02*
X109879761Y-79321473D01*
X109879761Y-79321473D02*
X109910713Y-79197664D01*
X109910713Y-79197664D02*
X109941666Y-79135759D01*
X109941666Y-79135759D02*
X110003571Y-79073854D01*
X110003571Y-79073854D02*
X110096428Y-79042902D01*
X110096428Y-79042902D02*
X110158332Y-79042902D01*
X110158332Y-79042902D02*
X110251190Y-79073854D01*
X110251190Y-79073854D02*
X110282142Y-79104807D01*
X110901190Y-79692902D02*
X110529761Y-79692902D01*
X110715475Y-79692902D02*
X110715475Y-79042902D01*
X110715475Y-79042902D02*
X110653571Y-79135759D01*
X110653571Y-79135759D02*
X110591666Y-79197664D01*
X110591666Y-79197664D02*
X110529761Y-79228616D01*
X111148809Y-79104807D02*
X111179761Y-79073854D01*
X111179761Y-79073854D02*
X111241666Y-79042902D01*
X111241666Y-79042902D02*
X111396428Y-79042902D01*
X111396428Y-79042902D02*
X111458333Y-79073854D01*
X111458333Y-79073854D02*
X111489285Y-79104807D01*
X111489285Y-79104807D02*
X111520238Y-79166711D01*
X111520238Y-79166711D02*
X111520238Y-79228616D01*
X111520238Y-79228616D02*
X111489285Y-79321473D01*
X111489285Y-79321473D02*
X111117857Y-79692902D01*
X111117857Y-79692902D02*
X111520238Y-79692902D01*
D14*
%TO.C,J4*%
X111440000Y-74790000D02*
X111440000Y-76910000D01*
X117500000Y-74790000D02*
X111440000Y-74790000D01*
X117500000Y-74790000D02*
X117500000Y-76910000D01*
X117500000Y-76910000D02*
X111440000Y-76910000D01*
X118500000Y-74790000D02*
X119560000Y-74790000D01*
X119560000Y-74790000D02*
X119560000Y-75850000D01*
%TO.C,R6*%
X124237258Y-106277500D02*
X123762742Y-106277500D01*
X124237258Y-107322500D02*
X123762742Y-107322500D01*
%TO.C,R4*%
X109537258Y-94677500D02*
X109062742Y-94677500D01*
X109537258Y-95722500D02*
X109062742Y-95722500D01*
%TO.C,D2*%
X96015000Y-103065000D02*
X96015000Y-104535000D01*
X96015000Y-104535000D02*
X98300000Y-104535000D01*
X98300000Y-103065000D02*
X96015000Y-103065000D01*
%TO.C,C5*%
X116790000Y-101059419D02*
X116790000Y-101340581D01*
X117810000Y-101059419D02*
X117810000Y-101340581D01*
%TO.C,C8*%
X119890000Y-91959419D02*
X119890000Y-92240581D01*
X120910000Y-91959419D02*
X120910000Y-92240581D01*
%TO.C,C7*%
X118390000Y-101059419D02*
X118390000Y-101340581D01*
X119410000Y-101059419D02*
X119410000Y-101340581D01*
%TO.C,C13*%
X106059420Y-90690000D02*
X106340580Y-90690000D01*
X106059420Y-91710000D02*
X106340580Y-91710000D01*
%TO.C,J1*%
X93840000Y-92320000D02*
X93840000Y-93120000D01*
X94080000Y-92560000D02*
X94080000Y-98380000D01*
X94880000Y-92320000D02*
X93840000Y-92320000D01*
X94999999Y-92560000D02*
X95000000Y-98380000D01*
X96000000Y-92560000D02*
X96000000Y-98380000D01*
X99101000Y-92560000D02*
X99101000Y-98380000D01*
X100820000Y-92560000D02*
X94080000Y-92560000D01*
X100820000Y-92560000D02*
X100820000Y-98380000D01*
X100820000Y-98380000D02*
X94080000Y-98380000D01*
%TO.C,J2*%
X103440000Y-114090000D02*
X103440000Y-116210000D01*
X113500000Y-114090000D02*
X103440000Y-114090000D01*
X113500000Y-114090000D02*
X113500000Y-116210000D01*
X113500000Y-116210000D02*
X103440000Y-116210000D01*
X114500000Y-114090000D02*
X115560000Y-114090000D01*
X115560000Y-114090000D02*
X115560000Y-115150000D01*
%TO.C,J5*%
X116800000Y-110670000D02*
X116800000Y-112450000D01*
X118700000Y-107750000D02*
X117900000Y-107750001D01*
X126200000Y-110670000D02*
X126200000Y-112450000D01*
%TO.C,C11*%
X109440581Y-96590000D02*
X109159419Y-96590000D01*
X109440581Y-97610000D02*
X109159419Y-97610000D01*
%TO.C,C10*%
X109440581Y-89790000D02*
X109159419Y-89790000D01*
X109440581Y-90810000D02*
X109159419Y-90810000D01*
%TO.C,J3*%
X132700000Y-100600000D02*
X132700000Y-94850000D01*
X132750000Y-90300000D02*
X138700000Y-90300000D01*
X132750000Y-93500000D02*
X132750000Y-90300000D01*
X137590000Y-94170000D02*
X138600000Y-94170000D01*
X137590001Y-99250000D02*
X137590000Y-94170000D01*
X138599999Y-99250000D02*
X137590001Y-99250000D01*
X138700000Y-90300000D02*
X138700000Y-100600000D01*
X138700000Y-100600000D02*
X132700000Y-100600000D01*
%TO.C,C14*%
X106340581Y-96490000D02*
X106059419Y-96490000D01*
X106340581Y-97510000D02*
X106059419Y-97510000D01*
%TO.C,C6*%
X109440581Y-91290000D02*
X109159419Y-91290000D01*
X109440581Y-92310000D02*
X109159419Y-92310000D01*
%TO.C,Y1*%
X104350000Y-92100000D02*
X104350000Y-96100000D01*
X107650000Y-92100000D02*
X104350000Y-92100000D01*
%TO.C,R3*%
X115737258Y-77577500D02*
X115262742Y-77577500D01*
X115737258Y-78622500D02*
X115262742Y-78622500D01*
%TO.C,C1*%
X124634419Y-104290000D02*
X124915581Y-104290000D01*
X124634419Y-105310000D02*
X124915581Y-105310000D01*
%TO.C,SW1*%
X115700000Y-79525001D02*
X115700000Y-83924999D01*
X115700000Y-83924999D02*
X115820000Y-83925000D01*
X115820000Y-79525000D02*
X115700000Y-79525001D01*
X116830000Y-83925000D02*
X117970000Y-83925000D01*
X117970000Y-79525000D02*
X116830000Y-79525000D01*
X118980000Y-83925000D02*
X119100000Y-83924999D01*
X119100000Y-79525001D02*
X118980000Y-79525000D01*
X119100000Y-83924999D02*
X119100000Y-79525001D01*
%TO.C,R7*%
X100837258Y-101677500D02*
X100362742Y-101677500D01*
X100837258Y-102722500D02*
X100362742Y-102722500D01*
%TO.C,U7*%
X112752500Y-84752500D02*
X112752500Y-85035000D01*
X112752500Y-90247500D02*
X112752500Y-89965000D01*
X115500000Y-84752500D02*
X112752500Y-84752500D01*
X115500000Y-84752500D02*
X118247500Y-84752500D01*
X115500000Y-90247500D02*
X112752500Y-90247500D01*
X115500000Y-90247500D02*
X118247500Y-90247500D01*
X118247500Y-84752500D02*
X118247500Y-85035000D01*
X118247500Y-90247500D02*
X118247500Y-89965000D01*
X111981250Y-85035000D02*
X111741250Y-84705000D01*
X112221250Y-84705000D01*
X111981250Y-85035000D01*
G36*
X111981250Y-85035000D02*
G01*
X111741250Y-84705000D01*
X112221250Y-84705000D01*
X111981250Y-85035000D01*
G37*
%TO.C,R8*%
X100837258Y-103277500D02*
X100362742Y-103277500D01*
X100837258Y-104322500D02*
X100362742Y-104322500D01*
%TO.C,L1*%
X108644128Y-98140000D02*
X109443372Y-98140000D01*
X108644128Y-99260000D02*
X109443372Y-99260000D01*
%TO.C,R5*%
X118262742Y-77577500D02*
X118737258Y-77577500D01*
X118262742Y-78622500D02*
X118737258Y-78622500D01*
%TO.C,D1*%
X96015000Y-101465000D02*
X96015000Y-102935000D01*
X96015000Y-102935000D02*
X98300000Y-102935000D01*
X98300000Y-101465000D02*
X96015000Y-101465000D01*
%TO.C,C9*%
X109440581Y-92790000D02*
X109159419Y-92790000D01*
X109440581Y-93810000D02*
X109159419Y-93810000D01*
%TO.C,U4*%
X111890000Y-92365000D02*
X111890000Y-92130000D01*
X111890000Y-99110000D02*
X111890000Y-98635000D01*
X112365000Y-91890000D02*
X112190000Y-91890000D01*
X112365000Y-99110000D02*
X111890000Y-99110000D01*
X118635000Y-91890000D02*
X119110000Y-91890000D01*
X118635000Y-99110000D02*
X119110000Y-99110000D01*
X119110000Y-91890000D02*
X119110000Y-92365000D01*
X119110000Y-99110000D02*
X119110000Y-98635000D01*
X111890000Y-91890000D02*
X111650000Y-91560000D01*
X112130000Y-91560000D01*
X111890000Y-91890000D01*
G36*
X111890000Y-91890000D02*
G01*
X111650000Y-91560000D01*
X112130000Y-91560000D01*
X111890000Y-91890000D01*
G37*
%TO.C,C2*%
X130290000Y-103859419D02*
X130290000Y-104140581D01*
X131310000Y-103859419D02*
X131310000Y-104140581D01*
D12*
%TO.C,U1*%
X127300000Y-103350000D02*
X128900000Y-103350000D01*
X127300000Y-106250000D02*
X127300000Y-103350000D01*
X128900000Y-103350000D02*
X128900000Y-106250000D01*
X128900000Y-106250000D02*
X127300000Y-106250000D01*
D11*
X127800000Y-103750000D02*
G75*
G02*
X127600000Y-103750000I-100000J0D01*
G01*
X127600000Y-103750000D02*
G75*
G02*
X127800000Y-103750000I100000J0D01*
G01*
D14*
%TO.C,SW2*%
X111900000Y-79525001D02*
X111900000Y-83924999D01*
X111900000Y-83924999D02*
X112020000Y-83925000D01*
X112020000Y-79525000D02*
X111900000Y-79525001D01*
X113030000Y-83925000D02*
X114170000Y-83925000D01*
X114170000Y-79525000D02*
X113030000Y-79525000D01*
X115180000Y-83925000D02*
X115300000Y-83924999D01*
X115300000Y-79525001D02*
X115180000Y-79525000D01*
X115300000Y-83924999D02*
X115300000Y-79525001D01*
%TO.C,C12*%
X112359420Y-77590000D02*
X112640580Y-77590000D01*
X112359420Y-78610000D02*
X112640580Y-78610000D01*
%TD*%
D15*
X118500000Y-75850000D03*
X116499999Y-75850000D03*
X114500000Y-75850000D03*
X112500000Y-75850000D03*
X128600000Y-80000000D03*
X129302944Y-78302944D03*
X129302944Y-81697056D03*
X131000000Y-77600000D03*
X131000000Y-80000000D03*
X131000000Y-82400000D03*
X132697056Y-78302944D03*
X132697056Y-81697056D03*
X133400000Y-80000000D03*
X97600000Y-94200000D03*
X97600000Y-96740000D03*
X114500000Y-115150000D03*
X112499999Y-115150000D03*
X110500000Y-115150000D03*
X108500000Y-115150000D03*
X106500000Y-115150000D03*
X104500000Y-115150000D03*
X118610000Y-109845000D03*
X124390000Y-109845000D03*
D16*
X117180000Y-109345000D03*
D17*
X117180000Y-113525000D03*
D16*
X125820000Y-109345000D03*
D17*
X125820000Y-113525000D03*
D15*
X97600000Y-80000000D03*
X98302944Y-78302944D03*
X98302944Y-81697056D03*
X100000000Y-77600000D03*
X100000000Y-80000000D03*
X100000000Y-82400000D03*
X101697056Y-78302944D03*
X101697056Y-81697056D03*
X102400000Y-80000000D03*
X133140000Y-94170000D03*
X135300000Y-99250000D03*
X135300000Y-96710000D03*
X135300000Y-94170001D03*
X135300000Y-91630000D03*
X128600000Y-111000000D03*
X129302944Y-109302944D03*
X129302944Y-112697056D03*
X131000000Y-108600000D03*
X131000000Y-111000000D03*
X131000000Y-113400000D03*
X132697056Y-109302944D03*
X132697056Y-112697056D03*
X133400000Y-111000000D03*
X97600000Y-111000000D03*
X98302944Y-109302944D03*
X98302944Y-112697056D03*
X100000000Y-108600000D03*
X100000000Y-111000000D03*
X100000000Y-113400000D03*
X101697056Y-109302944D03*
X101697056Y-112697056D03*
X102400000Y-111000000D03*
D18*
X123700000Y-96575000D03*
X125566667Y-96575000D03*
X127433333Y-96575000D03*
X129300000Y-96575000D03*
X123700000Y-94425000D03*
X125566667Y-94425000D03*
X127433333Y-94425000D03*
X129300000Y-94425000D03*
M02*
