%TF.GenerationSoftware,KiCad,Pcbnew,8.0.4*%
%TF.CreationDate,2024-08-27T17:51:01+02:00*%
%TF.ProjectId,stepper_driver_PCB,73746570-7065-4725-9f64-72697665725f,rev?*%
%TF.SameCoordinates,Original*%
%TF.FileFunction,Profile,NP*%
%FSLAX46Y46*%
G04 Gerber Fmt 4.6, Leading zero omitted, Abs format (unit mm)*
G04 Created by KiCad (PCBNEW 8.0.4) date 2024-08-27 17:51:01*
%MOMM*%
%LPD*%
G01*
G04 APERTURE LIST*
%TA.AperFunction,Profile*%
%ADD10C,0.050000*%
%TD*%
%ADD11C,0.350000*%
%ADD12O,0.600000X1.700000*%
%ADD13O,0.600000X1.200000*%
%ADD14C,0.300000*%
G04 APERTURE END LIST*
D10*
X136650000Y-111000000D02*
X136650000Y-80000000D01*
X100000000Y-74350000D02*
X131000000Y-74350000D01*
X131000000Y-74350000D02*
G75*
G02*
X136650000Y-80000000I0J-5650000D01*
G01*
X100000000Y-116650000D02*
G75*
G02*
X94350000Y-111000000I0J5650000D01*
G01*
X94350000Y-111000000D02*
X94350000Y-80000000D01*
X100000000Y-116650000D02*
X131000000Y-116650000D01*
X94350000Y-80000000D02*
G75*
G02*
X100000000Y-74350000I5650000J0D01*
G01*
X136650000Y-111000000D02*
G75*
G02*
X131000000Y-116650000I-5650000J0D01*
G01*
D11*
X114500000Y-115150000D03*
X112499999Y-115150000D03*
X110500000Y-115150000D03*
X108500000Y-115150000D03*
X106500000Y-115150000D03*
X104500000Y-115150000D03*
X118500000Y-75850000D03*
X116499999Y-75850000D03*
X114500000Y-75850000D03*
X112500000Y-75850000D03*
X128600000Y-80000000D03*
X129302944Y-78302944D03*
X129302944Y-81697056D03*
X131000000Y-77600000D03*
X131000000Y-80000000D03*
X131000000Y-82400000D03*
X132697056Y-78302944D03*
X132697056Y-81697056D03*
X133400000Y-80000000D03*
X97600000Y-94200000D03*
X97600000Y-96740000D03*
X118610000Y-109845000D03*
X124390000Y-109845000D03*
D12*
X117180000Y-109345000D03*
D13*
X117180000Y-113525000D03*
D12*
X125820000Y-109345000D03*
D13*
X125820000Y-113525000D03*
D11*
X97600000Y-80000000D03*
X98302944Y-78302944D03*
X98302944Y-81697056D03*
X100000000Y-77600000D03*
X100000000Y-80000000D03*
X100000000Y-82400000D03*
X101697056Y-78302944D03*
X101697056Y-81697056D03*
X102400000Y-80000000D03*
X133140000Y-94170000D03*
X135300000Y-99250000D03*
X135300000Y-96710000D03*
X135300000Y-94170001D03*
X135300000Y-91630000D03*
X128600000Y-111000000D03*
X129302944Y-109302944D03*
X129302944Y-112697056D03*
X131000000Y-108600000D03*
X131000000Y-111000000D03*
X131000000Y-113400000D03*
X132697056Y-109302944D03*
X132697056Y-112697056D03*
X133400000Y-111000000D03*
X97600000Y-111000000D03*
X98302944Y-109302944D03*
X98302944Y-112697056D03*
X100000000Y-108600000D03*
X100000000Y-111000000D03*
X100000000Y-113400000D03*
X101697056Y-109302944D03*
X101697056Y-112697056D03*
X102400000Y-111000000D03*
D14*
X123700000Y-96575000D03*
X125566667Y-96575000D03*
X127433333Y-96575000D03*
X129300000Y-96575000D03*
X123700000Y-94425000D03*
X125566667Y-94425000D03*
X127433333Y-94425000D03*
X129300000Y-94425000D03*
M02*
