M48
; DRILL file {KiCad 8.0.4} date 2024-08-27T17:51:01+0200
; FORMAT={-:-/ absolute / metric / decimal}
; #@! TF.CreationDate,2024-08-27T17:51:01+02:00
; #@! TF.GenerationSoftware,Kicad,Pcbnew,8.0.4
; #@! TF.FileFunction,Plated,1,4,PTH
FMAT,2
METRIC
; #@! TA.AperFunction,Plated,PTH,ViaDrill
T1C0.300
; #@! TA.AperFunction,Plated,PTH,ComponentDrill
T2C0.300
; #@! TA.AperFunction,Plated,PTH,ComponentDrill
T3C0.500
; #@! TA.AperFunction,Plated,PTH,ComponentDrill
T4C0.600
; #@! TA.AperFunction,Plated,PTH,ComponentDrill
T5C0.800
; #@! TA.AperFunction,Plated,PTH,ComponentDrill
T6C1.020
; #@! TA.AperFunction,Plated,PTH,ComponentDrill
T7C1.200
; #@! TA.AperFunction,Plated,PTH,ComponentDrill
T8C3.200
%
G90
G05
T1
X95.5Y-80.5
X95.5Y-85.5
X95.5Y-90.5
X95.5Y-95.5
X95.5Y-100.5
X95.5Y-105.5
X95.5Y-110.5
X97.4Y-102.209
X97.4Y-103.809
X100.5Y-75.5
X100.5Y-85.5
X100.5Y-90.5
X100.5Y-100.5
X100.5Y-105.5
X100.5Y-115.5
X101.425Y-103.0
X105.425Y-96.2
X105.5Y-75.5
X105.5Y-80.5
X105.5Y-85.5
X105.5Y-100.5
X105.5Y-105.5
X105.5Y-110.5
X106.975Y-92.0
X108.525Y-91.0
X108.525Y-92.6
X109.175Y-97.1
X109.219Y-98.7
X109.5Y-113.7
X110.075Y-91.0
X110.075Y-92.6
X110.5Y-75.5
X110.5Y-80.5
X110.5Y-85.5
X110.5Y-100.5
X110.5Y-105.5
X110.833Y-97.879
X110.9Y-78.1
X111.1Y-96.2
X111.1Y-97.0
X111.5Y-112.5
X112.0Y-92.062
X112.35Y-101.4
X112.5Y-84.7
X112.7Y-100.014
X112.85Y-102.7
X112.85Y-103.45
X113.1Y-85.6
X113.1Y-89.4
X113.1Y-93.1
X113.1Y-97.9
X113.5Y-79.5
X113.5Y-80.6
X113.5Y-81.7
X113.5Y-82.8
X113.8Y-91.1
X114.611Y-89.489
X114.675Y-80.6
X114.675Y-81.7
X114.675Y-82.8
X114.7Y-85.5
X115.0Y-102.7
X115.0Y-103.45
X115.0Y-104.2
X115.075Y-100.8
X115.2Y-90.2
X115.5Y-105.5
X115.5Y-110.5
X115.525Y-78.1
X116.2Y-89.4
X116.204Y-101.273
X116.325Y-80.6
X116.325Y-81.7
X116.325Y-82.8
X116.375Y-100.543
X116.5Y-85.5
X116.5Y-87.8
X116.508Y-99.797
X117.4Y-79.5
X117.4Y-81.725
X117.4Y-82.8
X117.65Y-90.626
X117.7Y-83.8
X117.806Y-89.406
X117.9Y-85.6
X117.9Y-86.9
X117.9Y-94.5
X117.9Y-96.5
X118.2Y-90.116
X118.3Y-107.7
X118.7Y-98.9
X118.9Y-101.325
X119.0Y-92.0
X119.8Y-96.3
X119.8Y-97.425
X119.8Y-99.3
X120.1Y-78.1
X120.383Y-92.225
X120.45Y-94.8
X120.5Y-90.2
X120.5Y-85.5
X120.5Y-75.5
X120.5Y-80.5
X120.5Y-89.45
X120.5Y-115.5
X120.7Y-109.7
X121.2Y-93.5
X121.2Y-94.8
X121.5Y-111.3
X121.5Y-112.05
X121.8Y-91.3
X121.917Y-99.856
X122.0Y-102.0
X122.3Y-109.7
X122.55Y-91.303
X122.742Y-99.856
X123.0Y-101.0
X123.5Y-103.0
X124.0Y-103.9
X124.7Y-107.7
X124.925Y-99.306
X124.95Y-91.3
X125.5Y-75.5
X125.5Y-80.5
X125.5Y-85.5
X125.5Y-103.0
X125.5Y-115.5
X125.504Y-101.025
X125.7Y-89.85
X125.7Y-91.3
X126.2Y-104.8
X126.9Y-103.0
X127.5Y-91.3
X127.7Y-104.8
X128.175Y-97.325
X128.3Y-91.3
X128.5Y-100.925
X128.5Y-103.1
X128.7Y-104.8
X129.5Y-100.1
X129.5Y-101.1
X129.5Y-102.1
X129.5Y-103.1
X129.7Y-104.8
X130.05Y-95.5
X130.5Y-75.5
X130.5Y-85.5
X130.5Y-90.5
X130.5Y-100.1
X130.5Y-101.1
X130.5Y-102.1
X130.5Y-115.5
X130.71Y-97.15
X130.736Y-93.85
X130.8Y-105.6
X131.5Y-100.1
X131.5Y-101.1
X131.5Y-102.1
X131.5Y-103.1
X131.7Y-104.8
X132.5Y-100.1
X132.5Y-101.1
X132.5Y-102.1
X132.5Y-103.1
X133.5Y-100.1
X133.5Y-101.1
X133.5Y-102.1
X133.5Y-103.1
X135.5Y-80.5
X135.5Y-85.5
X135.5Y-105.5
X135.5Y-110.5
T2
X123.7Y-94.425
X123.7Y-96.575
X125.567Y-94.425
X125.567Y-96.575
X127.433Y-94.425
X127.433Y-96.575
X129.3Y-94.425
X129.3Y-96.575
T3
X97.6Y-80.0
X97.6Y-111.0
X98.303Y-78.303
X98.303Y-81.697
X98.303Y-109.303
X98.303Y-112.697
X100.0Y-77.6
X100.0Y-82.4
X100.0Y-108.6
X100.0Y-113.4
X101.697Y-78.303
X101.697Y-81.697
X101.697Y-109.303
X101.697Y-112.697
X102.4Y-80.0
X102.4Y-111.0
X128.6Y-80.0
X128.6Y-111.0
X129.303Y-78.303
X129.303Y-81.697
X129.303Y-109.303
X129.303Y-112.697
X131.0Y-77.6
X131.0Y-82.4
X131.0Y-108.6
X131.0Y-113.4
X132.697Y-78.303
X132.697Y-81.697
X132.697Y-109.303
X132.697Y-112.697
X133.4Y-80.0
X133.4Y-111.0
T5
X104.5Y-115.15
X106.5Y-115.15
X108.5Y-115.15
X110.5Y-115.15
X112.5Y-115.15
X112.5Y-75.85
X114.5Y-75.85
X114.5Y-115.15
X116.5Y-75.85
X118.5Y-75.85
T6
X135.3Y-91.63
X135.3Y-94.17
X135.3Y-96.71
X135.3Y-99.25
T7
X97.6Y-94.2
X97.6Y-96.74
T8
X100.0Y-80.0
X100.0Y-111.0
X131.0Y-80.0
X131.0Y-111.0
T4
G00X117.18Y-108.795
M15
G01X117.18Y-109.895
M16
G05
G00X117.18Y-113.225
M15
G01X117.18Y-113.825
M16
G05
G00X125.82Y-108.795
M15
G01X125.82Y-109.895
M16
G05
G00X125.82Y-113.225
M15
G01X125.82Y-113.825
M16
G05
M30
